<svg xmlns="http://www.w3.org/2000/svg" viewBox="0 0 1920 1080"><title>Demo</title><g id="BG"><rect width="1920" height="1080.57" style="fill:#e4da60"/></g><g id="Connect"><circle cx="960" cy="540" r="325.58" style="fill:none;stroke:#2e2f1d;stroke-miterlimit:10;stroke-width:40px"/><path d="M705.3,568.19c1.43,11.88,13.31,19.65,29,19.65,15.54,0,26.35-7.68,26.35-18.4,0-9.29-6.61-14.65-22.87-18.5L721.12,547c-23.77-5.45-35-16.88-35-35.28,0-22.87,19.92-38.33,48-38.33,28.41,0,47.17,15.37,47.71,38.06h-22c-1.07-12.06-11.17-19.3-25.91-19.3-14.56,0-24.39,7.15-24.39,17.87,0,8.57,6.52,13.58,22.34,17.33l14.83,3.39c26.17,6,37.25,16.8,37.25,36,0,24.47-19.65,39.84-50.83,39.84C703.43,606.6,684,592,683,568.19Z" style="fill:#231916"/><path d="M882.55,576.14c-2.77,17.68-19.75,29.75-41.9,29.75-28.23,0-45.56-18.5-45.56-48.42s17.51-49.14,44.66-49.14c26.72,0,43.69,18.14,43.69,46.9v7.24h-66.2v1.34c0,14.92,9.56,24.83,23.85,24.83,10.1,0,18.23-4.82,20.64-12.5Zm-65.13-28.32h44.22c-.45-13.4-9.2-22.25-21.8-22.25C827.43,525.57,818.31,534.6,817.42,547.82Z" style="fill:#231916"/><path d="M893.62,577.3c0-16.89,13-26.62,36.9-28L955,547.73V541c0-9.92-6.7-15.37-18.14-15.37-9.65,0-16.53,5-18,12.51H898.36c.62-17.42,16.7-29.84,39.31-29.84,23.76,0,39.3,12.33,39.3,31.18v65H955.53v-15.1h-.44c-5.27,10.09-17,16.44-29.48,16.44C907,605.8,893.62,594.18,893.62,577.3ZM955,569.35V562.2l-21.35,1.34C922,564.34,916,568.81,916,576.4s6.43,12.6,16.35,12.6C945.08,589,955,580.6,955,569.35Z" style="fill:#231916"/><path d="M994.84,509.76h21.35v16.53h.45c3-11.17,11.52-17.6,22.69-17.6a28.52,28.52,0,0,1,7,.8v20.1a28.38,28.38,0,0,0-9-1.25c-12.6,0-20.19,8.13-20.19,21.53v54.59H994.84Z" style="fill:#231916"/><path d="M1116.61,543.53c-1.52-10-8.85-17.24-20.73-17.24-14,0-23.05,11.79-23.05,30.82,0,19.29,9.11,30.73,23.14,30.73,11.34,0,18.76-5.9,20.73-16.62h21c-1.79,21-18,34.67-41.9,34.67-27.69,0-45.56-18.59-45.56-48.78,0-29.75,17.87-48.78,45.38-48.78,24.84,0,40.56,15.37,42,35.2Z" style="fill:#231916"/><path d="M1151.54,475.54h22v50.75h.45c5.54-11.71,15.45-17.78,29.93-17.78,20.9,0,33.14,13.76,33.14,35.38v60.57h-22.24v-56c0-13.22-6.62-21.17-19.48-21.17-13.4,0-21.53,9.29-21.53,23.23v54h-22.24Z" style="fill:#231916"/><line x1="1212.73" y1="342.42" x2="1221.06" y2="336.88" style="fill:none;stroke:#2d2e1c;stroke-miterlimit:10;stroke-width:5px"/><line x1="1238.91" y1="325" x2="1408.53" y2="212.08" style="fill:none;stroke:#2d2e1c;stroke-miterlimit:10;stroke-width:5px;stroke-dasharray:21.449018478393555,21.449018478393555"/><line x1="1417.46" y1="206.14" x2="1425.78" y2="200.6" style="fill:none;stroke:#2d2e1c;stroke-miterlimit:10;stroke-width:5px"/><line x1="366.94" y1="590.94" x2="376.87" y2="589.74" style="fill:none;stroke:#2d2e1c;stroke-miterlimit:10;stroke-width:5px"/><line x1="396.79" y1="587.35" x2="586.01" y2="564.59" style="fill:none;stroke:#2d2e1c;stroke-miterlimit:10;stroke-width:5px;stroke-dasharray:20.06142807006836,20.06142807006836"/><line x1="595.97" y1="563.39" x2="605.89" y2="562.2" style="fill:none;stroke:#2d2e1c;stroke-miterlimit:10;stroke-width:5px"/><line x1="1285.58" y1="631.5" x2="1293.28" y2="637.88" style="fill:none;stroke:#2d2e1c;stroke-miterlimit:10;stroke-width:5px"/><line x1="1309.78" y1="651.53" x2="1499.58" y2="808.5" style="fill:none;stroke:#2d2e1c;stroke-miterlimit:10;stroke-width:5px;stroke-dasharray:21.41704750061035,21.41704750061035"/><line x1="1507.83" y1="815.33" x2="1515.53" y2="821.7" style="fill:none;stroke:#2d2e1c;stroke-miterlimit:10;stroke-width:5px"/><rect x="145.33" y="100.42" width="47.57" height="7.28" transform="translate(362.28 58.06) rotate(135)" style="fill:#231916"/><rect x="144.82" y="99.91" width="47.57" height="7.28" transform="translate(122.6 -88.89) rotate(45)" style="fill:#231916"/><rect x="468.49" y="101.31" width="27.67" height="4.23" transform="translate(896.52 -164.49) rotate(135)" style="fill:#231916"/><rect x="468.19" y="101.01" width="27.67" height="4.23" transform="translate(214.11 -310.64) rotate(45)" style="fill:#231916"/><rect x="439.91" y="860.45" width="27.67" height="4.23" transform="translate(1384.51 1151.66) rotate(135)" style="fill:#231916"/><rect x="439.61" y="860.15" width="27.67" height="4.23" transform="translate(742.53 -68.08) rotate(45)" style="fill:#231916"/><rect x="775.05" y="103.37" width="9.77" height="1.49" transform="translate(1405.06 -373.77) rotate(135)" style="fill:#231916"/><rect x="774.95" y="103.26" width="9.77" height="1.49" transform="translate(301.95 -520.96) rotate(45)" style="fill:#231916"/><circle cx="1472.59" cy="162.32" r="58.2" style="fill:none;stroke:#2d2e1c;stroke-miterlimit:10;stroke-width:10px"/><circle cx="1549.04" cy="845.72" r="33.5" style="fill:none;stroke:#2d2e1c;stroke-miterlimit:10;stroke-width:10px"/><circle cx="281.91" cy="610.14" r="78.27" style="fill:none;stroke:#2d2e1c;stroke-miterlimit:10;stroke-width:10px"/><rect x="1785.31" y="990.44" width="47.57" height="7.28" transform="translate(-173.05 1570.38) rotate(-45)" style="fill:#231916"/><rect x="1785.82" y="990.96" width="47.57" height="7.28" transform="translate(2385.9 2977.47) rotate(-135)" style="fill:#231916"/><rect x="1482.04" y="992.59" width="27.67" height="4.23" transform="translate(-265.23 1349.09) rotate(-45)" style="fill:#231916"/><rect x="1482.34" y="992.89" width="27.67" height="4.23" transform="translate(1850.55 2756.54) rotate(-135)" style="fill:#231916"/><rect x="1193.38" y="993.28" width="9.77" height="1.49" transform="translate(-351.92 1138.45) rotate(-45)" style="fill:#231916"/><rect x="1193.49" y="993.39" width="9.77" height="1.49" transform="translate(1342.79 2544.47) rotate(-135)" style="fill:#231916"/><line x1="476.19" y1="862.27" x2="565.36" y2="862.27" style="fill:none;stroke:#2e2f1d;stroke-miterlimit:10;stroke-width:5px"/><path d="M477.44,891.21V870.76h7.75c3.5,0,5.87,2,5.87,5.1a4.57,4.57,0,0,1-3.53,4.46v.12a4.89,4.89,0,0,1,4.56,5c0,3.6-2.58,5.74-6.93,5.74ZM480,879.57h3.83c3,0,4.66-1.2,4.66-3.41,0-2-1.39-3.15-3.87-3.15H480Zm4.79,9.38c3.08,0,4.69-1.24,4.69-3.61s-1.67-3.57-4.93-3.57H480V889Z" style="fill:#2e2f1d"/><path d="M493.88,883.84c0-4.59,2.66-7.51,6.83-7.51s6.81,2.92,6.81,7.51-2.66,7.51-6.81,7.51S493.88,888.41,493.88,883.84Zm11.13,0c0-3.36-1.6-5.34-4.3-5.34s-4.32,2-4.32,5.34,1.61,5.34,4.32,5.34S505,887.2,505,883.84Z" style="fill:#2e2f1d"/><path d="M509.73,896.63v-2.07a5,5,0,0,0,1,.07c1.37,0,2.14-.66,2.7-2.38l.34-1-5.44-14.75h2.64L515,888.74h0l4.08-12.27h2.59l-5.79,15.77c-1.26,3.44-2.48,4.48-5.14,4.48A6.18,6.18,0,0,1,509.73,896.63Z" style="fill:#2e2f1d"/><path d="M522.73,887c0-2.53,1.94-4,5.54-4.25l4.09-.24V881.3c0-1.81-1.19-2.8-3.33-2.8a3,3,0,0,0-3.23,2.23h-2.35c.07-2.5,2.49-4.4,5.62-4.4,3.5,0,5.76,1.85,5.76,4.76v10.12h-2.34v-2.54h-.06a5.31,5.31,0,0,1-4.73,2.75C524.71,891.42,522.73,889.62,522.73,887Zm9.63-1.4v-1.18l-3.81.24c-2.18.13-3.32.94-3.32,2.34s1.18,2.3,3,2.3A3.82,3.82,0,0,0,532.36,885.61Z" style="fill:#2e2f1d"/><path d="M538,876.47h2.32v2.41h.06a4.81,4.81,0,0,1,4.67-2.55c3.23,0,5.1,2.08,5.1,5.43v9.45h-2.46v-9c0-2.38-1.11-3.68-3.4-3.68s-3.83,1.66-3.83,4.15v8.55H538Z" style="fill:#2e2f1d"/><path d="M558.79,881c0-6.42,3.61-10.56,9.21-10.56,4.44,0,7.83,2.71,8.48,6.79H573.9a5.85,5.85,0,0,0-5.9-4.44c-4,0-6.59,3.23-6.59,8.21s2.56,8.21,6.6,8.21c3,0,5.16-1.44,5.89-3.94h2.58c-.93,4-4,6.3-8.48,6.3C562.36,891.55,558.79,887.45,558.79,881Z" style="fill:#2e2f1d"/><path d="M579.23,870.76h2.47v8.12h0a4.84,4.84,0,0,1,4.68-2.55c3.23,0,5.19,2.18,5.19,5.47v9.41h-2.47v-9c0-2.34-1.18-3.74-3.49-3.74s-4,1.67-4,4.22v8.48h-2.47Z" style="fill:#2e2f1d"/><path d="M607,887c-.41,2.55-3,4.37-6.14,4.37-4.16,0-6.79-2.88-6.79-7.46s2.64-7.56,6.68-7.56,6.43,2.78,6.43,7.24v.93H596.56v.15c0,2.76,1.71,4.56,4.31,4.56a3.56,3.56,0,0,0,3.65-2.23Zm-10.38-4.4h8a3.86,3.86,0,0,0-3.92-4.11A4.07,4.07,0,0,0,596.57,882.58Z" style="fill:#2e2f1d"/><path d="M609.61,876.47h2.32v2.41H612a4.82,4.82,0,0,1,4.68-2.55c3.23,0,5.1,2.08,5.1,5.43v9.45H619.3v-9c0-2.38-1.1-3.68-3.4-3.68s-3.82,1.66-3.82,4.15v8.55h-2.47Z" style="fill:#2e2f1d"/></g></svg>