<svg xmlns="http://www.w3.org/2000/svg" viewBox="0 0 684.68 840.35"><defs><style>.cls-1,.cls-3{fill:#231916;}.cls-11,.cls-12,.cls-13,.cls-2{fill:none;stroke-miterlimit:10;}.cls-11,.cls-12,.cls-2{stroke:#2d2e1c;}.cls-2{stroke-width:6px;}.cls-3{font-size:25px;font-family:SFUIDisplay-Regular, SF UI Display;}.cls-4{letter-spacing:-0.01em;}.cls-5{letter-spacing:-0.05em;}.cls-6{letter-spacing:-0.09em;}.cls-7{letter-spacing:-0.01em;}.cls-8{letter-spacing:-0.02em;}.cls-9{letter-spacing:0em;}.cls-10{letter-spacing:-0.07em;}.cls-11,.cls-12{stroke-width:5px;}.cls-12{stroke-dasharray:20.3 20.3;}.cls-13{stroke:#2b2c1a;stroke-width:3px;}</style></defs><title>Demo</title><g id="Connect"><path class="cls-1" d="M102.35,93.51V75.9h2.2V93.51Z"/><path class="cls-1" d="M110.45,77.75v3.07h2.46v1.74h-2.46V90.1c0,1.15.48,1.68,1.57,1.68.24,0,.73,0,.88-.06V93.5a7.63,7.63,0,0,1-1.34.1c-2.34,0-3.24-.95-3.24-3.4V82.56h-1.89V80.82h1.89V77.75Z"/><path class="cls-1" d="M120.15,77.36a1.33,1.33,0,1,1,1.32,1.32A1.33,1.33,0,0,1,120.15,77.36Zm.26,3.46h2.12V93.51h-2.12Z"/><path class="cls-1" d="M129.91,80.71c2.62,0,4.58,1.54,4.66,3.65h-2c-.12-1.19-1.15-1.92-2.7-1.92s-2.57.73-2.57,1.82c0,.85.67,1.42,2.11,1.78l2,.48c2.57.65,3.49,1.55,3.49,3.39,0,2.19-2.1,3.73-5.05,3.73-2.77,0-4.75-1.49-4.94-3.72H127c.21,1.3,1.24,2,3,2s2.79-.71,2.79-1.83c0-.88-.53-1.34-2-1.72l-2.23-.57c-2.23-.58-3.33-1.7-3.33-3.41C125.18,82.22,127.13,80.71,129.91,80.71Z"/><path class="cls-1" d="M152.67,89.88c-.36,2.19-2.56,3.76-5.29,3.76-3.59,0-5.84-2.48-5.84-6.43s2.27-6.51,5.75-6.51,5.54,2.39,5.54,6.23v.81h-9.11v.12a3.6,3.6,0,0,0,3.71,3.93,3.07,3.07,0,0,0,3.15-1.91Zm-8.94-3.8h6.9a3.32,3.32,0,0,0-3.38-3.54A3.5,3.5,0,0,0,143.73,86.08Z"/><path class="cls-1" d="M154.39,89.9c0-2.19,1.67-3.48,4.77-3.66l3.53-.21V85c0-1.56-1-2.42-2.87-2.42A2.6,2.6,0,0,0,157,84.49h-2c.06-2.16,2.15-3.79,4.85-3.79,3,0,4.95,1.59,4.95,4.1v8.71h-2V91.33h-.05a4.59,4.59,0,0,1-4.08,2.37C156.1,93.7,154.39,92.15,154.39,89.9Zm8.3-1.21v-1l-3.28.21c-1.88.11-2.86.8-2.86,2s1,2,2.6,2A3.3,3.3,0,0,0,162.69,88.69Z"/><path class="cls-1" d="M172,80.71c2.61,0,4.58,1.54,4.65,3.65h-2c-.12-1.19-1.14-1.92-2.7-1.92s-2.57.73-2.57,1.82c0,.85.67,1.42,2.11,1.78l2,.48c2.56.65,3.49,1.55,3.49,3.39,0,2.19-2.1,3.73-5.06,3.73-2.77,0-4.74-1.49-4.94-3.72h2.12c.21,1.3,1.25,2,3,2s2.78-.71,2.78-1.83c0-.88-.52-1.34-1.95-1.72l-2.24-.57c-2.23-.58-3.33-1.7-3.33-3.41C167.29,82.22,169.25,80.71,172,80.71Z"/><path class="cls-1" d="M179.28,98.19V96.41a5.4,5.4,0,0,0,.83.06c1.18,0,1.84-.58,2.33-2l.29-.9-4.68-12.7h2.27l3.51,10.57h0l3.51-10.57h2.24l-5,13.58c-1.09,3-2.14,3.86-4.43,3.86A5.45,5.45,0,0,1,179.28,98.19Z"/><path class="cls-1" d="M199.23,77.75v3.07h2.46v1.74h-2.46V90.1c0,1.15.48,1.68,1.57,1.68.24,0,.73,0,.88-.06V93.5a7.63,7.63,0,0,1-1.34.1c-2.33,0-3.24-.95-3.24-3.4V82.56h-1.89V80.82h1.89V77.75Z"/><path class="cls-1" d="M203,87.17c0-4,2.3-6.47,5.88-6.47s5.88,2.51,5.88,6.47-2.3,6.47-5.88,6.47S203,91.11,203,87.17Zm9.6,0c0-2.9-1.38-4.61-3.72-4.61s-3.72,1.72-3.72,4.61,1.39,4.6,3.72,4.6S212.56,90.06,212.56,87.17Z"/><path class="cls-1" d="M226.5,80.71c2.61,0,4.57,1.54,4.65,3.65h-2c-.12-1.19-1.15-1.92-2.7-1.92s-2.57.73-2.57,1.82c0,.85.67,1.42,2.11,1.78l2,.48c2.57.65,3.5,1.55,3.5,3.39,0,2.19-2.1,3.73-5.06,3.73-2.77,0-4.75-1.49-4.94-3.72h2.12c.21,1.3,1.25,2,3,2s2.78-.71,2.78-1.83c0-.88-.53-1.34-1.95-1.72l-2.24-.57c-2.23-.58-3.33-1.7-3.33-3.41C221.76,82.22,223.71,80.71,226.5,80.71Z"/><path class="cls-1" d="M236.42,77.75v3.07h2.47v1.74h-2.47V90.1c0,1.15.49,1.68,1.57,1.68.25,0,.74,0,.88-.06V93.5a7.55,7.55,0,0,1-1.34.1c-2.33,0-3.23-.95-3.23-3.4V82.56h-1.9V80.82h1.9V77.75Z"/><path class="cls-1" d="M240.45,89.9c0-2.19,1.67-3.48,4.77-3.66l3.53-.21V85c0-1.56-1-2.42-2.87-2.42a2.6,2.6,0,0,0-2.78,1.93h-2c.06-2.16,2.15-3.79,4.85-3.79,3,0,5,1.59,5,4.1v8.71h-2V91.33h-.05a4.59,4.59,0,0,1-4.08,2.37C242.16,93.7,240.45,92.15,240.45,89.9Zm8.3-1.21v-1l-3.29.21c-1.87.11-2.85.8-2.85,2s1,2,2.6,2A3.3,3.3,0,0,0,248.75,88.69Z"/><path class="cls-1" d="M253.57,80.82h2v2.07h.05a3.07,3.07,0,0,1,3.08-2.19,4.34,4.34,0,0,1,.85.07v2.07a4.31,4.31,0,0,0-1.13-.12,2.69,2.69,0,0,0-2.72,3v7.81h-2.13Z"/><path class="cls-1" d="M264.08,77.75v3.07h2.47v1.74h-2.47V90.1c0,1.15.49,1.68,1.58,1.68.24,0,.73,0,.88-.06V93.5a7.76,7.76,0,0,1-1.35.1c-2.33,0-3.23-.95-3.23-3.4V82.56h-1.89V80.82H262V77.75Z"/><path class="cls-1" d="M273.36,89.9c0-2.19,1.67-3.48,4.77-3.66l3.53-.21V85c0-1.56-1-2.42-2.87-2.42A2.6,2.6,0,0,0,276,84.49h-2c.06-2.16,2.15-3.79,4.85-3.79,3,0,4.95,1.59,4.95,4.1v8.71h-2V91.33h0a4.59,4.59,0,0,1-4.08,2.37C275.07,93.7,273.36,92.15,273.36,89.9Zm8.3-1.21v-1l-3.29.21c-1.87.11-2.85.8-2.85,2s1,2,2.6,2A3.3,3.3,0,0,0,281.66,88.69Z"/><path class="cls-1" d="M296.12,80.71c2.62,0,4.58,1.54,4.66,3.65h-2c-.12-1.19-1.15-1.92-2.7-1.92s-2.57.73-2.57,1.82c0,.85.67,1.42,2.11,1.78l2,.48c2.57.65,3.49,1.55,3.49,3.39,0,2.19-2.1,3.73-5.05,3.73-2.77,0-4.75-1.49-4.94-3.72h2.12c.21,1.3,1.25,2,2.95,2s2.79-.71,2.79-1.83c0-.88-.53-1.34-2-1.72l-2.23-.57c-2.23-.58-3.33-1.7-3.33-3.41C291.39,82.22,293.34,80.71,296.12,80.71Z"/><path class="cls-1" d="M313.75,89.88c-.35,2.19-2.56,3.76-5.29,3.76-3.58,0-5.84-2.48-5.84-6.43s2.27-6.51,5.75-6.51,5.54,2.39,5.54,6.23v.81H304.8v.12a3.6,3.6,0,0,0,3.71,3.93,3.06,3.06,0,0,0,3.15-1.91Zm-8.93-3.8h6.89a3.32,3.32,0,0,0-3.38-3.54A3.49,3.49,0,0,0,304.82,86.08Z"/><path class="cls-1" d="M315.47,89.9c0-2.19,1.67-3.48,4.77-3.66l3.53-.21V85c0-1.56-1-2.42-2.87-2.42a2.61,2.61,0,0,0-2.78,1.93h-2c.07-2.16,2.15-3.79,4.85-3.79,3,0,5,1.59,5,4.1v8.71h-2V91.33h-.05a4.58,4.58,0,0,1-4.07,2.37C317.18,93.7,315.47,92.15,315.47,89.9Zm8.3-1.21v-1l-3.28.21c-1.88.11-2.86.8-2.86,2s1,2,2.6,2A3.3,3.3,0,0,0,323.77,88.69Z"/><path class="cls-1" d="M328.59,80.82h2v2.07h0a3.07,3.07,0,0,1,3.08-2.19,4.46,4.46,0,0,1,.86.07v2.07a4.46,4.46,0,0,0-1.14-.12,2.69,2.69,0,0,0-2.72,3v7.81h-2.13Z"/><path class="cls-1" d="M344.16,85a3,3,0,0,0-3.26-2.42c-2.19,0-3.68,1.82-3.68,4.61s1.52,4.6,3.7,4.6a3,3,0,0,0,3.25-2.35h2.09c-.34,2.49-2.43,4.22-5.35,4.22-3.5,0-5.85-2.48-5.85-6.47s2.34-6.47,5.83-6.47c3.16,0,5.09,2,5.34,4.28Z"/><path class="cls-1" d="M348.32,75.9h2.13v7h0a4.18,4.18,0,0,1,4-2.19c2.79,0,4.47,1.88,4.47,4.71v8.1h-2.12V85.8c0-2-1-3.22-3-3.22a3.29,3.29,0,0,0-3.41,3.63v7.3h-2.13Z"/><path class="cls-1" d="M361.54,77.36a1.33,1.33,0,1,1,1.32,1.32A1.33,1.33,0,0,1,361.54,77.36Zm.26,3.46h2.12V93.51H361.8Z"/><path class="cls-1" d="M366.79,80.82h2v2.07h0a4.15,4.15,0,0,1,4-2.19c2.78,0,4.39,1.79,4.39,4.67v8.14h-2.12V85.75c0-2-.95-3.17-2.93-3.17s-3.3,1.42-3.3,3.57v7.36h-2.12Z"/><path class="cls-1" d="M379.84,94.56H382a3.27,3.27,0,0,0,3.26,1.93c2.19,0,3.52-1.27,3.52-3.16v-2h-.05a4.5,4.5,0,0,1-4.06,2.18c-3.21,0-5.36-2.55-5.36-6.39s2.15-6.42,5.41-6.42a4.64,4.64,0,0,1,4.12,2.18h0V80.82h2V93.26c0,3-2.24,5-5.74,5C382.4,98.3,380.19,96.72,379.84,94.56Zm9-7.44c0-2.7-1.47-4.54-3.68-4.54s-3.62,1.79-3.62,4.54,1.43,4.51,3.62,4.51S388.81,89.81,388.81,87.12Z"/><path class="cls-1" d="M394.1,92.24a1.39,1.39,0,1,1,1.39,1.4A1.38,1.38,0,0,1,394.1,92.24Z"/><path class="cls-1" d="M405.27,89.37a2.6,2.6,0,0,0,2.78,2.53c1.94,0,3-1.16,3-3.31V75.9h2.2V88.61c0,3.34-1.93,5.32-5.18,5.32-2.93,0-5-1.88-5-4.56Z"/><path class="cls-1" d="M426.75,93.51h-2V91.4h-.05a4.15,4.15,0,0,1-4,2.24c-2.77,0-4.39-1.8-4.39-4.68V80.82h2.12v7.76c0,2.06,1,3.18,2.93,3.18s3.31-1.42,3.31-3.58V80.82h2.12Z"/><path class="cls-1" d="M434,80.71c2.62,0,4.58,1.54,4.65,3.65h-2c-.12-1.19-1.15-1.92-2.7-1.92s-2.57.73-2.57,1.82c0,.85.67,1.42,2.11,1.78l2,.48c2.57.65,3.49,1.55,3.49,3.39,0,2.19-2.1,3.73-5.05,3.73-2.77,0-4.75-1.49-4.94-3.72h2.12c.21,1.3,1.24,2,2.95,2s2.79-.71,2.79-1.83c0-.88-.53-1.34-2-1.72l-2.23-.57c-2.23-.58-3.33-1.7-3.33-3.41C429.28,82.22,431.23,80.71,434,80.71Z"/><path class="cls-1" d="M443.94,77.75v3.07h2.46v1.74h-2.46V90.1c0,1.15.49,1.68,1.57,1.68.25,0,.73,0,.88-.06V93.5a7.63,7.63,0,0,1-1.34.1c-2.33,0-3.24-.95-3.24-3.4V82.56h-1.89V80.82h1.89V77.75Z"/><path class="cls-1" d="M453.17,87.17c0-3.89,2.23-6.47,5.38-6.47a4.4,4.4,0,0,1,4,2.18h.05v-7h2.12V93.51h-2V91.36h0a4.46,4.46,0,0,1-4.1,2.28C455.41,93.64,453.17,91.05,453.17,87.17Zm2.17,0c0,2.78,1.46,4.59,3.66,4.59s3.65-1.85,3.65-4.59-1.46-4.59-3.65-4.59S455.34,84.39,455.34,87.17Z"/><path class="cls-1" d="M467.63,80.82h2v2.07h.05a3.07,3.07,0,0,1,3.08-2.19,4.34,4.34,0,0,1,.85.07v2.07a4.31,4.31,0,0,0-1.13-.12,2.69,2.69,0,0,0-2.72,3v7.81h-2.13Z"/><path class="cls-1" d="M474.52,89.9c0-2.19,1.67-3.48,4.77-3.66l3.53-.21V85c0-1.56-1-2.42-2.87-2.42a2.61,2.61,0,0,0-2.79,1.93h-2c.06-2.16,2.15-3.79,4.84-3.79,3,0,5,1.59,5,4.1v8.71h-2V91.33h-.05a4.59,4.59,0,0,1-4.08,2.37C476.22,93.7,474.52,92.15,474.52,89.9Zm8.3-1.21v-1l-3.29.21c-1.88.11-2.85.8-2.85,2s1,2,2.6,2A3.3,3.3,0,0,0,482.82,88.69Z"/><path class="cls-1" d="M487.52,94.56h2.18A3.28,3.28,0,0,0,493,96.49c2.2,0,3.53-1.27,3.53-3.16v-2h-.05a4.51,4.51,0,0,1-4.07,2.18c-3.21,0-5.35-2.55-5.35-6.39s2.14-6.42,5.4-6.42a4.64,4.64,0,0,1,4.13,2.18h0V80.82h2V93.26c0,3-2.23,5-5.74,5C490.08,98.3,487.87,96.72,487.52,94.56Zm9-7.44c0-2.7-1.48-4.54-3.69-4.54s-3.61,1.79-3.61,4.54,1.43,4.51,3.61,4.51S496.49,89.81,496.49,87.12Z"/><path class="cls-1" d="M509.3,77.75v3.07h2.47v1.74H509.3V90.1c0,1.15.49,1.68,1.58,1.68.24,0,.73,0,.88-.06V93.5a7.63,7.63,0,0,1-1.34.1c-2.34,0-3.24-.95-3.24-3.4V82.56h-1.89V80.82h1.89V77.75Z"/><path class="cls-1" d="M514.14,75.9h2.12v7h0a4.17,4.17,0,0,1,4-2.19c2.78,0,4.47,1.88,4.47,4.71v8.1h-2.13V85.8c0-2-1-3.22-3-3.22a3.3,3.3,0,0,0-3.42,3.63v7.3h-2.12Z"/><path class="cls-1" d="M538,89.88c-.36,2.19-2.57,3.76-5.29,3.76-3.59,0-5.85-2.48-5.85-6.43s2.27-6.51,5.75-6.51,5.54,2.39,5.54,6.23v.81h-9.1v.12a3.59,3.59,0,0,0,3.71,3.93,3.08,3.08,0,0,0,3.15-1.91Zm-8.94-3.8H536a3.33,3.33,0,0,0-3.38-3.54A3.5,3.5,0,0,0,529.08,86.08Z"/><path class="cls-1" d="M545.29,77.36a1.33,1.33,0,1,1,1.32,1.32A1.33,1.33,0,0,1,545.29,77.36Zm.26,3.46h2.12V93.51h-2.12Z"/><path class="cls-1" d="M553.35,77.75v3.07h2.46v1.74h-2.46V90.1c0,1.15.49,1.68,1.57,1.68.25,0,.73,0,.88-.06V93.5a7.63,7.63,0,0,1-1.34.1c-2.33,0-3.24-.95-3.24-3.4V82.56h-1.89V80.82h1.89V77.75Z"/><path class="cls-1" d="M568.22,89.88c-.36,2.19-2.57,3.76-5.29,3.76-3.59,0-5.85-2.48-5.85-6.43s2.27-6.51,5.75-6.51,5.54,2.39,5.54,6.23v.81h-9.1v.12A3.59,3.59,0,0,0,563,91.79a3.08,3.08,0,0,0,3.15-1.91Zm-8.94-3.8h6.9a3.33,3.33,0,0,0-3.38-3.54A3.5,3.5,0,0,0,559.28,86.08Z"/><path class="cls-1" d="M570.51,80.82h2v2.07h0a3.78,3.78,0,0,1,3.6-2.19,3.55,3.55,0,0,1,3.57,2.41h0a4.23,4.23,0,0,1,4-2.41,3.88,3.88,0,0,1,4.14,4.15v8.66h-2.12V85.33a2.47,2.47,0,0,0-2.64-2.75,2.81,2.81,0,0,0-2.87,3v8h-2.12V85.1a2.41,2.41,0,0,0-2.6-2.52,2.91,2.91,0,0,0-2.91,3.07v7.86h-2.12Z"/><path class="cls-1" d="M101.4,117.17c0-3.89,2.23-6.47,5.38-6.47a4.4,4.4,0,0,1,4,2.18h.05v-7H113v17.61h-2v-2.15h0a4.45,4.45,0,0,1-4.1,2.28C103.65,123.64,101.4,121.05,101.4,117.17Zm2.17,0c0,2.78,1.47,4.59,3.66,4.59s3.65-1.85,3.65-4.59-1.46-4.59-3.65-4.59S103.57,114.39,103.57,117.17Z"/><path class="cls-1" d="M126.37,119.88c-.35,2.19-2.56,3.76-5.28,3.76-3.59,0-5.85-2.48-5.85-6.43s2.27-6.51,5.75-6.51,5.54,2.39,5.54,6.23v.81h-9.1v.12a3.59,3.59,0,0,0,3.71,3.93,3.08,3.08,0,0,0,3.15-1.91Zm-8.93-3.8h6.9a3.33,3.33,0,0,0-3.39-3.54A3.49,3.49,0,0,0,117.44,116.08Z"/><path class="cls-1" d="M131.48,107.75v3.07h2.46v1.74h-2.46v7.54c0,1.15.49,1.68,1.57,1.68.25,0,.74,0,.88-.06v1.78a7.55,7.55,0,0,1-1.34.1c-2.33,0-3.24-.95-3.24-3.4v-7.64h-1.89v-1.74h1.89v-3.07Z"/><path class="cls-1" d="M146.35,119.88c-.36,2.19-2.57,3.76-5.29,3.76-3.59,0-5.85-2.48-5.85-6.43s2.27-6.51,5.75-6.51,5.54,2.39,5.54,6.23v.81h-9.1v.12a3.59,3.59,0,0,0,3.71,3.93,3.08,3.08,0,0,0,3.15-1.91Zm-8.94-3.8h6.9a3.33,3.33,0,0,0-3.38-3.54A3.5,3.5,0,0,0,137.41,116.08Z"/><path class="cls-1" d="M157.11,115a3,3,0,0,0-3.26-2.42c-2.18,0-3.67,1.82-3.67,4.61s1.51,4.6,3.7,4.6a3,3,0,0,0,3.24-2.35h2.09c-.34,2.49-2.43,4.22-5.34,4.22-3.51,0-5.85-2.48-5.85-6.47s2.33-6.47,5.82-6.47c3.16,0,5.09,2,5.35,4.28Z"/><path class="cls-1" d="M164,107.75v3.07h2.47v1.74H164v7.54c0,1.15.49,1.68,1.58,1.68.24,0,.73,0,.88-.06v1.78a7.76,7.76,0,0,1-1.35.1c-2.33,0-3.23-.95-3.23-3.4v-7.64H160v-1.74h1.89v-3.07Z"/><path class="cls-1" d="M178.84,119.88c-.35,2.19-2.56,3.76-5.29,3.76-3.58,0-5.84-2.48-5.84-6.43s2.27-6.51,5.75-6.51,5.54,2.39,5.54,6.23v.81h-9.11v.12a3.6,3.6,0,0,0,3.71,3.93,3.06,3.06,0,0,0,3.15-1.91Zm-8.93-3.8h6.89a3.32,3.32,0,0,0-3.38-3.54A3.49,3.49,0,0,0,169.91,116.08Z"/><path class="cls-1" d="M180.51,117.17c0-3.89,2.24-6.47,5.39-6.47a4.41,4.41,0,0,1,4,2.18H190v-7h2.12v17.61h-2v-2.15h0a4.46,4.46,0,0,1-4.1,2.28C182.76,123.64,180.51,121.05,180.51,117.17Zm2.18,0c0,2.78,1.46,4.59,3.66,4.59s3.65-1.85,3.65-4.59-1.47-4.59-3.65-4.59S182.69,114.39,182.69,117.17Z"/><path class="cls-1" d="M202.91,107.75v3.07h2.47v1.74h-2.47v7.54c0,1.15.49,1.68,1.58,1.68.24,0,.73,0,.88-.06v1.78a7.76,7.76,0,0,1-1.35.1c-2.33,0-3.23-.95-3.23-3.4v-7.64H198.9v-1.74h1.89v-3.07Z"/><path class="cls-1" d="M206.65,117.17c0-4,2.29-6.47,5.88-6.47s5.87,2.51,5.87,6.47-2.29,6.47-5.87,6.47S206.65,121.11,206.65,117.17Zm9.59,0c0-2.9-1.38-4.61-3.71-4.61s-3.72,1.72-3.72,4.61,1.39,4.6,3.72,4.6S216.24,120.06,216.24,117.17Z"/><path class="cls-1" d="M228.47,107.75v3.07h2.47v1.74h-2.47v7.54c0,1.15.49,1.68,1.58,1.68.24,0,.73,0,.88-.06v1.78a7.63,7.63,0,0,1-1.34.1c-2.34,0-3.24-.95-3.24-3.4v-7.64h-1.89v-1.74h1.89v-3.07Z"/><path class="cls-1" d="M233.31,105.9h2.12v7h0a4.17,4.17,0,0,1,4-2.19c2.78,0,4.47,1.88,4.47,4.71v8.1h-2.13V115.8c0-2-1-3.22-3-3.22a3.3,3.3,0,0,0-3.42,3.63v7.3h-2.12Z"/><path class="cls-1" d="M257.19,119.88c-.36,2.19-2.57,3.76-5.29,3.76-3.59,0-5.85-2.48-5.85-6.43s2.27-6.51,5.75-6.51,5.54,2.39,5.54,6.23v.81h-9.1v.12a3.59,3.59,0,0,0,3.71,3.93,3.08,3.08,0,0,0,3.15-1.91Zm-8.94-3.8h6.9a3.33,3.33,0,0,0-3.38-3.54A3.5,3.5,0,0,0,248.25,116.08Z"/><path class="cls-1" d="M273.08,115a3,3,0,0,0-3.26-2.42c-2.19,0-3.68,1.82-3.68,4.61s1.52,4.6,3.7,4.6a3,3,0,0,0,3.25-2.35h2.09c-.34,2.49-2.43,4.22-5.35,4.22-3.5,0-5.85-2.48-5.85-6.47s2.34-6.47,5.83-6.47c3.16,0,5.09,2,5.34,4.28Z"/><path class="cls-1" d="M287.64,119.88c-.35,2.19-2.56,3.76-5.28,3.76-3.59,0-5.85-2.48-5.85-6.43s2.27-6.51,5.75-6.51,5.54,2.39,5.54,6.23v.81h-9.11v.12a3.6,3.6,0,0,0,3.71,3.93,3.06,3.06,0,0,0,3.15-1.91Zm-8.93-3.8h6.89a3.32,3.32,0,0,0-3.38-3.54A3.49,3.49,0,0,0,278.71,116.08Z"/><path class="cls-1" d="M289.94,110.82h2v2.07H292a4.15,4.15,0,0,1,4-2.19c2.78,0,4.39,1.79,4.39,4.67v8.14h-2.12v-7.76c0-2-1-3.17-2.93-3.17s-3.3,1.42-3.3,3.57v7.36h-2.12Z"/><path class="cls-1" d="M305.92,107.75v3.07h2.46v1.74h-2.46v7.54c0,1.15.48,1.68,1.57,1.68.25,0,.73,0,.88-.06v1.78a7.63,7.63,0,0,1-1.34.1c-2.33,0-3.24-.95-3.24-3.4v-7.64H301.9v-1.74h1.89v-3.07Z"/><path class="cls-1" d="M310.64,110.82h2v2.07h.05a3.07,3.07,0,0,1,3.08-2.19,4.34,4.34,0,0,1,.85.07v2.07a4.31,4.31,0,0,0-1.13-.12,2.7,2.7,0,0,0-2.73,3v7.81h-2.12Z"/><path class="cls-1" d="M317.53,119.9c0-2.19,1.67-3.48,4.77-3.66l3.53-.21v-1c0-1.56-1-2.42-2.87-2.42a2.61,2.61,0,0,0-2.79,1.93h-2c.06-2.16,2.15-3.79,4.84-3.79,3,0,5,1.59,5,4.1v8.71h-2v-2.18h-.05a4.59,4.59,0,0,1-4.08,2.37C319.23,123.7,317.53,122.15,317.53,119.9Zm8.3-1.21v-1l-3.29.21c-1.88.11-2.85.8-2.85,2s1,2,2.6,2A3.3,3.3,0,0,0,325.83,118.69Z"/><path class="cls-1" d="M330.76,105.9h2.12v17.61h-2.12Z"/><path class="cls-1" d="M343.06,121.36H343v2.15h-2V105.9h2.12v7h.05a4.48,4.48,0,0,1,4.06-2.18c3.2,0,5.36,2.58,5.36,6.47s-2.16,6.47-5.39,6.47A4.48,4.48,0,0,1,343.06,121.36Zm0-4.19c0,2.73,1.49,4.59,3.67,4.59s3.64-1.8,3.64-4.59-1.44-4.59-3.64-4.59S343.1,114.44,343.1,117.17Z"/><path class="cls-1" d="M354.59,107.36a1.32,1.32,0,1,1,1.31,1.32A1.32,1.32,0,0,1,354.59,107.36Zm.25,3.46H357v12.69h-2.13Z"/><path class="cls-1" d="M359.71,124.56h2.19a3.27,3.27,0,0,0,3.26,1.93c2.19,0,3.52-1.27,3.52-3.16v-2h0a4.53,4.53,0,0,1-4.07,2.18c-3.21,0-5.36-2.55-5.36-6.39s2.15-6.42,5.41-6.42a4.67,4.67,0,0,1,4.13,2.18h0v-2.06h2v12.44c0,3-2.24,5-5.74,5C362.28,128.3,360.07,126.72,359.71,124.56Zm9-7.44c0-2.7-1.47-4.54-3.68-4.54s-3.62,1.79-3.62,4.54,1.43,4.51,3.62,4.51S368.68,119.81,368.68,117.12Z"/><path class="cls-1" d="M387.17,115a3,3,0,0,0-3.26-2.42c-2.19,0-3.68,1.82-3.68,4.61s1.52,4.6,3.7,4.6a3,3,0,0,0,3.25-2.35h2.09c-.35,2.49-2.43,4.22-5.35,4.22-3.5,0-5.85-2.48-5.85-6.47s2.33-6.47,5.82-6.47c3.17,0,5.1,2,5.35,4.28Z"/><path class="cls-1" d="M391.07,107.36a1.33,1.33,0,1,1,1.32,1.32A1.33,1.33,0,0,1,391.07,107.36Zm.26,3.46h2.12v12.69h-2.12Z"/><path class="cls-1" d="M396.32,110.82h2v2.07h.05a3.07,3.07,0,0,1,3.08-2.19,4.34,4.34,0,0,1,.85.07v2.07a4.31,4.31,0,0,0-1.13-.12,2.69,2.69,0,0,0-2.72,3v7.81h-2.13Z"/><path class="cls-1" d="M411.89,115a3,3,0,0,0-3.26-2.42c-2.19,0-3.68,1.82-3.68,4.61s1.52,4.6,3.7,4.6a3,3,0,0,0,3.25-2.35H414c-.35,2.49-2.43,4.22-5.35,4.22-3.5,0-5.85-2.48-5.85-6.47s2.33-6.47,5.83-6.47c3.16,0,5.08,2,5.34,4.28Z"/><path class="cls-1" d="M416.05,105.9h2.12v17.61h-2.12Z"/><path class="cls-1" d="M431.55,119.88c-.35,2.19-2.56,3.76-5.28,3.76-3.59,0-5.85-2.48-5.85-6.43s2.27-6.51,5.75-6.51,5.54,2.39,5.54,6.23v.81H422.6v.12a3.6,3.6,0,0,0,3.71,3.93,3.06,3.06,0,0,0,3.15-1.91Zm-8.93-3.8h6.89a3.32,3.32,0,0,0-3.38-3.54A3.49,3.49,0,0,0,422.62,116.08Z"/><path class="cls-1" d="M438.83,107.36a1.33,1.33,0,0,1,2.65,0,1.33,1.33,0,0,1-2.65,0Zm.25,3.46h2.13v12.69h-2.13Z"/><path class="cls-1" d="M444.08,110.82h2v2.07h.05a4.15,4.15,0,0,1,4-2.19c2.79,0,4.4,1.79,4.4,4.67v8.14h-2.12v-7.76c0-2-1-3.17-2.93-3.17s-3.3,1.42-3.3,3.57v7.36h-2.12Z"/><path class="cls-1" d="M465.18,107.75v3.07h2.47v1.74h-2.47v7.54c0,1.15.49,1.68,1.58,1.68.24,0,.73,0,.87-.06v1.78a7.55,7.55,0,0,1-1.34.1c-2.33,0-3.23-.95-3.23-3.4v-7.64h-1.9v-1.74h1.9v-3.07Z"/><path class="cls-1" d="M470,105.9h2.13v7h.05a4.17,4.17,0,0,1,4-2.19c2.78,0,4.46,1.88,4.46,4.71v8.1h-2.12V115.8c0-2-1-3.22-3-3.22a3.3,3.3,0,0,0-3.42,3.63v7.3H470Z"/><path class="cls-1" d="M493.89,119.88c-.35,2.19-2.56,3.76-5.28,3.76-3.59,0-5.85-2.48-5.85-6.43s2.27-6.51,5.75-6.51,5.54,2.39,5.54,6.23v.81h-9.11v.12a3.6,3.6,0,0,0,3.71,3.93,3.06,3.06,0,0,0,3.15-1.91Zm-8.93-3.8h6.89a3.32,3.32,0,0,0-3.38-3.54A3.49,3.49,0,0,0,485,116.08Z"/><path class="cls-1" d="M501.17,107.36a1.33,1.33,0,0,1,2.65,0,1.33,1.33,0,0,1-2.65,0Zm.25,3.46h2.13v12.69h-2.13Z"/><path class="cls-1" d="M506.42,110.82h2v2.07h.05a4.15,4.15,0,0,1,4-2.19c2.79,0,4.4,1.79,4.4,4.67v8.14h-2.12v-7.76c0-2-1-3.17-2.93-3.17s-3.3,1.42-3.3,3.57v7.36h-2.12Z"/><path class="cls-1" d="M519,117.17c0-3.89,2.24-6.47,5.39-6.47a4.4,4.4,0,0,1,4,2.18h.05v-7h2.12v17.61h-2v-2.15h0a4.46,4.46,0,0,1-4.1,2.28C521.21,123.64,519,121.05,519,117.17Zm2.18,0c0,2.78,1.46,4.59,3.66,4.59s3.65-1.85,3.65-4.59-1.47-4.59-3.65-4.59S521.14,114.39,521.14,117.17Z"/><path class="cls-1" d="M543.94,119.88c-.35,2.19-2.56,3.76-5.29,3.76-3.59,0-5.84-2.48-5.84-6.43s2.27-6.51,5.75-6.51,5.54,2.39,5.54,6.23v.81H535v.12a3.6,3.6,0,0,0,3.71,3.93,3.06,3.06,0,0,0,3.15-1.91Zm-8.94-3.8h6.9a3.32,3.32,0,0,0-3.38-3.54A3.5,3.5,0,0,0,535,116.08Z"/><path class="cls-1" d="M550.43,118.68l-3.06,4.83H545l4.33-6.34-4.25-6.35h2.36l3.06,4.76h0l3-4.76h2.37l-4.29,6.26,4.23,6.43h-2.36l-3-4.83Z"/><path class="cls-1" d="M574.45,117.17c0,3.88-2.19,6.47-5.39,6.47a4.44,4.44,0,0,1-4-2.19h0v6.3h-2.12V110.82h2v2.06h0a4.68,4.68,0,0,1,4.1-2.18C572.25,110.7,574.45,113.28,574.45,117.17Zm-2.18,0c0-2.78-1.46-4.59-3.67-4.59s-3.64,1.86-3.64,4.59,1.48,4.59,3.64,4.59S572.27,120,572.27,117.17Z"/><path class="cls-1" d="M576,119.9c0-2.19,1.67-3.48,4.77-3.66l3.53-.21v-1c0-1.56-1-2.42-2.87-2.42a2.6,2.6,0,0,0-2.78,1.93h-2c.06-2.16,2.15-3.79,4.85-3.79,3,0,4.95,1.59,4.95,4.1v8.71h-2v-2.18h0a4.59,4.59,0,0,1-4.08,2.37C577.72,123.7,576,122.15,576,119.9Zm8.3-1.21v-1l-3.29.21c-1.88.11-2.85.8-2.85,2s1,2,2.6,2A3.3,3.3,0,0,0,584.31,118.69Z"/><path class="cls-1" d="M589,124.56h2.18a3.29,3.29,0,0,0,3.26,1.93c2.2,0,3.53-1.27,3.53-3.16v-2h-.05a4.5,4.5,0,0,1-4.06,2.18c-3.21,0-5.36-2.55-5.36-6.39s2.15-6.42,5.4-6.42a4.64,4.64,0,0,1,4.13,2.18h0v-2.06h2v12.44c0,3-2.23,5-5.73,5C591.57,128.3,589.36,126.72,589,124.56Zm9-7.44c0-2.7-1.48-4.54-3.69-4.54s-3.61,1.79-3.61,4.54,1.43,4.51,3.61,4.51S598,119.81,598,117.12Z"/><path class="cls-1" d="M613.37,119.88c-.35,2.19-2.56,3.76-5.28,3.76-3.59,0-5.85-2.48-5.85-6.43s2.27-6.51,5.75-6.51,5.54,2.39,5.54,6.23v.81h-9.11v.12a3.6,3.6,0,0,0,3.71,3.93,3.08,3.08,0,0,0,3.16-1.91Zm-8.93-3.8h6.89a3.32,3.32,0,0,0-3.38-3.54A3.49,3.49,0,0,0,604.44,116.08Z"/><path class="cls-1" d="M616.07,122.24a1.39,1.39,0,1,1,1.39,1.4A1.38,1.38,0,0,1,616.07,122.24Z"/><path class="cls-1" d="M106.81,153.51V137.88h-5.56v-2h13.31v2H109v15.63Z"/><path class="cls-1" d="M116.66,135.9h2.12v7h0a4.17,4.17,0,0,1,4-2.19c2.78,0,4.47,1.88,4.47,4.71v8.1H125.2V145.8c0-2-1-3.22-3-3.22a3.3,3.3,0,0,0-3.42,3.63v7.3h-2.12Z"/><path class="cls-1" d="M140.54,149.88c-.36,2.19-2.57,3.76-5.29,3.76-3.59,0-5.85-2.48-5.85-6.43s2.27-6.51,5.75-6.51,5.54,2.39,5.54,6.23v.81h-9.1v.12a3.59,3.59,0,0,0,3.71,3.93,3.08,3.08,0,0,0,3.15-1.91Zm-8.94-3.8h6.9a3.33,3.33,0,0,0-3.38-3.54A3.5,3.5,0,0,0,131.6,146.08Z"/><path class="cls-1" d="M142.83,140.82h2v2.07h0a4.15,4.15,0,0,1,4-2.19c2.78,0,4.39,1.79,4.39,4.67v8.14h-2.12v-7.76c0-2.05-1-3.17-2.93-3.17S145,144,145,146.15v7.36h-2.12Z"/><path class="cls-1" d="M163.94,137.75v3.07h2.46v1.74h-2.46v7.54c0,1.15.49,1.68,1.57,1.68.25,0,.73,0,.88-.06v1.78a7.63,7.63,0,0,1-1.34.1c-2.33,0-3.24-.95-3.24-3.4v-7.64h-1.89v-1.74h1.89v-3.07Z"/><path class="cls-1" d="M168.77,135.9h2.12v7h.05a4.17,4.17,0,0,1,4-2.19c2.78,0,4.47,1.88,4.47,4.71v8.1h-2.12V145.8c0-2-1-3.22-3-3.22a3.3,3.3,0,0,0-3.42,3.63v7.3h-2.12Z"/><path class="cls-1" d="M192.65,149.88c-.36,2.19-2.57,3.76-5.29,3.76-3.59,0-5.85-2.48-5.85-6.43s2.28-6.51,5.75-6.51,5.55,2.39,5.55,6.23v.81H183.7v.12a3.6,3.6,0,0,0,3.71,3.93,3.07,3.07,0,0,0,3.15-1.91Zm-8.94-3.8h6.9a3.33,3.33,0,0,0-3.38-3.54A3.5,3.5,0,0,0,183.71,146.08Z"/><path class="cls-1" d="M199.49,149.9c0-2.19,1.68-3.48,4.78-3.66l3.53-.21V145c0-1.56-1-2.42-2.87-2.42a2.61,2.61,0,0,0-2.79,1.93h-2c.06-2.16,2.15-3.79,4.84-3.79,3,0,5,1.59,5,4.1v8.71h-2v-2.18h0a4.59,4.59,0,0,1-4.08,2.37C201.2,153.7,199.49,152.15,199.49,149.9Zm8.31-1.21v-1l-3.29.21c-1.88.11-2.85.8-2.85,2s1,2,2.6,2A3.3,3.3,0,0,0,207.8,148.69Z"/><path class="cls-1" d="M224.21,147.17c0,3.88-2.18,6.47-5.38,6.47a4.44,4.44,0,0,1-4-2.19h0v6.3h-2.12V140.82h2v2.06h.05a4.68,4.68,0,0,1,4.1-2.18C222,140.7,224.21,143.28,224.21,147.17Zm-2.17,0c0-2.78-1.46-4.59-3.67-4.59s-3.64,1.86-3.64,4.59,1.48,4.59,3.64,4.59S222,150,222,147.17Z"/><path class="cls-1" d="M238,147.17c0,3.88-2.19,6.47-5.39,6.47a4.46,4.46,0,0,1-4-2.19h-.05v6.3h-2.12V140.82h2v2.06h0a4.7,4.7,0,0,1,4.1-2.18C235.75,140.7,238,143.28,238,147.17Zm-2.18,0c0-2.78-1.46-4.59-3.67-4.59s-3.64,1.86-3.64,4.59,1.48,4.59,3.64,4.59S235.77,150,235.77,147.17Z"/><path class="cls-1" d="M257.82,153.51h-2.16l-2.87-9.82h0l-2.86,9.82h-2.16l-3.55-12.69h2.11l2.54,10.33h.05l2.87-10.33h2l2.88,10.33h.05l2.54-10.33h2.1Z"/><path class="cls-1" d="M263,137.36a1.32,1.32,0,1,1,1.31,1.32A1.32,1.32,0,0,1,263,137.36Zm.25,3.46h2.13v12.69H263.2Z"/><path class="cls-1" d="M268.3,135.9h2.13v17.61H268.3Z"/><path class="cls-1" d="M273.41,135.9h2.12v17.61h-2.12Z"/><path class="cls-1" d="M285.76,154.14c0,2.57-1.22,3.74-3.93,3.74h-.4V156.1h.33c1.38,0,1.88-.52,1.88-1.94V140.82h2.12Zm-2.38-16.78a1.33,1.33,0,1,1,1.32,1.32A1.33,1.33,0,0,1,283.38,137.36Z"/><path class="cls-1" d="M299.05,153.51h-2V151.4H297a4.14,4.14,0,0,1-4,2.24c-2.77,0-4.39-1.8-4.39-4.68v-8.14h2.12v7.76c0,2.06,1,3.18,2.93,3.18s3.31-1.42,3.31-3.58v-7.36h2.12Z"/><path class="cls-1" d="M301.8,140.82h2v2.07h.05a3.78,3.78,0,0,1,3.6-2.19,3.55,3.55,0,0,1,3.57,2.41h.05a4.23,4.23,0,0,1,4-2.41,3.88,3.88,0,0,1,4.13,4.15v8.66h-2.12v-8.18a2.46,2.46,0,0,0-2.64-2.75,2.81,2.81,0,0,0-2.87,3v8h-2.12V145.1a2.4,2.4,0,0,0-2.6-2.52,2.9,2.9,0,0,0-2.9,3.07v7.86H301.8Z"/><path class="cls-1" d="M333.48,147.17c0,3.88-2.19,6.47-5.39,6.47a4.46,4.46,0,0,1-4-2.19h0v6.3h-2.13V140.82h2v2.06h0a4.7,4.7,0,0,1,4.11-2.18C331.28,140.7,333.48,143.28,333.48,147.17Zm-2.18,0c0-2.78-1.46-4.59-3.67-4.59s-3.64,1.86-3.64,4.59,1.48,4.59,3.64,4.59S331.3,150,331.3,147.17Z"/><path class="cls-1" d="M343.55,137.75v3.07H346v1.74h-2.46v7.54c0,1.15.49,1.68,1.57,1.68.25,0,.74,0,.88-.06v1.78a7.55,7.55,0,0,1-1.34.1c-2.33,0-3.24-.95-3.24-3.4v-7.64h-1.89v-1.74h1.89v-3.07Z"/><path class="cls-1" d="M347.28,147.17c0-4,2.3-6.47,5.89-6.47s5.87,2.51,5.87,6.47-2.3,6.47-5.87,6.47S347.28,151.11,347.28,147.17Zm9.6,0c0-2.9-1.38-4.61-3.71-4.61s-3.73,1.72-3.73,4.61,1.4,4.6,3.73,4.6S356.88,150.06,356.88,147.17Z"/><path class="cls-1" d="M369.11,137.75v3.07h2.47v1.74h-2.47v7.54c0,1.15.49,1.68,1.57,1.68.25,0,.74,0,.88-.06v1.78a7.55,7.55,0,0,1-1.34.1c-2.33,0-3.23-.95-3.23-3.4v-7.64h-1.9v-1.74H367v-3.07Z"/><path class="cls-1" d="M373.94,135.9h2.13v7h.05a4.15,4.15,0,0,1,4-2.19c2.79,0,4.47,1.88,4.47,4.71v8.1h-2.12V145.8c0-2-1-3.22-3-3.22a3.29,3.29,0,0,0-3.42,3.63v7.3h-2.13Z"/><path class="cls-1" d="M397.82,149.88c-.35,2.19-2.56,3.76-5.28,3.76-3.59,0-5.85-2.48-5.85-6.43s2.27-6.51,5.75-6.51,5.54,2.39,5.54,6.23v.81h-9.11v.12a3.6,3.6,0,0,0,3.71,3.93,3.06,3.06,0,0,0,3.15-1.91Zm-8.94-3.8h6.9a3.32,3.32,0,0,0-3.38-3.54A3.51,3.51,0,0,0,388.88,146.08Z"/><path class="cls-1" d="M409.76,140.71c2.61,0,4.58,1.54,4.65,3.65h-2c-.12-1.19-1.14-1.92-2.69-1.92s-2.58.73-2.58,1.82c0,.85.67,1.42,2.11,1.78l2,.48c2.56.65,3.49,1.55,3.49,3.39,0,2.19-2.1,3.73-5.06,3.73-2.77,0-4.75-1.49-4.94-3.72h2.12c.21,1.3,1.25,2,3,2s2.78-.71,2.78-1.83c0-.88-.52-1.34-2-1.72l-2.24-.57c-2.23-.58-3.33-1.7-3.33-3.41C405,142.22,407,140.71,409.76,140.71Z"/><path class="cls-1" d="M427.38,149.88c-.35,2.19-2.56,3.76-5.28,3.76-3.59,0-5.85-2.48-5.85-6.43s2.27-6.51,5.75-6.51,5.54,2.39,5.54,6.23v.81h-9.1v.12a3.59,3.59,0,0,0,3.71,3.93,3.08,3.08,0,0,0,3.15-1.91Zm-8.93-3.8h6.9a3.33,3.33,0,0,0-3.39-3.54A3.49,3.49,0,0,0,418.45,146.08Z"/><path class="cls-1" d="M429.11,149.9c0-2.19,1.67-3.48,4.77-3.66l3.53-.21V145c0-1.56-1-2.42-2.87-2.42a2.61,2.61,0,0,0-2.79,1.93h-2c.06-2.16,2.15-3.79,4.84-3.79,3,0,5,1.59,5,4.1v8.71h-2v-2.18h0a4.59,4.59,0,0,1-4.08,2.37C430.81,153.7,429.11,152.15,429.11,149.9Zm8.3-1.21v-1l-3.29.21c-1.88.11-2.85.8-2.85,2s1,2,2.6,2A3.3,3.3,0,0,0,437.41,148.69Z"/><path class="cls-1" d="M442.23,140.82h2v2.07h0a3.07,3.07,0,0,1,3.08-2.19,4.34,4.34,0,0,1,.85.07v2.07a4.34,4.34,0,0,0-1.14-.12,2.7,2.7,0,0,0-2.72,3v7.81h-2.12Z"/><path class="cls-1" d="M457.79,145a3,3,0,0,0-3.26-2.42c-2.18,0-3.67,1.82-3.67,4.61s1.51,4.6,3.7,4.6a3,3,0,0,0,3.24-2.35h2.09c-.34,2.49-2.43,4.22-5.35,4.22-3.5,0-5.84-2.48-5.84-6.47s2.33-6.47,5.82-6.47c3.16,0,5.09,2,5.35,4.28Z"/><path class="cls-1" d="M462,135.9h2.13v7h.05a4.16,4.16,0,0,1,4-2.19c2.78,0,4.46,1.88,4.46,4.71v8.1H470.5V145.8c0-2-1-3.22-3-3.22a3.29,3.29,0,0,0-3.42,3.63v7.3H462Z"/><path class="cls-1" d="M475.18,137.36a1.32,1.32,0,1,1,1.31,1.32A1.32,1.32,0,0,1,475.18,137.36Zm.25,3.46h2.13v12.69h-2.13Z"/><path class="cls-1" d="M480.42,140.82h2v2.07h0a4.17,4.17,0,0,1,4-2.19c2.79,0,4.4,1.79,4.4,4.67v8.14h-2.13v-7.76c0-2.05-.95-3.17-2.93-3.17s-3.29,1.42-3.29,3.57v7.36h-2.13Z"/><path class="cls-1" d="M493.47,154.56h2.19a3.27,3.27,0,0,0,3.26,1.93c2.2,0,3.53-1.27,3.53-3.16v-2h-.05a4.51,4.51,0,0,1-4.07,2.18c-3.21,0-5.36-2.55-5.36-6.39s2.15-6.42,5.41-6.42a4.66,4.66,0,0,1,4.13,2.18h0v-2.06h2v12.44c0,3-2.23,5-5.74,5C496,158.3,493.83,156.72,493.47,154.56Zm9-7.44c0-2.7-1.48-4.54-3.69-4.54s-3.61,1.79-3.61,4.54,1.42,4.51,3.61,4.51S502.45,149.81,502.45,147.12Z"/><path class="cls-1" d="M524.05,147.17c0,3.88-2.18,6.47-5.38,6.47a4.44,4.44,0,0,1-4-2.19h0v6.3h-2.13V140.82h2v2.06h0a4.67,4.67,0,0,1,4.1-2.18C521.86,140.7,524.05,143.28,524.05,147.17Zm-2.17,0c0-2.78-1.47-4.59-3.68-4.59s-3.63,1.86-3.63,4.59,1.47,4.59,3.63,4.59S521.88,150,521.88,147.17Z"/><path class="cls-1" d="M525.61,149.9c0-2.19,1.68-3.48,4.78-3.66l3.52-.21V145c0-1.56-1-2.42-2.86-2.42a2.61,2.61,0,0,0-2.79,1.93h-2c.06-2.16,2.14-3.79,4.84-3.79,3,0,5,1.59,5,4.1v8.71h-2v-2.18h0a4.59,4.59,0,0,1-4.08,2.37C527.32,153.7,525.61,152.15,525.61,149.9Zm8.3-1.21v-1l-3.28.21c-1.88.11-2.85.8-2.85,2s1,2,2.59,2A3.3,3.3,0,0,0,533.91,148.69Z"/><path class="cls-1" d="M538.62,154.56h2.18a3.27,3.27,0,0,0,3.26,1.93c2.2,0,3.53-1.27,3.53-3.16v-2h-.05a4.51,4.51,0,0,1-4.07,2.18c-3.21,0-5.36-2.55-5.36-6.39s2.15-6.42,5.41-6.42a4.64,4.64,0,0,1,4.13,2.18h0v-2.06h2v12.44c0,3-2.23,5-5.74,5C541.18,158.3,539,156.72,538.62,154.56Zm9-7.44c0-2.7-1.48-4.54-3.69-4.54s-3.61,1.79-3.61,4.54,1.42,4.51,3.61,4.51S547.59,149.81,547.59,147.12Z"/><path class="cls-1" d="M563,149.88c-.36,2.19-2.56,3.76-5.29,3.76-3.58,0-5.84-2.48-5.84-6.43s2.27-6.51,5.75-6.51,5.54,2.39,5.54,6.23v.81H554v.12a3.6,3.6,0,0,0,3.71,3.93,3.07,3.07,0,0,0,3.15-1.91Zm-8.94-3.8h6.9a3.32,3.32,0,0,0-3.38-3.54A3.5,3.5,0,0,0,554,146.08Z"/><path class="cls-1" d="M565.68,152.24a1.39,1.39,0,1,1,1.39,1.4A1.38,1.38,0,0,1,565.68,152.24Z"/><path class="cls-1" d="M580.31,153.51V137.88h-5.55v-2h13.3v2h-5.55v15.63Z"/><path class="cls-1" d="M590.16,135.9h2.13v7h.05a4.16,4.16,0,0,1,4-2.19c2.78,0,4.46,1.88,4.46,4.71v8.1h-2.12V145.8c0-2-1-3.22-3-3.22a3.29,3.29,0,0,0-3.42,3.63v7.3h-2.13Z"/><path class="cls-1" d="M614,149.88c-.35,2.19-2.56,3.76-5.28,3.76-3.59,0-5.85-2.48-5.85-6.43s2.27-6.51,5.75-6.51,5.54,2.39,5.54,6.23v.81h-9.11v.12a3.6,3.6,0,0,0,3.71,3.93,3.06,3.06,0,0,0,3.15-1.91Zm-8.93-3.8H612a3.32,3.32,0,0,0-3.38-3.54A3.49,3.49,0,0,0,605.11,146.08Z"/><path class="cls-1" d="M101.45,179.9c0-2.19,1.67-3.48,4.77-3.66l3.53-.21V175c0-1.56-1-2.42-2.87-2.42a2.6,2.6,0,0,0-2.78,1.93h-2c.06-2.16,2.15-3.79,4.85-3.79,3,0,5,1.59,5,4.1v8.71h-2v-2.18h0a4.59,4.59,0,0,1-4.08,2.37C103.16,183.7,101.45,182.15,101.45,179.9Zm8.3-1.21v-1l-3.29.21c-1.87.11-2.85.8-2.85,2s1,2,2.6,2A3.3,3.3,0,0,0,109.75,178.69Z"/><path class="cls-1" d="M126.17,177.17c0,3.88-2.19,6.47-5.39,6.47a4.46,4.46,0,0,1-4-2.19h0v6.3h-2.13V170.82h2v2.06h0a4.7,4.7,0,0,1,4.11-2.18C124,170.7,126.17,173.28,126.17,177.17Zm-2.18,0c0-2.78-1.46-4.59-3.67-4.59s-3.64,1.86-3.64,4.59,1.48,4.59,3.64,4.59S124,180,124,177.17Z"/><path class="cls-1" d="M139.9,177.17c0,3.88-2.19,6.47-5.38,6.47a4.44,4.44,0,0,1-4-2.19h0v6.3H128.3V170.82h2v2.06h.05a4.67,4.67,0,0,1,4.1-2.18C137.7,170.7,139.9,173.28,139.9,177.17Zm-2.17,0c0-2.78-1.47-4.59-3.68-4.59s-3.64,1.86-3.64,4.59,1.48,4.59,3.64,4.59S137.73,180,137.73,177.17Z"/><path class="cls-1" d="M159.77,183.51h-2.16l-2.87-9.82h-.05l-2.85,9.82h-2.16l-3.56-12.69h2.12l2.54,10.33h0l2.87-10.33h2.05l2.88,10.33h0l2.54-10.33h2.1Z"/><path class="cls-1" d="M164.9,167.36a1.33,1.33,0,1,1,1.32,1.32A1.33,1.33,0,0,1,164.9,167.36Zm.26,3.46h2.12v12.69h-2.12Z"/><path class="cls-1" d="M170.26,165.9h2.12v17.61h-2.12Z"/><path class="cls-1" d="M175.36,165.9h2.12v17.61h-2.12Z"/><path class="cls-1" d="M185.33,167.36a1.33,1.33,0,1,1,1.32,1.32A1.33,1.33,0,0,1,185.33,167.36Zm.26,3.46h2.12v12.69h-2.12Z"/><path class="cls-1" d="M190.58,170.82h2v2.07h0a4.17,4.17,0,0,1,4-2.19c2.79,0,4.4,1.79,4.4,4.67v8.14h-2.13v-7.76c0-2.05-1-3.17-2.93-3.17s-3.29,1.42-3.29,3.57v7.36h-2.13Z"/><path class="cls-1" d="M203.13,177.17c0-3.89,2.24-6.47,5.39-6.47a4.41,4.41,0,0,1,4,2.18h0v-7h2.13v17.61h-2v-2.15h0a4.48,4.48,0,0,1-4.11,2.28C205.38,183.64,203.13,181.05,203.13,177.17Zm2.17,0c0,2.78,1.47,4.59,3.67,4.59s3.65-1.85,3.65-4.59-1.47-4.59-3.65-4.59S205.3,174.39,205.3,177.17Z"/><path class="cls-1" d="M217.45,167.36a1.33,1.33,0,1,1,1.32,1.32A1.33,1.33,0,0,1,217.45,167.36Zm.26,3.46h2.12v12.69h-2.12Z"/><path class="cls-1" d="M231.17,175a3,3,0,0,0-3.26-2.42c-2.18,0-3.67,1.82-3.67,4.61s1.51,4.6,3.7,4.6a3,3,0,0,0,3.24-2.35h2.09c-.34,2.49-2.43,4.22-5.35,4.22-3.5,0-5.84-2.48-5.84-6.47s2.33-6.47,5.82-6.47c3.16,0,5.09,2,5.35,4.28Z"/><path class="cls-1" d="M234.65,179.9c0-2.19,1.67-3.48,4.77-3.66L243,176V175c0-1.56-1-2.42-2.87-2.42a2.6,2.6,0,0,0-2.78,1.93h-2c.06-2.16,2.15-3.79,4.85-3.79,3,0,5,1.59,5,4.1v8.71h-2v-2.18H243a4.59,4.59,0,0,1-4.07,2.37C236.36,183.7,234.65,182.15,234.65,179.9Zm8.3-1.21v-1l-3.28.21c-1.88.11-2.86.8-2.86,2s1,2,2.6,2A3.3,3.3,0,0,0,243,178.69Z"/><path class="cls-1" d="M250.58,167.75v3.07h2.47v1.74h-2.47v7.54c0,1.15.49,1.68,1.58,1.68.24,0,.73,0,.87-.06v1.78a7.55,7.55,0,0,1-1.34.1c-2.33,0-3.23-.95-3.23-3.4v-7.64h-1.9v-1.74h1.9v-3.07Z"/><path class="cls-1" d="M265.45,179.88c-.35,2.19-2.56,3.76-5.29,3.76-3.59,0-5.84-2.48-5.84-6.43s2.27-6.51,5.75-6.51,5.54,2.39,5.54,6.23v.81H256.5v.12a3.6,3.6,0,0,0,3.71,3.93,3.06,3.06,0,0,0,3.15-1.91Zm-8.94-3.8h6.9a3.32,3.32,0,0,0-3.38-3.54A3.5,3.5,0,0,0,256.51,176.08Z"/><path class="cls-1" d="M275.68,167.75v3.07h2.46v1.74h-2.46v7.54c0,1.15.49,1.68,1.57,1.68.25,0,.74,0,.88-.06v1.78a7.63,7.63,0,0,1-1.34.1c-2.33,0-3.24-.95-3.24-3.4v-7.64h-1.89v-1.74h1.89v-3.07Z"/><path class="cls-1" d="M280.51,165.9h2.13v7h0a4.18,4.18,0,0,1,4-2.19c2.79,0,4.47,1.88,4.47,4.71v8.1h-2.12V175.8c0-2-1-3.22-3-3.22a3.29,3.29,0,0,0-3.41,3.63v7.3h-2.13Z"/><path class="cls-1" d="M304.39,179.88c-.35,2.19-2.56,3.76-5.29,3.76-3.59,0-5.84-2.48-5.84-6.43s2.27-6.51,5.75-6.51,5.54,2.39,5.54,6.23v.81h-9.11v.12a3.6,3.6,0,0,0,3.71,3.93,3.07,3.07,0,0,0,3.15-1.91Zm-8.94-3.8h6.9a3.32,3.32,0,0,0-3.38-3.54A3.5,3.5,0,0,0,295.45,176.08Z"/><path class="cls-1" d="M311.92,165.9H314v17.61h-2.12Z"/><path class="cls-1" d="M316.34,179.9c0-2.19,1.67-3.48,4.77-3.66l3.53-.21V175c0-1.56-1-2.42-2.87-2.42a2.6,2.6,0,0,0-2.78,1.93h-2c.06-2.16,2.15-3.79,4.85-3.79,3,0,4.95,1.59,4.95,4.1v8.71h-2v-2.18h-.05a4.59,4.59,0,0,1-4.08,2.37C318.05,183.7,316.34,182.15,316.34,179.9Zm8.3-1.21v-1l-3.28.21c-1.88.11-2.86.8-2.86,2s1,2,2.6,2A3.3,3.3,0,0,0,324.64,178.69Z"/><path class="cls-1" d="M334,170.71c2.61,0,4.58,1.54,4.65,3.65h-2c-.12-1.19-1.15-1.92-2.7-1.92s-2.57.73-2.57,1.82c0,.85.67,1.42,2.11,1.78l2,.48c2.56.65,3.49,1.55,3.49,3.39,0,2.19-2.1,3.73-5.06,3.73-2.77,0-4.74-1.49-4.94-3.72H331c.21,1.3,1.25,2,3,2s2.78-.71,2.78-1.83c0-.88-.52-1.34-1.95-1.72l-2.24-.57c-2.23-.58-3.33-1.7-3.33-3.41C329.24,172.22,331.2,170.71,334,170.71Z"/><path class="cls-1" d="M343.9,167.75v3.07h2.47v1.74H343.9v7.54c0,1.15.49,1.68,1.58,1.68.24,0,.73,0,.88-.06v1.78a7.76,7.76,0,0,1-1.35.1c-2.33,0-3.23-.95-3.23-3.4v-7.64h-1.89v-1.74h1.89v-3.07Z"/><path class="cls-1" d="M354.44,172.56h-1.77v-1.74h1.77v-1.17c0-2.36,1-3.4,3.42-3.4a7.7,7.7,0,0,1,1.17.1v1.73a5.86,5.86,0,0,0-1-.08c-1.05,0-1.5.49-1.51,1.66v1.16H359v1.74h-2.47v10.95h-2.12Z"/><path class="cls-1" d="M360,177.17c0-4,2.3-6.47,5.88-6.47s5.88,2.51,5.88,6.47-2.3,6.47-5.88,6.47S360,181.11,360,177.17Zm9.6,0c0-2.9-1.38-4.61-3.72-4.61s-3.72,1.72-3.72,4.61,1.39,4.6,3.72,4.6S369.59,180.06,369.59,177.17Z"/><path class="cls-1" d="M384.31,183.51h-2V181.4h-.05a4.13,4.13,0,0,1-4,2.24c-2.77,0-4.4-1.8-4.4-4.68v-8.14H376v7.76c0,2.06,1,3.18,2.93,3.18s3.3-1.42,3.3-3.58v-7.36h2.13Z"/><path class="cls-1" d="M387.05,170.82h2v2.07h.05a4.15,4.15,0,0,1,4-2.19c2.79,0,4.4,1.79,4.4,4.67v8.14H395.4v-7.76c0-2.05-.95-3.17-2.93-3.17s-3.29,1.42-3.29,3.57v7.36h-2.13Z"/><path class="cls-1" d="M399.6,177.17c0-3.89,2.24-6.47,5.39-6.47a4.4,4.4,0,0,1,4,2.18h.05v-7h2.12v17.61h-2v-2.15h0a4.46,4.46,0,0,1-4.1,2.28C401.85,183.64,399.6,181.05,399.6,177.17Zm2.18,0c0,2.78,1.46,4.59,3.66,4.59s3.65-1.85,3.65-4.59-1.47-4.59-3.65-4.59S401.78,174.39,401.78,177.17Z"/><path class="cls-1" d="M419.31,165.9h2.12v17.61h-2.12Z"/><path class="cls-1" d="M423.68,177.17c0-4,2.29-6.47,5.88-6.47s5.87,2.51,5.87,6.47-2.29,6.47-5.87,6.47S423.68,181.11,423.68,177.17Zm9.59,0c0-2.9-1.38-4.61-3.71-4.61s-3.72,1.72-3.72,4.61,1.39,4.6,3.72,4.6S433.27,180.06,433.27,177.17Z"/><path class="cls-1" d="M446,175a3,3,0,0,0-3.26-2.42c-2.18,0-3.67,1.82-3.67,4.61s1.51,4.6,3.7,4.6a3,3,0,0,0,3.24-2.35h2.09c-.34,2.49-2.43,4.22-5.35,4.22-3.5,0-5.84-2.48-5.84-6.47s2.33-6.47,5.82-6.47c3.16,0,5.09,2,5.35,4.28Z"/><path class="cls-1" d="M449.52,179.9c0-2.19,1.67-3.48,4.77-3.66l3.53-.21V175c0-1.56-1-2.42-2.87-2.42a2.6,2.6,0,0,0-2.78,1.93h-2c.06-2.16,2.15-3.79,4.85-3.79,3,0,4.95,1.59,4.95,4.1v8.71h-2v-2.18h-.05a4.59,4.59,0,0,1-4.08,2.37C451.23,183.7,449.52,182.15,449.52,179.9Zm8.3-1.21v-1l-3.28.21c-1.88.11-2.86.8-2.86,2s1,2,2.6,2A3.3,3.3,0,0,0,457.82,178.69Z"/><path class="cls-1" d="M465.45,167.75v3.07h2.47v1.74h-2.47v7.54c0,1.15.49,1.68,1.57,1.68.25,0,.74,0,.88-.06v1.78a7.55,7.55,0,0,1-1.34.1c-2.33,0-3.23-.95-3.23-3.4v-7.64h-1.9v-1.74h1.9v-3.07Z"/><path class="cls-1" d="M470,167.36a1.33,1.33,0,1,1,1.32,1.32A1.33,1.33,0,0,1,470,167.36Zm.25,3.46h2.13v12.69h-2.13Z"/><path class="cls-1" d="M474.65,177.17c0-4,2.3-6.47,5.89-6.47s5.87,2.51,5.87,6.47-2.29,6.47-5.87,6.47S474.65,181.11,474.65,177.17Zm9.6,0c0-2.9-1.38-4.61-3.71-4.61s-3.73,1.72-3.73,4.61,1.4,4.6,3.73,4.6S484.25,180.06,484.25,177.17Z"/><path class="cls-1" d="M488.54,170.82h2v2.07h.05a4.15,4.15,0,0,1,4-2.19c2.79,0,4.4,1.79,4.4,4.67v8.14h-2.13v-7.76c0-2.05-.95-3.17-2.93-3.17s-3.29,1.42-3.29,3.57v7.36h-2.13Z"/><path class="cls-1" d="M506.22,177.17c0-4,2.3-6.47,5.89-6.47s5.87,2.51,5.87,6.47-2.3,6.47-5.87,6.47S506.22,181.11,506.22,177.17Zm9.6,0c0-2.9-1.38-4.61-3.71-4.61s-3.73,1.72-3.73,4.61,1.39,4.6,3.73,4.6S515.82,180.06,515.82,177.17Z"/><path class="cls-1" d="M520.8,172.56H519v-1.74h1.77v-1.17c0-2.36,1-3.4,3.41-3.4a7.72,7.72,0,0,1,1.18.1v1.73a5.86,5.86,0,0,0-1-.08c-1,0-1.5.49-1.51,1.66v1.16h2.48v1.74h-2.47v10.95H520.8Z"/><path class="cls-1" d="M535.52,167.75v3.07H538v1.74h-2.46v7.54c0,1.15.49,1.68,1.57,1.68.25,0,.74,0,.88-.06v1.78a7.55,7.55,0,0,1-1.34.1c-2.33,0-3.24-.95-3.24-3.4v-7.64H531.5v-1.74h1.89v-3.07Z"/><path class="cls-1" d="M540.35,165.9h2.13v7h0a4.15,4.15,0,0,1,4-2.19c2.79,0,4.47,1.88,4.47,4.71v8.1H548.9V175.8c0-2-1-3.22-3-3.22a3.29,3.29,0,0,0-3.41,3.63v7.3h-2.13Z"/><path class="cls-1" d="M564.23,179.88c-.36,2.19-2.56,3.76-5.29,3.76-3.58,0-5.84-2.48-5.84-6.43s2.27-6.51,5.75-6.51,5.54,2.39,5.54,6.23v.81h-9.11v.12a3.6,3.6,0,0,0,3.71,3.93,3.07,3.07,0,0,0,3.15-1.91Zm-8.94-3.8h6.9a3.32,3.32,0,0,0-3.38-3.54A3.5,3.5,0,0,0,555.29,176.08Z"/><path class="cls-1" d="M571.5,167.36a1.33,1.33,0,1,1,1.32,1.32A1.33,1.33,0,0,1,571.5,167.36Zm.26,3.46h2.12v12.69h-2.12Z"/><path class="cls-1" d="M579.56,167.75v3.07H582v1.74h-2.47v7.54c0,1.15.49,1.68,1.58,1.68.24,0,.73,0,.87-.06v1.78a7.55,7.55,0,0,1-1.34.1c-2.33,0-3.23-.95-3.23-3.4v-7.64h-1.9v-1.74h1.9v-3.07Z"/><path class="cls-1" d="M594.43,179.88c-.35,2.19-2.56,3.76-5.29,3.76-3.59,0-5.84-2.48-5.84-6.43s2.27-6.51,5.75-6.51,5.54,2.39,5.54,6.23v.81h-9.11v.12a3.6,3.6,0,0,0,3.71,3.93,3.06,3.06,0,0,0,3.15-1.91Zm-8.94-3.8h6.9a3.32,3.32,0,0,0-3.38-3.54A3.5,3.5,0,0,0,585.49,176.08Z"/><path class="cls-1" d="M596.72,170.82h2v2.07h0a3.77,3.77,0,0,1,3.6-2.19,3.54,3.54,0,0,1,3.56,2.41h0a4.25,4.25,0,0,1,4-2.41,3.89,3.89,0,0,1,4.14,4.15v8.66H612v-8.18a2.46,2.46,0,0,0-2.63-2.75,2.8,2.8,0,0,0-2.87,3v8h-2.13V175.1a2.4,2.4,0,0,0-2.6-2.52,2.9,2.9,0,0,0-2.9,3.07v7.86h-2.13Z"/><path class="cls-1" d="M617.21,182.24a1.39,1.39,0,1,1,1.39,1.4A1.38,1.38,0,0,1,617.21,182.24Z"/><path class="cls-1" d="M112,208.47h-7l-1.78,5H101l6.49-17.61h2.18l6.49,17.61H113.8Zm-6.36-1.87h5.71l-2.82-8h-.07Z"/><path class="cls-1" d="M117.79,200.82h2v2.07h0a4.17,4.17,0,0,1,4-2.19c2.79,0,4.4,1.79,4.4,4.67v8.14h-2.13v-7.76c0-2.05-1-3.17-2.93-3.17s-3.29,1.42-3.29,3.57v7.36h-2.13Z"/><path class="cls-1" d="M130.34,207.17c0-3.89,2.24-6.47,5.39-6.47a4.41,4.41,0,0,1,4,2.18h0v-7h2.12v17.61h-2v-2.15h0a4.46,4.46,0,0,1-4.1,2.28C132.59,213.64,130.34,211.05,130.34,207.17Zm2.18,0c0,2.78,1.46,4.59,3.66,4.59s3.65-1.85,3.65-4.59-1.47-4.59-3.65-4.59S132.52,204.39,132.52,207.17Z"/><path class="cls-1" d="M150.07,218.19v-1.78a5.4,5.4,0,0,0,.83.06c1.18,0,1.84-.58,2.33-2.05l.29-.9-4.68-12.7h2.27l3.51,10.57h0l3.51-10.57h2.24l-5,13.58c-1.09,3-2.14,3.86-4.44,3.86A5.41,5.41,0,0,1,150.07,218.19Z"/><path class="cls-1" d="M161.09,207.17c0-4,2.3-6.47,5.89-6.47s5.87,2.51,5.87,6.47-2.3,6.47-5.87,6.47S161.09,211.11,161.09,207.17Zm9.6,0c0-2.9-1.38-4.61-3.71-4.61s-3.73,1.72-3.73,4.61,1.39,4.6,3.73,4.6S170.69,210.06,170.69,207.17Z"/><path class="cls-1" d="M185.41,213.51h-2V211.4h0a4.16,4.16,0,0,1-4,2.24c-2.77,0-4.4-1.8-4.4-4.68v-8.14h2.13v7.76c0,2.06,1,3.18,2.93,3.18s3.31-1.42,3.31-3.58v-7.36h2.12Z"/><path class="cls-1" d="M201.75,205a3,3,0,0,0-3.26-2.42c-2.18,0-3.67,1.82-3.67,4.61s1.51,4.6,3.7,4.6a3,3,0,0,0,3.25-2.35h2.08c-.34,2.49-2.43,4.22-5.34,4.22-3.51,0-5.85-2.48-5.85-6.47s2.33-6.47,5.82-6.47c3.16,0,5.09,2,5.35,4.28Z"/><path class="cls-1" d="M205.23,209.9c0-2.19,1.68-3.48,4.78-3.66l3.52-.21V205c0-1.56-1-2.42-2.86-2.42a2.61,2.61,0,0,0-2.79,1.93h-2c.06-2.16,2.14-3.79,4.84-3.79,3,0,5,1.59,5,4.1v8.71h-2v-2.18h0a4.6,4.6,0,0,1-4.08,2.37C206.94,213.7,205.23,212.15,205.23,209.9Zm8.3-1.21v-1l-3.28.21c-1.88.11-2.86.8-2.86,2s1,2,2.6,2A3.3,3.3,0,0,0,213.53,208.69Z"/><path class="cls-1" d="M218.36,200.82h2v2.07h0a4.15,4.15,0,0,1,4-2.19c2.78,0,4.39,1.79,4.39,4.67v8.14H226.7v-7.76c0-2.05-.95-3.17-2.92-3.17s-3.3,1.42-3.3,3.57v7.36h-2.12Z"/><path class="cls-1" d="M236.08,209.9c0-2.19,1.67-3.48,4.77-3.66l3.53-.21V205c0-1.56-1-2.42-2.87-2.42a2.6,2.6,0,0,0-2.78,1.93h-2c.06-2.16,2.15-3.79,4.85-3.79,3,0,4.95,1.59,4.95,4.1v8.71h-2v-2.18h-.05a4.59,4.59,0,0,1-4.07,2.37C237.79,213.7,236.08,212.15,236.08,209.9Zm8.3-1.21v-1l-3.28.21c-1.88.11-2.86.8-2.86,2s1,2,2.6,2A3.3,3.3,0,0,0,244.38,208.69Z"/><path class="cls-1" d="M249.31,195.9h2.13v17.61h-2.13Z"/><path class="cls-1" d="M258.82,200.71c2.61,0,4.58,1.54,4.65,3.65h-2c-.13-1.19-1.15-1.92-2.7-1.92s-2.58.73-2.58,1.82c0,.85.67,1.42,2.12,1.78l2,.48c2.56.65,3.49,1.55,3.49,3.39,0,2.19-2.1,3.73-5.05,3.73-2.77,0-4.75-1.49-4.95-3.72h2.13c.21,1.3,1.24,2,2.95,2s2.79-.71,2.79-1.83c0-.88-.53-1.34-2-1.72l-2.23-.57c-2.24-.58-3.33-1.7-3.33-3.41C254.09,202.22,256,200.71,258.82,200.71Z"/><path class="cls-1" d="M265.32,207.17c0-4,2.29-6.47,5.88-6.47s5.87,2.51,5.87,6.47-2.29,6.47-5.87,6.47S265.32,211.11,265.32,207.17Zm9.59,0c0-2.9-1.38-4.61-3.71-4.61s-3.72,1.72-3.72,4.61,1.39,4.6,3.72,4.6S274.91,210.06,274.91,207.17Z"/><path class="cls-1" d="M283.71,207.17c0-4,2.3-6.47,5.89-6.47s5.87,2.51,5.87,6.47-2.3,6.47-5.87,6.47S283.71,211.11,283.71,207.17Zm9.6,0c0-2.9-1.38-4.61-3.71-4.61s-3.73,1.72-3.73,4.61,1.4,4.6,3.73,4.6S293.31,210.06,293.31,207.17Z"/><path class="cls-1" d="M309.2,207.17c0,3.88-2.18,6.47-5.38,6.47a4.44,4.44,0,0,1-4-2.19h0v6.3h-2.12V200.82h2v2.06h.05a4.67,4.67,0,0,1,4.1-2.18C307,200.7,309.2,203.28,309.2,207.17Zm-2.17,0c0-2.78-1.47-4.59-3.68-4.59s-3.63,1.86-3.63,4.59,1.47,4.59,3.63,4.59S307,210,307,207.17Z"/><path class="cls-1" d="M321.85,209.88c-.36,2.19-2.57,3.76-5.29,3.76-3.59,0-5.85-2.48-5.85-6.43s2.28-6.51,5.75-6.51,5.55,2.39,5.55,6.23v.81H312.9v.12a3.6,3.6,0,0,0,3.71,3.93,3.07,3.07,0,0,0,3.15-1.91Zm-8.94-3.8h6.9a3.32,3.32,0,0,0-3.38-3.54A3.5,3.5,0,0,0,312.91,206.08Z"/><path class="cls-1" d="M324.14,200.82h2v2.07h.05a4.17,4.17,0,0,1,4-2.19c2.78,0,4.4,1.79,4.4,4.67v8.14h-2.13v-7.76c0-2.05-.95-3.17-2.93-3.17s-3.29,1.42-3.29,3.57v7.36h-2.13Z"/><path class="cls-1" d="M342.58,218.19v-1.78a5.4,5.4,0,0,0,.83.06c1.18,0,1.84-.58,2.33-2.05l.29-.9-4.69-12.7h2.27l3.52,10.57h0l3.52-10.57h2.23l-5,13.58c-1.08,3-2.13,3.86-4.43,3.86A5.33,5.33,0,0,1,342.58,218.19Z"/><path class="cls-1" d="M353.6,207.17c0-4,2.29-6.47,5.88-6.47s5.87,2.51,5.87,6.47-2.29,6.47-5.87,6.47S353.6,211.11,353.6,207.17Zm9.59,0c0-2.9-1.38-4.61-3.71-4.61s-3.72,1.72-3.72,4.61,1.39,4.6,3.72,4.6S363.19,210.06,363.19,207.17Z"/><path class="cls-1" d="M377.92,213.51h-2V211.4h0a4.14,4.14,0,0,1-4,2.24c-2.77,0-4.39-1.8-4.39-4.68v-8.14h2.12v7.76c0,2.06,1,3.18,2.93,3.18s3.31-1.42,3.31-3.58v-7.36h2.13Z"/><path class="cls-1" d="M380.66,200.82h2v2.07h0a3.07,3.07,0,0,1,3.08-2.19,4.27,4.27,0,0,1,.85.07v2.07a4.31,4.31,0,0,0-1.13-.12,2.69,2.69,0,0,0-2.72,3v7.81h-2.13Z"/><path class="cls-1" d="M402,205a3,3,0,0,0-3.26-2.42c-2.18,0-3.67,1.82-3.67,4.61s1.51,4.6,3.7,4.6a3,3,0,0,0,3.25-2.35h2.08c-.34,2.49-2.43,4.22-5.34,4.22-3.51,0-5.85-2.48-5.85-6.47s2.33-6.47,5.82-6.47c3.16,0,5.09,2,5.35,4.28Z"/><path class="cls-1" d="M405.44,209.9c0-2.19,1.68-3.48,4.78-3.66l3.52-.21V205c0-1.56-1-2.42-2.87-2.42a2.61,2.61,0,0,0-2.78,1.93h-2c.06-2.16,2.14-3.79,4.84-3.79,3,0,5,1.59,5,4.1v8.71h-2v-2.18h-.05a4.58,4.58,0,0,1-4.07,2.37C407.15,213.7,405.44,212.15,405.44,209.9Zm8.3-1.21v-1l-3.28.21c-1.88.11-2.86.8-2.86,2s1,2,2.6,2A3.3,3.3,0,0,0,413.74,208.69Z"/><path class="cls-1" d="M418.57,200.82h2v2.07h.05a3.77,3.77,0,0,1,3.6-2.19,3.54,3.54,0,0,1,3.56,2.41h.05a4.25,4.25,0,0,1,4-2.41,3.88,3.88,0,0,1,4.14,4.15v8.66h-2.13v-8.18a2.46,2.46,0,0,0-2.63-2.75,2.8,2.8,0,0,0-2.87,3v8H426.2V205.1a2.41,2.41,0,0,0-2.6-2.52,2.9,2.9,0,0,0-2.91,3.07v7.86h-2.12Z"/><path class="cls-1" d="M449.16,209.88c-.36,2.19-2.57,3.76-5.29,3.76-3.59,0-5.85-2.48-5.85-6.43s2.27-6.51,5.75-6.51,5.55,2.39,5.55,6.23v.81h-9.11v.12a3.6,3.6,0,0,0,3.71,3.93,3.07,3.07,0,0,0,3.15-1.91Zm-8.94-3.8h6.9a3.33,3.33,0,0,0-3.38-3.54A3.5,3.5,0,0,0,440.22,206.08Z"/><path class="cls-1" d="M451.45,200.82h2v2.07h.05a3.07,3.07,0,0,1,3.08-2.19,4.27,4.27,0,0,1,.85.07v2.07a4.31,4.31,0,0,0-1.13-.12,2.69,2.69,0,0,0-2.72,3v7.81h-2.13Z"/><path class="cls-1" d="M458.34,209.9c0-2.19,1.67-3.48,4.77-3.66l3.53-.21V205c0-1.56-1-2.42-2.87-2.42a2.6,2.6,0,0,0-2.78,1.93h-2c.06-2.16,2.15-3.79,4.85-3.79,3,0,4.95,1.59,4.95,4.1v8.71h-2v-2.18h-.05a4.59,4.59,0,0,1-4.08,2.37C460.05,213.7,458.34,212.15,458.34,209.9Zm8.3-1.21v-1l-3.29.21c-1.88.11-2.85.8-2.85,2s1,2,2.6,2A3.3,3.3,0,0,0,466.64,208.69Z"/><path class="cls-1" d="M476,209.9c0-2.19,1.68-3.48,4.78-3.66l3.52-.21V205c0-1.56-1-2.42-2.86-2.42a2.61,2.61,0,0,0-2.79,1.93h-2c.07-2.16,2.15-3.79,4.85-3.79,3,0,5,1.59,5,4.1v8.71h-2v-2.18h-.05a4.58,4.58,0,0,1-4.07,2.37C477.72,213.7,476,212.15,476,209.9Zm8.3-1.21v-1l-3.28.21c-1.88.11-2.86.8-2.86,2s1,2,2.6,2A3.3,3.3,0,0,0,484.31,208.69Z"/><path class="cls-1" d="M489.13,200.82h2v2.07h.05a4.15,4.15,0,0,1,4-2.19c2.79,0,4.4,1.79,4.4,4.67v8.14h-2.13v-7.76c0-2.05-1-3.17-2.93-3.17s-3.29,1.42-3.29,3.57v7.36h-2.13Z"/><path class="cls-1" d="M501.68,207.17c0-3.89,2.24-6.47,5.39-6.47a4.4,4.4,0,0,1,4,2.18h.05v-7h2.12v17.61h-2v-2.15h0a4.46,4.46,0,0,1-4.1,2.28C503.93,213.64,501.68,211.05,501.68,207.17Zm2.18,0c0,2.78,1.46,4.59,3.66,4.59s3.65-1.85,3.65-4.59-1.47-4.59-3.65-4.59S503.86,204.39,503.86,207.17Z"/><path class="cls-1" d="M525.79,200.71c2.62,0,4.58,1.54,4.65,3.65h-2c-.12-1.19-1.15-1.92-2.7-1.92s-2.58.73-2.58,1.82c0,.85.68,1.42,2.12,1.78l2,.48c2.57.65,3.49,1.55,3.49,3.39,0,2.19-2.1,3.73-5.05,3.73-2.77,0-4.75-1.49-4.95-3.72h2.13c.21,1.3,1.24,2,2.95,2s2.79-.71,2.79-1.83c0-.88-.53-1.34-2-1.72l-2.23-.57c-2.23-.58-3.33-1.7-3.33-3.41C521.06,202.22,523,200.71,525.79,200.71Z"/><path class="cls-1" d="M541.38,205a3,3,0,0,0-3.26-2.42c-2.18,0-3.67,1.82-3.67,4.61s1.51,4.6,3.7,4.6a3,3,0,0,0,3.24-2.35h2.09c-.34,2.49-2.43,4.22-5.35,4.22-3.5,0-5.84-2.48-5.84-6.47s2.33-6.47,5.82-6.47c3.16,0,5.09,2,5.35,4.28Z"/><path class="cls-1" d="M544.86,209.9c0-2.19,1.67-3.48,4.77-3.66l3.53-.21V205c0-1.56-1-2.42-2.87-2.42a2.6,2.6,0,0,0-2.78,1.93h-2c.06-2.16,2.15-3.79,4.85-3.79,3,0,5,1.59,5,4.1v8.71h-2v-2.18h0a4.58,4.58,0,0,1-4.07,2.37C546.57,213.7,544.86,212.15,544.86,209.9Zm8.3-1.21v-1l-3.28.21c-1.88.11-2.86.8-2.86,2s1,2,2.6,2A3.3,3.3,0,0,0,553.16,208.69Z"/><path class="cls-1" d="M558,200.82h2v2.07h0a4.15,4.15,0,0,1,4-2.19c2.79,0,4.4,1.79,4.4,4.67v8.14h-2.13v-7.76c0-2.05-1-3.17-2.93-3.17s-3.29,1.42-3.29,3.57v7.36H558Z"/><path class="cls-1" d="M576.42,218.19v-1.78a5.4,5.4,0,0,0,.83.06c1.18,0,1.84-.58,2.33-2.05l.29-.9-4.69-12.7h2.27L581,211.39h0l3.51-10.57h2.24l-5,13.58c-1.08,3-2.13,3.86-4.43,3.86A5.41,5.41,0,0,1,576.42,218.19Z"/><path class="cls-1" d="M587.44,207.17c0-4,2.29-6.47,5.88-6.47s5.88,2.51,5.88,6.47-2.3,6.47-5.88,6.47S587.44,211.11,587.44,207.17Zm9.59,0c0-2.9-1.38-4.61-3.71-4.61s-3.72,1.72-3.72,4.61,1.39,4.6,3.72,4.6S597,210.06,597,207.17Z"/><path class="cls-1" d="M611.76,213.51h-2V211.4h0a4.14,4.14,0,0,1-4,2.24c-2.77,0-4.39-1.8-4.39-4.68v-8.14h2.12v7.76c0,2.06,1,3.18,2.93,3.18s3.31-1.42,3.31-3.58v-7.36h2.13Z"/><path class="cls-1" d="M614.5,200.82h2v2.07h0a3.07,3.07,0,0,1,3.08-2.19,4.27,4.27,0,0,1,.85.07v2.07a4.31,4.31,0,0,0-1.13-.12,2.69,2.69,0,0,0-2.72,3v7.81H614.5Z"/><path class="cls-1" d="M102.13,225.9h2.13v7h0a4.18,4.18,0,0,1,4-2.19c2.79,0,4.47,1.88,4.47,4.71v8.1h-2.12V235.8c0-2-1-3.22-3-3.22a3.29,3.29,0,0,0-3.41,3.63v7.3h-2.13Z"/><path class="cls-1" d="M114.88,237.17c0-4,2.29-6.47,5.88-6.47s5.87,2.51,5.87,6.47-2.29,6.47-5.87,6.47S114.88,241.11,114.88,237.17Zm9.59,0c0-2.9-1.38-4.61-3.71-4.61s-3.72,1.72-3.72,4.61,1.39,4.6,3.72,4.6S124.47,240.06,124.47,237.17Z"/><path class="cls-1" d="M139.19,243.51h-2V241.4h-.05a4.15,4.15,0,0,1-4,2.24c-2.77,0-4.39-1.8-4.39-4.68v-8.14h2.12v7.76c0,2.06,1,3.18,2.93,3.18s3.31-1.42,3.31-3.58v-7.36h2.12Z"/><path class="cls-1" d="M146.46,230.71c2.61,0,4.57,1.54,4.65,3.65h-2c-.12-1.19-1.15-1.92-2.7-1.92s-2.57.73-2.57,1.82c0,.85.67,1.42,2.11,1.78l2,.48c2.57.65,3.5,1.55,3.5,3.39,0,2.19-2.1,3.73-5.06,3.73-2.77,0-4.75-1.49-4.94-3.72h2.12c.21,1.3,1.25,2,3,2s2.78-.71,2.78-1.83c0-.88-.53-1.34-2-1.72l-2.24-.57c-2.23-.58-3.33-1.7-3.33-3.41C141.72,232.22,143.67,230.71,146.46,230.71Z"/><path class="cls-1" d="M164.08,239.88c-.35,2.19-2.56,3.76-5.28,3.76-3.59,0-5.85-2.48-5.85-6.43s2.27-6.51,5.75-6.51,5.54,2.39,5.54,6.23v.81h-9.11v.12a3.6,3.6,0,0,0,3.72,3.93,3.08,3.08,0,0,0,3.15-1.91Zm-8.93-3.8H162a3.32,3.32,0,0,0-3.38-3.54A3.49,3.49,0,0,0,155.15,236.08Z"/><path class="cls-1" d="M174.31,227.75v3.07h2.47v1.74h-2.47v7.54c0,1.15.49,1.68,1.58,1.68.24,0,.73,0,.88-.06v1.78a7.76,7.76,0,0,1-1.35.1c-2.33,0-3.23-.95-3.23-3.4v-7.64H170.3v-1.74h1.89v-3.07Z"/><path class="cls-1" d="M178.05,237.17c0-4,2.29-6.47,5.88-6.47s5.87,2.51,5.87,6.47-2.29,6.47-5.87,6.47S178.05,241.11,178.05,237.17Zm9.59,0c0-2.9-1.38-4.61-3.71-4.61s-3.72,1.72-3.72,4.61,1.39,4.6,3.72,4.6S187.64,240.06,187.64,237.17Z"/><path class="cls-1" d="M197.75,232.56H196v-1.74h1.77v-1.17c0-2.36,1-3.4,3.42-3.4a7.59,7.59,0,0,1,1.17.1v1.73a5.86,5.86,0,0,0-1-.08c-1,0-1.5.49-1.51,1.66v1.16h2.48v1.74h-2.47v10.95h-2.12Z"/><path class="cls-1" d="M204.39,227.36a1.33,1.33,0,1,1,1.32,1.32A1.33,1.33,0,0,1,204.39,227.36Zm.26,3.46h2.12v12.69h-2.12Z"/><path class="cls-1" d="M209.64,230.82h2v2.07h.05a4.15,4.15,0,0,1,4-2.19c2.78,0,4.39,1.79,4.39,4.67v8.14H218v-7.76c0-2.05-1-3.17-2.93-3.17s-3.3,1.42-3.3,3.57v7.36h-2.12Z"/><path class="cls-1" d="M222.19,237.17c0-3.89,2.23-6.47,5.38-6.47a4.4,4.4,0,0,1,4,2.18h0v-7h2.12v17.61h-2v-2.15h0a4.46,4.46,0,0,1-4.1,2.28C224.43,243.64,222.19,241.05,222.19,237.17Zm2.17,0c0,2.78,1.47,4.59,3.66,4.59s3.65-1.85,3.65-4.59-1.46-4.59-3.65-4.59S224.36,234.39,224.36,237.17Z"/><path class="cls-1" d="M244.59,227.75v3.07h2.46v1.74h-2.46v7.54c0,1.15.49,1.68,1.57,1.68.25,0,.73,0,.88-.06v1.78a7.55,7.55,0,0,1-1.34.1c-2.33,0-3.24-.95-3.24-3.4v-7.64h-1.89v-1.74h1.89v-3.07Z"/><path class="cls-1" d="M249.42,225.9h2.13v7h0a4.18,4.18,0,0,1,4-2.19c2.79,0,4.47,1.88,4.47,4.71v8.1H258V235.8c0-2-1-3.22-3-3.22a3.29,3.29,0,0,0-3.41,3.63v7.3h-2.13Z"/><path class="cls-1" d="M273.3,239.88c-.35,2.19-2.56,3.76-5.29,3.76-3.59,0-5.84-2.48-5.84-6.43s2.27-6.51,5.75-6.51,5.54,2.39,5.54,6.23v.81h-9.11v.12a3.6,3.6,0,0,0,3.71,3.93,3.07,3.07,0,0,0,3.15-1.91Zm-8.94-3.8h6.9a3.32,3.32,0,0,0-3.38-3.54A3.5,3.5,0,0,0,264.36,236.08Z"/><path class="cls-1" d="M290.73,238.47h-7l-1.77,5h-2.3l6.49-17.61h2.17l6.5,17.61H292.5Zm-6.36-1.87h5.71l-2.82-8h-.07Z"/><path class="cls-1" d="M299,243.51h-2.2V225.9h6.61c3.39,0,5.61,2.07,5.61,5.25a5,5,0,0,1-3.54,5l4.08,7.31H307l-3.77-7H299Zm0-8.91h4.21c2.26,0,3.54-1.22,3.54-3.38s-1.37-3.37-3.64-3.37H299Z"/><path class="cls-1" d="M316.71,225.9h2.12v17.61h-2.12Z"/><path class="cls-1" d="M321.13,239.9c0-2.19,1.67-3.48,4.77-3.66l3.53-.21V235c0-1.56-1-2.42-2.87-2.42a2.6,2.6,0,0,0-2.78,1.93h-2c.06-2.16,2.15-3.79,4.84-3.79,3,0,5,1.59,5,4.1v8.71h-2v-2.18h-.05a4.59,4.59,0,0,1-4.08,2.37C322.83,243.7,321.13,242.15,321.13,239.9Zm8.3-1.21v-1l-3.29.21c-1.88.11-2.85.8-2.85,2s1,2,2.6,2A3.3,3.3,0,0,0,329.43,238.69Z"/><path class="cls-1" d="M336.43,241.36h-.05v2.15h-2V225.9h2.12v7h0a4.49,4.49,0,0,1,4.07-2.18c3.19,0,5.35,2.58,5.35,6.47s-2.16,6.47-5.39,6.47A4.48,4.48,0,0,1,336.43,241.36Zm0-4.19c0,2.73,1.49,4.59,3.67,4.59s3.64-1.8,3.64-4.59-1.44-4.59-3.64-4.59S336.47,234.44,336.47,237.17Z"/><path class="cls-1" d="M358.61,239.88c-.35,2.19-2.56,3.76-5.28,3.76-3.59,0-5.85-2.48-5.85-6.43s2.27-6.51,5.75-6.51,5.54,2.39,5.54,6.23v.81h-9.1v.12a3.59,3.59,0,0,0,3.71,3.93,3.08,3.08,0,0,0,3.15-1.91Zm-8.93-3.8h6.89a3.32,3.32,0,0,0-3.38-3.54A3.49,3.49,0,0,0,349.68,236.08Z"/><path class="cls-1" d="M361,225.9h2.12v17.61H361Z"/><path class="cls-1" d="M374,227.75v3.07h2.46v1.74H374v7.54c0,1.15.48,1.68,1.57,1.68.24,0,.73,0,.88-.06v1.78a7.63,7.63,0,0,1-1.34.1c-2.34,0-3.24-.95-3.24-3.4v-7.64h-1.89v-1.74h1.89v-3.07Z"/><path class="cls-1" d="M378.78,225.9h2.12v7H381a4.17,4.17,0,0,1,4-2.19c2.78,0,4.47,1.88,4.47,4.71v8.1h-2.13V235.8c0-2-1-3.22-3-3.22a3.3,3.3,0,0,0-3.42,3.63v7.3h-2.12Z"/><path class="cls-1" d="M391.57,239.9c0-2.19,1.67-3.48,4.78-3.66l3.52-.21V235c0-1.56-1-2.42-2.87-2.42a2.6,2.6,0,0,0-2.78,1.93h-2c.06-2.16,2.14-3.79,4.84-3.79,3,0,5,1.59,5,4.1v8.71h-2v-2.18h-.05a4.58,4.58,0,0,1-4.07,2.37C393.28,243.7,391.57,242.15,391.57,239.9Zm8.3-1.21v-1l-3.28.21c-1.88.11-2.86.8-2.86,2s1,2,2.6,2A3.3,3.3,0,0,0,399.87,238.69Z"/><path class="cls-1" d="M407.5,227.75v3.07H410v1.74H407.5v7.54c0,1.15.49,1.68,1.58,1.68.24,0,.73,0,.88-.06v1.78a7.76,7.76,0,0,1-1.35.1c-2.33,0-3.23-.95-3.23-3.4v-7.64h-1.89v-1.74h1.89v-3.07Z"/><path class="cls-1" d="M417.21,227.36a1.33,1.33,0,0,1,2.65,0,1.33,1.33,0,0,1-2.65,0Zm.25,3.46h2.13v12.69h-2.13Z"/><path class="cls-1" d="M422.45,230.82h2v2.07h.05a4.15,4.15,0,0,1,4-2.19c2.78,0,4.39,1.79,4.39,4.67v8.14H430.8v-7.76c0-2.05-.95-3.17-2.93-3.17s-3.29,1.42-3.29,3.57v7.36h-2.13Z"/><path class="cls-1" d="M435,237.17c0-3.89,2.24-6.47,5.39-6.47a4.4,4.4,0,0,1,4,2.18h.05v-7h2.12v17.61h-2v-2.15h0a4.46,4.46,0,0,1-4.1,2.28C437.25,243.64,435,241.05,435,237.17Zm2.18,0c0,2.78,1.46,4.59,3.66,4.59s3.65-1.85,3.65-4.59-1.47-4.59-3.65-4.59S437.18,234.39,437.18,237.17Z"/><path class="cls-1" d="M449.32,227.36a1.33,1.33,0,1,1,1.32,1.32A1.33,1.33,0,0,1,449.32,227.36Zm.26,3.46h2.12v12.69h-2.12Z"/><path class="cls-1" d="M463,235a3,3,0,0,0-3.26-2.42c-2.18,0-3.67,1.82-3.67,4.61s1.51,4.6,3.7,4.6a3,3,0,0,0,3.25-2.35h2.08c-.34,2.49-2.43,4.22-5.34,4.22-3.51,0-5.85-2.48-5.85-6.47s2.33-6.47,5.82-6.47c3.16,0,5.09,2,5.35,4.28Z"/><path class="cls-1" d="M466.52,239.9c0-2.19,1.68-3.48,4.77-3.66l3.53-.21V235c0-1.56-1-2.42-2.87-2.42a2.61,2.61,0,0,0-2.78,1.93h-2c.07-2.16,2.15-3.79,4.85-3.79,3,0,5,1.59,5,4.1v8.71h-2v-2.18h-.05a4.58,4.58,0,0,1-4.07,2.37C468.23,243.7,466.52,242.15,466.52,239.9Zm8.3-1.21v-1l-3.28.21c-1.88.11-2.86.8-2.86,2s1,2,2.6,2A3.3,3.3,0,0,0,474.82,238.69Z"/><path class="cls-1" d="M482.45,227.75v3.07h2.47v1.74h-2.47v7.54c0,1.15.49,1.68,1.58,1.68.24,0,.73,0,.88-.06v1.78a7.76,7.76,0,0,1-1.35.1c-2.33,0-3.23-.95-3.23-3.4v-7.64h-1.89v-1.74h1.89v-3.07Z"/><path class="cls-1" d="M497.32,239.88c-.35,2.19-2.56,3.76-5.28,3.76-3.59,0-5.85-2.48-5.85-6.43s2.27-6.51,5.75-6.51,5.54,2.39,5.54,6.23v.81h-9.11v.12a3.6,3.6,0,0,0,3.71,3.93,3.06,3.06,0,0,0,3.15-1.91Zm-8.93-3.8h6.89a3.32,3.32,0,0,0-3.38-3.54A3.49,3.49,0,0,0,488.39,236.08Z"/><path class="cls-1" d="M504.13,230.71c2.61,0,4.58,1.54,4.65,3.65h-2c-.13-1.19-1.15-1.92-2.7-1.92s-2.58.73-2.58,1.82c0,.85.67,1.42,2.12,1.78l2,.48c2.56.65,3.49,1.55,3.49,3.39,0,2.19-2.1,3.73-5.05,3.73-2.77,0-4.75-1.49-4.95-3.72h2.13c.21,1.3,1.24,2,2.95,2s2.79-.71,2.79-1.83c0-.88-.53-1.34-2-1.72l-2.23-.57c-2.24-.58-3.33-1.7-3.33-3.41C499.4,232.22,501.35,230.71,504.13,230.71Z"/><path class="cls-1" d="M519.18,227.75v3.07h2.47v1.74h-2.47v7.54c0,1.15.49,1.68,1.58,1.68.24,0,.73,0,.88-.06v1.78a7.76,7.76,0,0,1-1.35.1c-2.33,0-3.23-.95-3.23-3.4v-7.64h-1.89v-1.74h1.89v-3.07Z"/><path class="cls-1" d="M524,225.9h2.12v7h.05a4.17,4.17,0,0,1,4-2.19c2.78,0,4.47,1.88,4.47,4.71v8.1h-2.13V235.8c0-2-1-3.22-3-3.22a3.3,3.3,0,0,0-3.42,3.63v7.3H524Z"/><path class="cls-1" d="M547.89,239.88c-.35,2.19-2.56,3.76-5.28,3.76-3.59,0-5.85-2.48-5.85-6.43s2.27-6.51,5.75-6.51,5.54,2.39,5.54,6.23v.81H539v.12a3.59,3.59,0,0,0,3.71,3.93,3.08,3.08,0,0,0,3.15-1.91Zm-8.93-3.8h6.9a3.33,3.33,0,0,0-3.39-3.54A3.49,3.49,0,0,0,539,236.08Z"/><path class="cls-1" d="M555.42,225.9h2.13v17.61h-2.13Z"/><path class="cls-1" d="M559.79,237.17c0-4,2.3-6.47,5.89-6.47s5.87,2.51,5.87,6.47-2.29,6.47-5.87,6.47S559.79,241.11,559.79,237.17Zm9.6,0c0-2.9-1.38-4.61-3.71-4.61s-3.73,1.72-3.73,4.61,1.4,4.6,3.73,4.6S569.39,240.06,569.39,237.17Z"/><path class="cls-1" d="M582.16,235a3,3,0,0,0-3.26-2.42c-2.19,0-3.68,1.82-3.68,4.61s1.52,4.6,3.7,4.6a3,3,0,0,0,3.25-2.35h2.09c-.34,2.49-2.43,4.22-5.35,4.22-3.5,0-5.85-2.48-5.85-6.47s2.33-6.47,5.83-6.47c3.16,0,5.09,2,5.34,4.28Z"/><path class="cls-1" d="M585.64,239.9c0-2.19,1.67-3.48,4.77-3.66l3.53-.21V235c0-1.56-1-2.42-2.87-2.42a2.6,2.6,0,0,0-2.78,1.93h-2c.06-2.16,2.15-3.79,4.85-3.79,3,0,4.95,1.59,4.95,4.1v8.71h-2v-2.18h0a4.59,4.59,0,0,1-4.08,2.37C587.35,243.7,585.64,242.15,585.64,239.9Zm8.3-1.21v-1l-3.29.21c-1.88.11-2.85.8-2.85,2s1,2,2.6,2A3.3,3.3,0,0,0,593.94,238.69Z"/><path class="cls-1" d="M598.73,237.56v-2h8v2Z"/><path class="cls-1" d="M104.83,257.75v3.07h2.46v1.74h-2.46v7.54c0,1.15.49,1.68,1.57,1.68.25,0,.74,0,.88-.06v1.78a7.55,7.55,0,0,1-1.34.1c-2.33,0-3.24-1-3.24-3.4v-7.64h-1.89v-1.74h1.89v-3.07Z"/><path class="cls-1" d="M109.41,257.36a1.33,1.33,0,0,1,2.65,0,1.33,1.33,0,0,1-2.65,0Zm.25,3.46h2.13v12.69h-2.13Z"/><path class="cls-1" d="M114,267.17c0-4,2.3-6.47,5.89-6.47s5.87,2.51,5.87,6.47-2.3,6.47-5.87,6.47S114,271.11,114,267.17Zm9.6,0c0-2.9-1.38-4.61-3.71-4.61s-3.73,1.72-3.73,4.61,1.4,4.6,3.73,4.6S123.63,270.06,123.63,267.17Z"/><path class="cls-1" d="M127.92,260.82h2v2.07h0a4.17,4.17,0,0,1,4-2.19c2.79,0,4.4,1.79,4.4,4.67v8.14h-2.13v-7.76c0-2.05-1-3.17-2.93-3.17s-3.29,1.42-3.29,3.57v7.36h-2.13Z"/><path class="cls-1" d="M145.6,267.17c0-4,2.3-6.47,5.88-6.47s5.88,2.51,5.88,6.47-2.3,6.47-5.88,6.47S145.6,271.11,145.6,267.17Zm9.6,0c0-2.9-1.38-4.61-3.72-4.61s-3.72,1.72-3.72,4.61,1.39,4.6,3.72,4.6S155.2,270.06,155.2,267.17Z"/><path class="cls-1" d="M160.18,262.56h-1.77v-1.74h1.77v-1.17c0-2.36,1-3.4,3.41-3.4a7.72,7.72,0,0,1,1.18.1v1.73a5.86,5.86,0,0,0-1-.08c-1.05,0-1.5.49-1.51,1.66v1.16h2.48v1.74H162.3v10.95h-2.12Z"/><path class="cls-1" d="M172.22,278.19v-1.78a5.59,5.59,0,0,0,.83.06c1.19,0,1.85-.58,2.34-2.05l.29-.9L171,260.82h2.27l3.52,10.57h0l3.52-10.57h2.23l-5,13.58c-1.09,3-2.13,3.86-4.43,3.86A5.53,5.53,0,0,1,172.22,278.19Z"/><path class="cls-1" d="M183.25,267.17c0-4,2.29-6.47,5.88-6.47s5.87,2.51,5.87,6.47-2.29,6.47-5.87,6.47S183.25,271.11,183.25,267.17Zm9.59,0c0-2.9-1.38-4.61-3.71-4.61s-3.72,1.72-3.72,4.61,1.39,4.6,3.72,4.6S192.84,270.06,192.84,267.17Z"/><path class="cls-1" d="M207.56,273.51h-2V271.4h-.05a4.14,4.14,0,0,1-4,2.24c-2.77,0-4.39-1.8-4.39-4.68v-8.14h2.12v7.76c0,2.06,1,3.18,2.93,3.18s3.31-1.42,3.31-3.58v-7.36h2.12Z"/><path class="cls-1" d="M210.31,260.82h2v2.07h.05a3.07,3.07,0,0,1,3.08-2.19,4.34,4.34,0,0,1,.85.07v2.07a4.31,4.31,0,0,0-1.13-.12,2.69,2.69,0,0,0-2.72,3v7.81h-2.13Z"/><path class="cls-1" d="M223.14,260.82h2v2.07h.05a3.79,3.79,0,0,1,3.6-2.19,3.55,3.55,0,0,1,3.57,2.41h0a4.24,4.24,0,0,1,4-2.41,3.89,3.89,0,0,1,4.14,4.15v8.66H238.4v-8.18a2.46,2.46,0,0,0-2.64-2.75,2.8,2.8,0,0,0-2.86,3v8h-2.13V265.1a2.4,2.4,0,0,0-2.6-2.52,2.9,2.9,0,0,0-2.9,3.07v7.86h-2.13Z"/><path class="cls-1" d="M243.08,257.36a1.32,1.32,0,1,1,1.31,1.32A1.32,1.32,0,0,1,243.08,257.36Zm.25,3.46h2.13v12.69h-2.13Z"/><path class="cls-1" d="M252.84,260.71c2.61,0,4.58,1.54,4.65,3.65h-2c-.13-1.19-1.15-1.92-2.7-1.92s-2.58.73-2.58,1.82c0,.85.67,1.42,2.11,1.78l2,.48c2.56.65,3.49,1.55,3.49,3.39,0,2.19-2.1,3.73-5,3.73-2.77,0-4.75-1.49-5-3.72h2.13c.2,1.3,1.24,2,3,2s2.78-.71,2.78-1.83c0-.88-.52-1.34-2-1.72l-2.23-.57c-2.24-.58-3.33-1.7-3.33-3.41C248.11,262.22,250.06,260.71,252.84,260.71Z"/><path class="cls-1" d="M264.47,260.71c2.62,0,4.58,1.54,4.66,3.65h-2c-.12-1.19-1.15-1.92-2.7-1.92s-2.57.73-2.57,1.82c0,.85.67,1.42,2.11,1.78l2,.48c2.57.65,3.49,1.55,3.49,3.39,0,2.19-2.1,3.73-5.05,3.73-2.77,0-4.75-1.49-4.94-3.72h2.12c.21,1.3,1.25,2,3,2s2.79-.71,2.79-1.83c0-.88-.53-1.34-2-1.72l-2.23-.57c-2.23-.58-3.33-1.7-3.33-3.41C259.74,262.22,261.69,260.71,264.47,260.71Z"/><path class="cls-1" d="M271.45,257.36a1.32,1.32,0,1,1,1.31,1.32A1.32,1.32,0,0,1,271.45,257.36Zm.25,3.46h2.13v12.69H271.7Z"/><path class="cls-1" d="M276.69,260.82h2v2.07h0a4.17,4.17,0,0,1,4-2.19c2.79,0,4.4,1.79,4.4,4.67v8.14H285v-7.76c0-2.05-1-3.17-2.93-3.17s-3.29,1.42-3.29,3.57v7.36h-2.13Z"/><path class="cls-1" d="M289.74,274.56h2.19a3.27,3.27,0,0,0,3.26,1.93c2.19,0,3.52-1.27,3.52-3.16v-2h0a4.53,4.53,0,0,1-4.07,2.18c-3.21,0-5.36-2.55-5.36-6.39s2.15-6.42,5.41-6.42a4.67,4.67,0,0,1,4.13,2.18h0v-2.06h2v12.44c0,3-2.23,5-5.74,5C292.31,278.3,290.1,276.72,289.74,274.56Zm9-7.44c0-2.7-1.47-4.54-3.68-4.54s-3.62,1.79-3.62,4.54,1.43,4.51,3.62,4.51S298.71,269.81,298.71,267.12Z"/><path class="cls-1" d="M308.58,257.36a1.33,1.33,0,1,1,1.32,1.32A1.33,1.33,0,0,1,308.58,257.36Zm.25,3.46H311v12.69h-2.13Z"/><path class="cls-1" d="M316.63,257.75v3.07h2.47v1.74h-2.47v7.54c0,1.15.49,1.68,1.58,1.68.24,0,.73,0,.88-.06v1.78a7.67,7.67,0,0,1-1.35.1c-2.33,0-3.23-1-3.23-3.4v-7.64h-1.89v-1.74h1.89v-3.07Z"/><path class="cls-1" d="M331.5,269.88c-.35,2.19-2.56,3.76-5.28,3.76-3.59,0-5.85-2.48-5.85-6.43s2.27-6.51,5.75-6.51,5.54,2.39,5.54,6.23v.81h-9.11v.12a3.6,3.6,0,0,0,3.72,3.93,3.08,3.08,0,0,0,3.15-1.91Zm-8.93-3.8h6.89a3.32,3.32,0,0,0-3.38-3.54A3.49,3.49,0,0,0,322.57,266.08Z"/><path class="cls-1" d="M333.8,260.82h2v2.07h.05a3.78,3.78,0,0,1,3.6-2.19,3.54,3.54,0,0,1,3.56,2.41h.05a4.25,4.25,0,0,1,4-2.41,3.88,3.88,0,0,1,4.14,4.15v8.66h-2.12v-8.18a2.47,2.47,0,0,0-2.64-2.75,2.8,2.8,0,0,0-2.87,3v8h-2.12V265.1a2.41,2.41,0,0,0-2.6-2.52,2.9,2.9,0,0,0-2.91,3.07v7.86H333.8Z"/><path class="cls-1" d="M354.28,272.24a1.39,1.39,0,1,1,1.39,1.4A1.38,1.38,0,0,1,354.28,272.24Z"/><line class="cls-2" x1="58.57" y1="97.82" x2="84.23" y2="72.16"/><line class="cls-2" x1="58.57" y1="72.16" x2="84.23" y2="97.82"/><text class="cls-3" transform="translate(100.64 543.91)">If <tspan class="cls-4" x="18.21" y="0">y</tspan><tspan x="29.99" y="0">ou added the device besides </tspan><tspan class="cls-4" x="333.59" y="0">y</tspan><tspan x="345.37" y="0">our phone</tspan><tspan class="cls-5" x="451.1" y="0">.</tspan><tspan x="456.23" y="0"> </tspan><tspan class="cls-6" x="461.35" y="0">Y</tspan><tspan x="474.34" y="0">ou </tspan><tspan x="0" y="30">can enable the AR came</tspan><tspan class="cls-7" x="251.56" y="30">r</tspan><tspan x="259.02" y="30">a function</tspan><tspan class="cls-5" x="362.11" y="30">.</tspan><tspan x="367.24" y="30" xml:space="preserve"> It will label the </tspan><tspan x="0" y="60">missing i</tspan><tspan class="cls-4" x="90.68" y="60">t</tspan><tspan x="97.85" y="60">em </tspan><tspan class="cls-4" x="135.86" y="60">y</tspan><tspan x="147.64" y="60">ou a</tspan><tspan class="cls-8" x="191.76" y="60">r</tspan><tspan x="198.85" y="60">e looking </tspan><tspan class="cls-8" x="297.69" y="60">f</tspan><tspan x="304.55" y="60">or </tspan><tspan class="cls-4" x="330.65" y="60">b</tspan><tspan x="344.14" y="60">y a clear </tspan><tspan class="cls-9" x="434.9" y="60">t</tspan><tspan x="442.31" y="60">ag in </tspan><tspan class="cls-4" x="0" y="90">y</tspan><tspan x="11.78" y="90">our came</tspan><tspan class="cls-7" x="109.01" y="90">r</tspan><tspan x="116.47" y="90">a </tspan><tspan class="cls-4" x="134.15" y="90">t</tspan><tspan x="141.31" y="90">o ma</tspan><tspan class="cls-8" x="192.34" y="90">k</tspan><tspan x="203.86" y="90">e </tspan><tspan class="cls-4" x="221.79" y="90">y</tspan><tspan x="233.57" y="90">ou pinpoint </tspan><tspan class="cls-4" x="355.08" y="90">y</tspan><tspan x="366.86" y="90">our missing </tspan><tspan x="0" y="120">i</tspan><tspan class="cls-4" x="5.1" y="120">t</tspan><tspan x="12.27" y="120">em quickl</tspan><tspan class="cls-10" x="112.05" y="120">y</tspan><tspan class="cls-5" x="122.36" y="120">.</tspan></text><line class="cls-2" x1="58.57" y1="550.47" x2="84.23" y2="524.81"/><line class="cls-2" x1="58.57" y1="524.81" x2="84.23" y2="550.47"/><line class="cls-11" x1="36.64" y1="395.17" x2="46.64" y2="395.14"/><line class="cls-12" x1="66.94" y1="395.08" x2="625.14" y2="393.41"/><line class="cls-11" x1="635.29" y1="393.38" x2="645.29" y2="393.35"/><path class="cls-1" d="M203.06,447l-10.91.18-.3-17.61,10.91-.19,0,2-8.71.15.09,5.65,8.27-.14,0,1.95-8.26.14.1,6.06L203,445Z"/><path class="cls-1" d="M205.4,434.28l2,0,0,2.07h.05a4.17,4.17,0,0,1,4-2.27c2.78,0,4.43,1.72,4.47,4.6l.14,8.15-2.12,0-.13-7.76c0-2.05-1-3.16-3-3.12s-3.27,1.48-3.23,3.63l.12,7.36-2.12,0Z"/><path class="cls-1" d="M218.16,443.15c0-2.19,1.61-3.51,4.7-3.75l3.53-.26,0-1.05c0-1.57-1.07-2.4-2.91-2.37a2.61,2.61,0,0,0-2.75,2l-2,0c0-2.16,2.08-3.83,4.78-3.88,3-.05,5,1.51,5,4l.15,8.71-2,0,0-2.19h-.05a4.58,4.58,0,0,1-4,2.44C219.93,446.91,218.19,445.39,218.16,443.15Zm8.27-1.35v-1l-3.28.27c-1.88.14-2.84.85-2.82,2.06s1,2,2.63,1.93A3.29,3.29,0,0,0,226.43,441.8Z"/><path class="cls-1" d="M233.49,444.35h-.05l0,2.15-2,0-.3-17.61,2.12,0,.12,7h.05a4.48,4.48,0,0,1,4-2.26c3.19-.05,5.4,2.5,5.46,6.38s-2.05,6.51-5.28,6.56A4.47,4.47,0,0,1,233.49,444.35Zm0-4.2c.05,2.74,1.57,4.57,3.75,4.53s3.61-1.86,3.56-4.65-1.52-4.57-3.71-4.53S233.4,437.43,233.45,440.15Z"/><path class="cls-1" d="M245,428.69l2.12,0,.3,17.61-2.12,0Z"/><path class="cls-1" d="M260.74,442.4c-.32,2.2-2.5,3.8-5.22,3.85-3.59.06-5.89-2.38-6-6.32s2.16-6.56,5.64-6.62,5.58,2.3,5.65,6.14v.81l-9.1.15v.13a3.59,3.59,0,0,0,3.78,3.86,3,3,0,0,0,3.11-2Zm-9-3.65,6.9-.11a3.34,3.34,0,0,0-3.44-3.49A3.51,3.51,0,0,0,251.74,438.75Z"/><path class="cls-1" d="M278.14,440.7l-7,.12-1.68,5.07-2.31,0,6.19-17.73,2.18,0,6.79,17.5-2.31,0Zm-6.39-1.76,5.72-.1-3-8h-.07Z"/><path class="cls-1" d="M286.52,445.6l-2.2,0L284,428l6.6-.11c3.4-.06,5.65,2,5.71,5.15a5,5,0,0,1-3.45,5.12l4.2,7.24-2.58,0-3.89-6.9-4.21.07Zm-.15-8.91,4.21-.07c2.26,0,3.52-1.29,3.48-3.45s-1.42-3.34-3.7-3.3l-4.11.07Z"/><path class="cls-1" d="M312.42,436.62a3,3,0,0,0-3.3-2.36c-2.19,0-3.64,1.88-3.6,4.67s1.6,4.57,3.78,4.53a3,3,0,0,0,3.21-2.4l2.09,0c-.3,2.49-2.36,4.25-5.28,4.3-3.5.06-5.89-2.38-6-6.37s2.22-6.51,5.72-6.57c3.16-.05,5.12,1.94,5.41,4.2Z"/><path class="cls-1" d="M316,441.48c0-2.18,1.61-3.5,4.71-3.74l3.53-.27,0-1.05c0-1.56-1.07-2.4-2.91-2.37a2.61,2.61,0,0,0-2.75,2l-2,0c0-2.16,2.09-3.83,4.78-3.87,3-.06,5,1.51,5,4l.15,8.72-2,0,0-2.18h-.05a4.6,4.6,0,0,1-4,2.44C317.76,445.25,316,443.73,316,441.48Zm8.28-1.35,0-1-3.28.26c-1.87.14-2.84.86-2.82,2.07s1.05,2,2.64,1.93A3.3,3.3,0,0,0,324.26,440.13Z"/><path class="cls-1" d="M329,432.18l2,0,0,2.08h0A3.79,3.79,0,0,1,334.6,432a3.55,3.55,0,0,1,3.6,2.36h.05a4.25,4.25,0,0,1,3.94-2.49,3.9,3.9,0,0,1,4.21,4.08l.14,8.67-2.12,0-.14-8.18a2.46,2.46,0,0,0-2.68-2.71,2.81,2.81,0,0,0-2.82,3l.14,8-2.13,0-.14-8.41a2.41,2.41,0,0,0-2.64-2.48,2.92,2.92,0,0,0-2.86,3.13l.14,7.86-2.13,0Z"/><path class="cls-1" d="M359.69,440.71c-.32,2.21-2.5,3.81-5.22,3.85-3.59.06-5.89-2.37-6-6.32s2.16-6.55,5.64-6.61,5.58,2.3,5.65,6.14v.81l-9.1.15v.12a3.6,3.6,0,0,0,3.78,3.87,3.06,3.06,0,0,0,3.11-2Zm-9-3.64,6.9-.12a3.33,3.33,0,0,0-3.44-3.48A3.5,3.5,0,0,0,350.69,437.07Z"/><path class="cls-1" d="M361.83,431.62l2,0,0,2.08h0a3.06,3.06,0,0,1,3-2.25,3.84,3.84,0,0,1,.86.06l0,2.07a4.12,4.12,0,0,0-1.13-.1,2.69,2.69,0,0,0-2.67,3l.13,7.82-2.13,0Z"/><path class="cls-1" d="M368.87,440.58c0-2.18,1.61-3.5,4.71-3.74l3.52-.27,0-1.05c0-1.56-1.06-2.4-2.91-2.37a2.62,2.62,0,0,0-2.75,2l-2,0c0-2.16,2.08-3.83,4.78-3.87,3-.05,5,1.51,5,4l.15,8.72-2,0,0-2.18h-.05a4.57,4.57,0,0,1-4,2.44C370.64,444.35,368.91,442.83,368.87,440.58Zm8.28-1.35,0-1-3.28.26c-1.88.14-2.84.86-2.82,2.07s1,2,2.63,1.93A3.3,3.3,0,0,0,377.15,439.23Z"/><path class="cls-1" d="M389.72,428.08l0,3.06,2.46,0,0,1.75-2.46,0,.13,7.53c0,1.16.51,1.68,1.6,1.66.24,0,.73-.05.88-.08l0,1.78a6.53,6.53,0,0,1-1.34.12c-2.34,0-3.26-.89-3.3-3.34l-.13-7.63-1.89,0,0-1.75,1.89,0-.05-3.06Z"/><path class="cls-1" d="M393.61,437.43c-.07-4,2.18-6.51,5.77-6.57s5.92,2.41,6,6.37-2.18,6.5-5.76,6.57S393.68,441.37,393.61,437.43Zm9.59-.17c-.05-2.89-1.45-4.57-3.79-4.53s-3.69,1.78-3.64,4.66,1.47,4.58,3.8,4.54S403.25,440.16,403.2,437.26Z"/><path class="cls-1" d="M417,430.57c2.61,0,4.61,1.46,4.71,3.57l-2,0c-.14-1.18-1.18-1.89-2.73-1.87s-2.56.78-2.55,1.87c0,.85.7,1.4,2.15,1.74l2,.45c2.57.6,3.52,1.49,3.55,3.33,0,2.18-2,3.76-5,3.81-2.77,0-4.78-1.41-5-3.63l2.13,0c.22,1.3,1.27,2,3,1.93S420,441,420,439.88c0-.88-.54-1.33-2-1.68l-2.24-.54c-2.24-.53-3.36-1.64-3.39-3.35C412.32,432.16,414.25,430.62,417,430.57Z"/><path class="cls-1" d="M434.81,439.44c-.31,2.2-2.5,3.8-5.22,3.85-3.59.06-5.89-2.38-5.95-6.33s2.15-6.55,5.63-6.61,5.58,2.3,5.65,6.14v.81l-9.1.15v.12a3.6,3.6,0,0,0,3.78,3.87,3,3,0,0,0,3.11-2Zm-9-3.65,6.9-.11a3.33,3.33,0,0,0-3.44-3.49A3.51,3.51,0,0,0,425.81,435.79Z"/><path class="cls-1" d="M436.53,439.43c0-2.18,1.62-3.51,4.71-3.74l3.53-.27,0-1.05c0-1.56-1.07-2.4-2.91-2.37a2.61,2.61,0,0,0-2.75,2l-2,0c0-2.16,2.09-3.83,4.78-3.87,3-.06,5,1.51,5,4l.15,8.72-2,0,0-2.18h-.05a4.59,4.59,0,0,1-4,2.43C438.31,443.2,436.57,441.68,436.53,439.43Zm8.28-1.35,0-1-3.27.26c-1.88.14-2.85.86-2.83,2.06s1.05,2,2.64,1.94A3.3,3.3,0,0,0,444.81,438.08Z"/><path class="cls-1" d="M449.5,430.13l2,0,0,2.08h0a3,3,0,0,1,3-2.25,3.84,3.84,0,0,1,.86.06l0,2.07a4.12,4.12,0,0,0-1.13-.1,2.68,2.68,0,0,0-2.67,3l.13,7.81-2.12,0Z"/><path class="cls-1" d="M465.13,434a3,3,0,0,0-3.3-2.36c-2.18,0-3.64,1.88-3.59,4.67s1.59,4.57,3.77,4.53a3,3,0,0,0,3.21-2.39l2.09,0c-.3,2.5-2.36,4.25-5.28,4.3-3.5.06-5.89-2.37-5.95-6.37s2.22-6.5,5.71-6.56c3.16-.06,5.12,1.94,5.42,4.19Z"/><path class="cls-1" d="M469.14,424.87l2.12,0,.12,7h.05a4.18,4.18,0,0,1,4-2.27c2.78,0,4.5,1.81,4.55,4.64l.14,8.1-2.13,0-.13-7.71c0-2-1.07-3.21-3.06-3.18a3.3,3.3,0,0,0-3.35,3.7l.12,7.3-2.12,0Z"/><path class="cls-1" d="M192.82,466.24l-1.77,0,0-1.74,1.78,0,0-1.17c0-2.36,1-3.41,3.35-3.45a7.71,7.71,0,0,1,1.18.07l0,1.74a5,5,0,0,0-1-.07c-1.05,0-1.49.51-1.48,1.68l0,1.16,2.47,0,0,1.75-2.46,0,.18,11-2.12,0Z"/><path class="cls-1" d="M198.46,470.75c-.07-3.95,2.18-6.51,5.77-6.57s5.91,2.42,6,6.37-2.19,6.51-5.76,6.57S198.52,474.69,198.46,470.75Zm9.59-.16c-.05-2.89-1.46-4.58-3.79-4.54s-3.69,1.78-3.64,4.66,1.47,4.58,3.8,4.54S208.1,473.48,208.05,470.59Z"/><path class="cls-1" d="M212.24,464.17l2,0,0,2.08h0a3.06,3.06,0,0,1,3-2.25,3.89,3.89,0,0,1,.86.06l0,2.07a4.15,4.15,0,0,0-1.14-.1,2.69,2.69,0,0,0-2.67,3l.14,7.82-2.13,0Z"/><path class="cls-1" d="M225.5,481.32l0-1.79a3.84,3.84,0,0,0,.84.05c1.18,0,1.83-.6,2.29-2.09l.28-.9L224,464l2.27,0,3.69,10.51h0l3.33-10.63,2.24,0-4.76,13.67c-1,3-2.07,3.89-4.37,3.93A5.43,5.43,0,0,1,225.5,481.32Z"/><path class="cls-1" d="M236.33,470.11c-.07-4,2.18-6.51,5.77-6.57s5.92,2.41,6,6.37-2.18,6.5-5.76,6.57S236.4,474.05,236.33,470.11Zm9.59-.17c0-2.89-1.45-4.57-3.79-4.53s-3.69,1.78-3.64,4.66,1.47,4.58,3.8,4.54S246,472.84,245.92,469.94Z"/><path class="cls-1" d="M260.75,476l-2,0,0-2.11h-.05a4.15,4.15,0,0,1-4,2.31c-2.77,0-4.42-1.72-4.47-4.6l-.14-8.15,2.12,0,.14,7.76c0,2.06,1,3.16,3,3.12s3.28-1.47,3.25-3.63l-.13-7.36,2.13,0Z"/><path class="cls-1" d="M263.28,463.3l2,0,0,2.07h.05a3.07,3.07,0,0,1,3-2.25,4.5,4.5,0,0,1,.85.06l0,2.07a4.72,4.72,0,0,0-1.14-.1,2.69,2.69,0,0,0-2.67,3l.13,7.81-2.12,0Z"/><path class="cls-1" d="M276.11,463.08l2,0,0,2.07h0a3.79,3.79,0,0,1,3.57-2.26,3.55,3.55,0,0,1,3.6,2.36h.05a4.25,4.25,0,0,1,3.94-2.49,3.89,3.89,0,0,1,4.21,4.08l.15,8.67-2.13,0-.14-8.18a2.47,2.47,0,0,0-2.68-2.72,2.82,2.82,0,0,0-2.82,3l.14,8-2.13,0-.14-8.41a2.42,2.42,0,0,0-2.64-2.49,2.91,2.91,0,0,0-2.85,3.13l.13,7.86-2.12,0Z"/><path class="cls-1" d="M296,459.29a1.33,1.33,0,1,1,1.34,1.29A1.33,1.33,0,0,1,296,459.29Zm.32,3.45,2.12,0,.22,12.7-2.13,0Z"/><path class="cls-1" d="M305.8,462.47c2.62-.05,4.61,1.46,4.72,3.57l-2,0c-.14-1.18-1.18-1.9-2.73-1.87s-2.56.78-2.55,1.86c0,.86.7,1.41,2.15,1.75l2,.44c2.57.61,3.52,1.49,3.55,3.33,0,2.19-2,3.76-5,3.81-2.77.05-4.78-1.4-5-3.62l2.13,0c.23,1.29,1.27,2,3,1.93s2.77-.76,2.75-1.88c0-.88-.54-1.33-2-1.69l-2.24-.53c-2.24-.54-3.36-1.64-3.39-3.35C301.09,464.06,303,462.51,305.8,462.47Z"/><path class="cls-1" d="M317.44,462.27c2.61,0,4.6,1.46,4.71,3.57l-2,0c-.14-1.18-1.18-1.89-2.73-1.87s-2.56.78-2.54,1.87c0,.85.69,1.4,2.14,1.74l2,.44c2.58.61,3.52,1.49,3.55,3.34,0,2.18-2,3.76-5,3.81-2.77,0-4.77-1.41-5-3.63l2.13,0c.23,1.29,1.28,2,3,1.93s2.77-.75,2.75-1.88c0-.88-.55-1.33-2-1.69l-2.25-.53c-2.24-.54-3.36-1.64-3.39-3.35C312.73,463.86,314.65,462.32,317.44,462.27Z"/><path class="cls-1" d="M324.35,458.81a1.32,1.32,0,0,1,1.29-1.35,1.32,1.32,0,1,1,.05,2.64A1.32,1.32,0,0,1,324.35,458.81Zm.31,3.45,2.13,0,.21,12.69-2.12,0Z"/><path class="cls-1" d="M329.65,462.17l2,0,0,2.07h.05a4.18,4.18,0,0,1,4-2.27c2.78,0,4.42,1.72,4.47,4.6l.14,8.15-2.12,0-.13-7.76c0-2-1-3.16-3-3.12s-3.27,1.48-3.23,3.63l.12,7.36-2.12,0Z"/><path class="cls-1" d="M342.93,475.69l2.19,0a3.27,3.27,0,0,0,3.29,1.88c2.2,0,3.51-1.33,3.47-3.22l0-2h-.05a4.5,4.5,0,0,1-4,2.26c-3.21.05-5.4-2.46-5.46-6.31s2-6.45,5.29-6.51a4.66,4.66,0,0,1,4.17,2.12h0l0-2.07,2,0L354,474.2c.05,3-2.15,5.08-5.65,5.14C345.56,479.38,343.33,477.85,342.93,475.69Zm8.85-7.6c0-2.69-1.56-4.51-3.76-4.47s-3.59,1.85-3.54,4.6,1.5,4.49,3.69,4.45S351.82,470.79,351.78,468.09Z"/><path class="cls-1" d="M361.47,458.17a1.33,1.33,0,1,1,1.34,1.3A1.33,1.33,0,0,1,361.47,458.17Zm.32,3.45,2.12,0,.22,12.69-2.12,0Z"/><path class="cls-1" d="M369.54,458.43l0,3.06,2.46,0,0,1.74-2.46.05.13,7.53c0,1.16.51,1.67,1.6,1.65a7,7,0,0,0,.88-.07l0,1.78a7.32,7.32,0,0,1-1.34.12c-2.34,0-3.25-.9-3.3-3.34l-.13-7.64-1.89,0,0-1.75,1.9,0-.06-3.07Z"/><path class="cls-1" d="M384.61,470.29c-.32,2.21-2.5,3.81-5.22,3.85-3.59.06-5.89-2.37-6-6.32s2.16-6.55,5.64-6.61,5.58,2.3,5.65,6.14v.81l-9.1.15v.12a3.6,3.6,0,0,0,3.78,3.87,3.06,3.06,0,0,0,3.11-2Zm-9-3.64,6.9-.12a3.34,3.34,0,0,0-3.45-3.48A3.5,3.5,0,0,0,375.61,466.65Z"/><path class="cls-1" d="M386.75,461.2l2,0,0,2.08h0A3.77,3.77,0,0,1,392.4,461a3.55,3.55,0,0,1,3.6,2.36h.05a4.25,4.25,0,0,1,3.94-2.49,3.89,3.89,0,0,1,4.21,4.08l.15,8.67-2.13,0-.14-8.17a2.47,2.47,0,0,0-2.68-2.72,2.82,2.82,0,0,0-2.82,3l.14,8-2.13,0-.14-8.41a2.41,2.41,0,0,0-2.64-2.48A2.92,2.92,0,0,0,389,466l.14,7.86-2.12,0Z"/><path class="cls-1" d="M407.58,472.27a1.37,1.37,0,0,1,1.37-1.41,1.39,1.39,0,0,1,.05,2.78A1.38,1.38,0,0,1,407.58,472.27Zm2.21-16.38.06,11.76-1.91,0-.34-11.77Z"/><path class="cls-1" d="M217,348.94a6.8,6.8,0,0,1,.32,13.59l-4.88.13.2,7.54-2.64.07-.54-21.14Zm-4.62,11.37,4.22-.11c3-.07,4.7-1.77,4.63-4.58s-1.83-4.4-4.86-4.32l-4.22.11Z"/><path class="cls-1" d="M226.5,354.6l2.4-.06L229,357H229a3.69,3.69,0,0,1,3.62-2.73,5.36,5.36,0,0,1,1,.07l.07,2.48a5.86,5.86,0,0,0-1.37-.11c-2,0-3.23,1.51-3.17,3.66l.24,9.37-2.55.07Z"/><path class="cls-1" d="M247.89,364.92c-.35,2.65-2.95,4.59-6.22,4.67-4.31.11-7.09-2.79-7.21-7.52s2.52-7.89,6.69-8,6.72,2.7,6.84,7.31l0,1-10.93.28v.15c.07,2.86,1.89,4.67,4.57,4.6,1.88-.05,3.33-1,3.72-2.4Zm-10.83-4.28,8.27-.21c-.12-2.55-1.79-4.21-4.16-4.14A4.19,4.19,0,0,0,237.06,360.64Z"/><path class="cls-1" d="M255.78,353.71c3.13-.08,5.54,1.7,5.69,4.23L259,358c-.18-1.42-1.43-2.27-3.29-2.22s-3.07,1-3,2.26c0,1,.85,1.68,2.59,2.08l2.37.51c3.1.69,4.24,1.75,4.3,4,.07,2.62-2.41,4.53-6,4.62-3.32.09-5.74-1.64-6-4.3l2.54-.06c.29,1.54,1.56,2.33,3.61,2.28s3.31-.94,3.28-2.28c0-1.06-.67-1.6-2.4-2l-2.69-.62c-2.7-.62-4-1.93-4.11-4C250.15,355.67,252.44,353.8,255.78,353.71Z"/><path class="cls-1" d="M269.74,353.35c3.13-.08,5.54,1.7,5.69,4.23l-2.43.07c-.19-1.42-1.44-2.27-3.3-2.22s-3.06,1-3,2.26c0,1,.85,1.68,2.59,2.08l2.37.51c3.1.69,4.24,1.75,4.29,4,.07,2.62-2.4,4.53-5.94,4.62-3.33.09-5.75-1.64-6.05-4.3l2.55-.06c.29,1.54,1.55,2.33,3.6,2.28s3.32-.94,3.29-2.28c0-1.06-.68-1.6-2.4-2l-2.7-.62c-2.7-.62-4-1.93-4.1-4C264.1,355.31,266.4,353.44,269.74,353.35Z"/><circle class="cls-13" cx="328.03" cy="355.08" r="27.61"/><path class="cls-13" d="M327.86,366.69l-15-.2c-.9,0-1-.07-.94-1l.21-15.92c0-.84.09-.92.94-.91,1.44,0,2.88,0,4.32.07a1,1,0,0,0,1-.57c.74-1.4,1.55-2.77,2.3-4.16a1.05,1.05,0,0,1,1.06-.65q6.76.12,13.53.2c.36,0,.77,0,.76.47s-.45.45-.79.44c-4.24-.05-8.47-.1-12.7-.18a1.33,1.33,0,0,0-1.42.8c-.69,1.35-1.49,2.65-2.21,4a1,1,0,0,1-1,.59c-1.37,0-2.75,0-4.12-.07-.58,0-.74.19-.75.74q-.08,7.22-.2,14.44c0,.65.25.78.83.79q13.41.15,26.81.35c.63,0,1.25,0,1.87,0s.64-.18.65-.64q.07-7.35.19-14.7c0-.43-.15-.61-.59-.62-4.71-.05-9.41-.17-14.12-.16a5.76,5.76,0,0,0-5.81,5.74,5.83,5.83,0,0,0,5.1,5.79,5.67,5.67,0,0,0,6.2-4,18,18,0,0,0,.25-2.86c0-.25.14-.67.29-.71.41-.12.5.24.57.59a6.71,6.71,0,0,1-13.06,3,6.74,6.74,0,0,1,6.45-8.52c4.92,0,9.84.12,14.76.19.81,0,.9.11.89.9q-.1,8-.22,16c0,.84-.09.93-.93.92Z"/></g></svg>