<svg xmlns="http://www.w3.org/2000/svg" viewBox="0 0 395.61 840.35"><defs><style>.cls-1,.cls-2{fill:#231916;}.cls-2{font-size:25px;font-family:SFUIDisplay-Regular, SF UI Display;}.cls-3{letter-spacing:-0.01em;}.cls-4{letter-spacing:-0.01em;}.cls-5{letter-spacing:-0.05em;}.cls-6{letter-spacing:-0.02em;}</style></defs><title>Demo</title><g id="Connect"><rect class="cls-1" x="-3.61" y="308.33" width="35.1" height="5.37" transform="translate(243.72 521.09) rotate(135)"/><rect class="cls-1" x="-3.99" y="307.95" width="35.1" height="5.37" transform="translate(223.63 81.4) rotate(45)"/><text class="cls-2" transform="translate(41.98 325.73)">Once <tspan class="cls-3" x="61.92" y="0">y</tspan><tspan x="73.7" y="0">ou’</tspan><tspan class="cls-3" x="106.7" y="0">v</tspan><tspan x="118.41" y="0">e t</tspan><tspan class="cls-4" x="143.87" y="0">r</tspan><tspan x="151.33" y="0">aced multi location </tspan><tspan x="0" y="30">in </tspan><tspan class="cls-3" x="23.4" y="30">y</tspan><tspan x="35.18" y="30">our home</tspan><tspan class="cls-5" x="134.08" y="30">.</tspan><tspan x="139.21" y="30" xml:space="preserve"> The app can d</tspan><tspan class="cls-4" x="292.63" y="30">r</tspan><tspan x="300.09" y="30">aw </tspan><tspan x="0" y="60">the </tspan><tspan class="cls-3" x="38.94" y="60">ov</tspan><tspan x="63.55" y="60">e</tspan><tspan class="cls-4" x="76.35" y="60">r</tspan><tspan x="83.81" y="60">all la</tspan><tspan class="cls-3" x="129.35" y="60">y</tspan><tspan x="141.13" y="60">out map depends </tspan><tspan x="0" y="90">on the location </tspan><tspan class="cls-3" x="158.15" y="90">y</tspan><tspan x="169.93" y="90">ou t</tspan><tspan class="cls-4" x="209.03" y="90">r</tspan><tspan x="216.49" y="90">aced</tspan><tspan class="cls-5" x="268.21" y="90">.</tspan><tspan x="273.34" y="90" xml:space="preserve"> Just </tspan><tspan x="0" y="120">li</tspan><tspan class="cls-6" x="10.21" y="120">k</tspan><tspan x="21.73" y="120">e a floor plan</tspan><tspan class="cls-5" x="153.83" y="120">.</tspan><tspan x="158.96" y="120"> </tspan></text></g></svg>