<svg xmlns="http://www.w3.org/2000/svg" xmlns:xlink="http://www.w3.org/1999/xlink" viewBox="0 0 1366 526"><defs><style>.cls-1,.cls-13,.cls-2,.cls-22,.cls-6{fill:none;}.cls-12,.cls-13,.cls-2{stroke:#a8a8a8;}.cls-12,.cls-13,.cls-2,.cls-22{stroke-miterlimit:10;}.cls-3{opacity:0.3;}.cls-10,.cls-3{isolation:isolate;}.cls-4{clip-path:url(#clip-path);}.cls-5{fill:#2f2930;}.cls-6{stroke:#fff;stroke-linejoin:round;}.cls-22,.cls-6{stroke-linecap:round;}.cls-12,.cls-7,.cls-8{fill:#fff;}.cls-8{fill-rule:evenodd;}.cls-9{clip-path:url(#clip-path-2);}.cls-10{opacity:0.7;}.cls-11{clip-path:url(#clip-path-3);}.cls-13{stroke-width:0.5px;}.cls-14{font-size:40px;font-family:Montserrat-Bold, Montserrat;font-weight:700;}.cls-15{font-size:20px;font-family:Montserrat-Regular, Montserrat;}.cls-16{letter-spacing:0.02em;}.cls-17{letter-spacing:0em;}.cls-18{letter-spacing:-0.02em;}.cls-19{letter-spacing:-0.01em;}.cls-20{letter-spacing:0em;}.cls-21{letter-spacing:-0.01em;}.cls-22{stroke:#b3b3b3;stroke-width:3px;}.cls-23{fill:#b3b3b3;}.cls-24{letter-spacing:0.02em;}.cls-25{letter-spacing:0em;}.cls-26{letter-spacing:-0.02em;}.cls-27{letter-spacing:-0.01em;}.cls-28{letter-spacing:-0.02em;}.cls-29{letter-spacing:0em;}</style><clipPath id="clip-path"><rect class="cls-1" x="1077.6" y="162.92" width="139" height="139"/></clipPath><clipPath id="clip-path-2"><rect class="cls-1" x="933.6" y="160.92" width="142" height="137"/></clipPath><clipPath id="clip-path-3"><polygon class="cls-2" points="997.6 84.92 1091.6 84.92 1091.6 96.22 1069.05 98.13 1030.08 121.92 997.6 121.92 997.6 84.92"/></clipPath></defs><title>Why_diagram</title><g id="Modular"><g class="cls-3"><g class="cls-4"><polygon class="cls-5" points="1159.66 300.84 1215.52 253.37 1143.2 215.96 1147.92 179.46 1133.21 164.12 1103.36 166.09 1078.3 215.25 1121.46 236.39 1104.25 270.14 1159.66 300.84"/><polygon class="cls-6" points="1159.66 300.84 1215.52 253.37 1143.2 215.96 1147.92 179.46 1133.21 164.12 1103.36 166.09 1078.3 215.25 1121.46 236.39 1104.25 270.14 1159.66 300.84"/></g></g><path class="cls-5" d="M1119.36,174.73a19.43,19.43,0,0,1,3.8.38,18.71,18.71,0,0,1,3.65,1.1,19.83,19.83,0,0,1,3.37,1.8,19.53,19.53,0,0,1,7.17,8.75,19.43,19.43,0,0,1,0,14.9,19.58,19.58,0,0,1-7.17,8.75,19.83,19.83,0,0,1-3.37,1.8,19.64,19.64,0,0,1-14.91,0,19.83,19.83,0,0,1-3.37-1.8,19.54,19.54,0,0,1-3-2.43,19.47,19.47,0,0,1-4.22-6.32,19.43,19.43,0,0,1,0-14.9,19.47,19.47,0,0,1,4.22-6.32,19.54,19.54,0,0,1,3-2.43,19.83,19.83,0,0,1,3.37-1.8,18.6,18.6,0,0,1,3.66-1.1A19.36,19.36,0,0,1,1119.36,174.73Z"/><path class="cls-6" d="M1119.36,174.73a19.43,19.43,0,0,1,3.8.38,18.71,18.71,0,0,1,3.65,1.1,19.83,19.83,0,0,1,3.37,1.8,19.53,19.53,0,0,1,7.17,8.75,19.43,19.43,0,0,1,0,14.9,19.58,19.58,0,0,1-7.17,8.75,19.83,19.83,0,0,1-3.37,1.8,19.64,19.64,0,0,1-14.91,0,19.83,19.83,0,0,1-3.37-1.8,19.54,19.54,0,0,1-3-2.43,19.47,19.47,0,0,1-4.22-6.32,19.43,19.43,0,0,1,0-14.9,19.47,19.47,0,0,1,4.22-6.32,19.54,19.54,0,0,1,3-2.43,19.83,19.83,0,0,1,3.37-1.8,18.6,18.6,0,0,1,3.66-1.1A19.36,19.36,0,0,1,1119.36,174.73Z"/><path class="cls-5" d="M1168.56,266.63l-6.14-3.38a1.08,1.08,0,0,1-.5-1.44l3.5-6.35a1.08,1.08,0,0,1,1.48-.34l6.14,3.38a1.09,1.09,0,0,1,.51,1.44l-3.5,6.35A1.08,1.08,0,0,1,1168.56,266.63Z"/><path class="cls-6" d="M1168.56,266.63l-6.14-3.38a1.08,1.08,0,0,1-.5-1.44l3.5-6.35a1.08,1.08,0,0,1,1.48-.34l6.14,3.38a1.09,1.09,0,0,1,.51,1.44l-3.5,6.35A1.08,1.08,0,0,1,1168.56,266.63Z"/><path class="cls-7" d="M1168.07,264l-.38-.21.42-3,.35.19-.13.76,1.12.62.58-.51.35.19Zm0-.44,1.14-1-.92-.5Z"/><path class="cls-5" d="M1159.61,261.7l-6.14-3.39a1.07,1.07,0,0,1-.5-1.44l3.49-6.34a1.07,1.07,0,0,1,1.49-.34l6.14,3.38a1.07,1.07,0,0,1,.5,1.44l-3.49,6.35A1.09,1.09,0,0,1,1159.61,261.7Z"/><path class="cls-6" d="M1159.61,261.7l-6.14-3.39a1.07,1.07,0,0,1-.5-1.44l3.49-6.34a1.07,1.07,0,0,1,1.49-.34l6.14,3.38a1.07,1.07,0,0,1,.5,1.44l-3.49,6.35A1.09,1.09,0,0,1,1159.61,261.7Z"/><path class="cls-7" d="M1158.06,258.47l.19-.33a2.42,2.42,0,0,0,.28.34,1.91,1.91,0,0,0,.3.22.91.91,0,0,0,.48.13.41.41,0,0,0,.32-.22.39.39,0,0,0,0-.31,1.17,1.17,0,0,0-.3-.34l-.18-.15a1.21,1.21,0,0,1-.42-.56.77.77,0,0,1,.09-.58.71.71,0,0,1,.54-.41,1.28,1.28,0,0,1,.81.2,2.6,2.6,0,0,1,.36.25,3.63,3.63,0,0,1,.34.34l-.19.35a2.46,2.46,0,0,0-.3-.4,1.54,1.54,0,0,0-.36-.27.87.87,0,0,0-.5-.13.47.47,0,0,0-.38.59.84.84,0,0,0,.28.35l.18.16a1.14,1.14,0,0,1,.42.53.67.67,0,0,1-.08.54.71.71,0,0,1-.52.39,1.13,1.13,0,0,1-.74-.17,2.46,2.46,0,0,1-.34-.22C1158.27,258.68,1158.17,258.58,1158.06,258.47Z"/><path class="cls-5" d="M1150.65,256.76l-6.13-3.38a1.09,1.09,0,0,1-.51-1.44l3.5-6.35a1.09,1.09,0,0,1,1.49-.34l6.13,3.38a1.08,1.08,0,0,1,.51,1.44l-3.5,6.35A1.08,1.08,0,0,1,1150.65,256.76Z"/><path class="cls-6" d="M1150.65,256.76l-6.13-3.38a1.09,1.09,0,0,1-.51-1.44l3.5-6.35a1.09,1.09,0,0,1,1.49-.34l6.13,3.38a1.08,1.08,0,0,1,.51,1.44l-3.5,6.35A1.08,1.08,0,0,1,1150.65,256.76Z"/><path class="cls-7" d="M1150.9,254.63l-.69-.38a1.81,1.81,0,0,1-.89-.89,1.69,1.69,0,0,1,1-1.88,1.8,1.8,0,0,1,1.22.29l.69.38Zm-.18-.47,1.06-1.92-.4-.23a1.18,1.18,0,0,0-.88-.18,1.4,1.4,0,0,0-.81,1.47,1.18,1.18,0,0,0,.62.64Z"/><path class="cls-5" d="M1141.7,251.83l-6.14-3.39a1.08,1.08,0,0,1-.5-1.44l3.5-6.34a1.07,1.07,0,0,1,1.48-.35l6.14,3.39a1.08,1.08,0,0,1,.51,1.44l-3.5,6.34A1.08,1.08,0,0,1,1141.7,251.83Z"/><path class="cls-6" d="M1141.7,251.83l-6.14-3.39a1.08,1.08,0,0,1-.5-1.44l3.5-6.34a1.07,1.07,0,0,1,1.48-.35l6.14,3.39a1.08,1.08,0,0,1,.51,1.44l-3.5,6.34A1.08,1.08,0,0,1,1141.7,251.83Z"/><polygon class="cls-7" points="1141.77 249.59 1140.34 248.81 1140.5 248.52 1141.59 249.12 1141.99 248.39 1141.01 247.85 1141.16 247.57 1142.15 248.11 1142.8 246.93 1143.13 247.11 1141.77 249.59"/><path class="cls-5" d="M1132.75,246.89l-6.14-3.38a1.07,1.07,0,0,1-.5-1.44l3.49-6.35a1.09,1.09,0,0,1,1.49-.34l6.14,3.38a1.08,1.08,0,0,1,.5,1.44l-3.49,6.35A1.08,1.08,0,0,1,1132.75,246.89Z"/><path class="cls-6" d="M1132.75,246.89l-6.14-3.38a1.07,1.07,0,0,1-.5-1.44l3.49-6.35a1.09,1.09,0,0,1,1.49-.34l6.14,3.38a1.08,1.08,0,0,1,.5,1.44l-3.49,6.35A1.08,1.08,0,0,1,1132.75,246.89Z"/><path class="cls-7" d="M1132.82,241.89l-.37.66.55.31-.15.27-.88-.48.59-1.07a1.64,1.64,0,0,1,.54,0,2.37,2.37,0,0,1,.54.2,1.38,1.38,0,0,1,.72.85,1.5,1.5,0,0,1-.19,1.12,1.53,1.53,0,0,1-.85.77,1.38,1.38,0,0,1-1.1-.16,2.29,2.29,0,0,1-.43-.32,1.85,1.85,0,0,1-.3-.39l.19-.36a1.68,1.68,0,0,0,.27.45,1.55,1.55,0,0,0,.39.33,1.06,1.06,0,0,0,.83.12,1.29,1.29,0,0,0,.64-.63,1.23,1.23,0,0,0,.19-.88,1,1,0,0,0-.54-.64,1.88,1.88,0,0,0-.34-.14A1,1,0,0,0,1132.82,241.89Z"/><path class="cls-5" d="M1184.57,275.46l-12.52-6.91a1.07,1.07,0,0,1-.51-1.44l3.5-6.34a1.08,1.08,0,0,1,1.49-.35l12.52,6.91a1.07,1.07,0,0,1,.51,1.44l-3.5,6.35A1.09,1.09,0,0,1,1184.57,275.46Z"/><path class="cls-6" d="M1184.57,275.46l-12.52-6.91a1.07,1.07,0,0,1-.51-1.44l3.5-6.34a1.08,1.08,0,0,1,1.49-.35l12.52,6.91a1.07,1.07,0,0,1,.51,1.44l-3.5,6.35A1.09,1.09,0,0,1,1184.57,275.46Z"/><path class="cls-7" d="M1182.32,268.93l-.19-.11.52-.94-.84.19-.24-.14.91-.2-.3-1,.24.14.28.88.31-.56.19.1Zm.59-.32.1-.17a1,1,0,0,0,.12.15.72.72,0,0,0,.15.11.4.4,0,0,0,.35,0,.52.52,0,0,0,.28-.27.5.5,0,0,0,.08-.38.41.41,0,0,0-.22-.27l-.17-.07-.2,0,.09-.18.2,0,.19.08a.64.64,0,0,1,.32.39.71.71,0,0,1-.09.52.67.67,0,0,1-.4.36.63.63,0,0,1-.51-.07.91.91,0,0,1-.16-.11A.93.93,0,0,1,1182.91,268.61Zm1.62,1a.53.53,0,0,1-.29-.37.73.73,0,0,1,.1-.52.69.69,0,0,1,.38-.36.55.55,0,0,1,.48,0,.58.58,0,0,1,.3.37.74.74,0,0,1-.11.52.75.75,0,0,1-.38.37A.6.6,0,0,1,1184.53,269.6Zm.09-.16a.34.34,0,0,0,.31,0,.6.6,0,0,0,.26-.28.63.63,0,0,0,.1-.37.34.34,0,0,0-.18-.25.32.32,0,0,0-.3,0,.61.61,0,0,0-.27.28.69.69,0,0,0-.09.37A.3.3,0,0,0,1184.62,269.44Zm1.32,1.4-.2-.11.74-1.36-.74-.41.09-.17,1,.52Zm-5.73-1,.1-.18a1,1,0,0,0,.13.16l.17.12a.49.49,0,0,0,.23.07.15.15,0,0,0,.14-.09.12.12,0,0,0,0-.13.6.6,0,0,0-.16-.18l-.06-.05a.8.8,0,0,1-.22-.28.33.33,0,0,1,0-.27.33.33,0,0,1,.26-.18.64.64,0,0,1,.4.1l.18.12.19.17-.11.19c0-.07-.11-.13-.16-.19a.85.85,0,0,0-.19-.14.46.46,0,0,0-.23-.07.19.19,0,0,0-.14.09.16.16,0,0,0,0,.15.71.71,0,0,0,.18.2l.06.06a.59.59,0,0,1,.19.25.33.33,0,0,1,0,.25.34.34,0,0,1-.25.19.72.72,0,0,1-.38-.09l-.19-.13A.93.93,0,0,1,1180.21,269.87Zm1.54.14a.66.66,0,0,0-.1.38.34.34,0,0,0,.17.25.35.35,0,0,0,.3,0,.66.66,0,0,0,.27-.28.64.64,0,0,0,.09-.38.29.29,0,0,0-.17-.24.29.29,0,0,0-.3,0A.57.57,0,0,0,1181.75,270Zm.86,0,.33-.61.19.1-.87,1.59-.19-.11.1-.17a.45.45,0,0,1-.48,0,.5.5,0,0,1-.25-.36.8.8,0,0,1,.11-.5.78.78,0,0,1,.37-.37.5.5,0,0,1,.43,0,.53.53,0,0,1,.19.17A.48.48,0,0,1,1182.61,270Zm.3.79.36-.65.19.1-.09.18a.44.44,0,0,1,.24-.07.59.59,0,0,1,.27.08.46.46,0,0,1,.22.26.41.41,0,0,1,0,.32.4.4,0,0,1-.29.22.68.68,0,0,1-.44-.12l-.27-.14v0a.29.29,0,0,0,0,.24.44.44,0,0,0,.2.21l.2.08a.83.83,0,0,0,.22,0l-.09.17-.24-.05-.2-.08a.61.61,0,0,1-.3-.34A.69.69,0,0,1,1182.91,270.76Zm.42.13a.8.8,0,0,0,.35.13.22.22,0,0,0,.18-.13.25.25,0,0,0,0-.2.38.38,0,0,0-.15-.16.38.38,0,0,0-.31,0,.46.46,0,0,0-.26.24l0,0Zm.38,1.3.12-.22a.87.87,0,0,0,.14.27,1,1,0,0,0,.22.19.62.62,0,0,0,.49.06.79.79,0,0,0,.4-.39.75.75,0,0,0,.11-.54.55.55,0,0,0-.31-.38.71.71,0,0,0-.28-.09.79.79,0,0,0-.3,0l.12-.21a.93.93,0,0,1,.29,0,1,1,0,0,1,.28.11.8.8,0,0,1,.43.51,1,1,0,0,1-.12.69.94.94,0,0,1-.52.47.82.82,0,0,1-.67-.09.84.84,0,0,1-.23-.18A.76.76,0,0,1,1183.71,272.19Z"/><path class="cls-5" d="M1160.4,278.86l-6.19-3.41a1.08,1.08,0,0,1-.5-1.45l3.52-6.39a1.1,1.1,0,0,1,1.5-.35l6.18,3.41a1.09,1.09,0,0,1,.51,1.45l-3.53,6.4A1.08,1.08,0,0,1,1160.4,278.86Z"/><path class="cls-6" d="M1160.4,278.86l-6.19-3.41a1.08,1.08,0,0,1-.5-1.45l3.52-6.39a1.1,1.1,0,0,1,1.5-.35l6.18,3.41a1.09,1.09,0,0,1,.51,1.45l-3.53,6.4A1.08,1.08,0,0,1,1160.4,278.86Z"/><path class="cls-7" d="M1160.71,273.75l-.18-.73.41.23.15.6.09,0,0,0a1.23,1.23,0,0,1,.65.82,1.8,1.8,0,0,1-1,1.89,1.25,1.25,0,0,1-1-.12,1.2,1.2,0,0,1-.64-.81,1.6,1.6,0,0,1,.2-1.12,1.71,1.71,0,0,1,.59-.65A1.25,1.25,0,0,1,1160.71,273.75Zm-.76,2.49a.84.84,0,0,0,.74.05,1.37,1.37,0,0,0,.63-.63,1.32,1.32,0,0,0,.19-.87.86.86,0,0,0-1.16-.64,1.28,1.28,0,0,0-.63.63,1.37,1.37,0,0,0-.2.86A.82.82,0,0,0,1160,276.24Z"/><path class="cls-5" d="M1151.38,273.89l-6.18-3.41a1.08,1.08,0,0,1-.51-1.45l3.52-6.4a1.09,1.09,0,0,1,1.5-.34l6.18,3.41a1.08,1.08,0,0,1,.51,1.45l-3.52,6.39A1.1,1.1,0,0,1,1151.38,273.89Z"/><path class="cls-6" d="M1151.38,273.89l-6.18-3.41a1.08,1.08,0,0,1-.51-1.45l3.52-6.4a1.09,1.09,0,0,1,1.5-.34l6.18,3.41a1.08,1.08,0,0,1,.51,1.45l-3.52,6.39A1.1,1.1,0,0,1,1151.38,273.89Z"/><polygon class="cls-7" points="1151.98 272.2 1151.64 272.01 1152.28 269.61 1150.59 271.43 1150.21 271.22 1150.85 268.82 1149.16 270.64 1148.82 270.46 1150.83 268.3 1151.25 268.54 1150.58 271 1152.31 269.12 1152.73 269.36 1151.98 272.2"/><path class="cls-5" d="M1142.36,268.91l-6.18-3.41a1.08,1.08,0,0,1-.51-1.45l3.53-6.39a1.08,1.08,0,0,1,1.49-.35l6.19,3.41a1.09,1.09,0,0,1,.5,1.45l-3.52,6.4A1.09,1.09,0,0,1,1142.36,268.91Z"/><path class="cls-6" d="M1142.36,268.91l-6.18-3.41a1.08,1.08,0,0,1-.51-1.45l3.53-6.39a1.08,1.08,0,0,1,1.49-.35l6.19,3.41a1.09,1.09,0,0,1,.5,1.45l-3.52,6.4A1.09,1.09,0,0,1,1142.36,268.91Z"/><polygon class="cls-7" points="1142.73 267.1 1141.15 266.23 1141.31 265.94 1142.55 266.63 1142.96 265.89 1141.77 265.23 1141.93 264.95 1143.12 265.6 1143.62 264.7 1142.35 264 1142.5 263.71 1144.11 264.6 1142.73 267.1"/><path class="cls-5" d="M1133.34,263.94l-6.18-3.41a1.09,1.09,0,0,1-.51-1.45l3.53-6.4a1.08,1.08,0,0,1,1.49-.34l6.19,3.41a1.08,1.08,0,0,1,.5,1.45l-3.52,6.39A1.1,1.1,0,0,1,1133.34,263.94Z"/><path class="cls-6" d="M1133.34,263.94l-6.18-3.41a1.09,1.09,0,0,1-.51-1.45l3.53-6.4a1.08,1.08,0,0,1,1.49-.34l6.19,3.41a1.08,1.08,0,0,1,.5,1.45l-3.52,6.39A1.1,1.1,0,0,1,1133.34,263.94Z"/><path class="cls-7" d="M1133.31,261.54l.49-.89-.43-.24a.59.59,0,0,0-.43-.09.5.5,0,0,0-.31.27.45.45,0,0,0-.05.4.59.59,0,0,0,.3.31ZM1133,260a.52.52,0,0,1-.12-.27,1.54,1.54,0,0,1,0-.45l0-.87.36.2,0,.82a1,1,0,0,0,.06.46.68.68,0,0,0,.27.26l.37.2.58-1.05.34.18-1.38,2.5-.76-.42a1.1,1.1,0,0,1-.54-.53.76.76,0,0,1,.09-.66.69.69,0,0,1,.32-.33A.65.65,0,0,1,1133,260Z"/><path class="cls-5" d="M1124.32,259l-6.18-3.41a1.09,1.09,0,0,1-.51-1.45l3.53-6.39a1.08,1.08,0,0,1,1.5-.34l6.18,3.41a1.09,1.09,0,0,1,.51,1.45l-3.53,6.39A1.08,1.08,0,0,1,1124.32,259Z"/><path class="cls-6" d="M1124.32,259l-6.18-3.41a1.09,1.09,0,0,1-.51-1.45l3.53-6.39a1.08,1.08,0,0,1,1.5-.34l6.18,3.41a1.09,1.09,0,0,1,.51,1.45l-3.53,6.39A1.08,1.08,0,0,1,1124.32,259Z"/><polygon class="cls-7" points="1124.86 257.24 1122.75 256.08 1122.91 255.79 1123.8 256.28 1125.02 254.07 1125.36 254.25 1124.13 256.47 1125.02 256.96 1124.86 257.24"/><path class="cls-5" d="M1172.26,285.41l-9.3-5.13a1.1,1.1,0,0,1-.51-1.45l3.53-6.4a1.09,1.09,0,0,1,1.5-.34l9.3,5.13a1.09,1.09,0,0,1,.51,1.45l-3.53,6.39A1.09,1.09,0,0,1,1172.26,285.41Z"/><path class="cls-6" d="M1172.26,285.41l-9.3-5.13a1.1,1.1,0,0,1-.51-1.45l3.53-6.4a1.09,1.09,0,0,1,1.5-.34l9.3,5.13a1.09,1.09,0,0,1,.51,1.45l-3.53,6.39A1.09,1.09,0,0,1,1172.26,285.41Z"/><polygon class="cls-8" points="1172.4 283.45 1173.3 281.82 1173.06 281.69 1172.64 282.44 1172.11 281.56 1171.92 281.91 1169.78 280.73 1169.65 280.95 1171.79 282.13 1171.6 282.48 1172.62 282.47 1172.16 283.32 1172.4 283.45"/><path class="cls-8" d="M1171.53,279.77l.19-.35,2.13,1.18.13-.22-2.14-1.18.19-.35-1,0Zm-1,0,.9-1.64-.24-.14-.9,1.64Z"/><path class="cls-5" d="M1185.07,259.06l-6.11-3.38a1.08,1.08,0,0,1-.5-1.44l3.5-6.32a1.08,1.08,0,0,1,1.48-.34l6.11,3.39a1.07,1.07,0,0,1,.5,1.43l-3.5,6.32A1.08,1.08,0,0,1,1185.07,259.06Z"/><path class="cls-6" d="M1185.07,259.06l-6.11-3.38a1.08,1.08,0,0,1-.5-1.44l3.5-6.32a1.08,1.08,0,0,1,1.48-.34l6.11,3.39a1.07,1.07,0,0,1,.5,1.43l-3.5,6.32A1.08,1.08,0,0,1,1185.07,259.06Z"/><polygon class="cls-7" points="1185.43 256.95 1183.49 255.87 1183.63 255.62 1186.26 254.55 1184.66 253.66 1184.82 253.38 1186.83 254.5 1186.69 254.75 1184.06 255.82 1185.58 256.67 1185.43 256.95"/><path class="cls-5" d="M1176.08,254.08,1170,250.7a1.08,1.08,0,0,1-.5-1.44l3.5-6.32a1.08,1.08,0,0,1,1.48-.34l6.11,3.39a1.07,1.07,0,0,1,.5,1.43l-3.5,6.32A1.08,1.08,0,0,1,1176.08,254.08Z"/><path class="cls-6" d="M1176.08,254.08,1170,250.7a1.08,1.08,0,0,1-.5-1.44l3.5-6.32a1.08,1.08,0,0,1,1.48-.34l6.11,3.39a1.07,1.07,0,0,1,.5,1.43l-3.5,6.32A1.08,1.08,0,0,1,1176.08,254.08Z"/><polygon class="cls-7" points="1176.56 251.8 1176.2 251.6 1176.1 250.34 1174.97 250.92 1174.62 250.72 1176.07 249.97 1175.93 248.22 1176.29 248.42 1176.4 249.85 1177.68 249.19 1178.04 249.39 1176.43 250.22 1176.56 251.8"/><path class="cls-5" d="M1167.08,249.1l-6.1-3.38a1.09,1.09,0,0,1-.51-1.44L1164,238a1.09,1.09,0,0,1,1.49-.34l6.11,3.39a1.07,1.07,0,0,1,.5,1.43l-3.5,6.32A1.09,1.09,0,0,1,1167.08,249.1Z"/><path class="cls-6" d="M1167.08,249.1l-6.1-3.38a1.09,1.09,0,0,1-.51-1.44L1164,238a1.09,1.09,0,0,1,1.49-.34l6.11,3.39a1.07,1.07,0,0,1,.5,1.43l-3.5,6.32A1.09,1.09,0,0,1,1167.08,249.1Z"/><path class="cls-7" d="M1165.93,246l.2-.35a1.34,1.34,0,0,0,.22.43,1.12,1.12,0,0,0,.37.31.94.94,0,0,0,.79.1,1.57,1.57,0,0,0,.83-1.5,1,1,0,0,0-.51-.62,1.18,1.18,0,0,0-.45-.14,1.38,1.38,0,0,0-.49,0l.2-.35a1.86,1.86,0,0,1,.47,0,1.49,1.49,0,0,1,.44.17,1.31,1.31,0,0,1,.7.83,1.51,1.51,0,0,1-.2,1.12,1.53,1.53,0,0,1-.84.76,1.3,1.3,0,0,1-1.07-.15,1.65,1.65,0,0,1-.39-.29A1.46,1.46,0,0,1,1165.93,246Z"/><path class="cls-5" d="M1195.79,265l-7.71-4.27a1.07,1.07,0,0,1-.5-1.44l3.5-6.32a1.07,1.07,0,0,1,1.48-.33l7.71,4.27a1.07,1.07,0,0,1,.5,1.43l-3.5,6.32A1.08,1.08,0,0,1,1195.79,265Z"/><path class="cls-6" d="M1195.79,265l-7.71-4.27a1.07,1.07,0,0,1-.5-1.44l3.5-6.32a1.07,1.07,0,0,1,1.48-.33l7.71,4.27a1.07,1.07,0,0,1,.5,1.43l-3.5,6.32A1.08,1.08,0,0,1,1195.79,265Z"/><path class="cls-8" d="M1194.77,262.21l-.33-2.54.54.48.13.11.09-.17.87-1.6,1.06.59-1,1.77.18,0,.7.17Zm-.25.46.18-.09,2.82-1.41.36-.19-.39-.1-.89-.22.85-1.57.08-.14-1.58-.87-.06.14-.86,1.59-.67-.61-.3-.27,0,.4.37,3.12Z"/><path class="cls-5" d="M1158,244.05,1132.6,230c-.33-.18-.37-.74-.09-1.24l3.6-6.49c.28-.51.77-.77,1.09-.59l25.44,14.09c.33.18.37.74.09,1.24l-3.6,6.49C1158.85,244,1158.37,244.23,1158,244.05Z"/><path class="cls-6" d="M1158,244.05,1132.6,230c-.33-.18-.37-.74-.09-1.24l3.6-6.49c.28-.51.77-.77,1.09-.59l25.44,14.09c.33.18.37.74.09,1.24l-3.6,6.49C1158.85,244,1158.37,244.23,1158,244.05Z"/><path class="cls-5" d="M1152.62,290.31l-6.28-3.48a1.1,1.1,0,0,1-.51-1.47l3.59-6.49a1.1,1.1,0,0,1,1.52-.35l6.28,3.48a1.1,1.1,0,0,1,.51,1.47l-3.59,6.49A1.1,1.1,0,0,1,1152.62,290.31Z"/><path class="cls-6" d="M1152.62,290.31l-6.28-3.48a1.1,1.1,0,0,1-.51-1.47l3.59-6.49a1.1,1.1,0,0,1,1.52-.35l6.28,3.48a1.1,1.1,0,0,1,.51,1.47l-3.59,6.49A1.1,1.1,0,0,1,1152.62,290.31Z"/><path class="cls-7" d="M1155.32,284.08l-.35-.19-.67,1.22.42.13-.11.2-.42-.14-.22-.12.79-1.41-.36-.19.11-.19.91.51Zm-2.61,4-.22-.12.39-.7.23-.37.18.09-.19.4Zm.73-1.33-.22-.12.16-.27.21.12Z"/><path class="cls-5" d="M1143.46,285.24l-6.28-3.48a1.1,1.1,0,0,1-.51-1.47l3.59-6.49a1.11,1.11,0,0,1,1.53-.35l6.27,3.48a1.1,1.1,0,0,1,.52,1.47l-3.6,6.49A1.1,1.1,0,0,1,1143.46,285.24Z"/><path class="cls-6" d="M1143.46,285.24l-6.28-3.48a1.1,1.1,0,0,1-.51-1.47l3.59-6.49a1.11,1.11,0,0,1,1.53-.35l6.27,3.48a1.1,1.1,0,0,1,.52,1.47l-3.6,6.49A1.1,1.1,0,0,1,1143.46,285.24Z"/><path class="cls-7" d="M1145.93,278.88l-.75-.41.1-.19,1,.56-.1.19-.53.15-.42.13a1.17,1.17,0,0,0-.25.12.4.4,0,0,0-.13.13.3.3,0,0,0,0,.26.37.37,0,0,0,.18.21.85.85,0,0,0,.24.08,1.39,1.39,0,0,0,.3,0l-.12.22a2.11,2.11,0,0,1-.29-.06.87.87,0,0,1-.55-.43.54.54,0,0,1,.18-.58.94.94,0,0,1,.25-.13l.27-.09Zm-2.87,3.84.33-.6.18.11-.33.59Zm.41.22.32-.59.19.1-.33.59Z"/><path class="cls-5" d="M1134.3,280.17l-6.27-3.48a1.1,1.1,0,0,1-.52-1.47l3.6-6.49a1.1,1.1,0,0,1,1.52-.35l6.28,3.47a1.11,1.11,0,0,1,.51,1.48l-3.59,6.49A1.11,1.11,0,0,1,1134.3,280.17Z"/><path class="cls-6" d="M1134.3,280.17l-6.27-3.48a1.1,1.1,0,0,1-.52-1.47l3.6-6.49a1.1,1.1,0,0,1,1.52-.35l6.28,3.47a1.11,1.11,0,0,1,.51,1.48l-3.59,6.49A1.11,1.11,0,0,1,1134.3,280.17Z"/><path class="cls-7" d="M1136,274.3a.38.38,0,0,1-.16-.27.41.41,0,0,1,.05-.3.52.52,0,0,1,.37-.28.81.81,0,0,1,.53.13,1.13,1.13,0,0,1,.2.13l.18.18-.11.21a.7.7,0,0,0-.16-.19l-.2-.15a.68.68,0,0,0-.36-.09.3.3,0,0,0-.23.18.29.29,0,0,0,0,.27.51.51,0,0,0,.23.23l.19.11-.1.17-.19-.1a.48.48,0,0,0-.28-.08.29.29,0,0,0-.21.38.54.54,0,0,0,.22.2l.2.09.26.06-.11.19-.26-.07a1,1,0,0,1-.21-.1.73.73,0,0,1-.33-.32.42.42,0,0,1,0-.39.37.37,0,0,1,.19-.18A.56.56,0,0,1,1136,274.3Zm-2.19,3.28.11-.19a.58.58,0,0,0,.11.15l.13.1a.3.3,0,0,0,.27,0,.59.59,0,0,0,.23-.27l.13-.23-.42-.23.08-.15.42.23.28-.5-.6-.33.1-.18,1.06.59-.1.18-.25-.14-.28.49.22.12-.09.16-.21-.12-.14.25a.72.72,0,0,1-.34.35.56.56,0,0,1-.44-.07l-.13-.1A.93.93,0,0,1,1133.8,277.58Z"/><path class="cls-5" d="M1125.15,275.1l-6.28-3.48a1.1,1.1,0,0,1-.51-1.47l3.59-6.49a1.11,1.11,0,0,1,1.53-.35l6.27,3.47a1.11,1.11,0,0,1,.52,1.48l-3.6,6.49A1.1,1.1,0,0,1,1125.15,275.1Z"/><path class="cls-6" d="M1125.15,275.1l-6.28-3.48a1.1,1.1,0,0,1-.51-1.47l3.59-6.49a1.11,1.11,0,0,1,1.53-.35l6.27,3.47a1.11,1.11,0,0,1,.52,1.48l-3.6,6.49A1.1,1.1,0,0,1,1125.15,275.1Z"/><path class="cls-7" d="M1126.62,270l-.27-.16.57-1-.22-.12.1-.18.22.13.21-.38.22.12-.21.37.72.4-.12.21Zm.05-.22,1-.55-.54-.31Zm-1,2,.25-.46a.45.45,0,0,0-.24,0,.21.21,0,0,0-.16.12.23.23,0,0,0,0,.18A.5.5,0,0,0,1125.68,271.81Zm0,.26-.24.44a.4.4,0,0,0,.23,0,.21.21,0,0,0,.14-.12.18.18,0,0,0,0-.17A.48.48,0,0,0,1125.67,272.07Zm.53-1.2.1.06-.17.32.21.15.18.2-.1.19a1.28,1.28,0,0,0-.17-.22.87.87,0,0,0-.21-.17l-.27.49a.75.75,0,0,1,.27.32.34.34,0,0,1,0,.31.36.36,0,0,1-.27.21.61.61,0,0,1-.4-.07l-.14.25-.1-.05.14-.25-.19-.13-.15-.15.1-.18a.8.8,0,0,0,.15.17,1.09,1.09,0,0,0,.17.13l.25-.45a.91.91,0,0,1-.28-.34.37.37,0,0,1,0-.32.43.43,0,0,1,.28-.22.74.74,0,0,1,.42.07Z"/><path class="cls-5" d="M1116,270l-6.28-3.48a1.1,1.1,0,0,1-.51-1.47l3.59-6.5a1.11,1.11,0,0,1,1.53-.34l6.27,3.47a1.11,1.11,0,0,1,.52,1.48l-3.6,6.49A1.11,1.11,0,0,1,1116,270Z"/><path class="cls-6" d="M1116,270l-6.28-3.48a1.1,1.1,0,0,1-.51-1.47l3.59-6.5a1.11,1.11,0,0,1,1.53-.34l6.27,3.47a1.11,1.11,0,0,1,.52,1.48l-3.6,6.49A1.11,1.11,0,0,1,1116,270Z"/><path class="cls-7" d="M1117.65,265.11l-.85-.47.1-.18.65.36.22-.39-.11,0-.1,0a.66.66,0,0,1-.34-.38.56.56,0,0,1,.07-.48.58.58,0,0,1,.38-.31.72.72,0,0,1,.53.11.8.8,0,0,1,.19.13,1,1,0,0,1,.19.17l-.12.22a.6.6,0,0,0-.16-.19.62.62,0,0,0-.2-.15.43.43,0,0,0-.34-.06.37.37,0,0,0-.26.2.41.41,0,0,0,0,.32.47.47,0,0,0,.24.26.64.64,0,0,0,.19.08l.2,0Zm-1.44,2.81a.37.37,0,0,1-.2-.26.51.51,0,0,1,.07-.37.56.56,0,0,1,.28-.27.36.36,0,0,1,.33,0,.39.39,0,0,1,.21.26.57.57,0,0,1-.08.37.56.56,0,0,1-.28.27A.36.36,0,0,1,1116.21,267.92Zm-1-.53-.17-.09,1.91-1.11.17.1Zm1,.4a.21.21,0,0,0,.19,0,.46.46,0,0,0,.17-.19.53.53,0,0,0,.07-.25.21.21,0,0,0-.1-.16.21.21,0,0,0-.19,0,.5.5,0,0,0-.24.44A.18.18,0,0,0,1116.29,267.79Zm-.75-1.26a.37.37,0,0,1-.2-.27.65.65,0,0,1,.35-.63.41.41,0,0,1,.34,0,.37.37,0,0,1,.2.27.53.53,0,0,1-.08.37.52.52,0,0,1-.27.26A.41.41,0,0,1,1115.54,266.53Zm.08-.14a.17.17,0,0,0,.19,0,.4.4,0,0,0,.17-.19.42.42,0,0,0,.07-.25.19.19,0,0,0-.1-.16.21.21,0,0,0-.19,0,.53.53,0,0,0-.17.19.45.45,0,0,0-.07.25A.18.18,0,0,0,1115.62,266.39Z"/><path class="cls-5" d="M1161.82,295.35l-6.28-3.47a1.12,1.12,0,0,1-.52-1.48l3.6-6.49a1.11,1.11,0,0,1,1.52-.35l6.28,3.48a1.1,1.1,0,0,1,.51,1.47l-3.59,6.5A1.1,1.1,0,0,1,1161.82,295.35Z"/><path class="cls-6" d="M1161.82,295.35l-6.28-3.47a1.12,1.12,0,0,1-.52-1.48l3.6-6.49a1.11,1.11,0,0,1,1.52-.35l6.28,3.48a1.1,1.1,0,0,1,.51,1.47l-3.59,6.5A1.1,1.1,0,0,1,1161.82,295.35Z"/><path class="cls-7" d="M1163.72,289.8l-.08-.57.16.09.13.6Zm-1.81,3.64-1.37-.76.34-.62.18.1-.24.44,1.19.65Z"/><polygon class="cls-7" points="1158.83 289.47 1160.04 287.28 1160.22 287.38 1159.01 289.57 1158.83 289.47"/><g class="cls-3"><g class="cls-9"><polygon class="cls-5" points="987.98 297.31 934.9 246.49 1009.49 213.35 1006.93 176.55 1022.56 162.06 1052.32 165.81 1074.47 216.49 1030.03 235.08 1045.25 269.88 987.98 297.31"/><polygon class="cls-6" points="987.98 297.31 934.9 246.49 1009.49 213.35 1006.93 176.55 1022.56 162.06 1052.32 165.81 1074.47 216.49 1030.03 235.08 1045.25 269.88 987.98 297.31"/></g></g><path class="cls-5" d="M1034.64,173.47a19.54,19.54,0,0,1,3.81.38,19.33,19.33,0,0,1,3.66,1.11,19.36,19.36,0,0,1,8.76,7.19,18.85,18.85,0,0,1,1.81,3.37,19.65,19.65,0,0,1,1.11,3.67,19.8,19.8,0,0,1,0,7.62,19.78,19.78,0,0,1-1.11,3.66,18.85,18.85,0,0,1-1.81,3.37,19.18,19.18,0,0,1-2.42,3,19.61,19.61,0,0,1-6.34,4.24,19.33,19.33,0,0,1-3.66,1.11,19.8,19.8,0,0,1-7.62,0,19.33,19.33,0,0,1-3.66-1.11,19.6,19.6,0,0,1-3.38-1.81,19.14,19.14,0,0,1-3-2.43,19.84,19.84,0,0,1-2.43-3,19.46,19.46,0,0,1-1.8-3.37,19.78,19.78,0,0,1-1.11-3.66,19.53,19.53,0,0,1,2.91-14.66,20.36,20.36,0,0,1,2.43-3,19.14,19.14,0,0,1,3-2.43,19.55,19.55,0,0,1,3.38-1.8,19.33,19.33,0,0,1,3.66-1.11A19.54,19.54,0,0,1,1034.64,173.47Z"/><path class="cls-6" d="M1034.64,173.47a19.54,19.54,0,0,1,3.81.38,19.33,19.33,0,0,1,3.66,1.11,19.36,19.36,0,0,1,8.76,7.19,18.85,18.85,0,0,1,1.81,3.37,19.65,19.65,0,0,1,1.11,3.67,19.8,19.8,0,0,1,0,7.62,19.78,19.78,0,0,1-1.11,3.66,18.85,18.85,0,0,1-1.81,3.37,19.18,19.18,0,0,1-2.42,3,19.61,19.61,0,0,1-6.34,4.24,19.33,19.33,0,0,1-3.66,1.11,19.8,19.8,0,0,1-7.62,0,19.33,19.33,0,0,1-3.66-1.11,19.6,19.6,0,0,1-3.38-1.81,19.14,19.14,0,0,1-3-2.43,19.84,19.84,0,0,1-2.43-3,19.46,19.46,0,0,1-1.8-3.37,19.78,19.78,0,0,1-1.11-3.66,19.53,19.53,0,0,1,2.91-14.66,20.36,20.36,0,0,1,2.43-3,19.14,19.14,0,0,1,3-2.43,19.55,19.55,0,0,1,3.38-1.8,19.33,19.33,0,0,1,3.66-1.11A19.54,19.54,0,0,1,1034.64,173.47Z"/><path class="cls-5" d="M1033.39,254.46l-6.49,3.1a1.1,1.1,0,0,1-1.5-.43l-3.21-6.71a1.11,1.11,0,0,1,.6-1.45l6.48-3.1a1.11,1.11,0,0,1,1.51.43L1034,253A1.12,1.12,0,0,1,1033.39,254.46Z"/><path class="cls-6" d="M1033.39,254.46l-6.49,3.1a1.1,1.1,0,0,1-1.5-.43l-3.21-6.71a1.11,1.11,0,0,1,.6-1.45l6.48-3.1a1.11,1.11,0,0,1,1.51.43L1034,253A1.12,1.12,0,0,1,1033.39,254.46Z"/><polygon class="cls-7" points="1032.29 252.98 1031.91 253.17 1030.67 252.44 1030.46 253.86 1030.08 254.04 1030.35 252.23 1029.75 250.98 1030.11 250.81 1030.71 252.06 1032.29 252.98"/><path class="cls-5" d="M1023.92,259l-6.48,3.1a1.11,1.11,0,0,1-1.51-.43l-3.21-6.71a1.12,1.12,0,0,1,.6-1.45l6.49-3.1a1.1,1.1,0,0,1,1.5.43l3.22,6.71A1.11,1.11,0,0,1,1023.92,259Z"/><path class="cls-6" d="M1023.92,259l-6.48,3.1a1.11,1.11,0,0,1-1.51-.43l-3.21-6.71a1.12,1.12,0,0,1,.6-1.45l6.49-3.1a1.1,1.1,0,0,1,1.5.43l3.22,6.71A1.11,1.11,0,0,1,1023.92,259Z"/><path class="cls-7" d="M1022.67,257.65l-.36.17-.76-1.59a1,1,0,0,0-.44-.53.66.66,0,0,0-.59.05.68.68,0,0,0-.4.42,1,1,0,0,0,.14.68l.76,1.59-.36.17-.78-1.63a1.19,1.19,0,0,1-.12-.9,1.12,1.12,0,0,1,.63-.62,1.11,1.11,0,0,1,.87-.1,1.27,1.27,0,0,1,.63.66Z"/><path class="cls-5" d="M1014.46,263.52l-6.48,3.1a1.11,1.11,0,0,1-1.51-.43l-3.21-6.71a1.12,1.12,0,0,1,.6-1.45l6.49-3.1a1.1,1.1,0,0,1,1.5.43l3.21,6.71A1.11,1.11,0,0,1,1014.46,263.52Z"/><path class="cls-6" d="M1014.46,263.52l-6.48,3.1a1.11,1.11,0,0,1-1.51-.43l-3.21-6.71a1.12,1.12,0,0,1,.6-1.45l6.49-3.1a1.1,1.1,0,0,1,1.5.43l3.21,6.71A1.11,1.11,0,0,1,1014.46,263.52Z"/><rect class="cls-7" x="1011.68" y="259.69" width="0.43" height="2.91" transform="translate(-13.51 462.81) rotate(-25.6)"/><path class="cls-5" d="M1005,268.05l-6.49,3.11a1.12,1.12,0,0,1-1.5-.44L993.8,264a1.11,1.11,0,0,1,.6-1.45l6.48-3.1a1.11,1.11,0,0,1,1.51.44l3.21,6.7A1.11,1.11,0,0,1,1005,268.05Z"/><path class="cls-6" d="M1005,268.05l-6.49,3.11a1.12,1.12,0,0,1-1.5-.44L993.8,264a1.11,1.11,0,0,1,.6-1.45l6.48-3.1a1.11,1.11,0,0,1,1.51.44l3.21,6.7A1.11,1.11,0,0,1,1005,268.05Z"/><path class="cls-7" d="M1002.75,267.25a1.27,1.27,0,0,1-1.06.05,1.55,1.55,0,0,1-.8-.83,1.6,1.6,0,0,1-.15-1.15,1.39,1.39,0,0,1,1.77-.85,1.86,1.86,0,0,1,1,2A1.27,1.27,0,0,1,1002.75,267.25Zm-.14-.29a.82.82,0,0,0,.48-.58,1.62,1.62,0,0,0-.75-1.57.89.89,0,0,0-1.23.59,1.35,1.35,0,0,0,.15.89,1.38,1.38,0,0,0,.6.67A.83.83,0,0,0,1002.61,267Z"/><path class="cls-5" d="M995.53,272.58l-6.48,3.11a1.12,1.12,0,0,1-1.51-.44l-3.21-6.71a1.12,1.12,0,0,1,.6-1.45l6.49-3.1a1.1,1.1,0,0,1,1.5.44l3.22,6.7A1.11,1.11,0,0,1,995.53,272.58Z"/><path class="cls-6" d="M995.53,272.58l-6.48,3.11a1.12,1.12,0,0,1-1.51-.44l-3.21-6.71a1.12,1.12,0,0,1,.6-1.45l6.49-3.1a1.1,1.1,0,0,1,1.5.44l3.22,6.7A1.11,1.11,0,0,1,995.53,272.58Z"/><path class="cls-7" d="M994.17,271.36l-.8.38a1.12,1.12,0,0,1-.77.12.82.82,0,0,1-.5-.47.84.84,0,0,1-.06-.7,1.13,1.13,0,0,1,.57-.52l.45-.21-.5-1,.35-.17Zm-.5-.12-.47-1-.45.22a.57.57,0,0,0-.32.31.55.55,0,0,0,0,.43.6.6,0,0,0,.31.3.62.62,0,0,0,.45-.06Z"/><path class="cls-5" d="M985.64,277.32l-9.11,4.36c-.82.39-1.68.29-1.93-.24l-3.21-6.7c-.25-.53.21-1.26,1-1.65l9.11-4.37c.82-.39,1.68-.29,1.93.24l3.21,6.7C986.92,276.19,986.46,276.92,985.64,277.32Z"/><path class="cls-6" d="M985.64,277.32l-9.11,4.36c-.82.39-1.68.29-1.93-.24l-3.21-6.7c-.25-.53.21-1.26,1-1.65l9.11-4.37c.82-.39,1.68-.29,1.93.24l3.21,6.7C986.92,276.19,986.46,276.92,985.64,277.32Z"/><path class="cls-7" d="M982.47,273.45l-.65.32-.08-.16.37-.18-.81-1.7-.37.18-.08-.16.66-.32Zm-.53,1.36-.07-.16.09,0a1.29,1.29,0,0,1,.56-.16c.12,0,.21.1.29.26l.13.27a.3.3,0,0,0,.19.19.63.63,0,0,0,.33-.09l.1,0,.07.16-.09,0a.52.52,0,0,0-.27.21.29.29,0,0,0,0,.27l.13.26a.39.39,0,0,1,0,.39,1.13,1.13,0,0,1-.48.33l-.09.05-.08-.16.11-.05a.59.59,0,0,0,.26-.19.25.25,0,0,0,0-.23l-.13-.28a.33.33,0,0,1,.14-.5.5.5,0,0,1-.3,0,.44.44,0,0,1-.19-.21l-.13-.28c0-.1-.1-.16-.16-.17a.64.64,0,0,0-.31.09Z"/><path class="cls-7" d="M975.63,276.78l-1-2,.47-.23.08.16-.27.13.82,1.7.26-.13.08.16Zm1.11.57-.07,0q-.17.08-.18.15s0,.12,0,.22l.13.28a.45.45,0,0,1,.07.27.31.31,0,0,1-.12.19.27.27,0,0,1,.22,0,.45.45,0,0,1,.17.22l.13.28a.35.35,0,0,0,.15.18c.05,0,.12,0,.22,0l.08,0,.08.16-.07,0a.67.67,0,0,1-.41.09c-.09,0-.17-.12-.25-.28l-.12-.27a.44.44,0,0,0-.17-.2.35.35,0,0,0-.25,0l-.07,0-.07-.16.07,0a.33.33,0,0,0,.18-.17.39.39,0,0,0,0-.26l-.13-.26c-.07-.17-.1-.29-.06-.37a.62.62,0,0,1,.33-.26l.07,0Z"/><path class="cls-5" d="M1028,241.44l-6.48,3.1a1.11,1.11,0,0,1-1.51-.44l-3.21-6.7a1.11,1.11,0,0,1,.6-1.45l6.49-3.11a1.11,1.11,0,0,1,1.5.44l3.21,6.71A1.11,1.11,0,0,1,1028,241.44Z"/><path class="cls-6" d="M1028,241.44l-6.48,3.1a1.11,1.11,0,0,1-1.51-.44l-3.21-6.7a1.11,1.11,0,0,1,.6-1.45l6.49-3.11a1.11,1.11,0,0,1,1.5.44l3.21,6.71A1.11,1.11,0,0,1,1028,241.44Z"/><polygon class="cls-7" points="1026.45 239.91 1026.09 240.09 1025.58 239.01 1024.29 239.63 1024.8 240.7 1024.45 240.87 1023.19 238.25 1023.55 238.08 1024.15 239.33 1025.44 238.71 1024.84 237.46 1025.19 237.29 1026.45 239.91"/><path class="cls-5" d="M1018.54,246l-6.49,3.1a1.1,1.1,0,0,1-1.5-.43l-3.21-6.71a1.1,1.1,0,0,1,.6-1.45l6.48-3.11a1.12,1.12,0,0,1,1.51.44l3.21,6.71A1.12,1.12,0,0,1,1018.54,246Z"/><path class="cls-6" d="M1018.54,246l-6.49,3.1a1.1,1.1,0,0,1-1.5-.43l-3.21-6.71a1.1,1.1,0,0,1,.6-1.45l6.48-3.11a1.12,1.12,0,0,1,1.51.44l3.21,6.71A1.12,1.12,0,0,1,1018.54,246Z"/><path class="cls-7" d="M1016.2,245.12l-.35.17-1.17-2.44a1.18,1.18,0,0,1-.15-.77.78.78,0,0,1,.47-.49l.14-.07.14.3-.11.05a.47.47,0,0,0-.27.29,1,1,0,0,0,.13.52Z"/><path class="cls-5" d="M1009.08,250.5l-6.49,3.1a1.12,1.12,0,0,1-1.51-.43l-3.21-6.71a1.11,1.11,0,0,1,.61-1.45l6.48-3.11a1.12,1.12,0,0,1,1.51.44l3.21,6.71A1.12,1.12,0,0,1,1009.08,250.5Z"/><path class="cls-6" d="M1009.08,250.5l-6.49,3.1a1.12,1.12,0,0,1-1.51-.43l-3.21-6.71a1.11,1.11,0,0,1,.61-1.45l6.48-3.11a1.12,1.12,0,0,1,1.51.44l3.21,6.71A1.12,1.12,0,0,1,1009.08,250.5Z"/><polygon class="cls-7" points="1007.01 249.58 1006.65 249.75 1006.12 248.64 1005.48 250.31 1005.02 250.53 1005.74 248.69 1003.67 247.96 1004.14 247.73 1006 248.39 1005.4 247.13 1005.75 246.96 1007.01 249.58"/><path class="cls-5" d="M999.61,255l-6.49,3.1a1.1,1.1,0,0,1-1.5-.43L988.41,251a1.12,1.12,0,0,1,.6-1.45l6.49-3.1a1.1,1.1,0,0,1,1.5.43l3.21,6.71A1.12,1.12,0,0,1,999.61,255Z"/><path class="cls-6" d="M999.61,255l-6.49,3.1a1.1,1.1,0,0,1-1.5-.43L988.41,251a1.12,1.12,0,0,1,.6-1.45l6.49-3.1a1.1,1.1,0,0,1,1.5.43l3.21,6.71A1.12,1.12,0,0,1,999.61,255Z"/><polygon class="cls-7" points="998 253.89 997.64 254.06 996.53 251.74 995.25 252.35 995.11 252.05 996.74 251.27 998 253.89"/><path class="cls-5" d="M990.15,259.56l-6.49,3.1a1.1,1.1,0,0,1-1.5-.43l-3.22-6.71a1.11,1.11,0,0,1,.61-1.45L986,251a1.11,1.11,0,0,1,1.51.43l3.21,6.71A1.12,1.12,0,0,1,990.15,259.56Z"/><path class="cls-6" d="M990.15,259.56l-6.49,3.1a1.1,1.1,0,0,1-1.5-.43l-3.22-6.71a1.11,1.11,0,0,1,.61-1.45L986,251a1.11,1.11,0,0,1,1.51.43l3.21,6.71A1.12,1.12,0,0,1,990.15,259.56Z"/><path class="cls-7" d="M986.78,254.3l-.24.11-.09-.19,0-.44.14-.06.08.39Zm.42.89-.23.11-.13-.28.23-.11Zm1.36,2.83-.24.11-.13-.28.23-.11Zm-.43-.89-.23.11-.14-.28.24-.11Z"/><path class="cls-5" d="M980.68,264.09l-6.48,3.1a1.11,1.11,0,0,1-1.51-.43l-3.21-6.71a1.12,1.12,0,0,1,.6-1.45l6.49-3.1a1.12,1.12,0,0,1,1.51.43l3.21,6.71A1.11,1.11,0,0,1,980.68,264.09Z"/><path class="cls-6" d="M980.68,264.09l-6.48,3.1a1.11,1.11,0,0,1-1.51-.43l-3.21-6.71a1.12,1.12,0,0,1,.6-1.45l6.49-3.1a1.12,1.12,0,0,1,1.51.43l3.21,6.71A1.11,1.11,0,0,1,980.68,264.09Z"/><path class="cls-7" d="M977.55,260.57l-.29-.61.19-.09.29.61Zm.47,1.54a.49.49,0,0,1,.65-.34.57.57,0,0,1,.29.3.58.58,0,0,1,0,.42.4.4,0,0,1-.24.28.46.46,0,0,1-.22.06.54.54,0,0,1-.21-.05l.07.14-.16.08-.39-.82a.41.41,0,0,0-.18.27.6.6,0,0,0,.06.36,1.1,1.1,0,0,0,.14.21.9.9,0,0,0,.2.14.86.86,0,0,0,.39.09.94.94,0,0,0,.39-.1.82.82,0,0,0,.25-.16.79.79,0,0,0,.18-.22.9.9,0,0,0,.13-.42,1,1,0,0,0-.1-.44.84.84,0,0,0-.22-.3.89.89,0,0,0-.31-.19,1,1,0,0,0-.35,0,1.19,1.19,0,0,0-.36.09,1.16,1.16,0,0,0-.44.44l-.16-.07a1.16,1.16,0,0,1,.22-.31,1.06,1.06,0,0,1,.31-.21,1,1,0,0,1,.84-.06,1.07,1.07,0,0,1,.37.22,1,1,0,0,1,.26.35,1.31,1.31,0,0,1,.11.42,1,1,0,0,1-.06.42,1.14,1.14,0,0,1-.23.38,1.19,1.19,0,0,1-.36.26,1.08,1.08,0,0,1-1,0,.81.81,0,0,1-.23-.17,1,1,0,0,1-.17-.25.65.65,0,0,1-.05-.54.83.83,0,0,1,.4-.41Zm.76.05a.36.36,0,0,0-.19-.21.3.3,0,0,0-.26,0,.29.29,0,0,0-.17.19.44.44,0,0,0,0,.29.36.36,0,0,0,.2.2.25.25,0,0,0,.25,0,.27.27,0,0,0,.17-.19A.36.36,0,0,0,978.78,262.16Z"/><path class="cls-5" d="M971.22,268.62l-6.49,3.11a1.12,1.12,0,0,1-1.5-.44L960,264.58a1.12,1.12,0,0,1,.6-1.45l6.49-3.1a1.1,1.1,0,0,1,1.5.44l3.21,6.7A1.11,1.11,0,0,1,971.22,268.62Z"/><path class="cls-6" d="M971.22,268.62l-6.49,3.11a1.12,1.12,0,0,1-1.5-.44L960,264.58a1.12,1.12,0,0,1,.6-1.45l6.49-3.1a1.1,1.1,0,0,1,1.5.44l3.21,6.7A1.11,1.11,0,0,1,971.22,268.62Z"/><path class="cls-7" d="M967.78,265.06l-.1-.52-.33.16.11.51-.18.09-.1-.52-.35.17-.08-.17.39-.19-.09-.41-.35.17-.08-.17L967,264l-.1-.51.18-.09.1.52.32-.16-.1-.51.18-.09.1.52.35-.17.08.17-.39.18.09.42.35-.17.08.17-.4.19.11.51Zm-.46-.55.32-.16-.09-.41-.32.15Zm.8,3-.09-.2a.78.78,0,0,1,.16-.22.49.49,0,0,1,.18-.14.89.89,0,0,1,.32-.07h0a.79.79,0,0,0,.31-.07.52.52,0,0,0,.17-.13,1.54,1.54,0,0,0,.14-.23l.09.19a1.14,1.14,0,0,1-.15.23.85.85,0,0,1-.19.14.89.89,0,0,1-.32.07h0a1,1,0,0,0-.3.06.46.46,0,0,0-.17.14A.91.91,0,0,0,968.12,267.48Z"/><path class="cls-5" d="M1006.87,234.9l-6.49,3.1a1.1,1.1,0,0,1-1.5-.43l-3.21-6.71a1.12,1.12,0,0,1,.6-1.45l6.49-3.1a1.1,1.1,0,0,1,1.5.43l3.21,6.71A1.12,1.12,0,0,1,1006.87,234.9Z"/><path class="cls-6" d="M1006.87,234.9l-6.49,3.1a1.1,1.1,0,0,1-1.5-.43l-3.21-6.71a1.12,1.12,0,0,1,.6-1.45l6.49-3.1a1.1,1.1,0,0,1,1.5.43l3.21,6.71A1.12,1.12,0,0,1,1006.87,234.9Z"/><polygon class="cls-7" points="1003.64 230.98 1005.89 233.12 1005.52 233.3 1003.63 231.49 1003.86 234.09 1003.49 234.27 1003.23 231.17 1003.64 230.98"/><path class="cls-5" d="M997.32,239.47l-6.48,3.1a1.11,1.11,0,0,1-1.51-.43l-3.21-6.71a1.12,1.12,0,0,1,.6-1.45l6.49-3.1a1.1,1.1,0,0,1,1.5.43l3.22,6.71A1.11,1.11,0,0,1,997.32,239.47Z"/><path class="cls-6" d="M997.32,239.47l-6.48,3.1a1.11,1.11,0,0,1-1.51-.43l-3.21-6.71a1.12,1.12,0,0,1,.6-1.45l6.49-3.1a1.1,1.1,0,0,1,1.5.43l3.22,6.71A1.11,1.11,0,0,1,997.32,239.47Z"/><path class="cls-7" d="M996.05,237.83l-.91.44a1.11,1.11,0,0,1-.7.13.74.74,0,0,1-.52-.81.57.57,0,0,1,.24-.34.73.73,0,0,1-.51,0,.72.72,0,0,1-.36-.37.73.73,0,0,1,0-.66,1.11,1.11,0,0,1,.58-.52l.95-.45Zm-.49-.12-.38-.79-.53.25a.77.77,0,0,0-.34.29.37.37,0,0,0,0,.35.38.38,0,0,0,.27.24A.68.68,0,0,0,995,238Zm-.52-1.08-.46-1L994,236a.71.71,0,0,0-.37.32.52.52,0,0,0,0,.43.49.49,0,0,0,.31.29.68.68,0,0,0,.48-.08Z"/><path class="cls-5" d="M987.78,244l-6.49,3.1a1.1,1.1,0,0,1-1.5-.43L976.58,240a1.12,1.12,0,0,1,.6-1.45l6.49-3.1a1.1,1.1,0,0,1,1.5.43l3.21,6.71A1.12,1.12,0,0,1,987.78,244Z"/><path class="cls-6" d="M987.78,244l-6.49,3.1a1.1,1.1,0,0,1-1.5-.43L976.58,240a1.12,1.12,0,0,1,.6-1.45l6.49-3.1a1.1,1.1,0,0,1,1.5.43l3.21,6.71A1.12,1.12,0,0,1,987.78,244Z"/><polygon class="cls-7" points="986.46 242.42 985.98 242.65 983.77 241.02 984.82 243.21 984.48 243.37 983.22 240.75 983.7 240.52 985.91 242.16 984.86 239.97 985.2 239.8 986.46 242.42"/><path class="cls-5" d="M978.23,248.61l-6.48,3.1a1.11,1.11,0,0,1-1.51-.43L967,244.57a1.12,1.12,0,0,1,.6-1.45l6.49-3.1a1.1,1.1,0,0,1,1.5.43l3.22,6.71A1.11,1.11,0,0,1,978.23,248.61Z"/><path class="cls-6" d="M978.23,248.61l-6.48,3.1a1.11,1.11,0,0,1-1.51-.43L967,244.57a1.12,1.12,0,0,1,.6-1.45l6.49-3.1a1.1,1.1,0,0,1,1.5.43l3.22,6.71A1.11,1.11,0,0,1,978.23,248.61Z"/><polygon class="cls-7" points="977.24 247.14 976.71 247.39 975.19 245.93 975.37 248.03 974.84 248.28 973.59 245.66 973.93 245.5 975.03 247.8 974.85 245.68 975.21 245.51 976.74 246.98 975.64 244.68 975.98 244.51 977.24 247.14"/><path class="cls-5" d="M959.72,257.47l-6.49,3.11a1.11,1.11,0,0,1-1.5-.44l-3.22-6.71a1.1,1.1,0,0,1,.61-1.44l6.48-3.11a1.12,1.12,0,0,1,1.51.44l3.21,6.71A1.1,1.1,0,0,1,959.72,257.47Z"/><path class="cls-6" d="M959.72,257.47l-6.49,3.11a1.11,1.11,0,0,1-1.5-.44l-3.22-6.71a1.1,1.1,0,0,1,.61-1.44l6.48-3.11a1.12,1.12,0,0,1,1.51.44l3.21,6.71A1.1,1.1,0,0,1,959.72,257.47Z"/><path class="cls-7" d="M956,253.5l-.19.09-.32-2.14.19-.09Zm.92,1.55.21-.1.08.17a.56.56,0,0,1,.06.2.82.82,0,0,1,0,.22l-.06.15a.49.49,0,0,0,0,.15.16.16,0,0,0,0,.12.22.22,0,0,0,.15.13.3.3,0,0,0,.22,0,.64.64,0,0,0,.17-.13,1.91,1.91,0,0,0,.15-.21l.1.21a1,1,0,0,1-.17.19.9.9,0,0,1-.2.14.59.59,0,0,1-.38.05.42.42,0,0,1-.26-.23.34.34,0,0,1,0-.18.87.87,0,0,1,.06-.23l0-.15,0-.11v-.07a.14.14,0,0,0,0-.06.69.69,0,0,0,0-.1Zm.14-.27-.23.11-.13-.28.22-.11Z"/><path class="cls-5" d="M968.69,253.18l-6.49,3.1a1.1,1.1,0,0,1-1.5-.43l-3.21-6.71a1.12,1.12,0,0,1,.6-1.45l6.49-3.1a1.1,1.1,0,0,1,1.5.43l3.21,6.71A1.12,1.12,0,0,1,968.69,253.18Z"/><path class="cls-6" d="M968.69,253.18l-6.49,3.1a1.1,1.1,0,0,1-1.5-.43l-3.21-6.71a1.12,1.12,0,0,1,.6-1.45l6.49-3.1a1.1,1.1,0,0,1,1.5.43l3.21,6.71A1.12,1.12,0,0,1,968.69,253.18Z"/><path class="cls-7" d="M964.78,248l-.23.11-.09-.19v-.44l.14-.07.08.4Zm1,4,.95-1-1.33.14-.1-.2,1.66-.16.09.18-1.17,1.19Z"/><path class="cls-7" d="M961,249.9l-.24.11-.13-.28.23-.11Zm2.34,3.38.09.2-1.66.16-.09-.18,1.17-1.19.1.2-.94.94Z"/><path class="cls-5" d="M1012,279.66l-6.49,3.11a1.11,1.11,0,0,1-1.5-.44l-3.21-6.71a1.1,1.1,0,0,1,.6-1.44l6.49-3.11a1.11,1.11,0,0,1,1.5.44l3.21,6.71A1.1,1.1,0,0,1,1012,279.66Z"/><path class="cls-6" d="M1012,279.66l-6.49,3.11a1.11,1.11,0,0,1-1.5-.44l-3.21-6.71a1.1,1.1,0,0,1,.6-1.44l6.49-3.11a1.11,1.11,0,0,1,1.5.44l3.21,6.71A1.1,1.1,0,0,1,1012,279.66Z"/><path class="cls-7" d="M1008.4,274.57a.34.34,0,0,0-.19.22.56.56,0,0,0,.27.56.33.33,0,0,0,.29,0,.34.34,0,0,0,.19-.22.48.48,0,0,0-.05-.32.47.47,0,0,0-.22-.24A.37.37,0,0,0,1008.4,274.57Zm.11-.91.1.2a1.2,1.2,0,0,0-.2,0,.48.48,0,0,0-.18.06.44.44,0,0,0-.27.31.86.86,0,0,0,.09.51.43.43,0,0,1,.09-.22.49.49,0,0,1,.19-.16.58.58,0,0,1,.46,0,.68.68,0,0,1,.35.34.63.63,0,0,1,0,.48.59.59,0,0,1-.33.35.55.55,0,0,1-.54,0,1.24,1.24,0,0,1-.45-.57,1,1,0,0,1-.12-.71.68.68,0,0,1,.39-.47,1,1,0,0,1,.18-.06Zm1.43,4.86a2.44,2.44,0,0,0,0-.61,1.93,1.93,0,0,0-.17-.53,2.11,2.11,0,0,0-.32-.48,2.25,2.25,0,0,0-.46-.39l.18-.09a2.47,2.47,0,0,1,.49.39,1.74,1.74,0,0,1,.32.46,1.88,1.88,0,0,1,.16.54,2.68,2.68,0,0,1,0,.63Z"/><path class="cls-5" d="M1002.51,284.19,996,287.3a1.11,1.11,0,0,1-1.5-.44l-3.21-6.71a1.1,1.1,0,0,1,.6-1.44l6.48-3.11a1.12,1.12,0,0,1,1.51.44l3.21,6.71A1.1,1.1,0,0,1,1002.51,284.19Z"/><path class="cls-6" d="M1002.51,284.19,996,287.3a1.11,1.11,0,0,1-1.5-.44l-3.21-6.71a1.1,1.1,0,0,1,.6-1.44l6.48-3.11a1.12,1.12,0,0,1,1.51.44l3.21,6.71A1.1,1.1,0,0,1,1002.51,284.19Z"/><path class="cls-7" d="M999.72,279.89a.53.53,0,0,1-.53,0,1.24,1.24,0,0,1-.45-.57,1.2,1.2,0,0,1-.16-.71.57.57,0,0,1,.85-.4,1.41,1.41,0,0,1,.45.56,1.28,1.28,0,0,1,.15.71A.52.52,0,0,1,999.72,279.89Zm-.09-.17a.31.31,0,0,0,.18-.3,1.34,1.34,0,0,0-.16-.55,1.46,1.46,0,0,0-.33-.47.3.3,0,0,0-.34,0,.32.32,0,0,0-.18.29,1.3,1.3,0,0,0,.16.55,1.26,1.26,0,0,0,.33.47A.31.31,0,0,0,999.63,279.72Zm1.72,2.91-.18.09a2.47,2.47,0,0,1-.49-.39,1.74,1.74,0,0,1-.32-.46,1.79,1.79,0,0,1-.16-.54,2.68,2.68,0,0,1,0-.63l.17-.08a3.06,3.06,0,0,0,0,.61,1.94,1.94,0,0,0,.49,1A2.55,2.55,0,0,0,1001.35,282.63Z"/><path class="cls-5" d="M1040.36,266.07l-6.49,3.11a1.11,1.11,0,0,1-1.5-.44l-3.21-6.71a1.12,1.12,0,0,1,.6-1.45l6.49-3.1a1.11,1.11,0,0,1,1.5.44l3.21,6.71A1.1,1.1,0,0,1,1040.36,266.07Z"/><path class="cls-6" d="M1040.36,266.07l-6.49,3.11a1.11,1.11,0,0,1-1.5-.44l-3.21-6.71a1.12,1.12,0,0,1,.6-1.45l6.49-3.1a1.11,1.11,0,0,1,1.5.44l3.21,6.71A1.1,1.1,0,0,1,1040.36,266.07Z"/><path class="cls-7" d="M1036.53,262.19l-.1-.2.2,0,.18-.06a.48.48,0,0,0,.26-.32.84.84,0,0,0-.08-.51.46.46,0,0,1-.09.23.58.58,0,0,1-.19.15.6.6,0,0,1-.47,0,.66.66,0,0,1-.34-.34.59.59,0,0,1,0-.48.61.61,0,0,1,.32-.35.55.55,0,0,1,.54,0,1.19,1.19,0,0,1,.46.57,1,1,0,0,1,.11.71.69.69,0,0,1-.38.47l-.18.06Zm.1-.91a.3.3,0,0,0,.19-.22.46.46,0,0,0,0-.32.45.45,0,0,0-.23-.24.31.31,0,0,0-.28,0,.32.32,0,0,0-.19.22.43.43,0,0,0,.05.32.44.44,0,0,0,.22.24A.31.31,0,0,0,1036.63,261.28Zm1.63,3.6-.9-.33.23-.1.69.2.28-.67.22-.11-.3.91Z"/><path class="cls-5" d="M1030.9,270.6l-6.49,3.11a1.11,1.11,0,0,1-1.5-.44l-3.21-6.71a1.12,1.12,0,0,1,.6-1.45l6.49-3.1a1.11,1.11,0,0,1,1.5.44l3.21,6.71A1.1,1.1,0,0,1,1030.9,270.6Z"/><path class="cls-6" d="M1030.9,270.6l-6.49,3.11a1.11,1.11,0,0,1-1.5-.44l-3.21-6.71a1.12,1.12,0,0,1,.6-1.45l6.49-3.1a1.11,1.11,0,0,1,1.5.44l3.21,6.71A1.1,1.1,0,0,1,1030.9,270.6Z"/><path class="cls-7" d="M1028.25,266.16l-1.06.5,0-.09-.14-1.84.23-.11.14,1.73.79-.38Zm.69,2.36-.84-.31a1.13,1.13,0,0,0,0,.26,1.25,1.25,0,0,0,.07.26l-.2.1a1.14,1.14,0,0,1-.07-.32,1.45,1.45,0,0,1,0-.36l-.46-.17.28-.13.24.08a.78.78,0,0,1,.17-.26.94.94,0,0,1,.25-.18.68.68,0,0,1,.5-.05.56.56,0,0,1,.36.31.5.5,0,0,1,0,.3.84.84,0,0,1-.11.34.56.56,0,0,1,.15.1.34.34,0,0,1,.09.12.43.43,0,0,1,0,.35.51.51,0,0,1-.28.26l-.19.07-.21,0-.1-.2h.22l.18-.05a.34.34,0,0,0,.16-.15.23.23,0,0,0,0-.2.19.19,0,0,0-.08-.1A1.16,1.16,0,0,0,1028.94,268.52Zm.09-.2a1,1,0,0,0,.07-.25.54.54,0,0,0,0-.21.36.36,0,0,0-.24-.21.54.54,0,0,0-.35,0,.83.83,0,0,0-.18.13.62.62,0,0,0-.12.19Z"/><path class="cls-5" d="M1021.43,275.13l-6.48,3.11a1.12,1.12,0,0,1-1.51-.44l-3.21-6.71a1.1,1.1,0,0,1,.6-1.44l6.49-3.11a1.12,1.12,0,0,1,1.51.44l3.21,6.71A1.1,1.1,0,0,1,1021.43,275.13Z"/><path class="cls-6" d="M1021.43,275.13l-6.48,3.11a1.12,1.12,0,0,1-1.51-.44l-3.21-6.71a1.1,1.1,0,0,1,.6-1.44l6.49-3.11a1.12,1.12,0,0,1,1.51.44l3.21,6.71A1.1,1.1,0,0,1,1021.43,275.13Z"/><path class="cls-7" d="M1018.2,270.49a.29.29,0,0,0-.17-.16.35.35,0,0,0-.26,0,.31.31,0,0,0-.19.18.27.27,0,0,0,0,.23.3.3,0,0,0,.18.17.36.36,0,0,0,.26,0,.42.42,0,0,0,.19-.18A.3.3,0,0,0,1018.2,270.49Zm-.25-.31a.46.46,0,0,1,.29,0,.39.39,0,0,1,.2.2.42.42,0,0,1,0,.38.62.62,0,0,1-.33.3.65.65,0,0,1-.44.07.45.45,0,0,1-.29-.25.39.39,0,0,1,0-.28.41.41,0,0,1,.16-.24.53.53,0,0,1-.33,0,.47.47,0,0,1-.21-.23.49.49,0,0,1,0-.44.62.62,0,0,1,.35-.32.68.68,0,0,1,.48-.08.54.54,0,0,1,.33.3.43.43,0,0,1,0,.31A.46.46,0,0,1,1018,270.18Zm-.27,0a.38.38,0,0,0,.21-.2.31.31,0,0,0,0-.28.34.34,0,0,0-.2-.19.37.37,0,0,0-.29,0,.36.36,0,0,0-.21.21.31.31,0,0,0,0,.28.37.37,0,0,0,.2.19A.43.43,0,0,0,1017.68,270.19Zm1.14,3.66.3-.4-.5,0v-.14l.48.05-.2-.42.12-.06.2.42.27-.4.11.07-.29.41.5,0v.14l-.48,0,.2.41-.13.06-.2-.41-.26.4Z"/><path class="cls-5" d="M993.63,288.6l-8.13,3.89c-.3.14-.74-.16-1-.69l-3.21-6.7c-.25-.53-.21-1.06.08-1.2l8.14-3.9c.29-.14.73.17,1,.69l3.21,6.71C994,287.92,993.92,288.46,993.63,288.6Z"/><path class="cls-6" d="M993.63,288.6l-8.13,3.89c-.3.14-.74-.16-1-.69l-3.21-6.7c-.25-.53-.21-1.06.08-1.2l8.14-3.9c.29-.14.73.17,1,.69l3.21,6.71C994,287.92,993.92,288.46,993.63,288.6Z"/><polygon class="cls-8" points="991.52 286.48 991.82 285.45 990.82 285.01 991.09 285.57 988.55 286.78 988.73 287.16 991.27 285.94 991.52 286.48"/><path class="cls-5" d="M1024.05,226.53l-15,7.2c-.2.09-.55-.25-.8-.78l-3.22-6.7c-.25-.53-.29-1-.1-1.11l15-7.21c.2-.09.55.26.8.78l3.21,6.71C1024.19,225.94,1024.24,226.43,1024.05,226.53Z"/><path class="cls-6" d="M1024.05,226.53l-15,7.2c-.2.09-.55-.25-.8-.78l-3.22-6.7c-.25-.53-.29-1-.1-1.11l15-7.21c.2-.09.55.26.8.78l3.21,6.71C1024.19,225.94,1024.24,226.43,1024.05,226.53Z"/><polygon class="cls-8" points="1016.72 226.58 1015.9 224.87 1018.76 223.5 1019.02 224.04 1019.95 222.7 1018.32 222.57 1018.58 223.13 1015.36 224.67 1016.36 226.75 1016.72 226.58"/><polygon points="1141.22 71.55 1018.84 71.55 998.25 71.55 998.25 85.42 1017.33 85.42 1142.73 85.42 1153.63 85.42 1153.63 71.55 1141.22 71.55"/><path d="M1027.89,23c-14.77,10.54-25.65,28-29.5,48.56h90.67Z"/><g class="cls-10"><g class="cls-11"><rect class="cls-12" x="998.5" y="85.67" width="92.45" height="35.57"/><rect class="cls-13" x="998.5" y="85.67" width="92.45" height="35.57"/></g><polygon class="cls-2" points="997.6 84.92 1091.6 84.92 1091.6 96.22 1069.05 98.13 1030.08 121.92 997.6 121.92 997.6 84.92"/></g><rect x="1095.36" y="36.86" width="13.87" height="34.68"/><path class="cls-5" d="M1081.52,97.31a34.26,34.26,0,0,1,1.74-4.86A30.45,30.45,0,0,1,1085.7,88a28.7,28.7,0,0,1,3-3.9,26.27,26.27,0,0,1,3.54-3.17,22.77,22.77,0,0,1,3.9-2.34,20,20,0,0,1,4.11-1.41,17.92,17.92,0,0,1,4.16-.42,16.3,16.3,0,0,1,7.84,2.13,17.06,17.06,0,0,1,3.37,2.47,20.06,20.06,0,0,1,2.84,3.29,23.2,23.2,0,0,1,2.18,4,25.87,25.87,0,0,1,1.45,4.54,28.07,28.07,0,0,1,.66,4.9,30.91,30.91,0,0,1-.15,5.08,33.81,33.81,0,0,1-1,5.07,33.06,33.06,0,0,1-1.74,4.86,32.5,32.5,0,0,1-2.43,4.46,30.14,30.14,0,0,1-3.06,3.89,25.76,25.76,0,0,1-3.54,3.18,23,23,0,0,1-3.9,2.33,20,20,0,0,1-4.11,1.41,17.88,17.88,0,0,1-4.16.43,16.64,16.64,0,0,1-4-.58,17.07,17.07,0,0,1-3.79-1.55,17.78,17.78,0,0,1-3.37-2.47,19.73,19.73,0,0,1-2.84-3.3,22.48,22.48,0,0,1-2.18-4,25.49,25.49,0,0,1-1.45-4.53,28.2,28.2,0,0,1-.66-4.9,31,31,0,0,1,.15-5.09A33.92,33.92,0,0,1,1081.52,97.31Z"/><path class="cls-6" d="M1081.52,97.31a34.26,34.26,0,0,1,1.74-4.86A30.45,30.45,0,0,1,1085.7,88a28.7,28.7,0,0,1,3-3.9,26.27,26.27,0,0,1,3.54-3.17,22.77,22.77,0,0,1,3.9-2.34,20,20,0,0,1,4.11-1.41,17.92,17.92,0,0,1,4.16-.42,16.3,16.3,0,0,1,7.84,2.13,17.06,17.06,0,0,1,3.37,2.47,20.06,20.06,0,0,1,2.84,3.29,23.2,23.2,0,0,1,2.18,4,25.87,25.87,0,0,1,1.45,4.54,28.07,28.07,0,0,1,.66,4.9,30.91,30.91,0,0,1-.15,5.08,33.81,33.81,0,0,1-1,5.07,33.06,33.06,0,0,1-1.74,4.86,32.5,32.5,0,0,1-2.43,4.46,30.14,30.14,0,0,1-3.06,3.89,25.76,25.76,0,0,1-3.54,3.18,23,23,0,0,1-3.9,2.33,20,20,0,0,1-4.11,1.41,17.88,17.88,0,0,1-4.16.43,16.64,16.64,0,0,1-4-.58,17.07,17.07,0,0,1-3.79-1.55,17.78,17.78,0,0,1-3.37-2.47,19.73,19.73,0,0,1-2.84-3.3,22.48,22.48,0,0,1-2.18-4,25.49,25.49,0,0,1-1.45-4.53,28.2,28.2,0,0,1-.66-4.9,31,31,0,0,1,.15-5.09A33.92,33.92,0,0,1,1081.52,97.31Z"/><text class="cls-14" transform="translate(988.34 456.53)">Modular</text><text class="cls-15" transform="translate(950.85 497.53)">po<tspan class="cls-16" x="26.1" y="0">r</tspan><tspan class="cls-17" x="34.42" y="0">table set of in</tspan><tspan class="cls-18" x="169.3" y="0">t</tspan><tspan class="cls-17" x="177.04" y="0">er</tspan><tspan class="cls-19" x="197.14" y="0">f</tspan><tspan class="cls-20" x="203.72" y="0">a</tspan><tspan class="cls-21" x="215.56" y="0">c</tspan><tspan x="226.64" y="0">es</tspan></text><line class="cls-22" x1="583" y1="245" x2="779.39" y2="245"/><path class="cls-23" d="M758.89,259.4a1.49,1.49,0,0,1,.46-2.07L778.71,245l-19.36-12.33a1.5,1.5,0,0,1,1.61-2.53l21.35,13.59a1.51,1.51,0,0,1,0,2.54L761,259.86a1.48,1.48,0,0,1-.8.23A1.5,1.5,0,0,1,758.89,259.4Z"/></g><g id="Stationary"><text class="cls-14" transform="translate(182.23 454.2)">Stationa<tspan class="cls-24" x="175.56" y="0">r</tspan><tspan class="cls-25" x="193.4" y="0">y</tspan></text><path class="cls-23" d="M324.53,200.3h8.93l1.78-30.36L337,200.3h14.28v70.52H354V244.94H364.7V171.73h2.68v-5.36h4.46v-4.46H379l1.78-29.46.89,29.46h7.15v4.46h4.46v5.36h3.57v99.09h3.57V223.51h32.14v71.42h-283v-61.6l32.14-9.82v40.17h3.57V187.8l15.18-8L204,164.59l13.39-7.14V270.82H221V146.73h4.46v-2.68H221v-9.82h32.14v9.82h-4.47v2.68h4.47v79.46h3.57V113.7h10.71V97.63h2.68V49.42h2.68V25.32h.89v24.1h1.79V97.63h2.68V113.7h10.71V270.82h3.57V151.2h5.36l15.17,28.56h11.61Zm-40.18,61.6h1.79v3.57h-1.79Zm-15.17,0h2.68v3.57h-2.68Zm5.35-6.25h1.79v3.57h-1.79Zm9.82-5.36h1.79v3.57h-1.79Zm-25,0H262v3.57h-2.68Zm25-13.39h1.79v3.57h-1.79Zm-15.17,0h2.68v3.57h-2.68Zm-9.82,0H262v3.57h-2.68Zm15.17-5.36h1.79v2.68h-1.79Zm-15.17,0H262v2.68h-2.68Zm25-6.25h1.79v3.58h-1.79Zm-19.64,0h1.79v3.58h-1.79Zm-92.84,44.64h1.78v3.57h-1.78Zm-19.64,0H154v3.57h-1.78Zm24.1-6.25H179v3.57h-2.68Zm-9.82,0h2.68v3.57h-2.68Zm-9.82,0h2.68v3.57h-2.68Zm-4.46-5.35H154v3.57h-1.78Zm24.1-5.36H179v2.68h-2.68Zm-14.28,0h1.78v2.68h-1.78Zm9.82-6.25h1.78v3.57h-1.78Zm-15.18,0h2.68v3.57h-2.68Zm-4.46,0H154v3.57h-1.78Zm19.64-5.36h1.78V244h-1.78Zm-5.36,0h2.68V244h-2.68Zm-4.46,0h1.78V244h-1.78Zm-5.36,0h2.68V244h-2.68Zm19.64-6.25H179v3.58h-2.68Zm-4.46,0h1.78v3.58h-1.78Zm-9.82,0h1.78v3.58h-1.78Zm-5.36,0h2.68v3.58h-2.68Zm-4.46,0H154v3.58h-1.78Zm265.14,37.5h1.79v2.68h-1.79Zm-15.17,0h2.68v2.68H402.2Zm25-6.25H429v3.57h-1.79Zm-15.17,0h2.68v3.57H412ZM422.73,261h1.79v2.68h-1.79Zm-20.53,0h2.68v2.68H402.2Zm25-6.24H429v3.57h-1.79Zm-25,0h2.68v3.57H402.2Zm20.53-5.36h1.79v2.68h-1.79Zm-10.71,0h2.68v2.68H412Zm-4.47,0h1.79v2.68h-1.79Zm19.64-6.25H429v3.57h-1.79Zm-9.82,0h1.79v3.57h-1.79Zm-5.35,0h2.68v3.57H412Zm-9.82,0h2.68v3.57H402.2Zm20.53-5.36h1.79v3.57h-1.79Zm-5.36,0h1.79v3.57h-1.79Zm-9.82,0h1.79v3.57h-1.79Zm-5.35,0h2.68v3.57H402.2Zm25-6.25H429v3.57h-1.79Zm-4.46,0h1.79v3.57h-1.79Zm-5.36,0h1.79v3.57h-1.79Zm-5.35,0h2.68v3.57H412Zm-4.47,0h1.79v3.57h-1.79Zm-5.35,0h2.68v3.57H402.2Zm25-5.35H429v3.57h-1.79Zm-4.46,0h1.79v3.57h-1.79Zm-10.71,0h2.68v3.57H412Zm-4.47,0h1.79v3.57h-1.79Zm-5.35,0h2.68v3.57H402.2Zm-93.74,44.63h2.68v2.68h-2.68Zm-9.82,0h2.68v2.68h-2.68Zm9.82-6.24h2.68v3.57h-2.68ZM304,259.22h1.79v2.68H304Zm4.47-6.25h2.68v3.57h-2.68ZM304,247.61h1.79v3.57H304Zm-5.35,0h2.68v3.57h-2.68Zm9.82-6.25h2.68v3.58h-2.68Zm-9.82,0h2.68v3.58h-2.68ZM304,236h1.79v3.57H304Zm4.47-5.36h2.68v2.68h-2.68Zm-4.47,0h1.79v2.68H304Zm-5.35,0h2.68v2.68h-2.68ZM304,224.4h1.79V228H304Zm-5.35,0h2.68V228h-2.68Zm9.82-5.35h2.68v2.67h-2.68Zm-9.82,0h2.68v2.67h-2.68Zm9.82-6.25h2.68v3.57h-2.68Zm-4.47,0h1.79v3.57H304Zm-5.35,0h2.68v3.57h-2.68Zm9.82-5.36h2.68v2.68h-2.68Zm-4.47,0h1.79v2.68H304Zm-5.35,0h2.68v2.68h-2.68Zm5.35-6.25h1.79v3.57H304Zm-5.35,0h2.68v3.57h-2.68Zm9.82-5.36h2.68v3.58h-2.68Zm-4.47,0h1.79v3.58H304Zm-5.35,0h2.68v3.58h-2.68Zm9.82-6.25h2.68v3.58h-2.68Zm-9.82,0h2.68v3.58h-2.68Zm9.82-5.35h2.68v3.57h-2.68Zm-4.47,0h1.79v3.57H304Zm-5.35,0h2.68v3.57h-2.68Zm42.85,89.27h1.79v3.57h-1.79Zm-15.18,0H329v3.57h-2.68Zm9.82-6.25h2.68v3.57h-2.68Zm-14.28,0h1.79v3.57h-1.79ZM346,261.9h2.68v3.57H346Zm-14.28,0h1.79v3.57h-1.79Zm9.82-5.36h1.79v2.68h-1.79Zm-19.64,0h1.79v2.68h-1.79Zm19.64-11.6h1.79v2.67h-1.79Zm-15.18,0H329v2.67h-2.68ZM346,238.69h2.68v3.57H346Zm-9.82,0h2.68v3.57h-2.68Zm-14.28,0h1.79v3.57h-1.79Zm24.1-5.36h2.68V236H346Zm-4.46,0h1.79V236h-1.79Zm-9.82,0h1.79V236h-1.79Zm-9.82,0h1.79V236h-1.79Zm19.64-6.25h1.79v3.57h-1.79Zm-9.82,0h1.79v3.57h-1.79Zm-5.36,0H329v3.57h-2.68ZM346,221.72h2.68v3.57H346Zm-4.46,0h1.79v3.57h-1.79Zm-5.36,0h2.68v3.57h-2.68Zm-9.82,0H329v3.57h-2.68Zm-4.46,0h1.79v3.57h-1.79Zm24.1-6.25h2.68v3.58H346Zm-4.46,0h1.79v3.58h-1.79Zm-9.82,0h1.79v3.58h-1.79Zm-5.36,0H329v3.58h-2.68Zm-4.46,0h1.79v3.58h-1.79Zm24.1-5.35h2.68v3.57H346Zm-4.46,0h1.79v3.57h-1.79Zm-5.36,0h2.68v3.57h-2.68Zm-4.46,0h1.79v3.57h-1.79Zm-9.82,0h1.79v3.57h-1.79Zm24.1-5.36h2.68v2.68H346Zm-9.82,0h2.68v2.68h-2.68Zm-4.46,0h1.79v2.68h-1.79Zm-5.36,0H329v2.68h-2.68Zm-4.46,0h1.79v2.68h-1.79Zm69.63,67.85h2.68v3.57h-2.68Zm-14.28,0H379v3.57H377.2Zm-9.82,0h1.79v3.57h-1.79ZM387,267.25h1.79v2.68H387Zm-15.18,0h1.79v2.68h-1.79ZM391.48,261h2.68v3.58h-2.68Zm-14.28,0H379v3.58H377.2Zm-9.82,0h1.79v3.58h-1.79Zm14.28-5.35h1.79v3.57h-1.79Zm-14.28,0h1.79v3.57h-1.79Zm24.1-6.25h2.68V253h-2.68Zm-14.28,0H379V253H377.2Zm-9.82,0h1.79V253h-1.79ZM387,244h1.79v3.57H387Zm-9.82,0H379v3.57H377.2Zm-5.36,0h1.79v3.57h-1.79Zm19.64-5.35h2.68v2.67h-2.68Zm-24.1,0h1.79v2.67h-1.79Zm24.1-6.25h2.68V236h-2.68Zm-4.46,0h1.79V236H387Zm-9.82,0H379V236H377.2Zm-9.82,0h1.79V236h-1.79ZM387,227.08h1.79v2.68H387Zm-5.36,0h1.79v2.68h-1.79Zm-4.46,0H379v2.68H377.2Zm-5.36,0h1.79v2.68h-1.79Zm19.64-6.25h2.68v3.57h-2.68Zm-19.64,0h1.79v3.57h-1.79Zm-4.46,0h1.79v3.57h-1.79Zm24.1-5.36h2.68v2.68h-2.68Zm-4.46,0h1.79v2.68H387Zm-5.36,0h1.79v2.68h-1.79Zm-4.46,0H379v2.68H377.2Zm-5.36,0h1.79v2.68h-1.79Zm-4.46,0h1.79v2.68h-1.79Zm24.1-6.24h2.68v3.57h-2.68Zm-9.82,0h1.79v3.57h-1.79Zm-4.46,0H379v3.57H377.2Zm14.28-5.36h2.68v3.57h-2.68Zm-4.46,0h1.79v3.57H387Zm-5.36,0h1.79v3.57h-1.79Zm-4.46,0H379v3.57H377.2Zm-5.36,0h1.79v3.57h-1.79Zm-4.46,0h1.79v3.57h-1.79ZM387,197.62h1.79v3.57H387Zm-5.36,0h1.79v3.57h-1.79Zm-4.46,0H379v3.57H377.2Zm-5.36,0h1.79v3.57h-1.79Zm19.64-5.36h2.68v3.57h-2.68Zm-9.82,0h1.79v3.57h-1.79Zm-4.46,0H379v3.57H377.2Zm-5.36,0h1.79v3.57h-1.79Zm-4.46,0h1.79v3.57h-1.79Zm24.1-5.35h2.68v2.67h-2.68Zm-4.46,0h1.79v2.67H387Zm-5.36,0h1.79v2.67h-1.79Zm-4.46,0H379v2.67H377.2Zm-5.36,0h1.79v2.67h-1.79Zm-4.46,0h1.79v2.67h-1.79Zm24.1-6.25h2.68v3.57h-2.68Zm-4.46,0h1.79v3.57H387Zm-9.82,0H379v3.57H377.2Zm-9.82,0h1.79v3.57h-1.79ZM387,175.3h1.79V178H387Zm-5.36,0h1.79V178h-1.79Zm-4.46,0H379V178H377.2Zm-5.36,0h1.79V178h-1.79Zm-4.46,0h1.79V178h-1.79Zm-175,95.52h2.68v3.58H192.4Zm5.36-6.24h1.78v3.57h-1.78Zm15.17-5.36h1.79v3.57h-1.79Zm-25,0h1.78v3.57h-1.78Zm9.82-5.36h1.78v2.68h-1.78Zm15.17-6.25h1.79v3.57h-1.79Zm-25,0h1.78v3.57h-1.78Zm19.64-5.35h1.78v2.68h-1.78Zm-15.18,0h2.68v2.68H192.4ZM212.93,236h1.79v3.57h-1.79Zm-9.82,0h1.79v3.57h-1.79Zm-5.35,0h1.78v3.57h-1.78Zm-9.82,0h1.78v3.57h-1.78Zm19.64-5.36h1.78v2.68h-1.78Zm-9.82,0h1.78v2.68h-1.78Zm-9.82,0h1.78v2.68h-1.78Zm25-6.25h1.79V228h-1.79Zm-9.82,0h1.79V228h-1.79Zm-5.35,0h1.78V228h-1.78Zm-5.36,0h2.68V228H192.4Zm20.53-5.35h1.79v3.57h-1.79Zm-9.82,0h1.79v3.57h-1.79Zm-5.35,0h1.78v3.57h-1.78Zm-9.82,0h1.78v3.57h-1.78Zm25-6.25h1.79v3.57h-1.79Zm-5.35,0h1.78v3.57h-1.78Zm-9.82,0h1.78v3.57h-1.78Zm-5.36,0h2.68v3.57H192.4Zm15.18-5.36h1.78V211h-1.78Zm-4.47,0h1.79V211h-1.79Zm-10.71,0h2.68V211H192.4Zm-4.46,0h1.78V211h-1.78Zm25-6.25h1.79v3.57h-1.79Zm-5.35,0h1.78v3.57h-1.78Zm-9.82,0h1.78v3.57h-1.78Zm-5.36,0h2.68v3.57H192.4Zm20.53-5.36h1.79v3.58h-1.79Zm-9.82,0h1.79v3.58h-1.79Zm-5.35,0h1.78v3.58h-1.78Zm-9.82,0h1.78v3.58h-1.78Zm25-5.35h1.79v2.68h-1.79Zm-9.82,0h1.79v2.68h-1.79Zm-5.35,0h1.78v2.68h-1.78Zm-9.82,0h1.78v2.68h-1.78Zm60.7,63.38h1.79v2.68h-1.79Zm-15.17,0h2.68v2.68h-2.68Zm-9.82,0h2.68v2.68h-2.68Zm20.53-6.25H246v3.57h-1.79Zm-5.36-5.35h1.79v2.68h-1.79Zm-15.17,0h2.68v2.68h-2.68Zm25-6.25h1.79v3.57h-1.79Zm-4.46,0H246v3.57h-1.79Zm-5.36-5.36h1.79v3.57h-1.79Zm-9.82,0h1.79v3.57H229Zm-5.35,0h2.68v3.57h-2.68Zm15.17-6.25h1.79V228h-1.79Zm9.82-5.35h1.79v3.57h-1.79Zm-4.46,0H246v3.57h-1.79Zm-15.18,0h1.79v3.57H229Zm9.82-5.36h1.79v2.68h-1.79Zm5.36-6.25H246V211h-1.79Zm-10.71,0h2.68V211h-2.68Zm-9.82,0h2.68V211h-2.68Zm25-5.36h1.79v2.68h-1.79Zm-19.64,0h1.79v2.68H229Zm-5.35,0h2.68v2.68h-2.68Zm15.17-6.25h1.79v3.58h-1.79Zm-5.35,0h2.68v3.58h-2.68Zm-4.47,0h1.79v3.58H229Zm19.64-5.35h1.79v2.68h-1.79Zm-4.46,0H246v2.68h-1.79Zm-15.18,0h1.79v2.68H229Zm-5.35,0h2.68v2.68h-2.68Zm9.82-6.25h2.68v3.57h-2.68Zm-9.82,0h2.68v3.57h-2.68Zm25-5.36h1.79v3.57h-1.79Zm-9.82,0h1.79v3.57h-1.79Zm-5.35,0h2.68v3.57h-2.68Zm-9.82,0h2.68v3.57h-2.68Zm25-6.25h1.79v3.57h-1.79Zm-4.46,0H246v3.57h-1.79Zm-15.18,0h1.79v3.57H229Zm19.64-5.35h1.79v3.57h-1.79Zm-4.46,0H246v3.57h-1.79Zm-10.71,0h2.68v3.57h-2.68Zm-4.47,0h1.79v3.57H229Zm-5.35,0h2.68v3.57h-2.68Zm25-5.36h1.79v2.68h-1.79Zm-9.82,0h1.79v2.68h-1.79Zm-5.35,0h2.68v2.68h-2.68Zm-4.47,0h1.79v2.68H229Zm-5.35,0h2.68v2.68h-2.68Zm25-6.25h1.79v3.57h-1.79Zm-4.46,0H246v3.57h-1.79Zm-5.36,0h1.79v3.57h-1.79Zm-5.35,0h2.68v3.57h-2.68Zm-9.82,0h2.68v3.57h-2.68Zm25-5.36h1.79V153h-1.79Zm-9.82,0h1.79V153h-1.79Zm-5.35,0h2.68V153h-2.68Zm-4.47,0h1.79V153H229Zm-5.35,0h2.68V153h-2.68ZM279,219.94h2.68v3.57H279Zm-9.82,0h2.68v3.57h-2.68Zm-9.82,0H262v3.57h-2.68Zm25-5.36h1.79v2.68h-1.79Zm-9.82,0h1.79v2.68h-1.79Zm-9.82,0h1.79v2.68h-1.79Zm-5.35,0H262v2.68h-2.68ZM279,208.33h2.68v3.57H279ZM274.53,203h1.79v2.67h-1.79Zm-9.82,0h1.79v2.67h-1.79Zm-5.35,0H262v2.67h-2.68Zm25-6.25h1.79v3.57h-1.79Zm-9.82,0h1.79v3.57h-1.79Zm-9.82,0h1.79v3.57h-1.79ZM279,191.37h2.68v3.57H279Zm-9.82,0h2.68v3.57h-2.68Zm-4.47,0h1.79v3.57h-1.79Zm-5.35,0H262v3.57h-2.68Zm25-6.25h1.79v3.57h-1.79Zm-5.35,0h2.68v3.57H279Zm-9.82,0h2.68v3.57h-2.68Zm-9.82,0H262v3.57h-2.68Zm25-5.36h1.79v3.58h-1.79Zm-9.82,0h1.79v3.58h-1.79Zm-5.35,0h2.68v3.58h-2.68Zm-4.47,0h1.79v3.58h-1.79ZM279,174.41h2.68v2.68H279Zm-9.82,0h2.68v2.68h-2.68Zm-9.82,0H262v2.68h-2.68Zm25-6.25h1.79v3.57h-1.79Zm-5.35,0h2.68v3.57H279Zm-4.47,0h1.79v3.57h-1.79Zm-5.35,0h2.68v3.57h-2.68Zm-4.47,0h1.79v3.57h-1.79Zm-5.35,0H262v3.57h-2.68Zm15.17-5.36h1.79v2.68h-1.79Zm-5.35,0h2.68v2.68h-2.68Zm-4.47,0h1.79v2.68h-1.79Zm-5.35,0H262v2.68h-2.68Zm25-6.25h1.79v3.57h-1.79Zm-5.35,0h2.68v3.57H279Zm-4.47,0h1.79v3.57h-1.79Zm-9.82,0h1.79v3.57h-1.79Zm19.64-5.35h1.79v2.68h-1.79Zm-9.82,0h1.79v2.68h-1.79Zm-5.35,0h2.68v2.68h-2.68Zm-4.47,0h1.79v2.68h-1.79Zm-5.35,0H262v2.68h-2.68ZM279,145h2.68v3.57H279Zm-4.47,0h1.79v3.57h-1.79Zm-5.35,0h2.68v3.57h-2.68Zm-9.82,0H262v3.57h-2.68Zm25-5.36h1.79v3.57h-1.79Zm-5.35,0h2.68v3.57H279Zm-9.82,0h2.68v3.57h-2.68Zm-4.47,0h1.79v3.57h-1.79Zm-5.35,0H262v3.57h-2.68Zm25-6.25h1.79v3.57h-1.79Zm-5.35,0h2.68v3.57H279Zm-9.82,0h2.68v3.57h-2.68Zm-9.82,0H262v3.57h-2.68Zm25-5.35h1.79v3.57h-1.79ZM279,128h2.68v3.57H279Zm-4.47,0h1.79v3.57h-1.79Zm-5.35,0h2.68v3.57h-2.68Zm-4.47,0h1.79v3.57h-1.79Zm-5.35,0H262v3.57h-2.68Zm25-5.36h1.79v2.68h-1.79Zm-9.82,0h1.79v2.68h-1.79Zm-5.35,0h2.68v2.68h-2.68Zm-9.82,0H262v2.68h-2.68Zm25-6.25h1.79V120h-1.79Zm-5.35,0h2.68V120H279Zm-4.47,0h1.79V120h-1.79Zm-5.35,0h2.68V120h-2.68Zm-4.47,0h1.79V120h-1.79Zm-5.35,0H262V120h-2.68Z"/><text class="cls-15" transform="translate(180.2 497.53)"><tspan class="cls-20">n</tspan><tspan class="cls-17" x="13.58" y="0">e</tspan><tspan class="cls-19" x="25.66" y="0">t</tspan><tspan class="cls-26" x="33.58" y="0">w</tspan><tspan x="50.86" y="0">o</tspan><tspan class="cls-27" x="63.4" y="0">r</tspan><tspan x="71.26" y="0">k of </tspan><tspan class="cls-26" x="113.08" y="0">w</tspan><tspan x="130.36" y="0">o</tspan><tspan class="cls-27" x="142.9" y="0">r</tspan><tspan class="cls-28" x="150.76" y="0">k</tspan><tspan x="162.46" y="0">s</tspan><tspan class="cls-29" x="172.24" y="0">h</tspan><tspan x="185.82" y="0">ops</tspan></text></g></svg>