<svg id="Layer_1" data-name="Layer 1" xmlns="http://www.w3.org/2000/svg" xmlns:xlink="http://www.w3.org/1999/xlink" viewBox="0 0 816 576"><defs><style>.cls-1,.cls-54,.cls-55,.cls-56,.cls-57{fill:none;}.cls-2{font-size:15px;}.cls-11,.cls-12,.cls-18,.cls-2,.cls-23,.cls-50{fill:#231f20;}.cls-2,.cls-43{font-family:Helvetica-Bold, Helvetica;font-weight:700;}.cls-3{letter-spacing:0.05em;}.cls-4{letter-spacing:0.05em;}.cls-5{letter-spacing:-0.02em;}.cls-6{letter-spacing:0.05em;}.cls-7{letter-spacing:-0.04em;}.cls-8{letter-spacing:0.03em;}.cls-9{letter-spacing:0.05em;}.cls-10{letter-spacing:-0.02em;}.cls-11,.cls-26{font-size:12px;}.cls-11,.cls-12,.cls-18,.cls-23,.cls-26,.cls-29,.cls-36{font-family:Helvetica;}.cls-12{font-size:7px;}.cls-13{letter-spacing:0.05em;}.cls-14{letter-spacing:0.05em;}.cls-15{letter-spacing:0.05em;}.cls-16{letter-spacing:0.05em;}.cls-17{letter-spacing:0.05em;}.cls-18{font-size:10px;}.cls-19{letter-spacing:0.05em;}.cls-20{letter-spacing:0.05em;}.cls-21{letter-spacing:0.05em;}.cls-22{letter-spacing:0.05em;}.cls-23{font-size:8px;}.cls-24{letter-spacing:0.05em;}.cls-25{letter-spacing:0.05em;}.cls-26,.cls-43,.cls-53{fill:#b93e4e;}.cls-27{letter-spacing:0.05em;}.cls-28{letter-spacing:0.05em;}.cls-29,.cls-36{font-size:11px;}.cls-29,.cls-38{letter-spacing:0.05em;}.cls-30{letter-spacing:0.05em;}.cls-31{letter-spacing:0.05em;}.cls-32{letter-spacing:0em;}.cls-33{letter-spacing:0.05em;}.cls-34{letter-spacing:0.05em;}.cls-35{letter-spacing:0em;}.cls-37{letter-spacing:0.05em;}.cls-39{letter-spacing:0.05em;}.cls-40{letter-spacing:0.01em;}.cls-41{letter-spacing:0.05em;}.cls-42{letter-spacing:0.05em;}.cls-43{font-size:26px;}.cls-44{letter-spacing:0.05em;}.cls-45{letter-spacing:0.05em;}.cls-46{letter-spacing:0.05em;}.cls-47{letter-spacing:0.03em;}.cls-48{clip-path:url(#clip-path);}.cls-49{fill:#e1e2e3;}.cls-51{clip-path:url(#clip-path-4);}.cls-52{clip-path:url(#clip-path-5);}.cls-54,.cls-56{stroke:#000;}.cls-54,.cls-57{stroke-miterlimit:10;}.cls-54,.cls-55,.cls-56,.cls-57{stroke-width:0.75px;}.cls-55{stroke:#231f20;}.cls-57{stroke:#2a2f36;}.cls-58{fill:#2a2f36;}</style><clipPath id="clip-path"><rect class="cls-1" x="-175" y="2.19" width="816.14" height="570.81"/></clipPath><clipPath id="clip-path-4"><path class="cls-1" d="M417.39,60.39c0,.11.05.22.07.34h-.06c0,.27,0,.54,0,.8a.24.24,0,0,1-.18-.13c0-.08-.05-.19-.11-.23a9.29,9.29,0,0,0-.93-.61.29.29,0,0,0-.29,0,1.17,1.17,0,0,0-.13.46c0,.65,0,1.31-.06,2,0,0,0,0,0,0-.17.34-.33.68-.49,1s-.41.89-.61,1.34c-.08.16-.1.37-.22.48a1.92,1.92,0,0,0-.49,1.34,2.28,2.28,0,0,1-.59,1.73c-.08.07-.06.3-.05.45a4.21,4.21,0,0,1,.06.79,5,5,0,0,0-.08.66v0a1.14,1.14,0,0,0,.19.65.35.35,0,0,1,.08.24c-.05.33,0,.57.47.61-.13.09-.25.11-.29.18a1.09,1.09,0,0,0,.14.94c.06.07.09.26,0,.31a.5.5,0,0,0-.07.62,6.29,6.29,0,0,1,.32.7c.11.35.32.68.15,1.08a.36.36,0,0,0,.16.44c.37.31.91.41,1.13.91,0,0,.11,0,.16.08s.14.06.18.11c.2.3.4.59.57.9a1,1,0,0,1,.18.52c0,.51,0,.51.47.62.06,0,.13,0,.19,0,.52.18,1.1.09,1.6.48s1.22.75,1.82,1.14c.35.24.65.55,1,.8a1.51,1.51,0,0,0,.52.22c.53.1,1.08.16,1.61.26s.54.11.77-.41c.42.06.86.11,1.29.18a.44.44,0,0,1,.23.16q.42.48.81,1a1.87,1.87,0,0,1,.42.73,2.27,2.27,0,0,0,.78,1.43c.5.48.71.46,1-.15a.43.43,0,0,1,.56-.29c.21,0,.44.05.66.08a.24.24,0,0,1,.17.06,3.84,3.84,0,0,1,.74,1.15,3.16,3.16,0,0,0,.56,1.15,2.36,2.36,0,0,1,.43.94,1.13,1.13,0,0,0,.76,1c.24.07.46.16.69.25s.38.19.58.26a.33.33,0,0,0,.23,0s0-.14,0-.2a1.47,1.47,0,0,1-.13-1c.07-.26.13-.53.18-.79.08-.06.25-.15.24-.2,0-.23.16-.27.26-.38s.37-.1.32-.36c.11,0,.23,0,.34,0s.12.1.16.09a1,1,0,0,0,.89-1c0-.09,0-.17,0-.19.16,0,.3.08.41,0a2.72,2.72,0,0,1,1.76,0c.24.07.5.15.62-.22a2.57,2.57,0,0,1,.63.43,1,1,0,0,0,1.37,0,2,2,0,0,1,.34.22c.15.12.32.22.44,0s-.06-.27-.2-.34-.28-.21-.1-.39a.37.37,0,0,0,.11-.19c0-.08,0-.19,0-.23s-.12,0-.19,0h0l-.17,0s0-.08,0-.12c.33,0,.66-.09,1-.12s.5,0,.62-.27c0,.39.09.41.44.26.13,0,.25-.16.38-.16h.24a1.13,1.13,0,0,1,.94.25c.13.12.35.15.48.28a.38.38,0,0,0,.54.07c.15-.08.31-.14.46-.23a.52.52,0,0,1,.8.15,2,2,0,0,0,.5.51c.28.16.29.39.36.65s-.18.77.28,1c0,0,0,.08,0,.12.06.34.1.7.49.86.06,0,.07.12.12.18.21.3.43.59.65.89a4.94,4.94,0,0,0,.35.45h1a1.26,1.26,0,0,0,.06-.47c0-.15,0-.3,0-.45a4.77,4.77,0,0,0-.11-1.08c-.18-.59-.57-1.09-.7-1.7a.28.28,0,0,0-.09-.17,3.66,3.66,0,0,1-.85-1.66,2,2,0,0,1-.06-.85,6.59,6.59,0,0,1,.3-1,1.13,1.13,0,0,1,.11-.22l.27-.41c.35,0,.36,0,.83-.56a3.35,3.35,0,0,0,.3-.52c.19-.31.33-.67.76-.78a.66.66,0,0,0,.34-.3,1.06,1.06,0,0,1,.79-.67.37.37,0,0,0,.34-.44,2.55,2.55,0,0,0-.27-.57c.39.31.57,0,.68-.19.28-.53-.3-.4-.57-.59l.4-.15c-.16-.33,0-.84-.53-.86.07-.58-.34-1-.37-1.54s-.45-.81.1-1.19a.83.83,0,0,0,0,.3,2.2,2.2,0,0,0,.23.93.91.91,0,0,1,.22.84,1.22,1.22,0,0,0,.12.5l.16,0c.22-.87.63-1.76-.26-2.58A1.38,1.38,0,0,1,454,74c.19.15.28.08.35-.11a7.4,7.4,0,0,0,.29-.91c0-.16-.06-.33-.09-.5s-.1-.32,0-.39a1.78,1.78,0,0,1,1.2-.86,1,1,0,0,0,.84-.58c.08,0,.18.06.22,0a.56.56,0,0,1,.44-.14.33.33,0,0,0,.31-.52c-.22.2-.36.08-.56-.08-.36-.29-.22-.7-.34-1,0,0,0-.08,0-.12.09-.22.17-.45.27-.67,0-.06.09-.1.15-.14s.17-.07.23-.12l.67-.74c.07,0,.24,0,.34,0a8.08,8.08,0,0,0,.79-.63.36.36,0,0,0,.09-.21h0c-.18-.13-.17-.51-.52-.42,0,0-.11,0-.13-.08-.12-.24-.25-.47-.35-.71a6.15,6.15,0,0,0-.25-.76,1.48,1.48,0,0,0-.46-.53c-.07,0-.26.11-.4.14a1.72,1.72,0,0,1-.32,0c-.13,0-.34,0-.37,0a2.24,2.24,0,0,0-.27.88,3.8,3.8,0,0,1-.14,1.61c-.3.07-.63.11-.63.47l-2.41.55a.47.47,0,0,0-.27.16c-.24.32-.47.65-.69,1,0,0,0,.09,0,.13l.11.5a1.29,1.29,0,0,1-1.23.47,2.4,2.4,0,0,0-.69.13c-.2.06-.34.16-.2.43a.38.38,0,0,1,0,.36,7.3,7.3,0,0,1-1,.9,12.26,12.26,0,0,1-1.29.69.71.71,0,0,1-.87-.17c.17-.39.33-.81.52-1.21s-.13-.64-.16-1c0-.15-.23-.41-.36-.41s-.31.23-.46.35a.57.57,0,0,1-.18.1,1.08,1.08,0,0,1,0-.16.43.43,0,0,1,.08-.18c.48-.43.07-.93.1-1.39,0-.06-.11-.16-.2-.19a6.45,6.45,0,0,0-.85-.27c-.4-.08-.43,0-.36.31l-.28.47a.38.38,0,0,0-.32,0,2,2,0,0,0-.37,1.21.83.83,0,0,0,0,.47,2.11,2.11,0,0,1,0,1.58,1.42,1.42,0,0,1-.3.45c-.1.13-.22.13-.32,0a2.23,2.23,0,0,1-.34-1.72,4.55,4.55,0,0,1,.48-1.88s0-.15,0-.17a.23.23,0,0,0-.2,0c-.1.09-.19.21-.29.32l-.06,0c.22-.32.44-.65.63-.91.16.05.28.12.34.09.23-.12.44-.29.67-.41a.43.43,0,0,1,.36,0c.37.21.63,0,1-.12-.27-.28-.32-.7-.79-.63,0,0-.1-.08-.16-.1a.75.75,0,0,0-.32-.06c-.33.09-.64.21-1,.31a.37.37,0,0,1-.21,0l-1-.42c.1-.11.22-.22.31-.34a1,1,0,0,0,.05-.26c-.08,0-.18,0-.23,0-.22.13-.43.27-.64.42a2.47,2.47,0,0,1-1.3.57c-.16-.37-.16-.37-.94,0a3.65,3.65,0,0,1,.24-.29c.38-.28.76-.54,1.13-.83a1.3,1.3,0,0,0,.22-.29,2.61,2.61,0,0,0-.27-.19.5.5,0,0,0-.24-.06,3.15,3.15,0,0,1-1.55-.46,1.17,1.17,0,0,0-.58-.13c-.6,0-.82-.1-1.06-.63a1.18,1.18,0,0,0-.18-.21c-.06.06-.15.12-.18.19s-.18.22-.39.2c-1-.07-2-.1-3.08-.16-.38,0-.76-.06-1.14-.11s-.8-.11-1.2-.16c-.59-.08-1.19-.15-1.78-.25s-1.3-.24-1.95-.36c-.43-.07-.86-.12-1.29-.2s-.73-.18-1.09-.26c-.56-.13-1.14-.21-1.7-.36-.84-.22-1.68-.48-2.51-.73l-3.32-1-.12,0a2.48,2.48,0,0,0-.27,0"/></clipPath><clipPath id="clip-path-5"><rect class="cls-1" y="2.19" width="816.14" height="570.81"/></clipPath></defs><title>MU Explore Output</title><text class="cls-2" transform="translate(50.39 134.09)"><tspan class="cls-3">PE</tspan><tspan class="cls-4" x="21.51" y="0">RC</tspan><tspan class="cls-3" x="44.65" y="0">E</tspan><tspan class="cls-4" x="55.4" y="0">N</tspan><tspan class="cls-5" x="66.97" y="0">T</tspan><tspan class="cls-6" x="75.78" y="0">A</tspan><tspan class="cls-3" x="87.35" y="0">GE OF S</tspan><tspan class="cls-5" x="153.44" y="0">T</tspan><tspan class="cls-7" x="162.26" y="0">A</tspan><tspan class="cls-8" x="172.48" y="0">Y</tspan><tspan class="cls-9" x="182.96" y="0" xml:space="preserve"> I</tspan><tspan class="cls-4" x="192.8" y="0">N</tspan><tspan class="cls-3" x="204.37" y="0" xml:space="preserve"> T</tspan><tspan class="cls-4" x="219.2" y="0">H</tspan><tspan class="cls-3" x="230.76" y="0">E </tspan><tspan class="cls-4" x="246.44" y="0">D</tspan><tspan class="cls-3" x="258" y="0">O</tspan><tspan class="cls-6" x="270.42" y="0">R</tspan><tspan x="281.99" y="0">M</tspan></text><text class="cls-2" transform="translate(35.79 442.15)"><tspan class="cls-3">T</tspan><tspan class="cls-4" x="9.91" y="0">R</tspan><tspan class="cls-3" x="21.48" y="0">O</tspan><tspan class="cls-6" x="33.9" y="0">UB</tspan><tspan class="cls-3" x="57.03" y="0">L</tspan><tspan x="66.95" y="0">E</tspan></text><text class="cls-2" transform="translate(450.5 134.09)"><tspan class="cls-4">AC</tspan><tspan class="cls-3" x="23.14" y="0">TIVITIES I</tspan><tspan class="cls-4" x="99.81" y="0">N</tspan><tspan class="cls-3" x="111.38" y="0" xml:space="preserve"> O</tspan><tspan class="cls-4" x="128.71" y="0">R</tspan><tspan class="cls-3" x="140.28" y="0">IE</tspan><tspan class="cls-4" x="155.95" y="0">N</tspan><tspan class="cls-10" x="167.52" y="0">TA</tspan><tspan class="cls-3" x="186.83" y="0">TIO</tspan><tspan class="cls-6" x="214.07" y="0">N</tspan><tspan class="cls-3" x="225.64" y="0" xml:space="preserve"> WEE</tspan><tspan x="266.98" y="0">K</tspan></text><text class="cls-2" transform="translate(459.57 397.03)"><tspan class="cls-3">TI</tspan><tspan class="cls-4" x="14.83" y="0">M</tspan><tspan class="cls-3" x="28.06" y="0">E FO</tspan><tspan class="cls-6" x="66.06" y="0">R</tspan><tspan class="cls-3" x="77.63" y="0"> </tspan><tspan class="cls-4" x="82.55" y="0">CAM</tspan><tspan class="cls-3" x="118.91" y="0">P</tspan><tspan class="cls-6" x="129.67" y="0">U</tspan><tspan class="cls-3" x="141.24" y="0">S EXPLO</tspan><tspan class="cls-4" x="211.5" y="0">R</tspan><tspan class="cls-5" x="223.07" y="0">A</tspan><tspan class="cls-3" x="233.56" y="0">TIO</tspan><tspan x="260.8" y="0">N</tspan></text><text class="cls-11" transform="translate(31.56 202.27)"><tspan class="cls-4">60</tspan><tspan x="14.52" y="0">%</tspan></text><text class="cls-11" transform="translate(302.92 202.27)"><tspan class="cls-4">20</tspan><tspan x="14.52" y="0">%</tspan></text><text class="cls-11" transform="translate(461.56 507.78)"><tspan class="cls-4">90</tspan><tspan x="14.52" y="0">%</tspan></text><text class="cls-11" transform="translate(437.88 289.68)"><tspan class="cls-4">40</tspan><tspan x="14.52" y="0">%</tspan></text><text class="cls-12" transform="translate(437.34 195.52) rotate(-45)"><tspan class="cls-13">hangou</tspan><tspan class="cls-14" x="25.42" y="0">t </tspan><tspan class="cls-13" x="30.01" y="0">wi</tspan><tspan class="cls-14" x="37.3" y="0">t</tspan><tspan class="cls-15" x="39.6" y="0">h</tspan><tspan class="cls-16" x="43.83" y="0" xml:space="preserve"> f</tspan><tspan class="cls-13" x="48.42" y="0">riend</tspan><tspan x="65.7" y="0">s</tspan></text><text class="cls-12" transform="translate(648.26 199.16) rotate(-45)"><tspan class="cls-13">hangou</tspan><tspan class="cls-14" x="25.42" y="0">t </tspan><tspan class="cls-13" x="30.01" y="0">wi</tspan><tspan class="cls-14" x="37.3" y="0">t</tspan><tspan class="cls-15" x="39.6" y="0">h</tspan><tspan class="cls-16" x="43.83" y="0" xml:space="preserve"> f</tspan><tspan class="cls-13" x="48.42" y="0">riend</tspan><tspan x="65.7" y="0">s</tspan></text><text class="cls-12" transform="translate(474.33 195.39) rotate(-45)"><tspan class="cls-14">f</tspan><tspan class="cls-13" x="2.29" y="0">amily</tspan><tspan class="cls-16" x="20.34" y="0" xml:space="preserve"> t</tspan><tspan class="cls-15" x="24.93" y="0">rip</tspan><tspan x="33.74" y="0">s</tspan></text><text class="cls-12" transform="translate(684.37 197.21) rotate(-45)"><tspan class="cls-14">f</tspan><tspan class="cls-13" x="2.29" y="0">amil</tspan><tspan class="cls-14" x="16.5" y="0">y t</tspan><tspan class="cls-15" x="24.94" y="0">rip</tspan><tspan x="33.75" y="0">s</tspan></text><text class="cls-12" transform="translate(505.43 197.61) rotate(-45)"><tspan class="cls-14">f</tspan><tspan class="cls-13" x="2.29" y="0">amiliar</tspan><tspan class="cls-14" x="25.31" y="0"> </tspan><tspan class="cls-15" x="27.6" y="0">wi</tspan><tspan class="cls-14" x="34.9" y="0">t</tspan><tspan class="cls-13" x="37.2" y="0">h</tspan><tspan class="cls-14" x="41.43" y="0"> </tspan><tspan class="cls-13" x="43.73" y="0">campu</tspan><tspan x="66.45" y="0">s</tspan></text><text class="cls-12" transform="translate(715.47 199.44) rotate(-45)"><tspan class="cls-14">f</tspan><tspan class="cls-13" x="2.29" y="0">amiliar</tspan><tspan class="cls-14" x="25.31" y="0"> </tspan><tspan class="cls-15" x="27.6" y="0">wi</tspan><tspan class="cls-14" x="34.9" y="0">t</tspan><tspan class="cls-15" x="37.19" y="0">h</tspan><tspan class="cls-17" x="41.43" y="0"> </tspan><tspan class="cls-13" x="43.73" y="0">campu</tspan><tspan x="66.45" y="0">s</tspan></text><text class="cls-11" transform="translate(650.79 291.12)"><tspan class="cls-4">15</tspan><tspan x="14.52" y="0">%</tspan></text><text class="cls-11" transform="translate(472.94 289.68)"><tspan class="cls-4">55</tspan><tspan x="14.52" y="0">%</tspan></text><text class="cls-11" transform="translate(685.84 291.12)"><tspan class="cls-4">10</tspan><tspan x="14.52" y="0">%</tspan></text><text class="cls-11" transform="translate(510.29 289.68)"><tspan class="cls-4">5</tspan><tspan x="7.26" y="0">%</tspan></text><text class="cls-11" transform="translate(719.56 291.12)"><tspan class="cls-4">75</tspan><tspan x="14.52" y="0">%</tspan></text><text class="cls-18" transform="translate(197.74 412.41)"><tspan class="cls-6">Mind</tspan><tspan class="cls-3" x="23.63" y="0">s</tspan><tspan class="cls-6" x="29.13" y="0">e</tspan><tspan x="35.19" y="0">t</tspan></text><text class="cls-18" transform="translate(255.82 436.73)"><tspan class="cls-3">F</tspan><tspan class="cls-6" x="6.61" y="0">eel</tspan><tspan class="cls-3" x="21.42" y="0"> </tspan><tspan class="cls-19" x="24.7" y="0">embarra</tspan><tspan class="cls-3" x="65.37" y="0">ss</tspan><tspan class="cls-6" x="76.37" y="0">ing</tspan><tspan x="91.18" y="0"> </tspan></text><text class="cls-18" transform="translate(255.82 448.73)"><tspan class="cls-3">t</tspan><tspan class="cls-6" x="3.28" y="0">o</tspan><tspan class="cls-3" x="9.33" y="0"> </tspan><tspan class="cls-19" x="12.61" y="0">ma</tspan><tspan class="cls-3" x="27.48" y="0">k</tspan><tspan class="cls-19" x="32.98" y="0">e</tspan><tspan class="cls-3" x="39.03" y="0"> </tspan><tspan class="cls-6" x="42.31" y="0">mi</tspan><tspan class="cls-3" x="53.84" y="0">st</tspan><tspan class="cls-6" x="62.62" y="0">a</tspan><tspan class="cls-3" x="68.67" y="0">k</tspan><tspan x="74.17" y="0">e</tspan></text><text class="cls-18" transform="translate(181.58 502.2)"><tspan class="cls-6">La</tspan><tspan class="cls-3" x="12.1" y="0">ck </tspan><tspan class="cls-6" x="26.38" y="0">o</tspan><tspan class="cls-3" x="32.43" y="0">f </tspan><tspan class="cls-19" x="38.99" y="0">in</tspan><tspan class="cls-3" x="47.75" y="0">f</tspan><tspan class="cls-19" x="51.03" y="0">orma</tspan><tspan class="cls-3" x="75.77" y="0">t</tspan><tspan class="cls-19" x="79.05" y="0">ion</tspan><tspan class="cls-3" x="93.87" y="0"> </tspan><tspan class="cls-6" x="97.15" y="0">abou</tspan><tspan class="cls-3" x="121.35" y="0">t</tspan><tspan x="124.63" y="0"> </tspan></text><text class="cls-18" transform="translate(181.58 514.2)"><tspan class="cls-20">the</tspan><tspan class="cls-21" x="15.31" y="0"> </tspan><tspan class="cls-22" x="18.57" y="0">new</tspan><tspan class="cls-21" x="38.32" y="0"> </tspan><tspan class="cls-20" x="41.58" y="0">en</tspan><tspan class="cls-21" x="53.65" y="0">v</tspan><tspan class="cls-22" x="59.13" y="0">ironmen</tspan><tspan class="cls-21" x="98.54" y="0">t</tspan><tspan class="cls-22" x="101.8" y="0">, don’</tspan><tspan class="cls-19" x="129.08" y="0">t</tspan><tspan x="132.35" y="0"> </tspan></text><text class="cls-18" transform="translate(181.58 526.2)"><tspan class="cls-3">k</tspan><tspan class="cls-6" x="5.5" y="0">now</tspan><tspan class="cls-3" x="25.31" y="0"> </tspan><tspan class="cls-19" x="28.59" y="0">where</tspan><tspan class="cls-3" x="58.28" y="0" xml:space="preserve"> t</tspan><tspan class="cls-6" x="64.84" y="0">o</tspan><tspan class="cls-3" x="70.89" y="0"> </tspan><tspan class="cls-19" x="74.17" y="0">g</tspan><tspan x="80.22" y="0">o</tspan></text><text class="cls-18" transform="translate(208.34 468.78)"><tspan class="cls-6">Languag</tspan><tspan x="42.36" y="0">e</tspan></text><text class="cls-23" transform="translate(691.28 304.48)"><tspan class="cls-24">Lo</tspan><tspan class="cls-25" x="9.68" y="0">c</tspan><tspan class="cls-24" x="14.08" y="0">a</tspan><tspan x="18.92" y="0">l</tspan></text><text class="cls-23" transform="translate(684.45 314.08)"><tspan class="cls-25">St</tspan><tspan class="cls-24" x="8.36" y="0">uden</tspan><tspan class="cls-25" x="27.72" y="0">t</tspan><tspan x="30.35" y="0">s</tspan></text><text class="cls-23" transform="translate(220.13 262.26)"><tspan class="cls-24">Loca</tspan><tspan x="18.92" y="0">l</tspan></text><text class="cls-23" transform="translate(213.31 271.86)"><tspan class="cls-25">St</tspan><tspan class="cls-24" x="8.36" y="0">uden</tspan><tspan class="cls-25" x="27.72" y="0">t</tspan><tspan x="30.35" y="0">s</tspan></text><text class="cls-26" transform="translate(58.99 335.64)"><tspan class="cls-27">I</tspan><tspan class="cls-4" x="3.93" y="0">n</tspan><tspan class="cls-27" x="11.2" y="0">t</tspan><tspan class="cls-4" x="15.13" y="0">erna</tspan><tspan class="cls-27" x="41.5" y="0">t</tspan><tspan class="cls-4" x="45.43" y="0">ional</tspan><tspan class="cls-9" x="73.73" y="0" xml:space="preserve"> st</tspan><tspan class="cls-4" x="88.19" y="0">uden</tspan><tspan class="cls-27" x="117.24" y="0">ts </tspan><tspan class="cls-28" x="131.71" y="0">ha</tspan><tspan class="cls-27" x="146.23" y="0">v</tspan><tspan class="cls-4" x="152.83" y="0">e</tspan><tspan class="cls-27" x="160.1" y="0"> </tspan><tspan class="cls-4" x="164.03" y="0">higher</tspan><tspan class="cls-27" x="200.92" y="0"> </tspan><tspan class="cls-4" x="204.85" y="0">ra</tspan><tspan class="cls-27" x="216.69" y="0">t</tspan><tspan class="cls-4" x="220.63" y="0">e</tspan><tspan class="cls-27" x="227.89" y="0"> </tspan><tspan class="cls-4" x="231.82" y="0">o</tspan><tspan class="cls-27" x="239.09" y="0">f </tspan><tspan class="cls-4" x="246.95" y="0">s</tspan><tspan class="cls-27" x="253.54" y="0">t</tspan><tspan class="cls-4" x="257.48" y="0">a</tspan><tspan class="cls-27" x="264.74" y="0">y</tspan><tspan class="cls-4" x="271.34" y="0">ing</tspan><tspan class="cls-9" x="289.12" y="0"> </tspan><tspan class="cls-28" x="293.05" y="0">in</tspan><tspan x="303.57" y="0"> </tspan></text><text class="cls-26" transform="translate(76.39 350.04)"><tspan class="cls-27">t</tspan><tspan class="cls-4" x="3.93" y="0">he</tspan><tspan class="cls-27" x="18.46" y="0"> </tspan><tspan class="cls-4" x="22.39" y="0">dorm</tspan><tspan class="cls-27" x="52.08" y="0"> </tspan><tspan class="cls-4" x="56.02" y="0">when</tspan><tspan class="cls-9" x="87.06" y="0" xml:space="preserve"> t</tspan><tspan class="cls-4" x="94.92" y="0">he</tspan><tspan class="cls-9" x="109.45" y="0">y f</tspan><tspan class="cls-4" x="123.92" y="0">ir</tspan><tspan class="cls-9" x="131.75" y="0">st c</tspan><tspan class="cls-4" x="152.82" y="0">ome</tspan><tspan class="cls-27" x="177.93" y="0" xml:space="preserve"> t</tspan><tspan class="cls-4" x="185.8" y="0">o</tspan><tspan class="cls-27" x="193.06" y="0" xml:space="preserve"> t</tspan><tspan class="cls-4" x="200.93" y="0">he</tspan><tspan class="cls-27" x="215.45" y="0"> </tspan><tspan class="cls-4" x="219.39" y="0">campu</tspan><tspan class="cls-27" x="258.34" y="0">s</tspan><tspan x="264.94" y="0">.</tspan></text><text class="cls-29" transform="translate(536.19 440.97)">M<tspan class="cls-30" x="9.7" y="0">y </tspan><tspan x="19.36" y="0">app</tspan><tspan class="cls-31" x="39.33" y="0" xml:space="preserve"> f</tspan><tspan x="46.54" y="0">ocuses</tspan><tspan class="cls-31" x="84.63" y="0"> </tspan><tspan x="88.23" y="0">on</tspan><tspan class="cls-31" x="101.55" y="0" xml:space="preserve"> t</tspan><tspan x="108.76" y="0">he</tspan><tspan class="cls-30" x="122.07" y="0"> </tspan><tspan x="125.68" y="0">e</tspan><tspan class="cls-31" x="132.34" y="0">x</tspan><tspan x="138.39" y="0">perience</tspan><tspan class="cls-30" x="184.89" y="0"> </tspan><tspan x="188.5" y="0">during</tspan><tspan class="cls-32" x="222.31" y="0"> </tspan></text><text class="cls-29" transform="translate(536.19 455.98)">orien<tspan class="cls-31" x="27.15" y="0">t</tspan><tspan x="30.76" y="0">a</tspan><tspan class="cls-30" x="37.42" y="0">t</tspan><tspan x="41.02" y="0">ion</tspan><tspan class="cls-30" x="57.32" y="0"> </tspan><tspan x="60.93" y="0">wee</tspan><tspan class="cls-30" x="82.72" y="0">k f</tspan><tspan x="95.98" y="0">or</tspan><tspan class="cls-30" x="106.84" y="0"> </tspan><tspan x="110.45" y="0">bo</tspan><tspan class="cls-30" x="123.76" y="0">t</tspan><tspan x="127.37" y="0">h</tspan><tspan class="cls-30" x="134.03" y="0"> </tspan><tspan x="137.63" y="0">in</tspan><tspan class="cls-31" x="147.27" y="0">t</tspan><tspan class="cls-33" x="150.88" y="0">erna</tspan><tspan class="cls-30" x="175.05" y="0">t</tspan><tspan x="178.66" y="0">ional</tspan><tspan class="cls-30" x="204.59" y="0"> </tspan><tspan class="cls-34" x="208.2" y="0">and</tspan><tspan class="cls-35" x="228.17" y="0"> </tspan></text><text class="cls-36" transform="translate(536.19 470.98)"><tspan class="cls-37">lo</tspan><tspan class="cls-38" x="9.62" y="0">c</tspan><tspan class="cls-37" x="15.66" y="0">al</tspan><tspan class="cls-38" x="25.27" y="0" xml:space="preserve"> f</tspan><tspan class="cls-37" x="32.46" y="0">re</tspan><tspan class="cls-38" x="43.3" y="0">s</tspan><tspan class="cls-37" x="49.34" y="0">hmen</tspan><tspan class="cls-38" x="78.97" y="0" xml:space="preserve"> st</tspan><tspan class="cls-37" x="92.2" y="0">uden</tspan><tspan class="cls-38" x="118.78" y="0">ts </tspan><tspan class="cls-37" x="132.01" y="0">con</tspan><tspan class="cls-33" x="151.33" y="0">s</tspan><tspan class="cls-39" x="157.37" y="0">ider</tspan><tspan class="cls-38" x="177.82" y="0"> </tspan><tspan class="cls-37" x="181.42" y="0">orien</tspan><tspan class="cls-38" x="208.52" y="0">t</tspan><tspan class="cls-39" x="212.11" y="0">a</tspan><tspan class="cls-33" x="218.76" y="0">t</tspan><tspan class="cls-37" x="222.35" y="0">io</tspan><tspan class="cls-38" x="231.97" y="0">n</tspan><tspan x="238.63" y="0"> </tspan></text><text class="cls-29" transform="translate(536.19 485.98)">wee<tspan class="cls-30" x="21.8" y="0">k </tspan><tspan x="31.45" y="0">as</tspan><tspan class="cls-31" x="44.15" y="0"> </tspan><tspan class="cls-33" x="47.75" y="0">an</tspan><tspan class="cls-31" x="61.07" y="0"> </tspan><tspan x="64.67" y="0">impor</tspan><tspan class="cls-30" x="94.87" y="0">t</tspan><tspan x="98.48" y="0">an</tspan><tspan class="cls-31" x="111.79" y="0">t </tspan><tspan x="119.01" y="0">even</tspan><tspan class="cls-30" x="145.02" y="0">t </tspan><tspan x="152.23" y="0">allowing</tspan><tspan class="cls-31" x="196.29" y="0" xml:space="preserve"> t</tspan><tspan x="203.5" y="0">hem</tspan><tspan class="cls-32" x="226.51" y="0"> </tspan></text><text class="cls-36" transform="translate(536.19 500.99)"><tspan class="cls-30">t</tspan><tspan class="cls-38" x="3.61" y="0">o</tspan><tspan class="cls-31" x="10.26" y="0"> </tspan><tspan class="cls-38" x="13.87" y="0">e</tspan><tspan class="cls-30" x="20.53" y="0">x</tspan><tspan class="cls-38" x="26.58" y="0">plore</tspan><tspan class="cls-31" x="53.73" y="0"> </tspan><tspan class="cls-38" x="57.34" y="0">in</tspan><tspan class="cls-31" x="66.98" y="0"> </tspan><tspan class="cls-38" x="70.58" y="0">a</tspan><tspan class="cls-30" x="77.24" y="0"> </tspan><tspan class="cls-38" x="80.85" y="0">new</tspan><tspan class="cls-30" x="102.64" y="0"> </tspan><tspan class="cls-38" x="106.25" y="0">en</tspan><tspan class="cls-30" x="119.56" y="0">v</tspan><tspan class="cls-38" x="125.61" y="0">ironmen</tspan><tspan class="cls-31" x="169.12" y="0">t</tspan><tspan x="172.73" y="0">.</tspan></text><text class="cls-26" transform="translate(467.8 341.97)"><tspan class="cls-4">Lo</tspan><tspan class="cls-27" x="14.52" y="0">c</tspan><tspan class="cls-4" x="21.12" y="0">al</tspan><tspan class="cls-9" x="31.64" y="0" xml:space="preserve"> St</tspan><tspan class="cls-4" x="48.11" y="0">uden</tspan><tspan class="cls-27" x="77.16" y="0">ts</tspan><tspan class="cls-40" x="87.69" y="0">’</tspan><tspan class="cls-27" x="90.51" y="0"> </tspan><tspan class="cls-4" x="94.45" y="0">a</tspan><tspan class="cls-27" x="101.71" y="0">ct</tspan><tspan class="cls-4" x="112.24" y="0">i</tspan><tspan class="cls-27" x="115.5" y="0">v</tspan><tspan class="cls-4" x="122.1" y="0">i</tspan><tspan class="cls-27" x="125.35" y="0">t</tspan><tspan class="cls-4" x="129.29" y="0">ie</tspan><tspan class="cls-27" x="139.8" y="0">s t</tspan><tspan class="cls-4" x="154.27" y="0">o</tspan><tspan class="cls-27" x="161.53" y="0"> </tspan><tspan class="cls-4" x="165.47" y="0">ge</tspan><tspan class="cls-27" x="179.99" y="0">t f</tspan><tspan class="cls-28" x="191.79" y="0">amiliar</tspan><tspan class="cls-27" x="231.25" y="0"> </tspan><tspan class="cls-4" x="235.18" y="0">wi</tspan><tspan class="cls-27" x="247.69" y="0">t</tspan><tspan class="cls-4" x="251.62" y="0">h</tspan><tspan x="258.88" y="0"> </tspan></text><text class="cls-26" transform="translate(561.41 356.37)"><tspan class="cls-27">t</tspan><tspan class="cls-4" x="3.93" y="0">he</tspan><tspan class="cls-27" x="18.46" y="0"> </tspan><tspan class="cls-4" x="22.39" y="0">campus</tspan><tspan x="67.94" y="0">.</tspan></text><text class="cls-23" transform="translate(500.07 69.47)"><tspan class="cls-24">Lo</tspan><tspan class="cls-25" x="9.68" y="0">c</tspan><tspan class="cls-24" x="14.08" y="0">a</tspan><tspan x="18.92" y="0">l</tspan></text><text class="cls-23" transform="translate(500.07 79.07)"><tspan class="cls-25">St</tspan><tspan class="cls-24" x="8.36" y="0">uden</tspan><tspan class="cls-25" x="27.72" y="0">t</tspan><tspan x="30.35" y="0">s</tspan></text><text class="cls-23" transform="translate(95.56 263.7)"><tspan class="cls-25">I</tspan><tspan class="cls-24" x="2.62" y="0">n</tspan><tspan class="cls-25" x="7.46" y="0">t</tspan><tspan class="cls-24" x="10.09" y="0">erna</tspan><tspan class="cls-41" x="27.67" y="0">t</tspan><tspan class="cls-42" x="30.29" y="0">iona</tspan><tspan x="46.98" y="0">l</tspan></text><text class="cls-23" transform="translate(102.79 273.3)"><tspan class="cls-25">St</tspan><tspan class="cls-24" x="8.36" y="0">uden</tspan><tspan class="cls-25" x="27.72" y="0">t</tspan><tspan x="30.35" y="0">s</tspan></text><text class="cls-23" transform="translate(458.71 304.48)"><tspan class="cls-25">I</tspan><tspan class="cls-24" x="2.62" y="0">n</tspan><tspan class="cls-25" x="7.46" y="0">t</tspan><tspan class="cls-24" x="10.09" y="0">erna</tspan><tspan class="cls-41" x="27.67" y="0">t</tspan><tspan class="cls-24" x="30.29" y="0">iona</tspan><tspan x="46.98" y="0">l</tspan></text><text class="cls-23" transform="translate(465.93 314.08)"><tspan class="cls-25">St</tspan><tspan class="cls-24" x="8.36" y="0">uden</tspan><tspan class="cls-25" x="27.72" y="0">t</tspan><tspan x="30.35" y="0">s</tspan></text><text class="cls-23" transform="translate(435.03 521.62)"><tspan class="cls-24">o</tspan><tspan class="cls-25" x="4.84" y="0">f </tspan><tspan class="cls-24" x="10.09" y="0">campus</tspan><tspan class="cls-25" x="40.45" y="0"> </tspan><tspan class="cls-24" x="43.07" y="0">e</tspan><tspan class="cls-25" x="47.91" y="0">x</tspan><tspan class="cls-24" x="52.31" y="0">plora</tspan><tspan class="cls-41" x="72.06" y="0">t</tspan><tspan class="cls-42" x="74.69" y="0">ion</tspan><tspan x="86.54" y="0"> </tspan></text><text class="cls-23" transform="translate(423.15 531.22)"><tspan class="cls-24">happens</tspan><tspan class="cls-25" x="33.44" y="0"> </tspan><tspan class="cls-24" x="36.06" y="0">in</tspan><tspan class="cls-25" x="43.07" y="0"> </tspan><tspan class="cls-24" x="45.7" y="0">orien</tspan><tspan class="cls-25" x="65.44" y="0">t</tspan><tspan class="cls-24" x="68.07" y="0">a</tspan><tspan class="cls-25" x="72.91" y="0">t</tspan><tspan class="cls-24" x="75.53" y="0">ion</tspan><tspan class="cls-25" x="87.38" y="0"> </tspan><tspan class="cls-24" x="90.01" y="0">wee</tspan><tspan x="105.86" y="0">k</tspan></text><text class="cls-23" transform="translate(322.99 70.48)"><tspan class="cls-25">I</tspan><tspan class="cls-24" x="2.62" y="0">n</tspan><tspan class="cls-25" x="7.46" y="0">t</tspan><tspan class="cls-24" x="10.09" y="0">erna</tspan><tspan class="cls-41" x="27.67" y="0">t</tspan><tspan class="cls-42" x="30.29" y="0">iona</tspan><tspan x="46.98" y="0">l</tspan></text><text class="cls-23" transform="translate(322.99 80.08)"><tspan class="cls-25">St</tspan><tspan class="cls-24" x="8.36" y="0">uden</tspan><tspan class="cls-25" x="27.72" y="0">t</tspan><tspan x="30.35" y="0">s</tspan></text><text class="cls-43" transform="translate(209.21 35.1)"><tspan class="cls-44">20</tspan><tspan class="cls-45" x="31.47" y="0" xml:space="preserve"> F</tspan><tspan class="cls-44" x="57.17" y="0">R</tspan><tspan class="cls-45" x="77.22" y="0">ES</tspan><tspan class="cls-44" x="114.51" y="0">HM</tspan><tspan class="cls-45" x="157.49" y="0">E</tspan><tspan class="cls-44" x="176.13" y="0">N</tspan><tspan class="cls-46" x="196.18" y="0" xml:space="preserve"> I</tspan><tspan class="cls-44" x="213.23" y="0">N</tspan><tspan class="cls-46" x="233.28" y="0">TE</tspan><tspan class="cls-47" x="269.1" y="0">R</tspan><tspan class="cls-46" x="288.71" y="0">VIEWE</tspan><tspan x="379" y="0">D</tspan></text><g class="cls-48"><path class="cls-49" d="M256.92,62.6a13.22,13.22,0,1,0,13.22,13.22A13.22,13.22,0,0,0,256.92,62.6m0,1.65a11.57,11.57,0,1,1-11.57,11.57,11.58,11.58,0,0,1,11.57-11.57"/><path class="cls-49" d="M256.92,62.6c-4.1,0-7.43,5.92-7.43,13.22S252.82,89,256.92,89s7.44-5.92,7.44-13.22S261,62.6,256.92,62.6m0,1.65c1.35,0,2.74,1.11,3.82,3a17.75,17.75,0,0,1,2,8.54,17.72,17.72,0,0,1-2,8.54c-1.08,1.93-2.47,3-3.82,3s-2.73-1.1-3.82-3a17.84,17.84,0,0,1-2-8.54,17.87,17.87,0,0,1,2-8.54c1.09-1.92,2.48-3,3.82-3"/></g><rect class="cls-49" x="256.1" y="62.6" width="1.65" height="26.45"/><g class="cls-48"><path class="cls-49" d="M256.92,71.69a19.54,19.54,0,0,1-10.61-2.81l.92-1.37a19.82,19.82,0,0,0,19.38,0l.92,1.37a19.45,19.45,0,0,1-10.61,2.81"/><path class="cls-49" d="M266.61,84.22a19.82,19.82,0,0,0-19.38,0l-.92-1.37a21.44,21.44,0,0,1,21.22,0Z"/></g><rect class="cls-49" x="243.7" y="75" width="26.44" height="1.65"/><g class="cls-48"><path class="cls-50" d="M275.54,71.49v-2a10.51,10.51,0,0,0,4-.93c.75-.43,1.31-1.46,1.69-3.08h2.08V86.35h-2.82V71.49Z"/><path class="cls-50" d="M291.41,81.63a9.07,9.07,0,0,1,3.8-3.65L298,76.36a13.17,13.17,0,0,0,2.65-1.88,3.86,3.86,0,0,0,1.2-2.79,3.9,3.9,0,0,0-1.09-2.91,4,4,0,0,0-2.93-1.08,3.82,3.82,0,0,0-3.75,2.06,7.21,7.21,0,0,0-.62,3H290.8a9.53,9.53,0,0,1,1-4.47q1.71-3,6.05-3,3.6,0,5.27,2a6.53,6.53,0,0,1,1.66,4.33A5.9,5.9,0,0,1,303,75.89a17.77,17.77,0,0,1-3.68,2.52l-2,1.11A13,13,0,0,0,295.08,81a5.51,5.51,0,0,0-1.85,2.83h11.46v2.49h-14.4a12.28,12.28,0,0,1,1.12-4.72"/><path class="cls-50" d="M477.36,71.6a3.19,3.19,0,0,0,1-2.33,3.07,3.07,0,0,0-.94-2.16,3.77,3.77,0,0,0-2.85-1A3.16,3.16,0,0,0,471,69.42a2.77,2.77,0,0,0,1.09,2.32,4.2,4.2,0,0,0,2.59.83,3.68,3.68,0,0,0,2.72-1M477.85,82a3.6,3.6,0,0,0,1.21-3,3.82,3.82,0,0,0-1.25-3.09,4.73,4.73,0,0,0-3.19-1.06A4.44,4.44,0,0,0,471.53,76a3.83,3.83,0,0,0-1.19,3,4,4,0,0,0,1.09,2.83,4.35,4.35,0,0,0,3.38,1.2,4.65,4.65,0,0,0,3-1m-8.51-9.49a4.13,4.13,0,0,1-1.15-3,5.48,5.48,0,0,1,1.69-4,6.58,6.58,0,0,1,4.82-1.69,6.66,6.66,0,0,1,4.72,1.59,5.16,5.16,0,0,1,.72,6.9,6,6,0,0,1-1.73,1.34,6.61,6.61,0,0,1,2.06,1.38,5.31,5.31,0,0,1,1.4,3.81A6.48,6.48,0,0,1,480,83.43a7,7,0,0,1-5.26,1.93,8.12,8.12,0,0,1-5.18-1.66,5.78,5.78,0,0,1-2.12-4.83,5.38,5.38,0,0,1,3.61-5.29,5.26,5.26,0,0,1-1.72-1.1"/><path class="cls-49" d="M417.39,60.39a3.4,3.4,0,0,1,.07.34h-.06c0,.27,0,.54,0,.8a.24.24,0,0,1-.18-.13c0-.08-.05-.19-.11-.23a9.29,9.29,0,0,0-.93-.61.32.32,0,0,0-.29,0,1.27,1.27,0,0,0-.13.47c0,.65,0,1.31-.06,2,0,0,0,0,0,0-.17.34-.33.68-.49,1s-.41.89-.61,1.34c-.08.16-.1.37-.21.48a1.88,1.88,0,0,0-.5,1.34,2.26,2.26,0,0,1-.59,1.73c-.08.07-.05.3-.05.45a4.21,4.21,0,0,1,.06.79,5,5,0,0,0-.08.66v0a1.14,1.14,0,0,0,.19.65.35.35,0,0,1,.08.24c-.05.33,0,.57.47.61-.13.09-.25.11-.28.18a1,1,0,0,0,.14.94.39.39,0,0,1,0,.31.49.49,0,0,0-.08.62,6.29,6.29,0,0,1,.32.7c.11.35.32.68.16,1.08a.35.35,0,0,0,.15.44c.37.31.91.42,1.13.91,0,0,.11,0,.16.08s.14.06.18.11c.2.3.4.59.57.9a1,1,0,0,1,.18.52c0,.51,0,.51.47.62a1.25,1.25,0,0,1,.19,0c.52.18,1.1.09,1.6.48s1.22.75,1.82,1.14c.35.24.65.55,1,.8a1.6,1.6,0,0,0,.52.22c.53.1,1.08.16,1.61.26s.54.11.77-.41c.42.06.86.11,1.29.18a.44.44,0,0,1,.23.16c.28.32.56.65.81,1a1.87,1.87,0,0,1,.42.73,2.27,2.27,0,0,0,.78,1.43c.5.48.71.46,1-.15a.45.45,0,0,1,.57-.29c.21.05.44.05.66.08a.24.24,0,0,1,.17.06,3.72,3.72,0,0,1,.74,1.15,3.31,3.31,0,0,0,.55,1.15,2.25,2.25,0,0,1,.44.94,1.13,1.13,0,0,0,.76,1c.24.07.46.16.69.25s.38.19.58.26a.33.33,0,0,0,.23,0s0-.14,0-.2a1.42,1.42,0,0,1-.12-1c.06-.26.12-.53.17-.79.08-.06.25-.15.24-.2,0-.23.16-.27.26-.38s.37-.1.32-.36c.11,0,.23,0,.34,0s.12.1.16.09a1,1,0,0,0,.89-1c0-.09,0-.17,0-.19.17,0,.3.08.41,0a2.66,2.66,0,0,1,1.76,0c.24.07.5.15.62-.23a2.9,2.9,0,0,1,.63.44,1,1,0,0,0,1.37,0,2.46,2.46,0,0,1,.34.22c.15.12.32.22.44,0s-.06-.27-.2-.34-.28-.21-.1-.39a.47.47,0,0,0,.12-.19c0-.08,0-.19,0-.23s-.12,0-.19,0h0l-.17,0s0-.08,0-.12c.33,0,.66-.09,1-.12s.5,0,.62-.27c0,.39.09.41.44.26a1,1,0,0,1,.38-.16h.24a1.13,1.13,0,0,1,.94.25c.13.12.35.15.48.28a.39.39,0,0,0,.54.08c.15-.09.31-.15.46-.24a.52.52,0,0,1,.8.14,1.91,1.91,0,0,0,.5.52c.28.16.29.39.36.65s-.18.77.28,1c0,0,0,.08,0,.12.06.34.1.7.49.86.06,0,.07.12.12.18.21.3.43.59.65.89a5.9,5.9,0,0,0,.37.47l0,0h.9a.88.88,0,0,0,.09-.52c0-.15,0-.3,0-.45a4.71,4.71,0,0,0-.11-1.08c-.18-.59-.57-1.09-.7-1.7a.28.28,0,0,0-.09-.17,3.57,3.57,0,0,1-.85-1.66,2,2,0,0,1-.06-.85,6.59,6.59,0,0,1,.3-1,1.13,1.13,0,0,1,.11-.22c.08-.12.16-.23.27-.41.35,0,.36,0,.83-.56a3.35,3.35,0,0,0,.3-.52c.2-.31.34-.67.76-.78a.62.62,0,0,0,.34-.3,1.06,1.06,0,0,1,.79-.67.37.37,0,0,0,.34-.44,2.55,2.55,0,0,0-.27-.57c.39.31.57,0,.68-.19.28-.53-.3-.4-.57-.59l.4-.15c-.16-.33,0-.84-.53-.86.07-.58-.34-1-.37-1.54s-.45-.81.1-1.19a.83.83,0,0,0,0,.3,2.2,2.2,0,0,0,.23.93.91.91,0,0,1,.22.84,1.22,1.22,0,0,0,.12.5l.16,0c.22-.87.63-1.76-.26-2.58A1.38,1.38,0,0,1,454,74c.19.15.28.08.35-.11a7.45,7.45,0,0,0,.3-.91,1.53,1.53,0,0,0-.1-.5c0-.13-.1-.32,0-.39a1.78,1.78,0,0,1,1.2-.86,1,1,0,0,0,.84-.58c.08,0,.18.06.22,0a.57.57,0,0,1,.44-.14.33.33,0,0,0,.31-.52c-.22.2-.36.08-.56-.08-.36-.29-.22-.7-.34-1,0,0,0-.08,0-.12.08-.22.16-.45.26-.67,0-.06.09-.1.15-.14s.17-.07.23-.12l.67-.74c.07,0,.24,0,.34,0a8.08,8.08,0,0,0,.79-.63.36.36,0,0,0,.09-.21h0c-.18-.13-.17-.51-.52-.42,0,0-.11,0-.13-.08-.12-.23-.25-.47-.35-.71s-.12-.53-.24-.76a1.61,1.61,0,0,0-.47-.53c-.07,0-.26.11-.4.14a1.72,1.72,0,0,1-.32,0c-.13,0-.34,0-.37,0a2.24,2.24,0,0,0-.27.88,3.8,3.8,0,0,1-.14,1.61c-.3.07-.63.11-.63.47l-2.41.55a.47.47,0,0,0-.27.16c-.24.32-.47.65-.69,1,0,0,0,.09,0,.13l.11.5a1.29,1.29,0,0,1-1.23.47,2.4,2.4,0,0,0-.69.13c-.2.06-.34.16-.2.43a.34.34,0,0,1,0,.36,6.71,6.71,0,0,1-1,.9,12.26,12.26,0,0,1-1.29.69.71.71,0,0,1-.87-.17c.17-.39.33-.81.52-1.21s-.13-.64-.16-1c0-.15-.23-.41-.36-.41s-.31.23-.46.36l-.18.09a1.08,1.08,0,0,1,0-.16.43.43,0,0,1,.08-.18c.48-.43.07-.93.1-1.39,0-.06-.11-.16-.2-.19a6.45,6.45,0,0,0-.85-.27c-.4-.08-.43,0-.36.31l-.28.47a.35.35,0,0,0-.32,0,2,2,0,0,0-.37,1.2.83.83,0,0,0,0,.47,2.11,2.11,0,0,1,0,1.58,1.42,1.42,0,0,1-.3.45c-.1.13-.22.13-.32,0a2.23,2.23,0,0,1-.34-1.72,4.55,4.55,0,0,1,.48-1.88.17.17,0,0,0,0-.17.23.23,0,0,0-.2,0c-.1.09-.19.21-.29.32l-.06,0c.22-.32.44-.65.63-.91.16.05.28.12.34.09.23-.12.44-.29.67-.41a.43.43,0,0,1,.36,0c.37.21.63,0,1-.12-.27-.28-.32-.7-.79-.63,0,0-.1-.08-.16-.1a.73.73,0,0,0-.32-.06c-.33.09-.64.21-1,.31a.37.37,0,0,1-.21,0l-1-.42c.1-.11.22-.22.31-.34a.71.71,0,0,0,.05-.26c-.08,0-.18,0-.24,0s-.42.28-.63.43a2.47,2.47,0,0,1-1.3.57c-.16-.37-.16-.37-.94,0a3.65,3.65,0,0,1,.24-.29l1.13-.83a1.3,1.3,0,0,0,.22-.29,2.61,2.61,0,0,0-.27-.19.5.5,0,0,0-.24-.06,3.15,3.15,0,0,1-1.55-.46,1.17,1.17,0,0,0-.58-.13c-.6,0-.82-.1-1.06-.63a1.18,1.18,0,0,0-.18-.21c-.06.06-.15.12-.18.19s-.18.22-.39.2c-1-.07-2-.11-3.08-.16-.38,0-.76-.06-1.14-.11s-.8-.11-1.2-.16c-.59-.08-1.19-.15-1.78-.25s-1.3-.24-1.95-.36c-.43-.07-.86-.12-1.29-.2s-.72-.18-1.09-.26c-.56-.13-1.14-.21-1.69-.36-.85-.22-1.69-.48-2.52-.73l-3.32-1h-.12l-.27,0"/></g><g class="cls-51"><rect class="cls-49" x="413.15" y="58.59" width="25.76" height="31.9"/></g><polygon class="cls-49" points="439.04 85.99 436.19 85.99 436.19 65.5 439.04 66.04 439.04 85.99"/><g class="cls-52"><path class="cls-53" d="M238.54,206.25,264.09,187a31.19,31.19,0,0,1,3.9,31.76Z"/><path class="cls-49" d="M233.3,207.26l28.83,12.23a31.32,31.32,0,1,1-16.59-41.07,29.92,29.92,0,0,1,12.77,10Z"/><path class="cls-54" d="M267,221.56a37.11,37.11,0,1,1-19.66-48.65,35.4,35.4,0,0,1,15.14,11.82"/><path class="cls-50" d="M260.57,184.5a1.31,1.31,0,1,0,.26-1.83,1.31,1.31,0,0,0-.26,1.83"/><path class="cls-50" d="M265.45,223.25a1.31,1.31,0,1,0,.26-1.84,1.31,1.31,0,0,0-.26,1.84"/><path class="cls-54" d="M269.17,182.42A38.78,38.78,0,0,1,274,221.87"/><path class="cls-50" d="M273.6,221.63a1.3,1.3,0,0,0,1.83.26,1.31,1.31,0,1,0-1.57-2.09,1.3,1.3,0,0,0-.26,1.83"/><path class="cls-50" d="M269.06,184.14a1.31,1.31,0,1,0,.26-1.83,1.31,1.31,0,0,0-.26,1.83"/><path class="cls-53" d="M122,207.05l19.82,27.29a33.73,33.73,0,0,1-39.65-54.58A32.33,32.33,0,0,1,122,173.32Z"/><path class="cls-49" d="M124.53,205.87V177.11a28.75,28.75,0,0,1,28.76,28.76,27.87,27.87,0,0,1-11.85,23.26Z"/><path class="cls-54" d="M146.13,240a40.68,40.68,0,0,1-47.74-65.89,38.81,38.81,0,0,1,23.87-7.78"/><path class="cls-50" d="M121.15,167.66a1.31,1.31,0,1,0-1.31-1.31,1.31,1.31,0,0,0,1.31,1.31"/><path class="cls-50" d="M145.18,242.09a1.31,1.31,0,1,0-1.31-1.31,1.3,1.3,0,0,0,1.31,1.31"/><path class="cls-54" d="M124.53,172.45a33.87,33.87,0,0,1,33.78,34,33,33,0,0,1-13.92,27.48"/><path class="cls-50" d="M145,234.2a1.31,1.31,0,1,0-1.31-1.31A1.31,1.31,0,0,0,145,234.2"/><path class="cls-50" d="M125.13,173.82a1.31,1.31,0,1,0-1.31-1.31,1.3,1.3,0,0,0,1.31,1.31"/></g><line class="cls-55" x1="81.27" y1="207.06" x2="32.24" y2="207.06"/><line class="cls-55" x1="326.71" y1="205.86" x2="277.69" y2="205.86"/><line class="cls-55" x1="468.37" y1="482.49" x2="468.37" y2="496.61"/><line class="cls-55" x1="750.8" y1="275.13" x2="636.85" y2="275.13"/><line class="cls-56" x1="390.55" y1="116.08" x2="390.55" y2="534.17"/><g class="cls-52"><path class="cls-53" d="M389.51,118.18a1.31,1.31,0,1,0,.26-1.84,1.31,1.31,0,0,0-.26,1.84"/><path class="cls-53" d="M389.51,535a1.31,1.31,0,1,0,.26-1.83,1.3,1.3,0,0,0-.26,1.83"/></g><rect class="cls-49" x="438.23" y="201.6" width="17.11" height="67.66"/><rect class="cls-49" x="473.03" y="201.54" width="17.11" height="67.66"/><rect class="cls-49" x="507.45" y="201.54" width="17.11" height="67.66"/><rect class="cls-53" x="438.23" y="242.67" width="17.11" height="26.59"/><rect class="cls-53" x="507.45" y="267.2" width="17.11" height="2"/><rect class="cls-53" x="473.03" y="228.83" width="17.11" height="40.55"/><rect class="cls-49" x="650.48" y="201.78" width="17.11" height="67.66"/><rect class="cls-49" x="685.27" y="201.72" width="17.11" height="67.66"/><rect class="cls-53" x="719.7" y="201.72" width="17.11" height="67.66"/><line class="cls-55" x1="539.93" y1="274.38" x2="425.98" y2="274.38"/><g class="cls-52"><path class="cls-50" d="M424.94,274.79a1.3,1.3,0,0,0,1.83.26A1.31,1.31,0,1,0,425.2,273a1.3,1.3,0,0,0-.26,1.83"/><path class="cls-50" d="M538.35,275.17a1.32,1.32,0,0,0,1.84.25,1.31,1.31,0,0,0-1.58-2.09,1.32,1.32,0,0,0-.26,1.84"/></g><line class="cls-55" x1="245.29" y1="436.16" x2="117.1" y2="436.16"/><g class="cls-52"><path class="cls-53" d="M243.71,437a1.31,1.31,0,1,0,.26-1.84,1.32,1.32,0,0,0-.26,1.84"/></g><line class="cls-55" x1="191.95" y1="409.72" x2="154.63" y2="435.85"/><g class="cls-52"><path class="cls-53" d="M191.11,411.27a1.31,1.31,0,1,0-.84-1.65,1.3,1.3,0,0,0,.84,1.65"/></g><line class="cls-55" x1="175.56" y1="496.67" x2="154.77" y2="436.28"/><g class="cls-52"><path class="cls-53" d="M174.31,495.43a1.31,1.31,0,1,0,1.81-.35,1.31,1.31,0,0,0-1.81.35"/></g><line class="cls-55" x1="204.46" y1="463.01" x2="154.59" y2="436.49"/><g class="cls-52"><path class="cls-53" d="M203.44,461.57a1.31,1.31,0,1,1-.63,1.74,1.31,1.31,0,0,1,.63-1.74"/><path class="cls-50" d="M635.81,275.92a1.31,1.31,0,1,0,.26-1.84,1.31,1.31,0,0,0-.26,1.84"/><path class="cls-50" d="M749.25,275.92a1.31,1.31,0,1,0,.26-1.84,1.31,1.31,0,0,0-.26,1.84"/><path class="cls-53" d="M469,449.18l17.23-23.71A29.31,29.31,0,1,1,445.33,432,28.41,28.41,0,0,1,469,419.87Z"/><path class="cls-57" d="M488.47,422.84a32.68,32.68,0,1,1-45.65,7.23,31.69,31.69,0,0,1,26.44-13.47"/><path class="cls-58" d="M468.25,416.82a1,1,0,1,0,.19-1.39,1,1,0,0,0-.19,1.39"/><path class="cls-58" d="M488,423.66a1,1,0,0,0,1.57-1.19,1,1,0,0,0-1.57,1.19"/></g><rect class="cls-53" x="650.48" y="262.24" width="17.11" height="7.14"/><rect class="cls-53" x="685.27" y="265.19" width="17.11" height="4.24"/></svg>