<svg id="Layer_1" data-name="Layer 1" xmlns="http://www.w3.org/2000/svg" xmlns:xlink="http://www.w3.org/1999/xlink" viewBox="0 0 1500 608"><defs><style>.cls-1,.cls-14,.cls-62{fill:none;}.cls-2,.cls-6{font-size:24.3px;font-family:Helvetica;}.cls-2,.cls-9{letter-spacing:0.04em;}.cls-3{letter-spacing:0.04em;}.cls-4{letter-spacing:0em;}.cls-5{letter-spacing:0em;}.cls-7{letter-spacing:0.04em;}.cls-8{letter-spacing:0.04em;}.cls-10{fill:#b93e4e;}.cls-11{clip-path:url(#clip-path);}.cls-12{fill:#231f20;}.cls-13{fill:#c72e47;}.cls-14{stroke:#b93e4e;}.cls-14,.cls-62{stroke-miterlimit:10;}.cls-15{letter-spacing:0.05em;}.cls-16{letter-spacing:0.05em;}.cls-17{letter-spacing:0.05em;}.cls-18{letter-spacing:0.05em;}.cls-19{clip-path:url(#clip-path-10);}.cls-20{clip-path:url(#clip-path-11);}.cls-21{fill:#fefefe;}.cls-22{fill:#d12935;}.cls-23{fill:#ad54a0;}.cls-24{fill:#f6706e;}.cls-25{fill:#3da7ca;}.cls-26{fill:#f0c44a;}.cls-27{fill:#63bf60;}.cls-28{fill:#f19640;}.cls-29{fill:#010101;}.cls-30{fill:#d22e3a;}.cls-31{fill:#d12a35;}.cls-32{fill:#e55455;}.cls-33{fill:#d6414b;}.cls-34{fill:#020202;}.cls-35{fill:#040404;}.cls-36{fill:#d12a36;}.cls-37{fill:#050505;}.cls-38{fill:#979797;}.cls-39{fill:#bdbdbd;}.cls-40{fill:#fdfdfd;}.cls-41{fill:#fcfcfc;}.cls-42{fill:#fefdfd;}.cls-43{fill:#d02c37;}.cls-44{fill:#cf2b37;}.cls-45{fill:#977671;}.cls-46{fill:#fdfbfb;}.cls-47{fill:#fbf2f3;}.cls-48{fill:#060505;}.cls-49{fill:#f6f4f4;}.cls-50{fill:#fdfcfd;}.cls-51{fill:#fef5f5;}.cls-52{fill:#fefbfb;}.cls-53{fill:#eff7fa;}.cls-54{fill:#fefdfa;}.cls-55{fill:#fefdfc;}.cls-56{fill:#fefbf9;}.cls-57,.cls-59,.cls-60,.cls-61{fill:#fff;}.cls-58{fill:#d32c48;}.cls-59,.cls-60{font-size:26.11px;}.cls-59{font-family:Courier;}.cls-60,.cls-61{font-family:MyriadPro-Regular, Myriad Pro;}.cls-61{font-size:19.58px;}.cls-62{stroke:#231f20;}.cls-63{clip-path:url(#clip-path-21);}.cls-64{fill:#241f21;}.cls-65{fill:#b51f2e;}</style><clipPath id="clip-path"><rect class="cls-1" x="4" y="51.03" width="1492" height="498.02"/></clipPath><clipPath id="clip-path-10"><rect class="cls-1" x="14.49" y="105.98" width="288.05" height="253.43"/></clipPath><clipPath id="clip-path-11"><rect class="cls-1" x="14.49" y="102.99" width="288.05" height="259.42"/></clipPath><clipPath id="clip-path-21"><rect class="cls-1" x="307.71" y="308.17" width="248.08" height="131.17"/></clipPath></defs><title>MU Explore Output</title><text class="cls-2" transform="translate(798.27 105.57)">FI<tspan class="cls-3" x="23.54" y="0">N</tspan><tspan x="42.03" y="0">A</tspan><tspan class="cls-4" x="59.21" y="0">L</tspan><tspan x="72.79" y="0"> </tspan><tspan class="cls-3" x="80.52" y="0">L</tspan><tspan x="94.98" y="0">OGO</tspan><tspan class="cls-5" x="154.59" y="0"> </tspan></text><text class="cls-6" transform="translate(29.54 88.9)"><tspan class="cls-7">L</tspan><tspan class="cls-8" x="14.46" y="0">OGO </tspan><tspan class="cls-3" x="81.8" y="0">D</tspan><tspan class="cls-9" x="100.29" y="0">ESIG</tspan><tspan class="cls-3" x="162.24" y="0">N</tspan><tspan class="cls-9" x="180.73" y="0" xml:space="preserve"> P</tspan><tspan class="cls-3" x="205.63" y="0">R</tspan><tspan class="cls-9" x="224.13" y="0">O</tspan><tspan class="cls-3" x="244" y="0">C</tspan><tspan class="cls-9" x="262.49" y="0">ES</tspan><tspan x="296.85" y="0">S</tspan></text><polygon class="cls-10" points="66 538.98 66 512.38 65.78 512.38 55.08 538.59 49.89 538.59 39.19 512.38 38.97 512.38 38.97 538.98 31.62 538.98 31.62 499.57 41.18 499.57 52.37 527.51 52.59 527.51 63.79 499.57 73.34 499.57 73.34 538.98 66 538.98"/><g class="cls-11"><path class="cls-10" d="M88.14,524.23c0,5,3,8.36,8.27,8.36s8.25-3.31,8.25-8.36V499.57h8.24v25.48c0,8.68-6.41,14.61-16.49,14.61s-16.52-5.93-16.52-14.61V499.57h8.25Z"/><path class="cls-12" d="M150.86,516.2v8.3h-7.24a3.75,3.75,0,0,0-2.09.44,1.68,1.68,0,0,0-.61,1.48,1.65,1.65,0,0,0,.63,1.54,5.88,5.88,0,0,0,2.57.37h7.45V539h-8.71q-6.15,0-9.39-2.93c-2.17-2-3.26-4.78-3.26-8.48V513q0-5.34,3.08-8.3c2.05-2,4.93-2.95,8.64-2.95h9.64v10.71H144.5c-1.92,0-2.87.62-2.87,1.85a1.65,1.65,0,0,0,.68,1.52,5,5,0,0,0,2.43.42Z"/><path class="cls-12" d="M170.9,511.75h10.21v6a9.7,9.7,0,0,1-.75,4.14,7,7,0,0,1-2.58,2.77,7.35,7.35,0,0,1,2.59,2.76,8.83,8.83,0,0,1,.74,3.93V539H170.9v-8.21c0-1.88-.66-2.82-2-2.82s-1.91.81-1.91,2.43V539H156.81v-7.26a8.09,8.09,0,0,1,.92-4.09,8.88,8.88,0,0,1,3.18-3,9.27,9.27,0,0,1-3.18-3.11,8.51,8.51,0,0,1-.92-4.18v-5.6H167v6.88a2.68,2.68,0,0,0,.55,1.75,1.71,1.71,0,0,0,1.39.68c1.29,0,1.94-.81,1.94-2.43Z"/><path class="cls-12" d="M196.29,549.05H186.08V526.33a15.35,15.35,0,0,1,3.28-10.18,13.45,13.45,0,0,1,4.79-3.61,14.61,14.61,0,0,1,16.23,2.76,13.51,13.51,0,0,1,4.18,10.05,13.71,13.71,0,0,1-4.15,10,13.35,13.35,0,0,1-9.83,4.21c-.62,0-1.53-.07-2.73-.19V528.11a4,4,0,0,0,2.51,1,3.63,3.63,0,0,0,2.72-1.18,3.88,3.88,0,0,0,1.13-2.78,3.65,3.65,0,0,0-1.17-2.74,3.91,3.91,0,0,0-2.82-1.14q-3.93,0-3.93,5.44Z"/></g><rect class="cls-12" x="219.04" y="501.7" width="10.21" height="37.27"/><g class="cls-11"><path class="cls-12" d="M247.87,521.26a3.75,3.75,0,0,0-2.79,1.18,4,4,0,0,0-1.14,2.91,4,4,0,0,0,1.16,2.89,3.81,3.81,0,0,0,5.57,0,4.22,4.22,0,0,0,0-5.8,3.75,3.75,0,0,0-2.81-1.18m.27-10.08A14.14,14.14,0,0,1,258,535.37a14.4,14.4,0,0,1-20.24,0,13.6,13.6,0,0,1-4.21-10,13.45,13.45,0,0,1,4.21-10.06,14.31,14.31,0,0,1,10.37-4.08"/><path class="cls-12" d="M281.4,511.48V522.4a4,4,0,0,0-1.94-.6c-1.86,0-2.78,1.42-2.78,4.26V539H266.46V524.09q0-5.9,3.23-9.4a11.09,11.09,0,0,1,8.6-3.51,20.88,20.88,0,0,1,3.11.3"/><path class="cls-12" d="M311.16,527H295.68a7.49,7.49,0,0,1-.36-2.16,7.57,7.57,0,0,1,.5-2.68H301q-.54-3-3.41-3a3.69,3.69,0,0,0-3.11,1.63,6.81,6.81,0,0,0-1.2,4.16,7.21,7.21,0,0,0,1.16,4.29,3.56,3.56,0,0,0,3,1.63,4.06,4.06,0,0,0,2.95-1.52l5.82,7a14.3,14.3,0,0,1-9,3.19A13.92,13.92,0,0,1,287,535.45a14.34,14.34,0,0,1,.05-20.17,14,14,0,0,1,10.22-4.13,13.76,13.76,0,0,1,14,14c0,.4,0,1-.11,1.92"/></g><polygon class="cls-12" points="234.38 530.18 237.01 534.95 248 549.05 259 534.3 261.39 530.18 234.38 530.18"/><path class="cls-13" d="M57.51,397.67v-9.22l-7.4,15.83,2,4.85ZM37.92,416.89V397l-4.43-9.95v29.84ZM31.25,382.2h8.31l9.28,19.65,9.34-19.65h8.19v36.39H57.51V402.4l-7.94,17.4H48.11l-7.94-17.52v16.31H31.25Z"/><g class="cls-11"><path class="cls-13" d="M98.63,383.9H94.15v12.92h4.48Zm-19.77,0H74.43v12.92h4.43Zm-6.67-1.7h8.86V405c0,4.85,2.3,6.55,5.39,6.55,3.4,0,5.52-1.7,5.52-6.55V382.2h8.92v24.14c0,8.61-6.43,13.46-14.44,13.46-8.31,0-14.25-5.09-14.25-13.46Z"/></g><path class="cls-12" d="M146.5,418.59H135v-9.82H146.5Zm-.91-11.19H135v-9.46h10.6Zm.91-10.82H135v-9.83H146.5Zm-12.87,22h-15V386.75h15Z"/><path class="cls-12" d="M170.7,404.86,177,418.59H162.06Zm-16.6,1.36-6.33-13.6h14.92Zm10-13.6h13l-16.46,26h-13Z"/><g class="cls-11"><path class="cls-12" d="M194.76,419h-.86v-26.7H195c8.55,0,13.92,5.18,13.92,13.1,0,8.27-5.6,13.6-14.15,13.6m-2.23-26.7v35.43H178V405.77c0-9.24,4.91-13.51,13.05-13.51Z"/></g><rect class="cls-12" x="210.27" y="383.57" width="14.55" height="35.02"/><g class="cls-11"><path class="cls-12" d="M242.89,391.89c9.41,0,15.32,5.23,15.32,13.6s-6,13.78-15.32,13.78Zm-1.37,27.38c-9.37,0-15.33-5.36-15.33-13.78s5.92-13.6,15.33-13.6Z"/><path class="cls-12" d="M275.5,404.13v-6.55c0-3.68,1.82-5.19,6-5.19h.28a23,23,0,0,1,2.5.19v6.18c0,3.91-1.68,5.37-6.14,5.37Zm-15.92-11.51h14.56v26H259.58Z"/><path class="cls-12" d="M300.29,391.89c9.32,0,14.33,4.92,14.33,13.15v1.27H300.29Zm10.1,15.79v10.91H298.61c-8.92,0-13.69-3.73-13.69-10.32v-.59Zm-11.46-1.37H284.87v-.63c0-8.19,4.87-13.79,13.78-13.79h.28Z"/></g><path class="cls-13" d="M62.21,455.76V444.89l-8.72,18.66,2.36,5.72ZM39.12,478.42V455L33.9,443.25v35.17Zm-7.87-40.89h9.8L52,460.69l11-23.16h9.65v42.9H62.21v-19.1l-9.37,20.52H51.13l-9.37-20.66v19.24H31.25Z"/><g class="cls-11"><path class="cls-13" d="M110.68,439.53h-5.29v15.23h5.29Zm-23.31,0H82.16v15.23h5.21Zm-7.86-2H90v26.88c0,5.72,2.72,7.72,6.36,7.72,4,0,6.51-2,6.51-7.72V437.53h10.51V466c0,10.15-7.58,15.87-17,15.87-9.79,0-16.8-6-16.8-15.87Z"/><path class="cls-13" d="M287.51,462.84c-.56,10.25,11.45,10,11.45,10h11.8v-10Z"/></g><path class="cls-12" d="M161.15,472.81h-10.5v-9h10.5Zm-.83-10.22h-9.67V454h9.67Zm.83-9.88h-10.5v-9h10.5Zm-11.75,20.1H135.7V443.74h13.7Z"/><path class="cls-12" d="M183.24,460.27,189,472.81H175.36Zm-15.15,1.24-5.77-12.41h13.62Zm9.13-12.41h11.84l-15,23.71H162.19Z"/><g class="cls-11"><path class="cls-12" d="M205.21,473.14h-.79V448.77h1c7.8,0,12.7,4.73,12.7,12,0,7.56-5.1,12.42-12.91,12.42m-2-24.37v32.34H189.89v-20c0-8.43,4.48-12.33,11.92-12.33Z"/></g><rect class="cls-12" x="219.37" y="440.84" width="13.29" height="31.97"/><g class="cls-11"><path class="cls-12" d="M249.14,448.43c8.59,0,14,4.78,14,12.42s-5.44,12.58-14,12.58Zm-1.25,25c-8.55,0-14-4.9-14-12.58s5.4-12.42,14-12.42Z"/><path class="cls-12" d="M278.91,459.6v-6c0-3.36,1.66-4.73,5.48-4.73h.25a20,20,0,0,1,2.28.17v5.64c0,3.57-1.53,4.9-5.6,4.9Zm-14.53-10.5h13.28v23.71H264.38Z"/><path class="cls-12" d="M301.54,448.43c8.51,0,13.08,4.49,13.08,12v1.17H301.54Zm9.22,14.41v10H300c-8.14,0-12.49-3.41-12.49-9.43v-.54Zm-10.47-1.24H287.46V461c0-7.47,4.45-12.58,12.59-12.58h.24Z"/></g><polygon class="cls-13" points="183.25 460.27 175.36 472.81 188.97 472.81 183.25 460.27"/><g class="cls-11"><path class="cls-13" d="M278.91,459.57h3.43c3.53-.18,4.16-2.31,4.16-2.31.68-1.65.38-5.33.38-5.33V449c-4.83-.47-6,.5-6,.5a4.49,4.49,0,0,0-2,4.07Z"/></g><polygon class="cls-13" points="232.66 472.81 219.37 440.83 219.37 472.81 232.66 472.81"/><rect class="cls-12" x="808.23" y="409.91" width="52.62" height="52.62"/><rect class="cls-10" x="889.51" y="409.91" width="52.62" height="52.62"/><rect class="cls-14" x="972" y="411.12" width="52.31" height="52.31"/><text class="cls-6" transform="translate(809.41 391.8)"><tspan class="cls-15">Miami</tspan><tspan class="cls-16" x="70.74" y="0"> </tspan><tspan class="cls-17" x="78.71" y="0">Color</tspan><tspan class="cls-16" x="142.72" y="0" xml:space="preserve"> Sc</tspan><tspan class="cls-18" x="181.47" y="0">hem</tspan><tspan x="232.31" y="0">e</tspan></text><g class="cls-19"><g class="cls-20"><path class="cls-21" d="M159.55,103.46q70.65,0,141.3-.07c2.64,0,3.16.52,3.16,3.16q-.13,127,0,254c0,2.64-.52,3.16-3.16,3.16q-141.3-.14-282.59,0c-2.64,0-3.16-.52-3.16-3.16q.13-127,0-254c0-2.64.52-3.17,3.16-3.16Q88.91,103.54,159.55,103.46Z"/><path d="M217.88,126.62c23.39,0,46.79.06,70.18-.07,2.8,0,3.67.54,3.6,3.51-.21,10.41-.14,20.82,0,31.24,0,2.34-.35,3.26-3.05,3.25q-71.14-.13-142.3,0c-2.31,0-3-.46-3-2.92.16-10.67.18-21.34,0-32-.05-2.72.93-3.05,3.26-3C170.31,126.65,194.09,126.62,217.88,126.62Z"/><path class="cls-22" d="M58.22,211.13c2.78-7.44,5.5-14.26,7.84-21.2.84-2.5,1.94-3.29,4.53-3.15,4.49.24,9,.05,13.5.09.69,0,1.65-.39,2,.61s-.47,1.47-1.12,1.79c-6.32,3.15-6.42,8.74-6,14.68a65.71,65.71,0,0,1,0,10,6.54,6.54,0,0,0,3.58,6.95A4.39,4.39,0,0,1,84,222.11c.66,1,2.73,1.34,1.92,2.89-.53,1-2.1.42-3.2.43-5.27,0-10.55,0-15.82,0-.7,0-1.63.41-2.07-.46s.3-1.52.94-1.84c6.59-3.27,6-9.21,5.82-15.12-.15-4.31,0-8.62-.6-13q-5.1,13.18-10.21,26.38c-.27.71-.57,1.41-.77,2.14a2.3,2.3,0,0,1-2.4,2c-1.61,0-1.84-1.17-2.22-2.18C51.66,213.5,48,203.69,43.74,194c0,7.5,0,15,0,22.5A2.76,2.76,0,0,0,45.1,219c1.67,1.18,3.23,2.52,4.82,3.81.6.49,1.34,1.09,1.15,1.89-.28,1.23-1.46.77-2.27.77-5.4,0-10.8,0-16.2,0-.71,0-1.64.34-2-.6a1.77,1.77,0,0,1,1-2.25c6.53-2.9,6.26-8.52,5.92-14.25a34.36,34.36,0,0,1,0-6.17c.66-5.24-.3-9.59-5.53-12.13-.89-.43-1.85-1.27-1.47-2.42.43-1.34,1.75-.72,2.68-.73,4.37-.07,8.75.09,13.11-.09,2.22-.09,3,.75,3.75,2.78C52.56,196.58,55.32,203.5,58.22,211.13Z"/><path class="cls-22" d="M57.68,151.05c3-7.86,5.7-14.78,8.16-21.8.74-2.09,1.75-2.74,3.88-2.67,4.49.15,9,0,13.5.07.77,0,1.91-.51,2.17.87a1.9,1.9,0,0,1-1.24,2.16c-5.51,2.46-6.17,7-5.73,12.32a75.74,75.74,0,0,1,0,11.57c-.23,3.27.53,5.7,3.55,7.32a11.12,11.12,0,0,1,2.89,2.51c.91,1,.8,2-.82,2-6,0-12.09,0-18.13,0-.69,0-1.29-.17-1.36-1a1.44,1.44,0,0,1,.76-1.61c6.94-3,6.31-9,6.12-15-.16-4.62,0-9.26,0-14.32-1.94,2.62-2.53,5.46-3.57,8.06-2.87,7.18-5.54,14.44-8.3,21.67-.38,1-.4,2.17-2.07,2.23s-2.14-1-2.6-2.18c-3.44-9.14-6.9-18.27-10.3-27.42a2.55,2.55,0,0,0-1.28-1.72c0,6.55.23,13.08-.09,19.59a7.13,7.13,0,0,0,3.51,7,29,29,0,0,1,2.72,2.1c.56.48,1.4.93,1.15,1.83-.35,1.24-1.49.74-2.28.75-5.4.05-10.81,0-16.21,0-.71,0-1.64.31-2-.57-.48-1,.25-1.73,1.08-2.15,5.77-2.93,6.24-8,5.73-13.6a40.78,40.78,0,0,1,0-9.24c.62-4.44-1.26-7.23-4.79-9.42-1-.64-2.54-1.27-2.15-2.84.46-1.86,2.15-.87,3.24-.9,4.24-.12,8.49,0,12.73-.08,2-.06,2.86.55,3.55,2.52C51.91,136.15,54.66,143.08,57.68,151.05Z"/><path class="cls-22" d="M54.13,334.17C57,328.22,59.6,322.58,62.3,317c.82-1.71,7.65-3,8.83-1.59a3.64,3.64,0,0,1,.39,2.16c0,10.28,0,20.57.06,30.85,0,2.27-.76,3-2.88,2.75a14.39,14.39,0,0,0-3.47,0c-2.41.32-3.13-.66-3-3a49.69,49.69,0,0,0-.56-10.82C59.79,341.54,58,345.8,56,350c-.36.76-.38,2.12-1.84,2.1s-1.47-1.31-1.85-2.11a103.32,103.32,0,0,0-6.52-12.59c0,3.62-.07,7.25,0,10.87.07,2.15-.75,2.87-2.92,2.93-6.1.16-6.1.26-6.1-5.68,0-8.87-.06-17.75.07-26.62,0-1.25-1.2-3.79,1.16-3.68,2.69.12,6.2-2.14,8.07,2C48.65,322.78,51.36,328.33,54.13,334.17Z"/><path class="cls-22" d="M98.84,186.85c2.83,0,5.66,0,8.49,0,.68,0,1.62-.37,1.94.67a1.44,1.44,0,0,1-.82,1.91c-6.8,2.82-6.47,8.61-6,14.44.26,3.3-.54,6.63.7,9.9,1.58,4.14,4.9,6.49,9.11,6.09,4.85-.47,8.38-3.64,8.67-8.2.33-5,.24-10,.53-15,.17-3.11-2.29-4-4.06-5.55-1.22-1.06-3.56-2-3.09-3.5.53-1.67,2.9-.68,4.45-.72,4.49-.12,9-.08,13.5,0,.87,0,2.17-.68,2.57.85.27,1.08-.49,1.71-1.29,2.11-5.08,2.52-6.15,6.66-5.74,12a42.62,42.62,0,0,1-.45,12.63C125.2,224,115.85,227.16,108.73,226c-9.37-1.55-12.38-5.2-13.43-14.79A67.21,67.21,0,0,1,95,199.24c.27-3.73-.74-6.35-4-8.29-1.27-.75-3.57-1.73-2.91-3.51.53-1.41,2.75-.48,4.21-.56C94.46,186.75,96.65,186.85,98.84,186.85Z"/><path class="cls-22" d="M98.33,126.62c2.7,0,5.4,0,8.1,0,.81,0,2-.44,2.28.77a2.13,2.13,0,0,1-1.22,2.24c-10.37,6.61-5.45,16.25-4.52,24.8.42,3.82,4.36,5.38,8.29,5.36,4.11,0,7.39-2.2,8.55-5.9,1.94-6.12,1.16-12.47,1-18.7-.06-2.16-2.73-3.16-4.39-4.49-1.07-.86-2.77-1.6-2.33-3.18.52-1.9,2.41-.82,3.64-.86,4.75-.14,9.5-.08,14.25,0,.82,0,2-.51,2.36.63.29.93-.48,1.65-1.17,2.25a1.73,1.73,0,0,1-.3.25c-6,2.86-5.85,8.14-5.68,13.67.12,4.05.6,8.19-.77,12.18-2.61,7.59-10,11.66-18.74,10.32-8.32-1.28-13-6.75-13-15.3,0-4.11-.25-8.24.08-12.33a6.63,6.63,0,0,0-3.37-6.68,25.39,25.39,0,0,1-2.71-2.13c-.68-.6-1.34-1.31-.88-2.32s1.34-.53,2-.55C92.68,126.6,95.51,126.62,98.33,126.62Z"/><path class="cls-22" d="M76.94,328.53c0-3.6.12-7.2,0-10.79-.1-2.21.65-3.07,2.81-2.73a2.41,2.41,0,0,0,.38,0c5.79-.08,5.78-.08,5.79,5.55s-.11,11.31,0,16.95c.13,4.77,1.58,6.26,5.4,6.17,3.6-.08,4.91-1.83,4.92-6.6,0-6.29.1-12.59,0-18.87-.06-2.42.48-3.32,3.11-3.27,6.2.12,6.36,0,6.17,6.28-.21,7,.92,14.13-.71,21.1s-8,10.73-16.4,9.74A12.73,12.73,0,0,1,77,339.31C76.9,335.72,76.94,332.12,76.94,328.53Z"/><path d="M191.15,218.25c0-2.83-.11-5.66,0-8.48a10.89,10.89,0,0,1,10.05-10.57c6.05-.42,11.51,3.51,12.4,8.93,1.07,6.47-2,11.78-7.84,13.45-1.64.47-4.19,1.81-4.86,0-.88-2.36-.46-5.28-.27-7.94.07-1,1.28-.15,2-.24a2.79,2.79,0,0,0,2.7-3.12c-.06-1.54-.7-2.63-2.59-2.65s-2.9.41-3.15,2.42a98,98,0,0,0-.21,16.16c.15,3.71-1.63,3.75-4.39,3.76s-4.42-.24-4-3.66a68.18,68.18,0,0,0,.06-8.09Z"/><path class="cls-22" d="M241.26,229.43c-5.1-4.79-9.72-10-12-16.7-1.35-3.91,1.08-9,4.62-11.41a11.82,11.82,0,0,1,13.61-.1,10.27,10.27,0,0,1,3.86,4.14,8.27,8.27,0,0,1,1.38,8.66A39,39,0,0,1,241.26,229.43Z"/><path d="M157.72,191.48c5.8,0,6.9,1.54,5.74,7.43-.38,1.93-1.63,1.11-2.6,1.3-2,.39-5.57-.94-5.59,1.4,0,2.81,3.47,1.29,5.34,1.35,3.41.11,1.78,2.47,2,3.86s.81,3.57-2.13,3.22c-1.4-.17-2.83,0-4.24,0-1.06,0-1.81.52-1.84,1.48s.84,1.51,1.82,1.57a15.1,15.1,0,0,0,3.08,0c3.15-.46,4.26.38,4.34,4,.09,4.09-1.24,5-4.91,4.6-2.77-.32-5.68.4-8.29-1a7.89,7.89,0,0,1-4.74-7.29c0-4,.29-8-.07-11.95-.61-6.63,4.75-10.56,10.2-10A17.75,17.75,0,0,0,157.72,191.48Z"/><path class="cls-22" d="M57.93,278.62l9.65-26c.22-.59.48-1.18.65-1.79.27-.93.7-1.87,1.8-1.38,1.36.61.07,1.64-.13,2.2-4.07,11.46-8.17,22.9-12.52,34.25-.69,1.8-.24,5-3.08,5.08-3.24.1-2.59-3.37-3.37-5.22-2.46-5.89-4.45-12-7.19-17.83,0,6.79,0,13.58,0,20.38,0,1,.79,2.66-1.07,2.7s-1.17-1.66-1.17-2.61c-.06-8.75-.05-17.5,0-26.25,0-1.78,0-3.53-1.41-5.12-.58,11.39.48,22.66-.58,33.88A2.37,2.37,0,0,1,39,291c-1.36-.39-.85-1.63-.85-2.51q-.06-18.15,0-36.29c0-.91-.6-2.43.76-2.6S40.32,251,40.69,252c4.42,12.12,8.85,24.24,13.45,36.85.85-2.12.3-3.52-.26-5C50,273.37,46.2,262.89,42.5,252.38c-.3-.86-1.74-2.26-.36-2.9,1.71-.78,1.94,1.2,2.32,2.25,3.65,9.88,7.22,19.78,10.8,29.68.17.46.08,1,1,1.28.92-.71.4-1.53.06-2.47-3.35-9.17-6.68-18.34-9.9-27.55-.35-1-1.84-2.6-.38-3.15,2-.75,1.83,1.63,2.25,2.74C51.55,260.92,54.67,269.63,57.93,278.62Z"/><path class="cls-23" d="M245.36,337.51c.3,8.48-5.92,14.33-14.53,14.48-8.23.15-14.14-6.18-14.14-14.49s6.26-14.65,14.53-14.45C239.66,323.25,245.36,329.09,245.36,337.51Z"/><path d="M171.13,221.5c-1.15-.31-3.44.92-3.65-.58-.39-2.82-1.12-6,.81-8.58,1.29-1.71,1.88-2.68.09-4.51s-1-4.63-1.08-7c0-1.07.7-1.18,1.54-1.17a42.05,42.05,0,0,0,4.63,0c1.92-.19,2.51.61,2.32,2.41a26.36,26.36,0,0,0,0,3.08c0,1,.31,1.82,1.49,1.79s1.55-.76,1.57-1.78a18.72,18.72,0,0,0,0-2.7c-.28-2.12.43-3.13,2.69-2.78,1.86.28,4.64-.94,5.41.56,1.28,2.49.68,5.68-.77,8.1-.88,1.47-1,2,0,3.47,1.65,2.57,1.22,5.69,1.2,8.64,0,1.07-.64,1.22-1.49,1.21-1.55,0-3.1-.11-4.63,0-1.78.15-2.61-.35-2.41-2.3a31,31,0,0,0,0-4.62,1.62,1.62,0,0,0-1.76-1.65c-1.36,0-1.28.94-1.29,1.85a12.72,12.72,0,0,0,0,2.31C176.39,220.88,175.12,222.56,171.13,221.5Z"/><path class="cls-24" d="M271.41,350.56c-8.38,3.05-10.62-3.35-14.57-9.21v5.79c0,3.72-2.33,5.24-5.84,4-1.42-.51-1.09-1.58-1.09-2.53,0-7.31,0-14.63,0-21.95,0-1.8.57-2.52,2.42-2.46,3.59.12,7.19,0,10.78.14s7,2.84,7.51,6.07c.62,3.67.39,7.37-3.38,9.39-2.31,1.24-2.12,2.2-.64,4C268.31,345.85,269.77,348.22,271.41,350.56Z"/><path d="M282.89,207c-1.33-1.53-3-1.65-4.32-.3-1.75,1.85-1.5,4.27-.67,6.51.6,1.62,2,1.72,3.53,1.51,1.77-.24,5.51,2.71,5.9,4.44.23,1-.59.94-1,1.24-3.42,2.48-8.88,2.4-12.58-.15A11.8,11.8,0,0,1,269.24,207c1.08-3.81,5.54-7.45,9.53-7.79,7.21-.61,13,4.37,12.87,10.87,0,2-.63,2.39-2.41,2.29-2.44-.14-4.88-.07-7.32,0-1.61,0-3.26.13-3.29-2.09s1.24-2.85,3.25-2.57C282.35,207.74,282.9,207.74,282.89,207Z"/><path class="cls-25" d="M273.82,337.58c0-3.6.1-7.21,0-10.8-.07-2,.65-2.69,2.65-2.64,4.25.12,8.5.14,12.74,0,2.25-.08,2.47,1,2.45,2.83s-.07,3.06-2.39,2.88c-1.92-.14-3.86,0-5.79,0-1.57-.05-2.67.08-2.72,2.18s1,2.58,2.81,2.46c1.29-.08,2.58.07,3.86,0,2.21-.17,3.55.12,3.53,3,0,2.67-1,3.35-3.37,3.1-1.4-.14-2.83,0-4.24,0-1.67-.1-2.61.25-2.59,2.27,0,1.86.63,2.51,2.46,2.4s3.86.06,5.79,0c2.18-.13,3.53.07,3.5,3,0,2.72-1.08,3.2-3.43,3.12-4-.15-8-.16-12,0-2.44.1-3.49-.53-3.31-3.19C274,344.54,273.82,341.06,273.82,337.58Z"/><path class="cls-26" d="M156.8,343c-2.48,2.41-3,6.36-6.11,7.81-1.67.79-4,.14-6.47.14,1.72-4.24,4.5-7.68,6.9-11.28,1.37-2.06,1.43-3.43-.06-5.36-1.95-2.51-3.5-5.33-5.36-7.93-1.25-1.75-.62-2.06,1.17-2.21,3.39-.27,6.31,0,7.67,3.86a17.16,17.16,0,0,0,2.3,3.5c6-7.59,6-7.59,12.67-7.12-2.26,3.61-4.27,7.11-6.57,10.41-1.3,1.86-1.31,3.22,0,5.14,2.39,3.57,5.17,6.91,6.88,10.83C162.23,353.44,160.21,347.11,156.8,343Z"/><path class="cls-27" d="M123.94,337.27c0-3.47.08-6.94,0-10.4-.06-1.92.44-2.8,2.56-2.73,4.23.13,8.48.16,12.71,0,2.41-.1,2.68,1,2.67,3s-.38,2.89-2.54,2.73-4.37,0-6.55-.05c-1.87-.07-2.43.77-2.44,2.54s.89,2.16,2.39,2.11,3.09.07,4.62,0c2.26-.14,3.79-.09,3.82,3.08s-1.69,3.08-3.84,3c-1.54-.07-3.09.08-4.62,0-1.92-.14-2.39.74-2.38,2.5s.74,2.23,2.32,2.17c2.18-.08,4.37.09,6.55-.05s3,.48,2.93,2.76c-.08,2.06-.25,3.44-2.88,3.33-4.24-.17-8.48-.13-12.72,0-2.08.06-2.65-.8-2.6-2.73C124,344.72,123.94,341,123.94,337.27Z"/><path d="M199.7,275.35c0,3.72,0,7.44,0,11.16,0,1.49-.17,2.61-2,2.24-3.17-.62-8.7,1.74-9.17-1.25-1-6.4-1.28-13.24.34-19.81a7.27,7.27,0,0,1,4.6-5.19c4.91-2.05,6.21-1.24,6.21,4Z"/><path d="M142.57,269.85c0-3.33.12-6.66,0-10-.1-2.11.72-2.5,2.65-2.54,9-.23,9-.29,9,8.45,0,4.48-.07,9,0,13.44,0,1.85-.28,2.61-2.44,2.66-9.18.21-9.17.3-9.17-9Z"/><path class="cls-28" d="M172.82,337.36c0-3.34.15-6.69,0-10-.15-2.61.84-3.38,3.33-3.22,3.07.2,6.17,0,9.24.14,4.63.21,7.41,3.22,7.57,8s-2.63,8.39-7.07,9a11.16,11.16,0,0,1-1.16,0c-5,.19-5,.19-5.06,5.51,0,2.19.78,4.66-3.16,4.48-2.92-.14-3.84-1.08-3.68-3.88C173,344.05,172.82,340.71,172.82,337.36Z"/><path d="M226,206.9c0,4-.12,8,.05,12,.09,2.15-.5,3-2.73,2.76a19.05,19.05,0,0,0-3.85,0c-1.49.12-2-.4-2-1.93q.09-13.12,0-26.24c0-1.47.39-2.11,1.94-2a24,24,0,0,0,4.24,0c1.83-.18,2.44.44,2.39,2.33C225.86,198.15,226,202.52,226,206.9Z"/><path class="cls-22" d="M72.1,256c-4.09,11.3-7.75,21.55-11.56,31.74-.43,1.14-.38,3.69-2.1,3.06-2.12-.79-.07-2.66.33-3.78,4.13-11.73,8.46-23.38,12.72-35.05.42-1.16.45-2.84,2.17-2.59s.92,1.86.93,2.85q.07,17.94,0,35.89c0,1,.79,2.68-1,2.8-2.25.15-1.26-1.84-1.28-2.85-.09-6.82,0-13.64-.56-20.62q-3.57,9.63-7.14,19.27c-.09.24,0,.59-.13.75-1,1.05-.47,4-2.36,3.3s0-2.65.39-3.84c2.93-8.51,6-17,9.21-25.39C72.34,260,72.29,258.62,72.1,256Z"/><path class="cls-29" d="M261.47,272v3.45c0,6.37,0,6.37-6.31,6.37-5,0-5,0-5-5.08,0-4.22.09-8.45,0-12.67-.06-1.87.6-2.31,2.4-2.38,9-.38,9-.44,9,8.39Z"/><path class="cls-30" d="M125.59,264.78c-.44,4.2.77,9.36-.75,14.4-2.39,7.9-11,13.72-18.79,12.65-9.18-1.26-16-8.69-16-17.63q0-11.37,0-22.74c0-.77-.46-2.07,1-2,1.27,0,1.07,1.22,1.07,2.08.06,8-.2,15.94.23,23.88a15.36,15.36,0,0,0,21.1,13.28c5.74-2.3,9.59-6.52,9.85-12.95.32-7.82.17-15.66.3-23.49,0-1-.63-2.81,1.09-2.72s.83,1.84.86,2.82C125.65,256.18,125.59,260,125.59,264.78Z"/><path d="M176.52,263.33c.84-1.94,2.56-1.59,4.14-1.59h6.84c-1.36,3.82-4.44,6.38-5.43,10-1.07,3.38-2.25,6.69-5.54,8.63-3.31,2.87-7.2.72-11.12,1.64,1.31-3.78,4.16-6.16,5.12-9.54A18.09,18.09,0,0,1,176.52,263.33Z"/><path d="M255.27,214.93c.1-3.29,0-5.94.66-8.62a9.91,9.91,0,0,1,3.71-5.56c2.26-1.79,5.66-2.67,7.42-1.15s.42,5.07.55,7.73c0,.75-.58.49-1.07.49-2.23,0-2.64,1.63-2.73,3.35a28.51,28.51,0,0,0,0,5.77c.57,3.82-.78,4.69-4.65,4.81C251.83,222,257.15,216.44,255.27,214.93Z"/><path d="M237.53,261.58c4.82-.14,8.76,1.1,10.75,5.44a11,11,0,0,1-.69,10.9c-2.05,3.24-5.47,3.87-8.82,4.56-1.49.31-1.22-.88-1.23-1.7Q237.53,271.2,237.53,261.58Z"/><path d="M236.76,282.47c-9.1-1-12.21-4.49-11.63-12.41.26-3.57,2.22-5.87,5.19-7.4,4.78-2.47,6.44-1.47,6.44,3.7Z"/><path d="M200.47,271.68c0-2.44.17-4.89,0-7.32-.2-2.27.65-2.86,2.78-2.65a10.16,10.16,0,0,1-.32,20.18c-1.78.12-2.58-.1-2.46-2.12C200.59,277.09,200.47,274.38,200.47,271.68Z"/><path class="cls-31" d="M99.33,263.43c0,3.47,0,6.93,0,10.4,0,5.19,3.45,8.73,8.44,8.75s8.53-3.49,8.54-8.6c0-7.32,0-14.64,0-22,0-1-.7-2.67,1.18-2.6s1,1.76,1.06,2.72c.08,7.19.11,14.38,0,21.57a11.06,11.06,0,0,1-10.51,11.13c-5.49.26-10.88-4.71-11-10.6-.2-7.57-.06-15.15,0-22.73,0-.91-.4-2.28,1.32-2.12,1.38.13,1,1.31,1,2.1C99.35,255.47,99.33,259.45,99.33,263.43Z"/><path class="cls-22" d="M224,255.23c.07,8,.11,16.11.24,24.17,0,1.8-.59,2.36-2.42,2.46-9,.51-9,.57-9-8.47,0-5.89.12-11.78.18-17.67,1.55-.11,1.84,1.19,2.26,2.18,2.53,6,5.08,12,7.37,17.7-.13-5.37-.09-11.05,0-16.74C222.65,257.56,222.28,256,224,255.23Z"/><path class="cls-32" d="M197.28,337.47c0-3.46.2-6.94-.06-10.38-.23-2.95,1.38-2.87,3.49-3,2.38-.12,3.11.69,3,3.05-.16,5.12,0,10.25-.08,15.38,0,2,.65,2.75,2.64,2.61s3.85.07,5.77,0c2.26-.15,3.48.24,3.44,3s-1.33,3.11-3.57,3c-3.84-.11-7.7-.19-11.53,0-2.66.15-3.3-.91-3.17-3.34C197.41,344.4,197.28,340.93,197.28,337.47Z"/><path d="M279.43,273.32a39.92,39.92,0,0,0,5.79-.05c3.44-.52,4.11.8,4.2,4.12.1,3.77-.93,5-4.62,4.47-3.27-.48-6.64.48-9.92-.73a8.87,8.87,0,0,1-4-2.73,5.16,5.16,0,0,1-1.28-4.28c.48-1.68,2.42-.65,3.69-.75C275.31,273.2,277.38,273.32,279.43,273.32Z"/><path class="cls-31" d="M95.47,249.14c0,6-.09,11.75,0,17.46.07,3.44-.57,6.92.48,10.33,1.79,5.84,7.53,10.14,12.75,9.45a12.67,12.67,0,0,0,11.42-12.73c.06-7.32,0-14.65,0-22,0-.78-.44-2.09.82-2.12s.93,1.28.93,2.08c0,8,.14,15.95-.22,23.9-.35,7.57-6.44,12.52-14.58,12.46a13.34,13.34,0,0,1-13.26-12.7c-.26-8-.13-15.94-.14-23.91C93.75,250.68,93.52,249.8,95.47,249.14Z"/><path d="M224,255.23v23.69l-.84.18Q218.1,267.4,213,255.72C216.6,253.84,220.31,254.85,224,255.23Z"/><path d="M281.55,261.74c6.4-.81,9.87,3.12,10.76,8.15.3,1.68.15,2.94-2.25,2.71-2.79-.26-5.62-.11-8.43-.13A11.68,11.68,0,0,1,281.55,261.74Z"/><path class="cls-29" d="M279.91,272.47a59.16,59.16,0,0,0-6.53.12c-3.57.44-4.64-.56-3.5-4.23,1.06-3.44,5.31-7.79,10.12-6.62A15.53,15.53,0,0,1,279.91,272.47Z"/><path class="cls-22" d="M79.26,269.84c0-6,0-12.08,0-18.12,0-.88-.56-2.31,1.12-2.33s1.14,1.42,1.15,2.29q0,18.51,0,37c0,.88.58,2.31-1.11,2.33s-1.14-1.42-1.15-2.29C79.23,282.43,79.26,276.14,79.26,269.84Z"/><path class="cls-33" d="M34.43,270.25c0-6.16,0-12.32,0-18.48,0-.86-.62-2.36,1-2.37,1.21,0,1.07,1.23,1.07,2.1q0,18.67,0,37.35c0,.84.26,2.06-1,2.14-1.77.11-1.1-1.43-1.1-2.26C34.4,282.57,34.43,276.41,34.43,270.25Z"/><path class="cls-34" d="M241.26,229.43c2.18-3,4.11-6.23,6.6-8.94,4.12-4.49,5.41-9.38,3.44-15.13,4.11,3.35,4.65,9.11,1.16,14-2.92,4.11-6,8.11-9.17,12.33Z"/><path class="cls-35" d="M155,264.74c0-.38-.06-.76-.06-1.14-.06-6.33,1.64-7.61,7.94-6.27,1.43.31,1.49,1.11,1.46,2.16,0,1.77-.1,3.53-.15,5.3C161.1,266.28,158,266.62,155,264.74Z"/><path d="M159.1,281.73c-3.2.88-4.16-.27-4.36-4-.26-5,2.89-3.44,5.34-3.7,2.93-.32,4.33.07,4.44,3.86C164.66,282.64,162.12,282,159.1,281.73Z"/><path class="cls-29" d="M176.52,263.33a57.71,57.71,0,0,1-6,9.16c-2.33-3.15-3.52-6.84-5.3-10.75,3.41,0,6.45,0,9.48,0C175.9,261.7,176.72,261.88,176.52,263.33Z"/><path class="cls-36" d="M176.53,280.39c2.29-2.58,3.06-6.15,5.54-8.63,3.62,2.16,3.1,6.53,6.15,10-4.29,0-7.55,0-10.82,0C176.51,281.76,176.53,281,176.53,280.39Z"/><path class="cls-22" d="M76.51,290.94V249.48h.72v41.46Z"/><path class="cls-36" d="M269,264.62c.39,3.24.21,5.4-2.54,6.09-1.4.35-3.72,1.06-4-.48-.48-2.46-1.21-5.45,1.08-7.61a4.76,4.76,0,0,1,5.09-.65C269.85,262.46,269,264.31,269,264.62Z"/><path class="cls-37" d="M163.47,266.28a1.55,1.55,0,0,1,.13.36c.65,7-.35,7.85-7.24,6.73-1.16-.19-1.5-.56-1.46-1.64.06-1.78,0-3.56,0-5.33A11,11,0,0,1,163.47,266.28Z"/><path class="cls-38" d="M279.91,272.47l.09-10.73h1.55l.08,10.73Z"/><path class="cls-39" d="M163.47,266.28a32.05,32.05,0,0,0-8.53.12l0-1.66,9.19.05Z"/><path class="cls-40" d="M149.51,144.62v-2.31c0-9.09,0-9,9-8.79,2.11,0,2.92.57,2.86,2.81-.14,5.72-.1,11.45,0,17.17,0,1.79-.51,2.39-2.37,2.51-9.47.62-9.47.68-9.47-8.69Z"/><path class="cls-40" d="M191.17,155.24c.55-3.93-.25-7.92.75-11.87a7.76,7.76,0,0,1,5.09-5.66c3.69-1.38,5-.38,5,3.5,0,5.79-.22,11.58.09,17.35.17,3.21-1,4-3.85,3.58a2.41,2.41,0,0,0-.38,0c-6.29,0-6.29,0-6.7-6.24-.25-.14-.33-.29-.25-.44S191.09,155.24,191.17,155.24Z"/><path class="cls-41" d="M259,155.35c-3.09,1.28-6.32.35-9.48.58-1.41.11-1.16-1-1.16-1.89,0-4.89,0-9.78,0-14.66,0-1.11,0-2.11,1.55-1.95,3,.31,6.14-.67,9.11.57C260.2,143.79,257.87,149.57,259,155.35Z"/><path class="cls-21" d="M181.26,138c3.12-1.14,6.35-.23,9.67-.6-1.07,3.4-4.14,5.54-4.78,8.95-1.72,3.11-2.7,6.72-5.87,8.87-3.1,1.69-6.38.23-10.08,1l5.48-9.48C176.48,143.14,178.65,140.42,181.26,138Z"/><path class="cls-21" d="M236.76,136.87c9,.62,11.48,5.84,10.8,11a8.71,8.71,0,0,1-4.2,6.77c-2,1.19-4.24,2-6.1,1.19-1.31-.59-.44-3-.47-4.64C236.71,146.47,236.76,141.74,236.76,136.87Z"/><path class="cls-40" d="M236,136.84c0,5.95-.06,11.72,0,17.5,0,1.7-.71,1.73-2.07,1.68a9.24,9.24,0,0,1-8.75-7.6c-.78-4.95,1.94-9.66,6.41-10.89A40.87,40.87,0,0,1,236,136.84Z"/><path class="cls-21" d="M213,148.39a7.11,7.11,0,0,1-3.68,5.87c-1.81,1.09-4,2.7-6,1.49-1.51-.91-.51-3.28-.56-5-.12-3.71.09-7.42-.09-11.12-.1-2,.67-2.32,2.41-2.24,4,.16,6.7,2.51,7.77,6.94A3.06,3.06,0,0,1,213,148.39Z"/><path class="cls-42" d="M275.16,148a27.25,27.25,0,0,0,4.24,0c3.61-.58,4.91.59,4.65,4.44-.18,2.74-.55,3.91-3.57,3.59s-6.41.28-9.5-.88a6.63,6.63,0,0,1-3.48-2.23c-.85-1.26-2-2.69-1.24-4.22s2.31-.54,3.5-.63C271.55,147.94,273.36,148,275.16,148Z"/><path class="cls-22" d="M224.31,154.63c.2,1.38-.76,1.34-1.66,1.33l-8.29-.13c-1-7.55-.26-15.11-.25-22.66,2.08-1.1,2.37.9,2.76,1.9C219.41,141.57,222.84,147.73,224.31,154.63Z"/><path class="cls-21" d="M224.31,154.63c-3.7-7.06-6.2-14.63-9.43-21.89-.36-.4-1-.7-.43-1.39,10-.4,10-.4,10,9.49C224.4,145.44,224.34,150,224.31,154.63Z"/><path class="cls-40" d="M276.91,141.75c.33-1.4-.89-4.12.6-4.59,2-.63,4.44.33,6.38,1.75a7.62,7.62,0,0,1,2.28,3c2,4.24,1.21,5.57-3.38,5.78C276.91,147.94,276.91,147.94,276.91,141.75Z"/><path class="cls-40" d="M266.52,143.28c1.46-4.54,4.92-6.13,9.62-6.42v4.65c0,6.17,0,5.88-6.14,6.27-3.76.25-4.35-1.29-3.88-4.31Z"/><path class="cls-43" d="M266.52,143.28l-.1.28-.3-.09c-.85.89-1.63,2.38-2.83,2.25-5.09-.55-4.16,2.89-4.15,5.83,0,1.27-.1,2.54-.15,3.81A111.92,111.92,0,0,1,259,138c.52.26.39,1.79.69,1.2,1.41-2.8,3.87-2,5.64-1.5s.46,2.72.82,4.12C266.26,142.3,266.39,142.79,266.52,143.28Z"/><path class="cls-44" d="M180.28,155.19c1.94-3,3.21-6.38,5.86-8.88,2.85,2.33,3,6.19,5,8.93a.43.43,0,0,1,0,.66C187.55,155.61,183.82,156.85,180.28,155.19Z"/><path class="cls-41" d="M181.26,138c-1.31,3.27-3.54,6-5.58,8.77-3.34-2.06-3.09-6.12-5.55-9.31C174.22,137.72,177.76,136.75,181.26,138Z"/><path class="cls-21" d="M166.67,133.49c2.73-.72,2.8,1.16,3,3.82.37,4.27-2.43,2.92-4.57,3.25-3.19.49-3.47-1-3.69-3.77C161.09,132.45,163.93,133.76,166.67,133.49Z"/><path class="cls-21" d="M165.86,149c3-.75,3.72.38,3.88,3.48.19,3.85-1.79,3.51-4.36,3.59-2.73.09-3.92-.32-4-3.61C161.34,148.65,163.14,148.56,165.86,149Z"/><path class="cls-21" d="M165.17,148.29c-3.34.85-3.49-1-3.73-3.69-.33-3.82,1.86-3.13,4.18-3.39,3.1-.33,3.41,1,3.52,3.65C169.29,148.15,168,149,165.17,148.29Z"/><path class="cls-45" d="M214.45,131.35c.15.47.29.93.43,1.39-1.16,6.27-.22,12.6-.51,18.9-.06,1.4,0,2.79,0,4.19-1.92-2.22.29-5.17-1.34-7.44,0-1.35-.06-2.7-.1-4,1.46-3,.25-6.18.72-9.24C213.83,133.85,212.79,132.29,214.45,131.35Z"/><path class="cls-21" d="M39.11,321.24c6.13,8.47,3.49,17.54,4,26.17.11,1.83-1.25,1.49-2.37,1.58-1.84.16-1.67-1.09-1.67-2.26Z"/><path class="cls-46" d="M61.72,322.58c2,7.69-1.57,12.83-4.53,18.76C53.81,333.63,60.47,329.37,61.72,322.58Z"/><path class="cls-47" d="M98.54,323c0-1.42.06-2.83,0-4.24s.63-2,2.08-2,2.53.18,2.49,2c-.07,3-.08,5.92,0,8.87,0,2-1.2,1.85-2.55,1.92-1.5.08-2.08-.51-2-2S98.54,324.55,98.54,323Z"/><path class="cls-42" d="M83.41,323.37c0,1.28,0,2.57,0,3.85,0,1.47-.25,2.39-2.07,2.41s-2.16-.76-2.12-2.3c.08-2.69.06-5.38,0-8.07,0-1.44.1-2.48,2-2.45,1.69,0,2.27.74,2.2,2.33C83.36,320.55,83.41,322,83.41,323.37Z"/><path class="cls-48" d="M239.72,213.72c-1.81-1.28-3.2-2.79-1.32-4.93,1.56-1.77,3.27-1.67,4.73.29A21.51,21.51,0,0,1,239.72,213.72Z"/><path class="cls-49" d="M239.72,213.72c-.11-2.46,1.42-3.72,3.41-4.64C244.61,212.55,243,213.74,239.72,213.72Z"/><path class="cls-21" d="M231.12,329.68a7.39,7.39,0,0,1,7.63,7.78c0,4.84-3.08,7.89-7.91,7.82s-7.23-2.85-7.2-7.92C223.66,332.45,226.37,329.67,231.12,329.68Z"/><path class="cls-50" d="M230.91,350.54c-4.4-.52-8.6-2.09-10.93-6.64-.47-.91-2-2.28-.25-3.25,1.32-.73,2.19.27,3,1.51a9.66,9.66,0,0,0,11.91,4.29,7.68,7.68,0,0,0,4.94-4.51c.55-1.45,1.55-1.8,2.64-1.31,1.54.69.57,1.87.11,2.83A13.09,13.09,0,0,1,230.91,350.54Z"/><path class="cls-51" d="M254.68,337.68c0,3.32,0,6.64,0,10,0,1.05,0,2.09-1.54,2.08s-1.54-1-1.54-2.1q0-10,0-19.93c0-1.26.21-2.4,1.8-2.3s1.28,1.34,1.29,2.32C254.69,331,254.68,334.36,254.68,337.68Z"/><path class="cls-52" d="M259.76,329.75c2.75-.35,4.53.55,4.38,3.15s-2.27,2.82-4.48,3c-2.56.17-2.84-1-2.9-3.16C256.7,330.15,257.46,329,259.76,329.75Z"/><path class="cls-53" d="M275.62,348.93V326.62C279.78,328.77,280.14,345.67,275.62,348.93Z"/><path class="cls-54" d="M167.15,349.4c-1.89.61-3.14.48-4.17-1.14a63.67,63.67,0,0,0-4.12-5.44c-1-1.25-.9-2.29.42-3.18s1.71.45,2.18,1.14C163.39,343.59,165.22,346.46,167.15,349.4Z"/><path class="cls-54" d="M166.67,325.89c-1.91,3.1-3.49,5.7-5.11,8.27-.43.67-1.09,1.29-1.89.75a3.43,3.43,0,0,1-1.37-1.74c-.25-.95,5.27-7.42,6.32-7.54A10.12,10.12,0,0,1,166.67,325.89Z"/><path class="cls-21" d="M125.73,326.33c4.27,2.82,4.31,19.18,0,22.22Z"/><path class="cls-55" d="M175,337.56c0-3.33,0-6.65,0-10,0-1.13.17-2,1.65-1.95,1.23.06,1.4.86,1.4,1.82,0,6.78,0,13.56,0,20.34,0,1.16-.2,2-1.66,1.93s-1.39-1.2-1.39-2.18C175,344.21,175,340.89,175,337.56Z"/><path class="cls-56" d="M179.67,332.72c-.39-2.15.2-3.27,2.76-3.11,2.06.13,3.66.57,3.68,2.85s-1.63,3.11-3.84,3.25S179.3,334.82,179.67,332.72Z"/><path class="cls-21" d="M198.93,348.85c0-7.24,0-13.92,0-20.61,0-1.19-.41-2.79,1.71-2.64,1.84.14,1.32,1.6,1.33,2.63,0,5.27-.08,10.54.07,15.81C202.13,346.3,201.13,347.56,198.93,348.85Z"/></g></g><g class="cls-11"><path class="cls-10" d="M436.17,216.39l9.37-2.19c-.14-.64-.27-1.29-.41-1.94l-9-.44V169.6c-3.29,1.71-6.28,2.28-7.55,4.08-8.45,11.84-16.57,23.93-24.68,36-.94,1.4-1.19,3.28-2.06,5.83H431.7c2.11,13.57,2.11,13.57,4.47,13.51Zm52.58-28.3c0,11.48.4,23-.1,34.43-.62,14-7.95,23.55-20,26.76a48.89,48.89,0,0,1-12.17,1.58c-20.39.15-40.79.38-61.17-.12a46.23,46.23,0,0,1-18.24-4.13c-9.48-4.5-13.76-13.35-13.9-23.56-.33-23.47-.61-47,0-70.41.47-16.91,11.24-27.33,28.23-27.72q34.43-.78,68.89,0c17.18.39,27.24,11,28.44,28.21.06.85.13,1.71.13,2.57q0,16.19,0,32.39h-.16"/></g><rect class="cls-10" x="389.41" y="156.36" width="68.39" height="76.73"/><g class="cls-11"><path class="cls-57" d="M376.75,179.11l-.11,1v.65a2.71,2.71,0,0,0-1.64.73c-.11.17-.05.62-.19.9a2.61,2.61,0,0,1-.33.51l-.86.28V184l-1.49.73.24.31-.05.51-.39.2.47.22-.17,6.3-.87.33s-.27.23-.23-.47a.36.36,0,0,0-.68-.23.4.4,0,0,0,.18.37l-.19,2.28-.34,2-1.74.57,1.19,1.28-.34,8.24-1.46.68.87,1.11-.87,40.41,7.91,1.53,6.78-1,.67-40.07,1.17-.94-1.42-.93.08-8.36.92-.85-1.51-1v-3.92s0,.27-.16-.23-.29-.86-.51-.59a1.28,1.28,0,0,0-.2.74l-.83-.34.12-6.17.39-.18-.21-.37.06-.47L380,184.5l-.09-1-1.07-.47a4.66,4.66,0,0,0-.45-1.7c-.31-.72-1.31-.75-1.31-.75Z"/><path class="cls-58" d="M375,201.44A2.24,2.24,0,0,0,373.4,199c-1.26-.22-2.75,1.32-2.75,2.95s.62,3,1.9,3,2.48-1.79,2.48-3.43"/><path class="cls-58" d="M377.68,201.68c0-1.62,1-2.6,2-2.47,1.26.17,1.88,1.95,1.88,3.57s-.84,2.29-1.88,2.29-2-1.77-2-3.39"/><path class="cls-58" d="M373.86,191.82s.05-3.11.22-3.94.42-1.2.79-1a.82.82,0,0,1,.42.51l-.26,4.14Z"/><path class="cls-58" d="M377.87,191.59l.19-3.69c.26-1.14.76-.91.93-.54a4,4,0,0,1,.25.89v3.94Z"/></g><polygon class="cls-58" points="375.03 191.53 375.29 191.48 375.29 187.39 375.03 191.53"/><g class="cls-11"><path class="cls-58" d="M369.83,227.49l4.36-.43V212.21c-2.15-1-3.89,1.13-3.89,1.13Z"/><path class="cls-58" d="M377.68,226.36l.19-14.07c2.37-1.18,3.29.63,3.29.63v14.57l-3.49-.37Z"/><path class="cls-57" d="M385.33,231.71l5.22-2.25,46.31-2.64,5.67,5.4,5.09-5.3,10.13-4.12,0-4.92,4,0,.06-6.94.36-.23v-1.1c.76-.33.68-1.52,1-1.85a7.22,7.22,0,0,1,.59-.52l0-2.33a14.61,14.61,0,0,0,.27,2.35,3.61,3.61,0,0,1,.66.44,12.4,12.4,0,0,0,.49,1.34l.85.71v1l.63.58.29,6.53.74.29.19,1.76.39.12-.43.4.07.8,2.39.1.12,1.84,7.12-.25,2.3,6.47,1.27,1.05L481.7,249l-97.5,1.62.6-16.22-1.2-.06Z"/></g><rect class="cls-58" x="395.54" y="235.2" width="2.85" height="0.99" transform="translate(157.36 630.32) rotate(-89.44)"/><rect class="cls-58" x="398.94" y="235.05" width="2.85" height="0.99" transform="translate(160.88 633.56) rotate(-89.44)"/><rect class="cls-58" x="402.49" y="234.96" width="2.85" height="0.99" transform="translate(164.49 637.03) rotate(-89.44)"/><rect class="cls-58" x="406.05" y="234.81" width="2.85" height="0.99" transform="translate(168.16 640.43) rotate(-89.44)"/><rect class="cls-58" x="409.81" y="234.65" width="2.85" height="0.99" transform="translate(172.06 644.04) rotate(-89.44)"/><polygon class="cls-58" points="396.4 243.22 397.39 243.23 397.42 240.39 396.43 240.38 396.4 243.22"/><polygon class="cls-58" points="399.8 243.07 400.79 243.08 400.81 240.24 399.82 240.23 399.8 243.07"/><polygon class="cls-58" points="403.35 242.98 404.34 242.99 404.37 240.15 403.38 240.14 403.35 242.98"/><polygon class="cls-58" points="406.91 242.83 407.9 242.84 407.92 240 406.93 239.99 406.91 242.83"/><rect class="cls-58" x="409.75" y="240.75" width="2.85" height="0.99" transform="translate(165.89 650.03) rotate(-89.44)"/><polygon class="cls-58" points="463.25 230.43 463.33 234.37 465.43 234.25 465.26 230.31 463.25 230.43"/><polygon class="cls-58" points="457.19 230.75 457.27 234.7 459.37 234.58 459.2 230.63 457.19 230.75"/><polygon class="cls-58" points="451.07 231.03 451.16 234.97 453.26 234.85 453.09 230.91 451.07 231.03"/><polygon class="cls-58" points="463.52 236.88 463.61 240.83 465.7 240.71 465.54 236.76 463.52 236.88"/><polygon class="cls-58" points="457.46 237.21 457.55 241.16 459.64 241.03 459.48 237.09 457.46 237.21"/><polygon class="cls-58" points="451.35 237.48 451.43 241.43 453.53 241.31 453.37 237.36 451.35 237.48"/><polygon class="cls-58" points="471.61 233.89 472.61 233.94 472.48 230.4 471.51 230.14 471.61 233.89"/><polygon class="cls-58" points="473.47 234.13 474.47 234.18 474.34 230.64 473.37 230.38 473.47 234.13"/><polygon class="cls-58" points="471.92 239.78 472.92 239.83 472.79 236.3 471.82 236.03 471.92 239.78"/><polygon class="cls-58" points="473.78 240.03 474.79 240.07 474.66 236.54 473.69 236.28 473.78 240.03"/><polygon class="cls-58" points="477.39 234.55 478.39 234.6 478.26 231.06 477.29 230.8 477.39 234.55"/><polygon class="cls-58" points="479.25 234.79 480.25 234.84 480.12 231.3 479.15 231.04 479.25 234.79"/><polygon class="cls-58" points="477.7 240.45 478.7 240.49 478.57 236.96 477.6 236.69 477.7 240.45"/><polygon class="cls-58" points="479.57 240.69 480.57 240.73 480.44 237.2 479.47 236.94 479.57 240.69"/><g class="cls-11"><path class="cls-58" d="M463.37,216.2l0-3.34c.46-.79.92-.14.92-.14l.06,3.49Z"/></g><polygon class="cls-57" points="391.13 250.45 477.29 249.08 431.48 260.08 391.13 250.45"/><text class="cls-59" transform="translate(452.93 167.82)">MU </text><text class="cls-60" transform="translate(404.34 199.15)">Explor</text><text class="cls-60" transform="translate(476.35 199.15)">e</text><g class="cls-11"><path class="cls-10" d="M617.28,222.92l9.37-2.18c-.13-.65-.27-1.29-.4-1.94l-9-.44V176.14c-3.28,1.7-6.27,2.28-7.55,4.08-8.44,11.84-16.56,23.92-24.67,36-.95,1.4-1.19,3.28-2.07,5.83h29.85c2.11,13.57,2.11,13.57,4.47,13.51Zm52.58-28.3c0,11.48.4,23-.1,34.44-.61,14-7.94,23.55-20,26.76a49.49,49.49,0,0,1-12.17,1.58c-20.4.15-40.8.37-61.18-.12a46.27,46.27,0,0,1-18.24-4.13c-9.47-4.5-13.76-13.35-13.9-23.56-.32-23.47-.61-47,0-70.42.46-16.9,11.23-27.33,28.23-27.71q34.43-.78,68.88,0c17.19.39,27.24,10.95,28.44,28.21.06.85.13,1.71.13,2.57q0,16.19,0,32.38h-.16"/></g><rect class="cls-10" x="570.53" y="162.9" width="68.39" height="76.73"/><g class="cls-11"><path class="cls-57" d="M558.77,185.86l-.12,1v.65a2.62,2.62,0,0,0-1.63.73c-.11.17-.06.62-.2.9a3,3,0,0,1-.33.51l-.86.28v.81l-1.49.74.25.31-.06.5-.39.2.48.23-.18,6.3-.86.32s-.28.23-.23-.47a.36.36,0,0,0-.69-.23.42.42,0,0,0,.19.38l-.19,2.27-.34,2-1.75.57,1.19,1.28-.34,8.24-1.45.69.87,1.1-.87,40.41,7.9,1.54,6.78-1,.67-40.07,1.17-.94-1.42-.94.08-8.36.92-.85-1.5-1V200s0,.27-.17-.23-.29-.87-.51-.6a1.28,1.28,0,0,0-.19.75l-.83-.35.11-6.16.4-.19-.22-.37.06-.47L562,191.25l-.09-1-1.07-.47a4.71,4.71,0,0,0-.45-1.7c-.31-.71-1.31-.74-1.31-.74Z"/><path class="cls-58" d="M557,208.2c0-1.63-.9-2.35-1.63-2.47-1.25-.22-2.75,1.32-2.75,3s.63,2.95,1.9,2.95,2.48-1.8,2.48-3.43"/><path class="cls-58" d="M559.69,208.43c0-1.62,1-2.6,2-2.46,1.26.16,1.88,1.94,1.88,3.56s-.84,2.3-1.88,2.3-2-1.78-2-3.4"/><path class="cls-58" d="M555.87,198.57s.06-3.11.22-3.94.42-1.2.79-1a.79.79,0,0,1,.42.52l-.26,4.14Z"/><path class="cls-58" d="M559.88,198.34l.2-3.68c.25-1.14.76-.92.92-.54a4.31,4.31,0,0,1,.26.88v3.94Z"/></g><polygon class="cls-58" points="557.04 198.29 557.3 198.23 557.3 194.15 557.04 198.29"/><g class="cls-11"><path class="cls-58" d="M551.84,234.24l4.37-.43V219c-2.16-1-3.9,1.12-3.9,1.12Z"/><path class="cls-58" d="M559.69,233.12l.19-14.08c2.37-1.18,3.3.63,3.3.63v14.57l-3.5-.37Z"/><path class="cls-57" d="M567.34,238.46l5.22-2.25,46.32-2.64,5.67,5.41,5.09-5.31,10.12-4.11,0-4.92,4,0,.06-6.93.36-.24v-1.1c.76-.32.69-1.51,1-1.84a4.47,4.47,0,0,1,.59-.52l0-2.34a13.67,13.67,0,0,0,.27,2.36c.14.1.54.27.65.44s.34,1.22.49,1.33l.85.71v1l.62.58.29,6.52.74.29.2,1.76.38.13-.42.39.06.8,2.39.11.13,1.84,7.11-.26,2.3,6.48,1.27,1,.47,18.57-97.5,1.62.61-16.22-1.21-.06Z"/></g><polygon class="cls-58" points="578.47 243.87 579.46 243.88 579.48 241.03 578.5 241.02 578.47 243.87"/><rect class="cls-58" x="580.95" y="241.8" width="2.85" height="0.99" transform="translate(334.35 822.26) rotate(-89.44)"/><polygon class="cls-58" points="585.42 243.63 586.41 243.64 586.43 240.79 585.44 240.78 585.42 243.63"/><polygon class="cls-58" points="588.98 243.48 589.96 243.49 589.99 240.64 589 240.63 588.98 243.48"/><rect class="cls-58" x="591.82" y="241.4" width="2.85" height="0.99" transform="translate(345.54 832.73) rotate(-89.44)"/><rect class="cls-58" x="577.5" y="248.07" width="2.85" height="0.99" transform="translate(324.69 825.02) rotate(-89.44)"/><polygon class="cls-58" points="581.81 249.83 582.8 249.84 582.83 246.99 581.84 246.98 581.81 249.83"/><rect class="cls-58" x="584.45" y="247.82" width="2.85" height="0.99" transform="translate(331.81 831.73) rotate(-89.44)"/><rect class="cls-58" x="588.01" y="247.67" width="2.85" height="0.99" transform="matrix(0.01, -1, 1, 0.01, 335.49, 835.13)"/><rect class="cls-58" x="591.77" y="247.51" width="2.85" height="0.99" transform="translate(339.36 838.72) rotate(-89.44)"/><polygon class="cls-58" points="633.09 237.78 633.17 241.72 635.27 241.6 635.1 237.66 633.09 237.78"/><polygon class="cls-58" points="633.36 244.24 633.45 248.18 635.54 248.06 635.38 244.12 633.36 244.24"/><polygon class="cls-57" points="573.14 257.21 659.3 255.83 613.5 266.84 573.14 257.21"/><polygon class="cls-57" points="566.65 193.34 598.91 191.83 600.28 200.13 572 202.19 566.65 193.34"/><polygon class="cls-57" points="639.5 219.46 618.36 220.45 617.46 215.01 635.99 213.66 639.5 219.46"/><text class="cls-61" transform="translate(606.73 199.95)">Explor</text><polygon class="cls-58" points="627.72 425.74 627.81 429.68 629.9 429.56 629.74 425.62 627.72 425.74"/><polygon class="cls-58" points="621.66 426.06 621.74 430.01 623.84 429.89 623.67 425.95 621.66 426.06"/><polygon class="cls-58" points="627.99 432.19 628.08 436.14 630.17 436.02 630.01 432.08 627.99 432.19"/><polygon class="cls-58" points="621.93 432.52 622.02 436.47 624.11 436.35 623.95 432.4 621.93 432.52"/><polygon class="cls-58" points="636.08 429.2 637.08 429.25 636.95 425.71 635.98 425.45 636.08 429.2"/><polygon class="cls-58" points="637.94 429.44 638.95 429.49 638.81 425.96 637.84 425.69 637.94 429.44"/><polygon class="cls-58" points="636.39 435.1 637.39 435.14 637.26 431.61 636.3 431.35 636.39 435.1"/><polygon class="cls-58" points="638.26 435.34 639.26 435.38 639.13 431.85 638.16 431.59 638.26 435.34"/><polygon class="cls-58" points="641.86 429.86 642.86 429.91 642.73 426.38 641.76 426.11 641.86 429.86"/><polygon class="cls-58" points="643.72 430.1 644.72 430.15 644.59 426.62 643.63 426.35 643.72 430.1"/><polygon class="cls-58" points="642.17 435.76 643.18 435.8 643.04 432.27 642.08 432 642.17 435.76"/><polygon class="cls-58" points="644.04 436 645.04 436.05 644.91 432.51 643.94 432.25 644.04 436"/><g class="cls-11"><path class="cls-58" d="M627.84,411.52l0-3.35c.47-.79.92-.14.92-.14l.07,3.5Z"/></g><text class="cls-59" transform="translate(616.15 365.01)">MU </text><text class="cls-61" transform="translate(643.19 388.51)">e</text><g class="cls-11"><path class="cls-57" d="M445.81,404.68l9.36-2.18c-.13-.65-.27-1.3-.4-1.95l-9-.44V357.89c-3.28,1.71-6.27,2.28-7.55,4.08-8.44,11.85-16.56,23.93-24.67,36-.94,1.41-1.19,3.28-2.07,5.83h29.85c2.11,13.57,2.11,13.57,4.48,13.51Zm52.57-28.3c0,11.48.4,23-.1,34.43-.61,14-7.94,23.55-20,26.76a49,49,0,0,1-12.17,1.58c-20.4.15-40.8.38-61.18-.12a46.18,46.18,0,0,1-18.23-4.13c-9.48-4.5-13.76-13.35-13.91-23.56-.32-23.47-.61-47,0-70.41.46-16.91,11.24-27.33,28.23-27.72q34.43-.78,68.88,0c17.19.39,27.24,11,28.44,28.21.06.85.13,1.71.13,2.57q0,16.18,0,32.39Z"/><path class="cls-62" d="M445.81,404.68l9.36-2.18c-.13-.65-.27-1.3-.4-1.95l-9-.44V357.89c-3.28,1.71-6.27,2.28-7.55,4.08-8.44,11.85-16.56,23.93-24.67,36-.94,1.41-1.19,3.28-2.07,5.83h29.85c2.11,13.57,2.11,13.57,4.48,13.51Zm52.57-28.3c0,11.48.4,23-.1,34.43-.61,14-7.94,23.55-20,26.76a49,49,0,0,1-12.17,1.58c-20.4.15-40.8.38-61.18-.12a46.18,46.18,0,0,1-18.23-4.13c-9.48-4.5-13.76-13.35-13.91-23.56-.32-23.47-.61-47,0-70.41.46-16.91,11.24-27.33,28.23-27.72q34.43-.78,68.88,0c17.19.39,27.24,11,28.44,28.21.06.85.13,1.71.13,2.57q0,16.18,0,32.39Z"/></g><rect class="cls-57" x="399.05" y="344.66" width="68.39" height="76.73"/><g class="cls-63"><path class="cls-10" d="M422.3,321.2l-.39,3.22v2.16a9,9,0,0,0-5.46,2.46c-.37.56-.19,2.07-.65,3a8.74,8.74,0,0,1-1.11,1.7l-2.87.94v2.74l-5,2.45.84,1-.19,1.69-1.29.66,1.57.76-.58,21.06-2.9,1.09s-.91.77-.76-1.56a1.21,1.21,0,0,0-2.29-.77,1.3,1.3,0,0,0,.61,1.24l-.63,7.61-1.14,6.63-5.84,1.91,4,4.28-1.12,27.57-4.88,2.28,2.92,3.71-2.92,135.18,26.45,5.13L441.32,556l2.24-134,3.92-3.14-4.76-3.14L443,387.7l3.08-2.85-5-3.42V368.31s-.14.9-.55-.76-1-2.91-1.71-2a4.29,4.29,0,0,0-.66,2.5l-2.77-1.17.39-20.61,1.32-.62-.71-1.25.2-1.55L433,339.22l-.31-3.21-3.56-1.56a15.72,15.72,0,0,0-1.52-5.7c-1-2.39-4.38-2.49-4.38-2.49Z"/></g><g class="cls-11"><path class="cls-57" d="M416.54,395.92c0-5.46-3-7.85-5.46-8.28-4.2-.74-9.19,4.42-9.19,9.88s2.09,9.87,6.34,9.87,8.31-6,8.31-11.47"/><path class="cls-57" d="M425.4,396.7c0-5.42,3.28-8.7,6.73-8.25,4.21.56,6.29,6.51,6.29,11.92s-2.82,7.69-6.29,7.69-6.73-5.95-6.73-11.36"/><path class="cls-57" d="M412.62,363.71s.18-10.41.75-13.18,1.4-4,2.62-3.35a2.72,2.72,0,0,1,1.41,1.72l-.86,13.86Z"/><path class="cls-57" d="M426,363l.66-12.33c.84-3.82,2.53-3.06,3.1-1.81a14.11,14.11,0,0,1,.84,3V365Z"/><path class="cls-57" d="M616.21,408.56l9.35-2.17c-.14-.65-.27-1.3-.41-1.94l-9-.44V361.9c-3.28,1.7-6.26,2.28-7.53,4.07-8.42,11.81-16.52,23.86-24.61,35.91-.94,1.4-1.19,3.27-2.06,5.81h29.77c2.1,13.54,2.1,13.54,4.46,13.48Zm52.44-28.22c0,11.45.4,22.91-.1,34.34-.61,14-7.92,23.48-19.93,26.69a49.24,49.24,0,0,1-12.14,1.57c-20.34.15-40.68.38-61-.12a46,46,0,0,1-18.19-4.12c-9.45-4.48-13.72-13.31-13.86-23.49-.33-23.41-.61-46.83,0-70.23.46-16.86,11.21-27.25,28.16-27.64q34.33-.78,68.69,0c17.14.39,27.17,10.92,28.37,28.14.06.85.13,1.7.13,2.56q0,16.14,0,32.3h-.16"/><path class="cls-62" d="M616.21,408.56l9.35-2.17c-.14-.65-.27-1.3-.41-1.94l-9-.44V361.9c-3.28,1.7-6.26,2.28-7.53,4.07-8.42,11.81-16.52,23.86-24.61,35.91-.94,1.4-1.19,3.27-2.06,5.81h29.77c2.1,13.54,2.1,13.54,4.46,13.48Zm52.44-28.22c0,11.45.4,22.91-.1,34.34-.61,14-7.92,23.48-19.93,26.69a49.24,49.24,0,0,1-12.14,1.57c-20.34.15-40.68.38-61-.12a46,46,0,0,1-18.19-4.12c-9.45-4.48-13.72-13.31-13.86-23.49-.33-23.41-.61-46.83,0-70.23.46-16.86,11.21-27.25,28.16-27.64q34.33-.78,68.69,0c17.14.39,27.17,10.92,28.37,28.14.06.85.13,1.7.13,2.56q0,16.14,0,32.3Z"/></g><rect class="cls-57" x="569.58" y="348.7" width="68.21" height="76.53"/><polygon class="cls-10" points="600.36 402.73 600.36 379.59 600.17 379.59 590.86 402.39 586.34 402.39 577.03 379.59 576.84 379.59 576.84 402.73 570.45 402.73 570.45 368.45 578.76 368.45 588.5 392.75 588.69 392.75 598.43 368.45 606.75 368.45 606.75 402.73 600.36 402.73"/><g class="cls-11"><path class="cls-10" d="M619.62,389.9c0,4.39,2.59,7.27,7.2,7.27s7.18-2.88,7.18-7.27V368.45h7.17v22.16c0,7.55-5.58,12.71-14.35,12.71s-14.37-5.16-14.37-12.71V368.45h7.17Z"/></g><polygon class="cls-10" points="862.79 222.74 862.79 180.08 862.41 180.08 843.97 222.13 835.03 222.13 816.58 180.08 816.2 180.08 816.2 222.74 803.55 222.74 803.55 159.54 820.02 159.54 839.31 204.34 839.69 204.34 858.98 159.54 875.45 159.54 875.45 222.74 862.79 222.74"/><g class="cls-11"><path class="cls-10" d="M901,199.09c0,8.1,5.13,13.4,14.26,13.4s14.21-5.3,14.21-13.4V159.54h14.22v40.87c0,13.92-11.06,23.42-28.43,23.42s-28.47-9.5-28.47-23.42V159.54H901Z"/><path class="cls-12" d="M1009.05,186.21v13.32H996.58a6.78,6.78,0,0,0-3.6.7,2.63,2.63,0,0,0-1.06,2.37,2.56,2.56,0,0,0,1.08,2.47,10.76,10.76,0,0,0,4.42.59h12.85v17.08h-15q-10.59,0-16.19-4.71t-5.6-13.6V181q0-8.58,5.29-13.31t14.9-4.73h16.61v17.17H998.08q-4.94,0-4.94,3a2.58,2.58,0,0,0,1.18,2.44,9.14,9.14,0,0,0,4.19.67Z"/><path class="cls-12" d="M1043.59,179.08h17.6v9.59a14.45,14.45,0,0,1-1.3,6.63,11.54,11.54,0,0,1-4.45,4.45,12.21,12.21,0,0,1,4.48,4.42,13.63,13.63,0,0,1,1.27,6.31v12.26h-17.6V209.56q0-4.51-3.39-4.51t-3.3,3.89v13.8h-17.6V211.09a12.31,12.31,0,0,1,1.58-6.57,15.11,15.11,0,0,1,5.48-4.77,15.63,15.63,0,0,1-5.48-5,12.85,12.85,0,0,1-1.58-6.7v-9h17.6v11a4.16,4.16,0,0,0,.95,2.81,3,3,0,0,0,2.4,1.09c2.22,0,3.34-1.3,3.34-3.9Z"/><path class="cls-12" d="M1087.35,238.9h-17.6V202.46q0-10,5.65-16.33a22.91,22.91,0,0,1,8.26-5.78,25.73,25.73,0,0,1,10.28-2.15,25.28,25.28,0,0,1,17.69,6.57,21,21,0,0,1,7.2,16.12,21.31,21.31,0,0,1-7.15,16,23.9,23.9,0,0,1-16.94,6.74c-1.07,0-2.64-.1-4.71-.31v-18a7.23,7.23,0,0,0,4.33,1.62,6.52,6.52,0,0,0,4.68-1.88,6,6,0,0,0,2-4.47,5.71,5.71,0,0,0-2-4.4,7,7,0,0,0-4.84-1.82q-6.78,0-6.78,8.72Z"/></g><rect class="cls-12" x="1126.55" y="162.96" width="17.6" height="59.78"/><g class="cls-11"><path class="cls-12" d="M1234,178.64v17.52a7.25,7.25,0,0,0-3.34-1q-4.8,0-4.8,6.84v20.71h-17.6V198.87q0-9.47,5.55-15.09t14.82-5.62a38.93,38.93,0,0,1,5.37.48"/><path class="cls-12" d="M1285.32,203.56h-26.68a10.72,10.72,0,0,1,.24-7.75h8.94q-.94-4.86-5.88-4.86a6.53,6.53,0,0,0-5.37,2.6,10.41,10.41,0,0,0-2.07,6.68,11.11,11.11,0,0,0,2,6.88,6.28,6.28,0,0,0,5.25,2.62,7.18,7.18,0,0,0,5.08-2.45l10,11.21a25.74,25.74,0,0,1-15.57,5.13,25,25,0,0,1-17.56-6.53,21.91,21.91,0,0,1,.07-32.36,25.06,25.06,0,0,1,17.63-6.62,24.22,24.22,0,0,1,17.15,6.46,20.89,20.89,0,0,1,6.94,15.92c0,.65-.06,1.67-.19,3.07"/><path class="cls-64" d="M1178.94,190.38a6.19,6.19,0,0,0-4.51,1.83,6.28,6.28,0,0,0,0,9,6.41,6.41,0,0,0,9,0,6.28,6.28,0,0,0,0-9,6.24,6.24,0,0,0-4.56-1.83m.45-15.56a22.43,22.43,0,0,1,16.1,6.43,21.08,21.08,0,0,1-.09,30.93,24.22,24.22,0,0,1-32.85,0,20.58,20.58,0,0,1-6.82-15.5,20.34,20.34,0,0,1,6.82-15.54,23.89,23.89,0,0,1,16.84-6.3"/></g><polygon class="cls-64" points="1157.07 204.16 1161.32 211.53 1179.16 233.3 1196.99 210.53 1200.88 204.16 1157.07 204.16"/><g class="cls-11"><path class="cls-65" d="M1174.14,186.44a6.24,6.24,0,0,0-4.52,1.84,6.29,6.29,0,0,0,0,9,6.19,6.19,0,0,0,4.49,1.85,6.25,6.25,0,0,0,4.54-1.85,6.3,6.3,0,0,0,0-9,6.26,6.26,0,0,0-4.56-1.84m.44-15.56a22.49,22.49,0,0,1,16.11,6.43,21.08,21.08,0,0,1-.09,30.93,24.22,24.22,0,0,1-32.85,0,20.56,20.56,0,0,1-6.82-15.49,20.34,20.34,0,0,1,6.82-15.54,23.85,23.85,0,0,1,16.83-6.31"/></g><polygon class="cls-65" points="1152.26 200.22 1156.52 207.59 1174.36 229.37 1192.19 206.6 1196.08 200.22 1152.26 200.22"/></svg>