<svg xmlns="http://www.w3.org/2000/svg" xmlns:xlink="http://www.w3.org/1999/xlink" viewBox="0 0 1500 437"><defs><style>.cls-1,.cls-4,.cls-5,.cls-6{fill:none;}.cls-2{clip-path:url(#clip-path);}.cls-3{fill:#231f20;}.cls-4{stroke:#fff;}.cls-4,.cls-5,.cls-6{stroke-miterlimit:10;}.cls-5{stroke:#000;}.cls-6{stroke:#231f20;}.cls-7{clip-path:url(#clip-path-2);}.cls-8{fill:#fff;}.cls-11,.cls-9{font-size:28.45px;font-family:Usual-Regular, Usual;}.cls-12,.cls-9{letter-spacing:0.04em;}.cls-10{clip-path:url(#clip-path-4);}.cls-11{letter-spacing:0.05em;}.cls-13{letter-spacing:0.04em;}.cls-14{letter-spacing:0.05em;}</style><clipPath id="clip-path"><rect class="cls-1" x="35" y="31.3" width="636.26" height="265"/></clipPath><clipPath id="clip-path-2"><rect class="cls-1" x="35" y="31.3" width="637" height="265.31"/></clipPath><clipPath id="clip-path-4"><rect class="cls-1" x="828" y="31.45" width="637.34" height="265"/></clipPath></defs><title>projectsDesign</title><g id="Layer_3" data-name="Layer 3"><g class="cls-2"><path class="cls-3" d="M191.35,68.43a9.11,9.11,0,1,0-18.21,0c0,5.19,4.11,9.6,9,9.6a9.4,9.4,0,0,0,9.22-9.6m2.89,24.94c-10,14.56-11.44,26.86-11.44,26.86-.22,1-1.11,1-1.33,0,0,0-1.89-12.3-11.66-26.86C161.71,81.86,158,77.35,158,68a23.87,23.87,0,0,1,23.88-24.15A24.12,24.12,0,0,1,206,68c0,9.37-7.11,18.51-11.77,25.39"/><path class="cls-3" d="M648.89,208a13.9,13.9,0,1,0-27.8,0c0,7.93,6.27,14.64,13.73,14.64,8,0,14.07-6.71,14.07-14.64m4.41,38.07c-15.26,22.23-17.47,41-17.47,41-.34,1.55-1.69,1.55-2,0,0,0-2.88-18.78-17.8-41-12.37-17.57-18-24.46-18-38.76a36.45,36.45,0,0,1,36.45-36.88,36.84,36.84,0,0,1,36.78,36.88c0,14.3-10.85,28.25-18,38.76"/><path class="cls-3" d="M79.88,290.64c-9,0-18,.09-27,0-10.15-.13-16.23-4.59-17.53-14.56C32.59,254.74,45.56,222.42,73,216.92a38.38,38.38,0,0,1,41.36,19.51c5.61,10.18,8.94,22.28,10.62,33.92,1.89,13.16-5.85,20.18-18.93,20.32-8.7.08-17.41,0-26.12,0Z"/><path class="cls-3" d="M80,154.83c15.24-.05,28,12.71,27.89,27.86a28,28,0,0,1-28.08,27.73C64.92,210.35,52.6,198,52.34,183A27.91,27.91,0,0,1,80,154.83"/><path class="cls-3" d="M583.59,293.45c-8.82,0-17.65.09-26.47,0-10-.12-15.92-4.49-17.2-14.24-2.72-20.85,10-52.44,36.87-57.82a37.69,37.69,0,0,1,40.56,19.07c5.5,10,8.79,21.79,10.42,33.17,1.86,12.87-5.73,19.74-18.57,19.86-8.53.09-17.08,0-25.61,0Z"/><path class="cls-4" d="M583.59,293.45c-8.82,0-17.65.09-26.47,0-10-.12-15.92-4.49-17.2-14.24-2.72-20.85,10-52.44,36.87-57.82a37.69,37.69,0,0,1,40.56,19.07c5.5,10,8.79,21.79,10.42,33.17,1.86,12.87-5.73,19.74-18.57,19.86-8.53.09-17.08,0-25.61,0Z"/><path class="cls-3" d="M583.65,159.3a27,27,0,1,1-.18,53.93c-14.39-.07-26.32-12-26.57-26.64a27,27,0,0,1,26.75-27.29"/><path class="cls-4" d="M583.65,159.3a27,27,0,1,1-.18,53.93c-14.39-.07-26.32-12-26.57-26.64A27,27,0,0,1,583.65,159.3Z"/><path class="cls-5" d="M380.3,225.58H341.25c-10.35,0-18.81-8.69-18.81-19.31V110.63c0-10.63,8.46-19.32,18.81-19.32H380.3c10.35,0,18.81,8.69,18.81,19.32v95.64C399.11,216.89,390.65,225.58,380.3,225.58Z"/></g><path class="cls-6" d="M368.8,102.77h0Z"/><g class="cls-7"><path class="cls-8" d="M366.66,214.06a5.51,5.51,0,1,0-5.51,5.64,5.58,5.58,0,0,0,5.51-5.64"/><path class="cls-6" d="M366.66,214.06a5.51,5.51,0,1,0-5.51,5.64A5.58,5.58,0,0,0,366.66,214.06Z"/><path class="cls-3" d="M383,159.4l-15.57-13.14c-.89-.75-1.57-1.59-2.9-1.59a2.91,2.91,0,0,0-2.9,2.94v8.84H341.39a2.93,2.93,0,0,0-2.91,3v5.88a2.93,2.93,0,0,0,2.91,2.95h20.28v8.84a2.91,2.91,0,0,0,2.9,2.94c1.33,0,2-.84,2.9-1.59L383,165.28c1.11-.91,1.81-1.63,1.81-2.94s-.7-2-1.81-2.94"/><path class="cls-5" d="M290.12,171.49,142.8,238.23M107.72,43.4a5.25,5.25,0,0,1,0-.56,8.68,8.68,0,0,1,8.62-8.73H248.22l.56,0a8.7,8.7,0,0,1,8.63,8.75c0,.19,0,.37,0,.56v74.77c0,.18,0,.37,0,.56a8.7,8.7,0,0,1-8.64,8.75H182.55l-40.31,23.36,11.46-23.36H116.32a8.69,8.69,0,0,1-8.63-8.75c0-.19,0-.38,0-.56Z"/><path d="M301.1,166.91c-5.83.38-13.44,0-18.77-1.68l6.76,7.12.7,9.87c2.35-5.14,7.13-11.17,11.31-15.31"/></g><line class="cls-5" x1="532.56" y1="214.46" x2="420.45" y2="164.83"/><g class="cls-7"><path d="M543.51,220c-4.16-4.15-9-10.17-11.3-15.32l-.71,9.88-6.75,7.12c5.34-1.66,12.94-2.07,18.76-1.68"/></g><text class="cls-9" transform="translate(41.41 343.4)"><tspan xml:space="preserve"> “Point to point ” means users need to make </tspan><tspan x="0" y="34.15">sure the destination to start the navigation.</tspan></text><g class="cls-10"><path class="cls-6" d="M960.05,69.89a8.13,8.13,0,0,0-16.25,0,8.13,8.13,0,1,0,16.25,0Zm2.57,21.34c-8.91,12.46-10.2,23-10.2,23-.2.87-1,.87-1.19,0,0,0-1.68-10.53-10.4-23-7.23-9.85-10.49-13.71-10.49-21.73,0-11.49,9.41-20.67,21.29-20.67S973.12,58,973.12,69.5C973.12,77.52,966.78,85.34,962.62,91.23Z"/><path class="cls-3" d="M874.47,286.83c-9.31,0-18.63.09-27.94,0-10.5-.13-16.8-4.52-18.15-14.33-2.88-21,10.55-52.81,38.92-58.22,16-3.06,33.69,3.46,42.81,19.2,5.81,10,9.26,21.94,11,33.4,1.95,12.95-6.05,19.86-19.6,20-9,.08-18,0-27,0Z"/><path class="cls-3" d="M874.54,153.14c15.78,0,29,12.52,28.88,27.43-.14,15.1-13.21,27.37-29.08,27.29-15.36-.07-28.12-12.22-28.39-27-.27-15,12.76-27.63,28.59-27.69"/><path class="cls-5" d="M1099.4,173.94,947.25,239.38M903,43.4c0-.19,0-.37,0-.55a8.76,8.76,0,0,1,8.93-8.59h136.67l.57,0a8.78,8.78,0,0,1,8.95,8.61c0,.18,0,.36,0,.55V117a4.93,4.93,0,0,1,0,.55,8.78,8.78,0,0,1-8.95,8.61H980.55l-41.77,23,11.88-23H911.93A8.78,8.78,0,0,1,903,117.5c0-.19,0-.37,0-.55Z"/><path d="M1111.11,169.25c-6.29.39-14.5,0-20.26-1.73l7.29,7.32.76,10.14c2.54-5.29,7.71-11.48,12.21-15.73"/><path class="cls-6" d="M1439.82,215.73c0-7.69-6.2-13.72-14.29-13.72a13.85,13.85,0,0,0-14,13.72,14.13,14.13,0,1,0,28.25,0Zm4.48,37c-15.5,21.59-17.74,39.83-17.74,39.83-.34,1.51-1.72,1.51-2.07,0,0,0-2.93-18.24-18.08-39.83-12.58-17.06-18.26-23.76-18.26-37.65,0-19.91,16.36-35.81,37-35.81,20.5,0,37.38,15.9,37.38,35.81C1462.56,229,1451.54,242.51,1444.3,252.71Z"/><path class="cls-5" d="M1193.14,232.79h-38.88c-11.24,0-20.44-8.94-20.44-19.87V120.4c0-10.93,9.2-19.87,20.44-19.87h38.88c11.24,0,20.44,8.94,20.44,19.87v92.52C1213.58,223.85,1204.38,232.79,1193.14,232.79Z"/></g><path class="cls-6" d="M1181.8,111.7h0Z"/><g class="cls-10"><path class="cls-8" d="M1179.57,221.2a5.88,5.88,0,1,0-5.87,5.59,5.73,5.73,0,0,0,5.87-5.59"/><ellipse class="cls-6" cx="1173.7" cy="221.2" rx="5.88" ry="5.59"/><path class="cls-3" d="M1168.47,182.89h12.38v11.56h-12.38Zm-6.87-45a22.38,22.38,0,0,1,12-3q9.35,0,15.54,4.32t6.19,12.8a14.12,14.12,0,0,1-2.69,8.76,30.08,30.08,0,0,1-6,5.52l-2.92,2.2a8.64,8.64,0,0,0-3.18,4.2,17.31,17.31,0,0,0-.54,4.72h-11.22c.17-4.5.61-7.62,1.32-9.34s2.56-3.7,5.53-5.94l3-2.28a10.31,10.31,0,0,0,2.39-2.36,7.87,7.87,0,0,0,1.65-4.84,9.16,9.16,0,0,0-1.83-5.54q-1.85-2.51-6.72-2.5t-6.79,3.08a11.65,11.65,0,0,0-2,6.4h-12q.5-11.4,8.23-16.16"/></g><line class="cls-5" x1="1350.59" y1="221.4" x2="1234.9" y2="172.78"/><g class="cls-10"><path d="M1362.29,227.07c-4.5-4.26-9.67-10.45-12.21-15.73l-.76,10.14-7.3,7.32c5.77-1.71,14-2.13,20.27-1.73"/><path class="cls-3" d="M1002.07,97.18h12.38v11.56h-12.38Zm-6.87-45a22.28,22.28,0,0,1,12-3q9.36,0,15.55,4.32t6.18,12.79a14.16,14.16,0,0,1-2.68,8.77,30.38,30.38,0,0,1-6,5.52l-2.92,2.2a8.66,8.66,0,0,0-3.19,4.2,17.75,17.75,0,0,0-.53,4.72h-11.22c.16-4.51.61-7.62,1.32-9.35s2.56-3.7,5.53-5.93l3-2.29a10.48,10.48,0,0,0,2.39-2.35,7.9,7.9,0,0,0,1.65-4.85,9.13,9.13,0,0,0-1.83-5.53q-1.85-2.51-6.72-2.51T1000.93,62a11.59,11.59,0,0,0-2,6.4H987q.51-11.41,8.24-16.16"/></g><text class="cls-11" transform="translate(825.41 343.4)">Poin<tspan class="cls-12" x="67.61" y="0">t </tspan><tspan x="87.25" y="0">t</tspan><tspan class="cls-13" x="99.08" y="0">o </tspan><tspan x="125.77" y="0">poin</tspan><tspan class="cls-12" x="191.79" y="0">t </tspan><tspan x="211.42" y="0">won’</tspan><tspan class="cls-12" x="282.87" y="0">t </tspan><tspan x="302.51" y="0">wor</tspan><tspan class="cls-13" x="358.69" y="0">k </tspan><tspan x="383.16" y="0">i</tspan><tspan class="cls-12" x="391.75" y="0">f </tspan><tspan x="411.38" y="0">th</tspan><tspan class="cls-12" x="442.1" y="0">e </tspan><tspan x="467.56" y="0">user</tspan><tspan class="cls-12" x="532.36" y="0">s </tspan><tspan x="556.21" y="0">don’</tspan><tspan class="cls-13" x="622.22" y="0">t </tspan><tspan x="0" y="34.15">kno</tspan><tspan class="cls-12" x="54.44" y="34.15">w </tspan><tspan x="87.34" y="34.15">thei</tspan><tspan class="cls-12" x="144.31" y="34.15">r </tspan><tspan x="164.31" y="34.15">destination</tspan><tspan class="cls-12" x="332.44" y="34.15">, </tspan><tspan class="cls-14" x="349.83" y="34.15">lik</tspan><tspan class="cls-13" x="383.67" y="34.15">e </tspan><tspan x="409.14" y="34.15">th</tspan><tspan class="cls-12" x="439.86" y="34.15">e </tspan><tspan x="465.32" y="34.15">freshmen</tspan><tspan class="cls-12" x="606.21" y="34.15">. </tspan></text></g></svg>