<svg xmlns="http://www.w3.org/2000/svg" xmlns:xlink="http://www.w3.org/1999/xlink" viewBox="0 0 750 288"><defs><style>.cls-1{fill:none;}.cls-2{font-size:32.71px;fill:#231f20;font-family:Usual-Medium, Usual;font-weight:500;}.cls-3{letter-spacing:-0.03em;}.cls-4{letter-spacing:0.04em;}.cls-5{letter-spacing:0.04em;}.cls-6{letter-spacing:0.04em;}.cls-7{letter-spacing:0.04em;}.cls-8{letter-spacing:0em;}.cls-14,.cls-9{font-size:27.26px;font-family:Usual-Regular, Usual;}.cls-10{letter-spacing:0.05em;}.cls-11{letter-spacing:0.05em;}.cls-12,.cls-14{letter-spacing:0.05em;}.cls-13{letter-spacing:0.05em;}.cls-15{letter-spacing:0em;}.cls-16{clip-path:url(#clip-path);}.cls-17{fill:#904399;}.cls-18{fill:#9a509f;}.cls-19{fill:#974b9d;}.cls-20{fill:#a25aa4;}.cls-21{fill:#9d509f;}.cls-22{fill:#ac64a8;}.cls-23{fill:#fff;}.cls-24{clip-path:url(#clip-path-2);}.cls-25{clip-path:url(#clip-path-3);}.cls-26{clip-path:url(#clip-path-4);}.cls-27{clip-path:url(#clip-path-5);}</style><clipPath id="clip-path"><rect class="cls-1" x="113.58" y="-28.53" width="727.9" height="328.53"/></clipPath><clipPath id="clip-path-2"><rect class="cls-1" x="298.97" y="73.57" width="127.89" height="128.05"/></clipPath><clipPath id="clip-path-3"><rect class="cls-1" x="298.89" y="73.57" width="128.05" height="128.05"/></clipPath><clipPath id="clip-path-4"><rect class="cls-1" x="50.58" y="77.43" width="112.22" height="109.99"/></clipPath><clipPath id="clip-path-5"><rect class="cls-1" x="50.58" y="76.32" width="112.22" height="112.22"/></clipPath></defs><title>projectsDesign</title><g id="Layer_3" data-name="Layer 3"><text class="cls-2" transform="translate(0.58 40.67)"><tspan class="cls-3">T</tspan><tspan class="cls-4" x="21.06" y="0">ec</tspan><tspan class="cls-5" x="60.74" y="0">hni</tspan><tspan class="cls-6" x="114.22" y="0">ca</tspan><tspan class="cls-7" x="153.46" y="0">l pl</tspan><tspan class="cls-6" x="206.42" y="0">atf</tspan><tspan class="cls-5" x="254.33" y="0">o</tspan><tspan class="cls-6" x="275.92" y="0">rm</tspan><tspan class="cls-5" x="322.56" y="0"> </tspan><tspan class="cls-6" x="332.6" y="0">&amp;</tspan><tspan class="cls-8" x="358.57" y="0"> </tspan><tspan class="cls-4" x="367.41" y="0">A</tspan><tspan class="cls-5" x="393.38" y="0">P</tspan><tspan x="417.81" y="0">I</tspan></text><text class="cls-9" transform="translate(66.33 236.88)"><tspan class="cls-10">S</tspan><tspan class="cls-11" x="18.86" y="0">wi</tspan><tspan class="cls-10" x="51.13" y="0">f</tspan><tspan x="62.5" y="0">t</tspan></text><text class="cls-9" transform="translate(321.24 236.88)"><tspan class="cls-12">A</tspan><tspan class="cls-13" x="21.34" y="0">R</tspan><tspan class="cls-12" x="41.7" y="0">K</tspan><tspan class="cls-11" x="61.52" y="0">i</tspan><tspan x="69.75" y="0">t</tspan></text><text class="cls-9" transform="translate(526.72 235.88)"><tspan class="cls-13">CoreLo</tspan><tspan class="cls-10" x="103.27" y="0">c</tspan><tspan class="cls-11" x="119.27" y="0">a</tspan><tspan class="cls-12" x="135.82" y="0">t</tspan><tspan class="cls-11" x="147.18" y="0">io</tspan><tspan x="173.51" y="0">n</tspan></text><text class="cls-14" transform="translate(600.25 268.59)">AP<tspan class="cls-15" x="41.73" y="0">I</tspan></text><g class="cls-16"><path class="cls-17" d="M664.41,170.46c7.68-6,7.68-15.67,0-21.65l-31.5-24.54c-7.68-6-20.12-6-27.8,0L573.6,148.81c-7.67,6-7.67,15.67,0,21.65L605.11,195c7.68,6,20.12,6,27.8,0Z"/><path class="cls-18" d="M664.41,170.46l1.31,1.69a15.18,15.18,0,0,0,0-25l-31.5-24.54a25.89,25.89,0,0,0-30.42,0l-31.51,24.54a15.18,15.18,0,0,0,0,25l31.51,24.54a25.93,25.93,0,0,0,30.42,0l31.5-24.54-1.31-1.69-1.31-1.68-31.5,24.54a21.64,21.64,0,0,1-25.18,0l-31.5-24.54c-3.4-2.66-4.93-5.93-4.94-9.14s1.54-6.49,4.94-9.15L606.42,126a21.68,21.68,0,0,1,25.18,0l31.5,24.54c3.4,2.66,4.93,5.94,4.94,9.15s-1.54,6.48-4.94,9.14Z"/><path class="cls-19" d="M664.41,153.4c7.68-6,7.68-15.67,0-21.65l-31.5-24.54c-7.68-6-20.12-6-27.8,0L573.6,131.75c-7.67,6-7.67,15.67,0,21.65l31.51,24.54c7.68,6,20.12,6,27.8,0Z"/><path class="cls-20" d="M664.41,153.4l1.31,1.68a15.18,15.18,0,0,0,0-25l-31.5-24.54a25.93,25.93,0,0,0-30.42,0l-31.51,24.54a15.18,15.18,0,0,0,0,25l31.51,24.54a25.89,25.89,0,0,0,30.42,0l31.5-24.54-1.31-1.68-1.31-1.68-31.5,24.54a21.68,21.68,0,0,1-25.18,0l-31.5-24.54c-3.4-2.66-4.93-5.93-4.94-9.15s1.54-6.48,4.94-9.14l31.5-24.54a21.64,21.64,0,0,1,25.18,0l31.5,24.54c3.4,2.66,4.93,5.93,4.94,9.14s-1.54,6.49-4.94,9.15Z"/><path class="cls-21" d="M664.41,136.34c7.68-6,7.68-15.68,0-21.66l-31.5-24.54c-7.68-6-20.12-6-27.8,0L573.6,114.68c-7.67,6-7.67,15.68,0,21.66l31.51,24.54c7.68,6,20.12,6,27.8,0Z"/><path class="cls-22" d="M664.41,136.34l1.31,1.68a15.18,15.18,0,0,0,0-25l-31.5-24.54a25.89,25.89,0,0,0-30.42,0L572.29,113a15.18,15.18,0,0,0,0,25l31.51,24.54a25.89,25.89,0,0,0,30.42,0L665.72,138l-1.31-1.68-1.31-1.68-31.5,24.53a21.64,21.64,0,0,1-25.18,0l-31.5-24.53c-3.4-2.66-4.93-5.94-4.94-9.15s1.54-6.48,4.94-9.14l31.5-24.55a21.68,21.68,0,0,1,25.18,0l31.5,24.55c3.4,2.66,4.93,5.93,4.94,9.14s-1.54,6.49-4.94,9.15Z"/></g><polygon class="cls-23" points="635.5 137.54 618.72 125.57 601.4 137.91 618.72 106.13 635.5 137.54"/><g class="cls-24"><g class="cls-25"><image width="258" height="258" transform="translate(298.89 73.57) scale(0.5)" xlink:href="projectsDesign1.png"/></g></g><g class="cls-26"><g class="cls-27"><image width="172" height="172" transform="translate(50.58 76.32) scale(0.65)" xlink:href="projectsDesign2.png"/></g></g></g></svg>