<svg xmlns="http://www.w3.org/2000/svg" xmlns:xlink="http://www.w3.org/1999/xlink" viewBox="0 0 750 354"><defs><style>.cls-1,.cls-5,.cls-6{fill:none;}.cls-2{clip-path:url(#clip-path);}.cls-3{fill:#b93e4e;}.cls-4{fill:#231f20;}.cls-5{stroke:#000;}.cls-5,.cls-6{stroke-miterlimit:10;}.cls-6{stroke:#231f20;}.cls-7{fill:#fff;}.cls-8{font-size:28.45px;font-family:Usual-Regular, Usual;letter-spacing:0.04em;}</style><clipPath id="clip-path"><rect class="cls-1" x="46" y="18.78" width="648.88" height="265"/></clipPath></defs><title>projectsDesign</title><g id="Layer_3" data-name="Layer 3"><g class="cls-2"><path class="cls-3" d="M221.14,55.45a4,4,0,1,0-8.08,0,4,4,0,1,0,8.08,0m1.29,10.89a28.64,28.64,0,0,0-5.08,11.73c-.1.45-.5.45-.59,0a31.84,31.84,0,0,0-5.18-11.73c-3.6-5-5.23-7-5.23-11.09A10.52,10.52,0,0,1,217,44.7a10.63,10.63,0,0,1,10.7,10.55c0,4.09-3.16,8.08-5.22,11.09M159.08,55.91a3.67,3.67,0,0,0-7.33,0,3.67,3.67,0,1,0,7.33,0m1.17,9.79a25.61,25.61,0,0,0-4.61,10.55c-.09.4-.45.4-.54,0a28.45,28.45,0,0,0-4.7-10.55c-3.26-4.51-4.74-6.28-4.74-10a9.49,9.49,0,0,1,9.62-9.48A9.6,9.6,0,0,1,165,55.74c0,3.68-2.86,7.26-4.74,10m31.32,1.9a5.31,5.31,0,0,0-10.61,0,5.31,5.31,0,1,0,10.61,0m1.68,14.3c-5.82,8.35-6.66,15.4-6.66,15.4-.13.58-.65.58-.78,0,0,0-1.1-7-6.79-15.4-4.73-6.6-6.86-9.19-6.86-14.56A13.79,13.79,0,0,1,186.07,53.5a14,14,0,0,1,14,13.84c0,5.37-4.14,10.61-6.86,14.56"/><path class="cls-4" d="M88.78,261.87c-8.57,0-17.15.09-25.72,0-9.67-.12-15.47-4.3-16.71-13.65-2.65-20,9.71-50.3,35.82-55.46A36.8,36.8,0,0,1,121.59,211c5.34,9.55,8.53,20.89,10.12,31.8,1.81,12.35-5.56,18.93-18,19.06-8.29.08-16.59,0-24.89,0Z"/><path class="cls-4" d="M88.84,134.52c14.52-.05,26.71,11.92,26.59,26.13a26.46,26.46,0,0,1-52.91.25c-.24-14.3,11.76-26.32,26.32-26.38"/><path class="cls-5" d="M164.91,185.27l141.72-63.22M392,135.61a.13.13,0,0,0,0-.06c0-.57-.7-1-1.57-1H366.3c-.86,0-1.57.46-1.57,1,0,0,0,0,0,.06v8.77s0,0,0,.07c0,.56.71,1,1.57,1h12.05l7.33,2.74-2.08-2.74h6.8c.87,0,1.57-.46,1.57-1a.15.15,0,0,0,0-.07Zm-51.17,19.5a.34.34,0,0,1,0-.1c0-.83,1-1.5,2.3-1.5h35.37c1.27,0,2.3.68,2.3,1.51v13.06c0,.83-1,1.51-2.3,1.51H360.77l-10.77,4,3.07-4h-10c-1.27,0-2.3-.68-2.3-1.51,0,0,0-.06,0-.1Zm-3.85-30v0c0-.43.53-.77,1.18-.77h18.06c.65,0,1.18.34,1.18.77v6.67c0,.43-.53.77-1.18.77h-9l-5.5,2.05,1.57-2.05h-5.1c-.65,0-1.18-.34-1.18-.77v-6.62ZM114.41,29.31c0-.18,0-.35,0-.53a8.25,8.25,0,0,1,8.27-8.24H249.07l.53,0a8.27,8.27,0,0,1,8.28,8.26c0,.18,0,.35,0,.53V99.88c0,.18,0,.35,0,.53a8.27,8.27,0,0,1-8.28,8.26H186.13l-38.63,22,11-22H122.66a8.27,8.27,0,0,1-8.28-8.26c0-.18,0-.35,0-.53Z"/><path d="M155.33,189.55c5.25-.34,12.12,0,16.93,1.5l-6.09-6.34-.64-8.76c-2.12,4.57-6.44,9.92-10.2,13.6"/><path class="cls-3" d="M683.32,200.1a7.18,7.18,0,1,0-14.36,0,7.18,7.18,0,1,0,14.36,0m2.28,19.35c-7.88,11.29-9,20.83-9,20.83-.18.79-.87.79-1.05,0,0,0-1.49-9.54-9.19-20.83-6.39-8.93-9.28-12.43-9.28-19.7A18.67,18.67,0,0,1,675.88,181a18.87,18.87,0,0,1,19,18.74c0,7.27-5.6,14.36-9.28,19.7M589.5,208a6.23,6.23,0,0,0-12.45,0,6.23,6.23,0,1,0,12.45,0m2,16.78c-6.84,9.79-7.82,18.07-7.82,18.07-.15.68-.76.68-.91,0,0,0-1.29-8.28-8-18.07-5.54-7.75-8-10.78-8-17.08a16.18,16.18,0,0,1,16.32-16.25,16.37,16.37,0,0,1,16.48,16.25c0,6.3-4.86,12.45-8,17.08m49.18-4.83a11.25,11.25,0,0,0-22.49,0c0,6.31,5.08,11.66,11.11,11.66a11.5,11.5,0,0,0,11.38-11.66m3.57,30.31c-12.34,17.69-14.12,32.63-14.12,32.63-.28,1.24-1.38,1.24-1.65,0,0,0-2.33-14.94-14.4-32.63-10-14-14.53-19.48-14.53-30.85A29.23,29.23,0,0,1,629,190a29.56,29.56,0,0,1,29.75,29.35c0,11.38-8.77,22.48-14.53,30.85"/><rect class="cls-6" x="326.88" y="83.67" width="74.72" height="127.46" rx="17.38"/></g><path class="cls-6" d="M372.34,94.75h0Z"/><g class="cls-2"><path class="cls-7" d="M370.3,199.36a6.06,6.06,0,1,0-6.06,6,6.06,6.06,0,0,0,6.06-6"/><circle class="cls-6" cx="364.24" cy="199.36" r="6.06"/></g><line class="cls-5" x1="429.95" y1="128.99" x2="537.85" y2="177.13"/><g class="cls-2"><path d="M420.37,124.72c3.76,3.68,8.08,9,10.2,13.6l.64-8.77,6.1-6.33c-4.82,1.48-11.68,1.84-16.94,1.5"/></g><line class="cls-5" x1="304.04" y1="157.12" x2="162.32" y2="220.35"/><g class="cls-2"><path d="M313.62,152.85c-5.26.34-12.12,0-16.94-1.5l6.1,6.33.63,8.77c2.12-4.57,6.44-9.92,10.21-13.6"/></g><line class="cls-5" x1="535.26" y1="203.66" x2="427.36" y2="155.52"/><g class="cls-2"><path d="M544.85,207.93c-3.77-3.68-8.09-9-10.21-13.6l-.64,8.76-6.09,6.34c4.82-1.48,11.68-1.84,16.94-1.5"/></g><text class="cls-8" transform="translate(43.41 327.4)">Make the building talks!</text></g></svg>