<svg xmlns="http://www.w3.org/2000/svg" xmlns:xlink="http://www.w3.org/1999/xlink" viewBox="0 0 1500 1014"><defs><style>.cls-1,.cls-14,.cls-16,.cls-47,.cls-49{fill:none;}.cls-2{fill:#b93e4e;}.cls-3{font-size:26.27px;}.cls-13,.cls-23,.cls-28,.cls-3,.cls-34,.cls-36,.cls-41,.cls-5,.cls-7{fill:#fff;}.cls-23,.cls-28,.cls-3,.cls-34,.cls-36,.cls-41,.cls-5,.cls-7{font-family:Usual-Regular, Usual;}.cls-4{letter-spacing:0.05em;}.cls-5,.cls-7{font-size:17.51px;}.cls-6{letter-spacing:0.05em;}.cls-11,.cls-7{letter-spacing:0.05em;}.cls-8{letter-spacing:0.05em;}.cls-9{letter-spacing:0em;}.cls-10{letter-spacing:0.05em;}.cls-12{clip-path:url(#clip-path);}.cls-14,.cls-49{stroke:#000;}.cls-14{stroke-miterlimit:10;}.cls-14,.cls-16{stroke-width:0.75px;}.cls-15{fill:#231f20;}.cls-16{stroke:#231f20;}.cls-17{font-size:32.83px;font-family:Usual-Medium, Usual;font-weight:500;}.cls-18{letter-spacing:0.05em;}.cls-19{letter-spacing:0.05em;}.cls-20{letter-spacing:0.05em;}.cls-21{letter-spacing:0.05em;}.cls-22{letter-spacing:0.05em;}.cls-23,.cls-41{font-size:21.89px;}.cls-24,.cls-41{letter-spacing:0.05em;}.cls-25{letter-spacing:0.05em;}.cls-26{letter-spacing:0.05em;}.cls-27{letter-spacing:0.05em;}.cls-28,.cls-34,.cls-36{font-size:24.08px;}.cls-29{letter-spacing:0.04em;}.cls-30{letter-spacing:0.04em;}.cls-31,.cls-34{letter-spacing:0.04em;}.cls-32{letter-spacing:0.04em;}.cls-33{letter-spacing:0.04em;}.cls-35{letter-spacing:0em;}.cls-36,.cls-40{letter-spacing:0.05em;}.cls-37{letter-spacing:0.05em;}.cls-38{letter-spacing:0.05em;}.cls-39{letter-spacing:0.05em;}.cls-42{letter-spacing:0em;}.cls-43{letter-spacing:0.05em;}.cls-44{letter-spacing:0.05em;}.cls-45{letter-spacing:0.05em;}.cls-46{clip-path:url(#clip-path-5);}.cls-47{stroke:#fff;}.cls-48{clip-path:url(#clip-path-6);}</style><clipPath id="clip-path"><rect class="cls-1" x="-3" y="27.39" width="1501" height="1463.47"/></clipPath><clipPath id="clip-path-5"><path class="cls-1" d="M988.48,633.31c.08.35.15.71.22,1.07h-.19l-.12,2.5a.78.78,0,0,1-.56-.41c-.12-.24-.15-.59-.33-.72-.91-.68-1.85-1.34-2.82-1.93-.22-.14-.79-.1-.88.06a3.45,3.45,0,0,0-.4,1.45c-.09,2-.12,4.12-.18,6.18,0,0-.1.09-.13.15-.5,1.06-1,2.12-1.48,3.2-.63,1.39-1.25,2.8-1.86,4.2-.22.51-.29,1.17-.65,1.52a6.1,6.1,0,0,0-1.52,4.2c-.14,1.94-.12,4-1.79,5.45-.25.22-.15.92-.13,1.39a15,15,0,0,1,.17,2.48,17,17,0,0,0-.24,2.08v.08a3.7,3.7,0,0,0,.58,2,1.24,1.24,0,0,1,.24.75c-.14,1.06.13,1.79,1.44,1.93-.42.26-.76.35-.87.57a3.38,3.38,0,0,0,.42,2.93c.18.23.27.83.12,1a1.58,1.58,0,0,0-.22,1.94,22.61,22.61,0,0,1,1,2.2c.34,1.09,1,2.15.47,3.4a1.15,1.15,0,0,0,.46,1.39c1.15,1,2.77,1.29,3.45,2.85.06.13.33.16.49.26a1.51,1.51,0,0,1,.53.34c.61.92,1.22,1.85,1.75,2.81a3.43,3.43,0,0,1,.54,1.65c-.06,1.59-.12,1.59,1.41,1.94.2,0,.4,0,.58.11,1.59.57,3.36.27,4.86,1.49a39.06,39.06,0,0,0,4.27,2.78h94.67a2.2,2.2,0,0,1,.15-.26c.58-1,1-2.1,2.29-2.45a1.91,1.91,0,0,0,1-.95,3.25,3.25,0,0,1,2.43-2.1,1.17,1.17,0,0,0,1-1.37,8.39,8.39,0,0,0-.84-1.82c1.2,1,1.73.13,2.08-.57.83-1.67-.92-1.28-1.75-1.85l1.22-.49c-.49-1,.12-2.63-1.62-2.69.22-1.83-1-3.19-1.1-4.84-.06-1.24-1.38-2.56.3-3.74a3,3,0,0,0-.14.93c.18,1,.15,2.23.71,2.94a2.89,2.89,0,0,1,.67,2.62,4.12,4.12,0,0,0,.35,1.58l.51-.08c.65-2.75,1.9-5.53-.79-8.12a4.37,4.37,0,0,1,1.57.56c.59.47.86.27,1.07-.34a22.64,22.64,0,0,0,.89-2.87,4.77,4.77,0,0,0-.28-1.56c-.08-.41-.31-1-.14-1.23.94-1.27,1.94-2.48,3.67-2.7a2.9,2.9,0,0,0,2.54-1.81c.25,0,.56.18.67.08a1.69,1.69,0,0,1,1.34-.42,1.06,1.06,0,0,0,1-1.64c-.67.63-1.1.25-1.7-.25-1.09-.91-.69-2.19-1-3.27,0-.1.07-.25.11-.38.26-.7.51-1.42.8-2.11a1.25,1.25,0,0,1,.47-.44c.21-.15.51-.2.68-.39.69-.73,1.33-1.49,2.06-2.32.2,0,.72.17,1,0a20.71,20.71,0,0,0,2.42-2,1.16,1.16,0,0,0,.27-.65v0s0,0,0,0c-.55-.4-.51-1.59-1.59-1.32-.1,0-.31-.13-.38-.25-.37-.74-.77-1.47-1.07-2.25a22.71,22.71,0,0,0-.74-2.38,4.84,4.84,0,0,0-1.42-1.66c-.2-.14-.78.34-1.21.43a4.69,4.69,0,0,1-1-.06c-.38,0-1-.08-1.1.09a7.08,7.08,0,0,0-.85,2.75c0,1.72.27,3.42-.41,5.06-.93.21-1.92.33-1.91,1.48-2.51.58-4.93,1.13-7.33,1.71a1.58,1.58,0,0,0-.83.52c-.73,1-1.42,2-2.11,3.08a.73.73,0,0,0,0,.39c.11.58.24,1.16.33,1.6-1,1.39-2.32,1.48-3.73,1.47a7.63,7.63,0,0,0-2.1.39c-.62.19-1,.52-.6,1.34a1.31,1.31,0,0,1-.12,1.16,23.58,23.58,0,0,1-3.11,2.82,38.61,38.61,0,0,1-3.94,2.17,2.07,2.07,0,0,1-2.63-.53c.51-1.24,1-2.54,1.57-3.79s-.39-2-.47-3.09c0-.48-.72-1.3-1.1-1.29s-.94.72-1.41,1.11a3.74,3.74,0,0,1-.54.3,2.93,2.93,0,0,1,.06-.52,1.42,1.42,0,0,1,.25-.54c1.45-1.36.21-2.92.31-4.38,0-.19-.36-.49-.62-.59a16.69,16.69,0,0,0-2.59-.85c-1.21-.25-1.29-.11-1.09,1l-.85,1.5a1,1,0,0,0-1,.13c-1,1-.92,2.47-1.12,3.78a2.51,2.51,0,0,0,.12,1.47c.9,1.69.3,3.34,0,5a4.16,4.16,0,0,1-.91,1.4c-.31.4-.67.42-1,0a7.15,7.15,0,0,1-1-5.41c.46-2,.19-4.15,1.46-5.9a.53.53,0,0,0-.1-.52.61.61,0,0,0-.59.05,9.48,9.48,0,0,0-.89,1l-.19-.14,1.9-2.87c.51.15.87.39,1.06.29.7-.38,1.32-.91,2-1.3a1.38,1.38,0,0,1,1.1-.14c1.12.66,1.93-.14,3-.37-.82-.88-1-2.2-2.39-2-.14,0-.31-.25-.48-.31a2,2,0,0,0-1-.19c-1,.27-1.94.65-2.92,1a1,1,0,0,1-.63,0c-1-.4-2-.83-3.13-1.3a11.79,11.79,0,0,0,.93-1.08,2.24,2.24,0,0,0,.17-.81c-.24,0-.55-.15-.72,0-.66.41-1.3.88-1.92,1.35a7.6,7.6,0,0,1-4,1.78c-.48-1.16-.48-1.16-2.85,0a6.38,6.38,0,0,1,.74-.91c1.14-.88,2.31-1.72,3.43-2.62a4.68,4.68,0,0,0,.67-.9,6.6,6.6,0,0,0-.81-.61,1.59,1.59,0,0,0-.76-.19,9.31,9.31,0,0,1-4.68-1.44,3.83,3.83,0,0,0-1.79-.42c-1.83,0-2.48-.31-3.22-2a3.07,3.07,0,0,0-.53-.67c-.19.2-.46.37-.55.6-.22.63-.55.69-1.18.64-3.12-.23-6.24-.34-9.36-.53-1.17-.07-2.33-.19-3.49-.33s-2.43-.34-3.64-.51c-1.8-.25-3.6-.46-5.39-.77-2-.33-4-.77-5.94-1.13-1.3-.24-2.63-.38-3.93-.64-1.11-.22-2.2-.58-3.31-.83-1.71-.39-3.45-.65-5.15-1.11-2.56-.7-5.11-1.5-7.65-2.29-3.37-1.05-6.72-2.15-10.09-3.18a1,1,0,0,0-.35,0c-.27,0-.56.06-.83.07"/></clipPath><clipPath id="clip-path-6"><rect class="cls-1" x="19" y="27.39" width="1501" height="1463.47"/></clipPath></defs><title>projectsDesign</title><g id="Layer_1" data-name="Layer 1"><rect class="cls-2" x="1" y="0.39" width="1502.06" height="1014.61"/></g><g id="Layer_3" data-name="Layer 3"><text class="cls-3" transform="translate(66.08 245.61)"><tspan class="cls-4">60</tspan><tspan x="35.56" y="0">%</tspan></text><text class="cls-3" transform="translate(509.71 245.61)"><tspan class="cls-4">20</tspan><tspan x="35.56" y="0">%</tspan></text><text class="cls-3" transform="translate(1001.64 243.36)"><tspan class="cls-4">20</tspan><tspan x="35.56" y="0">%</tspan></text><text class="cls-5" transform="translate(69.01 283.61)"><tspan class="cls-6">Miami</tspan><tspan x="55.7" y="0"> </tspan></text><text class="cls-7" transform="translate(69.01 304.62)">A<tspan class="cls-8" x="13.71" y="0">p</tspan><tspan class="cls-9" x="25.81" y="0">p</tspan></text><text class="cls-5" transform="translate(509.03 277.99)"><tspan class="cls-10">G</tspan><tspan class="cls-6" x="14.85" y="0">oogle</tspan><tspan class="cls-10" x="66.12" y="0"> </tspan><tspan class="cls-6" x="71.28" y="0">Map</tspan><tspan x="111.45" y="0"> </tspan></text><text class="cls-7" transform="translate(509.03 299)">A<tspan class="cls-8" x="13.71" y="0">p</tspan><tspan class="cls-9" x="25.81" y="0">p</tspan></text><text class="cls-5" transform="translate(1002.71 277.99)"><tspan class="cls-11">A</tspan><tspan class="cls-6" x="13.71" y="0">s</tspan><tspan class="cls-10" x="23.59" y="0">k </tspan><tspan class="cls-8" x="39.03" y="0">campus</tspan><tspan x="110.58" y="0"> </tspan></text><text class="cls-5" transform="translate(1002.71 299)"><tspan class="cls-11">f</tspan><tspan class="cls-6" x="7.3" y="0">a</tspan><tspan class="cls-10" x="17.93" y="0">c</tspan><tspan class="cls-6" x="28.21" y="0">ul</tspan><tspan class="cls-11" x="45.12" y="0">t</tspan><tspan x="52.43" y="0">y</tspan></text><g class="cls-12"><path d="M721.28,262.27l-55.93-42.15c-15.5,20.58-18.6,45.8-8.54,69.52Z"/><path class="cls-13" d="M732.75,264.47l-63.1,26.78A68.55,68.55,0,1,0,706,201.36a65.57,65.57,0,0,0-28,21.85Z"/><path class="cls-14" d="M659.05,295.78a81.22,81.22,0,1,0,43-106.5A77.59,77.59,0,0,0,669,215.16"/><path class="cls-15" d="M673.05,214.67a2.87,2.87,0,1,1-.56-4,2.86,2.86,0,0,1,.56,4"/><path class="cls-15" d="M662.38,299.46a2.87,2.87,0,1,1-.56-4,2.86,2.86,0,0,1,.56,4"/><path class="cls-14" d="M654.25,210.11C635,235.66,631.14,267,643.65,296.45"/><path class="cls-15" d="M644.55,295.93a2.87,2.87,0,1,1-.57-4,2.87,2.87,0,0,1,.57,4"/><path class="cls-15" d="M654.48,213.87a2.87,2.87,0,1,1-.57-4,2.87,2.87,0,0,1,.57,4"/><path d="M1217.74,262.27l-55.93-42.15c-15.5,20.58-18.6,45.8-8.53,69.52Z"/><path class="cls-13" d="M1229.22,264.47l-63.11,26.78a68.55,68.55,0,1,0,36.32-89.89,65.57,65.57,0,0,0-28,21.85Z"/><path class="cls-14" d="M1155.51,295.78a81.22,81.22,0,1,0,43-106.5,77.59,77.59,0,0,0-33.13,25.88"/><path class="cls-15" d="M1169.51,214.67a2.87,2.87,0,1,1-.56-4,2.86,2.86,0,0,1,.56,4"/><path class="cls-15" d="M1158.85,299.46a2.87,2.87,0,1,1-.57-4,2.87,2.87,0,0,1,.57,4"/><path class="cls-14" d="M1150.71,210.11c-19.26,25.55-23.11,56.89-10.6,86.34"/><path class="cls-15" d="M1141,295.93a2.87,2.87,0,1,1-.57-4,2.87,2.87,0,0,1,.57,4"/><path class="cls-15" d="M1150.94,213.87a2.87,2.87,0,1,1-.57-4,2.87,2.87,0,0,1,.57,4"/><path class="cls-15" d="M264.05,256.08l43.4,59.73a73.84,73.84,0,0,1-86.8-119.47,70.74,70.74,0,0,1,43.4-14.1Z"/><path class="cls-13" d="M269.58,253.49v-63a63,63,0,0,1,62.95,63c0,20.86-9.08,38.67-25.95,50.93Z"/><path class="cls-14" d="M316.85,328.26A89.06,89.06,0,0,1,212.35,184a85,85,0,0,1,52.25-17"/><path class="cls-15" d="M262.16,169.86A2.87,2.87,0,1,0,259.3,167a2.87,2.87,0,0,0,2.86,2.87"/><path class="cls-15" d="M314.78,332.79a2.87,2.87,0,1,0-2.87-2.87,2.88,2.88,0,0,0,2.87,2.87"/><path class="cls-14" d="M269.58,180.34c40.83,0,73.93,33.29,73.93,74.35,0,24.63-10.65,45.66-30.47,60.14"/><path class="cls-15" d="M314.47,315.5a2.87,2.87,0,1,0-2.87-2.87,2.87,2.87,0,0,0,2.87,2.87"/><path class="cls-15" d="M270.9,183.35a2.87,2.87,0,1,0-2.87-2.86,2.86,2.86,0,0,0,2.87,2.86"/></g><line class="cls-16" x1="174.88" y1="256.11" x2="67.58" y2="256.11"/><line class="cls-16" x1="635.6" y1="255.29" x2="509.03" y2="255.29"/><line class="cls-16" x1="1131.94" y1="253.65" x2="1002.7" y2="253.65"/><text class="cls-17" transform="translate(413.27 70.94)"><tspan class="cls-18">Q</tspan><tspan class="cls-19" x="28.73" y="0">1:</tspan><tspan class="cls-20" x="63.2" y="0" xml:space="preserve"> Wh</tspan><tspan class="cls-19" x="132.94" y="0">at</tspan><tspan class="cls-18" x="167.67" y="0"> </tspan><tspan class="cls-19" x="178.08" y="0">s</tspan><tspan class="cls-21" x="197.02" y="0">olu</tspan><tspan class="cls-19" x="251.69" y="0">t</tspan><tspan class="cls-18" x="266.04" y="0">ion </tspan><tspan class="cls-22" x="331.11" y="0">y</tspan><tspan class="cls-18" x="351.5" y="0">ou u</tspan><tspan class="cls-22" x="427.9" y="0">se</tspan><tspan class="cls-21" x="467.66" y="0">d wh</tspan><tspan class="cls-19" x="552.5" y="0">e</tspan><tspan class="cls-18" x="573.31" y="0">n </tspan><tspan class="cls-19" x="605.72" y="0">y</tspan><tspan class="cls-21" x="626.11" y="0">ou </tspan><tspan class="cls-19" x="680.51" y="0">ca</tspan><tspan class="cls-18" x="720.56" y="0">n’</tspan><tspan class="cls-19" x="752.51" y="0">t</tspan><tspan x="766.86" y="0"> </tspan></text><text class="cls-17" transform="translate(413.27 110.34)"><tspan class="cls-18">find </tspan><tspan class="cls-22" x="77.84" y="0">t</tspan><tspan class="cls-18" x="92.19" y="0">h</tspan><tspan class="cls-19" x="114.19" y="0">e</tspan><tspan class="cls-18" x="135" y="0"> </tspan><tspan class="cls-19" x="145.41" y="0">eve</tspan><tspan class="cls-21" x="207.43" y="0">n</tspan><tspan class="cls-19" x="229.43" y="0">t</tspan><tspan class="cls-18" x="243.78" y="0" xml:space="preserve"> building</tspan><tspan x="397.89" y="0">?</tspan></text><text class="cls-17" transform="translate(413.27 530.13)"><tspan class="cls-18">Q</tspan><tspan class="cls-19" x="28.73" y="0">2:</tspan><tspan class="cls-20" x="63.2" y="0" xml:space="preserve"> Wh</tspan><tspan class="cls-19" x="132.94" y="0">at</tspan><tspan class="cls-18" x="167.67" y="0"> </tspan><tspan class="cls-19" x="178.08" y="0">are</tspan><tspan class="cls-20" x="234.35" y="0"> </tspan><tspan class="cls-22" x="244.76" y="0">t</tspan><tspan class="cls-18" x="259.11" y="0">h</tspan><tspan class="cls-19" x="281.11" y="0">e</tspan><tspan class="cls-18" x="301.92" y="0"> </tspan><tspan class="cls-19" x="312.33" y="0">m</tspan><tspan class="cls-21" x="344.73" y="0">o</tspan><tspan class="cls-22" x="366.73" y="0">st</tspan><tspan class="cls-18" x="400.02" y="0" xml:space="preserve"> p</tspan><tspan class="cls-22" x="433.15" y="0">a</tspan><tspan class="cls-18" x="453.54" y="0">in</tspan><tspan class="cls-19" x="486.21" y="0">f</tspan><tspan class="cls-21" x="500.55" y="0">ul </tspan><tspan class="cls-19" x="543.63" y="0">t</tspan><tspan class="cls-18" x="557.98" y="0">hing</tspan><tspan class="cls-22" x="634.9" y="0">s</tspan><tspan class="cls-18" x="653.85" y="0" xml:space="preserve"> in </tspan><tspan class="cls-22" x="707.33" y="0">y</tspan><tspan class="cls-18" x="727.72" y="0">ou</tspan><tspan class="cls-19" x="771.71" y="0">r</tspan><tspan x="786.78" y="0"> </tspan></text><text class="cls-17" transform="translate(413.27 569.53)"><tspan class="cls-18">o</tspan><tspan class="cls-22" x="22" y="0">r</tspan><tspan class="cls-18" x="37.07" y="0">i</tspan><tspan class="cls-19" x="47.74" y="0">e</tspan><tspan class="cls-18" x="68.55" y="0">n</tspan><tspan class="cls-22" x="90.55" y="0">tat</tspan><tspan class="cls-21" x="139.63" y="0">ion w</tspan><tspan class="cls-19" x="234.42" y="0">eek</tspan><tspan class="cls-18" x="296.14" y="0" xml:space="preserve"> on </tspan><tspan class="cls-19" x="360.95" y="0">cam</tspan><tspan class="cls-18" x="433.41" y="0">pu</tspan><tspan class="cls-19" x="478.13" y="0">s</tspan><tspan x="497.07" y="0">?</tspan></text><text class="cls-23" transform="translate(69.01 384.79)"><tspan class="cls-24">•</tspan><tspan class="cls-25" x="9.56" y="0" xml:space="preserve"> S</tspan><tspan class="cls-26" x="31.17" y="0">pe</tspan><tspan class="cls-27" x="59.89" y="0">c</tspan><tspan class="cls-26" x="72.73" y="0">ili</tspan><tspan class="cls-27" x="92.56" y="0">z</tspan><tspan class="cls-26" x="104.65" y="0">ed</tspan><tspan class="cls-25" x="133.36" y="0"> </tspan><tspan class="cls-26" x="139.82" y="0">on</tspan><tspan class="cls-25" x="168.89" y="0" xml:space="preserve"> c</tspan><tspan class="cls-24" x="188.19" y="0">ampu</tspan><tspan x="252.46" y="0">s</tspan></text><text class="cls-23" transform="translate(69.01 411.06)"><tspan class="cls-24">•</tspan><tspan class="cls-25" x="9.56" y="0" xml:space="preserve"> S</tspan><tspan class="cls-26" x="31.17" y="0">pe</tspan><tspan class="cls-27" x="59.89" y="0">c</tspan><tspan class="cls-26" x="72.73" y="0">iali</tspan><tspan class="cls-27" x="105.85" y="0">z</tspan><tspan class="cls-26" x="117.93" y="0">ed</tspan><tspan class="cls-25" x="146.65" y="0"> </tspan><tspan class="cls-26" x="153.11" y="0">on</tspan><tspan class="cls-25" x="182.17" y="0"> </tspan><tspan class="cls-24" x="188.63" y="0">e</tspan><tspan class="cls-25" x="202.22" y="0">v</tspan><tspan class="cls-26" x="215.35" y="0">en</tspan><tspan class="cls-27" x="243.48" y="0">ts </tspan><tspan class="cls-24" x="271.43" y="0">holdin</tspan><tspan x="343.38" y="0">g</tspan></text><text class="cls-23" transform="translate(69.01 437.32)"><tspan class="cls-24">•</tspan><tspan class="cls-25" x="9.56" y="0" xml:space="preserve"> E</tspan><tspan class="cls-24" x="30.69" y="0">a</tspan><tspan class="cls-25" x="43.97" y="0">sy t</tspan><tspan class="cls-24" x="85.06" y="0">o</tspan><tspan class="cls-25" x="99.59" y="0"> </tspan><tspan class="cls-26" x="106.05" y="0">ge</tspan><tspan class="cls-27" x="134.46" y="0">t </tspan><tspan class="cls-26" x="150.04" y="0">in</tspan><tspan class="cls-25" x="171.18" y="0">f</tspan><tspan class="cls-26" x="180.31" y="0">orma</tspan><tspan class="cls-27" x="238.84" y="0">t</tspan><tspan class="cls-26" x="247.97" y="0">ion</tspan><tspan class="cls-25" x="283.64" y="0"> </tspan><tspan class="cls-24" x="290.1" y="0">abou</tspan><tspan class="cls-25" x="347.58" y="0">t</tspan><tspan x="356.71" y="0"> </tspan></text><text class="cls-23" transform="translate(69.01 463.59)"><tspan class="cls-27">c</tspan><tspan class="cls-24" x="12.85" y="0">ampu</tspan><tspan class="cls-27" x="77.11" y="0">s </tspan><tspan class="cls-26" x="95.93" y="0">e</tspan><tspan class="cls-25" x="109.53" y="0">v</tspan><tspan class="cls-24" x="122.66" y="0">en</tspan><tspan x="150.79" y="0">t</tspan></text><text class="cls-28" transform="translate(40.07 777.94)"><tspan class="cls-29">•</tspan><tspan class="cls-30" x="10.28" y="0" xml:space="preserve"> F</tspan><tspan class="cls-31" x="32.72" y="0">inding</tspan><tspan class="cls-32" x="110.73" y="0" xml:space="preserve"> t</tspan><tspan class="cls-31" x="127.39" y="0">he</tspan><tspan class="cls-30" x="157.85" y="0"> </tspan><tspan class="cls-31" x="164.71" y="0">e</tspan><tspan class="cls-32" x="179.42" y="0">v</tspan><tspan class="cls-31" x="193.62" y="0">en</tspan><tspan class="cls-32" x="224.08" y="0">t </tspan><tspan class="cls-29" x="240.74" y="0">building</tspan><tspan class="cls-32" x="342.18" y="0"> </tspan><tspan class="cls-31" x="349.04" y="0">around</tspan><tspan class="cls-30" x="437.13" y="0" xml:space="preserve"> t</tspan><tspan class="cls-31" x="453.8" y="0">he</tspan><tspan class="cls-30" x="484.25" y="0" xml:space="preserve"> c</tspan><tspan class="cls-31" x="505.01" y="0">ampu</tspan><tspan x="574.73" y="0">s</tspan></text><text class="cls-28" transform="translate(40.07 835.72)"><tspan class="cls-29">•</tspan><tspan class="cls-30" x="10.28" y="0" xml:space="preserve"> F</tspan><tspan class="cls-31" x="32.72" y="0">inding</tspan><tspan class="cls-32" x="110.73" y="0" xml:space="preserve"> t</tspan><tspan class="cls-31" x="127.39" y="0">he</tspan><tspan class="cls-30" x="157.85" y="0" xml:space="preserve"> s</tspan><tspan class="cls-31" x="178.07" y="0">ign</tspan><tspan class="cls-32" x="216.91" y="0"> </tspan><tspan class="cls-31" x="223.77" y="0">o</tspan><tspan class="cls-30" x="239.51" y="0">f </tspan><tspan class="cls-31" x="256.17" y="0">orien</tspan><tspan class="cls-30" x="319.5" y="0">t</tspan><tspan class="cls-29" x="329.3" y="0">a</tspan><tspan class="cls-30" x="343.67" y="0">t</tspan><tspan class="cls-31" x="353.47" y="0">ion</tspan><tspan class="cls-32" x="391.99" y="0"> </tspan><tspan class="cls-31" x="398.85" y="0">pla</tspan><tspan class="cls-30" x="436.65" y="0">c</tspan><tspan class="cls-31" x="450.55" y="0">ed</tspan><tspan class="cls-30" x="481.65" y="0"> </tspan><tspan class="cls-31" x="488.51" y="0">on</tspan><tspan class="cls-32" x="520.01" y="0" xml:space="preserve"> t</tspan><tspan class="cls-31" x="536.67" y="0">he</tspan><tspan class="cls-32" x="567.13" y="0"> </tspan><tspan class="cls-31" x="573.99" y="0">groun</tspan><tspan x="647.37" y="0">d</tspan></text><text class="cls-28" transform="translate(40.07 893.51)"><tspan class="cls-29">•</tspan><tspan class="cls-30" x="10.28" y="0"> </tspan><tspan class="cls-29" x="17.14" y="0">Lack</tspan><tspan class="cls-32" x="74.47" y="0"> </tspan><tspan class="cls-33" x="81.33" y="0">o</tspan><tspan class="cls-32" x="97.08" y="0">f </tspan><tspan class="cls-31" x="113.74" y="0">in</tspan><tspan class="cls-30" x="136.51" y="0">f</tspan><tspan class="cls-31" x="146.31" y="0">orma</tspan><tspan class="cls-32" x="209.73" y="0">t</tspan><tspan class="cls-31" x="219.53" y="0">ion</tspan><tspan class="cls-32" x="258.05" y="0"> </tspan><tspan class="cls-31" x="264.91" y="0">abou</tspan><tspan class="cls-32" x="327.18" y="0">t t</tspan><tspan class="cls-31" x="353.64" y="0">he</tspan><tspan class="cls-30" x="384.09" y="0"> </tspan><tspan class="cls-31" x="390.96" y="0">buildings</tspan><tspan class="cls-32" x="505.73" y="0">. </tspan><tspan class="cls-29" x="520.49" y="0">Don’</tspan><tspan class="cls-32" x="578.66" y="0">t </tspan><tspan class="cls-31" x="595.32" y="0">know</tspan><tspan x="661.67" y="0"> </tspan></text><text class="cls-34" transform="translate(40.07 922.4)">where<tspan class="cls-32" x="76.25" y="0" xml:space="preserve"> t</tspan><tspan x="92.91" y="0">hey</tspan><tspan class="cls-32" x="137.55" y="0"> </tspan><tspan x="144.41" y="0">wan</tspan><tspan class="cls-32" x="195.53" y="0">t t</tspan><tspan x="221.99" y="0">o</tspan><tspan class="cls-30" x="237.73" y="0"> </tspan><tspan class="cls-29" x="244.59" y="0">go</tspan><tspan class="cls-30" x="276.4" y="0"> </tspan><tspan x="283.26" y="0">when</tspan><tspan class="cls-32" x="350.46" y="0" xml:space="preserve"> t</tspan><tspan x="367.12" y="0">hey</tspan><tspan class="cls-32" x="411.76" y="0"> </tspan><tspan x="418.62" y="0">are</tspan><tspan class="cls-30" x="457.79" y="0" xml:space="preserve"> f</tspan><tspan class="cls-29" x="474.45" y="0">ree</tspan><tspan class="cls-32" x="513.96" y="0"> </tspan><tspan x="520.83" y="0">in</tspan><tspan class="cls-30" x="543.6" y="0"> </tspan><tspan x="550.46" y="0">orien</tspan><tspan class="cls-32" x="613.79" y="0">t</tspan><tspan x="623.58" y="0">a</tspan><tspan class="cls-32" x="637.96" y="0">t</tspan><tspan x="647.76" y="0">ion</tspan><tspan class="cls-35" x="686.28" y="0"> </tspan></text><text class="cls-28" transform="translate(40.07 951.29)"><tspan class="cls-31">wee</tspan><tspan x="50.42" y="0">k</tspan></text><text class="cls-36" transform="translate(778.49 777.94)">•<tspan class="cls-37" x="10.52" y="0"> </tspan><tspan x="17.62" y="0">Mi</tspan><tspan class="cls-37" x="48.88" y="0">s</tspan><tspan class="cls-38" x="62.48" y="0">sing</tspan><tspan class="cls-37" x="115.62" y="0" xml:space="preserve"> t</tspan><tspan x="132.76" y="0">he</tspan><tspan class="cls-37" x="163.7" y="0"> </tspan><tspan x="170.8" y="0">in</tspan><tspan class="cls-37" x="194.06" y="0">t</tspan><tspan x="204.1" y="0">eres</tspan><tspan class="cls-39" x="257.91" y="0">t</tspan><tspan class="cls-38" x="267.95" y="0">ing</tspan><tspan class="cls-37" x="307.51" y="0"> </tspan><tspan x="314.61" y="0">even</tspan><tspan class="cls-37" x="374.92" y="0">t</tspan><tspan x="384.96" y="0">s</tspan><tspan class="cls-35" x="398.54" y="0">.</tspan></text><text class="cls-28" transform="translate(778.49 835.72)"><tspan class="cls-40">•</tspan><tspan class="cls-37" x="10.52" y="0"> </tspan><tspan class="cls-40" x="17.62" y="0">Ma</tspan><tspan class="cls-37" x="56.22" y="0">ss </tspan><tspan class="cls-38" x="90.53" y="0">up</tspan><tspan class="cls-37" x="123.15" y="0"> </tspan><tspan class="cls-38" x="130.25" y="0">wi</tspan><tspan class="cls-37" x="158.76" y="0">t</tspan><tspan class="cls-38" x="168.8" y="0">h</tspan><tspan class="cls-37" x="184.79" y="0" xml:space="preserve"> t</tspan><tspan class="cls-40" x="201.93" y="0">he</tspan><tspan class="cls-37" x="232.87" y="0" xml:space="preserve"> c</tspan><tspan class="cls-40" x="254.11" y="0">omple</tspan><tspan class="cls-37" x="332.4" y="0">t</tspan><tspan class="cls-38" x="342.44" y="0">ed</tspan><tspan class="cls-37" x="374.03" y="0"> </tspan><tspan class="cls-40" x="381.13" y="0">and</tspan><tspan class="cls-37" x="428.37" y="0" xml:space="preserve"> t</tspan><tspan class="cls-38" x="445.51" y="0">he</tspan><tspan class="cls-37" x="476.45" y="0"> </tspan><tspan class="cls-38" x="483.56" y="0">un</tspan><tspan class="cls-37" x="515.53" y="0">c</tspan><tspan class="cls-40" x="529.66" y="0">omple</tspan><tspan class="cls-37" x="607.96" y="0">t</tspan><tspan class="cls-40" x="618" y="0">ed</tspan><tspan x="649.59" y="0"> </tspan></text><text class="cls-28" transform="translate(778.49 864.61)"><tspan class="cls-40">e</tspan><tspan class="cls-37" x="14.95" y="0">v</tspan><tspan class="cls-40" x="29.4" y="0">en</tspan><tspan class="cls-37" x="60.34" y="0">t</tspan><tspan x="70.38" y="0">.</tspan></text><text class="cls-28" transform="translate(778.49 922.4)"><tspan class="cls-40">•</tspan><tspan class="cls-37" x="10.52" y="0" xml:space="preserve"> F</tspan><tspan class="cls-40" x="33.44" y="0">eel</tspan><tspan class="cls-37" x="70.62" y="0"> </tspan><tspan class="cls-38" x="77.72" y="0">embarras</tspan><tspan class="cls-37" x="196.22" y="0">s</tspan><tspan class="cls-38" x="209.83" y="0">ing</tspan><tspan class="cls-37" x="249.39" y="0" xml:space="preserve"> t</tspan><tspan class="cls-38" x="266.53" y="0">o</tspan><tspan class="cls-37" x="282.52" y="0"> </tspan><tspan class="cls-38" x="289.62" y="0">ask</tspan><tspan class="cls-37" x="331.92" y="0" xml:space="preserve"> f</tspan><tspan class="cls-38" x="349.06" y="0">or</tspan><tspan class="cls-37" x="375.38" y="0" xml:space="preserve"> t</tspan><tspan class="cls-38" x="392.52" y="0">he</tspan><tspan class="cls-37" x="423.46" y="0"> </tspan><tspan class="cls-38" x="430.56" y="0">direc</tspan><tspan class="cls-37" x="493.86" y="0">t</tspan><tspan class="cls-40" x="503.9" y="0">io</tspan><tspan x="527.16" y="0">n</tspan></text><text class="cls-41" transform="translate(510.46 384.79)">•<tspan class="cls-25" x="9.56" y="0" xml:space="preserve"> P</tspan><tspan class="cls-26" x="32.39" y="0">ro</tspan><tspan class="cls-25" x="56.32" y="0">v</tspan><tspan x="69.45" y="0">ide</tspan><tspan class="cls-25" x="104.78" y="0"> </tspan><tspan x="111.23" y="0">pre</tspan><tspan class="cls-27" x="149.34" y="0">c</tspan><tspan class="cls-26" x="162.19" y="0">i</tspan><tspan class="cls-25" x="168.8" y="0">s</tspan><tspan x="181.17" y="0">e</tspan><tspan class="cls-25" x="194.76" y="0"> </tspan><tspan class="cls-26" x="201.21" y="0">in</tspan><tspan class="cls-27" x="222.36" y="0">f</tspan><tspan class="cls-26" x="231.49" y="0">orma</tspan><tspan class="cls-27" x="290.01" y="0">t</tspan><tspan class="cls-26" x="299.14" y="0">io</tspan><tspan class="cls-42" x="320.28" y="0">n</tspan></text><text class="cls-23" transform="translate(510.46 411.06)"><tspan class="cls-24">•</tspan><tspan class="cls-25" x="9.56" y="0"> </tspan><tspan class="cls-26" x="16.02" y="0">Clear</tspan><tspan class="cls-25" x="75.73" y="0"> </tspan><tspan class="cls-26" x="82.19" y="0">dire</tspan><tspan class="cls-25" x="126.91" y="0">ct</tspan><tspan class="cls-24" x="148.88" y="0">ion</tspan><tspan class="cls-25" x="184.56" y="0"> </tspan><tspan class="cls-26" x="191.01" y="0">di</tspan><tspan class="cls-25" x="212.75" y="0">s</tspan><tspan class="cls-26" x="225.12" y="0">pla</tspan><tspan x="260.14" y="0">y</tspan></text><text class="cls-23" transform="translate(510.46 437.32)"><tspan class="cls-24">•</tspan><tspan class="cls-25" x="9.56" y="0" xml:space="preserve"> E</tspan><tspan class="cls-24" x="30.69" y="0">a</tspan><tspan class="cls-25" x="43.97" y="0">sy t</tspan><tspan class="cls-24" x="85.06" y="0">o</tspan><tspan class="cls-25" x="99.59" y="0"> </tspan><tspan class="cls-24" x="106.05" y="0">u</tspan><tspan class="cls-25" x="120.58" y="0">s</tspan><tspan x="132.95" y="0">e</tspan></text><text class="cls-23" transform="translate(1004.13 384.79)"><tspan class="cls-24">•</tspan><tspan class="cls-25" x="9.56" y="0"> </tspan><tspan class="cls-26" x="16.02" y="0">Help</tspan><tspan class="cls-25" x="69.43" y="0">f</tspan><tspan class="cls-24" x="78.56" y="0">u</tspan><tspan x="93.09" y="0">l</tspan></text><text class="cls-41" transform="translate(1004.13 411.06)">•<tspan class="cls-25" x="9.56" y="0"> </tspan><tspan x="16.02" y="0">Pre</tspan><tspan class="cls-27" x="55.35" y="0">c</tspan><tspan class="cls-26" x="68.2" y="0">i</tspan><tspan class="cls-27" x="74.81" y="0">s</tspan><tspan class="cls-42" x="87.18" y="0">e</tspan></text><text class="cls-3" transform="translate(1171.15 662.92)"><tspan class="cls-43">Loca</tspan><tspan x="65.64" y="0">l</tspan></text><text class="cls-3" transform="translate(1171.15 694.43)"><tspan class="cls-44">St</tspan><tspan class="cls-4" x="29.13" y="0">uden</tspan><tspan class="cls-20" x="98.47" y="0">t</tspan><tspan x="109.42" y="0">s</tspan></text><text class="cls-3" transform="translate(231.36 665.72)"><tspan class="cls-44">I</tspan><tspan class="cls-43" x="8.54" y="0">n</tspan><tspan class="cls-20" x="25.98" y="0">t</tspan><tspan class="cls-45" x="36.93" y="0">erna</tspan><tspan class="cls-20" x="97.89" y="0">t</tspan><tspan class="cls-43" x="108.84" y="0">iona</tspan><tspan x="167.6" y="0">l</tspan></text><text class="cls-3" transform="translate(231.36 697.24)"><tspan class="cls-44">St</tspan><tspan class="cls-4" x="29.13" y="0">uden</tspan><tspan class="cls-20" x="98.47" y="0">t</tspan><tspan x="109.42" y="0">s</tspan></text><g class="cls-12"><path class="cls-13" d="M139.18,630.38c-28.52,0-51.65,22-51.65,49.2s23.13,49.21,51.65,49.21,51.64-22,51.64-49.21-23.12-49.2-51.64-49.2m0,6.15c24.91,0,45.19,19.31,45.19,43.05s-20.28,43.06-45.19,43.06S94,703.32,94,679.58s20.27-43.05,45.19-43.05"/><path class="cls-13" d="M139.18,630.38c-16.05,0-29.05,22-29.05,49.2s13,49.21,29.05,49.21,29-22,29-49.21-13-49.2-29-49.2m0,6.15c5.25,0,10.68,4.11,14.91,11.28,5,8.39,7.68,19.67,7.68,31.77s-2.72,23.39-7.68,31.78c-4.23,7.17-9.66,11.28-14.91,11.28s-10.69-4.11-14.92-11.28c-5-8.39-7.68-19.67-7.68-31.78s2.73-23.38,7.68-31.77c4.23-7.17,9.67-11.28,14.92-11.28"/></g><rect class="cls-13" x="135.95" y="630.38" width="6.45" height="98.41"/><g class="cls-12"><path class="cls-13" d="M139.18,664.21c-16,0-31.09-3.82-41.46-10.47l3.61-5.1c9.33,6,23.12,9.42,37.85,9.42s28.5-3.43,37.83-9.41l3.6,5.11c-10.37,6.64-25.47,10.45-41.43,10.45"/><path class="cls-13" d="M177,710.84c-9.33-6-23.12-9.42-37.85-9.42s-28.5,3.43-37.83,9.4l-3.6-5.1c10.37-6.64,25.47-10.45,41.43-10.45s31.09,3.81,41.46,10.47Z"/></g><rect class="cls-13" x="87.53" y="676.51" width="103.29" height="6.15"/><g class="cls-12"><path class="cls-13" d="M988.48,633.31c.08.36.15.71.22,1.07h-.19l-.12,2.5a.78.78,0,0,1-.56-.41c-.12-.24-.15-.59-.33-.72-.91-.68-1.85-1.34-2.82-1.93-.22-.14-.79-.1-.88.06a3.45,3.45,0,0,0-.4,1.45c-.09,2.06-.12,4.12-.18,6.18,0,0-.1.09-.13.15-.5,1.06-1,2.13-1.48,3.2-.63,1.39-1.25,2.8-1.86,4.21-.22.5-.29,1.16-.65,1.51a6,6,0,0,0-1.51,4.2c-.15,1.94-.13,4-1.8,5.45-.25.22-.15.92-.13,1.39a14,14,0,0,1,.17,2.48,16.79,16.79,0,0,0-.24,2.08v.08a3.7,3.7,0,0,0,.58,2,1.24,1.24,0,0,1,.24.75c-.14,1.06.13,1.8,1.44,1.93-.42.26-.76.35-.87.57a3.38,3.38,0,0,0,.42,2.93c.18.23.27.83.12,1a1.58,1.58,0,0,0-.22,1.94,20.42,20.42,0,0,1,1,2.2c.34,1.09,1,2.15.47,3.4a1.11,1.11,0,0,0,.47,1.38c1.14,1,2.76,1.3,3.44,2.86.06.13.33.16.49.26a1.51,1.51,0,0,1,.53.34c.61.93,1.22,1.85,1.75,2.81a3.43,3.43,0,0,1,.54,1.65c-.06,1.59-.12,1.59,1.42,1.94.19,0,.39,0,.57.11,1.59.57,3.36.27,4.86,1.49,1.7,1.39,3.72,2.35,5.53,3.6,1.08.73,2,1.7,3,2.49a4.06,4.06,0,0,0,1.58.69c1.63.32,3.28.51,4.91.83s1.62.35,2.32-1.28c1.29.18,2.62.34,3.93.56a1.32,1.32,0,0,1,.71.49c.84,1,1.68,2,2.45,3.12a5.82,5.82,0,0,1,1.27,2.29,7.21,7.21,0,0,0,2.37,4.5c1.53,1.5,2.17,1.43,3.06-.49a1.36,1.36,0,0,1,1.72-.91c.66.15,1.35.16,2,.25.18,0,.41.07.5.2a12.28,12.28,0,0,1,2.25,3.61,11.08,11.08,0,0,0,1.69,3.63,7.1,7.1,0,0,1,1.33,3,3.53,3.53,0,0,0,2.32,3c.7.23,1.4.49,2.08.77s1.16.6,1.76.82a.82.82,0,0,0,.7-.15c.1-.08.08-.45,0-.62a4.53,4.53,0,0,1-.4-3.31c.21-.82.37-1.65.55-2.47.23-.2.74-.46.72-.65-.1-.72.49-.82.79-1.18s1.12-.32,1-1.13a8.93,8.93,0,0,1,1,.07c.17,0,.35.3.49.27a3.25,3.25,0,0,0,2.69-3,2.84,2.84,0,0,1,.14-.57c.49.05.9.22,1.22.1a8,8,0,0,1,5.36-.13c.72.24,1.51.47,1.88-.7a9.75,9.75,0,0,1,1.93,1.36,2.94,2.94,0,0,0,4.17.12,11.14,11.14,0,0,1,1,.71c.44.39,1,.7,1.34.14s-.19-.84-.63-1.06c-.59-.28-.84-.64-.29-1.22a1.44,1.44,0,0,0,.34-.6,1,1,0,0,0,0-.73c-.1-.12-.35-.12-.57-.12H1063a2.41,2.41,0,0,0-.52.11c0-.13,0-.26-.07-.39,1-.13,2-.28,3-.39.73-.07,1.54.15,1.91-.82.11,1.2.25,1.28,1.33.8.39-.17.76-.51,1.14-.5l.74,0a3.32,3.32,0,0,1,2.84.77c.39.4,1.09.48,1.48.88a1.15,1.15,0,0,0,1.65.24c.45-.27.94-.47,1.38-.75a1.56,1.56,0,0,1,2.43.47,6.05,6.05,0,0,0,1.52,1.62c.85.5.9,1.22,1.09,2.05.24,1-.55,2.42.86,3.12,0,0,0,.25,0,.39.19,1.08.31,2.2,1.5,2.7.16.07.22.39.35.57.65.93,1.31,1.86,2,2.78a18.61,18.61,0,0,0,1.15,1.5l.07.08h2.73a2.83,2.83,0,0,0,.29-1.64c0-.47.07-1,0-1.42a15.17,15.17,0,0,0-.32-3.39c-.55-1.83-1.72-3.42-2.12-5.33a1,1,0,0,0-.27-.53,11.3,11.3,0,0,1-2.6-5.23,6.45,6.45,0,0,1-.18-2.66,22.63,22.63,0,0,1,.91-3.29,3.73,3.73,0,0,1,.35-.69c.22-.37.46-.74.82-1.3,1-.09,1.08-.07,2.52-1.75a12.38,12.38,0,0,0,.92-1.64c.58-1,1-2.1,2.29-2.45a1.87,1.87,0,0,0,1-.95,3.25,3.25,0,0,1,2.43-2.1,1.17,1.17,0,0,0,1-1.37,8.39,8.39,0,0,0-.84-1.82c1.2,1,1.73.13,2.08-.58.83-1.66-.92-1.27-1.75-1.85l1.22-.47c-.49-1,.12-2.64-1.62-2.7.22-1.82-1-3.19-1.1-4.84-.06-1.24-1.38-2.56.3-3.73a2.94,2.94,0,0,0-.14.92c.18,1,.15,2.23.71,2.94a2.89,2.89,0,0,1,.67,2.62,4.12,4.12,0,0,0,.35,1.58l.51-.08c.65-2.75,1.9-5.53-.79-8.12a4.3,4.3,0,0,1,1.57.56c.59.47.86.27,1.07-.34a23,23,0,0,0,.89-2.86,4.78,4.78,0,0,0-.28-1.57c-.08-.41-.31-1-.14-1.23.94-1.27,1.94-2.48,3.67-2.7a2.9,2.9,0,0,0,2.54-1.81c.25,0,.56.18.67.08a1.65,1.65,0,0,1,1.34-.42,1.06,1.06,0,0,0,.94-1.64c-.66.63-1.09.25-1.69-.25-1.09-.91-.69-2.19-1-3.27,0-.1.07-.25.11-.38.26-.7.51-1.42.8-2.11a1.25,1.25,0,0,1,.47-.44c.21-.15.51-.2.68-.39.69-.72,1.33-1.49,2.06-2.32.2,0,.72.17,1,0a20.71,20.71,0,0,0,2.42-2,1.18,1.18,0,0,0,.27-.65v0s0,0,0,0c-.55-.4-.51-1.59-1.59-1.32-.1,0-.31-.13-.38-.25a23.15,23.15,0,0,1-1.07-2.25,24.48,24.48,0,0,0-.74-2.39,4.81,4.81,0,0,0-1.42-1.65c-.2-.14-.78.34-1.21.43a4.69,4.69,0,0,1-1-.06c-.38,0-1-.08-1.1.09a7.25,7.25,0,0,0-.85,2.75c0,1.71.27,3.42-.41,5.06-.93.21-1.92.33-1.91,1.48-2.51.58-4.93,1.13-7.33,1.71a1.56,1.56,0,0,0-.83.51c-.73,1-1.42,2.05-2.11,3.09a.73.73,0,0,0,0,.39c.11.58.24,1.16.33,1.6-1,1.39-2.32,1.48-3.73,1.47a7,7,0,0,0-2.1.4c-.62.18-1,.51-.61,1.33a1.25,1.25,0,0,1-.12,1.16,22.89,22.89,0,0,1-3.1,2.82,40.73,40.73,0,0,1-3.94,2.18,2.09,2.09,0,0,1-2.63-.54c.51-1.24,1-2.54,1.57-3.8s-.39-2-.47-3.08c0-.48-.72-1.3-1.1-1.29s-.94.72-1.41,1.11a4.4,4.4,0,0,1-.54.3,2.93,2.93,0,0,1,.06-.52,1.42,1.42,0,0,1,.25-.54c1.45-1.36.21-2.92.31-4.38,0-.19-.36-.49-.62-.59a16.69,16.69,0,0,0-2.59-.85c-1.21-.25-1.29-.11-1.09,1l-.85,1.49a1,1,0,0,0-1,.13c-1,1-.92,2.47-1.12,3.78a2.51,2.51,0,0,0,.12,1.47c.9,1.69.3,3.34,0,5a4.16,4.16,0,0,1-.91,1.4c-.31.4-.67.42-1,0a7.15,7.15,0,0,1-1-5.41c.46-2,.19-4.15,1.46-5.9a.53.53,0,0,0-.1-.52.61.61,0,0,0-.59.05,9.48,9.48,0,0,0-.89,1l-.19-.14,1.9-2.87c.51.15.87.39,1.06.29.7-.38,1.32-.92,2-1.3a1.39,1.39,0,0,1,1.11-.14c1.11.65,1.92-.14,3-.37-.82-.88-1-2.2-2.39-2-.14,0-.31-.25-.48-.31a2,2,0,0,0-1-.19c-1,.27-1.95.65-2.93,1a1,1,0,0,1-.63,0c-1-.4-2-.84-3.13-1.3a12.12,12.12,0,0,0,.94-1.08,2.47,2.47,0,0,0,.16-.8c-.24,0-.55-.16-.72-.06-.66.41-1.3.88-1.92,1.35a7.6,7.6,0,0,1-4,1.78c-.48-1.15-.48-1.15-2.85,0a6.38,6.38,0,0,1,.74-.91c1.14-.88,2.3-1.73,3.43-2.63a4.07,4.07,0,0,0,.67-.89,7.8,7.8,0,0,0-.81-.61,1.59,1.59,0,0,0-.76-.19,9.31,9.31,0,0,1-4.68-1.44,3.72,3.72,0,0,0-1.79-.42c-1.83,0-2.48-.31-3.22-2a3.07,3.07,0,0,0-.53-.67c-.19.2-.46.37-.55.6-.22.64-.55.69-1.18.64-3.12-.23-6.24-.35-9.36-.53-1.17-.07-2.33-.19-3.49-.33s-2.43-.34-3.64-.51c-1.8-.25-3.6-.46-5.39-.76-2-.34-4-.78-5.94-1.14-1.3-.24-2.63-.38-3.93-.64-1.11-.23-2.2-.58-3.31-.83-1.71-.38-3.46-.65-5.15-1.11-2.56-.7-5.11-1.5-7.65-2.3-3.37-1-6.72-2.14-10.09-3.17a1,1,0,0,0-.35,0c-.27,0-.56.06-.83.07"/></g><g class="cls-46"><rect class="cls-13" x="974.64" y="629.35" width="56.39" height="69.81"/></g><polygon class="cls-13" points="1054.29 713.74 1045.61 713.74 1045.61 649.37 1054.29 651.06 1054.29 713.74"/><line class="cls-47" x1="742.16" y1="646.04" x2="742.16" y2="965.25"/><g class="cls-48"><path d="M739.87,650.63a2.87,2.87,0,1,0,.57-4,2.87,2.87,0,0,0-.57,4"/><path class="cls-49" d="M739.87,650.63a2.87,2.87,0,1,0,.57-4A2.87,2.87,0,0,0,739.87,650.63Z"/><path d="M739.87,967.05a2.87,2.87,0,1,0,.57-4,2.87,2.87,0,0,0-.57,4"/><path class="cls-49" d="M739.87,967.05a2.87,2.87,0,1,0,.57-4A2.87,2.87,0,0,0,739.87,967.05Z"/></g></g></svg>