<svg xmlns="http://www.w3.org/2000/svg" xmlns:xlink="http://www.w3.org/1999/xlink" viewBox="0 0 1500 935"><defs><style>.cls-1,.cls-110,.cls-112,.cls-113{fill:none;}.cls-13,.cls-2{font-size:29.74px;}.cls-111,.cls-13,.cls-19,.cls-2,.cls-21,.cls-24,.cls-30,.cls-33,.cls-35,.cls-37,.cls-40,.cls-49,.cls-99{fill:#231f20;}.cls-2{font-family:Usual-Medium, Usual;font-weight:500;}.cls-3{letter-spacing:0.05em;}.cls-4{letter-spacing:0.04em;}.cls-5{letter-spacing:-0.04em;}.cls-6{letter-spacing:0.03em;}.cls-7{letter-spacing:0.04em;}.cls-8{letter-spacing:-0.04em;}.cls-9{letter-spacing:-0.04em;}.cls-10{letter-spacing:0.02em;}.cls-11,.cls-13{letter-spacing:0.05em;}.cls-12{letter-spacing:0.05em;}.cls-13,.cls-19,.cls-21,.cls-24,.cls-30,.cls-33,.cls-35,.cls-37,.cls-40,.cls-49,.cls-56,.cls-66,.cls-72,.cls-80,.cls-90,.cls-99{font-family:Usual-Regular, Usual;}.cls-14{letter-spacing:0em;}.cls-15{letter-spacing:0.05em;}.cls-16{letter-spacing:0.03em;}.cls-17{letter-spacing:0.04em;}.cls-18{letter-spacing:0.03em;}.cls-19,.cls-33,.cls-35,.cls-56,.cls-66,.cls-90{font-size:23.79px;}.cls-19,.cls-36,.cls-66{letter-spacing:0.05em;}.cls-20{letter-spacing:0em;}.cls-21,.cls-24,.cls-30{font-size:13.88px;}.cls-22,.cls-24{letter-spacing:0.05em;}.cls-23{letter-spacing:0.05em;}.cls-25{letter-spacing:0.05em;}.cls-26{letter-spacing:0em;}.cls-27,.cls-30{letter-spacing:0.04em;}.cls-28{letter-spacing:0.05em;}.cls-29{letter-spacing:0.03em;}.cls-31{letter-spacing:0.03em;}.cls-32{letter-spacing:0.05em;}.cls-33,.cls-57{letter-spacing:0.04em;}.cls-34{letter-spacing:0.05em;}.cls-37,.cls-40{font-size:19.83px;}.cls-38{letter-spacing:0.05em;}.cls-39{letter-spacing:0.04em;}.cls-40{letter-spacing:0.03em;}.cls-41{letter-spacing:0.03em;}.cls-42{letter-spacing:0em;}.cls-43{letter-spacing:0.04em;}.cls-44{letter-spacing:0.04em;}.cls-45{letter-spacing:0.04em;}.cls-46{letter-spacing:0.05em;}.cls-47{letter-spacing:0.04em;}.cls-48{letter-spacing:0.04em;}.cls-49,.cls-99{font-size:15.86px;}.cls-50{letter-spacing:0.04em;}.cls-51{letter-spacing:0.05em;}.cls-52,.cls-99{letter-spacing:0.05em;}.cls-53{letter-spacing:0.05em;}.cls-54{letter-spacing:0.05em;}.cls-55{letter-spacing:0.05em;}.cls-108,.cls-56,.cls-66,.cls-90{fill:#b93e4e;}.cls-56{letter-spacing:0.05em;}.cls-58{letter-spacing:0.04em;}.cls-59{letter-spacing:0.05em;}.cls-60{letter-spacing:0.04em;}.cls-61{letter-spacing:0.05em;}.cls-62{letter-spacing:0.05em;}.cls-63{letter-spacing:0.05em;}.cls-64{letter-spacing:0.03em;}.cls-65{letter-spacing:0.03em;}.cls-67{letter-spacing:0.05em;}.cls-68{letter-spacing:0.05em;}.cls-69{letter-spacing:0.03em;}.cls-70{letter-spacing:0.05em;}.cls-71{letter-spacing:0em;}.cls-72,.cls-80{font-size:21.81px;}.cls-73,.cls-80{letter-spacing:0.05em;}.cls-74{letter-spacing:0.03em;}.cls-75{letter-spacing:0.05em;}.cls-76{letter-spacing:0.05em;}.cls-77{letter-spacing:0.05em;}.cls-78{letter-spacing:0.04em;}.cls-79{letter-spacing:0.03em;}.cls-81{letter-spacing:0.04em;}.cls-82{letter-spacing:0.05em;}.cls-83{letter-spacing:0.04em;}.cls-84{letter-spacing:0em;}.cls-85{letter-spacing:0.06em;}.cls-86{letter-spacing:0.05em;}.cls-87{letter-spacing:0.05em;}.cls-88{letter-spacing:0.04em;}.cls-89{letter-spacing:0.04em;}.cls-91{letter-spacing:0.04em;}.cls-92{letter-spacing:0.04em;}.cls-93{letter-spacing:0.03em;}.cls-94{letter-spacing:0.06em;}.cls-95{letter-spacing:0.04em;}.cls-96{letter-spacing:0.04em;}.cls-97{letter-spacing:0.05em;}.cls-98{letter-spacing:0.04em;}.cls-100{letter-spacing:0.05em;}.cls-101{letter-spacing:0em;}.cls-102{letter-spacing:0.03em;}.cls-103{letter-spacing:0.03em;}.cls-104{letter-spacing:0.04em;}.cls-105{letter-spacing:0.04em;}.cls-106{letter-spacing:0.04em;}.cls-107{clip-path:url(#clip-path);}.cls-109{fill:#e1e2e3;}.cls-110{stroke:#000;}.cls-110,.cls-113{stroke-miterlimit:10;}.cls-110,.cls-112,.cls-113{stroke-width:0.75px;}.cls-112{stroke:#231f20;}.cls-113{stroke:#2a2f36;}.cls-114{fill:#2a2f36;}</style><clipPath id="clip-path"><rect class="cls-1" x="-59" y="40.03" width="1618" height="909.59"/></clipPath></defs><title>projectsDesign</title><g id="Layer_1" data-name="Layer 1"><text class="cls-2" transform="translate(47.21 79.56)"><tspan class="cls-3">PE</tspan><tspan class="cls-4" x="42.67" y="0">R</tspan><tspan class="cls-3" x="65.04" y="0">CEN</tspan><tspan class="cls-5" x="133.31" y="0">T</tspan><tspan class="cls-6" x="152.22" y="0">A</tspan><tspan class="cls-3" x="175.51" y="0">GE OF </tspan><tspan class="cls-7" x="285.54" y="0">S</tspan><tspan class="cls-8" x="305.97" y="0">T</tspan><tspan class="cls-9" x="324.85" y="0">A</tspan><tspan class="cls-10" x="346.08" y="0">Y</tspan><tspan class="cls-11" x="367.55" y="0" xml:space="preserve"> IN</tspan><tspan class="cls-10" x="412.25" y="0"> </tspan><tspan class="cls-11" x="420.63" y="0">T</tspan><tspan class="cls-12" x="442.25" y="0">H</tspan><tspan class="cls-11" x="466.81" y="0">E </tspan><tspan class="cls-12" x="496.4" y="0">DO</tspan><tspan class="cls-3" x="546.96" y="0">R</tspan><tspan x="569.47" y="0">M</tspan></text><text class="cls-13" transform="translate(11.94 690.29)">T<tspan class="cls-4" x="21.2" y="0">R</tspan><tspan class="cls-12" x="43.3" y="0">O</tspan><tspan x="69.29" y="0">UBL</tspan><tspan class="cls-14" x="135.25" y="0">E</tspan></text><text class="cls-2" transform="translate(884.17 79.56)"><tspan class="cls-6">A</tspan><tspan class="cls-3" x="23.28" y="0">CTIVIT</tspan><tspan class="cls-12" x="132.42" y="0">I</tspan><tspan class="cls-11" x="142.44" y="0">ES</tspan><tspan class="cls-12" x="183.42" y="0"> </tspan><tspan class="cls-11" x="192.82" y="0">IN </tspan><tspan class="cls-12" x="237.51" y="0">O</tspan><tspan class="cls-11" x="263.5" y="0">R</tspan><tspan class="cls-12" x="286.01" y="0">I</tspan><tspan class="cls-3" x="296.03" y="0">EN</tspan><tspan class="cls-9" x="341.41" y="0">TA</tspan><tspan class="cls-11" x="381.56" y="0">TI</tspan><tspan class="cls-15" x="413.23" y="0">O</tspan><tspan class="cls-3" x="439.22" y="0">N</tspan><tspan class="cls-16" x="464.44" y="0"> </tspan><tspan class="cls-11" x="473.33" y="0">WEE</tspan><tspan x="547.46" y="0">K</tspan></text><text class="cls-2" transform="translate(852.09 600.84)"><tspan class="cls-11">TIME </tspan><tspan class="cls-17" x="90.91" y="0">F</tspan><tspan class="cls-12" x="110.44" y="0">O</tspan><tspan class="cls-3" x="136.43" y="0">R CAMPU</tspan><tspan class="cls-15" x="291.96" y="0">S</tspan><tspan class="cls-11" x="312.75" y="0" xml:space="preserve"> EXP</tspan><tspan class="cls-18" x="387.36" y="0">L</tspan><tspan class="cls-15" x="406.33" y="0">O</tspan><tspan class="cls-3" x="432.32" y="0">R</tspan><tspan class="cls-5" x="454.83" y="0">A</tspan><tspan class="cls-11" x="476.06" y="0">TI</tspan><tspan class="cls-12" x="507.73" y="0">O</tspan><tspan x="533.72" y="0">N</tspan></text><text class="cls-19" transform="translate(1.01 214.74)">60<tspan class="cls-20" x="32.26" y="0">%</tspan></text><text class="cls-19" transform="translate(538.98 214.74)">20<tspan class="cls-20" x="32.26" y="0">%</tspan></text><text class="cls-19" transform="translate(853.48 820.41)">90<tspan class="cls-20" x="32.26" y="0">%</tspan></text><text class="cls-19" transform="translate(806.55 388.03)">40<tspan class="cls-20" x="32.26" y="0">%</tspan></text><text class="cls-21" transform="translate(803.34 206.03) rotate(-45)"><tspan class="cls-22">hangout</tspan><tspan class="cls-23" x="60.55" y="0"> </tspan><tspan class="cls-22" x="64.63" y="0">with friend</tspan><tspan x="143.62" y="0">s</tspan></text><text class="cls-24" transform="translate(1221.49 213.24) rotate(-45)">hangout<tspan class="cls-23" x="60.55" y="0"> </tspan><tspan class="cls-25" x="64.63" y="0">with friend</tspan><tspan class="cls-26" x="143.62" y="0">s</tspan></text><text class="cls-21" transform="translate(878.97 203.49) rotate(-45)"><tspan class="cls-27">f</tspan><tspan class="cls-28" x="5.68" y="0">amil</tspan><tspan class="cls-29" x="36.05" y="0">y</tspan><tspan class="cls-22" x="44.07" y="0" xml:space="preserve"> trip</tspan><tspan x="73.73" y="0">s</tspan></text><text class="cls-30" transform="translate(1295.36 207.1) rotate(-45)">f<tspan class="cls-22" x="5.68" y="0">amil</tspan><tspan class="cls-31" x="36.05" y="0">y</tspan><tspan class="cls-25" x="44.07" y="0" xml:space="preserve"> trip</tspan><tspan class="cls-26" x="73.73" y="0">s</tspan></text><text class="cls-21" transform="translate(938.99 209.53) rotate(-45)"><tspan class="cls-27">f</tspan><tspan class="cls-28" x="5.68" y="0">amiliar </tspan><tspan class="cls-23" x="58.76" y="0">w</tspan><tspan class="cls-22" x="71" y="0">ith campu</tspan><tspan x="143.25" y="0">s</tspan></text><text class="cls-21" transform="translate(1355.39 213.14) rotate(-45)"><tspan class="cls-27">f</tspan><tspan class="cls-22" x="5.68" y="0">amiliar </tspan><tspan class="cls-32" x="58.76" y="0">w</tspan><tspan class="cls-25" x="71" y="0">ith campu</tspan><tspan x="143.25" y="0">s</tspan></text><text class="cls-33" transform="translate(1228.73 390.89)">1<tspan class="cls-34" x="15.94" y="0">5</tspan><tspan class="cls-20" x="32.07" y="0">%</tspan></text><text class="cls-19" transform="translate(876.05 388.04)">55<tspan class="cls-20" x="32.26" y="0">%</tspan></text><text class="cls-19" transform="translate(1298.13 390.89)">10<tspan class="cls-20" x="32.26" y="0">%</tspan></text><text class="cls-35" transform="translate(950.94 388.04)"><tspan class="cls-36">5</tspan><tspan x="16.13" y="0">%</tspan></text><text class="cls-33" transform="translate(1365.05 390.89)">7<tspan class="cls-34" x="15.94" y="0">5</tspan><tspan class="cls-20" x="32.07" y="0">%</tspan></text><text class="cls-37" transform="translate(329.05 631.33)"><tspan class="cls-38">Minds</tspan><tspan class="cls-39" x="63.88" y="0">e</tspan><tspan x="76.05" y="0">t</tspan></text><text class="cls-40" transform="translate(448.18 679.55)">F<tspan class="cls-38" x="12.65" y="0">eel embar</tspan><tspan class="cls-41" x="115.12" y="0">r</tspan><tspan class="cls-38" x="123.29" y="0">assing</tspan><tspan class="cls-42" x="190.38" y="0"> </tspan></text><text class="cls-37" transform="translate(448.18 703.34)"><tspan class="cls-43">t</tspan><tspan class="cls-38" x="8.11" y="0">o ma</tspan><tspan class="cls-44" x="58.52" y="0">k</tspan><tspan class="cls-38" x="69.9" y="0">e mista</tspan><tspan class="cls-45" x="144.94" y="0">k</tspan><tspan x="156.32" y="0">e</tspan></text><text class="cls-37" transform="translate(301 809.34)"><tspan class="cls-38">Lack </tspan><tspan class="cls-46" x="53.92" y="0">o</tspan><tspan class="cls-38" x="67.01" y="0">f i</tspan><tspan class="cls-47" x="87.13" y="0">n</tspan><tspan class="cls-43" x="100.21" y="0">f</tspan><tspan class="cls-38" x="108.32" y="0">orm</tspan><tspan class="cls-48" x="149.36" y="0">a</tspan><tspan class="cls-38" x="161.29" y="0">tion</tspan><tspan x="201.93" y="0"> </tspan></text><text class="cls-37" transform="translate(301 833.13)"><tspan class="cls-38">about the n</tspan><tspan class="cls-43" x="119.07" y="0">e</tspan><tspan class="cls-38" x="131.24" y="0">w</tspan><tspan x="148.75" y="0"> </tspan></text><text class="cls-37" transform="translate(301 856.92)"><tspan class="cls-38">e</tspan><tspan class="cls-45" x="12.33" y="0">n</tspan><tspan class="cls-38" x="25.26" y="0">vi</tspan><tspan class="cls-43" x="43.16" y="0">r</tspan><tspan class="cls-38" x="51.52" y="0">onme</tspan><tspan class="cls-47" x="109.55" y="0">n</tspan><tspan class="cls-38" x="122.64" y="0">t, do</tspan><tspan class="cls-41" x="170.35" y="0">n</tspan><tspan class="cls-38" x="183.18" y="0">’t kn</tspan><tspan class="cls-43" x="228.12" y="0">o</tspan><tspan class="cls-38" x="241.15" y="0">w</tspan><tspan x="258.65" y="0"> </tspan></text><text class="cls-37" transform="translate(354.05 743.09)"><tspan class="cls-38">Languag</tspan><tspan x="90.1" y="0">e</tspan></text><text class="cls-49" transform="translate(1310.25 417.33)"><tspan class="cls-50">L</tspan><tspan class="cls-51" x="9.99" y="0">oc</tspan><tspan class="cls-52" x="29.85" y="0">a</tspan><tspan x="39.47" y="0">l</tspan></text><text class="cls-49" transform="translate(1294.9 436.37)"><tspan class="cls-51">Stu</tspan><tspan class="cls-52" x="28.14" y="0">d</tspan><tspan class="cls-53" x="39.09" y="0">e</tspan><tspan class="cls-54" x="48.96" y="0">n</tspan><tspan class="cls-51" x="59.43" y="0">t</tspan><tspan x="66.04" y="0">s</tspan></text><text class="cls-49" transform="translate(376.21 333.64)"><tspan class="cls-50">L</tspan><tspan class="cls-51" x="9.99" y="0">oc</tspan><tspan class="cls-52" x="29.85" y="0">a</tspan><tspan x="39.47" y="0">l</tspan></text><text class="cls-49" transform="translate(360.85 352.67)"><tspan class="cls-55">S</tspan><tspan class="cls-51" x="10.96" y="0">tude</tspan><tspan class="cls-54" x="48.96" y="0">n</tspan><tspan class="cls-51" x="59.43" y="0">t</tspan><tspan x="66.04" y="0">s</tspan></text><text class="cls-56" transform="translate(53.52 479.16)">I<tspan class="cls-57" x="7.64" y="0">n</tspan><tspan class="cls-58" x="23.27" y="0">t</tspan><tspan class="cls-59" x="32.92" y="0">ern</tspan><tspan class="cls-60" x="73.56" y="0">a</tspan><tspan class="cls-59" x="87.83" y="0">tion</tspan><tspan x="136.31" y="0">a</tspan><tspan class="cls-61" x="150.68" y="0">l </tspan><tspan class="cls-62" x="164.77" y="0">s</tspan><tspan class="cls-61" x="178.11" y="0">tu</tspan><tspan x="203.71" y="0">d</tspan><tspan class="cls-59" x="220.08" y="0">e</tspan><tspan class="cls-57" x="234.8" y="0">n</tspan><tspan class="cls-59" x="250.43" y="0">t</tspan><tspan x="260.28" y="0">s </tspan><tspan class="cls-63" x="280.55" y="0">h</tspan><tspan class="cls-64" x="296.3" y="0">a</tspan><tspan class="cls-58" x="310.38" y="0">v</tspan><tspan class="cls-61" x="324.4" y="0">e higher </tspan><tspan class="cls-65" x="432.59" y="0">r</tspan><tspan class="cls-60" x="442.32" y="0">a</tspan><tspan class="cls-58" x="456.6" y="0">t</tspan><tspan class="cls-59" x="466.25" y="0">e</tspan><tspan x="480.98" y="0"> </tspan><tspan class="cls-57" x="487.9" y="0">o</tspan><tspan class="cls-59" x="503.53" y="0">f</tspan><tspan x="513.38" y="0" xml:space="preserve"> s</tspan><tspan class="cls-59" x="533.65" y="0">t</tspan><tspan class="cls-64" x="543.5" y="0">a</tspan><tspan class="cls-59" x="557.58" y="0">yin</tspan><tspan class="cls-34" x="594.67" y="0">g</tspan><tspan class="cls-20" x="610.8" y="0"> </tspan></text><text class="cls-66" transform="translate(57.37 507.71)">in the<tspan class="cls-67" x="70.58" y="0"> </tspan><tspan x="77.58" y="0">dorm </tspan><tspan class="cls-68" x="150.3" y="0">w</tspan><tspan x="171.29" y="0">hen th</tspan><tspan class="cls-57" x="250.48" y="0">e</tspan><tspan class="cls-69" x="265.09" y="0">y</tspan><tspan class="cls-70" x="278.84" y="0" xml:space="preserve"> fi</tspan><tspan class="cls-57" x="301.49" y="0">r</tspan><tspan x="311.53" y="0">st come </tspan><tspan class="cls-57" x="416.7" y="0">t</tspan><tspan x="426.43" y="0">o the campus</tspan><tspan class="cls-71" x="594.17" y="0">.</tspan></text><text class="cls-72" transform="translate(1004 687.96)"><tspan class="cls-73">M</tspan><tspan class="cls-74" x="21.74" y="0">y</tspan><tspan class="cls-75" x="34.35" y="0" xml:space="preserve"> a</tspan><tspan class="cls-76" x="54.04" y="0">p</tspan><tspan class="cls-73" x="69.11" y="0">p</tspan><tspan class="cls-77" x="84.2" y="0"> </tspan><tspan class="cls-78" x="90.61" y="0">f</tspan><tspan class="cls-73" x="99.53" y="0">ocuse</tspan><tspan class="cls-77" x="167.22" y="0">s </tspan><tspan class="cls-73" x="185.93" y="0">on</tspan><tspan class="cls-76" x="214.93" y="0"> </tspan><tspan class="cls-75" x="221.34" y="0">the</tspan><tspan class="cls-77" x="258.5" y="0"> </tspan><tspan class="cls-79" x="264.92" y="0">e</tspan><tspan class="cls-77" x="278.09" y="0">x</tspan><tspan class="cls-73" x="290.67" y="0">perience</tspan><tspan class="cls-77" x="389.74" y="0"> </tspan><tspan class="cls-73" x="396.15" y="0">during</tspan><tspan x="471.02" y="0"> </tspan></text><text class="cls-80" transform="translate(1004 717.71)">orie<tspan class="cls-81" x="44.05" y="0">n</tspan><tspan class="cls-75" x="58.42" y="0">t</tspan><tspan class="cls-81" x="67.51" y="0">a</tspan><tspan class="cls-75" x="80.64" y="0">tion</tspan><tspan class="cls-77" x="125.35" y="0"> </tspan><tspan class="cls-78" x="131.76" y="0">w</tspan><tspan class="cls-75" x="150.84" y="0">eek </tspan><tspan class="cls-78" x="197.2" y="0">f</tspan><tspan x="206.12" y="0">or</tspan><tspan class="cls-77" x="230" y="0"> </tspan><tspan x="236.41" y="0">b</tspan><tspan class="cls-82" x="251.5" y="0">o</tspan><tspan x="265.9" y="0">th i</tspan><tspan class="cls-82" x="302.53" y="0">n</tspan><tspan class="cls-83" x="316.92" y="0">t</tspan><tspan class="cls-75" x="325.84" y="0">ern</tspan><tspan class="cls-82" x="363.29" y="0">a</tspan><tspan x="376.44" y="0">tional</tspan><tspan class="cls-84" x="441.01" y="0"> </tspan></text><text class="cls-72" transform="translate(1004 747.45)"><tspan class="cls-75">and</tspan><tspan class="cls-77" x="42.85" y="0"> </tspan><tspan class="cls-75" x="49.26" y="0">local</tspan><tspan class="cls-76" x="103.04" y="0"> </tspan><tspan class="cls-75" x="109.45" y="0">f</tspan><tspan class="cls-78" x="118.54" y="0">r</tspan><tspan class="cls-75" x="127.75" y="0">e</tspan><tspan class="cls-76" x="141.31" y="0">s</tspan><tspan class="cls-73" x="153.61" y="0">hmen</tspan><tspan class="cls-77" x="217.44" y="0" xml:space="preserve"> s</tspan><tspan class="cls-73" x="236.15" y="0">tude</tspan><tspan class="cls-81" x="288.4" y="0">n</tspan><tspan class="cls-73" x="302.77" y="0">ts</tspan><tspan class="cls-77" x="324.19" y="0"> </tspan><tspan class="cls-73" x="330.6" y="0">con</tspan><tspan class="cls-77" x="372.4" y="0">s</tspan><tspan class="cls-75" x="384.7" y="0">i</tspan><tspan class="cls-76" x="391.31" y="0">d</tspan><tspan class="cls-73" x="406.38" y="0">er</tspan><tspan x="429.32" y="0"> </tspan></text><text class="cls-72" transform="translate(1004 777.2)"><tspan class="cls-73">orie</tspan><tspan class="cls-81" x="44.05" y="0">n</tspan><tspan class="cls-75" x="58.42" y="0">t</tspan><tspan class="cls-81" x="67.51" y="0">a</tspan><tspan class="cls-75" x="80.64" y="0">tion</tspan><tspan class="cls-77" x="125.35" y="0"> </tspan><tspan class="cls-78" x="131.76" y="0">w</tspan><tspan class="cls-75" x="150.84" y="0">eek a</tspan><tspan class="cls-77" x="210.46" y="0">s </tspan><tspan class="cls-75" x="229.17" y="0">an</tspan><tspan class="cls-77" x="256.93" y="0"> </tspan><tspan class="cls-75" x="263.34" y="0">impo</tspan><tspan class="cls-85" x="320.81" y="0">r</tspan><tspan class="cls-73" x="330.36" y="0">ta</tspan><tspan class="cls-82" x="352.71" y="0">n</tspan><tspan class="cls-73" x="367.1" y="0">t</tspan><tspan class="cls-77" x="376.2" y="0"> </tspan><tspan class="cls-78" x="382.61" y="0">ev</tspan><tspan class="cls-75" x="408.91" y="0">e</tspan><tspan class="cls-86" x="422.47" y="0">n</tspan><tspan class="cls-75" x="436.87" y="0">t</tspan><tspan x="445.96" y="0"> </tspan></text><text class="cls-72" transform="translate(1004 806.95)"><tspan class="cls-75">all</tspan><tspan class="cls-83" x="26.47" y="0">o</tspan><tspan class="cls-87" x="40.8" y="0">w</tspan><tspan class="cls-75" x="60.04" y="0">ing them</tspan><tspan class="cls-77" x="160.79" y="0"> </tspan><tspan class="cls-78" x="167.2" y="0">t</tspan><tspan class="cls-73" x="176.12" y="0">o</tspan><tspan class="cls-77" x="190.62" y="0"> </tspan><tspan class="cls-79" x="197.03" y="0">e</tspan><tspan class="cls-75" x="210.2" y="0">xplo</tspan><tspan class="cls-88" x="259" y="0">r</tspan><tspan class="cls-73" x="268.21" y="0">e</tspan><tspan class="cls-77" x="281.77" y="0"> </tspan><tspan class="cls-75" x="288.18" y="0">in</tspan><tspan class="cls-77" x="309.29" y="0"> </tspan><tspan class="cls-73" x="315.7" y="0">a</tspan><tspan class="cls-77" x="328.96" y="0"> </tspan><tspan class="cls-73" x="335.37" y="0">n</tspan><tspan class="cls-78" x="349.88" y="0">e</tspan><tspan class="cls-87" x="363.27" y="0">w</tspan><tspan x="382.5" y="0"> </tspan></text><text class="cls-72" transform="translate(1004 836.69)"><tspan class="cls-73">e</tspan><tspan class="cls-89" x="13.56" y="0">n</tspan><tspan class="cls-73" x="27.78" y="0">vi</tspan><tspan class="cls-88" x="47.47" y="0">r</tspan><tspan class="cls-73" x="56.68" y="0">onme</tspan><tspan class="cls-82" x="120.51" y="0">n</tspan><tspan class="cls-73" x="134.9" y="0">t</tspan><tspan x="143.99" y="0">.</tspan></text><text class="cls-90" transform="translate(848.13 491.7)"><tspan class="cls-91">L</tspan><tspan class="cls-36" x="14.99" y="0">oc</tspan><tspan class="cls-67" x="44.77" y="0">a</tspan><tspan class="cls-36" x="59.21" y="0">l Stude</tspan><tspan class="cls-92" x="146.9" y="0">n</tspan><tspan class="cls-70" x="162.6" y="0">t</tspan><tspan class="cls-68" x="172.52" y="0">s</tspan><tspan class="cls-93" x="185.94" y="0">’</tspan><tspan class="cls-67" x="192.72" y="0"> </tspan><tspan class="cls-70" x="199.71" y="0">a</tspan><tspan class="cls-94" x="214.18" y="0">c</tspan><tspan class="cls-36" x="228.43" y="0">tivities</tspan><tspan class="cls-67" x="312.41" y="0"> </tspan><tspan class="cls-60" x="319.4" y="0">t</tspan><tspan class="cls-36" x="329.13" y="0">o</tspan><tspan class="cls-67" x="344.95" y="0"> </tspan><tspan class="cls-34" x="351.95" y="0">g</tspan><tspan class="cls-60" x="368.07" y="0">e</tspan><tspan class="cls-36" x="382.68" y="0">t</tspan><tspan class="cls-67" x="392.6" y="0"> </tspan><tspan class="cls-95" x="399.6" y="0">f</tspan><tspan class="cls-67" x="409.3" y="0">a</tspan><tspan class="cls-36" x="423.74" y="0">mili</tspan><tspan class="cls-67" x="468.56" y="0">a</tspan><tspan class="cls-36" x="483" y="0">r</tspan><tspan class="cls-67" x="493.23" y="0" xml:space="preserve"> w</tspan><tspan class="cls-36" x="521.21" y="0">ith</tspan><tspan x="554.16" y="0"> </tspan></text><text class="cls-90" transform="translate(1048.87 520.25)"><tspan class="cls-36">the c</tspan><tspan class="cls-67" x="61.52" y="0">a</tspan><tspan class="cls-34" x="75.96" y="0">m</tspan><tspan class="cls-67" x="99.16" y="0">p</tspan><tspan class="cls-36" x="115.59" y="0">u</tspan><tspan class="cls-68" x="131.42" y="0">s</tspan><tspan x="144.83" y="0">.</tspan></text><text class="cls-49" transform="translate(126.32 336.5)"><tspan class="cls-51">I</tspan><tspan class="cls-54" x="5.15" y="0">n</tspan><tspan class="cls-96" x="15.62" y="0">t</tspan><tspan class="cls-51" x="22.11" y="0">ern</tspan><tspan class="cls-54" x="49.34" y="0">a</tspan><tspan class="cls-51" x="58.9" y="0">tiona</tspan><tspan x="101.06" y="0">l</tspan></text><text class="cls-49" transform="translate(141.73 355.53)"><tspan class="cls-97">Stude</tspan><tspan class="cls-98" x="48.98" y="0">n</tspan><tspan class="cls-97" x="59.44" y="0">t</tspan><tspan x="66.06" y="0">s</tspan></text><text class="cls-99" transform="translate(846.24 417.34)">I<tspan class="cls-54" x="5.14" y="0">n</tspan><tspan class="cls-96" x="15.61" y="0">t</tspan><tspan class="cls-53" x="22.09" y="0">ern</tspan><tspan class="cls-54" x="49.32" y="0">a</tspan><tspan class="cls-51" x="58.89" y="0">tion</tspan><tspan class="cls-100" x="91.4" y="0">a</tspan><tspan class="cls-101" x="101.03" y="0">l</tspan></text><text class="cls-49" transform="translate(861.65 436.37)"><tspan class="cls-55">S</tspan><tspan class="cls-51" x="10.96" y="0">tu</tspan><tspan class="cls-100" x="28.12" y="0">d</tspan><tspan class="cls-53" x="39.08" y="0">e</tspan><tspan class="cls-54" x="48.94" y="0">n</tspan><tspan class="cls-51" x="59.41" y="0">t</tspan><tspan x="66.02" y="0">s</tspan></text><text class="cls-49" transform="translate(796.85 847.83)"><tspan class="cls-54">o</tspan><tspan class="cls-51" x="10.47" y="0">f</tspan><tspan class="cls-52" x="17.08" y="0"> </tspan><tspan class="cls-51" x="21.74" y="0">c</tspan><tspan class="cls-52" x="31.05" y="0">a</tspan><tspan class="cls-51" x="40.68" y="0">mpu</tspan><tspan class="cls-55" x="77.67" y="0">s </tspan><tspan class="cls-102" x="91.27" y="0">e</tspan><tspan class="cls-52" x="100.85" y="0">xp</tspan><tspan class="cls-51" x="120.96" y="0">lo</tspan><tspan class="cls-103" x="136.32" y="0">r</tspan><tspan class="cls-104" x="142.85" y="0">a</tspan><tspan class="cls-51" x="152.4" y="0">tion</tspan><tspan x="184.91" y="0"> </tspan></text><text class="cls-49" transform="translate(795.66 866.86)"><tspan class="cls-51">h</tspan><tspan class="cls-52" x="10.55" y="0">a</tspan><tspan class="cls-51" x="20.17" y="0">p</tspan><tspan class="cls-52" x="31.15" y="0">p</tspan><tspan class="cls-53" x="42.11" y="0">en</tspan><tspan class="cls-52" x="62.52" y="0">s</tspan><tspan class="cls-51" x="71.46" y="0" xml:space="preserve"> in</tspan><tspan class="cls-55" x="91.5" y="0"> </tspan><tspan class="cls-51" x="96.16" y="0">orie</tspan><tspan class="cls-105" x="128.2" y="0">n</tspan><tspan class="cls-51" x="138.65" y="0">t</tspan><tspan class="cls-104" x="145.26" y="0">a</tspan><tspan class="cls-97" x="154.81" y="0">tion</tspan><tspan x="187.32" y="0"> </tspan></text><text class="cls-49" transform="translate(867.9 885.9)"><tspan class="cls-106">w</tspan><tspan class="cls-51" x="13.86" y="0">ee</tspan><tspan x="33.59" y="0">k</tspan></text><g class="cls-107"><path class="cls-108" d="M413.91,222.53l50.66-38.17c14,18.63,16.84,41.48,7.73,63Z"/><path class="cls-109" d="M403.52,224.52l57.15,24.26a62.09,62.09,0,1,1-32.89-81.41,59.33,59.33,0,0,1,25.33,19.78Z"/><path class="cls-110" d="M470.28,252.89a73.57,73.57,0,1,1-39-96.47,70.29,70.29,0,0,1,30,23.45"/><path class="cls-111" d="M457.59,179.42a2.6,2.6,0,1,0,.51-3.64,2.61,2.61,0,0,0-.51,3.64"/><path class="cls-111" d="M467.25,256.22a2.6,2.6,0,1,0,.52-3.64,2.59,2.59,0,0,0-.52,3.64"/><path class="cls-110" d="M474.63,175.29c17.44,23.14,20.92,51.52,9.6,78.2"/><path class="cls-111" d="M483.41,253a2.6,2.6,0,1,0,.51-3.64,2.59,2.59,0,0,0-.51,3.64"/><path class="cls-111" d="M474.42,178.7a2.6,2.6,0,1,0,.51-3.64,2.6,2.6,0,0,0-.51,3.64"/><path class="cls-108" d="M182.88,224.11l39.31,54.1A66.87,66.87,0,0,1,143.57,170a64,64,0,0,1,39.31-12.77Z"/><path class="cls-109" d="M187.89,221.77v-57a57,57,0,0,1,57,57c0,18.89-8.22,35-23.5,46.13Z"/><path class="cls-110" d="M230.7,289.49a80.67,80.67,0,0,1-94.65-130.65,77,77,0,0,1,47.33-15.42"/><path class="cls-111" d="M181.17,146a2.6,2.6,0,1,0-2.6-2.6,2.6,2.6,0,0,0,2.6,2.6"/><path class="cls-111" d="M228.83,293.59a2.6,2.6,0,1,0-2.6-2.6,2.59,2.59,0,0,0,2.6,2.6"/><path class="cls-110" d="M187.89,155.51c37,0,67,30.15,67,67.34,0,22.32-9.65,41.36-27.6,54.48"/><path class="cls-111" d="M228.54,277.93a2.6,2.6,0,1,0-2.59-2.59,2.59,2.59,0,0,0,2.59,2.59"/><path class="cls-111" d="M189.08,158.24a2.6,2.6,0,1,0-2.6-2.6,2.59,2.59,0,0,0,2.6,2.6"/></g><line class="cls-112" x1="102.11" y1="224.14" x2="4.92" y2="224.14"/><line class="cls-112" x1="588.7" y1="221.75" x2="491.51" y2="221.75"/><line class="cls-112" x1="869.55" y1="770.18" x2="869.55" y2="798.17"/><line class="cls-112" x1="1429.47" y1="359.08" x2="1203.57" y2="359.08"/><rect class="cls-109" x="809.79" y="213.3" width="33.91" height="134.13"/><rect class="cls-109" x="878.78" y="213.19" width="33.91" height="134.13"/><rect class="cls-109" x="947.03" y="213.19" width="33.91" height="134.13"/><rect class="cls-108" x="809.8" y="294.73" width="33.91" height="52.71"/><rect class="cls-108" x="947.03" y="343.35" width="33.91" height="3.97"/><rect class="cls-108" x="878.78" y="267.29" width="33.91" height="80.39"/><rect class="cls-109" x="1230.58" y="213.67" width="33.91" height="134.13"/><rect class="cls-109" x="1299.56" y="213.55" width="33.91" height="134.13"/><rect class="cls-108" x="1367.81" y="213.55" width="33.91" height="134.13"/><line class="cls-112" x1="1011.41" y1="357.59" x2="785.52" y2="357.59"/><g class="cls-107"><path class="cls-111" d="M783.44,358.41a2.6,2.6,0,1,0,.51-3.64,2.59,2.59,0,0,0-.51,3.64"/><path class="cls-111" d="M1008.28,359.16a2.6,2.6,0,1,0,4.15-3.13,2.6,2.6,0,0,0-4.15,3.13"/></g><line class="cls-112" x1="427.3" y1="678.33" x2="173.14" y2="678.33"/><g class="cls-107"><path class="cls-108" d="M424.17,679.89a2.6,2.6,0,0,0,4.15-3.13,2.6,2.6,0,0,0-4.15,3.13"/></g><line class="cls-112" x1="321.55" y1="625.91" x2="247.56" y2="677.72"/><g class="cls-107"><path class="cls-108" d="M319.88,629a2.6,2.6,0,1,0-1.67-3.27,2.59,2.59,0,0,0,1.67,3.27"/></g><line class="cls-112" x1="289.06" y1="798.29" x2="247.84" y2="678.57"/><g class="cls-107"><path class="cls-108" d="M286.56,795.84a2.6,2.6,0,1,0,3.61-.71,2.59,2.59,0,0,0-3.61.71"/></g><line class="cls-112" x1="346.35" y1="731.55" x2="247.48" y2="678.98"/><g class="cls-107"><path class="cls-108" d="M344.32,728.7a2.6,2.6,0,1,1-1.26,3.46,2.6,2.6,0,0,1,1.26-3.46"/><path class="cls-111" d="M1201.5,360.64A2.59,2.59,0,1,0,1202,357a2.58,2.58,0,0,0-.51,3.63"/><path class="cls-111" d="M1426.39,360.64a2.6,2.6,0,1,0,.51-3.63,2.59,2.59,0,0,0-.51,3.63"/><path class="cls-108" d="M870.86,704.14l34.15-47A58.1,58.1,0,1,1,823.86,670c11.32-15.58,27.75-24,47-24Z"/><path class="cls-113" d="M909.39,651.92a64.79,64.79,0,1,1-90.5,14.33c12.62-17.37,31-26.71,52.42-26.71"/><path class="cls-114" d="M869.3,640a2,2,0,1,0,.38-2.74,2,2,0,0,0-.38,2.74"/><path class="cls-114" d="M908.53,653.55a2,2,0,1,0,.39-2.74,2,2,0,0,0-.39,2.74"/></g><rect class="cls-108" x="1230.58" y="333.53" width="33.91" height="14.15"/><rect class="cls-108" x="1299.56" y="339.39" width="33.91" height="8.41"/></g></svg>