<svg id="Layer_1" data-name="Layer 1" xmlns="http://www.w3.org/2000/svg" xmlns:xlink="http://www.w3.org/1999/xlink" viewBox="0 0 1500 721"><defs><style>.cls-1,.cls-3,.cls-38,.cls-83{fill:none;}.cls-2,.cls-27,.cls-29,.cls-8{fill:#5fc0b7;}.cls-3,.cls-38{stroke:#5fc0b7;}.cls-3,.cls-38,.cls-83{stroke-miterlimit:10;}.cls-4{clip-path:url(#clip-path);}.cls-5{fill:#1f1e1c;}.cls-14,.cls-17,.cls-25,.cls-28,.cls-30,.cls-32,.cls-34,.cls-36,.cls-50,.cls-58,.cls-6,.cls-7,.cls-82,.cls-9{fill:#231f20;}.cls-7,.cls-8{font-size:8.45px;}.cls-27,.cls-28,.cls-29,.cls-30,.cls-7,.cls-8{font-family:MyriadPro-Regular, Myriad Pro;}.cls-34,.cls-36,.cls-50,.cls-58,.cls-60,.cls-63,.cls-67,.cls-76,.cls-82,.cls-9{font-size:13.36px;}.cls-34,.cls-36,.cls-50,.cls-58,.cls-60,.cls-82,.cls-9{font-family:SFUIDisplay-Regular, SF UI Display;}.cls-10{letter-spacing:0.05em;}.cls-11{letter-spacing:0.05em;}.cls-12{letter-spacing:0.05em;}.cls-13{letter-spacing:0.05em;}.cls-14,.cls-25,.cls-32{font-size:10.69px;}.cls-14,.cls-25{font-family:Helvetica-Bold, Helvetica;font-weight:700;}.cls-15{letter-spacing:0.05em;}.cls-16,.cls-25{letter-spacing:0.05em;}.cls-17{font-size:8.01px;}.cls-17,.cls-32{font-family:Helvetica;}.cls-18{letter-spacing:0.05em;}.cls-19{letter-spacing:0.05em;}.cls-20{letter-spacing:0.05em;}.cls-21{letter-spacing:0.05em;}.cls-22{letter-spacing:-0.02em;}.cls-23{letter-spacing:0.05em;}.cls-24{letter-spacing:0.05em;}.cls-26{letter-spacing:0em;}.cls-27,.cls-28{font-size:8.24px;}.cls-29,.cls-30{font-size:8.46px;}.cls-31{fill:#cfe7e4;}.cls-33{letter-spacing:-0.02em;}.cls-34{letter-spacing:0.04em;}.cls-35{letter-spacing:0em;}.cls-36{letter-spacing:0.04em;}.cls-37{letter-spacing:0em;}.cls-38{stroke-width:2px;}.cls-39{letter-spacing:0.03em;}.cls-40,.cls-63,.cls-82{letter-spacing:0.03em;}.cls-41,.cls-58{letter-spacing:0.03em;}.cls-42{letter-spacing:0.03em;}.cls-43{letter-spacing:0.02em;}.cls-44{letter-spacing:-0.02em;}.cls-45{letter-spacing:0.03em;}.cls-46{letter-spacing:0.01em;}.cls-47{letter-spacing:0.01em;}.cls-48{letter-spacing:0.01em;}.cls-49,.cls-76{letter-spacing:0.02em;}.cls-50,.cls-51{letter-spacing:0em;}.cls-52{letter-spacing:0.02em;}.cls-53{letter-spacing:0.01em;}.cls-54{letter-spacing:0.03em;}.cls-55{letter-spacing:0.02em;}.cls-56{letter-spacing:0.03em;}.cls-57{letter-spacing:-0.03em;}.cls-59{letter-spacing:0.03em;}.cls-60,.cls-63,.cls-67,.cls-70,.cls-76,.cls-84,.cls-90{fill:#fff;}.cls-61{letter-spacing:-0.04em;}.cls-62{letter-spacing:-0.06em;}.cls-63,.cls-67,.cls-70,.cls-76{font-family:SFUIDisplay-Medium, SF UI Display;font-weight:500;}.cls-64{letter-spacing:0.02em;}.cls-65{letter-spacing:0.02em;}.cls-66{letter-spacing:-0.02em;}.cls-68{letter-spacing:0.01em;}.cls-69{letter-spacing:0.01em;}.cls-70{font-size:20.04px;}.cls-71{letter-spacing:0.03em;}.cls-72{letter-spacing:0.02em;}.cls-73{letter-spacing:0.03em;}.cls-74{letter-spacing:0.03em;}.cls-75{letter-spacing:0.03em;}.cls-77{letter-spacing:0.02em;}.cls-78{letter-spacing:0.02em;}.cls-79{letter-spacing:0.01em;}.cls-80{letter-spacing:0em;}.cls-81{letter-spacing:-0.04em;}.cls-83{stroke:#000;stroke-width:3px;}.cls-84,.cls-90{font-size:34.73px;font-family:SFUIDisplay-Semibold, SF UI Display;font-weight:600;}.cls-85{letter-spacing:0.04em;}.cls-86{letter-spacing:0.05em;}.cls-87{letter-spacing:0.05em;}.cls-88{letter-spacing:0.05em;}.cls-89{letter-spacing:0.05em;}.cls-90{letter-spacing:0.03em;}.cls-91{letter-spacing:-0.01em;}.cls-92{letter-spacing:0.04em;}.cls-93{letter-spacing:0em;}</style><clipPath id="clip-path"><rect class="cls-1" y="-187" width="1583.31" height="928.78"/></clipPath></defs><title>time modified</title><rect class="cls-2" x="1057.43" y="-11.6" width="441.12" height="731.08"/><rect class="cls-3" x="13.51" y="6.9" width="152.89" height="187.21"/><g class="cls-4"><path class="cls-2" d="M43.56,65.13a6.39,6.39,0,0,1,4.63,2.06L46.6,69a4.13,4.13,0,0,0-3-1.35c-2.67,0-4.58,2.24-4.58,5.9s1.76,5.95,4.48,5.95a4.41,4.41,0,0,0,3.43-1.62l1.59,1.76A6.49,6.49,0,0,1,43.44,82c-4.13,0-7.39-3-7.39-8.39s3.33-8.48,7.51-8.48"/><path class="cls-2" d="M56,79.66c1.8,0,2.89-1.62,2.89-4.06S57.75,71.52,56,71.52s-2.86,1.62-2.86,4.08,1.07,4.06,2.86,4.06m0-10.48c3.07,0,5.83,2.34,5.83,6.42S59,82,56,82s-5.79-2.34-5.79-6.4,2.76-6.42,5.79-6.42"/><path class="cls-2" d="M64.62,64.13h2.86V78.71c0,.7.32,1,.62,1a1.76,1.76,0,0,0,.45,0l.37,2.14A3.88,3.88,0,0,1,67.4,82c-2,0-2.78-1.32-2.78-3.44Z"/><path class="cls-2" d="M71.36,64.13h2.86V78.71c0,.7.33,1,.62,1a1.68,1.68,0,0,0,.45,0l.38,2.14a3.92,3.92,0,0,1-1.52.25c-2,0-2.79-1.32-2.79-3.44Z"/><path class="cls-2" d="M85.49,74.51c0-1.94-.82-3.11-2.48-3.11-1.44,0-2.69,1.07-2.94,3.11Zm-2.56-5.33c3.31,0,5,2.39,5,5.8a5.77,5.77,0,0,1-.12,1.34H80.1a3.5,3.5,0,0,0,3.61,3.46,5.12,5.12,0,0,0,2.83-.89l1,1.79A7.73,7.73,0,0,1,83.33,82c-3.38,0-6-2.37-6-6.4s2.76-6.42,5.62-6.42"/><path class="cls-2" d="M96.05,69.18a5.05,5.05,0,0,1,3.58,1.42l-1.37,1.82a3,3,0,0,0-2.06-.9c-2,0-3.34,1.62-3.34,4.08s1.35,4.06,3.26,4.06a4,4,0,0,0,2.51-1l1.2,1.82a6.11,6.11,0,0,1-4,1.57c-3.33,0-5.89-2.34-5.89-6.4a6,6,0,0,1,6.12-6.42"/><path class="cls-2" d="M102.64,71.75H100.9V69.61l1.89-.13.35-3.33h2.39v3.33h3.11v2.27h-3.11v5.82c0,1.44.55,2.14,1.72,2.14a3.51,3.51,0,0,0,1.27-.27l.49,2.11a7.85,7.85,0,0,1-2.48.45c-2.84,0-3.89-1.79-3.89-4.43Z"/><path class="cls-2" d="M111.21,69.48h2.86V81.7h-2.86Zm-.33-3.75a1.78,1.78,0,1,1,1.77,1.61,1.65,1.65,0,0,1-1.77-1.61"/><path class="cls-2" d="M117.73,69.48h2.36l.2,1.64h.1a5.66,5.66,0,0,1,4-1.94c2.62,0,3.76,1.77,3.76,4.86V81.7h-2.86V74.41c0-2-.57-2.76-1.92-2.76-1.07,0-1.76.52-2.78,1.52V81.7h-2.86Z"/><path class="cls-2" d="M138.18,73.56a2.14,2.14,0,1,0-4.25,0,2.15,2.15,0,1,0,4.25,0m-1.81,11.67c2,0,3.3-.92,3.3-2s-.77-1.22-2.16-1.22h-1.67a6.28,6.28,0,0,1-1.67-.18,2.08,2.08,0,0,0-.94,1.62c0,1.1,1.19,1.74,3.14,1.74m-3.79-3.93v-.1a2.29,2.29,0,0,1-1.09-2,3,3,0,0,1,1.34-2.26v-.1a4.12,4.12,0,0,1-1.59-3.24c0-2.81,2.26-4.38,4.83-4.38a5.63,5.63,0,0,1,1.79.3h4.38V71.6H140a3.24,3.24,0,0,1,.69,2.06c0,2.72-2,4.16-4.62,4.16a4.58,4.58,0,0,1-1.67-.32,1.4,1.4,0,0,0-.6,1.16c0,.7.5,1.12,2,1.12H138c2.93,0,4.48.9,4.48,3,0,2.41-2.54,4.3-6.52,4.3-2.91,0-5.08-1-5.08-3.19a3.15,3.15,0,0,1,1.74-2.61"/><path class="cls-2" d="M69.93,109.23c3.28,0,5.17-1.87,5.17-5.88s-1.89-5.72-5.17-5.72H68.68v11.6ZM65.8,95.29h4.33c5,0,7.94,2.69,7.94,8.06s-3,8.22-7.79,8.22H65.8Z"/><path class="cls-2" d="M85.09,109.62a3.83,3.83,0,0,0,2.66-1.34v-2.74c-3.31.43-4.41,1.3-4.41,2.52s.73,1.56,1.75,1.56m2.66-5.87c0-1.29-.58-2.39-2.22-2.39a6.76,6.76,0,0,0-3.43,1.2l-1-1.92a9.54,9.54,0,0,1,5-1.59c3.06,0,4.55,1.86,4.55,5.27v7.24H88.27l-.22-1.34H88a5.94,5.94,0,0,1-3.78,1.64,3.43,3.43,0,0,1-3.63-3.58c0-2.61,2.19-4,7.19-4.53"/><path class="cls-2" d="M94.52,101.61H92.78V99.47l1.89-.12L95,96h2.39v3.34h3.11v2.26H97.41v5.82c0,1.45.54,2.14,1.71,2.14a3.51,3.51,0,0,0,1.27-.27l.5,2.12a7.93,7.93,0,0,1-2.49.44c-2.84,0-3.88-1.79-3.88-4.43Z"/><path class="cls-2" d="M106.71,109.62a3.83,3.83,0,0,0,2.67-1.34v-2.74c-3.31.43-4.41,1.3-4.41,2.52s.72,1.56,1.74,1.56m2.67-5.87c0-1.29-.58-2.39-2.22-2.39a6.76,6.76,0,0,0-3.43,1.2l-1-1.92a9.54,9.54,0,0,1,5-1.59c3.06,0,4.56,1.86,4.56,5.27v7.24H109.9l-.23-1.34h-.07a6,6,0,0,1-3.78,1.64,3.44,3.44,0,0,1-3.64-3.58c0-2.61,2.19-4,7.2-4.53"/><path class="cls-2" d="M51.13,135.13v-3.58c0-.92.07-2.36.12-3.28h-.1c-.4.82-.84,1.61-1.29,2.46L47,135.13Zm4.68,2.22h-2v4.08H51.13v-4.08h-7v-1.94l6.27-9.8h3.41v9.52h2Z"/><path class="cls-2" d="M65.21,129.76a2.24,2.24,0,0,0-2.34-2.41,2,2,0,0,0-2.16,2.16c0,1.59,1.42,2.29,3.18,3a3.86,3.86,0,0,0,1.32-2.74m-2.31,9.93a2.36,2.36,0,0,0,2.61-2.37c0-1.71-1.67-2.33-3.81-3.21a3.76,3.76,0,0,0-1.71,3,2.69,2.69,0,0,0,2.91,2.61m-2.56-6.37v-.1a4.52,4.52,0,0,1-2.19-3.71c0-2.56,2-4.2,4.77-4.2s4.66,1.71,4.66,4.28a4.81,4.81,0,0,1-2.12,3.63v.1a4.54,4.54,0,0,1,2.74,4.1c0,2.44-2.14,4.31-5.35,4.31s-5.37-1.79-5.37-4.36a4.67,4.67,0,0,1,2.86-4.05"/><path class="cls-2" d="M72.66,137.85a1.94,1.94,0,1,1-1.87,1.94,1.85,1.85,0,0,1,1.87-1.94m0-8.51a1.94,1.94,0,1,1-1.87,1.94,1.85,1.85,0,0,1,1.87-1.94"/><path class="cls-2" d="M85.07,133.44c0-4.48-1.09-5.89-2.63-5.89S79.8,129,79.8,133.44s1.12,6.05,2.64,6.05,2.63-1.57,2.63-6.05m-8,0c0-5.35,2.09-8.13,5.38-8.13s5.37,2.81,5.37,8.13-2.09,8.29-5.37,8.29-5.38-2.94-5.38-8.29"/><path class="cls-2" d="M97.84,133.44c0-4.48-1.09-5.89-2.64-5.89s-2.64,1.41-2.64,5.89,1.13,6.05,2.64,6.05,2.64-1.57,2.64-6.05m-8,0c0-5.35,2.09-8.13,5.37-8.13s5.38,2.81,5.38,8.13-2.09,8.29-5.38,8.29-5.37-2.94-5.37-8.29"/><path class="cls-2" d="M105,137.85a1.94,1.94,0,0,1,0,3.88,1.94,1.94,0,0,1,0-3.88m0-8.51a1.94,1.94,0,0,1,0,3.88,1.94,1.94,0,0,1,0-3.88"/><path class="cls-2" d="M117.45,133.44c0-4.48-1.09-5.89-2.64-5.89s-2.63,1.41-2.63,5.89,1.12,6.05,2.63,6.05,2.64-1.57,2.64-6.05m-8,0c0-5.35,2.09-8.13,5.37-8.13s5.38,2.81,5.38,8.13-2.09,8.29-5.38,8.29-5.37-2.94-5.37-8.29"/><path class="cls-2" d="M130.22,133.44c0-4.48-1.1-5.89-2.64-5.89s-2.64,1.41-2.64,5.89,1.12,6.05,2.64,6.05,2.64-1.57,2.64-6.05m-8,0c0-5.35,2.09-8.13,5.37-8.13s5.38,2.81,5.38,8.13-2.1,8.29-5.38,8.29-5.37-2.94-5.37-8.29"/><path class="cls-2" d="M36.23,162.64h2.29c2.24,0,3.43-.95,3.43-2.79s-1.19-2.51-3.43-2.51H36.23Zm6,8.66-3.5-6.38H36.23v6.38H33.35V155h5.47c3.38,0,6,1.2,6,4.83a4.55,4.55,0,0,1-3.26,4.65l3.88,6.8Z"/><path class="cls-2" d="M55.1,164.1c0-1.94-.82-3.11-2.49-3.11-1.45,0-2.69,1.07-2.94,3.11Zm-2.57-5.32c3.31,0,5,2.39,5,5.8a6.53,6.53,0,0,1-.12,1.34H49.7a3.51,3.51,0,0,0,3.6,3.46,5.11,5.11,0,0,0,2.84-.9l1,1.79a7.65,7.65,0,0,1-4.18,1.32c-3.38,0-6-2.36-6-6.39s2.76-6.42,5.62-6.42"/><path class="cls-2" d="M60.32,159.08h2.37l.2,1.66H63a5.17,5.17,0,0,1,3.73-2A3.32,3.32,0,0,1,70.1,161c1.17-1.25,2.39-2.19,3.93-2.19,2.59,0,3.79,1.77,3.79,4.85v7.67H74.93V164c0-2-.6-2.76-1.87-2.76a3.81,3.81,0,0,0-2.56,1.52v8.54H67.64V164c0-2-.6-2.76-1.89-2.76a3.83,3.83,0,0,0-2.56,1.52v8.54H60.32Z"/><path class="cls-2" d="M85.31,169.35A3.79,3.79,0,0,0,88,168v-2.74c-3.31.43-4.4,1.3-4.4,2.52s.72,1.56,1.74,1.56M88,163.48c0-1.29-.57-2.39-2.21-2.39a6.8,6.8,0,0,0-3.44,1.2l-1-1.92a9.51,9.51,0,0,1,5-1.59c3.06,0,4.55,1.86,4.55,5.27v7.24H88.5L88.27,170H88.2a6,6,0,0,1-3.79,1.64A3.43,3.43,0,0,1,80.78,168c0-2.61,2.19-4,7.19-4.53"/><path class="cls-2" d="M94.32,159.08h2.86V171.3H94.32ZM94,155.32a1.77,1.77,0,1,1,1.76,1.62A1.64,1.64,0,0,1,94,155.32"/><path class="cls-2" d="M100.84,159.08h2.36l.2,1.64h.1a5.69,5.69,0,0,1,4-1.94c2.61,0,3.76,1.77,3.76,4.85v7.67H108.4V164c0-2-.57-2.76-1.91-2.76-1.07,0-1.77.52-2.79,1.52v8.54h-2.86Z"/><path class="cls-2" d="M114.78,159.08h2.86V171.3h-2.86Zm-.33-3.76a1.78,1.78,0,1,1,1.77,1.62,1.64,1.64,0,0,1-1.77-1.62"/><path class="cls-2" d="M121.3,159.08h2.36l.2,1.64h.1a5.67,5.67,0,0,1,4-1.94c2.61,0,3.75,1.77,3.75,4.85v7.67h-2.86V164c0-2-.57-2.76-1.91-2.76-1.07,0-1.77.52-2.79,1.52v8.54H121.3Z"/><path class="cls-2" d="M141.75,163.16a2.14,2.14,0,1,0-4.25,0,2.15,2.15,0,1,0,4.25,0m-1.81,11.67c2,0,3.31-.92,3.31-2s-.78-1.22-2.17-1.22h-1.67a6.62,6.62,0,0,1-1.66-.17,2,2,0,0,0-.95,1.62c0,1.09,1.2,1.74,3.14,1.74m-3.79-3.93v-.1a2.31,2.31,0,0,1-1.09-2,3,3,0,0,1,1.34-2.27v-.1a4.12,4.12,0,0,1-1.59-3.23c0-2.81,2.27-4.38,4.83-4.38a5.36,5.36,0,0,1,1.79.3h4.38v2.11h-2.24a3.28,3.28,0,0,1,.7,2.07c0,2.71-2,4.15-4.63,4.15a4.58,4.58,0,0,1-1.67-.32,1.41,1.41,0,0,0-.6,1.17c0,.7.5,1.12,2,1.12h2.17c2.94,0,4.48.89,4.48,3,0,2.41-2.54,4.31-6.52,4.31-2.91,0-5.08-1-5.08-3.19a3.15,3.15,0,0,1,1.74-2.61"/></g><rect class="cls-2" x="67.25" y="44.1" width="47.16" height="9.22"/><g class="cls-4"><path class="cls-2" d="M90.16,24.33c-2.11,0-2.11.11-2.11,1.77V38.51H82.93l7.68,5.32,7.68-5.32H93.17V26.1c0-1.77,0-1.77-2.56-1.77h-.45m.6-8.87c-2.83-.06-5.19,1.48-5.27,3.44V19c0,1.95,2.29,3.54,5.12,3.54S95.73,21,95.73,19s-2.2-3.49-5-3.55"/><path class="cls-5" d="M920.45,54.16c-3.29-5.39-6.41-10-10.85-13.47a5.36,5.36,0,0,0-3-1c-2.83-.13-5.68,0-8.52-.06-1.92,0-2.69,1-2.65,2.81,0,2.93.12,5.86,0,8.78-.14,2.44.78,3.32,3.21,3.28,6.12-.11,12.24,0,18.36,0,.94,0,1.87-.18,3.45-.33m-76-15.67C844.49,36,846,35.11,848,35c2.48-.14,5-.11,7.45-.13q22.62-.13,45.25-.24c1.94,0,3.89.11,5.84.17a7.75,7.75,0,0,1,6.3,3.41c3.32,4.49,6.82,8.85,10,13.43a12.51,12.51,0,0,0,6.49,4.72c2.74,1,5.44,2.12,8.11,3.31,3,1.33,4.78,3.51,4.73,7-.06,4.17.19,8.34,0,12.5s-2.24,5.31-6.31,4.29a29.07,29.07,0,0,0-.35-5.21c-1.59-6.47-7-10.2-13.51-9.3-5.25.73-10.42,5.94-9.83,12.31.15,1.66-.06,2.66-2.16,2.64-11.53-.08-23.07,0-34.6-.05a11.19,11.19,0,0,1-1.75-.27c-.69-10.32-4.45-14.8-12.25-14.72-7.05.07-10.81,4.9-11.36,14.59-4.19,1.16-6.45.52-7.39-2.11-.49-1.33-.61-2.25,1.3-2.63a5.12,5.12,0,0,0,4.18-5.19c.1-2.66-1.45-4.51-3.94-5.42-1.09-.4-2.59-.55-2-2.08.28-.71,1.66-1.29,2.6-1.37,4.09-.35,6.43-1.8,7-4.58.64-3.41-1.45-6.25-5.06-6.81-.78-.12-1.68.14-2.37-.16a9.48,9.48,0,0,1-2.08-1.67c.68-.48,1.33-1.34,2-1.39,2.65-.16,5.32,0,8-.09a5.48,5.48,0,0,0,5.31-4.74,5.33,5.33,0,0,0-3.19-5.83,17.26,17.26,0,0,0-4.45-.5c-1.51-.09-3-.05-4.53-.09a5.33,5.33,0,0,1-1-.3"/><path class="cls-5" d="M869.67,80.61A7.5,7.5,0,0,1,862,88.29,7.76,7.76,0,0,1,854,80.73a8,8,0,0,1,7.93-8,7.83,7.83,0,0,1,7.72,7.83"/><path class="cls-5" d="M931.64,80.51a7.34,7.34,0,0,1-7.58,7.78,7.74,7.74,0,0,1-7.93-7.58,8,8,0,0,1,8-7.91,7.63,7.63,0,0,1,7.5,7.71"/><path class="cls-5" d="M838.4,46.49c-4.16,0-8.32,0-12.47,0-1.58,0-2.94-.3-2.92-2.22s1.53-1.89,2.88-1.89q12.6,0,25.2,0c1.38,0,2.89.07,2.95,1.88s-1.31,2.26-2.91,2.25c-4.24,0-8.49,0-12.73,0Z"/><path class="cls-5" d="M838.88,61a50.65,50.65,0,0,1-6.64-.09c-1-.13-1.8-1.23-2.7-1.89.9-.75,1.77-2.11,2.71-2.16,4.51-.22,9-.2,13.55,0,.89,0,1.72,1.32,2.57,2-.86.69-1.66,1.86-2.59,2a54.72,54.72,0,0,1-6.9.09Z"/><path class="cls-5" d="M839.68,75.39a8.41,8.41,0,0,1-2.89-.08c-.81-.31-1.92-1.21-1.92-1.86a2.74,2.74,0,0,1,1.79-2,20.13,20.13,0,0,1,5.8,0c.77.11,1.39,1.23,2.09,1.89-.66.68-1.2,1.64-2,2a8.1,8.1,0,0,1-2.88.08Z"/><path class="cls-5" d="M262.93,63.4c0-.95,0-1.9,0-2.85.1-2-1.21-2.12-2.67-2s-3.24-.47-3.25,2c0,2-.09,4,.05,5.93a2.35,2.35,0,0,0,1.13,1.73c3.2,1.14,4.73,0,4.74-3.33,0-.48,0-.95,0-1.43m67.47,0a20.28,20.28,0,0,0,.05,3.31,2.19,2.19,0,0,0,1.17,1.47c3.23,1,4.71-.08,4.71-3.44a35.6,35.6,0,0,0-.06-4.26,2.46,2.46,0,0,0-1.09-1.77c-3.06-1.2-4.76,0-4.78,3.27v1.42m-2.65.12h0c0-1,0-2.06,0-3.09.07-2.08-1.41-2-2.77-1.91s-3.1-.57-3.13,1.76c0,2.06-.1,4.13.05,6.17a2.28,2.28,0,0,0,1.17,1.69c3.32,1,4.66,0,4.66-3.43Zm-53.6,0c0,1,0,2.06,0,3.09,0,2.2,1.69,1.7,2.94,1.7s2.92.48,2.94-1.7.07-4.29-.06-6.43a2,2,0,0,0-1.1-1.5c-3.31-1.08-4.69,0-4.73,3.41,0,.47,0,1,0,1.43m-2.69,0c0-5.22-.22-5.54-4.18-4.91a2.53,2.53,0,0,0-1.62,1.73,36.32,36.32,0,0,0,0,6.17,2.23,2.23,0,0,0,1.21,1.65c3.44,1,4.6.08,4.6-3.45V63.52m-8.53,13.22h0c0-1,0-2.07,0-3.1.08-2.49-1.77-1.92-3.18-2s-2.8-.12-2.73,2a43.78,43.78,0,0,1,0,5.25c-.18,2,.71,2.61,2.62,2.58,3.31-.06,3.32,0,3.32-3.27,0-.48,0-1,0-1.44m67.44-.18h0c0,1,0,1.91,0,2.86-.14,2.33,1.55,2,2.93,2s3.06.45,3-1.9c-.05-2,.06-4-.08-6a2.38,2.38,0,0,0-1.12-1.76c-3.22-1.14-4.76,0-4.76,3.36Zm-2.6.17h0a23.32,23.32,0,0,0-.05-3.55,2.13,2.13,0,0,0-1.18-1.44c-3.42-1-4.66,0-4.66,3.43v3.08c0,3.19,0,3.09,3.11,3.2,2.14.08,3.15-.6,2.83-2.83a13.23,13.23,0,0,1,0-1.89M280,76.61h0a18.91,18.91,0,0,1,0-2.13c.23-2.11-.53-3-2.79-2.89-3.09.15-3.11,0-3.11,3.23a28,28,0,0,1,0,3.55c-.31,2.4.58,3.17,3,3.12,2.26,0,3.24-.68,2.91-3a13.36,13.36,0,0,1,0-1.9m-8.57,0c0-5,0-5-2.74-5-3.14,0-3.14,0-3.16,3.17a28.17,28.17,0,0,1,0,3.56c-.3,2.38.56,3.19,3,3.13,2.24,0,3.26-.66,2.93-3a13.36,13.36,0,0,1,0-1.9M344.86,63.3h0c0-.87,0-1.74,0-2.61.12-2.13-1.31-2.2-2.83-2.16s-3.21-.39-3.19,2c0,2-.09,4,.06,5.92a2.33,2.33,0,0,0,1.19,1.71c3.18,1.06,4.72-.12,4.74-3.44,0-.48,0-1,0-1.43m-6,13.14h0a28.25,28.25,0,0,0,0,3.32,2.14,2.14,0,0,0,.85,1.48c2.76,1.34,5.12-.15,5.12-3.15a42,42,0,0,0-.06-4.49,2.52,2.52,0,0,0-1.08-1.81c-3-1.2-4.84,0-4.88,3.23v1.42M301.12,54.52a6.36,6.36,0,0,0,6.32-6.14,6.49,6.49,0,0,0-6.51-6.49,6.42,6.42,0,0,0-6.3,6.43,6.29,6.29,0,0,0,6.49,6.2m-5.88,26.35c0,2.63,0,5.26,0,7.88,0,1.28.49,1.92,1.83,1.9,2.54,0,5.09,0,7.63,0,1.45,0,2-.69,1.95-2.07,0-5,.07-10,0-15a5.85,5.85,0,0,0-5.79-5.8,5.77,5.77,0,0,0-5.56,6c0,2.39,0,4.78,0,7.16m5.81,19.76q-28.76,0-57.53,0c-1.1,0-2.49.44-2.79-1.39-.35-2.17.14-2.78,2.52-2.78H281a6.23,6.23,0,0,0,2.12-.05,6.83,6.83,0,0,0,1.7-1.38c-.59-.46-1.16-1.3-1.78-1.33-3.17-.13-6.36-.07-9.54-.07-8.75,0-17.51,0-26.26,0-1.52,0-2.58-.09-2.55-2.11s1.08-2,2.47-2c2.91,0,3-.19,3-3.19,0-11.06.07-22.12,0-33.18,0-2.42.7-3.16,3.12-3.13,9.62.12,19.25,0,28.88.06,1.6,0,2.82-.1,2.77-2.24a3.14,3.14,0,0,1,1.25-2.09c4.39-3.29,8.87-6.46,13.27-9.73a2.1,2.1,0,0,1,2.95,0c4.41,3.26,8.92,6.38,13.32,9.65a3.38,3.38,0,0,1,1.37,2.25c0,2,1,2.17,2.6,2.17,9.63,0,19.26,0,28.88,0,3.39,0,3.4,0,3.4,3.49,0,11,0,22,0,32.94,0,2.23.66,3.33,3,3,1.45-.17,2.39.13,2.41,2,0,2.09-1.16,2-2.61,2q-17.07,0-34.14,0a7.35,7.35,0,0,0-2.36.15,1.78,1.78,0,0,0-.93,1.37,1.74,1.74,0,0,0,1,1.21,6.85,6.85,0,0,0,2.13.09h38.2c1.22,0,2.64-.34,2.67,1.73,0,1.65-.43,2.52-2.28,2.48-3.74-.07-7.48,0-11.22,0H301.05Z"/><path class="cls-5" d="M280.11,47.87c-.51-3.24-.33-5.34,2.3-7.14,5.32-3.61,10.31-7.71,15.53-11.49,1.79-1.29,2.72-2.71,2.49-5-.17-1.57,0-3.18,0-4.77,0-1.41.62-2,2.05-1.95,2.54.08,5.09.1,7.64,0,1.68-.05,2.31.7,2.2,2.29a14,14,0,0,0,0,2.15c.13,1.6-.67,2.12-2.15,2.06a45.56,45.56,0,0,0-5.48,0c-1,.08-2.38.42-2.74,1.09-.7,1.32.09,2.51,1.34,3.41,3,2.15,5.85,4.39,8.78,6.59,2.54,1.91,5,4,7.66,5.67,2.52,1.55,2.8,3.58,2.19,6.49-.79-.48-1.44-.81-2-1.24-5.7-4.2-11.42-8.37-17.06-12.64a2.47,2.47,0,0,0-3.54,0c-5.41,4.19-10.89,8.28-16.35,12.39-.8.6-1.62,1.17-2.79,2"/><path class="cls-5" d="M296.6,48.55c1.29-.17,2.94.07,3.76-.65s.73-2.37,1-3.61l.61,0c0,1.58.62,4-.13,4.56-1.29.9-3.42.61-5.2.82,0-.35-.05-.71-.08-1.07"/><path class="cls-5" d="M248.37,123.24a12,12,0,1,0-21.3,7.65l9.27,13.31,9.41-13.5a11,11,0,0,0,.92-1.34l.1-.13h0a11.83,11.83,0,0,0,1.62-6m-6.25,0a6,6,0,1,1-6-6,6,6,0,0,1,6,6"/><path class="cls-5" d="M462.62,58.9c0-1.6,0-3.19,0-4.78,0-1.35-.38-2.11-1.88-2.07-2.23.05-4.46,0-6.68,0-1.59,0-2.06.75-2,2.23.07,2.54,0,5.09,0,7.63,0,3.79,0,3.79,3.7,3.81,6.88,0,6.88,0,6.83-6.82m36.93,0c0-1.58-.07-3.17,0-4.75s-.6-2.14-2.09-2.1c-2.14.05-4.28.07-6.42,0-1.56-.06-2.09.62-2,2.13.07,2.61,0,5.22,0,7.84,0,3.69,0,3.69,3.72,3.7,6.8,0,6.8,0,6.79-6.81M481.13,59h0c0-1.67,0-3.34,0-5,0-1.31-.53-1.91-1.83-1.91-2.31,0-4.61,0-6.92,0-1.31,0-1.84.61-1.83,1.9,0,3.34-.06,6.68.1,10a2.39,2.39,0,0,0,1.63,1.65,43.77,43.77,0,0,0,7.15,0A2.43,2.43,0,0,0,481.05,64a34.71,34.71,0,0,0,.08-5M470.57,39.5c0,1.67,0,3.34,0,5,0,1.38.51,2,2,2,2.14-.06,4.29-.08,6.43,0,1.7.07,2.23-.7,2.19-2.28-.07-2.62,0-5.24,0-7.86,0-3.74,0-3.74-3.62-3.74-6.94,0-6.94,0-6.93,6.85m-7.94,42.67h0c0-1.67,0-3.34,0-5,0-1.31-.56-1.85-1.88-1.82-2.23,0-4.46,0-6.68,0-1.43,0-2,.59-2,2q.07,4.89,0,9.78c0,1.56.7,2.15,2.17,2.13,2.07,0,4.14-.07,6.2,0,1.7.07,2.25-.74,2.2-2.31s0-3.18,0-4.77m0-42.37c0-1.75,0-3.5,0-5.25,0-1.26-.5-1.92-1.83-1.9-2.23,0-4.45,0-6.68,0-1.37,0-2.05.57-2,2,0,3.34,0,6.68,0,10,0,1.32.6,1.85,1.89,1.83,2.31,0,4.63.11,6.91-.08a2.45,2.45,0,0,0,1.66-1.62,36.22,36.22,0,0,0,.07-5m36.93,0c0-1.67,0-3.34,0-5,.05-1.36-.44-2.12-1.9-2.1-2.3,0-4.62-.12-6.91.08a2.44,2.44,0,0,0-1.63,1.7c-.15,3.5-.14,7,0,10.5a2.21,2.21,0,0,0,1.54,1.48,47.4,47.4,0,0,0,7.15,0,2.43,2.43,0,0,0,1.65-1.64,36.33,36.33,0,0,0,.08-5m0,42.41h0c0-1.59-.06-3.18,0-4.77s-.64-2.12-2.14-2.08c-2.14.06-4.3.07-6.44,0-1.49-.06-2,.61-1.94,2,.05,3.35,0,6.69,0,10,0,1.25.49,1.93,1.83,1.91,2.31,0,4.63.11,6.91-.1a2.53,2.53,0,0,0,1.67-1.72,39.72,39.72,0,0,0,.08-5.24M505,64.84c0,12.09,0,24.19,0,36.28,0,2.19-.62,2.91-2.84,2.86-6.2-.13-12.41-.1-18.62,0-1.88,0-2.49-.61-2.47-2.47.08-7.8,0-15.6,0-23.4,0-2-.56-3-2.71-2.78a26.21,26.21,0,0,1-4.77,0c-2.38-.25-3.21.57-3.16,3,.14,7.64,0,15.28.09,22.91,0,2.11-.61,2.76-2.71,2.72-6.2-.12-12.41-.1-18.62,0-1.89,0-2.67-.48-2.67-2.54q.09-36.75,0-73.52c0-1.71.48-2.41,2.3-2.4q26.85.07,53.71,0c2,0,2.39.81,2.38,2.57-.05,12.26,0,24.51,0,36.77"/><path class="cls-5" d="M516.72,58.76a41.58,41.58,0,0,0,.07,5.24,2.41,2.41,0,0,0,1.61,1.64,44.92,44.92,0,0,0,7.15,0A2.4,2.4,0,0,0,527.16,64c.15-3.34,0-6.68.08-10,0-1.34-.6-1.87-1.86-1.87-2.23,0-4.46,0-6.68-.05-1.4,0-2.07.49-2,2s0,3.18,0,4.77m10.51-38.58c0-1.67,0-3.34,0-5,0-1.29-.47-1.93-1.81-1.91-2.31,0-4.62-.12-6.92.06a2.42,2.42,0,0,0-1.71,1.57c-.16,3.49-.13,7,0,10.5,0,.58.78,1.62,1.21,1.63,2.92,0,5.84-.16,8.76-.28l.48-6.56m0,19.52c0-1.67,0-3.34,0-5,0-1.43-.62-2-2-2-2.15,0-4.3,0-6.44,0-1.56-.05-2.13.65-2.1,2.15,0,2.7,0,5.41,0,8.11,0,3.62,0,3.62,3.62,3.62,6.91,0,6.91,0,6.9-6.81M510.06,55.07c0-15.27.05-30.55,0-45.83,0-2.23.53-3.06,2.9-3,6,.16,12.09.12,18.14,0,2.08,0,2.93.44,2.92,2.76-.07,30.72,0,61.43-.07,92.15,0,.89-.48,2.5-.89,2.55a21,21,0,0,1-5.37-.2c-.23,0-.37-1.43-.37-2.19,0-7.72-.08-15.44,0-23.15,0-2.15-.55-3.1-2.81-2.87a23.76,23.76,0,0,1-4.77,0c-2.25-.22-3.05.54-3,2.89.13,7.56-.06,15.12.09,22.68.05,2.41-.6,3.21-3.06,3.1-4.12-.2-3.67.26-3.67-3.8V55.07Z"/><path class="cls-5" d="M472.28,10.85l-.38.47c.72,2.33,1.43,4.68,2.21,7,.09.28.7.66.86.57a1.84,1.84,0,0,0,.79-1c.42-1.24.66-2.54,1.15-3.75a21,21,0,0,1,1.54-2.73l-.72-.65-2.83,2.55-2.62-2.49m-3.36,5.57c0,.31,0,.62,0,.92-1,0-2.41.38-2.74-.07a4.64,4.64,0,0,1-.87-3.38c.9-3.43,3.23-.61,4.95-.68-.58-2.09-2-3-3.88-2.52-2.32.56-3.49,2.71-2.94,5.42s2.4,3.38,7.66,2.28a10.14,10.14,0,0,0-.88-3.37c-.29-.43-1.74-.08-2.66-.08l-.09.57,1.46.91m13-.51,2,3L486.44,16c.32,1.05.61,2,.89,2.94l1.09-.08c0-2,.09-4.07-.05-6.1,0-.61-.7-1.19-1.08-1.78a7.25,7.25,0,0,0-1.83,1.47A22.1,22.1,0,0,0,483.94,16a18.74,18.74,0,0,0-1.39-3.47,7.66,7.66,0,0,0-2-1.54,7.69,7.69,0,0,0-.94,1.88,8.16,8.16,0,0,0,0,2.61c.17,1.14.51,2.25.78,3.38.51-1,1-1.91,1.56-2.94m-6.39,5.89c-5,0-10-.05-15,0-1.69,0-2.23-.55-2.17-2.21.12-3.1.09-6.21,0-9.31,0-1.52.49-2.13,2.07-2.12q15.39.06,30.79,0c1.59,0,2.08.64,2.05,2.14-.06,3.1-.08,6.21,0,9.31.05,1.66-.56,2.22-2.22,2.2-5.17-.08-10.34,0-15.51,0"/><path class="cls-5" d="M452.08,127.73a12,12,0,1,0-21.3,7.65l9.27,13.32,9.41-13.51a12.19,12.19,0,0,0,.93-1.33l.09-.14h0a11.83,11.83,0,0,0,1.62-6m-6.25,0a6,6,0,1,1-6-6,6,6,0,0,1,6,6"/><path class="cls-5" d="M727.84,52.83,686.34,9.92a3,3,0,0,0-4.25,0l-41.5,42.91c-1.16,1.21-.75,2.2.93,2.2h12.21V94.7h22.85V70.29h15.26l-.05,24.41h23V55h12.15c1.67,0,2.09-1,.93-2.2"/><path class="cls-5" d="M654.76,124.63a12,12,0,0,0-24.07,0,11.85,11.85,0,0,0,2.78,7.65l9.27,13.32,9.4-13.51a12.19,12.19,0,0,0,.93-1.33l.09-.14h0a11.92,11.92,0,0,0,1.61-6m-6.24,0a6,6,0,1,1-6-6,6,6,0,0,1,6,6"/></g><rect class="cls-3" x="237.04" y="188.53" width="127.59" height="156.23"/><g class="cls-4"><path class="cls-2" d="M301.93,210.21a3.68,3.68,0,1,0-6.51,2.34l2.83,4.07,2.88-4.13a3.71,3.71,0,0,0,.28-.41l0,0h0a3.68,3.68,0,0,0,.49-1.83m-1.91,0a1.84,1.84,0,1,1-1.84-1.84,1.83,1.83,0,0,1,1.84,1.84"/><path class="cls-2" d="M251.46,234.4,277.94,250a63.79,63.79,0,0,0,8.66-39.51l-30.4,5.11a33,33,0,0,1-4.74,18.82"/><path class="cls-6" d="M267.61,237.44a2.48,2.48,0,0,1,2.36-2.62,2.41,2.41,0,0,1,2.39,2.62A2.33,2.33,0,0,1,270,240a2.41,2.41,0,0,1-2.39-2.55m.57-4.34-.06-.57c-.22-1.89.51-3.58,1.69-5.42a6.12,6.12,0,0,0,1.37-3.54,1.91,1.91,0,0,0-2.1-2,3.4,3.4,0,0,0-2,.57l-.71-3.22a7.49,7.49,0,0,1,3.73-1c4.21,0,5.39,2.78,5.39,4.92s-1.24,4-2.36,5.61a6.53,6.53,0,0,0-1.37,3.92v.67Z"/></g><path class="cls-3" d="M271,262.86H256.15l8-14.26Zm82.3,73.94H250.59V262.86H353.28Z"/><rect class="cls-2" x="260.27" y="270.46" width="83.1" height="14.53"/><path class="cls-3" d="M343.34,324.26H260.52V309.85h82.82Zm-.12-19.54H260.41V290.31h82.81Z"/><text class="cls-7" transform="translate(291.56 280.12)">Stud</text><text class="cls-7" transform="translate(305.18 280.12)">y</text><text class="cls-8" transform="translate(290.51 299.83)">Fitness</text><text class="cls-8" transform="translate(293.1 319.53)">Home</text><g class="cls-4"><path class="cls-2" d="M302.66,328a1.31,1.31,0,1,1-1.3-1.31,1.31,1.31,0,0,1,1.3,1.31"/><path class="cls-2" d="M302.39,331.35a1,1,0,1,1-1-1,1,1,0,0,1,1,1"/><path class="cls-2" d="M302.11,334.16a.75.75,0,0,1-1.5,0,.75.75,0,1,1,1.5,0"/></g><text class="cls-9" transform="translate(254.54 144.34)"><tspan class="cls-10">C</tspan><tspan class="cls-11" x="9.82" y="0">a</tspan><tspan class="cls-10" x="17.19" y="0">mp</tspan><tspan class="cls-12" x="36.57" y="0">u</tspan><tspan x="44.27" y="0">s</tspan></text><text class="cls-9" transform="translate(460.91 144.34)"><tspan class="cls-13">G</tspan><tspan class="cls-11" x="10.09" y="0">y</tspan><tspan x="17.25" y="0">m</tspan></text><text class="cls-9" transform="translate(665.38 144.34)"><tspan class="cls-10">H</tspan><tspan class="cls-11" x="9.99" y="0">o</tspan><tspan class="cls-10" x="17.75" y="0">m</tspan><tspan x="29.14" y="0">e</tspan></text><text class="cls-14" transform="translate(312.9 218.19)"><tspan class="cls-15">Cam</tspan><tspan class="cls-16" x="24.73" y="0">pu</tspan><tspan x="38.86" y="0">s</tspan></text><text class="cls-17" transform="translate(290.74 237.26)"><tspan class="cls-18">9</tspan><tspan class="cls-19" x="4.85" y="0">:</tspan><tspan class="cls-18" x="7.48" y="0">00</tspan><tspan class="cls-20" x="17.18" y="0">A</tspan><tspan class="cls-21" x="22.92" y="0">M-</tspan><tspan class="cls-22" x="33.05" y="0">1</tspan><tspan class="cls-18" x="37.33" y="0">1</tspan><tspan class="cls-19" x="42.18" y="0">:</tspan><tspan class="cls-18" x="44.81" y="0">00</tspan><tspan class="cls-20" x="54.51" y="0">A</tspan><tspan x="60.25" y="0">M</tspan></text><text class="cls-17" transform="translate(289.34 250.62)"><tspan class="cls-19">W</tspan><tspan class="cls-18" x="7.97" y="0">ha</tspan><tspan class="cls-19" x="17.67" y="0">t </tspan><tspan class="cls-18" x="22.92" y="0">did</tspan><tspan class="cls-19" x="34.79" y="0" xml:space="preserve"> y</tspan><tspan class="cls-21" x="41.83" y="0">ou</tspan><tspan class="cls-19" x="51.53" y="0"> </tspan><tspan class="cls-18" x="54.16" y="0">do</tspan><tspan x="63.86" y="0">?</tspan></text><rect class="cls-3" x="611.51" y="188.53" width="127.59" height="156.23"/><g class="cls-4"><path class="cls-2" d="M676.41,210.21a3.69,3.69,0,1,0-6.52,2.34l2.84,4.07,2.88-4.13c.1-.13.19-.27.28-.41l0,0h0a3.59,3.59,0,0,0,.5-1.83m-1.91,0a1.84,1.84,0,1,1-1.84-1.84,1.84,1.84,0,0,1,1.84,1.84"/><path class="cls-2" d="M625.94,234.4,652.42,250a63.79,63.79,0,0,0,8.66-39.51l-30.41,5.11a33.07,33.07,0,0,1-4.73,18.82"/><path class="cls-6" d="M642.08,237.44a2.48,2.48,0,0,1,2.36-2.62,2.41,2.41,0,0,1,2.4,2.62,2.34,2.34,0,0,1-2.36,2.55,2.42,2.42,0,0,1-2.4-2.55m.58-4.34-.06-.57c-.23-1.89.51-3.58,1.68-5.42a6.08,6.08,0,0,0,1.38-3.54,1.91,1.91,0,0,0-2.11-2,3.42,3.42,0,0,0-2,.57l-.7-3.22a7.49,7.49,0,0,1,3.73-1c4.21,0,5.39,2.78,5.39,4.92s-1.24,4-2.36,5.61a6.53,6.53,0,0,0-1.37,3.92v.67Z"/></g><path class="cls-3" d="M645.46,262.86H630.62l8-14.26Zm82.29,73.94H625.06V262.86H727.75Z"/><g class="cls-4"><path class="cls-2" d="M677.14,328a1.31,1.31,0,1,1-1.31-1.31,1.31,1.31,0,0,1,1.31,1.31"/><path class="cls-2" d="M676.86,331.35a1,1,0,1,1-1-1,1,1,0,0,1,1,1"/><path class="cls-2" d="M676.58,334.16a.75.75,0,1,1-.75-.75.75.75,0,0,1,.75.75"/></g><text class="cls-14" transform="translate(700.91 218.19)"><tspan class="cls-15">H</tspan><tspan class="cls-16" x="8.24" y="0">o</tspan><tspan class="cls-23" x="15.3" y="0">m</tspan><tspan x="25.33" y="0">e</tspan></text><text class="cls-17" transform="translate(669.49 237.26)"><tspan class="cls-18">3</tspan><tspan class="cls-19" x="4.85" y="0">:</tspan><tspan class="cls-18" x="7.48" y="0">00</tspan><tspan class="cls-20" x="17.18" y="0">P</tspan><tspan class="cls-18" x="22.92" y="0">M-4</tspan><tspan class="cls-20" x="37.91" y="0">:</tspan><tspan class="cls-21" x="40.53" y="0">00</tspan><tspan class="cls-20" x="50.23" y="0">A</tspan><tspan x="55.98" y="0">M</tspan></text><text class="cls-17" transform="translate(663.82 250.62)"><tspan class="cls-19">W</tspan><tspan class="cls-18" x="7.97" y="0">ha</tspan><tspan class="cls-19" x="17.67" y="0">t </tspan><tspan class="cls-18" x="22.92" y="0">did</tspan><tspan class="cls-19" x="34.79" y="0"> </tspan><tspan class="cls-24" x="37.42" y="0">you</tspan><tspan class="cls-19" x="51.52" y="0"> </tspan><tspan class="cls-18" x="54.15" y="0">do</tspan><tspan x="63.85" y="0">?</tspan></text><rect class="cls-3" x="423.33" y="188.12" width="127.59" height="156.23"/><g class="cls-4"><path class="cls-2" d="M488.23,209.8a3.69,3.69,0,0,0-7.37,0,3.63,3.63,0,0,0,.85,2.34l2.84,4.07,2.87-4.13a3.69,3.69,0,0,0,.29-.4l0-.05h0a3.66,3.66,0,0,0,.5-1.83m-1.91,0a1.85,1.85,0,1,1-1.85-1.83,1.84,1.84,0,0,1,1.85,1.83"/><path class="cls-2" d="M437.75,234l26.49,15.58a63.87,63.87,0,0,0,8.66-39.51l-30.41,5.1A33,33,0,0,1,437.75,234"/><path class="cls-6" d="M453.9,237a2.48,2.48,0,0,1,2.36-2.61,2.41,2.41,0,0,1,2.39,2.61,2.33,2.33,0,0,1-2.36,2.55A2.41,2.41,0,0,1,453.9,237m.58-4.33-.07-.58c-.22-1.88.51-3.57,1.69-5.42a6.05,6.05,0,0,0,1.38-3.54,1.92,1.92,0,0,0-2.11-2,3.36,3.36,0,0,0-2,.58l-.7-3.22a7.49,7.49,0,0,1,3.73-1c4.21,0,5.39,2.77,5.39,4.91s-1.25,4-2.36,5.61A6.56,6.56,0,0,0,458,232v.67Z"/></g><path class="cls-3" d="M457.27,262.46H442.44l8-14.26Zm82.3,73.94H436.88V262.46H539.57Z"/><g class="cls-4"><path class="cls-2" d="M489,327.57a1.31,1.31,0,1,1-1.31-1.3,1.31,1.31,0,0,1,1.31,1.3"/><path class="cls-2" d="M488.68,330.94a1,1,0,1,1-1-1,1,1,0,0,1,1,1"/><path class="cls-2" d="M488.4,333.75a.75.75,0,1,1-.75-.75.75.75,0,0,1,.75.75"/></g><text class="cls-25" transform="translate(519.2 217.79)">G<tspan class="cls-23" x="8.85" y="0">y</tspan><tspan class="cls-26" x="15.31" y="0">m</tspan></text><text class="cls-17" transform="translate(481.3 236.86)"><tspan class="cls-18">2</tspan><tspan class="cls-19" x="4.85" y="0">:</tspan><tspan class="cls-18" x="7.48" y="0">00</tspan><tspan class="cls-20" x="17.18" y="0">P</tspan><tspan class="cls-21" x="22.92" y="0">M-3</tspan><tspan class="cls-20" x="37.91" y="0">:</tspan><tspan class="cls-21" x="40.53" y="0">00</tspan><tspan class="cls-20" x="50.23" y="0">P</tspan><tspan x="55.98" y="0">M</tspan></text><text class="cls-17" transform="translate(475.64 250.22)"><tspan class="cls-19">W</tspan><tspan class="cls-18" x="7.97" y="0">ha</tspan><tspan class="cls-19" x="17.67" y="0">t </tspan><tspan class="cls-18" x="22.92" y="0">did</tspan><tspan class="cls-19" x="34.79" y="0"> </tspan><tspan class="cls-18" x="37.42" y="0">you</tspan><tspan class="cls-19" x="51.52" y="0"> </tspan><tspan class="cls-18" x="54.15" y="0">do</tspan><tspan x="63.85" y="0">?</tspan></text><rect class="cls-3" x="447.08" y="268.8" width="80.72" height="13.86"/><rect class="cls-2" x="446.93" y="287.86" width="81.03" height="14.17"/><rect class="cls-3" x="447.19" y="307.22" width="80.72" height="13.86"/><text class="cls-27" transform="translate(477.44 278.06)">Stud</text><text class="cls-27" transform="translate(490.72 278.06)">y</text><text class="cls-28" transform="translate(476.42 297.28)">Fitness</text><text class="cls-27" transform="translate(478.94 316.5)">Home</text><path class="cls-3" d="M716.77,306.19H633.85V291.73h82.92Zm0-19.61H633.85V272.12h82.92Z"/><rect class="cls-2" x="633.82" y="310.11" width="83.21" height="14.58"/><g class="cls-4"><text class="cls-29" transform="translate(665.04 281.67)">Stud</text><text class="cls-29" transform="translate(678.68 281.67)">y</text><text class="cls-29" transform="translate(664.98 301.45)">Fitness</text><text class="cls-30" transform="translate(666.58 319.81)">Home</text><path class="cls-2" d="M300.9,364.81c0,3.46-3.12,6.26-7,6.26s-7-2.8-7-6.26,3.12-6.27,7-6.27,7,2.81,7,6.27"/><path class="cls-2" d="M299.42,381a5.53,5.53,0,1,1-5.49-4.94,5.24,5.24,0,0,1,5.49,4.94"/><path class="cls-2" d="M297.93,394.45a4,4,0,1,1-4-3.6,3.81,3.81,0,0,1,4,3.6"/><path class="cls-2" d="M493.33,364.81c0,3.46-3.12,6.26-7,6.26s-7-2.8-7-6.26,3.11-6.27,7-6.27,7,2.81,7,6.27"/><path class="cls-2" d="M491.86,381a5.53,5.53,0,1,1-5.5-4.94,5.24,5.24,0,0,1,5.5,4.94"/><path class="cls-2" d="M490.36,394.45a4,4,0,1,1-4-3.6,3.81,3.81,0,0,1,4,3.6"/><path class="cls-2" d="M694.72,364.81c0,3.46-3.12,6.26-7,6.26s-7-2.8-7-6.26,3.11-6.27,7-6.27,7,2.81,7,6.27"/><path class="cls-2" d="M693.25,381a5.53,5.53,0,1,1-5.5-4.94,5.24,5.24,0,0,1,5.5,4.94"/><path class="cls-2" d="M691.75,394.45a4,4,0,1,1-4-3.6,3.81,3.81,0,0,1,4,3.6"/></g><polygon class="cls-2" points="337.32 535.7 337.32 535.15 237.47 535.15 237.47 413.36 336.77 413.36 336.77 535.7 337.32 535.7 337.32 535.15 337.32 535.7 337.87 535.7 337.87 412.26 236.37 412.26 236.37 536.25 337.87 536.25 337.87 535.7 337.32 535.7"/><g class="cls-4"><path class="cls-2" d="M285.2,416.92h1.49l1.38,3.78.51,1.46h.05l.5-1.46,1.35-3.78H292v7.68H290.7v-3.51c0-.72.11-1.74.18-2.44h-.05l-.62,1.75-1.33,3.48h-.62l-1.33-3.48-.61-1.75h0c.06.7.16,1.72.16,2.44v3.51H285.2Z"/><path class="cls-2" d="M295.7,423.68a1.78,1.78,0,0,0,1.25-.63v-1.29c-1.56.2-2.07.61-2.07,1.18s.34.74.82.74m1.25-2.77c0-.61-.27-1.12-1-1.12a3.13,3.13,0,0,0-1.62.56l-.5-.91a4.58,4.58,0,0,1,2.36-.75c1.45,0,2.15.88,2.15,2.49v3.42h-1.1l-.11-.63h0a2.85,2.85,0,0,1-1.79.77,1.62,1.62,0,0,1-1.71-1.69c0-1.23,1-1.88,3.39-2.14"/><path class="cls-2" d="M300,418.83h1.11l.1,1h0a2,2,0,0,1,1.63-1.17,1.45,1.45,0,0,1,.65.12l-.23,1.18a1.84,1.84,0,0,0-.6-.1c-.46,0-1,.32-1.36,1.19v3.52H300Z"/><path class="cls-2" d="M306.72,418.69a2.43,2.43,0,0,1,1.7.67l-.65.86a1.44,1.44,0,0,0-1-.42c-.93,0-1.58.76-1.58,1.92s.64,1.92,1.54,1.92a1.92,1.92,0,0,0,1.19-.5l.56.86a2.89,2.89,0,0,1-1.89.74,2.74,2.74,0,0,1-2.78-3,2.85,2.85,0,0,1,2.88-3"/><path class="cls-2" d="M309.64,416.31H311v2.14l-.05,1.11a2.64,2.64,0,0,1,1.84-.87c1.24,0,1.78.84,1.78,2.29v3.62h-1.35v-3.44c0-1-.27-1.3-.91-1.3a1.81,1.81,0,0,0-1.31.71v4h-1.35Z"/><path class="cls-2" d="M318.19,423.81c2.08-2,3.38-3.32,3.38-4.46a1.15,1.15,0,0,0-1.23-1.29,2.08,2.08,0,0,0-1.46.83l-.75-.75a3,3,0,0,1,2.38-1.15,2.18,2.18,0,0,1,2.36,2.29c0,1.33-1.23,2.69-2.71,4.25.39,0,.88-.08,1.25-.08h1.83v1.15h-5.05Z"/><path class="cls-2" d="M328,420.83c0-2.11-.52-2.78-1.25-2.78s-1.24.67-1.24,2.78.53,2.85,1.24,2.85,1.25-.74,1.25-2.85m-3.78,0c0-2.53,1-3.84,2.53-3.84s2.54,1.33,2.54,3.84-1,3.91-2.54,3.91-2.53-1.38-2.53-3.91"/><path class="cls-2" d="M330.19,417.82h-.31v-.38l.34,0,.06-.59h.42v.59h.55v.4h-.55v1c0,.25.1.38.3.38l.22-.05.09.37a1.38,1.38,0,0,1-.44.08c-.5,0-.68-.32-.68-.78Z"/><path class="cls-2" d="M331.7,416.47h.5v1.22a1,1,0,0,1,.68-.33c.46,0,.66.31.66.86v1.35H333v-1.29c0-.35-.1-.48-.34-.48a.69.69,0,0,0-.49.26v1.51h-.5Z"/><path class="cls-31" d="M272.77,523.46a2,2,0,1,0,2,2,2,2,0,0,0-2-2"/><path class="cls-31" d="M282.91,523.46a2,2,0,1,0,2,2,2,2,0,0,0-2-2"/><path class="cls-2" d="M294.19,525.48a2,2,0,1,1-2-2,2,2,0,0,1,2,2"/><path class="cls-31" d="M301.47,523.46a2,2,0,1,0,2,2,2,2,0,0,0-2-2"/><path class="cls-2" d="M279.6,484.16A18.13,18.13,0,1,1,297.74,466a18.13,18.13,0,0,1-18.14,18.13m0-53.17a35,35,0,1,0,35,35,35,35,0,0,0-35-35"/><path class="cls-2" d="M722.57,427.16l-.3-.46c-4.21,2.78-6.58,8.11-8,12.71a49,49,0,0,0-1.75,8.56v.08c.13,2.27.19,4.45.19,6.56,0,25.74-9.14,39.67-20,47.26s-23.44,8.83-30.38,8.83c-1.63,0-2.95-.07-3.86-.13l-1-.1-.35,0h0l-1.05,0c-5.3,0-8.28,2.21-9.82,4.44a10.13,10.13,0,0,0-1.76,4.48l-.05.6h70.08a9.78,9.78,0,0,0,5-1.21,8.37,8.37,0,0,0,3.68-4.68,14.93,14.93,0,0,0,.75-4.84,12.19,12.19,0,0,0-.1-1.75l-.54.07h.55V433c0-2.64-.07-4.22-.17-5.17a5.14,5.14,0,0,0-.18-1,1.36,1.36,0,0,0-.16-.35l-.19-.18a.65.65,0,0,0-.34-.1.58.58,0,0,0-.37.12.91.91,0,0,0-.24.28,1.86,1.86,0,0,0-.18.44l.53.14-.3-.46.3.46.54.14h0l0-.16v0L723,427l.14.16,0-.05L723,427l.14.16-.3-.34v.45a.43.43,0,0,0,.3-.11l-.3-.34v0l-.26.4.26.07v-.47l-.26.4.21-.34-.31.24.1.1.21-.34-.31.24.14-.1-.16.07,0,0,.14-.1-.16.07a1.72,1.72,0,0,1,.09.37,41,41,0,0,1,.23,5.57v74.57l0,.1c0,.22.07.77.07,1.5a12.54,12.54,0,0,1-1.39,6,6.71,6.71,0,0,1-2.49,2.53,8.68,8.68,0,0,1-4.47,1.06H645v.55l.55,0v0a9.24,9.24,0,0,1,1.69-4.11c1.42-1.91,4-3.78,8.79-3.79l1,0,0-.55-.07.54a42.49,42.49,0,0,0,5.4.28c7.07,0,19.9-1.23,31-9s20.43-22.17,20.42-48.16c0-2.13-.06-4.33-.19-6.62l-.55,0,.55.05s0-.23.07-.66A48.88,48.88,0,0,1,715.9,438c1.4-4,3.63-8.21,7-10.4l.17-.11.06-.21Z"/><path class="cls-2" d="M657.08,511c-11.26-.58-12.05,8.39-12.05,8.39h17v-8.12a46.18,46.18,0,0,1-4.9-.27"/><path class="cls-6" d="M267.89,442.6a3.47,3.47,0,0,0,1.75.5c1,0,1.59-.53,1.59-1.3s-.41-1.11-1.43-1.5c-1.23-.44-2-1.08-2-2.15a2.18,2.18,0,0,1,2.45-2,3.4,3.4,0,0,1,1.67.37l-.27.8a2.91,2.91,0,0,0-1.43-.36c-1,0-1.43.62-1.43,1.13,0,.71.46,1.06,1.51,1.46,1.28.5,1.93,1.11,1.93,2.22s-.87,2.18-2.65,2.18a3.89,3.89,0,0,1-1.93-.48Z"/><path class="cls-6" d="M274.69,436.8v1.56h1.41v.75h-1.41V442c0,.67.19,1.06.74,1.06A2.28,2.28,0,0,0,276,443l.05.74a2.43,2.43,0,0,1-.88.13,1.38,1.38,0,0,1-1.07-.41,2,2,0,0,1-.38-1.42v-3h-.84v-.75h.84v-1.31Z"/><path class="cls-6" d="M281.76,442.31c0,.56,0,1.05.05,1.48h-.88l-.06-.89h0a2,2,0,0,1-1.79,1c-.86,0-1.88-.47-1.88-2.38v-3.17h1v3c0,1,.31,1.73,1.21,1.73a1.44,1.44,0,0,0,1.3-.9,1.4,1.4,0,0,0,.09-.51v-3.33h1Z"/><path class="cls-6" d="M287.11,440.57a1.55,1.55,0,0,0-.05-.42,1.44,1.44,0,0,0-1.42-1.14c-1,0-1.63.9-1.63,2.1s.54,2,1.6,2a1.58,1.58,0,0,0,1.5-1.61Zm1-4.75v6.57c0,.48,0,1,.05,1.4h-.89l0-.94h0a2,2,0,0,1-1.86,1.06,2.48,2.48,0,0,1-2.32-2.76c0-1.81,1.11-2.92,2.43-2.92a1.85,1.85,0,0,1,1.65.83h0v-3.24Z"/><path class="cls-6" d="M290.1,438.36l1.19,3.21c.12.36.25.78.34,1.11h0c.1-.33.21-.74.34-1.13l1.08-3.19h1.05l-1.49,3.87c-.7,1.86-1.18,2.82-1.86,3.4a2.61,2.61,0,0,1-1.21.64l-.25-.83a2.51,2.51,0,0,0,.86-.48,3.07,3.07,0,0,0,.84-1.1.75.75,0,0,0,.07-.24,1.07,1.07,0,0,0-.06-.26l-2-5Z"/></g><polygon class="cls-2" points="529.04 534.6 529.04 534.05 429.19 534.05 429.19 412.26 528.49 412.26 528.49 534.6 529.04 534.6 529.04 534.05 529.04 534.6 529.59 534.6 529.59 411.16 428.1 411.16 428.1 535.15 529.59 535.15 529.59 534.6 529.04 534.6"/><g class="cls-4"><path class="cls-2" d="M476.92,415.82h1.49l1.39,3.78.5,1.46h.05l.51-1.46,1.35-3.78h1.5v7.68h-1.28V420c0-.72.11-1.74.18-2.44h-.05l-.62,1.75-1.33,3.48H480l-1.33-3.48-.61-1.75H478c.06.7.17,1.72.17,2.44v3.51h-1.25Z"/><path class="cls-2" d="M487.42,422.58a1.8,1.8,0,0,0,1.26-.63v-1.29c-1.56.2-2.08.61-2.08,1.18s.34.74.82.74m1.26-2.77c0-.61-.27-1.13-1.05-1.13a3.2,3.2,0,0,0-1.62.57l-.49-.91a4.44,4.44,0,0,1,2.36-.75c1.44,0,2.15.88,2.15,2.49v3.42h-1.1l-.11-.63h0a2.8,2.8,0,0,1-1.78.77,1.62,1.62,0,0,1-1.72-1.69c0-1.23,1-1.88,3.4-2.14"/><path class="cls-2" d="M491.67,417.73h1.12l.09,1h.05a2,2,0,0,1,1.63-1.17,1.5,1.5,0,0,1,.66.12l-.24,1.18a1.78,1.78,0,0,0-.59-.1c-.46,0-1,.32-1.36,1.19v3.52h-1.36Z"/><path class="cls-2" d="M498.45,417.59a2.4,2.4,0,0,1,1.69.67l-.65.86a1.4,1.4,0,0,0-1-.42c-.93,0-1.57.76-1.57,1.92s.63,1.92,1.53,1.92a1.9,1.9,0,0,0,1.19-.5l.56.86a2.89,2.89,0,0,1-1.89.74,2.74,2.74,0,0,1-2.78-3,2.85,2.85,0,0,1,2.89-3"/><path class="cls-2" d="M501.36,415.21h1.35v2.14l0,1.11a2.62,2.62,0,0,1,1.84-.87c1.23,0,1.77.84,1.77,2.29v3.62h-1.35v-3.44c0-.95-.27-1.3-.9-1.3a1.83,1.83,0,0,0-1.32.71v4h-1.35Z"/><path class="cls-2" d="M509.91,422.71c2.08-2,3.39-3.32,3.39-4.46a1.16,1.16,0,0,0-1.24-1.29,2.08,2.08,0,0,0-1.45.83l-.75-.75a3,3,0,0,1,2.38-1.15,2.19,2.19,0,0,1,2.36,2.29c0,1.33-1.23,2.69-2.71,4.25.38,0,.88-.08,1.24-.08H515v1.15h-5.05Z"/><path class="cls-2" d="M519.74,419.73c0-2.11-.51-2.78-1.24-2.78s-1.25.67-1.25,2.78.53,2.85,1.25,2.85,1.24-.74,1.24-2.85m-3.78,0c0-2.53,1-3.84,2.54-3.84s2.54,1.33,2.54,3.84-1,3.91-2.54,3.91-2.54-1.38-2.54-3.91"/><path class="cls-2" d="M521.92,416.72h-.31v-.38l.33,0,.06-.59h.42v.59H523v.4h-.55v1c0,.25.1.38.31.38l.22-.05.09.37a1.38,1.38,0,0,1-.44.08c-.5,0-.68-.32-.68-.78Z"/><path class="cls-2" d="M523.42,415.37h.51v.8l0,.42a1,1,0,0,1,.69-.33c.46,0,.66.31.66.86v1.35h-.5v-1.29c0-.35-.1-.48-.34-.48a.69.69,0,0,0-.49.26v1.51h-.51Z"/><path class="cls-31" d="M464.5,522.36a2,2,0,1,0,2,2,2,2,0,0,0-2-2"/><path class="cls-31" d="M474.63,522.36a2,2,0,1,0,2,2,2,2,0,0,0-2-2"/><path class="cls-2" d="M485.92,524.38a2,2,0,1,1-2-2,2,2,0,0,1,2,2"/><path class="cls-31" d="M493.19,522.36a2,2,0,1,0,2,2,2,2,0,0,0-2-2"/><path class="cls-6" d="M455.67,507.57C444.41,507,443.62,516,443.62,516h16.95v-8.12a44.66,44.66,0,0,1-4.9-.26"/><path class="cls-2" d="M489.51,458.62a18.33,18.33,0,0,1,.56,4.48A18.14,18.14,0,1,1,471,445V428.08A35,35,0,1,0,505.6,453.4Z"/><path class="cls-2" d="M488.74,456.29l16.11-5.23a35.05,35.05,0,0,0-31.41-23V445a18.13,18.13,0,0,1,15.3,11.26"/><path class="cls-2" d="M521.31,425.28l-.3-.46c-4.21,2.78-6.58,8.1-8,12.7a50.19,50.19,0,0,0-1.75,8.56v.08c.13,2.27.19,4.45.19,6.56,0,25.74-9.14,39.67-20,47.27s-23.43,8.82-30.38,8.82c-1.63,0-2.95-.07-3.86-.13l-1-.1-.35,0h0l-1.05,0c-5.29,0-8.27,2.21-9.82,4.45a10.16,10.16,0,0,0-1.76,4.47l-.05.6h70.08a9.78,9.78,0,0,0,5-1.21,8.31,8.31,0,0,0,3.68-4.68,14.92,14.92,0,0,0,.75-4.83,12.27,12.27,0,0,0-.1-1.76l-.54.07h.55V431.13c0-2.64-.07-4.22-.17-5.17a5.14,5.14,0,0,0-.18-1,1.36,1.36,0,0,0-.16-.35l-.19-.18a.65.65,0,0,0-.34-.1.67.67,0,0,0-.37.12.91.91,0,0,0-.24.28,1.85,1.85,0,0,0-.18.45l.53.14-.3-.46.3.46.54.14h0l0-.16,0,0-.19-.11.14.16,0,0-.19-.11.14.16-.3-.33v.44a.43.43,0,0,0,.3-.11l-.3-.33v0l-.26.4.26.07v-.47l-.26.4.22-.33-.32.24.1.09.22-.33-.32.24.14-.11-.16.08,0,0,.14-.11-.16.08a1.36,1.36,0,0,1,.09.36,41,41,0,0,1,.23,5.57V505.7l0,.1c0,.22.07.77.07,1.51a12.53,12.53,0,0,1-1.39,6,6.71,6.71,0,0,1-2.49,2.53,8.68,8.68,0,0,1-4.47,1.06H443.77v.55l.55,0v0A9.24,9.24,0,0,1,446,513.4c1.43-1.91,3.95-3.78,8.79-3.79l1,0,0-.55-.07.54a42.68,42.68,0,0,0,5.4.28c7.07,0,19.9-1.23,31-9s20.43-22.18,20.42-48.17c0-2.13-.06-4.33-.19-6.62l-.55,0,.55.05s0-.23.07-.66a48.88,48.88,0,0,1,2.18-9.39c1.4-4,3.63-8.21,7-10.39l.17-.12.06-.2Z"/><path class="cls-2" d="M483.45,505.29v-.73A57.34,57.34,0,0,1,456,508.61c-11.4-.61-12.21,8.87-12.21,8.87h39.68V505.29Z"/><path class="cls-2" d="M522.74,505.35v-21.8H506.52C496.09,505,475,508.69,463.86,509.06v8.15h50.07c10.43,0,8.81-11.86,8.81-11.86"/><path class="cls-6" d="M440.79,470.17a1.75,1.75,0,0,0,.87.24c.49,0,.78-.26.78-.64s-.2-.55-.7-.74-1-.54-1-1.07a1.09,1.09,0,0,1,1.22-1,1.66,1.66,0,0,1,.83.19l-.13.39a1.51,1.51,0,0,0-.72-.18c-.51,0-.71.31-.71.56s.23.53.75.73,1,.55,1,1.1-.43,1.08-1.32,1.08a1.85,1.85,0,0,1-.95-.24Z"/><path class="cls-6" d="M444.16,467.29v.77h.7v.37h-.7v1.46c0,.33.09.52.37.52a.94.94,0,0,0,.28,0l0,.37a1.41,1.41,0,0,1-.43.06.69.69,0,0,1-.53-.2,1,1,0,0,1-.19-.7v-1.48h-.42v-.37h.42v-.64Z"/><path class="cls-6" d="M447.67,470c0,.28,0,.53,0,.74h-.43l0-.44h0a1,1,0,0,1-.89.5c-.43,0-.93-.24-.93-1.18v-1.58h.49v1.49c0,.52.15.86.6.86a.71.71,0,0,0,.64-.44l.05-.25v-1.66h.49Z"/><path class="cls-6" d="M450.32,469.16l0-.21a.72.72,0,0,0-.71-.57c-.51,0-.81.45-.81,1.05s.27,1,.8,1a.73.73,0,0,0,.72-.58l0-.21Zm.49-2.36v3.26c0,.24,0,.51,0,.7h-.44l0-.47h0a1,1,0,0,1-.92.53,1.23,1.23,0,0,1-1.15-1.37A1.29,1.29,0,0,1,449.5,468a.89.89,0,0,1,.81.41h0V466.8Z"/><path class="cls-6" d="M451.8,468.06l.59,1.59c.06.18.13.39.18.56h0c.05-.17.1-.37.17-.57l.53-1.58h.52l-.73,1.92a4,4,0,0,1-.93,1.69,1.34,1.34,0,0,1-.6.32l-.12-.41a1.46,1.46,0,0,0,.43-.24,1.57,1.57,0,0,0,.41-.55l0-.12,0-.12-1-2.49Z"/></g><polygon class="cls-2" points="731.66 535.7 731.66 535.15 631.81 535.15 631.81 413.36 731.11 413.36 731.11 535.7 731.66 535.7 731.66 535.15 731.66 535.7 732.21 535.7 732.21 412.26 630.71 412.26 630.71 536.25 732.21 536.25 732.21 535.7 731.66 535.7"/><g class="cls-4"><path class="cls-2" d="M679.53,416.92H681l1.38,3.78.51,1.46h0l.51-1.46,1.35-3.78h1.5v7.68H685v-3.51c0-.72.11-1.74.18-2.44h-.05l-.62,1.75-1.33,3.48h-.62l-1.33-3.48-.61-1.75h0c0,.7.16,1.72.16,2.44v3.51h-1.25Z"/><path class="cls-2" d="M690,423.68a1.8,1.8,0,0,0,1.26-.63v-1.29c-1.56.2-2.08.61-2.08,1.18s.34.74.82.74m1.26-2.77c0-.61-.27-1.12-1-1.12a3.19,3.19,0,0,0-1.63.56l-.49-.91a4.58,4.58,0,0,1,2.36-.75c1.45,0,2.15.88,2.15,2.49v3.42h-1.1l-.11-.63h0a2.85,2.85,0,0,1-1.79.77,1.62,1.62,0,0,1-1.71-1.69c0-1.23,1-1.88,3.39-2.14"/><path class="cls-2" d="M694.29,418.83h1.11l.1,1h0a2,2,0,0,1,1.64-1.17,1.45,1.45,0,0,1,.65.12L697.6,420a1.89,1.89,0,0,0-.6-.1c-.46,0-1,.32-1.36,1.19v3.52h-1.35Z"/><path class="cls-2" d="M701.06,418.69a2.39,2.39,0,0,1,1.69.67l-.64.86a1.44,1.44,0,0,0-1-.42c-.93,0-1.57.76-1.57,1.92s.63,1.92,1.54,1.92a1.87,1.87,0,0,0,1.18-.5l.57.86a2.89,2.89,0,0,1-1.89.74,2.74,2.74,0,0,1-2.79-3,2.85,2.85,0,0,1,2.89-3"/><path class="cls-2" d="M704,416.31h1.35v2.14l-.05,1.11a2.64,2.64,0,0,1,1.84-.87c1.24,0,1.78.84,1.78,2.29v3.62h-1.35v-3.44c0-1-.27-1.3-.91-1.3a1.81,1.81,0,0,0-1.31.71v4H704Z"/><path class="cls-2" d="M712.53,423.81c2.07-2,3.38-3.32,3.38-4.46a1.16,1.16,0,0,0-1.24-1.29,2.08,2.08,0,0,0-1.45.83l-.75-.75a3,3,0,0,1,2.38-1.15,2.19,2.19,0,0,1,2.36,2.29c0,1.33-1.23,2.69-2.71,4.25.39,0,.88-.08,1.24-.08h1.84v1.15h-5.05Z"/><path class="cls-2" d="M722.36,420.83c0-2.11-.52-2.78-1.25-2.78s-1.24.67-1.24,2.78.53,2.85,1.24,2.85,1.25-.74,1.25-2.85m-3.79,0c0-2.53,1-3.84,2.54-3.84s2.54,1.33,2.54,3.84-1,3.91-2.54,3.91-2.54-1.38-2.54-3.91"/><path class="cls-2" d="M724.53,417.82h-.31v-.38l.33,0,.06-.59H725v.59h.54v.4H725v1c0,.25.09.38.3.38l.22-.05.09.37a1.38,1.38,0,0,1-.44.08c-.5,0-.68-.32-.68-.78Z"/><path class="cls-2" d="M726,416.47h.5v.8l0,.42a1,1,0,0,1,.69-.33c.46,0,.66.31.66.86v1.35h-.5v-1.29c0-.35-.1-.48-.34-.48a.69.69,0,0,0-.49.26v1.51H726Z"/><path class="cls-31" d="M667.11,523.46a2,2,0,1,0,2,2,2,2,0,0,0-2-2"/><path class="cls-31" d="M677.25,523.46a2,2,0,1,0,2,2,2,2,0,0,0-2-2"/><path class="cls-2" d="M688.53,525.48a2,2,0,1,1-2-2,2,2,0,0,1,2,2"/><path class="cls-31" d="M695.81,523.46a2,2,0,1,0,2,2,2,2,0,0,0-2-2"/><path class="cls-2" d="M690.72,466.08a18,18,0,0,1-1.85,8l14.66,8.46a35,35,0,0,0,0-32.89l-14.66,8.46a18,18,0,0,1,1.85,8"/><path class="cls-2" d="M672.59,484.21A18.13,18.13,0,0,1,671.36,448V431.07a35,35,0,1,0,30.94,53.58l-14.65-8.47a18.11,18.11,0,0,1-15.06,8"/><path class="cls-2" d="M687.65,456l14.65-8.46a35,35,0,0,0-28.48-16.44V448a18.13,18.13,0,0,1,13.83,8"/><path class="cls-6" d="M640.28,472.4a1.65,1.65,0,0,0,.87.25c.49,0,.79-.26.79-.64s-.21-.55-.71-.75-1-.53-1-1.06a1.07,1.07,0,0,1,1.21-1,1.76,1.76,0,0,1,.83.18l-.13.4a1.51,1.51,0,0,0-.72-.18c-.51,0-.7.3-.7.56s.22.52.74.73,1,.55,1,1.1-.43,1.08-1.31,1.08a2,2,0,0,1-1-.24Z"/><path class="cls-6" d="M643.65,469.52v.78h.7v.37h-.7v1.45c0,.34.1.53.37.53a.88.88,0,0,0,.28,0l0,.37a1.22,1.22,0,0,1-.44.07.66.66,0,0,1-.53-.21,1,1,0,0,1-.19-.7v-1.47h-.42v-.37h.42v-.65Z"/><path class="cls-6" d="M647.16,472.26c0,.28,0,.52,0,.73h-.43l0-.44h0a1,1,0,0,1-.89.51c-.43,0-.93-.24-.93-1.19V470.3h.49v1.49c0,.51.15.86.6.86a.71.71,0,0,0,.65-.45l0-.25V470.3h.49Z"/><path class="cls-6" d="M649.81,471.39l0-.2a.72.72,0,0,0-.71-.57c-.51,0-.81.45-.81,1s.27,1,.8,1a.74.74,0,0,0,.72-.59l0-.21Zm.49-2.35v3.26c0,.24,0,.51,0,.69h-.43l0-.47h0a1,1,0,0,1-.92.54,1.24,1.24,0,0,1-1.15-1.38,1.28,1.28,0,0,1,1.21-1.44.89.89,0,0,1,.81.41h0V469Z"/><path class="cls-6" d="M651.29,470.3l.59,1.59c.07.18.13.39.18.55h0c0-.16.1-.37.17-.56l.53-1.58h.52l-.73,1.92a4.07,4.07,0,0,1-.93,1.69,1.3,1.3,0,0,1-.6.31l-.12-.41a1.26,1.26,0,0,0,.43-.24,1.44,1.44,0,0,0,.41-.54l0-.12,0-.13-1-2.48Z"/><path class="cls-2" d="M329.83,426.75l-.3-.46c-4.21,2.78-6.59,8.1-8,12.71a48.42,48.42,0,0,0-1.74,8.55v.08q.18,3.4.18,6.56c0,25.74-9.13,39.67-19.95,47.27s-23.43,8.82-30.38,8.82c-1.63,0-3-.06-3.85-.13l-1-.09-.36,0h0l-1.05,0c-5.3,0-8.28,2.21-9.83,4.45a10.21,10.21,0,0,0-1.75,4.47l-.05.6h70.08a9.91,9.91,0,0,0,5-1.2,8.44,8.44,0,0,0,3.68-4.69,15.11,15.11,0,0,0,.74-4.83,15.92,15.92,0,0,0-.09-1.76l-.55.08h.55V432.6c0-2.64-.06-4.22-.16-5.17a6.15,6.15,0,0,0-.18-1,1.13,1.13,0,0,0-.17-.35l-.19-.18a.72.72,0,0,0-.34-.1.7.7,0,0,0-.37.12.91.91,0,0,0-.24.28,2.33,2.33,0,0,0-.17.45l.53.14-.3-.46.3.46.53.14h0l.06-.16v0l-.18-.1.14.15,0-.05-.18-.1.14.15-.31-.33v.44a.46.46,0,0,0,.31-.11l-.31-.33v0l-.25.4.25.07v-.47l-.25.4.21-.33-.31.24.1.09.21-.33-.31.24.13-.11-.15.08,0,0,.13-.11-.15.08a2.11,2.11,0,0,1,.09.36,41.87,41.87,0,0,1,.22,5.57v74.68c0,.21.07.76.07,1.5a12.36,12.36,0,0,1-1.39,6,6.82,6.82,0,0,1-2.48,2.53,8.81,8.81,0,0,1-4.47,1H252.29V519l.55,0h0a9.09,9.09,0,0,1,1.69-4.12c1.42-1.91,4-3.77,8.79-3.79l1,0,0-.55-.07.55a46.51,46.51,0,0,0,5.39.27c7.07,0,19.9-1.23,31-9s20.42-22.18,20.41-48.17c0-2.13-.06-4.33-.19-6.62l-.55,0,.55,0s0-.23.08-.66a48.88,48.88,0,0,1,2.18-9.39c1.4-4,3.63-8.2,7-10.39l.18-.12.05-.2Z"/><path class="cls-2" d="M320.25,457.82c-2,60.18-56.14,53-56.14,53-11.27-.58-12.06,8.39-12.06,8.39h69.48c10.43,0,8.81-11.86,8.81-11.86V457.82Z"/></g><polygon class="cls-6" points="678.12 440.37 680.29 440.37 680.29 440.81 678.64 440.81 678.64 442.15 680.17 442.15 680.17 442.58 678.64 442.58 678.64 444.41 678.12 444.41 678.12 440.37"/><g class="cls-4"><path class="cls-6" d="M680.86,441.51h.53v2.9h-.53Zm.59-.81a.32.32,0,0,1-.34.32.31.31,0,0,1-.31-.32.33.33,0,1,1,.65,0"/><path class="cls-6" d="M682.9,440.68v.83h.75v.4h-.75v1.57c0,.35.1.56.39.56a1.11,1.11,0,0,0,.31,0l0,.4a1.33,1.33,0,0,1-.47.07.72.72,0,0,1-.56-.22,1.1,1.1,0,0,1-.21-.76v-1.58h-.45v-.4h.45v-.69Z"/><path class="cls-6" d="M684.24,442.3c0-.3,0-.55,0-.79h.47l0,.48h0a1.07,1.07,0,0,1,1-.54c.4,0,1,.23,1,1.23v1.73h-.53v-1.67c0-.47-.17-.86-.67-.86a.75.75,0,0,0-.7.54l0,.25v1.74h-.53Z"/><path class="cls-6" d="M689.41,442.68a.76.76,0,0,0-.74-.86.87.87,0,0,0-.8.86Zm-1.55.38a.92.92,0,0,0,1,1,1.85,1.85,0,0,0,.81-.15l.09.38a2.47,2.47,0,0,1-1,.18,1.34,1.34,0,0,1-1.42-1.46,1.4,1.4,0,0,1,1.36-1.56,1.22,1.22,0,0,1,1.19,1.36c0,.11,0,.19,0,.25Z"/><path class="cls-6" d="M690.49,443.87a1.45,1.45,0,0,0,.7.21c.38,0,.56-.19.56-.43s-.15-.39-.54-.53-.76-.48-.76-.82a.89.89,0,0,1,1-.85,1.4,1.4,0,0,1,.71.18L692,442a1.18,1.18,0,0,0-.59-.17c-.32,0-.49.18-.49.4s.17.34.55.49.76.44.76.87-.39.87-1.08.87a1.68,1.68,0,0,1-.82-.2Z"/><path class="cls-6" d="M692.87,443.87a1.37,1.37,0,0,0,.69.21c.38,0,.56-.19.56-.43s-.15-.39-.54-.53-.76-.48-.76-.82a.89.89,0,0,1,1-.85,1.4,1.4,0,0,1,.71.18l-.13.38a1.15,1.15,0,0,0-.59-.17c-.32,0-.49.18-.49.4s.17.34.55.49.76.44.76.87-.39.87-1.08.87a1.68,1.68,0,0,1-.82-.2Z"/></g><polygon class="cls-6" points="692.74 464.31 692.74 465.88 694.55 465.88 694.55 464.31 695.04 464.31 695.04 468.05 694.55 468.05 694.55 466.3 692.74 466.3 692.74 468.05 692.26 468.05 692.26 464.31 692.74 464.31"/><g class="cls-4"><path class="cls-6" d="M696.16,466.71c0,.59.34,1,.81,1s.82-.43.82-1c0-.45-.23-1-.8-1s-.83.53-.83,1m2.13,0a1.31,1.31,0,0,1-1.34,1.42,1.27,1.27,0,0,1-1.28-1.38,1.3,1.3,0,0,1,1.33-1.42,1.27,1.27,0,0,1,1.29,1.38"/><path class="cls-6" d="M698.9,466.09c0-.27,0-.5,0-.73h.43l0,.44h0a.92.92,0,0,1,.84-.5.81.81,0,0,1,.76.54h0a1.16,1.16,0,0,1,.3-.35.93.93,0,0,1,.59-.19c.36,0,.88.24.88,1.17v1.58h-.47v-1.52c0-.52-.19-.83-.58-.83a.63.63,0,0,0-.58.45l0,.24v1.66h-.48v-1.61c0-.43-.19-.74-.56-.74a.68.68,0,0,0-.6.49l0,.24v1.62h-.48Z"/><path class="cls-6" d="M705.23,466.45a.7.7,0,0,0-.68-.8.81.81,0,0,0-.74.8Zm-1.43.35a.86.86,0,0,0,.92.93,1.7,1.7,0,0,0,.74-.14l.09.35a2.18,2.18,0,0,1-.9.17,1.25,1.25,0,0,1-1.32-1.36,1.3,1.3,0,0,1,1.26-1.44,1.13,1.13,0,0,1,1.11,1.26,1.21,1.21,0,0,1,0,.23Z"/></g><polygon class="cls-6" points="479.64 440.02 481.81 440.02 481.81 440.46 480.16 440.46 480.16 441.8 481.69 441.8 481.69 442.23 480.16 442.23 480.16 444.05 479.64 444.05 479.64 440.02"/><g class="cls-4"><path class="cls-6" d="M482.38,441.16h.53v2.89h-.53Zm.59-.82a.33.33,0,1,1-.66,0,.33.33,0,0,1,.33-.33.32.32,0,0,1,.33.33"/><path class="cls-6" d="M484.42,440.32v.84h.75v.4h-.75v1.56c0,.36.1.56.39.56a1.89,1.89,0,0,0,.31,0l0,.39a1.33,1.33,0,0,1-.47.07.72.72,0,0,1-.57-.22,1.1,1.1,0,0,1-.2-.75v-1.58h-.45v-.4h.45v-.7Z"/><path class="cls-6" d="M485.76,441.94c0-.3,0-.54,0-.78h.47l0,.48h0a1.06,1.06,0,0,1,1-.55c.4,0,1,.24,1,1.23v1.73h-.53v-1.67c0-.46-.17-.85-.67-.85a.76.76,0,0,0-.71.54l0,.24v1.74h-.53Z"/><path class="cls-6" d="M490.92,442.32a.74.74,0,0,0-.73-.85.86.86,0,0,0-.8.85Zm-1.54.38a.93.93,0,0,0,1,1,2,2,0,0,0,.81-.15l.08.37a2.21,2.21,0,0,1-1,.18,1.34,1.34,0,0,1-1.42-1.46,1.4,1.4,0,0,1,1.35-1.56,1.23,1.23,0,0,1,1.2,1.37,1.34,1.34,0,0,1,0,.24Z"/><path class="cls-6" d="M492,443.52a1.41,1.41,0,0,0,.7.21c.38,0,.56-.2.56-.44s-.15-.39-.54-.53-.76-.47-.76-.82a.89.89,0,0,1,1-.85,1.51,1.51,0,0,1,.71.18l-.13.38a1.2,1.2,0,0,0-.6-.16c-.31,0-.48.18-.48.39s.17.35.55.49.76.45.76.88-.4.86-1.08.86a1.68,1.68,0,0,1-.82-.19Z"/><path class="cls-6" d="M494.39,443.52a1.37,1.37,0,0,0,.69.21c.38,0,.56-.2.56-.44s-.15-.39-.54-.53-.76-.47-.76-.82a.89.89,0,0,1,1-.85,1.51,1.51,0,0,1,.71.18l-.13.38a1.2,1.2,0,0,0-.6-.16c-.31,0-.48.18-.48.39s.17.35.55.49.76.45.76.88-.39.86-1.08.86a1.68,1.68,0,0,1-.82-.19Z"/><path class="cls-5" d="M310.62,638.94V573a1.93,1.93,0,0,0-1.94-1.93H266l-.21,0a1.91,1.91,0,0,0-1.11.54l-3.87,3.88a1.92,1.92,0,0,0-.57,1.36v65.85a1.94,1.94,0,0,0,1.93,1.94h42.61a1.94,1.94,0,0,0,1.94-1.94V576.92a1.94,1.94,0,0,0-1.94-1.94H264.14l1.94-1.94h40.81a1.94,1.94,0,0,1,1.93,1.8h0v66a1.93,1.93,0,0,0,1.8-1.93"/><path class="cls-5" d="M474.83,597.27c-.27,1.75-.46,3.09-.68,4.43a1.31,1.31,0,0,0,1,1.65c2.51,1,5,2.13,7.44,3.35a3.47,3.47,0,0,1,1.7,1.86c1.05,3.67,1.94,7.39,2.84,11.1a2.21,2.21,0,0,1-1.47,3,2.41,2.41,0,0,1-3.2-1.51c-1.06-2.83-2.09-5.66-3-8.52a2.47,2.47,0,0,0-1.81-1.75l-6.57-2c-1.55-.46-2.07-.12-2.35,1.51-.23,1.34-.45,2.68-.69,4a5.32,5.32,0,0,1-1.68,3.18c-2.83,2.58-5.55,5.28-8.35,7.89-1.61,1.5-3.43,1.23-4.34-.54-.6-1.18-.05-2.07.7-2.88,2.08-2.24,4.24-4.42,6.25-6.72a4.63,4.63,0,0,0,1.06-2.45c.37-3.89.52-7.81.9-11.7.29-2.83.82-5.63,1.26-8.45.18-1.2,0-1.36-1.18-1.11-2.56.53-2.53.53-2.71,3.14-.14,1.86-.33,3.73-.55,5.58a2.44,2.44,0,0,1-2.7,2.3,2.35,2.35,0,0,1-2.28-2.55c.13-3.4.32-6.8.55-10.2a2.76,2.76,0,0,1,2.26-2.47c3.65-1.11,7.31-2.22,11-3.29a6.37,6.37,0,0,1,7.53,3c1.14,2,2.22,4,3.28,6a2.05,2.05,0,0,0,2.1,1.28c2.42-.07,4.85,0,7.28,0,1.72,0,2.71.91,2.74,2.35a2.59,2.59,0,0,1-2.67,2.66c-3.06.22-6.12.38-9.17.63-1.56.13-2.76-.25-3.46-1.76a6.44,6.44,0,0,0-.92-1.07"/><path class="cls-5" d="M480.87,636.3c-10,0-19.92,0-29.88,0a4,4,0,0,1-1.68-.37c-.75-.37-1.48-1.07-1.07-1.9a3.1,3.1,0,0,1,1.84-1.64c4.16-.65,8.35-1.11,12.52-1.65,4.64-.59,9.28-1.21,13.91-1.81l13.67-1.75,13.91-1.81c1.48-.19,3-.41,4.43-.58.73-.09,1-.4,1-1.16,0-5.66,0-11.32,0-17a6.24,6.24,0,0,0-4-5.48,1.23,1.23,0,0,0-1.7.62c-.8,1.45-1.63,2.89-2.49,4.3a2,2,0,0,1-2.8.92,2,2,0,0,1-.56-2.81q3.67-6.42,7.42-12.8a1.89,1.89,0,0,1,2.63-.8,2,2,0,0,1,.72,2.68c-.5,1-1.07,1.94-1.66,2.87-.47.75-.51,1.24.44,1.67,3.28,1.47,5,4.19,5.88,7.56a5.9,5.9,0,0,1,.1,1.52q0,13.41,0,26.82a2.32,2.32,0,0,1-2.64,2.6h-30"/><path class="cls-5" d="M468.57,576.49a5.62,5.62,0,0,1,5.61-5.54,5.76,5.76,0,0,1,5.47,5.63,5.56,5.56,0,0,1-5.61,5.55,5.47,5.47,0,0,1-5.47-5.64"/><path class="cls-5" d="M721.74,606.82l-38.85-40.17a2.78,2.78,0,0,0-4,0l-38.85,40.17c-1.09,1.13-.7,2.06.87,2.06h11.43V646h21.39V623.17H688L688,646H709.5V608.88h11.37c1.56,0,2-.93.87-2.06"/><path class="cls-5" d="M274,691.35a12,12,0,1,0-21.3,7.65L262,712.31l9.41-13.51a10.15,10.15,0,0,0,.92-1.33l.1-.13h0a11.86,11.86,0,0,0,1.62-6m-6.25,0a6,6,0,1,1-6-6,6,6,0,0,1,6,6"/><path class="cls-5" d="M477.7,695.84a12,12,0,1,0-21.3,7.65l9.27,13.31,9.41-13.5A12.19,12.19,0,0,0,476,702l.09-.14h0a11.92,11.92,0,0,0,1.61-6m-6.24,0a6,6,0,1,1-6-6,6,6,0,0,1,6,6"/><path class="cls-5" d="M680.38,692.74a12,12,0,0,0-24.07,0,11.85,11.85,0,0,0,2.78,7.65l9.27,13.32,9.4-13.51a12.19,12.19,0,0,0,.93-1.33l.09-.14h0a11.92,11.92,0,0,0,1.61-6m-6.24,0a6,6,0,1,1-6-6,6,6,0,0,1,6,6"/></g><text class="cls-9" transform="translate(280.17 712.45)"><tspan class="cls-10">C</tspan><tspan class="cls-11" x="9.82" y="0">a</tspan><tspan class="cls-10" x="17.19" y="0">mp</tspan><tspan class="cls-12" x="36.57" y="0">u</tspan><tspan x="44.27" y="0">s</tspan></text><text class="cls-32" transform="translate(249.92 667.03)"><tspan class="cls-23">9</tspan><tspan class="cls-16" x="6.47" y="0">:</tspan><tspan class="cls-23" x="9.97" y="0">00</tspan><tspan class="cls-16" x="22.9" y="0">A</tspan><tspan class="cls-15" x="30.57" y="0">M-</tspan><tspan class="cls-33" x="44.07" y="0">1</tspan><tspan class="cls-23" x="49.77" y="0">1</tspan><tspan class="cls-16" x="56.24" y="0">:A</tspan><tspan x="67.4" y="0">M</tspan></text><text class="cls-32" transform="translate(438.95 665.64)"><tspan class="cls-23">2</tspan><tspan class="cls-16" x="6.47" y="0">:</tspan><tspan class="cls-23" x="9.97" y="0">00</tspan><tspan class="cls-16" x="22.9" y="0">P</tspan><tspan class="cls-15" x="30.57" y="0">M-3</tspan><tspan class="cls-16" x="50.54" y="0">:P</tspan><tspan x="61.71" y="0">M</tspan></text><text class="cls-32" transform="translate(651.65 665.64)"><tspan class="cls-23">3</tspan><tspan class="cls-16" x="6.47" y="0">:</tspan><tspan class="cls-23" x="9.97" y="0">00</tspan><tspan class="cls-16" x="22.9" y="0">P</tspan><tspan class="cls-15" x="30.57" y="0">M-4</tspan><tspan class="cls-16" x="50.54" y="0">:P</tspan><tspan x="61.71" y="0">M</tspan></text><text class="cls-9" transform="translate(486.53 712.45)"><tspan class="cls-13">G</tspan><tspan class="cls-11" x="10.09" y="0">y</tspan><tspan x="17.25" y="0">m</tspan></text><text class="cls-9" transform="translate(690.99 712.45)"><tspan class="cls-10">H</tspan><tspan class="cls-11" x="9.99" y="0">o</tspan><tspan class="cls-10" x="17.75" y="0">m</tspan><tspan x="29.14" y="0">e</tspan></text><text class="cls-34" transform="translate(1126.63 451.42)">L<tspan class="cls-11" x="7.47" y="0">oca</tspan><tspan class="cls-10" x="29.96" y="0">ti</tspan><tspan class="cls-11" x="38.02" y="0">o</tspan><tspan class="cls-35" x="45.78" y="0">n</tspan></text><text class="cls-36" transform="translate(1360.39 451.42)">A<tspan class="cls-11" x="8.96" y="0">c</tspan><tspan class="cls-10" x="16.32" y="0">ti</tspan><tspan class="cls-11" x="24.38" y="0">v</tspan><tspan class="cls-10" x="31.5" y="0">it</tspan><tspan class="cls-37" x="39.56" y="0">y</tspan></text><g class="cls-4"><path class="cls-3" d="M64.24,379.25C59,382.69,58,392.84,58,392.84c2.61,46.24-36.72,41-36.72,41-7.38-.38-7.9,5.46-7.9,5.46H59c6.84,0,5.78-7.72,5.78-7.72V383.06C64.73,377.42,64.24,379.25,64.24,379.25Zm98.17.28c-5.27,3.44-6.21,13.59-6.21,13.59,2.6,46.25-36.72,41-36.72,41-7.38-.38-7.9,5.47-7.9,5.47h45.54c6.84,0,5.78-7.73,5.78-7.73V383.34C162.9,377.7,162.41,379.53,162.41,379.53Z"/><path class="cls-2" d="M57.82,399.4c-1.31,39.61-37,34.85-37,34.85-7.41-.37-7.93,5.53-7.93,5.53H58.66c6.86,0,5.8-7.81,5.8-7.81V399.4Z"/></g><polyline class="cls-2" points="63.38 379.51 59.64 385.3 58.1 391.12 57.82 399.4 64.46 399.4 64.12 378.94"/><line class="cls-38" x1="112.84" y1="409.15" x2="79.94" y2="409.15"/><polygon class="cls-2" points="116.93 409.15 111.17 406.79 112.53 409.15 111.17 411.5 116.93 409.15"/><text class="cls-9" transform="translate(12.68 273.19)"><tspan class="cls-39">W</tspan><tspan class="cls-40" x="12.74" y="0">he</tspan><tspan class="cls-41" x="27.56" y="0">n</tspan><tspan class="cls-42" x="35" y="0"> </tspan><tspan class="cls-43" x="38.12" y="0">y</tspan><tspan class="cls-41" x="44.81" y="0">ou</tspan><tspan class="cls-40" x="59.74" y="0"> </tspan><tspan class="cls-39" x="62.87" y="0">f</tspan><tspan class="cls-42" x="67.26" y="0">irst l</tspan><tspan class="cls-41" x="92.13" y="0">aunc</tspan><tspan class="cls-40" x="121.21" y="0">h the</tspan><tspan x="151.15" y="0"> </tspan></text><text class="cls-9" transform="translate(12.68 289.22)"><tspan class="cls-41">a</tspan><tspan class="cls-40" x="7.11" y="0">p</tspan><tspan class="cls-35" x="14.83" y="0">p</tspan><tspan class="cls-44" x="22.17" y="0">,</tspan><tspan class="cls-40" x="25.32" y="0" xml:space="preserve"> it will s</tspan><tspan class="cls-45" x="68.11" y="0">t</tspan><tspan class="cls-41" x="72.47" y="0">a</tspan><tspan class="cls-40" x="79.58" y="0">rt </tspan><tspan class="cls-41" x="91.62" y="0">co</tspan><tspan class="cls-40" x="106.2" y="0">lle</tspan><tspan class="cls-41" x="119.66" y="0">c</tspan><tspan class="cls-42" x="126.75" y="0">t </tspan><tspan class="cls-41" x="134.29" y="0">da</tspan><tspan class="cls-45" x="149.19" y="0">t</tspan><tspan class="cls-41" x="153.55" y="0">a</tspan><tspan x="160.66" y="0"> </tspan></text><text class="cls-9" transform="translate(12.68 305.25)"><tspan class="cls-46">f</tspan><tspan class="cls-41" x="4.06" y="0">o</tspan><tspan class="cls-40" x="11.55" y="0">r tw</tspan><tspan class="cls-41" x="33.53" y="0">o</tspan><tspan class="cls-40" x="41.02" y="0" xml:space="preserve"> wee</tspan><tspan class="cls-47" x="68.55" y="0">k</tspan><tspan class="cls-40" x="75.17" y="0">s</tspan><tspan class="cls-44" x="81.77" y="0">.</tspan><tspan class="cls-40" x="84.92" y="0"> </tspan><tspan class="cls-41" x="88.05" y="0">In</tspan><tspan class="cls-40" x="98.89" y="0"> </tspan><tspan class="cls-41" x="102.02" y="0">o</tspan><tspan class="cls-46" x="109.51" y="0">r</tspan><tspan class="cls-41" x="113.69" y="0">d</tspan><tspan class="cls-40" x="121.49" y="0">er </tspan><tspan class="cls-48" x="136.34" y="0">t</tspan><tspan class="cls-41" x="140.57" y="0">o</tspan><tspan x="148.06" y="0"> </tspan></text><text class="cls-9" transform="translate(12.68 321.28)"><tspan class="cls-42">get </tspan><tspan class="cls-48" x="22.49" y="0">y</tspan><tspan class="cls-41" x="29.18" y="0">ou</tspan><tspan class="cls-40" x="44.11" y="0">r </tspan><tspan class="cls-41" x="51.74" y="0">ac</tspan><tspan class="cls-40" x="65.94" y="0">ti</tspan><tspan class="cls-39" x="73.46" y="0">v</tspan><tspan class="cls-40" x="80.32" y="0">it</tspan><tspan class="cls-39" x="87.84" y="0">y</tspan><tspan class="cls-40" x="94.73" y="0" xml:space="preserve"> l</tspan><tspan class="cls-41" x="100.97" y="0">oca</tspan><tspan class="cls-42" x="122.66" y="0">ti</tspan><tspan class="cls-39" x="130.19" y="0">on</tspan><tspan x="145.12" y="0"> </tspan></text><text class="cls-9" transform="translate(12.68 337.3)"><tspan class="cls-41">and</tspan><tspan class="cls-40" x="22.34" y="0"> </tspan><tspan class="cls-41" x="25.47" y="0">con</tspan><tspan class="cls-48" x="47.49" y="0">t</tspan><tspan class="cls-40" x="51.71" y="0">e</tspan><tspan class="cls-41" x="58.94" y="0">n</tspan><tspan class="cls-42" x="66.38" y="0">t</tspan><tspan x="70.79" y="0">.</tspan></text><text class="cls-9" transform="translate(821.97 142.04)"><tspan class="cls-40">The t</tspan><tspan class="cls-49" x="30.5" y="0">r</tspan><tspan class="cls-41" x="34.89" y="0">an</tspan><tspan class="cls-40" x="49.43" y="0">sp</tspan><tspan class="cls-41" x="63.76" y="0">o</tspan><tspan class="cls-40" x="71.25" y="0">r</tspan><tspan class="cls-45" x="75.75" y="0">t</tspan><tspan class="cls-41" x="80.11" y="0">a</tspan><tspan class="cls-40" x="87.22" y="0">ti</tspan><tspan class="cls-39" x="94.74" y="0">on</tspan><tspan class="cls-40" x="109.67" y="0" xml:space="preserve"> will</tspan><tspan x="132.08" y="0"> </tspan></text><text class="cls-9" transform="translate(821.97 158.07)"><tspan class="cls-42">ge</tspan><tspan class="cls-41" x="14.95" y="0">n</tspan><tspan class="cls-40" x="22.39" y="0">e</tspan><tspan class="cls-49" x="29.62" y="0">r</tspan><tspan class="cls-41" x="34" y="0">a</tspan><tspan class="cls-48" x="41.11" y="0">t</tspan><tspan class="cls-40" x="45.33" y="0">e </tspan><tspan class="cls-41" x="55.69" y="0">au</tspan><tspan class="cls-48" x="70.24" y="0">t</tspan><tspan class="cls-41" x="74.46" y="0">o</tspan><tspan class="cls-40" x="81.95" y="0">m</tspan><tspan class="cls-41" x="93.07" y="0">a</tspan><tspan class="cls-42" x="100.17" y="0">ti</tspan><tspan class="cls-41" x="107.7" y="0">ca</tspan><tspan class="cls-42" x="121.9" y="0">ll</tspan><tspan class="cls-39" x="128.12" y="0">y</tspan><tspan class="cls-42" x="135.01" y="0"> </tspan><tspan class="cls-48" x="138.14" y="0">t</tspan><tspan class="cls-39" x="142.37" y="0">o</tspan><tspan x="149.86" y="0"> </tspan></text><text class="cls-50" transform="translate(821.97 174.1)">k<tspan class="cls-40" x="6.55" y="0">eep the </tspan><tspan class="cls-41" x="54.22" y="0">con</tspan><tspan class="cls-40" x="76.24" y="0">sis</tspan><tspan class="cls-48" x="92.56" y="0">t</tspan><tspan class="cls-40" x="96.78" y="0">e</tspan><tspan class="cls-41" x="104.01" y="0">ncy</tspan><tspan class="cls-42" x="125.43" y="0"> </tspan><tspan class="cls-39" x="128.56" y="0">of</tspan><tspan class="cls-37" x="140.44" y="0"> </tspan></text><text class="cls-9" transform="translate(821.97 190.13)"><tspan class="cls-41">u</tspan><tspan class="cls-40" x="7.44" y="0">si</tspan><tspan class="cls-41" x="17.16" y="0">n</tspan><tspan class="cls-42" x="24.59" y="0">g </tspan><tspan class="cls-49" x="35.45" y="0">e</tspan><tspan class="cls-40" x="42.55" y="0">xperie</tspan><tspan class="cls-41" x="79.01" y="0">nc</tspan><tspan class="cls-40" x="93.54" y="0">e</tspan><tspan class="cls-44" x="100.77" y="0">.</tspan><tspan class="cls-42" x="103.92" y="0" xml:space="preserve"> The </tspan><tspan class="cls-41" x="133.14" y="0">a</tspan><tspan class="cls-42" x="140.25" y="0">pp</tspan><tspan x="155.7" y="0"> </tspan></text><text class="cls-9" transform="translate(821.97 206.16)"><tspan class="cls-42">will </tspan><tspan class="cls-41" x="22.41" y="0">con</tspan><tspan class="cls-40" x="44.43" y="0">si</tspan><tspan class="cls-39" x="54.15" y="0">d</tspan><tspan class="cls-42" x="61.95" y="0">er </tspan><tspan class="cls-43" x="76.8" y="0">y</tspan><tspan class="cls-41" x="83.5" y="0">ou</tspan><tspan class="cls-40" x="98.42" y="0"> </tspan><tspan class="cls-45" x="101.55" y="0">t</tspan><tspan class="cls-41" x="105.91" y="0">a</tspan><tspan class="cls-51" x="113.01" y="0">k</tspan><tspan class="cls-40" x="119.56" y="0">e </tspan><tspan class="cls-41" x="129.92" y="0">a</tspan><tspan x="137.03" y="0"> </tspan></text><text class="cls-9" transform="translate(821.97 222.19)"><tspan class="cls-40">t</tspan><tspan class="cls-52" x="4.41" y="0">r</tspan><tspan class="cls-39" x="8.79" y="0">an</tspan><tspan class="cls-42" x="23.34" y="0">sp</tspan><tspan class="cls-41" x="37.67" y="0">o</tspan><tspan class="cls-40" x="45.16" y="0">r</tspan><tspan class="cls-45" x="49.66" y="0">t</tspan><tspan class="cls-41" x="54.02" y="0">a</tspan><tspan class="cls-40" x="61.12" y="0">ti</tspan><tspan class="cls-41" x="68.65" y="0">on</tspan><tspan class="cls-40" x="83.58" y="0"> </tspan><tspan class="cls-41" x="86.71" y="0">onc</tspan><tspan class="cls-40" x="108.73" y="0">e it </tspan><tspan class="cls-39" x="129.73" y="0">d</tspan><tspan class="cls-42" x="137.53" y="0">e</tspan><tspan class="cls-48" x="144.76" y="0">t</tspan><tspan class="cls-40" x="148.99" y="0">e</tspan><tspan class="cls-41" x="156.21" y="0">c</tspan><tspan class="cls-40" x="163.31" y="0">t</tspan><tspan x="167.72" y="0"> </tspan></text><text class="cls-9" transform="translate(821.97 238.22)"><tspan class="cls-45">the m</tspan><tspan class="cls-53" x="33.21" y="0">o</tspan><tspan class="cls-54" x="40.44" y="0">v</tspan><tspan class="cls-55" x="47.24" y="0">i</tspan><tspan class="cls-56" x="50.3" y="0">n</tspan><tspan class="cls-45" x="57.68" y="0">g </tspan><tspan class="cls-53" x="68.43" y="0">v</tspan><tspan class="cls-45" x="75.03" y="0">el</tspan><tspan class="cls-54" x="85.26" y="0">oc</tspan><tspan class="cls-55" x="99.74" y="0">it</tspan><tspan class="cls-54" x="107.16" y="0">y</tspan><tspan class="cls-45" x="114" y="0" xml:space="preserve"> betwee</tspan><tspan class="cls-42" x="160.58" y="0">n</tspan><tspan x="168.01" y="0"> </tspan></text><text class="cls-9" transform="translate(821.97 254.25)"><tspan class="cls-41">d</tspan><tspan class="cls-40" x="7.8" y="0">i</tspan><tspan class="cls-41" x="10.91" y="0">f</tspan><tspan class="cls-46" x="15.3" y="0">f</tspan><tspan class="cls-40" x="19.36" y="0">e</tspan><tspan class="cls-46" x="26.59" y="0">r</tspan><tspan class="cls-40" x="30.77" y="0">e</tspan><tspan class="cls-41" x="38" y="0">n</tspan><tspan class="cls-42" x="45.44" y="0">t l</tspan><tspan class="cls-39" x="56.09" y="0">oca</tspan><tspan class="cls-42" x="77.78" y="0">ti</tspan><tspan class="cls-41" x="85.31" y="0">on</tspan><tspan class="cls-40" x="100.24" y="0" xml:space="preserve"> l</tspan><tspan class="cls-41" x="106.48" y="0">a</tspan><tspan class="cls-46" x="113.58" y="0">r</tspan><tspan class="cls-40" x="117.76" y="0">ge th</tspan><tspan class="cls-41" x="147.85" y="0">an</tspan><tspan x="162.39" y="0"> </tspan></text><text class="cls-9" transform="translate(821.97 270.27)"><tspan class="cls-48">3</tspan><tspan class="cls-57" x="8.11" y="0">.</tspan><tspan class="cls-40" x="11.12" y="0">1 miles/h</tspan><tspan class="cls-41" x="63.56" y="0">ou</tspan><tspan class="cls-40" x="78.49" y="0">r whi</tspan><tspan class="cls-41" x="106.76" y="0">c</tspan><tspan class="cls-40" x="113.86" y="0">h is the</tspan><tspan x="156.64" y="0"> </tspan></text><text class="cls-58" transform="translate(821.97 286.3)">a<tspan class="cls-43" x="7.11" y="0">v</tspan><tspan class="cls-40" x="13.76" y="0">e</tspan><tspan class="cls-49" x="20.99" y="0">r</tspan><tspan x="25.37" y="0">a</tspan><tspan class="cls-42" x="32.47" y="0">ge m</tspan><tspan class="cls-48" x="61.67" y="0">o</tspan><tspan class="cls-39" x="68.96" y="0">v</tspan><tspan class="cls-40" x="75.81" y="0">i</tspan><tspan class="cls-59" x="78.93" y="0">n</tspan><tspan class="cls-40" x="86.37" y="0">g spee</tspan><tspan class="cls-39" x="126" y="0">d</tspan><tspan class="cls-42" x="133.8" y="0"> </tspan><tspan class="cls-39" x="136.93" y="0">of</tspan><tspan class="cls-37" x="148.81" y="0"> </tspan></text><text class="cls-9" transform="translate(821.97 302.33)"><tspan class="cls-40">h</tspan><tspan class="cls-41" x="7.59" y="0">u</tspan><tspan class="cls-42" x="15.03" y="0">m</tspan><tspan class="cls-39" x="26.14" y="0">an</tspan><tspan x="40.69" y="0">.</tspan></text><text class="cls-60" transform="translate(1097.96 136.94)"><tspan class="cls-40">The </tspan><tspan class="cls-39" x="26.09" y="0">a</tspan><tspan class="cls-42" x="33.2" y="0">pp </tspan><tspan class="cls-41" x="51.78" y="0">u</tspan><tspan class="cls-40" x="59.21" y="0">se l</tspan><tspan class="cls-41" x="79.29" y="0">oca</tspan><tspan class="cls-40" x="100.98" y="0">ti</tspan><tspan class="cls-41" x="108.5" y="0">on</tspan><tspan class="cls-40" x="123.43" y="0"> </tspan><tspan class="cls-48" x="126.56" y="0">t</tspan><tspan class="cls-41" x="130.78" y="0">o</tspan><tspan class="cls-40" x="138.27" y="0"> </tspan><tspan class="cls-41" x="141.4" y="0">d</tspan><tspan class="cls-40" x="149.2" y="0">e</tspan><tspan class="cls-39" x="156.42" y="0">f</tspan><tspan class="cls-42" x="160.82" y="0">i</tspan><tspan class="cls-41" x="163.93" y="0">n</tspan><tspan class="cls-40" x="171.37" y="0">e </tspan><tspan class="cls-43" x="181.73" y="0">y</tspan><tspan class="cls-41" x="188.42" y="0">ou</tspan><tspan class="cls-40" x="203.34" y="0">r </tspan><tspan class="cls-41" x="210.97" y="0">ac</tspan><tspan class="cls-42" x="225.17" y="0">ti</tspan><tspan class="cls-41" x="232.7" y="0">v</tspan><tspan class="cls-40" x="239.55" y="0">it</tspan><tspan class="cls-61" x="247.07" y="0">y</tspan><tspan class="cls-44" x="252.99" y="0">.</tspan><tspan class="cls-42" x="256.14" y="0" xml:space="preserve"> O</tspan><tspan class="cls-41" x="269.43" y="0">nc</tspan><tspan class="cls-40" x="283.96" y="0">e </tspan><tspan class="cls-43" x="294.31" y="0">y</tspan><tspan class="cls-41" x="301" y="0">ou</tspan><tspan class="cls-40" x="315.93" y="0" xml:space="preserve"> get</tspan><tspan x="338.42" y="0"> </tspan></text><text class="cls-60" transform="translate(1097.96 155.64)"><tspan class="cls-48">t</tspan><tspan class="cls-41" x="4.22" y="0">o</tspan><tspan class="cls-40" x="11.71" y="0"> </tspan><tspan class="cls-41" x="14.84" y="0">a</tspan><tspan class="cls-40" x="21.95" y="0"> </tspan><tspan class="cls-41" x="25.07" y="0">n</tspan><tspan class="cls-40" x="32.51" y="0">ew l</tspan><tspan class="cls-39" x="55.92" y="0">oca</tspan><tspan class="cls-42" x="77.61" y="0">ti</tspan><tspan class="cls-41" x="85.14" y="0">on</tspan><tspan class="cls-40" x="100.07" y="0"> </tspan><tspan class="cls-41" x="103.2" y="0">and</tspan><tspan class="cls-40" x="125.54" y="0" xml:space="preserve"> s</tspan><tspan class="cls-45" x="135.27" y="0">t</tspan><tspan class="cls-41" x="139.62" y="0">ay</tspan><tspan class="cls-40" x="153.62" y="0" xml:space="preserve"> the</tspan><tspan class="cls-51" x="175.98" y="0">r</tspan><tspan class="cls-40" x="180.16" y="0">e </tspan><tspan class="cls-46" x="190.51" y="0">f</tspan><tspan class="cls-41" x="194.57" y="0">o</tspan><tspan class="cls-40" x="202.06" y="0">r </tspan><tspan class="cls-41" x="209.69" y="0">a</tspan><tspan class="cls-40" x="216.8" y="0"> </tspan><tspan class="cls-41" x="219.93" y="0">c</tspan><tspan class="cls-40" x="227.02" y="0">er</tspan><tspan class="cls-45" x="238.75" y="0">t</tspan><tspan class="cls-41" x="243.11" y="0">a</tspan><tspan class="cls-42" x="250.21" y="0">i</tspan><tspan class="cls-41" x="253.33" y="0">n</tspan><tspan class="cls-40" x="260.77" y="0" xml:space="preserve"> time</tspan><tspan class="cls-44" x="289.76" y="0">.</tspan><tspan class="cls-40" x="292.92" y="0" xml:space="preserve"> The</tspan><tspan x="319.01" y="0"> </tspan></text><text class="cls-60" transform="translate(1097.96 174.34)"><tspan class="cls-40">s</tspan><tspan class="cls-41" x="6.6" y="0">y</tspan><tspan class="cls-40" x="13.49" y="0">s</tspan><tspan class="cls-48" x="20.1" y="0">t</tspan><tspan class="cls-40" x="24.32" y="0">em will </tspan><tspan class="cls-59" x="68.21" y="0">con</tspan><tspan class="cls-42" x="90.23" y="0">si</tspan><tspan class="cls-41" x="99.94" y="0">d</tspan><tspan class="cls-40" x="107.74" y="0">er the</tspan><tspan class="cls-46" x="141.83" y="0">r</tspan><tspan class="cls-40" x="146.01" y="0">e is </tspan><tspan class="cls-39" x="169.21" y="0">an</tspan><tspan class="cls-40" x="183.75" y="0"> </tspan><tspan class="cls-41" x="186.88" y="0">ac</tspan><tspan class="cls-40" x="201.08" y="0">ti</tspan><tspan class="cls-39" x="208.6" y="0">v</tspan><tspan class="cls-42" x="215.46" y="0">it</tspan><tspan class="cls-39" x="222.98" y="0">y</tspan><tspan class="cls-40" x="229.87" y="0" xml:space="preserve"> h</tspan><tspan class="cls-41" x="240.59" y="0">a</tspan><tspan class="cls-42" x="247.69" y="0">ppe</tspan><tspan class="cls-41" x="270.37" y="0">n</tspan><tspan class="cls-42" x="277.81" y="0" xml:space="preserve"> i</tspan><tspan class="cls-41" x="284.05" y="0">n</tspan><tspan class="cls-42" x="291.49" y="0" xml:space="preserve"> the</tspan><tspan x="313.84" y="0"> </tspan></text><text class="cls-60" transform="translate(1097.96 193.04)"><tspan class="cls-41">c</tspan><tspan class="cls-40" x="7.09" y="0">er</tspan><tspan class="cls-45" x="18.83" y="0">t</tspan><tspan class="cls-41" x="23.18" y="0">a</tspan><tspan class="cls-42" x="30.29" y="0">i</tspan><tspan class="cls-41" x="33.4" y="0">n</tspan><tspan class="cls-40" x="40.84" y="0" xml:space="preserve"> l</tspan><tspan class="cls-39" x="47.08" y="0">oca</tspan><tspan class="cls-42" x="68.77" y="0">ti</tspan><tspan class="cls-41" x="76.3" y="0">on</tspan><tspan class="cls-44" x="91.22" y="0">.</tspan><tspan class="cls-42" x="94.38" y="0" xml:space="preserve"> The</tspan><tspan class="cls-41" x="120.47" y="0">n</tspan><tspan class="cls-40" x="127.91" y="0"> </tspan><tspan class="cls-41" x="131.03" y="0">a</tspan><tspan class="cls-42" x="138.14" y="0">pp will </tspan><tspan class="cls-41" x="179.13" y="0">a</tspan><tspan class="cls-40" x="186.23" y="0">sk wh</tspan><tspan class="cls-41" x="226.79" y="0">a</tspan><tspan class="cls-40" x="233.9" y="0">t </tspan><tspan class="cls-39" x="241.43" y="0">d</tspan><tspan class="cls-42" x="249.23" y="0">i</tspan><tspan class="cls-41" x="252.35" y="0">d</tspan><tspan class="cls-40" x="260.14" y="0"> </tspan><tspan class="cls-43" x="263.27" y="0">y</tspan><tspan class="cls-41" x="269.96" y="0">ou</tspan><tspan class="cls-40" x="284.89" y="0"> </tspan><tspan class="cls-41" x="288.02" y="0">do</tspan><tspan class="cls-40" x="303.3" y="0">? </tspan><tspan class="cls-62" x="319.78" y="0">Y</tspan><tspan class="cls-39" x="327.13" y="0">ou</tspan><tspan x="342.06" y="0"> </tspan></text><text class="cls-60" transform="translate(1097.96 211.74)"><tspan class="cls-41">can</tspan><tspan class="cls-40" x="21.64" y="0" xml:space="preserve"> sele</tspan><tspan class="cls-41" x="48.94" y="0">c</tspan><tspan class="cls-40" x="56.03" y="0">t </tspan><tspan class="cls-48" x="63.57" y="0">y</tspan><tspan class="cls-39" x="70.26" y="0">ou</tspan><tspan class="cls-40" x="85.19" y="0">r </tspan><tspan class="cls-39" x="92.82" y="0">ac</tspan><tspan class="cls-40" x="107.02" y="0">ti</tspan><tspan class="cls-39" x="114.54" y="0">v</tspan><tspan class="cls-40" x="121.39" y="0">it</tspan><tspan class="cls-39" x="128.92" y="0">y</tspan><tspan class="cls-40" x="135.81" y="0" xml:space="preserve"> the</tspan><tspan class="cls-46" x="158.17" y="0">r</tspan><tspan class="cls-40" x="162.35" y="0">e</tspan><tspan class="cls-44" x="169.58" y="0">.</tspan><tspan class="cls-40" x="172.73" y="0" xml:space="preserve"> The</tspan><tspan class="cls-41" x="198.82" y="0">n</tspan><tspan class="cls-40" x="206.26" y="0" xml:space="preserve"> e</tspan><tspan class="cls-48" x="216.62" y="0">v</tspan><tspan class="cls-40" x="223.27" y="0">er</tspan><tspan class="cls-39" x="235" y="0">y</tspan><tspan class="cls-40" x="241.89" y="0" xml:space="preserve"> time </tspan><tspan class="cls-48" x="274.01" y="0">y</tspan><tspan class="cls-39" x="280.7" y="0">ou</tspan><tspan class="cls-40" x="295.63" y="0" xml:space="preserve"> get th</tspan><tspan class="cls-39" x="333.25" y="0">a</tspan><tspan class="cls-42" x="340.36" y="0">t</tspan><tspan x="344.77" y="0"> </tspan></text><text class="cls-60" transform="translate(1097.96 230.44)"><tspan class="cls-42">l</tspan><tspan class="cls-39" x="3.11" y="0">oca</tspan><tspan class="cls-42" x="24.8" y="0">ti</tspan><tspan class="cls-41" x="32.33" y="0">on</tspan><tspan class="cls-44" x="47.26" y="0">.</tspan><tspan class="cls-40" x="50.41" y="0" xml:space="preserve"> The s</tspan><tspan class="cls-41" x="86.23" y="0">y</tspan><tspan class="cls-40" x="93.12" y="0">s</tspan><tspan class="cls-48" x="99.72" y="0">t</tspan><tspan class="cls-40" x="103.95" y="0">em will </tspan><tspan class="cls-41" x="147.83" y="0">con</tspan><tspan class="cls-40" x="169.85" y="0">si</tspan><tspan class="cls-41" x="179.57" y="0">d</tspan><tspan class="cls-40" x="187.37" y="0">er </tspan><tspan class="cls-43" x="202.23" y="0">y</tspan><tspan class="cls-41" x="208.92" y="0">ou</tspan><tspan class="cls-40" x="223.85" y="0" xml:space="preserve"> per</tspan><tspan class="cls-46" x="246.43" y="0">f</tspan><tspan class="cls-41" x="250.49" y="0">o</tspan><tspan class="cls-40" x="257.98" y="0">rm the </tspan><tspan class="cls-41" x="299.08" y="0">ac</tspan><tspan class="cls-40" x="313.28" y="0">ti</tspan><tspan class="cls-39" x="320.8" y="0">v</tspan><tspan class="cls-42" x="327.66" y="0">it</tspan><tspan class="cls-39" x="335.18" y="0">y</tspan><tspan x="342.07" y="0"> </tspan></text><text class="cls-60" transform="translate(1097.96 249.14)"><tspan class="cls-43">y</tspan><tspan class="cls-41" x="6.69" y="0">ou</tspan><tspan class="cls-43" x="25.53" y="0">v</tspan><tspan class="cls-40" x="32.18" y="0">e </tspan><tspan class="cls-41" x="42.54" y="0">d</tspan><tspan class="cls-40" x="50.33" y="0">e</tspan><tspan class="cls-41" x="57.56" y="0">f</tspan><tspan class="cls-40" x="61.95" y="0">i</tspan><tspan class="cls-41" x="65.07" y="0">n</tspan><tspan class="cls-40" x="72.51" y="0">e</tspan><tspan class="cls-41" x="79.74" y="0">d</tspan><tspan class="cls-40" x="87.53" y="0"> </tspan><tspan class="cls-51" x="90.66" y="0">f</tspan><tspan class="cls-39" x="94.72" y="0">o</tspan><tspan class="cls-40" x="102.21" y="0">r th</tspan><tspan class="cls-41" x="121.84" y="0">a</tspan><tspan class="cls-40" x="128.94" y="0">t l</tspan><tspan class="cls-39" x="139.6" y="0">oca</tspan><tspan class="cls-42" x="161.29" y="0">ti</tspan><tspan class="cls-41" x="168.81" y="0">on</tspan><tspan x="183.74" y="0">.</tspan></text><text class="cls-63" transform="translate(1097.96 544.38)">Du<tspan class="cls-41" x="17.21" y="0">e </tspan><tspan class="cls-64" x="27.77" y="0">t</tspan><tspan class="cls-41" x="32.28" y="0">o t</tspan><tspan class="cls-42" x="47.77" y="0">h</tspan><tspan class="cls-39" x="55.57" y="0">e </tspan><tspan x="66.13" y="0">a</tspan><tspan class="cls-41" x="73.44" y="0">cti</tspan><tspan x="88.72" y="0">v</tspan><tspan class="cls-39" x="95.78" y="0">it</tspan><tspan x="103.76" y="0">y</tspan><tspan class="cls-41" x="110.91" y="0" xml:space="preserve"> i</tspan><tspan class="cls-42" x="117.31" y="0">s</tspan><tspan class="cls-41" x="124.16" y="0" xml:space="preserve"> defi</tspan><tspan x="150.66" y="0">n</tspan><tspan class="cls-41" x="158.32" y="0">ed </tspan><tspan class="cls-65" x="176.88" y="0">b</tspan><tspan x="184.7" y="0">y</tspan><tspan class="cls-41" x="191.85" y="0" xml:space="preserve"> t</tspan><tspan x="199.65" y="0">h</tspan><tspan class="cls-41" x="207.45" y="0">e loc</tspan><tspan x="236.31" y="0">a</tspan><tspan class="cls-39" x="243.62" y="0">tio</tspan><tspan class="cls-42" x="259.3" y="0">n</tspan><tspan class="cls-66" x="266.96" y="0">.</tspan><tspan class="cls-41" x="270.17" y="0"> </tspan><tspan class="cls-42" x="273.28" y="0">S</tspan><tspan class="cls-41" x="281.78" y="0">o t</tspan><tspan class="cls-42" x="297.27" y="0">h</tspan><tspan class="cls-39" x="305.07" y="0">e</tspan><tspan class="cls-35" x="312.52" y="0"> </tspan></text><text class="cls-67" transform="translate(1097.96 566.42)"><tspan class="cls-40">sys</tspan><tspan class="cls-64" x="20.84" y="0">t</tspan><tspan class="cls-41" x="25.35" y="0">em </tspan><tspan class="cls-40" x="47.33" y="0">w</tspan><tspan class="cls-41" x="57.63" y="0">ill </tspan><tspan class="cls-68" x="70.65" y="0">r</tspan><tspan class="cls-39" x="75.14" y="0">eco</tspan><tspan class="cls-69" x="97.59" y="0">r</tspan><tspan class="cls-39" x="102.06" y="0">d </tspan><tspan class="cls-48" x="113.17" y="0">y</tspan><tspan class="cls-41" x="120.14" y="0">o</tspan><tspan class="cls-40" x="127.83" y="0">ur</tspan><tspan class="cls-41" x="140.26" y="0"> </tspan><tspan class="cls-40" x="143.37" y="0">a</tspan><tspan class="cls-41" x="150.67" y="0">cti</tspan><tspan class="cls-42" x="165.96" y="0">v</tspan><tspan class="cls-39" x="173.01" y="0">it</tspan><tspan class="cls-40" x="180.99" y="0">y</tspan><tspan x="188.14" y="0"> </tspan></text><text class="cls-70" transform="translate(1289.37 568.77)"><tspan class="cls-71">au</tspan><tspan class="cls-72" x="22.45" y="0">t</tspan><tspan class="cls-73" x="29.22" y="0">om</tspan><tspan class="cls-74" x="57.88" y="0">a</tspan><tspan class="cls-75" x="68.85" y="0">tic</tspan><tspan class="cls-71" x="91.77" y="0">a</tspan><tspan class="cls-73" x="102.73" y="0">ll</tspan><tspan x="112.66" y="0">y</tspan></text><text class="cls-67" transform="translate(1412.88 566.42)"> </text><text class="cls-76" transform="translate(1415.99 566.42)">o<tspan class="cls-77" x="7.56" y="0">n</tspan><tspan x="15.08" y="0">ce</tspan><tspan class="cls-35" x="29.57" y="0"> </tspan></text><text class="cls-67" transform="translate(1097.98 585.79)"><tspan class="cls-51">y</tspan><tspan class="cls-49" x="6.83" y="0">o</tspan><tspan class="cls-78" x="14.39" y="0">u</tspan><tspan class="cls-52" x="21.92" y="0"> </tspan><tspan class="cls-79" x="24.89" y="0">t</tspan><tspan class="cls-52" x="29.27" y="0">old </tspan><tspan class="cls-77" x="50.84" y="0">wha</tspan><tspan class="cls-49" x="75.85" y="0">t did </tspan><tspan class="cls-46" x="105.25" y="0">y</tspan><tspan class="cls-52" x="112.08" y="0">o</tspan><tspan class="cls-78" x="119.64" y="0">u</tspan><tspan class="cls-52" x="127.17" y="0" xml:space="preserve"> do </tspan><tspan class="cls-78" x="148.54" y="0">a</tspan><tspan class="cls-49" x="155.71" y="0">t t</tspan><tspan class="cls-78" x="167.79" y="0">ha</tspan><tspan class="cls-49" x="182.63" y="0">t loc</tspan><tspan class="cls-78" x="208.06" y="0">a</tspan><tspan class="cls-49" x="215.24" y="0">tio</tspan><tspan class="cls-78" x="230.51" y="0">n</tspan><tspan class="cls-52" x="238.04" y="0" xml:space="preserve"> be</tspan><tspan x="256.21" y="0">f</tspan><tspan class="cls-52" x="260.46" y="0">o</tspan><tspan class="cls-80" x="268.01" y="0">r</tspan><tspan class="cls-52" x="272.37" y="0">e</tspan><tspan class="cls-37" x="279.69" y="0">.</tspan></text><text class="cls-9" transform="translate(55.43 485.08)"><tspan class="cls-48">T</tspan><tspan class="cls-42" x="7.96" y="0">ime C</tspan><tspan class="cls-41" x="42.1" y="0">a</tspan><tspan class="cls-40" x="49.21" y="0">ps</tspan><tspan class="cls-41" x="63.53" y="0">u</tspan><tspan class="cls-40" x="70.97" y="0">l</tspan><tspan x="74.09" y="0">e</tspan></text><text class="cls-9" transform="translate(12.03 507.79)"><tspan class="cls-48">T</tspan><tspan class="cls-42" x="7.96" y="0">ime C</tspan><tspan class="cls-41" x="42.1" y="0">a</tspan><tspan class="cls-40" x="49.21" y="0">ps</tspan><tspan class="cls-41" x="63.53" y="0">u</tspan><tspan class="cls-40" x="70.97" y="0">le i</tspan><tspan class="cls-41" x="87.56" y="0">nd</tspan><tspan class="cls-42" x="102.79" y="0">i</tspan><tspan class="cls-41" x="105.9" y="0">ca</tspan><tspan class="cls-48" x="120.1" y="0">t</tspan><tspan class="cls-40" x="124.33" y="0">es the</tspan><tspan x="160.52" y="0"> </tspan></text><text class="cls-9" transform="translate(12.03 523.82)"><tspan class="cls-40">time </tspan><tspan class="cls-46" x="29" y="0">r</tspan><tspan class="cls-40" x="33.18" y="0">emi</tspan><tspan class="cls-41" x="54.64" y="0">n</tspan><tspan class="cls-40" x="62.08" y="0">i</tspan><tspan class="cls-41" x="65.19" y="0">n</tspan><tspan class="cls-42" x="72.63" y="0">g i</tspan><tspan class="cls-41" x="86.6" y="0">n</tspan><tspan class="cls-40" x="94.03" y="0"> </tspan><tspan class="cls-43" x="97.16" y="0">y</tspan><tspan class="cls-41" x="103.85" y="0">ou</tspan><tspan class="cls-40" x="118.78" y="0">r </tspan><tspan class="cls-41" x="126.41" y="0">da</tspan><tspan class="cls-81" x="141.31" y="0">y</tspan><tspan class="cls-44" x="147.23" y="0">.</tspan><tspan class="cls-40" x="150.38" y="0"> </tspan><tspan class="cls-39" x="153.51" y="0">I</tspan><tspan class="cls-42" x="156.91" y="0">t</tspan><tspan x="161.32" y="0"> </tspan></text><text class="cls-9" transform="translate(12.03 539.85)"><tspan class="cls-42">will be </tspan><tspan class="cls-46" x="40.56" y="0">r</tspan><tspan class="cls-40" x="44.74" y="0">e</tspan><tspan class="cls-41" x="51.97" y="0">duc</tspan><tspan class="cls-42" x="74.3" y="0">e</tspan><tspan class="cls-39" x="81.53" y="0">d</tspan><tspan class="cls-42" x="89.32" y="0"> </tspan><tspan class="cls-39" x="92.45" y="0">a</tspan><tspan class="cls-42" x="99.56" y="0">s </tspan><tspan class="cls-43" x="109.29" y="0">y</tspan><tspan class="cls-41" x="115.98" y="0">ou</tspan><tspan class="cls-40" x="130.9" y="0"> </tspan><tspan class="cls-41" x="134.03" y="0">a</tspan><tspan class="cls-46" x="141.14" y="0">r</tspan><tspan class="cls-40" x="145.32" y="0">e</tspan><tspan x="152.55" y="0"> </tspan></text><text class="cls-9" transform="translate(12.03 555.88)"><tspan class="cls-41">do</tspan><tspan class="cls-40" x="15.29" y="0">i</tspan><tspan class="cls-41" x="18.4" y="0">n</tspan><tspan class="cls-42" x="25.84" y="0">g </tspan><tspan class="cls-41" x="36.69" y="0">ac</tspan><tspan class="cls-40" x="50.89" y="0">ti</tspan><tspan class="cls-39" x="58.42" y="0">v</tspan><tspan class="cls-42" x="65.27" y="0">ities</tspan><tspan class="cls-44" x="89.74" y="0">.</tspan><tspan class="cls-42" x="92.89" y="0"> </tspan><tspan class="cls-39" x="96.02" y="0">I</tspan><tspan class="cls-42" x="99.42" y="0">t </tspan><tspan class="cls-41" x="106.96" y="0">can</tspan><tspan class="cls-40" x="128.59" y="0"> </tspan><tspan class="cls-41" x="131.72" y="0">a</tspan><tspan class="cls-40" x="138.82" y="0">ls</tspan><tspan class="cls-39" x="148.54" y="0">o</tspan><tspan x="156.03" y="0"> </tspan></text><text class="cls-9" transform="translate(12.03 571.91)"><tspan class="cls-42">be </tspan><tspan class="cls-46" x="18.15" y="0">r</tspan><tspan class="cls-42" x="22.33" y="0">e</tspan><tspan class="cls-39" x="29.56" y="0">fu</tspan><tspan class="cls-40" x="41.39" y="0">ille</tspan><tspan class="cls-41" x="57.96" y="0">d</tspan><tspan class="cls-40" x="65.76" y="0" xml:space="preserve"> i</tspan><tspan class="cls-41" x="72" y="0">f</tspan><tspan class="cls-40" x="76.39" y="0"> </tspan><tspan class="cls-43" x="79.52" y="0">y</tspan><tspan class="cls-41" x="86.21" y="0">ou</tspan><tspan class="cls-40" x="101.13" y="0"> </tspan><tspan class="cls-41" x="104.26" y="0">a</tspan><tspan class="cls-46" x="111.37" y="0">r</tspan><tspan class="cls-40" x="115.55" y="0">e </tspan><tspan class="cls-39" x="125.91" y="0">do</tspan><tspan class="cls-42" x="141.19" y="0">i</tspan><tspan class="cls-41" x="144.31" y="0">n</tspan><tspan class="cls-40" x="151.75" y="0">g</tspan><tspan x="159.47" y="0"> </tspan></text><text class="cls-82" transform="translate(12.03 587.94)">the s<tspan class="cls-41" x="28.96" y="0">a</tspan><tspan x="36.06" y="0">me </tspan><tspan class="cls-41" x="57.54" y="0">ac</tspan><tspan x="71.74" y="0">ti</tspan><tspan class="cls-39" x="79.26" y="0">v</tspan><tspan x="86.11" y="0">it</tspan><tspan class="cls-39" x="93.64" y="0">y</tspan><tspan x="100.53" y="0" xml:space="preserve"> with less</tspan><tspan class="cls-37" x="155.39" y="0"> </tspan></text><text class="cls-9" transform="translate(12.03 603.97)"><tspan class="cls-40">time </tspan><tspan class="cls-41" x="29" y="0">co</tspan><tspan class="cls-40" x="43.58" y="0">mp</tspan><tspan class="cls-41" x="62.42" y="0">a</tspan><tspan class="cls-46" x="69.53" y="0">r</tspan><tspan class="cls-40" x="73.71" y="0">e </tspan><tspan class="cls-48" x="84.07" y="0">t</tspan><tspan class="cls-41" x="88.29" y="0">o</tspan><tspan class="cls-40" x="95.78" y="0" xml:space="preserve"> p</tspan><tspan class="cls-46" x="106.63" y="0">r</tspan><tspan class="cls-40" x="110.82" y="0">e</tspan><tspan class="cls-39" x="118.05" y="0">v</tspan><tspan class="cls-42" x="124.9" y="0">i</tspan><tspan class="cls-41" x="128.01" y="0">ou</tspan><tspan class="cls-40" x="142.94" y="0">s</tspan><tspan x="149.54" y="0"> </tspan></text><text class="cls-9" transform="translate(12.03 620)"><tspan class="cls-41">da</tspan><tspan class="cls-61" x="14.9" y="0">y</tspan><tspan x="20.82" y="0">.</tspan></text><g class="cls-4"><path class="cls-6" d="M1174.83,383.52a24.1,24.1,0,1,0-42.64,15.32l18.56,26.65,18.83-27a23.45,23.45,0,0,0,1.86-2.66l.19-.28h0a23.79,23.79,0,0,0,3.23-12m-12.5,0a12.05,12.05,0,1,1-12-12,12,12,0,0,1,12,12"/></g><line class="cls-83" x1="1320.6" y1="391.02" x2="1207.4" y2="391.02"/><polygon class="cls-6" points="1331.46 391 1316.15 384.75 1319.79 391 1316.15 397.25 1331.46 391"/><g class="cls-4"><path class="cls-6" d="M1392.57,406.06c.67-3.26,1.34-6.51,2-9.77,1-5,2-10.07,3-15.12a2.77,2.77,0,0,1,2.57-2.46,2.9,2.9,0,0,1,3,1.9c1.67,3.47,3.46,6.89,5,10.43.81,1.92,1.88,2.64,4,2.49,2.56-.19,5.14-.08,7.71,0,2.24,0,3.48,1.08,3.51,2.84s-1.35,2.94-3.57,2.95c-3.76,0-7.52,0-11.27,0a3.79,3.79,0,0,1-3.9-2.41c-.77-1.68-1.6-3.33-2.41-5a6.87,6.87,0,0,0-.65-.83c-.47,2.18-.91,4.05-1.29,5.93q-2.49,12.4-5,24.79a2.81,2.81,0,0,1-2.84,2.53,2.86,2.86,0,0,1-2.83-2.38c-2.08-9.32-4.13-18.65-6.21-28-1.36-6.12-2.77-12.22-4.16-18.33a1.18,1.18,0,0,0-.53-.77c-.4,1.43-.82,2.85-1.19,4.29-1.54,6-3.11,12-4.57,18.07-.81,3.33-1.48,3.95-4.93,3.95s-6.89,0-10.34,0a2.87,2.87,0,1,1,.21-5.72c2.62,0,5.25-.07,7.87,0a1.8,1.8,0,0,0,2.06-1.57c1.07-4.23,2.17-8.46,3.25-12.69l4-15.83c.33-1.29.68-2.58,1-3.88.44-1.87,1.41-2.88,2.88-2.94s2.69.89,3.13,2.83c.92,4.06,1.77,8.13,2.67,12.19,1.3,5.92,2.63,11.84,4,17.75q1.39,6.33,2.82,12.64c.16.73.4,1.44.61,2.17Z"/></g><text class="cls-84" transform="translate(1097.97 43.45)"><tspan class="cls-85">L</tspan><tspan class="cls-86" x="20.01" y="0">oca</tspan><tspan class="cls-87" x="81.38" y="0">t</tspan><tspan class="cls-88" x="94.74" y="0">io</tspan><tspan class="cls-87" x="125.44" y="0">n </tspan><tspan class="cls-88" x="155.18" y="0">Ba</tspan><tspan class="cls-89" x="198.86" y="0">s</tspan><tspan class="cls-86" x="217.83" y="0">e</tspan><tspan class="cls-89" x="238.3" y="0">d</tspan><tspan x="260.15" y="0"> </tspan></text><text class="cls-90" transform="translate(1097.97 84.85)">A<tspan class="cls-86" x="24.36" y="0">c</tspan><tspan class="cls-89" x="44.46" y="0">tivit</tspan><tspan class="cls-88" x="109.77" y="0">y</tspan><tspan class="cls-87" x="129.63" y="0"> </tspan><tspan class="cls-91" x="138.29" y="0">T</tspan><tspan class="cls-92" x="158.61" y="0">r</tspan><tspan class="cls-88" x="171.87" y="0">ack</tspan><tspan class="cls-87" x="231.89" y="0">in</tspan><tspan class="cls-93" x="262.54" y="0">g</tspan></text></svg>