<svg id="Layer_1" data-name="Layer 1" xmlns="http://www.w3.org/2000/svg" xmlns:xlink="http://www.w3.org/1999/xlink" viewBox="0 0 1500 721"><defs><style>.cls-1,.cls-115,.cls-116,.cls-120,.cls-121,.cls-122{fill:none;}.cls-2{font-size:43.12px;}.cls-10,.cls-119,.cls-17,.cls-18,.cls-2,.cls-22,.cls-41,.cls-48,.cls-52{fill:#5fc0b7;}.cls-10,.cls-17,.cls-2,.cls-22{font-family:SFUIDisplay-Medium, SF UI Display;font-weight:500;}.cls-3{letter-spacing:0.02em;}.cls-4{letter-spacing:0.03em;}.cls-5{letter-spacing:0.02em;}.cls-6{letter-spacing:0.01em;}.cls-7{letter-spacing:-0.01em;}.cls-8{letter-spacing:0.02em;}.cls-9{letter-spacing:0.02em;}.cls-10,.cls-17,.cls-18,.cls-22{font-size:22.18px;}.cls-11{letter-spacing:0.02em;}.cls-12{letter-spacing:0.03em;}.cls-13{letter-spacing:0.02em;}.cls-14{letter-spacing:0em;}.cls-15{letter-spacing:0.02em;}.cls-16{letter-spacing:0.02em;}.cls-17,.cls-23{letter-spacing:0em;}.cls-18,.cls-71{font-family:SFUIDisplay-Semibold, SF UI Display;font-weight:600;}.cls-19{letter-spacing:0.02em;}.cls-20{letter-spacing:0.03em;}.cls-21{letter-spacing:-0.03em;}.cls-22{letter-spacing:0em;}.cls-24{letter-spacing:0.01em;}.cls-25{letter-spacing:0.01em;}.cls-26{letter-spacing:0em;}.cls-27{letter-spacing:0.01em;}.cls-109,.cls-28,.cls-88,.cls-93,.cls-96{font-size:12.32px;}.cls-109,.cls-28,.cls-57,.cls-71,.cls-89,.cls-93,.cls-96{fill:#231f20;}.cls-109,.cls-28,.cls-83,.cls-89,.cls-93,.cls-96{font-family:SFUIDisplay-Regular, SF UI Display;}.cls-29{letter-spacing:0.02em;}.cls-30{letter-spacing:0.03em;}.cls-31{letter-spacing:0.02em;}.cls-32{letter-spacing:0.02em;}.cls-33{letter-spacing:0.01em;}.cls-34{letter-spacing:0.02em;}.cls-109,.cls-35{letter-spacing:0.01em;}.cls-36{letter-spacing:0em;}.cls-37{letter-spacing:-0.05em;}.cls-38{letter-spacing:0em;}.cls-39{letter-spacing:-0.02em;}.cls-40{letter-spacing:0.02em;}.cls-119,.cls-41,.cls-48{font-size:32.03px;}.cls-119,.cls-41,.cls-88{font-family:SFUIDisplay-Bold, SF UI Display;}.cls-119,.cls-41,.cls-48,.cls-88{font-weight:700;}.cls-41,.cls-50{letter-spacing:0.05em;}.cls-42{letter-spacing:0.05em;}.cls-43{letter-spacing:0.05em;}.cls-44{letter-spacing:0.04em;}.cls-45{letter-spacing:0.03em;}.cls-46{letter-spacing:0.05em;}.cls-47{letter-spacing:0em;}.cls-48{font-family:Helvetica-Bold, Helvetica;}.cls-49{letter-spacing:0.05em;}.cls-51{clip-path:url(#clip-path);}.cls-53{fill:#f57f3c;}.cls-54{fill:#378bca;}.cls-55{fill:#e9e156;}.cls-56{font-size:16.04px;}.cls-117,.cls-118,.cls-56,.cls-63{fill:#fff;}.cls-118,.cls-56{font-family:Helvetica;}.cls-58{fill:#d0ddea;}.cls-59{fill:#45c1c0;}.cls-60{fill:#e0e0da;}.cls-61{fill:#e75c6e;}.cls-62{fill:#b8d878;}.cls-64{fill:#6d6e71;}.cls-65{fill:#cfd1d2;}.cls-66{fill:#3e3e3f;}.cls-67{fill:#efeff0;}.cls-68{fill:#616264;}.cls-69{fill:#f8f8f9;}.cls-70{fill:#696a6d;}.cls-71{font-size:14.78px;}.cls-72{letter-spacing:0.03em;}.cls-73{letter-spacing:0.03em;}.cls-74{letter-spacing:0.03em;}.cls-75{letter-spacing:0.01em;}.cls-76{letter-spacing:0.03em;}.cls-77{letter-spacing:0.03em;}.cls-78,.cls-93{letter-spacing:0.03em;}.cls-79{letter-spacing:0.03em;}.cls-80,.cls-96{letter-spacing:0.03em;}.cls-81{letter-spacing:0em;}.cls-82{letter-spacing:0.03em;}.cls-118,.cls-83{font-size:9.86px;}.cls-83{fill:#d2232a;}.cls-84{letter-spacing:0.02em;}.cls-85{letter-spacing:0.03em;}.cls-86{letter-spacing:0.03em;}.cls-87{letter-spacing:0.03em;}.cls-88{fill:#ee2d28;letter-spacing:0.01em;}.cls-89{font-size:23.41px;}.cls-90{letter-spacing:0.02em;}.cls-91{letter-spacing:0.03em;}.cls-92{letter-spacing:0.03em;}.cls-94{letter-spacing:0em;}.cls-95{letter-spacing:0.02em;}.cls-97{letter-spacing:0.03em;}.cls-98{letter-spacing:-0.02em;}.cls-99{letter-spacing:0em;}.cls-100{letter-spacing:-0.05em;}.cls-101{letter-spacing:0.01em;}.cls-102{letter-spacing:-0.01em;}.cls-103{letter-spacing:0.06em;}.cls-104{letter-spacing:0.07em;}.cls-105{letter-spacing:0.07em;}.cls-106{letter-spacing:0.07em;}.cls-107{letter-spacing:0.13em;}.cls-108{letter-spacing:0.06em;}.cls-110{letter-spacing:0.11em;}.cls-111{letter-spacing:0.11em;}.cls-112{letter-spacing:0.11em;}.cls-113{letter-spacing:0.18em;}.cls-114{letter-spacing:0.11em;}.cls-115,.cls-120{stroke:#000;}.cls-115,.cls-116,.cls-120,.cls-121,.cls-122{stroke-miterlimit:10;}.cls-115,.cls-116{stroke-width:2px;}.cls-116{stroke:#5fc0b7;}.cls-117{font-size:10.02px;font-family:Courier;}.cls-121{stroke:#fff;}.cls-122{stroke:#231f20;}</style><clipPath id="clip-path"><rect class="cls-1" y="2.01" width="1425.47" height="716.99"/></clipPath></defs><title>time modified</title><text class="cls-2" transform="translate(12.62 49.94)"><tspan class="cls-3">Th</tspan><tspan class="cls-4" x="51.38" y="0">e </tspan><tspan class="cls-3" x="85.03" y="0">F</tspan><tspan class="cls-4" x="109.14" y="0">i</tspan><tspan class="cls-5" x="119.57" y="0">rs</tspan><tspan class="cls-4" x="156.63" y="0">t </tspan><tspan class="cls-6" x="181.35" y="0">T</tspan><tspan class="cls-4" x="207.11" y="0">ime</tspan><tspan x="278.01" y="0"> </tspan></text><text class="cls-2" transform="translate(12.62 102.94)"><tspan class="cls-7">K</tspan><tspan class="cls-4" x="26.96" y="0">eepe</tspan><tspan class="cls-3" x="123.91" y="0">r</tspan><tspan class="cls-4" x="139.1" y="0"> </tspan><tspan class="cls-3" x="148.91" y="0">A</tspan><tspan class="cls-4" x="178.08" y="0">pp</tspan><tspan x="228.95" y="0"> </tspan></text><text class="cls-2" transform="translate(12.62 155.93)"><tspan class="cls-3">Bas</tspan><tspan class="cls-4" x="72.9" y="0">ed o</tspan><tspan class="cls-5" x="156.77" y="0">n</tspan><tspan class="cls-4" x="181.28" y="0"> </tspan><tspan class="cls-3" x="191.1" y="0">Th</tspan><tspan class="cls-4" x="242.48" y="0">e</tspan><tspan x="266.32" y="0"> </tspan></text><text class="cls-2" transform="translate(12.62 208.92)"><tspan class="cls-3">Th</tspan><tspan class="cls-4" x="51.38" y="0">eo</tspan><tspan class="cls-3" x="99.83" y="0">ry</tspan><tspan class="cls-4" x="137.88" y="0" xml:space="preserve"> of</tspan><tspan x="187.1" y="0"> </tspan></text><text class="cls-2" transform="translate(12.62 261.92)"><tspan class="cls-8">R</tspan><tspan class="cls-9" x="27.46" y="0">el</tspan><tspan class="cls-5" x="61.76" y="0">a</tspan><tspan class="cls-4" x="85.14" y="0">ti</tspan><tspan class="cls-3" x="110.47" y="0">v</tspan><tspan class="cls-4" x="133.02" y="0">it</tspan><tspan x="158.36" y="0">y</tspan></text><text class="cls-10" transform="translate(352.94 126.27)"><tspan class="cls-11">Can</tspan><tspan class="cls-12" x="40.58" y="0"> </tspan><tspan class="cls-13" x="45.63" y="0">w</tspan><tspan class="cls-12" x="62.57" y="0">e m</tspan><tspan class="cls-11" x="98.72" y="0">a</tspan><tspan class="cls-14" x="110.74" y="0">k</tspan><tspan class="cls-12" x="121.93" y="0">e </tspan><tspan class="cls-11" x="139.23" y="0">a</tspan><tspan class="cls-12" x="151.25" y="0" xml:space="preserve"> time </tspan><tspan x="205.48" y="0">k</tspan><tspan class="cls-15" x="216.67" y="0">eepe</tspan><tspan class="cls-11" x="266.53" y="0">r</tspan><tspan x="274.33" y="0"> </tspan></text><text class="cls-10" transform="translate(352.94 154.61)"><tspan class="cls-15">t</tspan><tspan class="cls-11" x="7.67" y="0">ha</tspan><tspan class="cls-15" x="32.53" y="0">t b</tspan><tspan class="cls-11" x="58.44" y="0">as</tspan><tspan class="cls-12" x="81.71" y="0">ed o</tspan><tspan class="cls-11" x="124.85" y="0">n</tspan><tspan class="cls-12" x="137.45" y="0" xml:space="preserve"> t</tspan><tspan class="cls-11" x="150.17" y="0">h</tspan><tspan class="cls-15" x="163.01" y="0">e t</tspan><tspan class="cls-16" x="187.99" y="0">h</tspan><tspan class="cls-12" x="200.83" y="0">eo</tspan><tspan class="cls-16" x="225.75" y="0">ry</tspan><tspan class="cls-12" x="245.32" y="0" xml:space="preserve"> of</tspan><tspan x="270.63" y="0"> </tspan></text><text class="cls-17" transform="translate(352.94 182.95)">r<tspan class="cls-15" x="7.34" y="0">el</tspan><tspan class="cls-11" x="24.99" y="0">a</tspan><tspan class="cls-12" x="37.01" y="0">ti</tspan><tspan class="cls-11" x="50.04" y="0">v</tspan><tspan class="cls-15" x="61.63" y="0">it</tspan><tspan class="cls-11" x="74.67" y="0">y</tspan><tspan class="cls-14" x="86.43" y="0">?</tspan></text><text class="cls-18" transform="translate(451.2 182.95)"> </text><text class="cls-10" transform="translate(352.94 236.43)"><tspan class="cls-15">W</tspan><tspan class="cls-11" x="21.38" y="0">ha</tspan><tspan class="cls-15" x="46.24" y="0">t it </tspan><tspan class="cls-19" x="77.03" y="0">w</tspan><tspan class="cls-15" x="94.03" y="0">ill loo</tspan><tspan class="cls-16" x="145.91" y="0">k</tspan><tspan class="cls-20" x="157.62" y="0" xml:space="preserve"> li</tspan><tspan x="173.42" y="0">k</tspan><tspan class="cls-15" x="184.6" y="0">e</tspan><tspan class="cls-21" x="196.86" y="0">,</tspan><tspan class="cls-12" x="202.09" y="0"> </tspan><tspan class="cls-11" x="207.13" y="0">wh</tspan><tspan class="cls-12" x="236.97" y="0">ic</tspan><tspan class="cls-11" x="254.34" y="0">h</tspan><tspan x="267.18" y="0"> </tspan></text><text class="cls-22" transform="translate(352.94 264.77)">f<tspan class="cls-15" x="7.14" y="0">e</tspan><tspan class="cls-11" x="19.4" y="0">a</tspan><tspan class="cls-12" x="31.42" y="0">t</tspan><tspan class="cls-16" x="39.09" y="0">u</tspan><tspan class="cls-23" x="51.69" y="0">r</tspan><tspan class="cls-12" x="59.03" y="0">e</tspan><tspan class="cls-11" x="71.29" y="0">s</tspan><tspan class="cls-12" x="82.54" y="0" xml:space="preserve"> it </tspan><tspan class="cls-16" x="105.67" y="0">n</tspan><tspan class="cls-12" x="118.28" y="0">eed </tspan><tspan class="cls-24" x="161.01" y="0">t</tspan><tspan class="cls-12" x="168.39" y="0">o </tspan><tspan class="cls-11" x="186.1" y="0">ha</tspan><tspan class="cls-25" x="210.96" y="0">v</tspan><tspan class="cls-12" x="222.25" y="0">e</tspan><tspan class="cls-21" x="234.51" y="0">,</tspan><tspan class="cls-12" x="239.74" y="0"> </tspan><tspan class="cls-11" x="244.78" y="0">wha</tspan><tspan class="cls-15" x="286.64" y="0">t</tspan><tspan class="cls-26" x="294.31" y="0"> </tspan></text><text class="cls-10" transform="translate(352.94 293.11)"><tspan class="cls-11">k</tspan><tspan class="cls-15" x="11.72" y="0">i</tspan><tspan class="cls-11" x="17.08" y="0">n</tspan><tspan class="cls-12" x="29.68" y="0">d of p</tspan><tspan class="cls-23" x="86.29" y="0">r</tspan><tspan class="cls-12" x="93.64" y="0">oblem it </tspan><tspan class="cls-11" x="179.1" y="0">s</tspan><tspan class="cls-12" x="190.35" y="0">ol</tspan><tspan class="cls-27" x="208.39" y="0">v</tspan><tspan class="cls-12" x="219.68" y="0">e</tspan><tspan x="231.94" y="0">d</tspan></text><text class="cls-18" transform="translate(598.19 293.11)">?</text><text class="cls-28" transform="translate(352.94 337.08)"><tspan class="cls-29">These q</tspan><tspan class="cls-30" x="43.52" y="0">u</tspan><tspan class="cls-29" x="50.31" y="0">esti</tspan><tspan class="cls-31" x="69.77" y="0">on</tspan><tspan class="cls-29" x="83.41" y="0">s m</tspan><tspan class="cls-31" x="102.45" y="0">o</tspan><tspan class="cls-29" x="109.3" y="0">ti</tspan><tspan class="cls-32" x="116.12" y="0">v</tspan><tspan class="cls-31" x="122.25" y="0">a</tspan><tspan class="cls-33" x="128.74" y="0">t</tspan><tspan class="cls-34" x="132.58" y="0">e me </tspan><tspan class="cls-33" x="161.63" y="0">t</tspan><tspan class="cls-31" x="165.46" y="0">o</tspan><tspan class="cls-29" x="172.31" y="0"> </tspan><tspan class="cls-35" x="175.13" y="0">e</tspan><tspan class="cls-34" x="181.62" y="0">xpl</tspan><tspan class="cls-31" x="197.57" y="0">o</tspan><tspan x="204.42" y="0">r</tspan><tspan class="cls-29" x="208.22" y="0">e the p</tspan><tspan class="cls-31" x="245.08" y="0">o</tspan><tspan class="cls-29" x="251.93" y="0">ssibilit</tspan><tspan class="cls-31" x="286.35" y="0">y</tspan><tspan class="cls-29" x="292.65" y="0"> </tspan><tspan class="cls-31" x="295.47" y="0">of</tspan><tspan x="306.31" y="0"> </tspan></text><text class="cls-28" transform="translate(352.94 354.33)"><tspan class="cls-34">time </tspan><tspan x="26.44" y="0">k</tspan><tspan class="cls-34" x="32.42" y="0">eeper b</tspan><tspan class="cls-30" x="73.33" y="0">a</tspan><tspan class="cls-29" x="79.83" y="0">se</tspan><tspan class="cls-30" x="92.46" y="0">d</tspan><tspan class="cls-29" x="99.59" y="0"> </tspan><tspan class="cls-31" x="102.41" y="0">on</tspan><tspan class="cls-29" x="116.06" y="0" xml:space="preserve"> the the</tspan><tspan class="cls-30" x="156.8" y="0">o</tspan><tspan class="cls-34" x="163.65" y="0">r</tspan><tspan class="cls-30" x="167.74" y="0">y</tspan><tspan class="cls-34" x="174.03" y="0"> </tspan><tspan class="cls-30" x="176.85" y="0">of</tspan><tspan class="cls-29" x="187.69" y="0"> </tspan><tspan class="cls-36" x="190.51" y="0">r</tspan><tspan class="cls-29" x="194.31" y="0">el</tspan><tspan class="cls-30" x="203.72" y="0">a</tspan><tspan class="cls-34" x="210.22" y="0">ti</tspan><tspan class="cls-31" x="217.03" y="0">v</tspan><tspan class="cls-29" x="223.29" y="0">it</tspan><tspan class="cls-37" x="230.11" y="0">y</tspan><tspan x="235.5" y="0">.</tspan></text><text class="cls-28" transform="translate(352.94 25.76)"><tspan class="cls-29">Ei</tspan><tspan class="cls-30" x="9.91" y="0">n</tspan><tspan class="cls-29" x="16.71" y="0">s</tspan><tspan class="cls-33" x="22.74" y="0">t</tspan><tspan class="cls-34" x="26.57" y="0">ei</tspan><tspan class="cls-30" x="35.99" y="0">n</tspan><tspan class="cls-34" x="42.79" y="0"> </tspan><tspan class="cls-30" x="45.61" y="0">un</tspan><tspan x="59.21" y="0">r</tspan><tspan class="cls-34" x="63" y="0">e</tspan><tspan class="cls-30" x="69.61" y="0">a</tspan><tspan class="cls-35" x="76.1" y="0">v</tspan><tspan class="cls-30" x="82.23" y="0">a</tspan><tspan class="cls-34" x="88.72" y="0">l the </tspan><tspan class="cls-38" x="114.73" y="0">f</tspan><tspan class="cls-31" x="118.36" y="0">ac</tspan><tspan class="cls-34" x="131.33" y="0">t </tspan><tspan class="cls-31" x="138.16" y="0">of</tspan><tspan class="cls-29" x="149" y="0" xml:space="preserve"> time</tspan><tspan class="cls-39" x="175.43" y="0">.</tspan><tspan class="cls-29" x="178.28" y="0"> </tspan><tspan class="cls-31" x="181.1" y="0">I</tspan><tspan class="cls-34" x="184.18" y="0">t is q</tspan><tspan class="cls-30" x="209.73" y="0">u</tspan><tspan class="cls-34" x="216.53" y="0">i</tspan><tspan class="cls-33" x="219.34" y="0">t</tspan><tspan class="cls-29" x="223.17" y="0">e </tspan><tspan class="cls-30" x="232.6" y="0">d</tspan><tspan class="cls-29" x="239.73" y="0">i</tspan><tspan class="cls-31" x="242.54" y="0">f</tspan><tspan x="246.53" y="0">f</tspan><tspan class="cls-34" x="250.21" y="0">e</tspan><tspan x="256.82" y="0">r</tspan><tspan class="cls-34" x="260.61" y="0">e</tspan><tspan class="cls-30" x="267.22" y="0">n</tspan><tspan class="cls-29" x="274.02" y="0">t th</tspan><tspan class="cls-30" x="291.79" y="0">an</tspan><tspan x="305.08" y="0"> </tspan></text><text class="cls-28" transform="translate(352.94 43)"><tspan class="cls-34">the t</tspan><tspan class="cls-35" x="24.38" y="0">r</tspan><tspan class="cls-30" x="28.36" y="0">ad</tspan><tspan class="cls-34" x="41.98" y="0">iti</tspan><tspan class="cls-31" x="51.61" y="0">ona</tspan><tspan class="cls-34" x="71.75" y="0">l </tspan><tspan class="cls-30" x="77.38" y="0">und</tspan><tspan class="cls-29" x="98.1" y="0">ers</tspan><tspan class="cls-40" x="114.83" y="0">t</tspan><tspan class="cls-30" x="118.79" y="0">and</tspan><tspan class="cls-29" x="139.21" y="0">i</tspan><tspan class="cls-30" x="142.02" y="0">n</tspan><tspan class="cls-34" x="148.82" y="0">g </tspan><tspan class="cls-31" x="158.7" y="0">of</tspan><tspan class="cls-34" x="169.54" y="0" xml:space="preserve"> time</tspan><tspan class="cls-39" x="195.97" y="0">.</tspan><tspan class="cls-29" x="198.82" y="0"> </tspan><tspan class="cls-30" x="201.64" y="0">A</tspan><tspan class="cls-29" x="209.72" y="0">ll the time </tspan><tspan x="264.97" y="0">k</tspan><tspan class="cls-34" x="270.95" y="0">eeper</tspan><tspan x="301.92" y="0"> </tspan></text><text class="cls-28" transform="translate(352.94 60.25)"><tspan class="cls-29">we </tspan><tspan class="cls-30" x="18.54" y="0">u</tspan><tspan class="cls-29" x="25.33" y="0">se </tspan><tspan x="40.79" y="0">f</tspan><tspan class="cls-31" x="44.47" y="0">o</tspan><tspan class="cls-29" x="51.32" y="0">r </tspan><tspan class="cls-30" x="58.23" y="0">no</tspan><tspan class="cls-29" x="71.88" y="0">w is </tspan><tspan class="cls-30" x="95.47" y="0">d</tspan><tspan class="cls-34" x="102.6" y="0">esig</tspan><tspan class="cls-30" x="125.11" y="0">n</tspan><tspan class="cls-34" x="131.91" y="0">e</tspan><tspan class="cls-30" x="138.51" y="0">d</tspan><tspan class="cls-29" x="145.64" y="0" xml:space="preserve"> b</tspan><tspan class="cls-30" x="155.59" y="0">a</tspan><tspan class="cls-29" x="162.08" y="0">se</tspan><tspan class="cls-30" x="174.71" y="0">d</tspan><tspan class="cls-29" x="181.84" y="0"> </tspan><tspan class="cls-31" x="184.66" y="0">on</tspan><tspan class="cls-34" x="198.31" y="0" xml:space="preserve"> the t</tspan><tspan class="cls-35" x="225.51" y="0">r</tspan><tspan class="cls-31" x="229.49" y="0">ad</tspan><tspan class="cls-29" x="243.11" y="0">iti</tspan><tspan class="cls-31" x="252.74" y="0">ona</tspan><tspan class="cls-29" x="272.88" y="0">l</tspan><tspan x="275.69" y="0"> </tspan></text><text class="cls-28" transform="translate(352.94 77.5)"><tspan class="cls-30">und</tspan><tspan class="cls-29" x="20.73" y="0">ers</tspan><tspan class="cls-40" x="37.45" y="0">t</tspan><tspan class="cls-30" x="41.41" y="0">and</tspan><tspan class="cls-29" x="61.83" y="0">i</tspan><tspan class="cls-30" x="64.64" y="0">n</tspan><tspan class="cls-34" x="71.44" y="0">g </tspan><tspan class="cls-31" x="81.32" y="0">of</tspan><tspan class="cls-29" x="92.16" y="0" xml:space="preserve"> time</tspan><tspan x="118.6" y="0">.</tspan></text><text class="cls-41" transform="translate(12.62 455.76)">Un<tspan class="cls-42" x="44.26" y="0">i</tspan><tspan x="53.54" y="0">que</tspan><tspan class="cls-43" x="113.49" y="0"> </tspan><tspan class="cls-44" x="121.42" y="0">F</tspan><tspan x="140.27" y="0">eatu</tspan><tspan class="cls-45" x="211.7" y="0">r</tspan><tspan class="cls-46" x="224.38" y="0">e</tspan><tspan class="cls-47" x="243.73" y="0">s</tspan></text><text class="cls-48" transform="translate(752.67 40.73)"><tspan class="cls-42">P</tspan><tspan class="cls-49" x="22.97" y="0">r</tspan><tspan class="cls-42" x="37" y="0">obl</tspan><tspan class="cls-50" x="89.84" y="0">em</tspan><tspan class="cls-42" x="139.27" y="0" xml:space="preserve"> Sol</tspan><tspan class="cls-50" x="204.41" y="0">ve</tspan><tspan x="243.17" y="0">d</tspan></text><g class="cls-51"><path d="M12.62,561.16h8.87v-32H14.18v-5.51a23.63,23.63,0,0,0,9.18-4h5.37v41.45h7.81v7.19H12.62Z"/><path d="M44.65,561.16h8.87v-32h-7.3v-5.51a23.76,23.76,0,0,0,9.18-4h5.37v41.45h7.8v7.19H44.65Z"/><path d="M80.68,557.34c2.63,0,4.63,2.52,4.63,6s-2,6-4.63,6-4.68-2.52-4.68-6,2.06-6,4.68-6m0-26.16c2.63,0,4.63,2.52,4.63,6s-2,6-4.63,6-4.68-2.52-4.68-6,2.06-6,4.68-6"/><path d="M111.84,543.8c0-13.77-2.74-18.13-6.62-18.13S98.61,530,98.61,543.8s2.81,18.59,6.61,18.59,6.62-4.82,6.62-18.59m-20.1,0c0-16.44,5.24-25,13.48-25s13.49,8.64,13.49,25-5.24,25.47-13.49,25.47-13.48-9-13.48-25.47"/><path d="M123.64,563.23c11.06-13.08,18-21.65,18-29.07,0-5.12-2.31-8.41-6.56-8.41-3.06,0-5.62,2.52-7.74,5.43l-4-4.9c3.62-4.74,7.25-7.49,12.68-7.49,7.62,0,12.55,5.89,12.55,14.91,0,8.65-6.56,17.52-14.43,27.69,2.07-.23,4.69-.53,6.62-.53h9.75v7.49H123.64Z"/></g><rect class="cls-52" x="157.42" y="559.93" width="3.77" height="2.31"/><g class="cls-51"><path class="cls-52" d="M167.6,559.19c0-5-.7-6.52-1.68-6.52s-1.68,1.56-1.68,6.52.71,6.69,1.68,6.69,1.68-1.74,1.68-6.69m-5.11,0c0-5.92,1.34-9,3.43-9s3.43,3.11,3.43,9-1.34,9.16-3.43,9.16-3.43-3.24-3.43-9.16"/><path class="cls-52" d="M172.18,564.06c.67,0,1.18.91,1.18,2.15s-.51,2.14-1.18,2.14-1.18-.9-1.18-2.14.52-2.15,1.18-2.15"/><path class="cls-52" d="M180.1,559.19c0-5-.7-6.52-1.68-6.52s-1.68,1.56-1.68,6.52.71,6.69,1.68,6.69,1.68-1.74,1.68-6.69m-5.11,0c0-5.92,1.33-9,3.43-9s3.42,3.11,3.42,9-1.33,9.16-3.42,9.16-3.43-3.24-3.43-9.16"/><path class="cls-52" d="M183.1,566.18c2.8-4.71,4.56-7.79,4.56-10.46,0-1.84-.58-3-1.66-3-.78,0-1.43.91-2,2l-1-1.76c.92-1.71,1.84-2.7,3.22-2.7,1.93,0,3.18,2.12,3.18,5.37s-1.66,6.3-3.66,10a12.53,12.53,0,0,1,1.68-.19h2.48V568H183.1Z"/><path class="cls-53" d="M319.66,537.78H229.54a6.3,6.3,0,0,1-6.28-6.28V522a6.3,6.3,0,0,1,6.28-6.28h90.12A6.31,6.31,0,0,1,326,522v9.46a6.31,6.31,0,0,1-6.29,6.28"/><path class="cls-54" d="M319.66,567.38H229.54a6.31,6.31,0,0,1-6.28-6.29v-9.45a6.31,6.31,0,0,1,6.28-6.29h90.12a6.31,6.31,0,0,1,6.29,6.29v9.45a6.31,6.31,0,0,1-6.29,6.29"/><path class="cls-55" d="M319.66,596.31H229.54a6.3,6.3,0,0,1-6.28-6.28v-9.46a6.3,6.3,0,0,1,6.28-6.28h90.12a6.3,6.3,0,0,1,6.29,6.28V590a6.31,6.31,0,0,1-6.29,6.28"/></g><text class="cls-56" transform="translate(252.48 531.28)">Study</text><text class="cls-56" transform="translate(246.93 559.69)">Fitness</text><text class="cls-56" transform="translate(252.38 588.62)">Lunch</text><g class="cls-51"><path class="cls-57" d="M432.2,554.25a2.71,2.71,0,1,1-2.71-2.71,2.71,2.71,0,0,1,2.71,2.71"/><path class="cls-58" d="M375.6,556.36A22.42,22.42,0,0,1,396.51,534V513.15a43.28,43.28,0,0,0-41,51.17l20.24-5.42a21.38,21.38,0,0,1-.15-2.54"/><path class="cls-59" d="M385.52,575,373.58,592a42.94,42.94,0,0,0,22.93,7.54V578.73a22.3,22.3,0,0,1-11-3.75"/><path class="cls-60" d="M376.29,561.88l-20.12,5.39a43.27,43.27,0,0,0,15,23l12-17.12a22.31,22.31,0,0,1-6.84-11.24"/><path class="cls-61" d="M399.53,578.73v20.85a43.22,43.22,0,0,0,33.69-18.09l-17-12.11a22.37,22.37,0,0,1-16.74,9.35"/><path class="cls-55" d="M408.68,536.63l12-17.11a43,43,0,0,0-21.13-6.37V534a22.27,22.27,0,0,1,9.15,2.63"/><path class="cls-62" d="M420.44,556.36a22.2,22.2,0,0,1-2.58,10.44l17,12.17a43.27,43.27,0,0,0-11.71-57.78l-11.94,17.07a22.35,22.35,0,0,1,9.2,18.1"/><path class="cls-63" d="M421.53,546.31a2.2,2.2,0,0,0,1.11.31c.63,0,1-.34,1-.82s-.26-.7-.9-.95-1.26-.68-1.26-1.35a1.37,1.37,0,0,1,1.54-1.29,2.22,2.22,0,0,1,1.06.23l-.17.5a2,2,0,0,0-.91-.22c-.65,0-.9.39-.9.71s.29.67.95.92,1.22.7,1.22,1.4-.55,1.38-1.67,1.38a2.46,2.46,0,0,1-1.22-.31Z"/><path class="cls-63" d="M425.82,542.65v1h.89v.47h-.89V546c0,.43.12.67.47.67a1.06,1.06,0,0,0,.36,0l0,.47a1.55,1.55,0,0,1-.56.09.86.86,0,0,1-.67-.26,1.28,1.28,0,0,1-.24-.9V544.1h-.53v-.47h.53v-.82Z"/><path class="cls-63" d="M430.28,546.12c0,.36,0,.67,0,.94h-.55l0-.56h0a1.32,1.32,0,0,1-1.14.63c-.54,0-1.18-.29-1.18-1.5v-2H428v1.9c0,.65.2,1.09.77,1.09a.89.89,0,0,0,.82-.57.79.79,0,0,0,.06-.32v-2.1h.62Z"/><path class="cls-63" d="M433.65,545a1.22,1.22,0,0,0,0-.26.92.92,0,0,0-.9-.72c-.64,0-1,.57-1,1.32s.34,1.27,1,1.27a.92.92,0,0,0,.91-.74,1.18,1.18,0,0,0,0-.27Zm.62-3v4.14c0,.31,0,.65,0,.89h-.56l0-.6h0a1.27,1.27,0,0,1-1.17.67,1.56,1.56,0,0,1-1.46-1.74,1.64,1.64,0,0,1,1.53-1.84,1.15,1.15,0,0,1,1,.53h0V542Z"/><path class="cls-63" d="M435.53,543.63l.75,2c.08.23.17.5.22.7h0c.06-.2.13-.46.22-.71l.68-2h.66l-.94,2.44a5.22,5.22,0,0,1-1.17,2.15,1.7,1.7,0,0,1-.77.4l-.15-.52a1.61,1.61,0,0,0,.54-.31,1.8,1.8,0,0,0,.52-.69.43.43,0,0,0,.05-.15.41.41,0,0,0,0-.16l-1.27-3.16Z"/></g><polygon class="cls-63" points="402.39 519.16 402.8 519.16 402.8 522.25 404.13 522.25 404.13 522.62 402.39 522.62 402.39 519.16"/><g class="cls-51"><path class="cls-63" d="M406.37,521.94c0,.26,0,.49,0,.68H406l0-.41h0a.81.81,0,0,1-.74.47c-.35,0-.77-.22-.77-1.09v-1.46h.41v1.38c0,.47.13.79.5.79a.64.64,0,0,0,.57-.64v-1.53h.41Z"/><path class="cls-63" d="M407,520.81c0-.26,0-.47,0-.68h.37l0,.41h0a.82.82,0,0,1,.74-.46c.31,0,.79.2.79,1v1.49h-.41v-1.43c0-.4-.13-.74-.52-.74a.59.59,0,0,0-.54.46.73.73,0,0,0,0,.22v1.49H407Z"/><path class="cls-63" d="M411.21,522.53a1.46,1.46,0,0,1-.65.14,1.13,1.13,0,0,1-1.11-1.27,1.21,1.21,0,0,1,1.2-1.32,1.24,1.24,0,0,1,.56.13l-.09.35a.86.86,0,0,0-.47-.12c-.51,0-.79.42-.79.94s.33.93.78.93a1.18,1.18,0,0,0,.5-.12Z"/><path class="cls-63" d="M411.68,519h.41v1.55h0a.74.74,0,0,1,.29-.32.83.83,0,0,1,.42-.12c.3,0,.78.2.78,1.06v1.48h-.41v-1.43c0-.4-.13-.74-.52-.74a.6.6,0,0,0-.54.45.51.51,0,0,0,0,.22v1.5h-.41Z"/><path class="cls-63" d="M423.07,558.79a1.61,1.61,0,0,0,.77.22c.61,0,.8-.39.79-.68,0-.49-.45-.7-.9-.7h-.27v-.35h.27c.34,0,.78-.18.78-.59s-.18-.53-.62-.53a1.34,1.34,0,0,0-.69.23l-.13-.34a1.73,1.73,0,0,1,.92-.27c.68,0,1,.41,1,.84a.86.86,0,0,1-.64.82h0a.9.9,0,0,1,.78.89c0,.56-.44,1-1.27,1a1.68,1.68,0,0,1-.91-.24Z"/><path class="cls-63" d="M425.86,555.52h.47v1.62h0a1,1,0,0,1,.34-.33,1,1,0,0,1,.48-.14c.35,0,.91.22.91,1.11v1.55h-.47v-1.49c0-.42-.16-.77-.6-.77a.67.67,0,0,0-.67.69v1.57h-.47Z"/><path class="cls-63" d="M429.83,559.33V559l.37-.36c.89-.85,1.29-1.3,1.3-1.82a.63.63,0,0,0-.7-.69,1.23,1.23,0,0,0-.74.3l-.15-.33a1.51,1.51,0,0,1,1-.36,1,1,0,0,1,1.07,1c0,.64-.47,1.16-1.2,1.87l-.28.26h1.56v.39Z"/><path class="cls-63" d="M433,557.6c0,.91.28,1.42.71,1.42s.72-.56.72-1.45-.22-1.42-.71-1.42-.72.5-.72,1.45m1.9-.05c0,1.19-.44,1.84-1.21,1.84s-1.15-.64-1.16-1.79.51-1.82,1.21-1.82,1.16.66,1.16,1.77"/><path class="cls-63" d="M435.48,557.44c0-.27,0-.49,0-.71h.42l0,.42h0a.92.92,0,0,1,.82-.48.77.77,0,0,1,.73.52h0a1,1,0,0,1,.29-.33.85.85,0,0,1,.57-.19c.34,0,.85.23.85,1.13v1.53h-.46v-1.47c0-.5-.18-.8-.56-.8a.61.61,0,0,0-.56.43.8.8,0,0,0,0,.24v1.6h-.46v-1.56c0-.41-.18-.71-.54-.71a.66.66,0,0,0-.59.47.85.85,0,0,0,0,.23v1.57h-.47Z"/><path class="cls-63" d="M404.44,527.56v-.95c0-.15,0-.3,0-.45h0a4,4,0,0,1-.23.42l-.7,1h.93Zm0,1.09v-.78h-1.33v-.26l1.28-1.82h.42v1.77h.4v.31h-.4v.78Z"/><path class="cls-63" d="M405.86,527.23c0,.74.22,1.17.58,1.17s.58-.47.58-1.2-.18-1.16-.58-1.16-.58.41-.58,1.19m1.55,0c0,1-.36,1.51-1,1.51s-.93-.53-.94-1.48.41-1.48,1-1.48,1,.53,1,1.45"/><path class="cls-63" d="M407.89,527.09a5,5,0,0,0,0-.57h.34l0,.34h0a.74.74,0,0,1,.67-.39.64.64,0,0,1,.61.42h0a.77.77,0,0,1,.23-.27.72.72,0,0,1,.47-.15c.29,0,.7.18.7.92v1.26h-.37v-1.21c0-.41-.15-.66-.47-.66a.49.49,0,0,0-.45.36.53.53,0,0,0,0,.19v1.32h-.38v-1.28c0-.34-.14-.59-.44-.59a.54.54,0,0,0-.48.39.63.63,0,0,0,0,.19v1.29h-.38Z"/></g><polygon class="cls-63" points="405.14 580.3 407.3 580.3 407.3 580.74 405.66 580.74 405.66 582.08 407.18 582.08 407.18 582.5 405.66 582.5 405.66 584.32 405.14 584.32 405.14 580.3"/><g class="cls-51"><path class="cls-63" d="M407.87,581.44h.53v2.88h-.53Zm.59-.81a.32.32,0,0,1-.34.32.31.31,0,0,1-.31-.32.33.33,0,1,1,.65,0"/><path class="cls-63" d="M409.9,580.61v.83h.75v.4h-.75v1.55c0,.36.1.56.39.56a1.89,1.89,0,0,0,.31,0l0,.39a1.33,1.33,0,0,1-.47.07.72.72,0,0,1-.56-.22,1.05,1.05,0,0,1-.2-.75v-1.57h-.45v-.4h.45v-.69Z"/><path class="cls-63" d="M411.24,582.22c0-.3,0-.54,0-.78h.46l0,.47h0a1.08,1.08,0,0,1,1-.54c.4,0,1,.24,1,1.23v1.72h-.53v-1.66c0-.47-.17-.85-.67-.85a.74.74,0,0,0-.7.53,1,1,0,0,0,0,.25v1.73h-.53Z"/><path class="cls-63" d="M416.38,582.6a.75.75,0,0,0-.73-.85.86.86,0,0,0-.8.85Zm-1.54.38a.93.93,0,0,0,1,1,2,2,0,0,0,.8-.15l.09.37a2.24,2.24,0,0,1-1,.18,1.34,1.34,0,0,1-1.42-1.45,1.4,1.4,0,0,1,1.35-1.56,1.22,1.22,0,0,1,1.2,1.36c0,.11,0,.19,0,.25Z"/><path class="cls-63" d="M417.47,583.79a1.34,1.34,0,0,0,.69.2c.38,0,.56-.19.56-.42s-.15-.39-.54-.54-.76-.47-.76-.81a.88.88,0,0,1,1-.85,1.51,1.51,0,0,1,.71.18l-.13.38a1.13,1.13,0,0,0-.59-.16c-.31,0-.48.17-.48.39s.17.34.55.49.75.44.75.87-.39.86-1.07.86a1.8,1.8,0,0,1-.82-.19Z"/><path class="cls-63" d="M419.83,583.79a1.37,1.37,0,0,0,.69.2c.38,0,.56-.19.56-.42s-.15-.39-.54-.54-.76-.47-.76-.81a.89.89,0,0,1,1-.85,1.46,1.46,0,0,1,.7.18l-.13.38a1.13,1.13,0,0,0-.59-.16c-.31,0-.48.17-.48.39s.17.34.55.49.75.44.75.87-.39.86-1.07.86a1.73,1.73,0,0,1-.81-.19Z"/></g><polygon class="cls-63" points="407.8 587.38 407.21 587.7 407.28 587.97 407.75 587.72 407.76 587.72 407.76 590.08 408.11 590.08 408.11 587.38 407.8 587.38"/><g class="cls-51"><path class="cls-63" d="M409.21,587.13h.37v1.25h0a.69.69,0,0,1,.26-.25.67.67,0,0,1,.37-.11c.27,0,.71.17.71.86v1.2h-.37v-1.16c0-.32-.12-.59-.47-.59a.53.53,0,0,0-.49.36.5.5,0,0,0,0,.18v1.21h-.37Z"/><path class="cls-63" d="M412.37,589.66a1.23,1.23,0,0,0,.6.17c.47,0,.62-.3.61-.52,0-.38-.34-.54-.7-.54h-.2v-.28h.2c.27,0,.61-.13.61-.45s-.14-.41-.48-.41a1,1,0,0,0-.54.18l-.09-.27a1.29,1.29,0,0,1,.7-.21c.54,0,.78.32.78.65a.67.67,0,0,1-.5.63h0a.71.71,0,0,1,.6.7c0,.43-.34.81-1,.81a1.36,1.36,0,0,1-.7-.19Z"/><path class="cls-63" d="M414.75,588.74c0,.7.21,1.1.54,1.1s.56-.43.56-1.12-.17-1.1-.55-1.1-.55.39-.55,1.12m1.46,0c0,.92-.34,1.43-.94,1.43s-.88-.5-.89-1.39.39-1.41.94-1.41.89.51.89,1.37"/><path class="cls-63" d="M416.67,588.61c0-.21,0-.38,0-.54H417l0,.32h0a.69.69,0,0,1,.63-.37.6.6,0,0,1,.57.41h0a.86.86,0,0,1,.22-.27.71.71,0,0,1,.45-.14c.26,0,.66.18.66.88v1.18h-.36v-1.14c0-.38-.14-.62-.44-.62a.49.49,0,0,0-.43.33,1,1,0,0,0,0,.19v1.24h-.35v-1.21c0-.31-.15-.55-.42-.55a.5.5,0,0,0-.46.37.48.48,0,0,0,0,.18v1.21h-.35Z"/><path class="cls-63" d="M363.48,572.91a3.54,3.54,0,0,1-1.17.21,2,2,0,0,1-1.42-.5,2,2,0,0,1-.53-1.42,1.91,1.91,0,0,1,2.06-2,2.26,2.26,0,0,1,.94.18l-.12.4a1.91,1.91,0,0,0-.83-.17,1.42,1.42,0,0,0-1.53,1.53,1.39,1.39,0,0,0,1.46,1.53,1.57,1.57,0,0,0,.66-.1v-1.13h-.78v-.39h1.26Z"/><path class="cls-63" d="M365.69,571.69c-.54,0-1.15.08-1.15.61a.44.44,0,0,0,.46.48.68.68,0,0,0,.66-.46.45.45,0,0,0,0-.16Zm.07,1.39,0-.34h0a1,1,0,0,1-.83.4.78.78,0,0,1-.84-.78c0-.66.59-1,1.64-1v-.05a.56.56,0,0,0-.62-.63,1.4,1.4,0,0,0-.71.2l-.11-.33a1.73,1.73,0,0,1,.89-.24c.84,0,1,.57,1,1.12v1a3.3,3.3,0,0,0,.05.65Z"/><path class="cls-63" d="M367,571.09c0-.28,0-.51,0-.74h.43l0,.44h0a.94.94,0,0,1,.86-.5.81.81,0,0,1,.77.55h0a1.23,1.23,0,0,1,.31-.36.94.94,0,0,1,.6-.19c.36,0,.89.24.89,1.18v1.61h-.48v-1.54c0-.53-.19-.84-.59-.84a.66.66,0,0,0-.59.45.93.93,0,0,0,0,.25v1.68h-.48v-1.63c0-.44-.19-.75-.57-.75a.68.68,0,0,0-.62.49,1,1,0,0,0,0,.25v1.64H367Z"/><path class="cls-63" d="M371.67,570.35h.5v2.73h-.5Zm.55-.76a.28.28,0,0,1-.31.3.29.29,0,0,1-.3-.3.3.3,0,0,1,.31-.31.29.29,0,0,1,.3.31"/><path class="cls-63" d="M373,571.09c0-.28,0-.51,0-.74h.44l0,.45h0a1,1,0,0,1,.9-.51c.38,0,1,.23,1,1.16v1.63h-.49v-1.57c0-.44-.17-.81-.64-.81a.71.71,0,0,0-.66.51.8.8,0,0,0,0,.23v1.64H373Z"/><path class="cls-63" d="M378,571.43a.8.8,0,0,0,0-.23.73.73,0,0,0-.7-.52c-.47,0-.81.4-.81,1s.27,1,.81,1a.73.73,0,0,0,.69-.51,1.17,1.17,0,0,0,0-.26Zm.51-1.08c0,.2,0,.42,0,.75v1.59a1.59,1.59,0,0,1-.39,1.24,1.46,1.46,0,0,1-1,.33,1.72,1.72,0,0,1-.9-.23l.12-.38a1.46,1.46,0,0,0,.8.22c.51,0,.88-.27.88-1v-.31h0a1,1,0,0,1-.87.46,1.23,1.23,0,0,1-1.16-1.33,1.31,1.31,0,0,1,1.23-1.45.92.92,0,0,1,.85.47h0l0-.41Z"/></g><polygon class="cls-63" points="368.38 577.85 368.37 577.85 367.7 578.2 367.61 577.82 368.44 577.39 368.88 577.39 368.88 581.07 368.38 581.07 368.38 577.85"/><g class="cls-51"><path class="cls-63" d="M370.42,577.05h.52v1.71h0a.9.9,0,0,1,.37-.35,1,1,0,0,1,.53-.14c.37,0,1,.22,1,1.17v1.63h-.51v-1.58c0-.44-.17-.81-.66-.81a.75.75,0,0,0-.69.5.58.58,0,0,0,0,.24v1.65h-.52Z"/></g><polygon class="cls-63" points="370.13 526.16 370.13 528.25 372.55 528.25 372.55 526.16 373.2 526.16 373.2 531.15 372.55 531.15 372.55 528.81 370.13 528.81 370.13 531.15 369.49 531.15 369.49 526.16 370.13 526.16"/><g class="cls-51"><path class="cls-63" d="M374.7,529.37c0,.78.45,1.38,1.09,1.38s1.08-.59,1.08-1.4c0-.61-.3-1.38-1.07-1.38s-1.1.72-1.1,1.4m2.84,0a1.75,1.75,0,0,1-1.78,1.9,1.7,1.7,0,0,1-1.72-1.84,1.75,1.75,0,0,1,1.78-1.9,1.69,1.69,0,0,1,1.72,1.84"/><path class="cls-63" d="M378.36,528.54a9.64,9.64,0,0,0,0-1h.58l0,.57h0a1.22,1.22,0,0,1,1.12-.65,1.07,1.07,0,0,1,1,.71h0a1.53,1.53,0,0,1,.4-.46,1.2,1.2,0,0,1,.8-.25c.47,0,1.17.31,1.17,1.55v2.11h-.63v-2c0-.69-.25-1.1-.78-1.1a.84.84,0,0,0-.77.59,1.09,1.09,0,0,0-.05.33v2.21h-.64V529c0-.57-.25-1-.75-1a.9.9,0,0,0-.81.65,1.13,1.13,0,0,0-.05.32v2.16h-.64Z"/><path class="cls-63" d="M386.82,529a.93.93,0,0,0-.9-1.06,1.08,1.08,0,0,0-1,1.06Zm-1.91.47a1.14,1.14,0,0,0,1.23,1.24,2.42,2.42,0,0,0,1-.18l.11.46a2.77,2.77,0,0,1-1.19.23,1.66,1.66,0,0,1-1.76-1.81,1.74,1.74,0,0,1,1.68-1.94,1.52,1.52,0,0,1,1.48,1.7c0,.13,0,.23,0,.3Z"/><path class="cls-63" d="M370.57,539.68v-1.89c0-.29,0-.59,0-.88h0c-.17.33-.31.57-.47.83l-1.38,1.93h1.85Zm0,2.15v-1.55h-2.63v-.5l2.53-3.61h.83v3.51h.79v.6h-.79v1.55Z"/><path class="cls-63" d="M372.92,535.64h.76v2.63h0a1.43,1.43,0,0,1,.55-.54,1.6,1.6,0,0,1,.78-.21c.57,0,1.47.34,1.47,1.8v2.51h-.76V539.4c0-.67-.25-1.25-1-1.25a1.09,1.09,0,0,0-1,.77.78.78,0,0,0-.06.36v2.55h-.76Z"/><path class="cls-63" d="M381.76,585.58a2.5,2.5,0,0,0,.42,0,1.23,1.23,0,0,0,1.36-1.36,1.13,1.13,0,0,0-1.29-1.23,2,2,0,0,0-.49,0Zm-.41-2.83a7.31,7.31,0,0,1,.88-.06,1.83,1.83,0,0,1,1.29.4,1.45,1.45,0,0,1,.45,1.15,1.69,1.69,0,0,1-.46,1.24,1.94,1.94,0,0,1-1.41.46c-.29,0-.54,0-.75,0Z"/><path class="cls-63" d="M384.5,583.61h.41v2.3h-.41ZM385,583a.24.24,0,0,1-.26.25.25.25,0,0,1-.26-.25.25.25,0,0,1,.27-.26.24.24,0,0,1,.25.26"/><path class="cls-63" d="M385.61,584.23c0-.23,0-.43,0-.62H386l0,.38h0a.85.85,0,0,1,.76-.43c.32,0,.81.19.81,1v1.37h-.41v-1.32c0-.37-.14-.68-.54-.68a.59.59,0,0,0-.56.42.65.65,0,0,0,0,.2v1.38h-.42Z"/><path class="cls-63" d="M388.24,584.23a6,6,0,0,0,0-.62h.37l0,.38h0a.83.83,0,0,1,.75-.43c.32,0,.82.19.82,1v1.37h-.42v-1.32c0-.37-.14-.68-.53-.68a.58.58,0,0,0-.56.42.64.64,0,0,0,0,.2v1.38h-.42Z"/><path class="cls-63" d="M392.33,584.54a.59.59,0,0,0-.58-.68.7.7,0,0,0-.64.68Zm-1.22.3a.73.73,0,0,0,.78.79,1.68,1.68,0,0,0,.64-.11l.07.29a1.75,1.75,0,0,1-.76.15,1.07,1.07,0,0,1-1.13-1.16,1.12,1.12,0,0,1,1.08-1.24,1,1,0,0,1,.95,1.08,1,1,0,0,1,0,.2Z"/><path class="cls-63" d="M393.25,584.33c0-.27,0-.5,0-.72h.37v.45h0a.71.71,0,0,1,.64-.5l.12,0V584h-.15a.57.57,0,0,0-.55.53,1.12,1.12,0,0,0,0,.2v1.22h-.42Z"/><path class="cls-63" d="M385,590.22v-.9c0-.14,0-.28,0-.42h0l-.23.4-.7.91H385Zm0,1v-.73h-1.32v-.24l1.27-1.72h.42v1.67h.39v.29h-.39v.73Z"/><path class="cls-63" d="M387.75,588.85h-1.08l-.11.7.23,0a1.22,1.22,0,0,1,.61.14.76.76,0,0,1,.41.7,1,1,0,0,1-1.06.92,1.39,1.39,0,0,1-.71-.17l.1-.27a1.44,1.44,0,0,0,.61.14.61.61,0,0,0,.67-.58c0-.35-.25-.6-.82-.6a3.46,3.46,0,0,0-.39,0l.18-1.29h1.36Z"/><path class="cls-63" d="M388.42,589.78a4.7,4.7,0,0,0,0-.55h.34l0,.33h0a.75.75,0,0,1,.67-.37.63.63,0,0,1,.6.4h0a.87.87,0,0,1,.24-.26.77.77,0,0,1,.47-.14c.28,0,.69.17.69.87v1.18h-.37v-1.13c0-.39-.15-.62-.46-.62a.5.5,0,0,0-.46.33,1,1,0,0,0,0,.18v1.24h-.37V590c0-.32-.15-.55-.45-.55a.51.51,0,0,0-.47.36.57.57,0,0,0,0,.18v1.21h-.38Z"/></g><polygon class="cls-63" points="525.33 512.72 470.21 541.94 470.21 591.61 485.99 582.58 485.99 541.43 525.01 520.74 525.33 512.72"/><polygon class="cls-64" points="526.23 511.28 469.37 541.43 469.37 593.07 485.99 583.55 485.99 582.58 470.21 591.61 470.21 541.94 525.33 512.72 525 520.74 525.87 520.28 526.23 511.28"/><path class="cls-63" d="M542,512.71l-16.12,8.55-.36,9,16.12-8.55ZM504.42,573l-17.59,10.07v8.54l17.59-10.07Z"/><polygon class="cls-63" points="524.97 521.72 486.83 541.94 486.83 582.1 504.42 572.02 504.42 541.43 524.61 530.73 524.97 521.72"/><path class="cls-65" d="M525.83,521.26l-.86.46-.36,9,.86-.46ZM504.42,572l-17.59,10.07v1L504.42,573Z"/><path class="cls-64" d="M542.85,511.28l-17,9,0,1L542,512.72l-.36,9,.86-.45Zm-38.43,70.26-17.59,10.07v-8.54l-.84.48v9.52l18.43-10.56Z"/><polygon class="cls-64" points="525.01 520.74 485.99 541.43 485.99 582.58 486.83 582.09 486.83 541.94 524.97 521.72 525.01 520.74"/><path class="cls-66" d="M525.87,520.28l-.86.46,0,1,.86-.46Zm-39,61.81-.84.49v1l.84-.48Z"/><path class="cls-63" d="M560.38,512.71l-18,9.53L542,532.43l18-9.53ZM521,573l-15.77,9v9.58l15.77-9Z"/><path class="cls-63" d="M541.55,522.7l-16.12,8.54-.4,10.19,16.11-8.54ZM521,563.48l-15.77,9v8.55L521,572Z"/><polygon class="cls-63" points="524.57 531.7 505.27 541.94 505.27 571.54 521.04 562.51 521.04 543.54 524.16 541.89 524.57 531.7"/><path class="cls-67" d="M525.43,531.25l-.86.45-.41,10.19.87-.46ZM521,562.51l-15.77,9v1l15.77-9Z"/><path class="cls-65" d="M542.41,522.24l-.86.46-.41,10.19.86-.46ZM521,572l-15.77,9v1L521,573Z"/><path class="cls-64" d="M561.28,511.28l-18.83,10,0,1,18-9.53L560,522.9l.86-.45Zm-56,70.75-.85.48v10.55L521,583.55v-1l-15.77,9Z"/><path class="cls-64" d="M541.59,521.72l-16.12,8.55,0,1,16.12-8.54Zm-36.32,50.79-.85.49v8.54l.85-.48Z"/><polygon class="cls-64" points="524.61 530.73 504.42 541.43 504.42 572.02 505.27 571.54 505.27 541.94 524.57 531.7 524.61 530.73"/><path class="cls-68" d="M525.47,530.27l-.86.46,0,1,.86-.45Zm-20.2,41.27-.85.48v1l.85-.49Z"/><path class="cls-66" d="M542.45,521.27l-.86.45,0,1,.86-.46Zm-37.18,59.79-.85.48v1l.85-.48Z"/><path class="cls-63" d="M577,514.83l-16.2,8.59-.4,10,16.2-8.59Zm-38.43,58.69-16.68,9.55v10.66l16.68-9.56Z"/><path class="cls-63" d="M559.93,523.88l-18,9.53-.39,10,18-9.53ZM538.57,563l-16.68,9.55v9.58l16.68-9.55Z"/><polygon class="cls-63" points="541.1 533.86 524.99 542.41 524.23 561.43 524.22 561.66 521.89 563 521.89 571.54 538.57 561.99 538.57 544.98 540.7 543.85 541.1 533.86"/><polygon class="cls-63" points="524.12 542.87 521.89 544.05 521.89 562.02 523.39 561.16 524.12 542.87"/><polygon class="cls-69" points="524.99 542.41 524.13 542.87 523.39 561.16 521.89 562.02 521.89 563 524.22 561.66 524.23 561.43 524.99 542.41"/><path class="cls-67" d="M542,533.41l-.86.45-.4,10,.87-.46ZM538.57,562l-16.68,9.55v1L538.57,563Z"/><path class="cls-65" d="M560.8,523.42l-.87.46-.4,10,.87-.46Zm-22.23,49.12-16.68,9.55v1l16.68-9.55Z"/><path class="cls-64" d="M577.9,513.4l-17.07,9.05,0,1,16.2-8.59-.4,10,.86-.46Zm-56,69.67-.85.48v11.63l17.53-10v-1l-16.68,9.56Z"/><path class="cls-64" d="M560,522.9l-18,9.53,0,1,18-9.53Zm-38.08,49.61L521,573v9.58l.85-.49Z"/><path class="cls-64" d="M541.14,532.89,525,541.43l0,1,16.11-8.55ZM521.89,563l-.85.48V572l.85-.48Z"/><polygon class="cls-64" points="524.16 541.89 521.04 543.54 521.04 562.51 521.89 562.02 521.89 544.05 524.13 542.87 524.16 541.89"/><path class="cls-70" d="M525,541.43l-.87.46,0,1,.87-.46ZM521.89,562l-.85.49v1l.85-.48Z"/><path class="cls-68" d="M542,532.43l-.86.46,0,1,.86-.45Zm-20.11,39.11L521,572v1l.85-.49Z"/><path class="cls-66" d="M560.83,522.44l-.86.46,0,1,.87-.46Zm-38.94,59.65-.85.49v1l.85-.48Z"/><path class="cls-63" d="M594.52,516.26l-17.1,9.07-.48,12.1,17.1-9.07ZM557,574.59l-17.59,10.07v10.5L557,585.09Z"/><path class="cls-63" d="M576.56,525.79l-16.2,8.59-.48,12.1,16.2-8.6ZM557,563,539.41,573v10.66L557,573.62Z"/><polygon class="cls-63" points="559.5 534.84 541.53 544.37 540.85 561.43 540.84 561.66 539.41 562.48 539.41 572.06 557 561.99 557 548 559.01 546.93 559.5 534.84"/><polygon class="cls-63" points="540.67 544.82 539.41 545.49 539.41 561.51 540.01 561.16 540.67 544.82"/><polygon class="cls-69" points="541.53 544.37 540.67 544.82 540.01 561.16 539.41 561.51 539.41 562.48 540.84 561.66 540.85 561.43 541.53 544.37"/><path class="cls-67" d="M560.36,534.38l-.86.46L559,546.93l.87-.45ZM557,562l-17.59,10.07v1L557,563Z"/><path class="cls-65" d="M577.42,525.33l-.86.46-.48,12.1.86-.46ZM557,573.62l-17.59,10.07v1L557,574.59Z"/><path class="cls-64" d="M595.42,514.83l-18,9.53,0,1,17.1-9.07-.48,12.1.86-.46Zm-56,69.83-.84.49v11.46L557,586.06v-1l-17.59,10.07Z"/><path class="cls-64" d="M576.6,524.81l-16.2,8.59,0,1,16.2-8.59ZM539.41,573l-.84.49v10.65l.84-.48Z"/><path class="cls-64" d="M559.53,533.86l-18,9.53,0,1,18-9.53Zm-20.12,28.62-.84.48v9.58l.84-.48Z"/><polygon class="cls-64" points="540.71 543.85 538.57 544.98 538.57 561.99 539.41 561.51 539.41 545.49 540.67 544.82 540.71 543.85"/><path class="cls-70" d="M541.57,543.39l-.86.46,0,1,.86-.46Zm-2.16,18.12-.84.48v1l.84-.48Z"/><path class="cls-68" d="M560.4,533.4l-.87.46,0,1,.86-.46Zm-21,38.66-.84.48v1l.84-.48Z"/><path class="cls-66" d="M577.46,524.35l-.86.46,0,1,.86-.46Zm-38.05,59.34-.84.48v1l.84-.49Z"/><path class="cls-63" d="M613,519.29l-18.1,9.59-.46,11.72L612.49,531ZM577,574.59l-19.19,11v12.6l19.19-11Z"/><polygon class="cls-63" points="594 529.34 576.9 538.4 575.9 563.54 575.89 563.78 557.84 574.11 557.84 584.61 577.03 573.62 577.03 549.81 593.53 541.06 594 529.34"/><polygon class="cls-63" points="576.04 538.86 559.84 547.45 559.28 561.43 559.27 561.66 557.85 562.48 557.85 573.14 575.07 563.28 576.04 538.86"/><polygon class="cls-63" points="557.84 548.51 557.84 561.51 558.45 561.16 558.98 547.91 557.84 548.51"/><polygon class="cls-69" points="559.84 547.45 558.98 547.91 558.45 561.16 557.84 561.51 557.84 562.48 559.27 561.66 559.28 561.43 559.84 547.45"/><polygon class="cls-67" points="576.9 538.4 576.04 538.86 575.07 563.28 557.85 573.14 557.85 574.11 575.89 563.78 575.9 563.54 576.9 538.4"/><path class="cls-65" d="M594.86,528.88l-.86.46-.47,11.72.87-.46ZM577,573.62l-19.19,11v1l19.19-11Z"/><path class="cls-64" d="M613.86,517.85l-19,10,0,1L613,519.29,612.49,531l.86-.46Zm-56,67.73-.84.48v13.58l20-11.47v-1l-19.19,11Z"/><path class="cls-64" d="M594,528.36l-17.1,9.07,0,1,17.1-9.06Zm-36.2,45.75-.84.48v10.5l.84-.48Z"/><path class="cls-64" d="M576.08,537.88l-16.2,8.6,0,1,16.2-8.59Zm-18.24,24.6L557,563v10.66l.84-.48Z"/><polygon class="cls-64" points="559.01 546.93 557 548 557 561.99 557.85 561.51 557.85 548.51 558.98 547.91 559.01 546.93"/><path class="cls-70" d="M559.88,546.48l-.87.45,0,1,.87-.46Zm-2,15L557,562v1l.84-.48Z"/><path class="cls-68" d="M576.94,537.43l-.86.46,0,1,.86-.46Zm-19.1,35.71-.84.48v1l.84-.48Z"/><path class="cls-66" d="M594.9,527.9l-.86.46,0,1,.87-.46Zm-37.06,56.71-.84.48v1l.84-.48Z"/><polygon class="cls-63" points="632.98 521.1 613.31 531.53 611.86 568 611.85 568.23 577.87 587.69 577.87 599.99 631.05 569.54 632.98 521.1"/><polygon class="cls-63" points="612.45 531.99 594.36 541.58 593.43 564.98 593.42 565.21 577.87 574.11 577.87 586.72 611.02 567.73 612.45 531.99"/><polygon class="cls-63" points="593.5 542.04 577.87 550.32 577.87 573.14 592.59 564.71 593.5 542.04"/><polygon class="cls-67" points="594.36 541.58 593.5 542.03 592.59 564.71 577.87 573.14 577.87 574.11 593.42 565.21 593.43 564.98 594.36 541.58"/><polygon class="cls-65" points="613.31 531.53 612.45 531.99 611.02 567.73 577.87 586.72 577.87 587.69 611.85 568.23 611.86 568 613.31 531.53"/><polygon class="cls-64" points="633.88 519.66 613.35 530.55 613.31 531.53 632.98 521.1 631.05 569.54 577.87 599.99 577.87 587.69 577.03 588.17 577.03 601.45 631.88 570.04 631.88 569.81 633.88 519.66"/><polygon class="cls-64" points="612.49 531.01 594.4 540.6 594.36 541.58 612.45 531.99 612.49 531.01"/><polygon class="cls-64" points="593.53 541.06 577.03 549.81 577.03 573.62 577.87 573.14 577.87 550.32 593.5 542.04 593.53 541.06"/><polygon class="cls-68" points="593.53 541.06 593.5 542.04 594.36 541.58 594.4 540.6 593.53 541.06"/><polygon class="cls-66" points="612.49 531.01 612.45 531.99 613.31 531.53 613.35 530.55 612.49 531.01"/><polygon class="cls-64" points="577.03 574.6 577.03 587.2 577.87 586.72 577.87 574.11 577.03 574.6"/><polygon class="cls-68" points="577.03 573.62 577.03 574.6 577.87 574.11 577.87 573.14 577.03 573.62"/><polygon class="cls-66" points="577.03 587.2 577.03 588.17 577.87 587.69 577.87 586.72 577.03 587.2"/><text class="cls-71" transform="translate(12.62 488.26)"><tspan class="cls-72">Sh</tspan><tspan class="cls-73" x="18.41" y="0">o</tspan><tspan class="cls-72" x="27.06" y="0">w</tspan><tspan class="cls-74" x="38.78" y="0"> </tspan><tspan class="cls-75" x="42.16" y="0">T</tspan><tspan class="cls-76" x="51.14" y="0">im</tspan><tspan class="cls-72" x="67.79" y="0">e</tspan><tspan class="cls-76" x="76.21" y="0"> </tspan><tspan class="cls-72" x="79.59" y="0">D</tspan><tspan class="cls-76" x="90.27" y="0">i</tspan><tspan class="cls-72" x="94.04" y="0">la</tspan><tspan class="cls-76" x="106.16" y="0">ti</tspan><tspan class="cls-77" x="115.32" y="0">o</tspan><tspan x="124.01" y="0">n</tspan></text><text class="cls-28" transform="translate(12.62 605.78)"><tspan class="cls-78">The </tspan><tspan class="cls-79" x="24.07" y="0">S</tspan><tspan class="cls-31" x="31.75" y="0">t</tspan><tspan class="cls-80" x="35.77" y="0">anda</tspan><tspan class="cls-81" x="62.93" y="0">r</tspan><tspan class="cls-80" x="66.79" y="0">d</tspan><tspan class="cls-78" x="73.98" y="0"> </tspan><tspan class="cls-32" x="76.86" y="0">T</tspan><tspan class="cls-82" x="84.2" y="0">im</tspan><tspan x="97.33" y="0">e</tspan></text><text class="cls-83" transform="translate(150.32 585.43)"><tspan class="cls-84">T</tspan><tspan class="cls-74" x="5.88" y="0">ime </tspan><tspan class="cls-85" x="24.01" y="0">d</tspan><tspan class="cls-86" x="29.77" y="0">il</tspan><tspan class="cls-85" x="34.36" y="0">a</tspan><tspan class="cls-86" x="39.61" y="0">ti</tspan><tspan class="cls-87" x="45.16" y="0">o</tspan><tspan x="50.68" y="0">n</tspan></text><text class="cls-88" transform="translate(1054.36 237.53)">T<tspan class="cls-79" x="7.56" y="0">i</tspan><tspan class="cls-78" x="10.88" y="0">me</tspan><tspan class="cls-80" x="29.07" y="0" xml:space="preserve"> Di</tspan><tspan class="cls-78" x="44.19" y="0">lat</tspan><tspan class="cls-79" x="59.37" y="0">io</tspan><tspan class="cls-36" x="70.12" y="0">n</tspan></text><text class="cls-28" transform="translate(755.77 181.5)"><tspan class="cls-79">S</tspan><tspan class="cls-31" x="7.68" y="0">t</tspan><tspan class="cls-79" x="11.7" y="0">anda</tspan><tspan class="cls-81" x="38.86" y="0">r</tspan><tspan class="cls-80" x="42.72" y="0">d</tspan><tspan class="cls-78" x="49.91" y="0" xml:space="preserve"> time whe</tspan><tspan class="cls-79" x="102.37" y="0">n</tspan><tspan class="cls-78" x="109.23" y="0"> </tspan><tspan class="cls-32" x="112.12" y="0">y</tspan><tspan class="cls-80" x="118.29" y="0">ou</tspan><tspan class="cls-78" x="132.06" y="0"> </tspan><tspan class="cls-80" x="134.94" y="0">f</tspan><tspan class="cls-82" x="138.99" y="0">i</tspan><tspan class="cls-79" x="141.86" y="0">n</tspan><tspan class="cls-78" x="148.72" y="0">ish </tspan><tspan class="cls-79" x="167.57" y="0">da</tspan><tspan class="cls-31" x="181.31" y="0">t</tspan><tspan class="cls-79" x="185.33" y="0">a</tspan><tspan class="cls-82" x="191.89" y="0"> </tspan><tspan class="cls-79" x="194.77" y="0">co</tspan><tspan class="cls-78" x="208.22" y="0">lle</tspan><tspan class="cls-80" x="220.63" y="0">c</tspan><tspan class="cls-78" x="227.17" y="0">ti</tspan><tspan class="cls-79" x="234.11" y="0">o</tspan><tspan x="241.02" y="0">n</tspan></text><text class="cls-28" transform="translate(757.66 295.16)"><tspan class="cls-78">The time sp</tspan><tspan class="cls-79" x="64.02" y="0">ac</tspan><tspan class="cls-82" x="77.12" y="0">e </tspan><tspan class="cls-79" x="86.67" y="0">af</tspan><tspan class="cls-81" x="97.27" y="0">f</tspan><tspan class="cls-78" x="101.02" y="0">e</tspan><tspan class="cls-80" x="107.69" y="0">c</tspan><tspan class="cls-78" x="114.23" y="0">t </tspan><tspan class="cls-35" x="121.18" y="0">b</tspan><tspan class="cls-79" x="128.19" y="0">y</tspan><tspan class="cls-78" x="134.55" y="0"> </tspan><tspan class="cls-35" x="137.43" y="0">y</tspan><tspan class="cls-80" x="143.6" y="0">ou</tspan><tspan class="cls-78" x="157.37" y="0"> </tspan><tspan class="cls-80" x="160.25" y="0">fu</tspan><tspan class="cls-78" x="171.16" y="0">rther m</tspan><tspan class="cls-35" x="210.34" y="0">ov</tspan><tspan class="cls-82" x="223.2" y="0">eme</tspan><tspan class="cls-79" x="246.79" y="0">n</tspan><tspan x="253.65" y="0">t</tspan></text><text class="cls-89" transform="translate(797.85 232.24)"><tspan class="cls-90">A</tspan><tspan class="cls-91" x="15.24" y="0">c</tspan><tspan class="cls-92" x="27.66" y="0">ti</tspan><tspan class="cls-91" x="40.85" y="0">v</tspan><tspan class="cls-92" x="52.86" y="0">itie</tspan><tspan x="84.17" y="0">s</tspan></text><text class="cls-93" transform="translate(730.79 631.96)">Thi<tspan class="cls-79" x="17.39" y="0">n</tspan><tspan x="24.25" y="0">k Di</tspan><tspan class="cls-80" x="45.05" y="0">f</tspan><tspan class="cls-81" x="49.1" y="0">f</tspan><tspan x="52.84" y="0">e</tspan><tspan class="cls-94" x="59.51" y="0">r</tspan><tspan x="63.37" y="0">e</tspan><tspan class="cls-79" x="70.04" y="0">n</tspan><tspan class="cls-36" x="76.9" y="0">t</tspan></text><text class="cls-28" transform="translate(862.93 631.96)"><tspan class="cls-78">U</tspan><tspan class="cls-79" x="8.94" y="0">nd</tspan><tspan class="cls-78" x="22.99" y="0">ers</tspan><tspan class="cls-31" x="39.9" y="0">t</tspan><tspan class="cls-80" x="43.92" y="0">and</tspan><tspan class="cls-78" x="64.52" y="0">i</tspan><tspan class="cls-80" x="67.39" y="0">n</tspan><tspan x="74.25" y="0">g</tspan></text><text class="cls-28" transform="translate(859.35 646.74)"><tspan class="cls-80">of</tspan><tspan class="cls-78" x="10.96" y="0" xml:space="preserve"> time </tspan><tspan class="cls-80" x="40.59" y="0">c</tspan><tspan class="cls-78" x="47.13" y="0">h</tspan><tspan class="cls-79" x="54.13" y="0">an</tspan><tspan class="cls-78" x="67.54" y="0">ge</tspan><tspan x="81.33" y="0">d</tspan></text><text class="cls-28" transform="translate(1026.4 668.24)"><tspan class="cls-78">Beh</tspan><tspan class="cls-79" x="21.47" y="0">av</tspan><tspan class="cls-82" x="34.34" y="0">i</tspan><tspan class="cls-79" x="37.21" y="0">o</tspan><tspan class="cls-82" x="44.12" y="0">r Ch</tspan><tspan class="cls-79" x="66.97" y="0">an</tspan><tspan class="cls-78" x="80.38" y="0">g</tspan><tspan x="87.5" y="0">e</tspan></text><text class="cls-93" transform="translate(1022.22 521.07)">Di<tspan class="cls-79" x="11.58" y="0">f</tspan><tspan class="cls-81" x="15.64" y="0">f</tspan><tspan class="cls-82" x="19.38" y="0">e</tspan><tspan class="cls-81" x="26.05" y="0">r</tspan><tspan class="cls-82" x="29.9" y="0">e</tspan><tspan class="cls-79" x="36.57" y="0">n</tspan><tspan x="43.43" y="0">t tim</tspan><tspan class="cls-36" x="67.58" y="0">e</tspan></text><text class="cls-28" transform="translate(1024.48 535.85)"><tspan class="cls-79">a</tspan><tspan class="cls-82" x="6.55" y="0">r</tspan><tspan class="cls-95" x="10.71" y="0">r</tspan><tspan class="cls-80" x="14.75" y="0">an</tspan><tspan class="cls-78" x="28.16" y="0">geme</tspan><tspan class="cls-80" x="58.88" y="0">n</tspan><tspan x="65.73" y="0">t</tspan></text><text class="cls-96" transform="translate(1197.03 601.95)">Inc<tspan class="cls-81" x="16.54" y="0">r</tspan><tspan class="cls-78" x="20.4" y="0">e</tspan><tspan x="27.06" y="0">a</tspan><tspan class="cls-97" x="33.62" y="0">s</tspan><tspan class="cls-36" x="39.71" y="0">e</tspan></text><text class="cls-28" transform="translate(1193.22 616.73)"><tspan class="cls-78">E</tspan><tspan class="cls-80" x="7.16" y="0">ff</tspan><tspan class="cls-78" x="15.26" y="0">i</tspan><tspan class="cls-80" x="18.13" y="0">c</tspan><tspan class="cls-78" x="24.68" y="0">ie</tspan><tspan class="cls-79" x="34.21" y="0">nc</tspan><tspan x="47.62" y="0">y</tspan></text><text class="cls-28" transform="translate(1344.99 653.84)"><tspan class="cls-78">High</tspan><tspan x="25.97" y="0"> </tspan></text><text class="cls-28" transform="translate(1326.71 668.63)"><tspan class="cls-82">Li</tspan><tspan class="cls-81" x="9.69" y="0">f</tspan><tspan class="cls-82" x="13.43" y="0">e</tspan><tspan class="cls-79" x="20.1" y="0">-</tspan><tspan class="cls-78" x="25.75" y="0">q</tspan><tspan class="cls-79" x="32.88" y="0">ua</tspan><tspan class="cls-82" x="46.29" y="0">lit</tspan><tspan x="56.1" y="0">y</tspan></text><text class="cls-28" transform="translate(755.76 93.57)"><tspan class="cls-81">1</tspan><tspan class="cls-98" x="5.52" y="0">.</tspan><tspan class="cls-78" x="8.43" y="0" xml:space="preserve"> Be </tspan><tspan class="cls-79" x="28.67" y="0">a</tspan><tspan class="cls-40" x="35.22" y="0">w</tspan><tspan class="cls-79" x="44.28" y="0">a</tspan><tspan class="cls-81" x="50.83" y="0">r</tspan><tspan class="cls-78" x="54.69" y="0">e </tspan><tspan class="cls-80" x="64.24" y="0">of</tspan><tspan class="cls-78" x="75.2" y="0" xml:space="preserve"> the </tspan><tspan class="cls-40" x="98.71" y="0">e</tspan><tspan class="cls-82" x="105.26" y="0">xis</tspan><tspan class="cls-31" x="120.36" y="0">t</tspan><tspan class="cls-79" x="124.38" y="0">anc</tspan><tspan class="cls-78" x="144.34" y="0">e </tspan><tspan x="153.89" y="0"> </tspan></text><text class="cls-28" transform="translate(912.73 93.57)"> </text><text class="cls-93" transform="translate(755.76 108.35)"><tspan xml:space="preserve">    </tspan><tspan class="cls-80" x="11.54" y="0">of</tspan><tspan x="22.49" y="0" xml:space="preserve"> time </tspan><tspan class="cls-79" x="52.12" y="0">d</tspan><tspan x="59.31" y="0">il</tspan><tspan class="cls-79" x="65.06" y="0">a</tspan><tspan x="71.61" y="0">ti</tspan><tspan class="cls-80" x="78.55" y="0">o</tspan><tspan class="cls-99" x="85.46" y="0">n</tspan></text><text class="cls-28" transform="translate(1186.86 87.86)"><tspan class="cls-79">2</tspan><tspan class="cls-98" x="7.34" y="0">.</tspan><tspan class="cls-78" x="10.25" y="0"> </tspan><tspan class="cls-100" x="13.13" y="0">T</tspan><tspan class="cls-40" x="19.7" y="0">r</tspan><tspan class="cls-79" x="23.74" y="0">ac</tspan><tspan class="cls-82" x="36.84" y="0">ki</tspan><tspan class="cls-79" x="46.04" y="0">n</tspan><tspan class="cls-82" x="52.9" y="0">g </tspan><tspan class="cls-79" x="62.91" y="0">and</tspan><tspan class="cls-78" x="83.52" y="0" xml:space="preserve"> es</tspan><tspan class="cls-31" x="99.16" y="0">t</tspan><tspan class="cls-79" x="103.18" y="0">a</tspan><tspan class="cls-78" x="109.73" y="0">blishi</tspan><tspan class="cls-79" x="138.62" y="0">n</tspan><tspan class="cls-82" x="145.48" y="0">g </tspan><tspan x="155.49" y="0"> </tspan></text><text class="cls-28" transform="translate(1345.41 89.86)"> </text><text class="cls-28" transform="translate(1364.27 89.86)"> </text><text class="cls-28" transform="translate(1367.53 89.86)"> </text><text class="cls-28" transform="translate(1186.86 102.65)"><tspan class="cls-78" xml:space="preserve">    the sepe</tspan><tspan class="cls-40" x="58.7" y="0">r</tspan><tspan class="cls-79" x="62.75" y="0">a</tspan><tspan class="cls-101" x="69.3" y="0">t</tspan><tspan class="cls-78" x="73.19" y="0">e</tspan><tspan class="cls-79" x="79.86" y="0">d</tspan><tspan class="cls-78" x="87.05" y="0" xml:space="preserve"> i</tspan><tspan class="cls-79" x="92.81" y="0">nd</tspan><tspan class="cls-82" x="106.86" y="0">i</tspan><tspan class="cls-79" x="109.73" y="0">v</tspan><tspan class="cls-78" x="116.05" y="0">i</tspan><tspan class="cls-80" x="118.92" y="0">dua</tspan><tspan class="cls-78" x="139.53" y="0">l</tspan><tspan x="142.4" y="0"> </tspan></text><text class="cls-28" transform="translate(1186.86 117.43)"><tspan class="cls-78" xml:space="preserve">    time sp</tspan><tspan class="cls-79" x="51.49" y="0">ac</tspan><tspan x="64.59" y="0">e</tspan></text><text class="cls-28" transform="translate(226.57 618)"><tspan class="cls-102">T</tspan><tspan class="cls-103" x="7.02" y="0">r</tspan><tspan class="cls-104" x="11.51" y="0">a</tspan><tspan class="cls-105" x="18.51" y="0">c</tspan><tspan class="cls-106" x="25.5" y="0">k</tspan><tspan class="cls-107" x="32.29" y="0"> </tspan><tspan class="cls-104" x="36.46" y="0">&amp;</tspan><tspan class="cls-107" x="45.51" y="0"> </tspan><tspan class="cls-106" x="49.68" y="0">Es</tspan><tspan class="cls-108" x="63.84" y="0">t</tspan><tspan class="cls-104" x="68.3" y="0">ablishing</tspan><tspan class="cls-107" x="121.81" y="0"> </tspan><tspan class="cls-106" x="125.97" y="0">Individua</tspan><tspan class="cls-78" x="179.85" y="0">l</tspan><tspan x="182.72" y="0"> </tspan></text><text class="cls-109" transform="translate(226.57 632.78)">T<tspan class="cls-78" x="7.34" y="0">ime </tspan><tspan class="cls-79" x="30.02" y="0">S</tspan><tspan class="cls-78" x="37.7" y="0">p</tspan><tspan class="cls-80" x="44.83" y="0">ac</tspan><tspan class="cls-36" x="57.92" y="0">e</tspan></text><text class="cls-28" transform="translate(469.35 618)"><tspan class="cls-110">S</tspan><tspan class="cls-111" x="8.65" y="0">h</tspan><tspan class="cls-112" x="16.6" y="0">ow</tspan><tspan class="cls-113" x="34.62" y="0"> </tspan><tspan class="cls-111" x="39.3" y="0">The</tspan><tspan class="cls-113" x="63.36" y="0"> </tspan><tspan class="cls-111" x="68.05" y="0">C</tspan><tspan class="cls-112" x="77.82" y="0">o</tspan><tspan class="cls-114" x="85.69" y="0">m</tspan><tspan class="cls-110" x="96.9" y="0">pa</tspan><tspan class="cls-111" x="112.51" y="0">ri</tspan><tspan class="cls-112" x="121.46" y="0">s</tspan><tspan class="cls-111" x="128.52" y="0">i</tspan><tspan class="cls-112" x="132.35" y="0">on</tspan><tspan class="cls-113" x="148.04" y="0"> </tspan><tspan class="cls-112" x="152.73" y="0">o</tspan><tspan class="cls-78" x="160.6" y="0">f</tspan><tspan x="164.63" y="0"> </tspan></text><text class="cls-109" transform="translate(469.35 632.78)">T<tspan class="cls-78" x="7.34" y="0">ime </tspan><tspan class="cls-79" x="30.02" y="0">S</tspan><tspan class="cls-78" x="37.7" y="0">p</tspan><tspan class="cls-80" x="44.83" y="0">ac</tspan><tspan class="cls-36" x="57.92" y="0">e</tspan></text><line class="cls-115" x1="1016.46" y1="193.44" x2="757.66" y2="193.44"/><g class="cls-51"><path d="M1023.87,193.24a37.4,37.4,0,0,1-10.5-5.63l2.11,5.63-2.11,5.63a37.66,37.66,0,0,1,10.5-5.63"/><path class="cls-116" d="M1016.74,276.48c-54.29-12-136.53-22.28-167.08-23.11-32.14-.87-92,0-92,0"/><path class="cls-52" d="M1023.87,278.67a36.72,36.72,0,0,1-8.63-8.05l.53,6-3.55,4.91a38.32,38.32,0,0,1,11.65-2.82"/><path d="M716.38,225.63a10.07,10.07,0,1,1,10.06,9.7,9.89,9.89,0,0,1-10.06-9.7"/></g><line class="cls-116" x1="1042.93" y1="193.24" x2="1042.93" y2="276.06"/><g class="cls-51"><path class="cls-52" d="M1302.5,217.79a22,22,0,0,1-5.68,14l12.71,12.86a40.2,40.2,0,0,0,10.94-26.84Z"/><path class="cls-52" d="M1259.23,217.79h-18a40.2,40.2,0,0,0,10.94,26.84l12.71-12.86a22,22,0,0,1-5.68-14"/><path class="cls-52" d="M1280.87,195.06a21.42,21.42,0,0,1,14.63,5.77L1308.21,188a39.26,39.26,0,0,0-54.69,0l12.71,12.86a21.43,21.43,0,0,1,14.64-5.77"/><path class="cls-52" d="M1302.5,216h18a40.13,40.13,0,0,0-11-26.77l-12.71,12.86A21.94,21.94,0,0,1,1302.5,216"/><path class="cls-52" d="M1280.87,238.87a21.44,21.44,0,0,1-14.71-5.84l-12.71,12.86a39.25,39.25,0,0,0,54.83,0L1295.57,233a21.43,21.43,0,0,1-14.7,5.84"/><path class="cls-52" d="M1265,202.09l-12.71-12.86a40.23,40.23,0,0,0-11,26.77h18a21.91,21.91,0,0,1,5.74-13.91"/><text class="cls-117" transform="translate(1328.43 171.22) scale(1 1.01)">i</text><text class="cls-117" transform="translate(1323.22 171.22) scale(1 1.01)">t</text><path class="cls-57" d="M1280.87,209.31a8,8,0,1,0-7.94-8,7.95,7.95,0,0,0,7.94,8"/><path class="cls-57" d="M1288.82,211.12h-15.91c-6,0-9.91,5.33-9.91,10.41V246a3.3,3.3,0,1,0,6.59,0V223.38h1.28v61.45c0,6.54,8.93,6.33,9.15,0V249.42h1.7v35.43c.36,6.72,9.14,6.07,9.14,0V223.38h1.07V246a3.4,3.4,0,1,0,6.8,0V221.53c0-5.05-3.93-10.41-9.91-10.41"/></g><text class="cls-118" transform="translate(1264.76 190.24)"><tspan class="cls-85">A</tspan><tspan class="cls-86" x="6.87" y="0">c</tspan><tspan class="cls-85" x="12.08" y="0">t</tspan><tspan class="cls-86" x="15.12" y="0">ivi</tspan><tspan class="cls-85" x="25.28" y="0">t</tspan><tspan x="28.32" y="0">y</tspan></text><text class="cls-119" transform="translate(757.66 413.65)"><tspan class="cls-42">B</tspan><tspan class="cls-50" x="22.09" y="0">enef</tspan><tspan class="cls-42" x="93.67" y="0">i</tspan><tspan class="cls-50" x="102.95" y="0">t</tspan><tspan x="115.9" y="0">s</tspan></text><g class="cls-51"><path d="M762.14,562.8h4.36v-4.37h-4.36Zm0-8.78h4.36V536.53h-4.36Zm2.21-30.61c10.4,0,19.62,7.49,19.62,19.14,0,6.19-.91,9.29-2.15,11.87s-3,4.82-4.58,8.66a24.64,24.64,0,0,0-.49,18.45,20.77,20.77,0,0,0,1.57,3.11H755.63V573.73a2.19,2.19,0,0,0-2.18-2.19h-6.51c-2.19,0-2.94-.5-3.43-1.12a5.74,5.74,0,0,1-.89-3.2c-.06-1,0-2.1,0-3.21,0-.5,0-1,0-1.47,0-1.81,0-3.36,0-4.49,0-.57,0-1,0-1.38,0-.18,0-.32,0-.52a2.32,2.32,0,0,0-.1-.44c0-.05,0-.13-.07-.22s-.18-.35-.18-.35l-.52-.56-.55-.32-.78-.13h-2.93c.76-1.35,1.62-3,2.23-4.22,1.05-2,1.61-4.48,1.61-9.21,0-7,2.91-10.92,7.27-13.57s10.32-3.71,15.79-3.71Zm0-4.37c-6,0-12.66,1.06-18.05,4.34s-9.37,9-9.37,17.31c0,4.43-.38,5.76-1.13,7.22a57.06,57.06,0,0,0-4,7.56,2.19,2.19,0,0,0,1.18,2.85,2.12,2.12,0,0,0,.83.17h4.45c0,1,0,2.37,0,4,0,.47,0,1,0,1.46,0,1.06,0,2.26,0,3.51a9.61,9.61,0,0,0,1.84,5.7c1.4,1.74,3.79,2.75,6.83,2.75h4.33v10.9a2.18,2.18,0,0,0,2.18,2.19h28.28a2.24,2.24,0,0,0,1.51-.55,2.49,2.49,0,0,0,.79-1.69,2,2,0,0,0-.32-1.32c-.24-.48-.48-.83-.79-1.33a24.6,24.6,0,0,1-2.1-4.15c-1.36-3.56-2.24-8.59.46-15.24,1.33-3.27,3-5.3,4.47-8.42s2.58-7.12,2.58-13.76a2.08,2.08,0,0,0-.17-.85h0c-.5-13.49-11.54-22.64-23.8-22.64"/></g><rect class="cls-52" x="762.14" y="536.53" width="4.36" height="17.5"/><rect class="cls-52" x="762.14" y="558.43" width="4.36" height="4.44"/><path class="cls-120" d="M1231.31,532.22h7.21v20.39h-7.21Zm12.47-9.16h7.2v29.55h-7.2Zm-24.93,5.21h7.2v24.34h-7.2Zm-12.47,7.92h7.21v16.42h-7.21Zm-12.46,6.44h7.2v10h-7.2Z"/><g class="cls-51"><path class="cls-52" d="M1193.81,540.54a1.25,1.25,0,0,1-.62-2.34l28.64-16.33a1.24,1.24,0,0,1,1.08-.08l11.73,4.62,13.47-14.17a1.25,1.25,0,1,1,1.81,1.73l-14.05,14.78a1.25,1.25,0,0,1-1.37.3l-12-4.7-28.12,16a1.27,1.27,0,0,1-.62.16"/><path class="cls-52" d="M1251.13,517.13a1.25,1.25,0,0,1-1.26-1.25V512.2H1246a1.26,1.26,0,0,1,0-2.51h5.09a1.25,1.25,0,0,1,1.25,1.26v4.93a1.25,1.25,0,0,1-1.25,1.25"/><path d="M1252.83,554.15H1192a1.26,1.26,0,0,1,0-2.51h60.84a1.26,1.26,0,0,1,0,2.51"/><path d="M1253,552.65c0,3.14-.79,9.62-5.75,9.62s-5.76-6.48-5.76-9.62a5.76,5.76,0,0,1,11.51,0"/><path d="M1234.6,579.71s.94-7.15,1.29-9.69,5-4.1,7.31-4.79c2.77-.83,1.62-3.55,1.62-3.55a8.53,8.53,0,0,0,2.44.59,4.93,4.93,0,0,0,2.54-.72s-1.12,2.93,1.51,3.68c2.28.66,7,2.26,7.32,4.79s1.29,9.58,1.29,9.58Z"/><path d="M1242.75,552.65a4.51,4.51,0,0,1,9,0,15.94,15.94,0,0,1-.92,5.51c-1.16,2.86-3,2.86-3.58,2.86s-2.42,0-3.58-2.86a15.76,15.76,0,0,1-.93-5.51m18.41,26.78c0-.07-1-7.07-1.3-9.58s-3.08-4.34-8.2-5.82a1,1,0,0,1-.72-.5,2,2,0,0,1-.06-1.22c2.44-1.94,3.38-5.89,3.38-9.66a7,7,0,0,0-14,0c0,3.82,1,7.82,3.48,9.73a1.72,1.72,0,0,1,0,1c0,.1-.19.4-.87.6-3.31,1-7.76,2.7-8.19,5.82-.34,2.51-1.28,9.62-1.29,9.69a1.25,1.25,0,0,0,1.08,1.41h.16a1.25,1.25,0,0,0,1.24-1.09c0-.07,1-7.17,1.29-9.68.23-1.7,4.58-3.19,6.44-3.76a3.64,3.64,0,0,0,2.4-1.94,3.22,3.22,0,0,0,.3-1,6,6,0,0,0,.74.07h.25l.33,0a6.31,6.31,0,0,0,.76-.08,3.44,3.44,0,0,0,2.62,3c4.53,1.31,6.29,2.8,6.42,3.75.34,2.51,1.28,9.5,1.29,9.57a1.25,1.25,0,1,0,2.48-.33"/><path d="M1246.7,570.58l-1.41-1.42a.92.92,0,0,1,0-1.32l1.41-1.42a.92.92,0,0,1,1.32,0l1.42,1.42a.94.94,0,0,1,0,1.32l-1.42,1.42a.94.94,0,0,1-1.32,0"/><path d="M1244.76,579.65l2-11.51a.61.61,0,0,1,1.19,0l2,11.51Z"/><path d="M1202.09,552.65c0,3.14-.79,9.62-5.75,9.62s-5.76-6.48-5.76-9.62a5.76,5.76,0,0,1,11.51,0"/><path d="M1183.68,579.71s.94-7.15,1.29-9.69,5-4.1,7.31-4.79c2.76-.83,1.62-3.55,1.62-3.55a8.43,8.43,0,0,0,2.44.59,4.93,4.93,0,0,0,2.54-.72s-1.12,2.93,1.51,3.68c2.28.66,7,2.26,7.31,4.79s1.29,9.58,1.29,9.58Z"/><path d="M1191.83,552.65a4.51,4.51,0,0,1,9,0,15.94,15.94,0,0,1-.92,5.51c-1.16,2.86-3,2.86-3.58,2.86s-2.43,0-3.59-2.86a15.94,15.94,0,0,1-.92-5.51m18.4,26.78c0-.07-.94-7.07-1.29-9.58s-3.09-4.34-8.2-5.82a1,1,0,0,1-.72-.5,2,2,0,0,1-.06-1.22c2.44-1.94,3.38-5.89,3.38-9.66a7,7,0,0,0-14,0c0,3.82,1,7.82,3.48,9.73a1.72,1.72,0,0,1,0,1c0,.1-.19.4-.87.6-3.31,1-7.76,2.7-8.19,5.82-.34,2.51-1.28,9.62-1.29,9.69a1.25,1.25,0,0,0,1.07,1.41h.17a1.26,1.26,0,0,0,1.24-1.09c0-.07.94-7.17,1.29-9.68.23-1.7,4.58-3.19,6.43-3.76a3.63,3.63,0,0,0,2.41-1.94,3.81,3.81,0,0,0,.3-1,5.8,5.8,0,0,0,.74.07h.25l.33,0a5.94,5.94,0,0,0,.75-.08,4,4,0,0,0,.35,1.21,3.53,3.53,0,0,0,2.27,1.8c4.54,1.31,6.29,2.8,6.42,3.75.35,2.51,1.29,9.5,1.3,9.57a1.25,1.25,0,1,0,2.47-.33"/><path d="M1195.78,570.58l-1.42-1.42a.94.94,0,0,1,0-1.32l1.42-1.42a.92.92,0,0,1,1.32,0l1.41,1.42a.92.92,0,0,1,0,1.32l-1.41,1.42a.94.94,0,0,1-1.32,0"/><path d="M1193.84,579.65l2-11.51a.61.61,0,0,1,1.19,0l2,11.51Z"/><path d="M1228.9,547.72c0,3.88-1,11.88-7.1,11.88s-7.11-8-7.11-11.88a7.11,7.11,0,0,1,14.21,0"/><path d="M1237.43,581.4s-1.17-9.1-1.6-12.23-6.21-5.1-9-5.91c-3.24-.94-1.87-4.55-1.87-4.55a6,6,0,0,1-3.13.89,10.57,10.57,0,0,1-3-.73s1.42,3.36-2,4.39c-2.81.85-8.6,2.78-9,5.91s-1.59,12.37-1.59,12.37Z"/><path d="M1215.94,547.72a5.86,5.86,0,0,1,11.71,0,19.87,19.87,0,0,1-1.16,6.92c-1,2.5-2.55,3.71-4.69,3.71s-3.68-1.21-4.7-3.71a19.87,19.87,0,0,1-1.16-6.92m22.73,33.52c0-.09-1.18-9.14-1.6-12.24-.39-2.82-3.73-5.15-9.92-6.94a1.59,1.59,0,0,1-1.07-.78,2.77,2.77,0,0,1-.07-1.79,9.21,9.21,0,0,0,2.8-3.9,22.06,22.06,0,0,0,1.34-7.87,8.36,8.36,0,0,0-16.71,0,22.11,22.11,0,0,0,1.35,7.87,8.92,8.92,0,0,0,2.91,4,2.51,2.51,0,0,1,0,1.6,1.87,1.87,0,0,1-1.25.89c-4,1.21-9.4,3.26-9.91,6.94-.42,3.1-1.58,12.29-1.59,12.38a1.25,1.25,0,0,0,1.08,1.4h.16a1.25,1.25,0,0,0,1.24-1.1c0-.09,1.17-9.26,1.59-12.35.3-2.19,5.24-4,8.15-4.88a4.25,4.25,0,0,0,2.79-2.24,4.1,4.1,0,0,0,.38-1.51,7.07,7.07,0,0,0,1.48.15,7.54,7.54,0,0,0,1.6-.17,4.42,4.42,0,0,0,.44,1.71,4,4,0,0,0,2.62,2.06c4.87,1.41,7.91,3.24,8.13,4.88.43,3.09,1.58,12.13,1.6,12.22a1.25,1.25,0,0,0,1.39,1.09,1.27,1.27,0,0,0,1.09-1.41"/><path d="M1220.29,560.62a6.35,6.35,0,0,0,1.5.17,11,11,0,0,0,1.67-.14,4.63,4.63,0,0,0,2.3,3.49s-4.47-1.4-5.47-3.52"/><path d="M1221.26,570l-2-2.06a.92.92,0,0,1,0-1.32l2-2.06a.92.92,0,0,1,1.32,0l2.06,2.06a.94.94,0,0,1,0,1.32l-2.06,2.06a.92.92,0,0,1-1.32,0"/><path d="M1218.72,581.47l2.47-14.63a.76.76,0,0,1,1.47,0l2.47,14.63Z"/><path d="M899.78,560.14a21.61,21.61,0,1,0-21.61,21.68,21.64,21.64,0,0,0,21.61-21.68m-3.32,0a18.29,18.29,0,1,1-18.29-18.35,18.32,18.32,0,0,1,18.29,18.35m-5,0a1.64,1.64,0,0,0-1.63-1.66h-10v-10a1.67,1.67,0,1,0-3.33,0v11.67a1.67,1.67,0,0,0,1.67,1.67h11.67a1.64,1.64,0,0,0,1.63-1.66"/><path class="cls-52" d="M964.67,560.14a21.62,21.62,0,1,0-21.62,21.68,21.65,21.65,0,0,0,21.62-21.68m-3.32,0a18.3,18.3,0,1,1-18.3-18.35,18.33,18.33,0,0,1,18.3,18.35m-5,0a1.64,1.64,0,0,0-1.63-1.66h-10v-10a1.66,1.66,0,1,0-3.32,0v11.67a1.66,1.66,0,0,0,1.66,1.67h11.67a1.64,1.64,0,0,0,1.63-1.66"/></g><line class="cls-120" x1="915.13" y1="554.32" x2="902.64" y2="554.32"/><polygon points="918.72 554.31 913.66 552.23 914.86 554.31 913.66 556.38 918.72 554.31"/><line class="cls-120" x1="906.24" y1="569.24" x2="918.72" y2="569.24"/><polygon points="902.64 569.24 907.71 571.32 906.51 569.24 907.71 567.16 902.64 569.24"/><g class="cls-51"><path class="cls-57" d="M1082.22,440.54a9.48,9.48,0,0,0-.07-2.67,2.15,2.15,0,0,0-1.43-1.33c-.39-.07-1.28.76-1.32,1.24a30.84,30.84,0,0,0,0,5.52c0,.47,1,1.15,1.51,1.19.41,0,1.14-.74,1.28-1.27a11.93,11.93,0,0,0,.06-2.68m-25.85,0h0a7.12,7.12,0,0,0-.06-2.36c-.25-.67-1-1.15-1.52-1.71-.51.53-1.38,1-1.45,1.6a21.41,21.41,0,0,0,0,5.06,2.09,2.09,0,0,0,1.51,1.39c.52,0,1.26-.84,1.47-1.46a8.44,8.44,0,0,0,.06-2.52m11.39,12h10.75c5.93,0,11.86,0,17.79,0,1.06,0,1.56-.43,1.54-1.51,0-2.5,0-5,0-7.5,0-1.28-.6-1.93-1.93-1.91-3.34,0-6.68,0-10,0-1,0-1.52.34-1.55,1.47-.07,2.25-1.34,3.52-3.37,3.57-2.24.06-3.56-1.13-3.71-3.55-.07-1.12-.54-1.46-1.57-1.46q-7.93,0-15.85,0c-.94,0-1.29.36-1.36,1.31-.18,2.45-1.48,3.72-3.62,3.73s-3.49-1.26-3.7-3.67c-.09-1.06-.51-1.37-1.48-1.36-3.34,0-6.68,0-10,0-1.38,0-2,.71-2,2.05,0,2.34,0,4.7,0,7-.05,1.41.56,1.81,1.88,1.8,9.41,0,18.82,0,28.24,0m0,2h-27.65c-2.45,0-2.46,0-2.46,2.56q0,15.74,0,31.48c0,2.47.5,3,3,3q15.46,0,30.94,0c.86,0,2.27-.4,2.3.91s-1.44,1-2.33,1c-10.52,0-21,0-31.54,0-2,0-3.52-.58-4.28-2.53a4.18,4.18,0,0,1-.28-1.43q0-23,0-46a3.86,3.86,0,0,1,3.94-4c3.34,0,6.68-.05,10,0,1.16,0,1.73-.3,1.77-1.58a4.08,4.08,0,0,1,3-3.74c1.64-.65,4.18,1.22,4.27,3.37.07,1.78.88,2,2.34,1.95q7.17-.09,14.35,0c1.39,0,2.1-.34,2.17-1.9a3.72,3.72,0,0,1,3.57-3.53,3.76,3.76,0,0,1,3.47,3.65c0,1.4.64,1.8,1.93,1.77,3.29-.05,6.58,0,9.87,0a3.46,3.46,0,0,1,3.8,3.8q0,11.16,0,22.34a3.64,3.64,0,0,1-.37,1.55,1,1,0,0,1-.91.19,2.31,2.31,0,0,1-.76-1.31c-.08-2.29,0-4.59,0-6.89,0-.85,0-1.7,0-2.55,0-2.07-.11-2.16-2.25-2.16h-27.8Z"/><path class="cls-57" d="M1093.67,472.87a14.37,14.37,0,0,0-14.4,14.93,14.62,14.62,0,0,0,15,14.11c7.64-.2,14.26-7.22,14-14.88a14.61,14.61,0,0,0-14.65-14.16m-16.46,14.25c-.12-9.06,7.79-16.82,17.41-16.42a16.74,16.74,0,0,1,15.73,16.83,16.57,16.57,0,1,1-33.14-.41"/><path class="cls-57" d="M1069.2,461.38c-.7.42-1.1.86-1.43.81s-.66-.56-1-.87c.35-.29.67-.77,1-.81s.7.42,1.37.87"/><path class="cls-57" d="M1067.86,483.49c.4.58.88,1,.82,1.27a1.21,1.21,0,0,1-.91.82,1.26,1.26,0,0,1-.91-.86c0-.31.51-.67,1-1.23"/><path class="cls-57" d="M1061.39,484.68c-.66.46-1,.92-1.35.89s-.68-.51-1-.8c.31-.3.6-.79,1-.85s.72.36,1.41.76"/><path class="cls-57" d="M1053.62,484.76c-.69.42-1.08.85-1.41.81s-.66-.55-1-.84c.33-.29.64-.77,1-.81s.7.4,1.38.84"/><path class="cls-57" d="M1045.83,484.72c-.65.44-1,.93-1.33.86s-.73-.57-1.08-.89c.34-.28.67-.75,1-.79s.71.4,1.37.82"/><path class="cls-57" d="M1077,461.29c-.65.46-1,.91-1.34.88s-.68-.51-1-.79c.31-.3.6-.79,1-.85s.71.36,1.4.76"/><path class="cls-57" d="M1067.28,478.42c-.16-.46-.49-.94-.43-1.38a1.28,1.28,0,0,1,.85-.9,1.24,1.24,0,0,1,1,.72c.07.29-.37.72-.58,1.08l-.81.48"/><path class="cls-57" d="M1060,478.18c-.42-.59-.92-1-.87-1.28a1.28,1.28,0,0,1,1-.77,1.19,1.19,0,0,1,.82.86c0,.31-.48.65-.93,1.19"/><path class="cls-57" d="M1052.24,475.7c.42.53.91.88.88,1.19s-.59.93-.81.89c-.41-.09-.74-.56-1.1-.86l1-1.22"/><path class="cls-57" d="M1045.84,476.86c-.66.47-1,.93-1.34.91s-.71-.5-1.07-.77c.32-.31.59-.81,1-.87s.74.34,1.46.73"/><path class="cls-57" d="M1083.43,462.59c-.48-.56-1-.9-1-1.21a1.24,1.24,0,0,1,.88-.85,1.2,1.2,0,0,1,.9.79c0,.3-.41.69-.8,1.27"/><path class="cls-57" d="M1092.54,461.3c-.66.46-1,.92-1.35.89s-.69-.51-1-.8c.32-.31.61-.81,1-.87s.72.37,1.41.78"/><path class="cls-57" d="M1075.59,467.9c.42.56.89.93.85,1.23s-.57.85-.86.83a1.27,1.27,0,0,1-.93-.82c0-.3.48-.67.94-1.24"/><path class="cls-57" d="M1069.18,469.2c-.7.4-1.1.82-1.42.77s-.64-.56-1-.86c.34-.28.66-.75,1-.79s.69.42,1.35.88"/><path class="cls-57" d="M1060.06,470.41c-.48-.56-1-.92-1-1.23a1.28,1.28,0,0,1,.92-.87,1.22,1.22,0,0,1,.91.81c0,.32-.43.7-.84,1.29"/><path class="cls-57" d="M1053.62,469.15c-.69.43-1.07.86-1.4.82s-.66-.54-1-.83c.33-.29.64-.77,1-.82s.71.4,1.39.83"/><path class="cls-57" d="M1044.45,467.9c.42.56.91.93.87,1.23a1.22,1.22,0,0,1-.88.83,1.28,1.28,0,0,1-.94-.82c0-.29.49-.67,1-1.24"/><path class="cls-63" d="M1067.76,452.54c-9.42,0-18.83,0-28.24,0-1.32,0-1.93-.39-1.88-1.8.07-2.34,0-4.7,0-7,0-1.34.6-2.06,2-2.05,3.34,0,6.68,0,10,0,1,0,1.39.31,1.48,1.36.21,2.42,1.56,3.68,3.7,3.68s3.44-1.28,3.62-3.72c.07-1,.42-1.32,1.36-1.32q7.92,0,15.85,0c1,0,1.5.34,1.57,1.46.15,2.42,1.47,3.61,3.71,3.55,2-.05,3.3-1.32,3.37-3.57,0-1.13.51-1.47,1.55-1.47,3.33,0,6.67,0,10,0a1.68,1.68,0,0,1,1.93,1.92c0,2.5,0,5,0,7.49,0,1.09-.48,1.52-1.54,1.52-5.93,0-11.86,0-17.79,0-3.58,0-7.17,0-10.75,0Z"/><path class="cls-63" d="M1056.37,440.5a8.44,8.44,0,0,1-.06,2.52c-.21.62-1,1.45-1.47,1.46a2.11,2.11,0,0,1-1.51-1.39,21.41,21.41,0,0,1,0-5.06c.07-.58.94-1.07,1.45-1.6.52.56,1.27,1,1.52,1.71a7.12,7.12,0,0,1,.06,2.36Z"/><path class="cls-63" d="M1082.22,440.54a11.37,11.37,0,0,1-.06,2.68c-.14.53-.87,1.31-1.28,1.27-.56,0-1.47-.72-1.51-1.19a30.84,30.84,0,0,1,0-5.52c0-.48.93-1.3,1.32-1.25a2.17,2.17,0,0,1,1.43,1.34,9.49,9.49,0,0,1,.07,2.67"/><path class="cls-63" d="M1097.61,488.43v.05a26.39,26.39,0,0,0,3.56-.06c.49-.07.9-.71,1.35-1.1-.47-.33-.91-.89-1.4-.94-1.37-.13-2.77,0-4.16-.05-2.07,0-2.14-.09-2.14-2.22,0-1.5,0-3-.1-4.48,0-.38-.66-.7-1-1.05-.31.38-.86.75-.87,1.13-.09,2.44-.06,4.88,0,7.32,0,1,.57,1.42,1.53,1.4h3.28m-3.95-15.56A14.61,14.61,0,0,1,1108.32,487c.21,7.66-6.41,14.68-14,14.88a14.62,14.62,0,0,1-15-14.11,14.36,14.36,0,0,1,14.39-14.93"/><path class="cls-57" d="M1097.61,488.43h-3.28c-1,0-1.53-.41-1.53-1.4,0-2.44,0-4.88,0-7.32,0-.38.56-.75.87-1.13.35.35,1,.67,1,1.05.13,1.48.1,3,.1,4.48,0,2.13.07,2.21,2.14,2.22,1.39,0,2.78-.08,4.16.05.49.05.93.61,1.4.94-.45.39-.86,1-1.35,1.1a26.39,26.39,0,0,1-3.56.06Z"/><path class="cls-57" d="M1344.35,579.4V537.45a10.31,10.31,0,0,0-.08-3.1,15.49,15.49,0,0,0-1.87-3,14.46,14.46,0,0,0-2.1,3.24,11.64,11.64,0,0,0-.09,3.55q0,14.28,0,28.55c0,2.93-.61,5.65-4.12,5.72-3.88.09-4.26-2.84-4.25-5.91,0-11.46-.09-22.91,0-34.36.11-10.57,5.51-15.92,15.93-16,6.67,0,13.34,0,20,0,9.89,0,15.36,4.37,15.84,14.11.6,12.32.25,24.68.17,37,0,2.67-1.19,5.67-4.29,4.88-1.72-.43-3.89-3.39-4-5.29-.39-10-.06-19.93-.26-29.89,0-1.86-1.32-3.69-2-5.54-.59,1.82-1.68,3.63-1.69,5.46-.12,27.36-.1,54.73-.12,82.1a39.56,39.56,0,0,1-.16,5.34c-.49,3.5-2.22,5.85-6.16,5.56-3.76-.28-5-2.68-5-6.1q0-11.37,0-22.75c0-8.78.06-17.56-.16-26.33,0-1.43-1.35-2.84-2.08-4.25-.67,1.43-1.91,2.86-1.92,4.31-.15,15.76.06,31.53-.27,47.29-.06,2.52-1.65,6-3.66,7.27-3.89,2.42-7.67-.65-7.7-5.78-.07-14.72,0-29.45,0-44.17"/><path class="cls-57" d="M1357.77,491.05a10.59,10.59,0,1,1,.11,21.17,10.21,10.21,0,0,1-10.73-10.48,10.46,10.46,0,0,1,10.62-10.69"/><path class="cls-57" d="M1371.55,543.67a13.65,13.65,0,1,0-13.64,13.65,13.72,13.72,0,0,0,13.64-13.65M1347.47,527c1.44.39,2.53-.36,3.25-1.86a6,6,0,0,1,.55-.86,2.5,2.5,0,0,1,3.73-1c3.31,1.9,2.68,1.76,5.83,0,1.6-.88,2.77-.55,3.79,1,1.94,3,1.48,2.74,5,2.61a2.6,2.6,0,0,1,3,2.47,14,14,0,0,1,.16,1.94,2.24,2.24,0,0,0,1.37,2.14c.61.3,1.23.59,1.83.9a2.58,2.58,0,0,1,1.34,3.57c-.22.58-.45,1.15-.71,1.72a2.36,2.36,0,0,0,.31,2.69c.34.41.64.84.95,1.26,1.2,1.6,1.07,2.85-.43,4.14-.54.47-1.08.92-1.61,1.4a2,2,0,0,0-.67,2c.16.79.26,1.6.34,2.4a2.41,2.41,0,0,1-1.87,2.71c-.75.2-1.5.39-2.26.52a2.29,2.29,0,0,0-1.88,1.82c-.21.65-.39,1.31-.66,1.93a2.51,2.51,0,0,1-3.25,1.56,8.62,8.62,0,0,1-1.16-.33c-1.53-.73-2.65-.17-3.79,1-2.28,2.27-3.11,2.32-5.27,0-1.42-1.51-2.84-1.39-4.53-.84-2.2.73-3.31.11-4-2.11a9.18,9.18,0,0,1-.31-.88,2.63,2.63,0,0,0-2.46-2.26c-4.22-.58-3.86-2.24-3.38-5a2.61,2.61,0,0,0-1.05-2.91,16.15,16.15,0,0,1-1.35-1.13,2.53,2.53,0,0,1-.45-3.65c.37-.54.74-1.08,1.15-1.58a2.39,2.39,0,0,0,.3-2.77c-.29-.62-.53-1.26-.77-1.9a2.43,2.43,0,0,1,1-3.07,22.86,22.86,0,0,1,2.15-1.1,2.33,2.33,0,0,0,1.47-2.27,11.58,11.58,0,0,1,.13-1.76,2.67,2.67,0,0,1,3.11-2.58l1.11,0"/><path class="cls-121" d="M1371.55,543.67a13.65,13.65,0,1,0-13.64,13.65A13.72,13.72,0,0,0,1371.55,543.67ZM1347.47,527c1.44.39,2.53-.36,3.25-1.86a6,6,0,0,1,.55-.86,2.5,2.5,0,0,1,3.73-1c3.31,1.9,2.68,1.76,5.83,0,1.6-.88,2.77-.55,3.79,1,1.94,3,1.48,2.74,5,2.61a2.6,2.6,0,0,1,3,2.47,14,14,0,0,1,.16,1.94,2.24,2.24,0,0,0,1.37,2.14c.61.3,1.23.59,1.83.9a2.58,2.58,0,0,1,1.34,3.57c-.22.58-.45,1.15-.71,1.72a2.36,2.36,0,0,0,.31,2.69c.34.41.64.84.95,1.26,1.2,1.6,1.07,2.85-.43,4.14-.54.47-1.08.92-1.61,1.4a2,2,0,0,0-.67,2c.16.79.26,1.6.34,2.4a2.41,2.41,0,0,1-1.87,2.71c-.75.2-1.5.39-2.26.52a2.29,2.29,0,0,0-1.88,1.82c-.21.65-.39,1.31-.66,1.93a2.51,2.51,0,0,1-3.25,1.56,8.62,8.62,0,0,1-1.16-.33c-1.53-.73-2.65-.17-3.79,1-2.28,2.27-3.11,2.32-5.27,0-1.42-1.51-2.84-1.39-4.53-.84-2.2.73-3.31.11-4-2.11a9.18,9.18,0,0,1-.31-.88,2.63,2.63,0,0,0-2.46-2.26c-4.22-.58-3.86-2.24-3.38-5a2.61,2.61,0,0,0-1.05-2.91,16.15,16.15,0,0,1-1.35-1.13,2.53,2.53,0,0,1-.45-3.65c.37-.54.74-1.08,1.15-1.58a2.39,2.39,0,0,0,.3-2.77c-.29-.62-.53-1.26-.77-1.9a2.43,2.43,0,0,1,1-3.07,22.86,22.86,0,0,1,2.15-1.1,2.33,2.33,0,0,0,1.47-2.27,11.58,11.58,0,0,1,.13-1.76,2.67,2.67,0,0,1,3.11-2.58Z"/><path class="cls-63" d="M1369.8,543.75A11.87,11.87,0,1,0,1358,555.57a12,12,0,0,0,11.82-11.82m1.82-.08a13.72,13.72,0,1,1-27.43,0,13.72,13.72,0,1,1,27.43,0"/><path class="cls-57" d="M1365.76,538a7.13,7.13,0,0,0-1.62-1.28c-.28-.13-.94.2-1.22.51-2.08,2.31-4.12,4.67-6.14,7-.47.55-.8.62-1.34.09-.79-.79-1.65-1.52-2.51-2.24s-1.24-.68-2,0c-1,.88-1,1.32-.21,2.39,1.52,2,3.06,3.93,4.61,5.88.65.83,1.22.81,1.86-.08q4-5.56,8-11.17a9.11,9.11,0,0,0,.59-1.18m4,5.8a11.87,11.87,0,1,1-11.83-12,12,12,0,0,1,11.83,12"/><path class="cls-63" d="M1365.76,538a10.09,10.09,0,0,1-.59,1.19q-4,5.58-8,11.16c-.64.89-1.21.91-1.86.08-1.55-2-3.1-3.9-4.61-5.88-.82-1.07-.75-1.51.21-2.39.78-.72,1.18-.75,2,0s1.72,1.45,2.51,2.24c.54.53.87.46,1.34-.09,2-2.37,4.06-4.72,6.15-7,.27-.31.93-.64,1.21-.51a7.13,7.13,0,0,1,1.62,1.28"/></g><line class="cls-122" x1="834.58" y1="561.13" x2="796.38" y2="561.13"/><polygon class="cls-57" points="841.77 561.12 831.64 556.97 834.04 561.12 831.64 565.27 841.77 561.12"/><line class="cls-122" x1="1310.33" y1="561.13" x2="1272.13" y2="561.13"/><polygon class="cls-57" points="1317.52 563.12 1307.38 558.97 1309.79 563.12 1307.38 567.27 1317.52 563.12"/><line class="cls-122" x1="1022.15" y1="489" x2="971.28" y2="546.34"/><polygon class="cls-57" points="1027.02 483.55 1017.18 488.38 1021.87 489.34 1023.37 493.9 1027.02 483.55"/><line class="cls-122" x1="1022.15" y1="625.43" x2="971.28" y2="568.09"/><polygon class="cls-57" points="1027.02 630.88 1023.37 620.53 1021.87 625.09 1017.18 626.05 1027.02 630.88"/><line class="cls-122" x1="1167.77" y1="541.42" x2="1116.9" y2="484.08"/><polygon class="cls-57" points="1172.63 546.87 1168.99 536.52 1167.49 541.08 1162.8 542.04 1172.63 546.87"/><line class="cls-122" x1="1167.77" y1="573.95" x2="1116.9" y2="631.28"/><polygon class="cls-57" points="1172.63 568.49 1162.8 573.32 1167.49 574.28 1168.98 578.85 1172.63 568.49"/><g class="cls-51"><path class="cls-57" d="M1067.63,610.64a19.2,19.2,0,0,0,2.06-.2,3.12,3.12,0,0,0,2.52-3.5c0-.08,0-.16,0-.28a4.66,4.66,0,0,0,1.2-.11c.61-.24,1.18-.6,1.78-.88.16-.08.46-.16.55-.07a3.28,3.28,0,0,0,4,.6,1.24,1.24,0,0,1,.31,0c0,.21,0,.41,0,.6,0,2.53.05,5.07,0,7.6a8.79,8.79,0,0,1-.64,2.64,2.06,2.06,0,0,1-1.52,1.3c-.35.08-.44.28-.43.61,0,1,0,1.92,0,2.88,0,.4-.14.53-.54.53h-13.2c-.47,0-.67-.17-.65-.65a11.06,11.06,0,0,0,0-1.41c0-.47.18-.61.61-.58s.78,0,1.17,0,.83-.12.84-.65-.41-.62-.85-.64a15.07,15.07,0,0,1-1.65-.08,5.52,5.52,0,0,1-4.06-3.19,10.5,10.5,0,0,1-1.24-4.75c0-.78,0-1.56,0-2.33a2.61,2.61,0,0,1,2.6-2.75c2.81,0,5.62,0,8.44,0a1.94,1.94,0,0,1,2,2,1.9,1.9,0,0,1-2,1.86c-1.77,0-3.54,0-5.32,0a1.26,1.26,0,0,0-.65.09.84.84,0,0,0-.39.58.82.82,0,0,0,.39.59,1.32,1.32,0,0,0,.72.08,4.62,4.62,0,0,1,4.68,4.25c0,.13,0,.29,0,.36.2.22.41.53.65.57.39.06.61-.26.61-.67a5.84,5.84,0,0,0-1.54-3.89c-.12-.15-.26-.3-.47-.54"/><path class="cls-57" d="M1074.84,600.05c0,1.06,0,2.12,0,3.18a1.95,1.95,0,1,1-3.89,0c0-2.15,0-4.29,0-6.44a2,2,0,0,1,1.51-1.92,1.93,1.93,0,0,1,2.19,1.06,2.78,2.78,0,0,1,.19,1c0,.51,0,1,0,1.53s0,1,0,1.54"/><path class="cls-57" d="M1069.66,600.15c0,1.12,0,2.25,0,3.37,0,.37-.11.51-.49.5-1,0-2,0-2.93,0-.42,0-.51-.17-.51-.55,0-2.2,0-4.41,0-6.62a2,2,0,1,1,3.91,0c0,1.1,0,2.2,0,3.31Z"/><path class="cls-57" d="M1076.2,600.74c0-.86,0-1.71,0-2.57a1.94,1.94,0,1,1,3.87-.1c.06,1.77.06,3.55,0,5.32a1.94,1.94,0,0,1-3.87-.08c0-.43,0-.86,0-1.29v-1.28Z"/><path class="cls-57" d="M1060.54,600.76c0-.86,0-1.71,0-2.57a1.94,1.94,0,1,1,3.88-.08c0,1.82,0,3.63,0,5.45a.61.61,0,0,1-.41.43c-1,0-2,0-3,0-.38,0-.44-.2-.43-.51v-2.75Z"/><path class="cls-57" d="M1084.31,639.59a20.34,20.34,0,0,0,1.56,3.11h-22.69V631.79a2.18,2.18,0,0,0-2.18-2.19h-6.51c-2.19,0-2.94-.5-3.43-1.11a5.9,5.9,0,0,1-.88-3.21c-.06-1,0-2.1,0-3.21,0-.5,0-1,0-1.47,0-1.8,0-3.36,0-4.49,0-.57,0-1,0-1.38a5.05,5.05,0,0,0,0-.52,2,2,0,0,0-.09-.43c0-.06,0-.13-.08-.23s-.17-.35-.17-.35l-.53-.56-.55-.32-.77-.13H1045c.75-1.35,1.62-3,2.23-4.21,1-2,1.61-4.48,1.61-9.22,0-7,2.9-10.92,7.26-13.57s10.33-3.7,15.79-3.7h0c10.4,0,19.63,7.48,19.63,19.13,0,6.19-.91,9.29-2.15,11.88s-3,4.81-4.58,8.65a24.59,24.59,0,0,0-.49,18.45m9-25.23c1.49-3.11,2.58-7.12,2.58-13.77a2.26,2.26,0,0,0-.17-.85h0c-.5-13.49-11.54-22.64-23.81-22.64-6,0-12.65,1.07-18,4.34s-9.37,9-9.37,17.31c0,4.43-.39,5.76-1.14,7.22a59.47,59.47,0,0,0-4,7.56,2.18,2.18,0,0,0,1.18,2.86,2.1,2.1,0,0,0,.82.16h4.45c0,1.05,0,2.37,0,4,0,.47,0,1,0,1.46,0,1.06-.06,2.26,0,3.51a9.66,9.66,0,0,0,1.84,5.7c1.4,1.75,3.8,2.75,6.83,2.75h4.33v10.9a2.19,2.19,0,0,0,2.18,2.19h28.29a2.22,2.22,0,0,0,1.5-.55,2.45,2.45,0,0,0,.8-1.69,2,2,0,0,0-.33-1.31,14.45,14.45,0,0,0-.78-1.34,24.6,24.6,0,0,1-2.1-4.15c-1.36-3.56-2.24-8.59.45-15.24,1.33-3.27,3-5.3,4.48-8.41"/></g></svg>