<svg xmlns="http://www.w3.org/2000/svg" xmlns:xlink="http://www.w3.org/1999/xlink" viewBox="0 0 1500 562.54"><defs><style>.cls-1,.cls-18,.cls-20,.cls-22,.cls-28,.cls-31,.cls-40,.cls-41{fill:#fff;}.cls-2{isolation:isolate;}.cls-3{clip-path:url(#clip-path);}.cls-34,.cls-4{fill:#efe36b;}.cls-5{font-size:40.02px;font-family:SFUIDisplay-Bold, SF UI Display;font-weight:700;}.cls-29,.cls-5,.cls-8{fill:#231f20;}.cls-6{letter-spacing:0em;}.cls-7{letter-spacing:0em;}.cls-8{font-size:10.39px;}.cls-18,.cls-20,.cls-34,.cls-37,.cls-40,.cls-8{font-family:SFUIDisplay-Regular, SF UI Display;}.cls-9{letter-spacing:0em;}.cls-10{letter-spacing:0em;}.cls-11{letter-spacing:-0.01em;}.cls-12{letter-spacing:-0.02em;}.cls-13{letter-spacing:-0.02em;}.cls-14,.cls-30,.cls-43{fill:none;}.cls-15{fill:#f07638;}.cls-16{fill:#f09f51;}.cls-17{fill:#f1b482;}.cls-18{font-size:8.61px;}.cls-19{letter-spacing:-0.01em;}.cls-20{font-size:6.26px;}.cls-21{letter-spacing:-0.01em;}.cls-22{font-size:20px;}.cls-22,.cls-28,.cls-31,.cls-41{font-family:SFUIDisplay-Medium, SF UI Display;font-weight:500;}.cls-23{letter-spacing:-0.12em;}.cls-24{letter-spacing:-0.06em;}.cls-25{letter-spacing:-0.02em;}.cls-26{opacity:0.32;mix-blend-mode:multiply;}.cls-27{fill:#a9a9a9;}.cls-28{font-size:21px;}.cls-30,.cls-43{stroke:#fff;stroke-miterlimit:10;}.cls-31,.cls-40{font-size:15px;}.cls-32{letter-spacing:-0.01em;}.cls-33,.cls-37{fill:#348fce;}.cls-34,.cls-37{font-size:10px;}.cls-35{letter-spacing:-0.01em;}.cls-36{letter-spacing:0em;}.cls-38{letter-spacing:-0.03em;}.cls-39{letter-spacing:-0.02em;}.cls-41{font-size:30px;}.cls-42{letter-spacing:-0.1em;}.cls-43{stroke-width:3px;}.cls-44{letter-spacing:-0.07em;}</style><clipPath id="clip-path"><path class="cls-1" d="M247.37,111.39a14.57,14.57,0,0,1,1.7-2c2.6-2,5.28-3.83,7.87-5.82a9.72,9.72,0,0,0,1.52-2,15.26,15.26,0,0,0-1.86-1.36,3.6,3.6,0,0,0-1.73-.42c-3.94.13-7.33-1.46-10.73-3.19a9,9,0,0,0-4.09-.94c-4.19.11-5.68-.69-7.38-4.35a7.33,7.33,0,0,0-1.23-1.47c-.43.44-1.05.81-1.24,1.33-.51,1.4-1.27,1.52-2.72,1.41-7.14-.51-14.3-.76-21.45-1.17-2.66-.15-5.32-.42-8-.73s-5.57-.75-8.35-1.13c-4.12-.56-8.25-1-12.35-1.7-4.55-.75-9.06-1.72-13.6-2.52-3-.53-6-.84-9-1.42-2.55-.49-5-1.28-7.59-1.83-3.93-.86-7.92-1.45-11.8-2.47-5.89-1.55-11.71-3.32-17.54-5.08-7.71-2.32-15.39-4.75-23.11-7a9.1,9.1,0,0,0-2.7,0l.51,2.38-.44,0-.29,5.56a1.7,1.7,0,0,1-1.26-.92c-.29-.52-.35-1.29-.77-1.6-2.09-1.5-4.23-3-6.45-4.27-.5-.3-1.83-.21-2,.13A7.54,7.54,0,0,0,80.37,72c-.21,4.57-.28,9.14-.42,13.71,0,.11-.21.2-.28.33-1.14,2.36-2.29,4.71-3.4,7.09-1.44,3.09-2.86,6.21-4.26,9.33-.51,1.12-.67,2.57-1.48,3.35-2.71,2.6-3.19,5.8-3.47,9.31-.35,4.3-.3,8.83-4.11,12.09-.57.49-.36,2-.32,3.08.08,1.84.67,3.73.4,5.5-.47,3.2-1.22,6.31.79,9.27a2.68,2.68,0,0,1,.55,1.68c-.33,2.34.29,4,3.3,4.28-1,.58-1.74.78-2,1.26-.92,1.64-.2,5,1,6.49.41.52.61,1.85.28,2.2-1.35,1.38-1.22,2.75-.51,4.29a45.51,45.51,0,0,1,2.21,4.89c.79,2.42,2.21,4.77,1.09,7.52-.49,1.2-.06,2.16,1.07,3.08,2.61,2.12,6.32,2.88,7.89,6.32.14.3.75.37,1.12.58s1,.4,1.22.77c1.39,2,2.79,4.08,4,6.22a7.48,7.48,0,0,1,1.24,3.66c-.14,3.52-.28,3.52,3.24,4.31a9.88,9.88,0,0,1,1.32.24c3.65,1.25,7.69.58,11.13,3.3,3.9,3.07,8.51,5.2,12.67,8,2.47,1.64,4.59,3.79,7,5.54a9.33,9.33,0,0,0,3.61,1.53c3.73.7,7.53,1.12,11.26,1.83s3.71.79,5.31-2.82c3,.38,6,.73,9,1.22a3.07,3.07,0,0,1,1.64,1.09c1.91,2.27,3.84,4.54,5.6,6.93,1.16,1.58,2.72,3.28,2.92,5.06.48,4.19,2.52,7.21,5.42,10,3.51,3.33,5,3.18,7-1.07.84-1.75,2-2.46,3.92-2,1.52.34,3.1.35,4.65.55a1.89,1.89,0,0,1,1.15.44c1.87,2.55,4.15,4.77,5.13,8a24,24,0,0,0,3.89,8,15.56,15.56,0,0,1,3,6.55c.7,3,2,5.61,5.32,6.62,1.62.49,3.21,1.07,4.78,1.7,1.36.56,2.65,1.31,4,1.82a2,2,0,0,0,1.61-.35c.22-.16.16-1,0-1.37A9.71,9.71,0,0,1,210,266c.47-1.82.84-3.66,1.25-5.49.54-.44,1.7-1,1.64-1.43-.22-1.59,1.13-1.82,1.82-2.62s2.57-.71,2.22-2.5a21,21,0,0,1,2.38.15c.4.07.8.67,1.12.6,3.65-.76,5.65-3,6.16-6.76a7.79,7.79,0,0,1,.33-1.27c1.12.11,2.06.49,2.79.24a18.93,18.93,0,0,1,12.28-.3c1.65.52,3.46,1,4.31-1.54,1.68,1.11,3.33,1.8,4.42,3,2.3,2.54,7.18,2.9,9.55.28a20.92,20.92,0,0,1,2.36,1.56c1,.87,2.2,1.56,3.08.32s-.44-1.87-1.46-2.35c-1.34-.63-1.91-1.43-.65-2.71a3.09,3.09,0,0,0,.79-1.33,2.15,2.15,0,0,0-.1-1.62c-.26-.32-1-.26-1.57-.26a5.62,5.62,0,0,0-1.21.23l-.16-.84c2.32-.3,4.63-.64,6.95-.87,1.66-.16,3.53.32,4.37-1.82.26,2.65.58,2.84,3.06,1.77.87-.38,1.74-1.13,2.61-1.12,2.8,0,5.77-.72,8.2,1.67.9.89,2.5,1.07,3.4,2a2.71,2.71,0,0,0,3.77.52c1-.6,2.15-1,3.16-1.67,2.27-1.42,3.91-1.08,5.57,1a13.44,13.44,0,0,0,3.48,3.6c1.94,1.1,2.06,2.7,2.5,4.53.55,2.31-1.26,5.36,2,6.92.11.05,0,.57,0,.86.43,2.4.71,4.88,3.44,6,.37.15.49.85.78,1.25q2.25,3.1,4.53,6.17a40.34,40.34,0,0,0,2.63,3.32c.61.66,1.58,1.71,2.17,1.58,4.14-.92,4.87-.48,4.91-5,0-1,.17-2.1.1-3.14-.16-2.52,0-5.17-.73-7.53-1.27-4.05-4-7.56-4.87-11.81a2.48,2.48,0,0,0-.61-1.18c-3.33-3.17-4.73-7.37-6-11.58a14.13,14.13,0,0,1-.4-5.89,49,49,0,0,1,2.09-7.31,6.29,6.29,0,0,1,.79-1.52c.51-.83,1.06-1.63,1.88-2.88,2.41-.2,2.47-.16,5.78-3.89a25.9,25.9,0,0,0,2.09-3.64c1.34-2.18,2.32-4.65,5.25-5.42a4.36,4.36,0,0,0,2.38-2.1c1.19-2.42,2.72-4.19,5.54-4.67a2.6,2.6,0,0,0,2.37-3c-.21-1.21-1.07-2.31-1.93-4,2.77,2.22,4,.28,4.78-1.28,1.91-3.68-2.1-2.82-4-4.1l2.78-1.06c-1.12-2.27.3-5.85-3.69-6,.49-4-2.33-7.07-2.52-10.73-.15-2.75-3.18-5.67.68-8.28a6.82,6.82,0,0,0-.32,2.06c.41,2.23.34,4.93,1.61,6.51a6.19,6.19,0,0,1,1.54,5.8c-.22,1.07.52,2.34.82,3.52l1.16-.19c1.49-6.09,4.34-12.25-1.81-18a9.63,9.63,0,0,1,3.58,1.24c1.37,1,2,.59,2.46-.75a52.35,52.35,0,0,0,2.06-6.36c.21-1.06-.45-2.29-.67-3.46-.16-.92-.71-2.21-.3-2.74,2.15-2.82,4.44-5.48,8.4-6,2.53-.32,4.8-1.44,5.82-4,.58.08,1.28.39,1.55.17a3.93,3.93,0,0,1,3.07-.93,2.34,2.34,0,0,0,2.15-3.62c-1.53,1.39-2.5.54-3.89-.57-2.5-2-1.58-4.86-2.41-7.25-.07-.22.16-.55.27-.83.6-1.56,1.16-3.15,1.83-4.68a2.72,2.72,0,0,1,1.06-1c.5-.33,1.19-.45,1.58-.86,1.56-1.61,3-3.3,4.71-5.14.45,0,1.65.37,2.32-.07a50.7,50.7,0,0,0,5.55-4.39,2.4,2.4,0,0,0,.59-1.57c-1.27-.9-1.17-3.54-3.64-2.93-.24.06-.73-.28-.87-.56a49,49,0,0,1-2.46-5c-.67-1.72-.84-3.67-1.69-5.29a10.83,10.83,0,0,0-3.27-3.66c-.45-.32-1.78.74-2.76,1a12.37,12.37,0,0,1-2.25-.14c-.87,0-2.36-.18-2.52.2-.87,2-2,4.06-1.94,6.09.08,3.81.62,7.58-1,11.22-2.12.47-4.38.74-4.36,3.29-5.77,1.29-11.3,2.5-16.81,3.79a3.52,3.52,0,0,0-1.89,1.14c-1.68,2.22-3.25,4.53-4.83,6.84a1.39,1.39,0,0,0,0,.86c.26,1.29.54,2.57.75,3.54-2.28,3.09-5.32,3.29-8.54,3.27a16.71,16.71,0,0,0-4.82.87c-1.41.41-2.4,1.14-1.38,3a2.73,2.73,0,0,1-.27,2.56,52,52,0,0,1-7.12,6.25,85.62,85.62,0,0,1-9,4.82c-2,1.06-4,.7-6-1.18,1.17-2.75,2.28-5.64,3.6-8.42,1.22-2.56-.91-4.5-1.09-6.82-.08-1.08-1.66-2.89-2.51-2.87-1.1,0-2.15,1.58-3.24,2.45a8.48,8.48,0,0,1-1.22.67,6,6,0,0,1,.13-1.15,2.85,2.85,0,0,1,.57-1.2c3.33-3,.48-6.47.7-9.7,0-.42-.83-1.1-1.4-1.31a39.48,39.48,0,0,0-5.95-1.88c-2.77-.56-3-.25-2.49,2.13l-2,3.32a2.37,2.37,0,0,0-2.22.28c-2.27,2.32-2.09,5.48-2.56,8.38a5.42,5.42,0,0,0,.28,3.26c2.05,3.74.68,7.4-.12,11-.24,1.14-1.31,2.13-2.09,3.12s-1.54.93-2.19-.06a15.33,15.33,0,0,1-2.36-12c1.06-4.34.43-9.2,3.35-13.08a1.24,1.24,0,0,0-.23-1.16,1.59,1.59,0,0,0-1.37.11,22.34,22.34,0,0,0-2,2.21l-.43-.3,4.34-6.36c1.16.33,2,.86,2.42.63,1.61-.83,3-2,4.64-2.86a3.17,3.17,0,0,1,2.53-.31c2.55,1.44,4.4-.32,6.95-.83-1.88-2-2.25-4.88-5.48-4.4-.33,0-.7-.57-1.1-.7a4.62,4.62,0,0,0-2.28-.41c-2.26.59-4.45,1.43-6.69,2.11a2.44,2.44,0,0,1-1.46-.08c-2.32-.89-4.61-1.85-7.16-2.89a24.32,24.32,0,0,0,2.14-2.39,5,5,0,0,0,.39-1.78c-.56,0-1.27-.35-1.66-.12-1.52.91-3,1.94-4.41,3-2.74,2-5.64,3.66-9.1,3.94C252.82,108.89,252.82,108.89,247.37,111.39Z"/></clipPath></defs><title>Display</title><g class="cls-2"><g id="Layer_1" data-name="Layer 1"><path class="cls-1" d="M247.37,111.39a14.57,14.57,0,0,1,1.7-2c2.6-2,5.28-3.83,7.87-5.82a9.72,9.72,0,0,0,1.52-2,15.26,15.26,0,0,0-1.86-1.36,3.6,3.6,0,0,0-1.73-.42c-3.94.13-7.33-1.46-10.73-3.19a9,9,0,0,0-4.09-.94c-4.19.11-5.68-.69-7.38-4.35a7.33,7.33,0,0,0-1.23-1.47c-.43.44-1.05.81-1.24,1.33-.51,1.4-1.27,1.52-2.72,1.41-7.14-.51-14.3-.76-21.45-1.17-2.66-.15-5.32-.42-8-.73s-5.57-.75-8.35-1.13c-4.12-.56-8.25-1-12.35-1.7-4.55-.75-9.06-1.72-13.6-2.52-3-.53-6-.84-9-1.42-2.55-.49-5-1.28-7.59-1.83-3.93-.86-7.92-1.45-11.8-2.47-5.89-1.55-11.71-3.32-17.54-5.08-7.71-2.32-15.39-4.75-23.11-7a9.1,9.1,0,0,0-2.7,0l.51,2.38-.44,0-.29,5.56a1.7,1.7,0,0,1-1.26-.92c-.29-.52-.35-1.29-.77-1.6-2.09-1.5-4.23-3-6.45-4.27-.5-.3-1.83-.21-2,.13A7.54,7.54,0,0,0,80.37,72c-.21,4.57-.28,9.14-.42,13.71,0,.11-.21.2-.28.33-1.14,2.36-2.29,4.71-3.4,7.09-1.44,3.09-2.86,6.21-4.26,9.33-.51,1.12-.67,2.57-1.48,3.35-2.71,2.6-3.19,5.8-3.47,9.31-.35,4.3-.3,8.83-4.11,12.09-.57.49-.36,2-.32,3.08.08,1.84.67,3.73.4,5.5-.47,3.2-1.22,6.31.79,9.27a2.68,2.68,0,0,1,.55,1.68c-.33,2.34.29,4,3.3,4.28-1,.58-1.74.78-2,1.26-.92,1.64-.2,5,1,6.49.41.52.61,1.85.28,2.2-1.35,1.38-1.22,2.75-.51,4.29a45.51,45.51,0,0,1,2.21,4.89c.79,2.42,2.21,4.77,1.09,7.52-.49,1.2-.06,2.16,1.07,3.08,2.61,2.12,6.32,2.88,7.89,6.32.14.3.75.37,1.12.58s1,.4,1.22.77c1.39,2,2.79,4.08,4,6.22a7.48,7.48,0,0,1,1.24,3.66c-.14,3.52-.28,3.52,3.24,4.31a9.88,9.88,0,0,1,1.32.24c3.65,1.25,7.69.58,11.13,3.3,3.9,3.07,8.51,5.2,12.67,8,2.47,1.64,4.59,3.79,7,5.54a9.33,9.33,0,0,0,3.61,1.53c3.73.7,7.53,1.12,11.26,1.83s3.71.79,5.31-2.82c3,.38,6,.73,9,1.22a3.07,3.07,0,0,1,1.64,1.09c1.91,2.27,3.84,4.54,5.6,6.93,1.16,1.58,2.72,3.28,2.92,5.06.48,4.19,2.52,7.21,5.42,10,3.51,3.33,5,3.18,7-1.07.84-1.75,2-2.46,3.92-2,1.52.34,3.1.35,4.65.55a1.89,1.89,0,0,1,1.15.44c1.87,2.55,4.15,4.77,5.13,8a24,24,0,0,0,3.89,8,15.56,15.56,0,0,1,3,6.55c.7,3,2,5.61,5.32,6.62,1.62.49,3.21,1.07,4.78,1.7,1.36.56,2.65,1.31,4,1.82a2,2,0,0,0,1.61-.35c.22-.16.16-1,0-1.37A9.71,9.71,0,0,1,210,266c.47-1.82.84-3.66,1.25-5.49.54-.44,1.7-1,1.64-1.43-.22-1.59,1.13-1.82,1.82-2.62s2.57-.71,2.22-2.5a21,21,0,0,1,2.38.15c.4.07.8.67,1.12.6,3.65-.76,5.65-3,6.16-6.76a7.79,7.79,0,0,1,.33-1.27c1.12.11,2.06.49,2.79.24a18.93,18.93,0,0,1,12.28-.3c1.65.52,3.46,1,4.31-1.54,1.68,1.11,3.33,1.8,4.42,3,2.3,2.54,7.18,2.9,9.55.28a20.92,20.92,0,0,1,2.36,1.56c1,.87,2.2,1.56,3.08.32s-.44-1.87-1.46-2.35c-1.34-.63-1.91-1.43-.65-2.71a3.09,3.09,0,0,0,.79-1.33,2.15,2.15,0,0,0-.1-1.62c-.26-.32-1-.26-1.57-.26a5.62,5.62,0,0,0-1.21.23l-.16-.84c2.32-.3,4.63-.64,6.95-.87,1.66-.16,3.53.32,4.37-1.82.26,2.65.58,2.84,3.06,1.77.87-.38,1.74-1.13,2.61-1.12,2.8,0,5.77-.72,8.2,1.67.9.89,2.5,1.07,3.4,2a2.71,2.71,0,0,0,3.77.52c1-.6,2.15-1,3.16-1.67,2.27-1.42,3.91-1.08,5.57,1a13.44,13.44,0,0,0,3.48,3.6c1.94,1.1,2.06,2.7,2.5,4.53.55,2.31-1.26,5.36,2,6.92.11.05,0,.57,0,.86.43,2.4.71,4.88,3.44,6,.37.15.49.85.78,1.25q2.25,3.1,4.53,6.17a40.34,40.34,0,0,0,2.63,3.32c.61.66,1.58,1.71,2.17,1.58,4.14-.92,4.87-.48,4.91-5,0-1,.17-2.1.1-3.14-.16-2.52,0-5.17-.73-7.53-1.27-4.05-4-7.56-4.87-11.81a2.48,2.48,0,0,0-.61-1.18c-3.33-3.17-4.73-7.37-6-11.58a14.13,14.13,0,0,1-.4-5.89,49,49,0,0,1,2.09-7.31,6.29,6.29,0,0,1,.79-1.52c.51-.83,1.06-1.63,1.88-2.88,2.41-.2,2.47-.16,5.78-3.89a25.9,25.9,0,0,0,2.09-3.64c1.34-2.18,2.32-4.65,5.25-5.42a4.36,4.36,0,0,0,2.38-2.1c1.19-2.42,2.72-4.19,5.54-4.67a2.6,2.6,0,0,0,2.37-3c-.21-1.21-1.07-2.31-1.93-4,2.77,2.22,4,.28,4.78-1.28,1.91-3.68-2.1-2.82-4-4.1l2.78-1.06c-1.12-2.27.3-5.85-3.69-6,.49-4-2.33-7.07-2.52-10.73-.15-2.75-3.18-5.67.68-8.28a6.82,6.82,0,0,0-.32,2.06c.41,2.23.34,4.93,1.61,6.51a6.19,6.19,0,0,1,1.54,5.8c-.22,1.07.52,2.34.82,3.52l1.16-.19c1.49-6.09,4.34-12.25-1.81-18a9.63,9.63,0,0,1,3.58,1.24c1.37,1,2,.59,2.46-.75a52.35,52.35,0,0,0,2.06-6.36c.21-1.06-.45-2.29-.67-3.46-.16-.92-.71-2.21-.3-2.74,2.15-2.82,4.44-5.48,8.4-6,2.53-.32,4.8-1.44,5.82-4,.58.08,1.28.39,1.55.17a3.93,3.93,0,0,1,3.07-.93,2.34,2.34,0,0,0,2.15-3.62c-1.53,1.39-2.5.54-3.89-.57-2.5-2-1.58-4.86-2.41-7.25-.07-.22.16-.55.27-.83.6-1.56,1.16-3.15,1.83-4.68a2.72,2.72,0,0,1,1.06-1c.5-.33,1.19-.45,1.58-.86,1.56-1.61,3-3.3,4.71-5.14.45,0,1.65.37,2.32-.07a50.7,50.7,0,0,0,5.55-4.39,2.4,2.4,0,0,0,.59-1.57c-1.27-.9-1.17-3.54-3.64-2.93-.24.06-.73-.28-.87-.56a49,49,0,0,1-2.46-5c-.67-1.72-.84-3.67-1.69-5.29a10.83,10.83,0,0,0-3.27-3.66c-.45-.32-1.78.74-2.76,1a12.37,12.37,0,0,1-2.25-.14c-.87,0-2.36-.18-2.52.2-.87,2-2,4.06-1.94,6.09.08,3.81.62,7.58-1,11.22-2.12.47-4.38.74-4.36,3.29-5.77,1.29-11.3,2.5-16.81,3.79a3.52,3.52,0,0,0-1.89,1.14c-1.68,2.22-3.25,4.53-4.83,6.84a1.39,1.39,0,0,0,0,.86c.26,1.29.54,2.57.75,3.54-2.28,3.09-5.32,3.29-8.54,3.27a16.71,16.71,0,0,0-4.82.87c-1.41.41-2.4,1.14-1.38,3a2.73,2.73,0,0,1-.27,2.56,52,52,0,0,1-7.12,6.25,85.62,85.62,0,0,1-9,4.82c-2,1.06-4,.7-6-1.18,1.17-2.75,2.28-5.64,3.6-8.42,1.22-2.56-.91-4.5-1.09-6.82-.08-1.08-1.66-2.89-2.51-2.87-1.1,0-2.15,1.58-3.24,2.45a8.48,8.48,0,0,1-1.22.67,6,6,0,0,1,.13-1.15,2.85,2.85,0,0,1,.57-1.2c3.33-3,.48-6.47.7-9.7,0-.42-.83-1.1-1.4-1.31a39.48,39.48,0,0,0-5.95-1.88c-2.77-.56-3-.25-2.49,2.13l-2,3.32a2.37,2.37,0,0,0-2.22.28c-2.27,2.32-2.09,5.48-2.56,8.38a5.42,5.42,0,0,0,.28,3.26c2.05,3.74.68,7.4-.12,11-.24,1.14-1.31,2.13-2.09,3.12s-1.54.93-2.19-.06a15.33,15.33,0,0,1-2.36-12c1.06-4.34.43-9.2,3.35-13.08a1.24,1.24,0,0,0-.23-1.16,1.59,1.59,0,0,0-1.37.11,22.34,22.34,0,0,0-2,2.21l-.43-.3,4.34-6.36c1.16.33,2,.86,2.42.63,1.61-.83,3-2,4.64-2.86a3.17,3.17,0,0,1,2.53-.31c2.55,1.44,4.4-.32,6.95-.83-1.88-2-2.25-4.88-5.48-4.4-.33,0-.7-.57-1.1-.7a4.62,4.62,0,0,0-2.28-.41c-2.26.59-4.45,1.43-6.69,2.11a2.44,2.44,0,0,1-1.46-.08c-2.32-.89-4.61-1.85-7.16-2.89a24.32,24.32,0,0,0,2.14-2.39,5,5,0,0,0,.39-1.78c-.56,0-1.27-.35-1.66-.12-1.52.91-3,1.94-4.41,3-2.74,2-5.64,3.66-9.1,3.94C252.82,108.89,252.82,108.89,247.37,111.39Z"/><g class="cls-3"><rect class="cls-4" x="62.49" y="55.01" width="179.42" height="222.13"/></g><text class="cls-5" transform="translate(97.79 160.2)">5<tspan class="cls-6" x="25.01" y="0">5</tspan><tspan class="cls-7" x="49.83" y="0">.</tspan><tspan x="60.79" y="0">5%</tspan></text><text class="cls-8" transform="translate(99.86 176.42)"><tspan class="cls-9">o</tspan><tspan x="5.56" y="0">f </tspan><tspan class="cls-10" x="10.79" y="0">American</tspan><tspan x="52.56" y="0">s </tspan><tspan class="cls-11" x="59.53" y="0">ex</tspan><tspan class="cls-10" x="69.6" y="0">e</tspan><tspan class="cls-12" x="74.97" y="0">r</tspan><tspan class="cls-10" x="77.96" y="0">cise</tspan><tspan x="95.61" y="0">d </tspan><tspan class="cls-10" x="103.49" y="0">th</tspan><tspan class="cls-13" x="112.31" y="0">r</tspan><tspan class="cls-9" x="115.29" y="0">e</tspan><tspan x="120.66" y="0">e </tspan><tspan class="cls-9" x="0" y="12.47">o</tspan><tspan x="5.56" y="12.47">r </tspan><tspan class="cls-10" x="10.89" y="12.47">mo</tspan><tspan class="cls-13" x="24.83" y="12.47">r</tspan><tspan x="27.82" y="12.47">e </tspan><tspan class="cls-9" x="35.27" y="12.47">day</tspan><tspan x="51.41" y="12.47">s </tspan><tspan class="cls-9" x="58.38" y="12.47">i</tspan><tspan x="60.54" y="12.47">n </tspan><tspan class="cls-9" x="68.14" y="12.47">las</tspan><tspan x="80.44" y="12.47">t </tspan><tspan class="cls-9" x="85.7" y="12.47">wee</tspan><tspan x="103.9" y="12.47">k</tspan></text><polygon class="cls-1" points="732.97 82.79 739.3 82.79 739.3 81.05 739.3 73.89 739.3 69.04 732.97 69.04 732.97 73.89 732.97 81.05 732.97 82.79"/><path class="cls-14" d="M739.3,82.79v3.34H733V82.79a76,76,0,1,0,67.34,116.62l-2.91-1.68,3.17-5.48,2.91,1.68A76,76,0,0,0,739.3,82.79Z"/><path class="cls-15" d="M812.12,158.71a75.63,75.63,0,0,1-8.64,35.22l11.9,6.87A89.73,89.73,0,0,0,739.3,69V82.79A76,76,0,0,1,812.12,158.71Z"/><path class="cls-1" d="M736.13,234.7A76,76,0,0,1,733,82.79V69a89.72,89.72,0,1,0,79.24,137.24l-11.9-6.87A75.93,75.93,0,0,1,736.13,234.7Z"/><path class="cls-14" d="M739.3,99v5.74H733V99a59.75,59.75,0,1,0,61.82,71.06l-8.23-1.45,1.1-6.23,8,1.41c.15-1.69.24-3.4.24-5.12A59.75,59.75,0,0,0,739.3,99Z"/><path class="cls-1" d="M794.79,170.1A59.75,59.75,0,1,1,733,99V88.23A70.55,70.55,0,1,0,805.44,172l-9.72-1.71Z"/><path class="cls-16" d="M795.89,158.71c0,1.72-.09,3.43-.24,5.12l1.17.21,9.52,1.68q.35-3.47.35-7A70.54,70.54,0,0,0,739.3,88.23V99A59.75,59.75,0,0,1,795.89,158.71Z"/><polygon class="cls-1" points="732.97 97.67 732.97 99.04 739.3 99.04 739.3 97.67 739.3 96.68 739.3 92.25 739.3 92.04 739.3 88.22 732.97 88.22 732.97 92.04 732.97 92.25 732.97 96.68 732.97 97.67"/><path class="cls-14" d="M773.06,133.66l1.06-.61A45.79,45.79,0,0,0,739.3,113v1.17H733V113a45.81,45.81,0,1,0,44.32,25.53l-1.07.62Z"/><path class="cls-17" d="M739.3,105.71V113a45.79,45.79,0,0,1,34.82,20.06l2.24-1.3.19-.11,3.84-2.21.85-.49.06,0a54.06,54.06,0,0,0-42-24.22v1Z"/><path class="cls-1" d="M784.48,134.37l-.08,0-.85.49-3.84,2.22-.18.1-2.24,1.29A45.85,45.85,0,1,1,733,113v-8.31a54.12,54.12,0,1,0,51.51,29.69Z"/><polygon class="cls-1" points="780.38 129.43 776.55 131.65 776.36 131.75 774.12 133.05 774.13 133.04 777.29 138.52 777.29 138.52 779.53 137.23 779.71 137.13 783.55 134.91 784.4 134.42 784.48 134.37 784.48 134.37 781.31 128.89 781.3 128.9 781.24 128.94 780.38 129.43"/><polygon class="cls-1" points="732.97 106.49 732.97 109.9 732.97 110.06 732.97 112.09 732.97 112.99 739.3 112.99 739.3 112.09 739.3 110.06 739.3 109.9 739.3 106.49 739.3 105.73 739.3 105.7 739.3 104.68 732.97 104.68 732.97 105.7 732.97 105.73 732.97 106.49"/><polyline class="cls-1" points="806.34 165.72 796.82 164.04 795.65 163.83 795.65 163.83 794.79 170.1 794.79 170.1 795.72 170.27 805.44 171.98"/><rect class="cls-1" x="804.68" y="193.23" width="6.33" height="13.75" transform="translate(230.33 799.38) rotate(-59.97)"/><text class="cls-18" transform="translate(711.16 143.51)">Fitness By <tspan class="cls-19" x="38.76" y="0">A</tspan><tspan x="44.1" y="0">ge </tspan></text><text class="cls-20" transform="translate(726.09 156.08)">18-29</text><text class="cls-20" transform="translate(726.53 168.34)">30-45</text><text class="cls-20" transform="translate(726.53 180.48)">O<tspan class="cls-21" x="4.58" y="0">v</tspan><tspan x="7.51" y="0">er 45</tspan></text><rect class="cls-15" x="712.91" y="149.74" width="7.48" height="7.48"/><rect class="cls-16" x="712.91" y="161.75" width="7.48" height="7.48"/><rect class="cls-17" x="712.91" y="173.76" width="7.48" height="7.48"/><text class="cls-22" transform="translate(1073.86 29.04)"><tspan class="cls-23">T</tspan><tspan x="9.41" y="0">op 3 Fitness </tspan><tspan class="cls-24" x="118.13" y="0">W</tspan><tspan x="135.8" y="0">or</tspan><tspan class="cls-25" x="153.28" y="0">k</tspan><tspan x="162.88" y="0">out</tspan></text><image class="cls-26" width="706" height="714" transform="translate(344.48 316.46) scale(0.24)" xlink:href="Display1.png"/><path class="cls-27" d="M420.08,434.53a36.32,36.32,0,0,1-6.44-72.07V330.92A67.59,67.59,0,1,0,476.45,435.5l-27.18-15.69A36.25,36.25,0,0,1,420.08,434.53Z"/><path class="cls-4" d="M456.34,401a41.32,41.32,0,0,1-1.77,12l31.23,18a76.88,76.88,0,0,0-64-106.57v35.8A41.31,41.31,0,0,1,456.34,401Z"/><text class="cls-28" transform="translate(321.34 503.03)">US Smartphone Owners</text><path class="cls-29" d="M455.19,356.86v-5.25h3.18v.59h-2.53V354h2.33v.58h-2.33v2.28Z"/><path class="cls-29" d="M459,352a.4.4,0,0,1,.79,0,.4.4,0,1,1-.79,0Zm.07,1h.64v3.79h-.64Z"/><path class="cls-29" d="M461.38,352.16v.91h.73v.52h-.73v2.25c0,.34.15.5.47.5l.26,0v.53a2.1,2.1,0,0,1-.4,0c-.69,0-1-.28-1-1v-2.28h-.57v-.52h.57v-.91Z"/><path class="cls-29" d="M462.79,353.07h.59v.62h0a1.35,1.35,0,0,1,2.51.74v2.43h-.63v-2.32c0-.61-.29-.94-.88-.94a1,1,0,0,0-1,1.06v2.2h-.63Z"/><path class="cls-29" d="M469.85,355.77a1.5,1.5,0,0,1-1.58,1.12,1.7,1.7,0,0,1-1.74-1.91,1.72,1.72,0,0,1,1.71-1.94,1.63,1.63,0,0,1,1.65,1.86v.24h-2.71v0a1.07,1.07,0,0,0,1.11,1.17.92.92,0,0,0,.94-.57Zm-2.67-1.13h2.06a1,1,0,0,0-1-1.05A1,1,0,0,0,467.18,354.64Z"/><path class="cls-29" d="M471.88,353a1.24,1.24,0,0,1,1.38,1.09h-.6c0-.36-.34-.57-.8-.57s-.77.21-.77.54.2.42.63.53l.58.14c.77.19,1,.46,1,1s-.62,1.11-1.5,1.11a1.32,1.32,0,0,1-1.48-1.1H471c.06.38.37.59.88.59s.83-.21.83-.55-.16-.4-.59-.51l-.66-.17c-.67-.17-1-.51-1-1S471.05,353,471.88,353Z"/><path class="cls-29" d="M475.35,353a1.25,1.25,0,0,1,1.38,1.09h-.6c0-.36-.34-.57-.81-.57s-.76.21-.76.54.2.42.63.53l.58.14c.77.19,1,.46,1,1s-.62,1.11-1.5,1.11a1.32,1.32,0,0,1-1.48-1.1h.63c.07.38.38.59.89.59s.83-.21.83-.55-.16-.4-.59-.51l-.66-.17c-.67-.17-1-.51-1-1S474.52,353,475.35,353Z"/><path class="cls-29" d="M467.11,365.27a2.51,2.51,0,0,1-1.68.62,1.57,1.57,0,0,1-1.76-1.49,1.61,1.61,0,0,1,1-1.45l.2-.1a1.79,1.79,0,0,1-.65-1.22,1.23,1.23,0,0,1,1.33-1.17,1.21,1.21,0,0,1,1.32,1.17c0,.54-.32.93-1.12,1.35l1.3,1.4a3,3,0,0,0,.25-1.4v-.15h.6V363a3.28,3.28,0,0,1-.43,1.83l.92,1h-.82Zm-2.79-.91c0,.58.47,1,1.17,1a1.76,1.76,0,0,0,1.24-.49l-1.48-1.62-.17.1C464.53,363.66,464.32,364,464.32,364.36Zm2-2.7a.71.71,0,0,0-1.42,0c0,.29.15.54.56.95C466.06,362.29,466.29,362,466.29,361.66Z"/><path class="cls-29" d="M459.64,374.74v-2.39h-2.89v2.39h-.65v-5.25h.65v2.27h2.89v-2.27h.65v5.25Z"/><path class="cls-29" d="M464.35,373.66a1.51,1.51,0,0,1-1.58,1.12,1.7,1.7,0,0,1-1.74-1.91,1.73,1.73,0,0,1,1.71-1.95,1.64,1.64,0,0,1,1.65,1.86V373h-2.71v0a1.07,1.07,0,0,0,1.1,1.17.91.91,0,0,0,.94-.57Zm-2.67-1.13h2.06a1,1,0,0,0-1-1.06A1,1,0,0,0,461.68,372.53Z"/><path class="cls-29" d="M464.86,373.67c0-.66.5-1,1.42-1.1l1.05-.06v-.31c0-.47-.3-.72-.85-.72a.77.77,0,0,0-.83.57H465a1.32,1.32,0,0,1,1.45-1.13c.9,0,1.48.48,1.48,1.22v2.6h-.6v-.65h0a1.36,1.36,0,0,1-1.21.71A1.15,1.15,0,0,1,464.86,373.67Zm2.47-.36V373l-1,.07c-.56,0-.85.24-.85.6s.3.59.78.59A1,1,0,0,0,467.33,373.31Z"/><path class="cls-29" d="M468.8,369.49h.64v5.25h-.64Z"/><path class="cls-29" d="M471.13,370V371h.73v.52h-.73v2.24c0,.35.14.51.47.51l.26,0v.53a2.1,2.1,0,0,1-.4,0c-.7,0-1-.29-1-1v-2.28h-.56V371h.56V370Z"/><path class="cls-29" d="M472.57,369.49h.63v2.09h0a1.23,1.23,0,0,1,1.2-.66,1.28,1.28,0,0,1,1.33,1.41v2.41h-.63v-2.3a.84.84,0,0,0-.9-1,1,1,0,0,0-1,1.09v2.17h-.63Z"/><polyline class="cls-30" points="491.89 401 512.78 367.46 566.09 367.46"/><text class="cls-31" transform="translate(555.34 335.03)">46 Million people<tspan x="-15.69" y="18">1/3 of US Smartphone </tspan></text><text class="cls-28" transform="translate(942.74 494.12)">Health App users <tspan class="cls-32" x="159.75" y="0">b</tspan><tspan x="171.43" y="0">y </tspan><tspan x="58.88" y="25.2">gender</tspan></text><path class="cls-14" d="M1029.7,359.33v-2.89a36.83,36.83,0,1,0,8.14,0v2.89Z"/><path class="cls-27" d="M996.94,393a36.84,36.84,0,0,1,32.76-36.6V325.73a67.45,67.45,0,0,0-16.26,131.63l7.08-30A36.83,36.83,0,0,1,996.94,393Z"/><image class="cls-26" width="458" height="687" transform="translate(1013.34 317.73) scale(0.24)" xlink:href="Display2.png"/><path class="cls-4" d="M1037.84,325.73v30.71a36.83,36.83,0,0,1-4.07,73.43,38.28,38.28,0,0,1-5.38-.39l-7.05,29.84a67.44,67.44,0,1,0,16.5-133.59Z"/><path class="cls-33" d="M1090.29,392.44a3.76,3.76,0,0,0,.43,2c.8,1.6,1,2.87-1.56,2.64-1.32-.12-1.22,1-1.22,1.84,0,2.37.06,4.74,0,7.11-.06,1.82-.89,2.44-2.52,1.23v-9.75h-.84v9.74c-1.57,1.16-2.46.66-2.53-1.19-.1-2.43,0-4.87,0-7.3,0-.78.07-1.79-1.07-1.67-3,.31-2.09-1.48-1.7-3a50.62,50.62,0,0,0,2.69-9.55c-1.76,2.47-1.69,5.59-3.23,8.12-1.33-.11-1.57-.86-1.23-2,.75-2.52,1.43-5.06,2.22-7.56.85-2.71,3.11-2.64,5.37-2.66s4.49.12,5.34,2.77,1.49,5,2.21,7.56c.45,1.57-.36,1.88-1.69,1.63-.79-2.59-1.59-5.18-2.38-7.77l-.66.22C1088.64,387.37,1089,390,1090.29,392.44Z"/><path class="cls-33" d="M1085.09,379.8c-1.77-.08-2.86-1-2.91-2.71a2.75,2.75,0,0,1,5.49-.23A2.57,2.57,0,0,1,1085.09,379.8Z"/><path class="cls-4" d="M984,406.88a1.59,1.59,0,0,1-2.16,1c-1.06-.36-1-1.34-1-2.22,0-5.83,0-11.65-.07-17.48a5.15,5.15,0,0,0-.58-3.2c0,2.75,0,4.89,0,7,0,.91,0,1.94-1.27,1.88-1,0-1.09-1-1.09-1.81,0-2.73-.06-5.47,0-8.21a3,3,0,0,1,3.19-3.18c2.21-.08,4.42-.08,6.62,0a3.2,3.2,0,0,1,3.4,3.32c.14,2.73.05,5.47.07,8.21,0,.9-.31,1.66-1.26,1.71s-1.22-.84-1.23-1.67a25.16,25.16,0,0,0-.64-6.73v18.48a18.55,18.55,0,0,1,0,2.11c-.25,2.27-1.44,2.35-3.09,1.27l-.21-12.64c-.09-.12-.16-.32-.27-.34s-.39.11-.39.18c0,3,0,6,0,9Z"/><path class="cls-4" d="M984.46,379.8c-1.78-.15-2.78-1-2.82-2.68a2.53,2.53,0,0,1,2.77-2.84,2.58,2.58,0,0,1,2.69,2.94C987.07,379,985.9,379.62,984.46,379.8Z"/><text class="cls-34" transform="translate(973.29 419.94)">4<tspan class="cls-35" x="6.05" y="0">8</tspan><tspan class="cls-36" x="11.89" y="0">.</tspan><tspan x="14.39" y="0">3%</tspan></text><text class="cls-37" transform="translate(1067.53 420.94)">5<tspan class="cls-25" x="5.85" y="0">1</tspan><tspan class="cls-38" x="10.04" y="0">.</tspan><tspan x="12.24" y="0">7%</tspan></text><text class="cls-22" transform="translate(571.08 295.18)">App plays an impor<tspan class="cls-36" x="164.47" y="0">t</tspan><tspan x="170.81" y="0">ant </tspan><tspan class="cls-39" x="202.53" y="0">r</tspan><tspan x="208.65" y="0">ole in fitness</tspan></text><text class="cls-40" transform="translate(1075.42 51.77)">Running is the second popular fitness wor<tspan class="cls-25" x="259.51" y="0">k</tspan><tspan x="266.43" y="0">out</tspan></text><text class="cls-41" transform="translate(77.32 45.41)">Fitness is a t<tspan class="cls-39" x="157.76" y="0">r</tspan><tspan x="166.95" y="0">end in US</tspan></text><text class="cls-22" transform="translate(573.82 27.31)">Fitness is especially popular among <tspan class="cls-42" x="308.1" y="0">Y</tspan><tspan x="318.76" y="0">oung </tspan><tspan x="0" y="24">people</tspan></text><line class="cls-43" x1="1097.75" y1="76.86" x2="1097.75" y2="241"/><polygon class="cls-1" points="1097.75 67.55 1092.39 80.68 1097.75 77.56 1103.12 80.68 1097.75 67.55"/><rect class="cls-4" x="1145.94" y="116.47" width="36.74" height="109"/><rect class="cls-4" x="1225.91" y="148.24" width="36.74" height="77.23"/><rect class="cls-4" x="1305.42" y="186.86" width="36.74" height="38.62"/><line class="cls-43" x1="1414.31" y1="225.47" x2="1077.75" y2="225.47"/><polygon class="cls-1" points="1424.9 225.47 1409.97 219.38 1413.52 225.47 1409.97 231.57 1424.9 225.47"/><text class="cls-31" transform="translate(1138.61 247.32)"><tspan class="cls-44">W</tspan><tspan x="13.07" y="0">alking</tspan></text><text class="cls-31" transform="translate(1217.88 248.32)">Running</text><text class="cls-31" transform="translate(1299.74 247.32)">Bic<tspan class="cls-35" x="20.26" y="0">y</tspan><tspan x="27.63" y="0">cle</tspan></text></g></g></svg>