<svg xmlns="http://www.w3.org/2000/svg" xmlns:xlink="http://www.w3.org/1999/xlink" viewBox="0 0 1371.25 665.99"><defs><style>.cls-1,.cls-100,.cls-101,.cls-2{fill:none;}.cls-100,.cls-101,.cls-2{stroke:#231f20;}.cls-3,.cls-7{font-size:27.43px;}.cls-19,.cls-23,.cls-3,.cls-7,.cls-83{fill:#4f97d1;}.cls-19,.cls-23,.cls-3,.cls-7,.cls-82{font-family:Helvetica-Bold, Helvetica;font-weight:700;}.cls-4{letter-spacing:0.05em;}.cls-5{letter-spacing:0.05em;}.cls-6,.cls-7{letter-spacing:0.05em;}.cls-8{letter-spacing:0.05em;}.cls-9{letter-spacing:0em;}.cls-10{clip-path:url(#clip-path);}.cls-11,.cls-32,.cls-35,.cls-38,.cls-42,.cls-44,.cls-49,.cls-52,.cls-54,.cls-63,.cls-70,.cls-76{fill:#231f20;}.cls-12,.cls-82{font-size:12.66px;}.cls-103,.cls-105,.cls-107,.cls-111,.cls-12,.cls-28,.cls-66,.cls-82{fill:#efe369;}.cls-103,.cls-105,.cls-107,.cls-111,.cls-12,.cls-28,.cls-66,.cls-70,.cls-76{font-family:SFUIDisplay-Medium, SF UI Display;font-weight:500;}.cls-13{letter-spacing:0.05em;}.cls-14{letter-spacing:0.05em;}.cls-15{letter-spacing:0.05em;}.cls-16{letter-spacing:0.03em;}.cls-17{letter-spacing:0.05em;}.cls-18{letter-spacing:0.05em;}.cls-19,.cls-23,.cls-32,.cls-35,.cls-38,.cls-42,.cls-63,.cls-66,.cls-70,.cls-76,.cls-83{font-size:10.55px;}.cls-19,.cls-24,.cls-38{letter-spacing:0.05em;}.cls-20{letter-spacing:0.05em;}.cls-111,.cls-21,.cls-32{letter-spacing:0.05em;}.cls-22{letter-spacing:0em;}.cls-25{letter-spacing:0.02em;}.cls-26{letter-spacing:0.05em;}.cls-27{letter-spacing:0.04em;}.cls-107,.cls-111,.cls-28{font-size:15.82px;}.cls-108,.cls-28{letter-spacing:0.05em;}.cls-29{letter-spacing:0.04em;}.cls-30{letter-spacing:0.05em;}.cls-31{letter-spacing:0em;}.cls-32,.cls-35,.cls-38,.cls-49,.cls-52,.cls-54,.cls-63,.cls-83{font-family:SFUIDisplay-Regular, SF UI Display;}.cls-33{letter-spacing:0.02em;}.cls-34{letter-spacing:0.04em;}.cls-36{letter-spacing:-0.02em;}.cls-37{letter-spacing:0.05em;}.cls-39{letter-spacing:0em;}.cls-40{letter-spacing:-0.02em;}.cls-41,.cls-63{letter-spacing:0.03em;}.cls-42,.cls-44{font-family:Helvetica;}.cls-43{letter-spacing:0.05em;}.cls-44,.cls-49,.cls-52,.cls-54{font-size:8.44px;}.cls-45{letter-spacing:0.05em;}.cls-46,.cls-49{letter-spacing:0.05em;}.cls-47,.cls-52{letter-spacing:0.05em;}.cls-48{letter-spacing:0.01em;}.cls-50{letter-spacing:0.04em;}.cls-51{letter-spacing:0em;}.cls-53{letter-spacing:0.05em;}.cls-55{letter-spacing:0.04em;}.cls-56{letter-spacing:0.03em;}.cls-57{letter-spacing:-0.07em;}.cls-58{letter-spacing:0.02em;}.cls-59{letter-spacing:0.05em;}.cls-60{letter-spacing:0em;}.cls-61{letter-spacing:0.03em;}.cls-62{letter-spacing:0.01em;}.cls-64{letter-spacing:0.03em;}.cls-65{letter-spacing:0.04em;}.cls-67{letter-spacing:-0.01em;}.cls-68{letter-spacing:-0.01em;}.cls-69{letter-spacing:-0.01em;}.cls-71{letter-spacing:0.02em;}.cls-72{letter-spacing:0.02em;}.cls-73{letter-spacing:0.02em;}.cls-74{letter-spacing:-0.01em;}.cls-75{letter-spacing:0.02em;}.cls-76,.cls-84{letter-spacing:0.01em;}.cls-77{letter-spacing:0.02em;}.cls-78{letter-spacing:-0.01em;}.cls-79{letter-spacing:0.02em;}.cls-80{letter-spacing:0.02em;}.cls-81{letter-spacing:0.05em;}.cls-85{letter-spacing:0.05em;}.cls-86{letter-spacing:0em;}.cls-87{letter-spacing:0em;}.cls-88{letter-spacing:-0.02em;}.cls-89{letter-spacing:0.03em;}.cls-90{letter-spacing:0.03em;}.cls-91{letter-spacing:0.05em;}.cls-92{letter-spacing:0.03em;}.cls-93{letter-spacing:0.05em;}.cls-94{letter-spacing:0.03em;}.cls-95{letter-spacing:0.03em;}.cls-96{letter-spacing:0.05em;}.cls-97{letter-spacing:0.01em;}.cls-98{letter-spacing:0.04em;}.cls-99{letter-spacing:0.02em;}.cls-100,.cls-101{stroke-miterlimit:10;}.cls-100{stroke-width:3px;}.cls-102{fill:#fff;}.cls-103,.cls-105{font-size:26.37px;}.cls-103{letter-spacing:0.05em;}.cls-104{letter-spacing:0em;}.cls-106{letter-spacing:0.05em;}.cls-109{letter-spacing:0.03em;}.cls-110{letter-spacing:0em;}.cls-112{letter-spacing:0.05em;}.cls-113{letter-spacing:0.05em;}.cls-114{letter-spacing:0.05em;}</style><clipPath id="clip-path"><rect class="cls-1" x="50.19" y="21.59" width="1208.77" height="593.41"/></clipPath></defs><title>Display</title><g id="Layer_1" data-name="Layer 1"><line class="cls-2" x1="303.36" y1="119.27" x2="303.36" y2="78.46"/><text class="cls-3" transform="translate(79.15 54.44)"><tspan class="cls-4">G</tspan><tspan class="cls-5" x="22.7" y="0">ame</tspan><tspan class="cls-4" x="81.63" y="0"> </tspan><tspan class="cls-6" x="90.62" y="0">Mec</tspan><tspan class="cls-4" x="148" y="0">hani</tspan><tspan class="cls-5" x="209.86" y="0">cs</tspan><tspan x="243.05" y="0"> </tspan></text><text class="cls-7" transform="translate(79.15 386.36)">M<tspan class="cls-8" x="24.19" y="0">on</tspan><tspan x="60.44" y="0">sters</tspan><tspan class="cls-4" x="132.72" y="0">&apos; </tspan><tspan x="149.6" y="0">De</tspan><tspan class="cls-8" x="187.35" y="0">plo</tspan><tspan class="cls-5" x="232.59" y="0">yme</tspan><tspan class="cls-4" x="291.51" y="0">n</tspan><tspan class="cls-9" x="309.63" y="0">t</tspan></text><g class="cls-10"><path d="M74.94,110.07c.47.35,1,.76,1,.74a8.45,8.45,0,0,1,3.1-2c.15-.07.18-.36.27-.55a15.64,15.64,0,0,1,1-1.9c.38-.53.21-.81-.23-1.08a.91.91,0,0,0-1.4.41,6.61,6.61,0,0,1-2.43,2.6,8.62,8.62,0,0,0-1.33,1.78M106,121.46a2.39,2.39,0,0,1,.13-.21,16.44,16.44,0,0,0,2.12-.35c.31-.08.54-.46.81-.71a4.45,4.45,0,0,0-.9-.5,3.11,3.11,0,0,1-2.48-2.07c-.17-.59-.44-.6-1-.41a8.54,8.54,0,0,1-2.4.39c-.43,0-1-.32-1.06.33s0,1.49.31,1.65a47.42,47.42,0,0,0,4.47,1.88M93.93,77.54a4.21,4.21,0,0,0-4.08,1.79c-1.78,2.19-3.48,4.46-5.12,6.75a16.73,16.73,0,0,0-1.28,2.79c.88-.74,1.45-1.58,2.17-1.75,1-.23,1-.87,1.29-1.55a4.91,4.91,0,0,1,.9-1.78c1.17-1.17,2.44-2.25,3.72-3.3a15.87,15.87,0,0,1,2-1.23l.2.2c.07-.6.15-1.2.23-1.92M109,86.49c.66,1.27,1.24,2.54,2,3.73a1.38,1.38,0,0,0,1.22.48,1.92,1.92,0,0,0,.81-1.28c.19-1.71.26-3.44.34-5.16.07-1.55.1-3.1.12-4.64,0-1.17,0-2.34,0-3.51-.32.08-.4.17-.4.25-.08,1.22-.16,2.4-1.23,3.27a1.16,1.16,0,0,0-.08,1.07c.76,1.61.2,3.27.24,4.9a4.84,4.84,0,0,1-.35,1l-.59-1.08-2.06.93m-10.39,14.9-.73-.4c-1.17-.66-2.32-1.36-3.52-1.93a1.18,1.18,0,0,0-1.1.32c-.66.83-1.2,1.76-1.79,2.64-.43.65-.7,1.27,0,1.93s1.85,1.65,2.79,1.09a33.42,33.42,0,0,0,4.35-3.65m-18.41,6.8a2.94,2.94,0,0,0,.49.08c3,.12,6.07.23,9.1.32a1.48,1.48,0,0,0,1-.2c.85-.79,1.64-1.65,2.45-2.48l-2.88-2c-.8,1.34-2.15,1.29-3.53,1.27a8.13,8.13,0,0,0-1.93.33c-1,.23-1.91.55-2.89.73a1.93,1.93,0,0,0-1.77,2m25.58-37c-1.72,0-2.47.68-2.6,2.39-.05.76,0,1.52,0,2.28A3.45,3.45,0,0,1,103,77a1.84,1.84,0,0,0,1.88,2.61,1.06,1.06,0,0,0,1.19-.76c.13-.34.57-.57.88-.85s.67-.39.8-.68a13.45,13.45,0,0,0,.93-2.5c.51-2.28-.62-3.63-2.93-3.61m-1.25,45.51a18.09,18.09,0,0,1-.54-3.89c.36-3.73.09-7.54,1.48-11.15.44-1.16-.69-3-1.91-3.41-.83-.26-2,.55-2.5,1.76-.07.16-.19.34-.15.49.11.48.14,1.1.45,1.4a1,1,0,0,1,.31,1.35,9.2,9.2,0,0,0-.43,6c.44,2.27,1.26,4.55.69,7,0,.19.31.69.48.68a16.27,16.27,0,0,0,2.12-.22M102,95.12l-.07.38a13.82,13.82,0,0,1,.59-1.48,1,1,0,0,0-.54-1.59,30,30,0,0,0-3.6-1.54c-1-.3-2.07-.77-3.19-.08-1.87,1.14-2.69,5-1.32,6.69,1.59,2,3.93,2.76,6.26,3.69a5.11,5.11,0,0,1,2.57-3.66l-4.27-4.86a3.17,3.17,0,0,1,.77.17c.94.75,1.87,1.52,2.8,2.28m5.92-11.5a7.37,7.37,0,0,1,.57,1.14c.14.54.22,1,1,.81s1.7-1,1.43-1.58a23.91,23.91,0,0,0-2-3.71,1.94,1.94,0,0,0-2.51-.52,3,3,0,0,1-4.23-1.39,1.2,1.2,0,0,0-1.25-.82,6.52,6.52,0,0,1-2-.44c-1.38-.52-2.64.14-3.93.35-.22,0-.44.44-.53.72-.37,1.15,0,1.71,1.2,1.91,1.86.3,1.91.31,1.71,2.14-.23,2.19-.56,4.38-.88,6.56-.1.67,0,1,.77,1.23a43.19,43.19,0,0,1,5,1.93c.65.28,1,.38,1.37-.38,1.16-2.34,2.41-4.65,3.63-7,.14-.26.32-.51.62-1m-23,4.77a5.53,5.53,0,0,1-.65,1,5.1,5.1,0,0,1-1,.64c-.13-.41-.47-.9-.35-1.23a12.81,12.81,0,0,1,1.45-3.19c1.73-2.4,3.58-4.72,5.45-7A5.59,5.59,0,0,1,94,76.7c1.13-.07,2.25-.31,3.37-.38a5.93,5.93,0,0,1,1.71.24,8.93,8.93,0,0,0,1.26.43c1.79.12,2.44.1,2.31-1.95a8.46,8.46,0,0,1,.21-2.66,3,3,0,0,1,3.45-1.82,3.14,3.14,0,0,1,3.06,2.71c.24,2-.61,3.76-1.73,5.53,2,.64,2.72,2.32,3.74,3.93,0-.4,0-.81,0-1.21-.08-.92-.25-1.82-.29-2.74,0-.29.23-.83.41-.85,1.06-.11.84-.88.89-1.53,0-.14,0-.32,0-.41.25-.36.54-.7.81-1,.24.33.67.65.7,1,.11,1.27.11,2.55.1,3.82,0,1.69,0,3.38-.09,5.07s-.21,3.24-.36,4.85c-.07.75-.31,1.5-1.17,1.64a1.92,1.92,0,0,1-2.16-1.08c-.75-1.47-1.42-3-2.12-4.48-.07-.15-.13-.3-.23-.54-.21.19-.41.29-.49.45-1.5,3-3,5.9-4.44,8.88-.71,1.49-.58,1.66.63,2.76.49.44,1,.91,1.45,1.33a2.88,2.88,0,0,1,1,3.45c-1,2.64-.93,5.43-1.19,8.17a27,27,0,0,0,0,4.12,4.36,4.36,0,0,0,.66,1.57,7.24,7.24,0,0,0,1,1.87,5.17,5.17,0,0,0,1.92,1.19c.61.2,1.38.27,1.32,1a1.93,1.93,0,0,1-1,1.35,5.85,5.85,0,0,1-5.38-.28,5,5,0,0,0-1-.47c-1.69-.62-2.35-1.47-1.55-3,1.16-2.28.61-4.43.23-6.66-.19-1.09-.41-2.17-.65-3.25a6.49,6.49,0,0,1,.51-3.84c.26-.65.51-1.26-.31-1.69s-1.31-.79-2.15.1c-1.44,1.52-3.12,2.82-4.68,4.23-.77.68-1.45,1.48-2.27,2.09a2.81,2.81,0,0,1-1.65.54c-2.72,0-5.44-.24-8.17-.24-.71,0-1.41.61-2.15.72a5.61,5.61,0,0,0-3.09,1.78c-.57.56-1.45.09-1.62-.78a2.54,2.54,0,0,1,1.08-2.72,6.93,6.93,0,0,0,2.5-2.68,1.34,1.34,0,0,1,2.2-.36c1.11,1.33,2.32.82,3.47.36a8.16,8.16,0,0,1,3.83-.67,2,2,0,0,0,2-1c1.11-1.66,2.25-3.3,3.31-5a1.38,1.38,0,0,0-.08-1.06,5.94,5.94,0,0,1,2.13-7.4,1.43,1.43,0,0,0,.55-.8c.4-2.55.77-5.11,1.09-7.68,0-.23-.4-.68-.68-.76a24.7,24.7,0,0,0-3-.55,1.41,1.41,0,0,0-.9.31c-.53.38-1,.85-1.52,1.25a9.69,9.69,0,0,0-4,5.59c-.31,1.33-.7,1.38-1.93,1"/><path d="M107.87,83.62c-.3.47-.48.72-.62,1-1.22,2.32-2.47,4.63-3.63,7-.38.76-.72.66-1.37.38a43.19,43.19,0,0,0-5-1.93c-.8-.24-.87-.56-.77-1.23.32-2.18.65-4.36.88-6.56.2-1.83.15-1.84-1.71-2.14-1.2-.2-1.57-.76-1.2-1.91.09-.28.31-.68.53-.72,1.29-.21,2.55-.87,3.93-.35a6.52,6.52,0,0,0,2,.44,1.2,1.2,0,0,1,1.25.82,3,3,0,0,0,4.23,1.39,2,2,0,0,1,2.51.51,24.48,24.48,0,0,1,2,3.72c.27.59-.51,1.33-1.43,1.58s-.85-.27-1-.81a7.37,7.37,0,0,0-.57-1.14"/><path d="M102,95.12c-.93-.76-1.85-1.53-2.8-2.28a3.17,3.17,0,0,0-.77-.17l4.27,4.86a5.11,5.11,0,0,0-2.57,3.66c-2.34-.93-4.67-1.67-6.26-3.69-1.37-1.73-.55-5.55,1.32-6.69,1.12-.69,2.18-.22,3.19.08a30,30,0,0,1,3.6,1.54,1,1,0,0,1,.54,1.59,13.82,13.82,0,0,0-.59,1.48l.07-.38"/><path d="M104.53,116.72a18.22,18.22,0,0,1-2.12.22c-.17,0-.52-.49-.48-.68.57-2.4-.25-4.68-.69-7a9.2,9.2,0,0,1,.43-6,1,1,0,0,0-.31-1.35c-.31-.3-.34-.92-.45-1.4,0-.15.08-.33.15-.49.51-1.21,1.67-2,2.5-1.76,1.22.39,2.35,2.25,1.91,3.41-1.39,3.61-1.12,7.42-1.47,11.15a17.4,17.4,0,0,0,.53,3.89"/><path d="M105.78,71.21c2.31,0,3.44,1.33,2.93,3.61a13.45,13.45,0,0,1-.93,2.5c-.13.29-.53.45-.8.68s-.75.51-.88.85a1.06,1.06,0,0,1-1.19.76A1.84,1.84,0,0,1,103,77a3.45,3.45,0,0,0,.14-1.12c0-.76,0-1.52,0-2.27.13-1.72.88-2.39,2.6-2.4"/><path d="M80.2,108.19a1.93,1.93,0,0,1,1.77-2c1-.18,1.92-.5,2.89-.73a8.13,8.13,0,0,1,1.93-.33c1.38,0,2.73.07,3.53-1.27l2.88,2c-.81.83-1.6,1.69-2.45,2.48a1.48,1.48,0,0,1-1,.2q-4.55-.14-9.1-.32a2.78,2.78,0,0,1-.49-.08"/><path d="M98.61,101.39A33.42,33.42,0,0,1,94.26,105c-.93.56-2-.33-2.79-1.09s-.43-1.28,0-1.93c.59-.88,1.13-1.81,1.79-2.64a1.21,1.21,0,0,1,1.1-.32c1.21.57,2.35,1.27,3.52,1.93l.73.4"/><path d="M109,86.49l2.06-.93c.14.26.3.56.59,1.08a4.84,4.84,0,0,0,.35-1c0-1.63.52-3.29-.24-4.9a1.16,1.16,0,0,1,.08-1.07c1.07-.87,1.15-2,1.23-3.27,0-.08.08-.17.39-.25,0,1.17,0,2.34,0,3.51,0,1.54,0,3.09-.12,4.64-.08,1.72-.15,3.44-.34,5.16a1.92,1.92,0,0,1-.81,1.28,1.38,1.38,0,0,1-1.22-.48c-.73-1.19-1.32-2.46-2-3.73"/><path d="M93.93,77.54c-.08.72-.16,1.32-.23,1.92l-.2-.2a16.77,16.77,0,0,0-2,1.23c-1.27,1.05-2.54,2.13-3.71,3.3a5.07,5.07,0,0,0-.9,1.78c-.25.68-.28,1.32-1.29,1.55-.72.17-1.29,1-2.17,1.75a16.73,16.73,0,0,1,1.28-2.79c1.64-2.29,3.34-4.56,5.12-6.75a4.21,4.21,0,0,1,4.08-1.79"/><path d="M106,121.46a47.42,47.42,0,0,1-4.47-1.88c-.32-.16-.38-1.1-.31-1.65s.63-.32,1.06-.33a8.54,8.54,0,0,0,2.4-.39c.56-.19.83-.18,1,.41a3.11,3.11,0,0,0,2.48,2.07,4.45,4.45,0,0,1,.9.5c-.27.25-.5.63-.81.71a16.44,16.44,0,0,1-2.12.35,2.39,2.39,0,0,0-.13.21"/><path d="M74.94,110.07a8.62,8.62,0,0,1,1.33-1.78,6.61,6.61,0,0,0,2.43-2.6.91.91,0,0,1,1.4-.41c.44.27.61.55.23,1.08a15.64,15.64,0,0,0-1,1.9c-.09.18-.12.48-.27.55a8.45,8.45,0,0,0-3.1,2s-.54-.39-1-.74"/><path class="cls-11" d="M240.12,77.5c2.74,3.72-1.29,24.84-6.76,10.73-3.42,13.45-8.65,14.14-8.79,8-5.41,6.25,3.75,17,7.16,18.73l4-.09c-3.62-3-6.07-5.91-6.58-10.38,3.68.65,5.59,1.5,6.18-4.94,4.85,6.6,7.73-4,10.44-8.51-.06,3.12-.1,7.24,2,10,.7.92,2.6,1.19,4.26,1.13-.74,1.26-3.35,5.45-1.16,6.93s2.55-.08,2,1.21c-1,1.64-1.71,3.09-4.48,4.28l4.34-.09c4.57-1.55,8.5-7.28,7.1-10.64-1.68,1.48-3.34,2.46-4.7,2.38,3.68-5.66,2.69-11.35.78-17.15-1.45,5.64-2.46,6.44-4.06,7.79,2.14-5.36-7-16.45-11.76-19.34"/></g><text class="cls-12" transform="translate(114.54 106.53)"><tspan class="cls-13">R</tspan><tspan class="cls-14" x="8.4" y="0">un</tspan><tspan class="cls-15" x="23.42" y="0"> </tspan><tspan class="cls-16" x="26.62" y="0">0</tspan><tspan class="cls-17" x="34.86" y="0">.</tspan><tspan class="cls-15" x="38.87" y="0">5 mile</tspan><tspan class="cls-18" x="75.44" y="0">s</tspan><tspan class="cls-13" x="82.18" y="0"> </tspan><tspan x="85.38" y="0">=</tspan></text><text class="cls-19" transform="translate(526.87 130.65)">N<tspan class="cls-20" x="8.13" y="0">o</tspan><tspan x="15.1" y="0">rma</tspan><tspan class="cls-21" x="36.01" y="0">l</tspan><tspan class="cls-22" x="39.46" y="0"> </tspan></text><text class="cls-23" transform="translate(526.87 143.31)"><tspan class="cls-24">Attac</tspan><tspan x="28.96" y="0">k</tspan></text><text class="cls-12" transform="translate(361.5 96.53)"><tspan class="cls-15">No</tspan><tspan class="cls-14" x="17.09" y="0">r</tspan><tspan class="cls-13" x="21.87" y="0">m</tspan><tspan class="cls-14" x="32.94" y="0">a</tspan><tspan class="cls-13" x="40.12" y="0">l</tspan><tspan x="43.51" y="0"> </tspan></text><text class="cls-12" transform="translate(361.5 111.72)"><tspan class="cls-25">A</tspan><tspan class="cls-15" x="8.54" y="0">t</tspan><tspan class="cls-26" x="13.23" y="0">t</tspan><tspan class="cls-14" x="17.87" y="0">a</tspan><tspan class="cls-13" x="25.05" y="0">c</tspan><tspan x="32.22" y="0">k</tspan></text><text class="cls-12" transform="translate(464.74 95.97)"><tspan class="cls-27">M</tspan><tspan class="cls-14" x="11.12" y="0">a</tspan><tspan class="cls-15" x="18.3" y="0">gic</tspan><tspan x="36.63" y="0"> </tspan></text><text class="cls-12" transform="translate(464.74 111.16)"><tspan class="cls-25">A</tspan><tspan class="cls-15" x="8.54" y="0">t</tspan><tspan class="cls-26" x="13.23" y="0">t</tspan><tspan class="cls-14" x="17.87" y="0">a</tspan><tspan class="cls-13" x="25.05" y="0">c</tspan><tspan x="32.22" y="0">k</tspan></text><text class="cls-28" transform="translate(930.81 220.2)">D<tspan class="cls-29" x="11.63" y="0">r</tspan><tspan x="17.44" y="0">a</tspan><tspan class="cls-30" x="26.41" y="0">go</tspan><tspan class="cls-31" x="45.57" y="0">n</tspan></text><text class="cls-32" transform="translate(587.59 89.78)">S<tspan class="cls-33" x="6.79" y="0">k</tspan><tspan class="cls-24" x="12.17" y="0">ele</tspan><tspan class="cls-34" x="26.68" y="0">t</tspan><tspan x="30.23" y="0">o</tspan><tspan class="cls-22" x="36.36" y="0">n</tspan></text><text class="cls-35" transform="translate(620.77 275.43)"><tspan class="cls-36">V</tspan><tspan class="cls-24" x="6.46" y="0">er</tspan><tspan class="cls-21" x="16.15" y="0">y</tspan><tspan class="cls-37" x="21.8" y="0" xml:space="preserve"> E</tspan><tspan class="cls-21" x="30.83" y="0">f</tspan><tspan class="cls-33" x="34.5" y="0">f</tspan><tspan class="cls-24" x="37.92" y="0">e</tspan><tspan class="cls-21" x="43.84" y="0">c</tspan><tspan class="cls-24" x="49.65" y="0">ti</tspan><tspan class="cls-34" x="56.02" y="0">v</tspan><tspan x="61.48" y="0">e</tspan></text><text class="cls-38" transform="translate(710.72 275.43)">N<tspan class="cls-21" x="7.89" y="0">o</tspan><tspan x="14.02" y="0" xml:space="preserve"> E</tspan><tspan class="cls-21" x="23.04" y="0">f</tspan><tspan class="cls-33" x="26.72" y="0">f</tspan><tspan x="30.14" y="0">e</tspan><tspan class="cls-21" x="36.06" y="0">c</tspan><tspan class="cls-39" x="41.87" y="0">t</tspan></text><text class="cls-35" transform="translate(778.33 275.43)"><tspan class="cls-24">N</tspan><tspan class="cls-21" x="7.89" y="0">o</tspan><tspan class="cls-24" x="14.02" y="0">t </tspan><tspan class="cls-40" x="20.39" y="0">V</tspan><tspan class="cls-24" x="26.86" y="0">er</tspan><tspan class="cls-21" x="36.54" y="0">y</tspan><tspan class="cls-24" x="42.2" y="0" xml:space="preserve"> E</tspan><tspan class="cls-21" x="51.22" y="0">f</tspan><tspan class="cls-33" x="54.9" y="0">f</tspan><tspan class="cls-24" x="58.31" y="0">e</tspan><tspan class="cls-21" x="64.23" y="0">c</tspan><tspan class="cls-37" x="70.04" y="0">ti</tspan><tspan class="cls-41" x="76.41" y="0">v</tspan><tspan x="81.87" y="0">e</tspan></text><text class="cls-42" transform="translate(947.91 477.25)"><tspan class="cls-24">Deplo</tspan><tspan x="30.14" y="0">y</tspan></text><text class="cls-42" transform="translate(947.91 489.91)"><tspan class="cls-24">Mon</tspan><tspan class="cls-43" x="22.07" y="0">st</tspan><tspan class="cls-24" x="31.33" y="0">e</tspan><tspan x="37.71" y="0">r</tspan></text><text class="cls-35" transform="translate(876.48 552.24)"><tspan class="cls-24">Mi</tspan><tspan class="cls-21" x="11.95" y="0">n</tspan><tspan class="cls-24" x="18.04" y="0">im</tspan><tspan class="cls-21" x="29.7" y="0">u</tspan><tspan x="35.78" y="0">m</tspan></text><text class="cls-35" transform="translate(887.38 564.9)"><tspan class="cls-24">C</tspan><tspan class="cls-21" x="7.75" y="0">o</tspan><tspan class="cls-24" x="13.88" y="0">s</tspan><tspan x="19.3" y="0">t</tspan></text><text class="cls-44" transform="translate(830.78 511.17)"><tspan class="cls-45">pla</tspan><tspan class="cls-46" x="12.5" y="0">y</tspan><tspan class="cls-47" x="17.14" y="0">er</tspan><tspan class="cls-46" x="25.47" y="0">s </tspan><tspan class="cls-47" x="32.88" y="0">hi</tspan><tspan class="cls-46" x="40.28" y="0">t </tspan><tspan class="cls-45" x="45.81" y="0">mon</tspan><tspan class="cls-46" x="63.46" y="0">st</tspan><tspan class="cls-45" x="70.87" y="0">er</tspan><tspan class="cls-46" x="79.2" y="0">s</tspan><tspan class="cls-48" x="83.84" y="0">’</tspan><tspan x="85.83" y="0"> </tspan></text><text class="cls-44" transform="translate(830.78 521.3)"><tspan class="cls-45">weaknes</tspan><tspan class="cls-46" x="36.2" y="0">s </tspan><tspan class="cls-47" x="43.61" y="0">e</tspan><tspan class="cls-46" x="48.71" y="0">v</tspan><tspan class="cls-45" x="53.35" y="0">er</tspan><tspan class="cls-46" x="61.68" y="0">y t</tspan><tspan class="cls-45" x="71.86" y="0">im</tspan><tspan x="81.59" y="0">e</tspan></text><text class="cls-49" transform="translate(831.01 462.67)">cacu<tspan class="cls-47" x="18.82" y="0">l</tspan><tspan x="20.96" y="0">a</tspan><tspan class="cls-50" x="25.62" y="0">t</tspan><tspan class="cls-45" x="28.46" y="0">e the m</tspan><tspan x="57.32" y="0">a</tspan><tspan class="cls-47" x="61.98" y="0">xim</tspan><tspan x="75.68" y="0">u</tspan><tspan class="cls-47" x="80.55" y="0">m</tspan><tspan class="cls-51" x="87.74" y="0"> </tspan></text><text class="cls-52" transform="translate(831.01 472.8)">p<tspan class="cls-53" x="5.05" y="0">o</tspan><tspan x="9.95" y="0">wer </tspan><tspan class="cls-46" x="26.29" y="0">co</tspan><tspan class="cls-45" x="35.84" y="0">st </tspan><tspan class="cls-46" x="45.28" y="0">and</tspan><tspan class="cls-51" x="59.9" y="0"> </tspan></text><text class="cls-54" transform="translate(831.01 482.93)"><tspan class="cls-47">mi</tspan><tspan class="cls-46" x="9.33" y="0">n</tspan><tspan class="cls-47" x="14.2" y="0">im</tspan><tspan class="cls-46" x="23.52" y="0">u</tspan><tspan class="cls-47" x="28.39" y="0">m </tspan><tspan class="cls-46" x="37.73" y="0">co</tspan><tspan class="cls-47" x="47.28" y="0">st </tspan><tspan class="cls-50" x="56.72" y="0">t</tspan><tspan class="cls-46" x="59.55" y="0">o</tspan><tspan x="64.45" y="0"> </tspan></text><text class="cls-54" transform="translate(831.01 493.05)"><tspan class="cls-47">ge</tspan><tspan class="cls-46" x="9.78" y="0">n</tspan><tspan class="cls-45" x="14.65" y="0">e</tspan><tspan class="cls-55" x="19.39" y="0">r</tspan><tspan class="cls-46" x="22.33" y="0">a</tspan><tspan class="cls-56" x="26.98" y="0">t</tspan><tspan class="cls-45" x="29.82" y="0">e the pl</tspan><tspan class="cls-46" x="58.68" y="0">a</tspan><tspan x="63.34" y="0">n</tspan></text><text class="cls-54" transform="translate(752.03 389.87)"><tspan class="cls-57">T</tspan><tspan class="cls-53" x="4.3" y="0">o</tspan><tspan class="cls-47" x="9.2" y="0"> </tspan><tspan class="cls-46" x="11.34" y="0">d</tspan><tspan class="cls-45" x="16.43" y="0">e</tspan><tspan class="cls-58" x="21.17" y="0">f</tspan><tspan class="cls-47" x="23.9" y="0">e</tspan><tspan class="cls-46" x="28.64" y="0">a</tspan><tspan class="cls-45" x="33.3" y="0">t </tspan><tspan class="cls-59" x="38.4" y="0">a</tspan><tspan class="cls-45" x="43.05" y="0">ll the m</tspan><tspan class="cls-53" x="71.46" y="0">on</tspan><tspan class="cls-47" x="81.23" y="0">s</tspan><tspan class="cls-50" x="85.57" y="0">t</tspan><tspan class="cls-45" x="88.41" y="0">ers</tspan><tspan class="cls-60" x="100.49" y="0">,</tspan><tspan class="cls-45" x="102.65" y="0"> </tspan><tspan class="cls-46" x="104.79" y="0">P</tspan><tspan class="cls-45" x="110.09" y="0">l</tspan><tspan class="cls-59" x="112.22" y="0">a</tspan><tspan class="cls-50" x="116.88" y="0">y</tspan><tspan class="cls-47" x="121.27" y="0">ers </tspan><tspan class="cls-59" x="135.51" y="0">a</tspan><tspan class="cls-61" x="140.17" y="0">r</tspan><tspan class="cls-45" x="142.98" y="0">e</tspan><tspan x="147.71" y="0"> </tspan></text><text class="cls-54" transform="translate(752.03 399.99)"><tspan class="cls-47">s</tspan><tspan class="cls-53" x="4.34" y="0">u</tspan><tspan class="cls-47" x="9.21" y="0">pp</tspan><tspan class="cls-53" x="19.31" y="0">o</tspan><tspan class="cls-47" x="24.21" y="0">se</tspan><tspan class="cls-46" x="33.28" y="0">d</tspan><tspan class="cls-45" x="38.38" y="0"> </tspan><tspan class="cls-56" x="40.52" y="0">t</tspan><tspan class="cls-53" x="43.36" y="0">o</tspan><tspan class="cls-45" x="48.26" y="0" xml:space="preserve"> ge</tspan><tspan x="60.19" y="0">t</tspan></text><text class="cls-54" transform="translate(732.49 511.11)"><tspan class="cls-47">pl</tspan><tspan class="cls-46" x="7.18" y="0">a</tspan><tspan class="cls-50" x="11.84" y="0">y</tspan><tspan class="cls-47" x="16.24" y="0">ers </tspan><tspan class="cls-46" x="30.47" y="0">n</tspan><tspan class="cls-45" x="35.34" y="0">e</tspan><tspan class="cls-50" x="40.07" y="0">v</tspan><tspan class="cls-47" x="44.44" y="0">er hit</tspan><tspan x="64.39" y="0"> </tspan></text><text class="cls-54" transform="translate(732.49 521.24)"><tspan class="cls-47">m</tspan><tspan class="cls-53" x="7.19" y="0">on</tspan><tspan class="cls-45" x="16.96" y="0">s</tspan><tspan class="cls-56" x="21.3" y="0">t</tspan><tspan class="cls-45" x="24.14" y="0">er</tspan><tspan class="cls-62" x="31.89" y="0">s</tspan><tspan class="cls-46" x="35.9" y="0">’</tspan><tspan class="cls-45" x="38.54" y="0" xml:space="preserve"> we</tspan><tspan class="cls-46" x="51.87" y="0">a</tspan><tspan class="cls-45" x="56.52" y="0">k</tspan><tspan class="cls-46" x="61.03" y="0">n</tspan><tspan class="cls-45" x="65.9" y="0">es</tspan><tspan x="74.98" y="0">s</tspan></text><text class="cls-63" transform="translate(741.94 554.87)">M<tspan class="cls-21" x="9.14" y="0">a</tspan><tspan class="cls-37" x="14.96" y="0">xim</tspan><tspan class="cls-21" x="32.08" y="0">u</tspan><tspan class="cls-39" x="38.17" y="0">m</tspan></text><text class="cls-35" transform="translate(754.03 567.53)"><tspan class="cls-24">C</tspan><tspan class="cls-21" x="7.75" y="0">o</tspan><tspan class="cls-24" x="13.88" y="0">s</tspan><tspan x="19.3" y="0">t</tspan></text><text class="cls-32" transform="translate(617.03 564.78)">P<tspan class="cls-24" x="6.62" y="0">l</tspan><tspan class="cls-20" x="9.29" y="0">an</tspan><tspan class="cls-24" x="21.2" y="0"> </tspan><tspan class="cls-34" x="23.88" y="0">t</tspan><tspan class="cls-43" x="27.42" y="0">o</tspan><tspan class="cls-24" x="33.55" y="0">r </tspan><tspan class="cls-43" x="40" y="0">3</tspan><tspan class="cls-37" x="46.77" y="0"> </tspan><tspan class="cls-41" x="49.45" y="0">t</tspan><tspan x="52.99" y="0">o</tspan><tspan class="cls-37" x="59.12" y="0"> </tspan><tspan x="61.8" y="0">4</tspan><tspan class="cls-39" x="68.71" y="0"> </tspan></text><text class="cls-35" transform="translate(617.03 577.44)"><tspan class="cls-24">wee</tspan><tspan class="cls-64" x="19.9" y="0">k</tspan><tspan class="cls-24" x="25.34" y="0">s t</tspan><tspan class="cls-65" x="37.14" y="0">r</tspan><tspan class="cls-21" x="40.81" y="0">a</tspan><tspan class="cls-37" x="46.63" y="0">i</tspan><tspan class="cls-21" x="49.3" y="0">n</tspan><tspan class="cls-24" x="55.39" y="0">i</tspan><tspan class="cls-21" x="58.06" y="0">n</tspan><tspan x="64.14" y="0">g</tspan></text><text class="cls-35" transform="translate(671.28 89.78)"><tspan class="cls-24">Ni</tspan><tspan class="cls-21" x="10.56" y="0">n</tspan><tspan class="cls-24" x="16.65" y="0">j</tspan><tspan x="19.32" y="0">a</tspan></text><text class="cls-35" transform="translate(743 89.78)"><tspan class="cls-24">D</tspan><tspan class="cls-21" x="7.67" y="0">a</tspan><tspan class="cls-24" x="13.49" y="0">rk K</tspan><tspan class="cls-21" x="32.58" y="0">n</tspan><tspan class="cls-24" x="38.67" y="0">igh</tspan><tspan x="53.85" y="0">t</tspan></text><text class="cls-35" transform="translate(835.56 89.78)"><tspan class="cls-21">W</tspan><tspan class="cls-37" x="10.27" y="0">i</tspan><tspan class="cls-21" x="12.94" y="0">za</tspan><tspan class="cls-33" x="24.23" y="0">r</tspan><tspan x="27.74" y="0">d</tspan></text><text class="cls-66" transform="translate(1021.26 78.72)"><tspan class="cls-67">W</tspan><tspan class="cls-68" x="9.81" y="0">h</tspan><tspan class="cls-67" x="15.56" y="0">e</tspan><tspan class="cls-69" x="21.03" y="0">n</tspan><tspan class="cls-67" x="26.67" y="0"> </tspan><tspan class="cls-69" x="28.71" y="0">Sh</tspan><tspan class="cls-67" x="40.76" y="0">ield</tspan><tspan class="cls-69" x="56.54" y="0">&apos;s</tspan><tspan class="cls-67" x="63.71" y="0" xml:space="preserve"> o</tspan><tspan x="71.41" y="0">n</tspan></text><text class="cls-70" transform="translate(1021.26 102.98)"><tspan class="cls-71">No</tspan><tspan class="cls-72" x="13.61" y="0">r</tspan><tspan class="cls-71" x="17.27" y="0">m</tspan><tspan class="cls-73" x="26.18" y="0">a</tspan><tspan class="cls-71" x="31.85" y="0">l </tspan><tspan class="cls-74" x="36.71" y="0">A</tspan><tspan class="cls-71" x="43.51" y="0">t</tspan><tspan class="cls-75" x="47.11" y="0">t</tspan><tspan class="cls-73" x="50.66" y="0">a</tspan><tspan class="cls-71" x="56.32" y="0">c</tspan><tspan x="61.99" y="0">k</tspan></text><text class="cls-76" transform="translate(1021.26 127.24)">M<tspan class="cls-73" x="8.95" y="0">a</tspan><tspan class="cls-77" x="14.62" y="0">gic </tspan><tspan class="cls-78" x="31.29" y="0">A</tspan><tspan class="cls-71" x="38.1" y="0">t</tspan><tspan class="cls-79" x="41.7" y="0">t</tspan><tspan class="cls-73" x="45.25" y="0">a</tspan><tspan class="cls-71" x="50.91" y="0">c</tspan><tspan class="cls-39" x="56.57" y="0">k</tspan></text><text class="cls-66" transform="translate(1021.26 176.43)"><tspan class="cls-71">W</tspan><tspan class="cls-80" x="10.12" y="0">h</tspan><tspan class="cls-71" x="16.17" y="0">e</tspan><tspan class="cls-73" x="21.95" y="0">n</tspan><tspan class="cls-71" x="27.89" y="0"> </tspan><tspan class="cls-73" x="30.24" y="0">h</tspan><tspan class="cls-71" x="36.3" y="0">e</tspan><tspan class="cls-73" x="42.08" y="0">a</tspan><tspan class="cls-71" x="47.74" y="0">lt</tspan><tspan class="cls-73" x="53.84" y="0">h</tspan><tspan class="cls-71" x="59.9" y="0"> </tspan><tspan class="cls-73" x="62.25" y="0">un</tspan><tspan class="cls-77" x="74.14" y="0">de</tspan><tspan class="cls-72" x="86.13" y="0">r</tspan><tspan x="89.79" y="0"> </tspan></text><text class="cls-66" transform="translate(1021.26 190.14)"><tspan class="cls-71">50</tspan><tspan x="13.31" y="0">%</tspan></text><text class="cls-70" transform="translate(1021.26 215.45)"><tspan class="cls-71">No</tspan><tspan class="cls-72" x="13.61" y="0">r</tspan><tspan class="cls-71" x="17.27" y="0">m</tspan><tspan class="cls-73" x="26.18" y="0">a</tspan><tspan class="cls-71" x="31.85" y="0">l </tspan><tspan class="cls-74" x="36.71" y="0">A</tspan><tspan class="cls-71" x="43.51" y="0">t</tspan><tspan class="cls-75" x="47.11" y="0">t</tspan><tspan class="cls-73" x="50.66" y="0">a</tspan><tspan class="cls-71" x="56.32" y="0">c</tspan><tspan x="61.99" y="0">k</tspan></text><text class="cls-76" transform="translate(1021.26 240.77)">M<tspan class="cls-73" x="8.95" y="0">a</tspan><tspan class="cls-77" x="14.62" y="0">gic </tspan><tspan class="cls-78" x="31.29" y="0">A</tspan><tspan class="cls-71" x="38.1" y="0">t</tspan><tspan class="cls-79" x="41.7" y="0">t</tspan><tspan class="cls-73" x="45.25" y="0">a</tspan><tspan class="cls-71" x="50.91" y="0">c</tspan><tspan class="cls-39" x="56.57" y="0">k</tspan></text><text class="cls-66" transform="translate(1144.25 79.2)">When Shield&apos;s off</text><text class="cls-70" transform="translate(1144.25 103.47)"><tspan class="cls-71">No</tspan><tspan class="cls-72" x="13.61" y="0">r</tspan><tspan class="cls-71" x="17.27" y="0">m</tspan><tspan class="cls-73" x="26.18" y="0">a</tspan><tspan class="cls-71" x="31.85" y="0">l </tspan><tspan class="cls-74" x="36.71" y="0">A</tspan><tspan class="cls-71" x="43.51" y="0">t</tspan><tspan class="cls-75" x="47.11" y="0">t</tspan><tspan class="cls-73" x="50.66" y="0">a</tspan><tspan class="cls-71" x="56.32" y="0">c</tspan><tspan x="61.99" y="0">k</tspan></text><text class="cls-76" transform="translate(1144.25 127.73)">M<tspan class="cls-73" x="8.95" y="0">a</tspan><tspan class="cls-77" x="14.62" y="0">gic </tspan><tspan class="cls-78" x="31.29" y="0">A</tspan><tspan class="cls-71" x="38.1" y="0">t</tspan><tspan class="cls-79" x="41.7" y="0">t</tspan><tspan class="cls-73" x="45.25" y="0">a</tspan><tspan class="cls-71" x="50.91" y="0">c</tspan><tspan class="cls-39" x="56.57" y="0">k</tspan></text><text class="cls-23" transform="translate(526.87 186.64)"><tspan class="cls-24">Ma</tspan><tspan class="cls-20" x="15.69" y="0">gi</tspan><tspan class="cls-81" x="26.12" y="0">c</tspan><tspan x="32.5" y="0"> </tspan></text><text class="cls-23" transform="translate(526.87 199.29)"><tspan class="cls-24">Attac</tspan><tspan x="28.96" y="0">k</tspan></text><text class="cls-82" transform="translate(265.68 106.62)"><tspan class="cls-18">x</tspan><tspan class="cls-15" x="7.66" y="0"> </tspan><tspan x="11.81" y="0">1</tspan></text><text class="cls-83" transform="translate(79.15 146.79)"><tspan class="cls-24">B</tspan><tspan class="cls-21" x="6.89" y="0">a</tspan><tspan class="cls-37" x="12.72" y="0">ttle R</tspan><tspan class="cls-21" x="38.21" y="0">u</tspan><tspan class="cls-24" x="44.3" y="0">les</tspan><tspan x="58.31" y="0">:</tspan></text><text class="cls-35" transform="translate(140.75 146.79)"><tspan class="cls-24" xml:space="preserve"> M</tspan><tspan class="cls-21" x="11.96" y="0">on</tspan><tspan class="cls-24" x="24.17" y="0">s</tspan><tspan class="cls-34" x="29.6" y="0">t</tspan><tspan class="cls-24" x="33.15" y="0">er w</tspan><tspan class="cls-21" x="53.57" y="0">o</tspan><tspan class="cls-84" x="59.7" y="0">n</tspan><tspan class="cls-21" x="65.32" y="0">’</tspan><tspan class="cls-24" x="68.62" y="0">t </tspan><tspan class="cls-21" x="74.99" y="0">a</tspan><tspan class="cls-24" x="80.82" y="0">t</tspan><tspan class="cls-85" x="84.51" y="0">t</tspan><tspan class="cls-21" x="88.16" y="0">ac</tspan><tspan class="cls-24" x="99.8" y="0">k the pl</tspan><tspan class="cls-21" x="135.59" y="0">a</tspan><tspan class="cls-41" x="141.41" y="0">y</tspan><tspan class="cls-24" x="146.91" y="0">ers</tspan><tspan class="cls-86" x="162.02" y="0">.</tspan><tspan class="cls-24" x="164.71" y="0" xml:space="preserve"> O</tspan><tspan class="cls-21" x="175.62" y="0">nc</tspan><tspan class="cls-24" x="187.52" y="0">e pl</tspan><tspan class="cls-21" x="205.1" y="0">a</tspan><tspan class="cls-41" x="210.92" y="0">y</tspan><tspan class="cls-24" x="216.41" y="0">ers r</tspan><tspan class="cls-21" x="237.97" y="0">un</tspan><tspan class="cls-37" x="250.14" y="0"> </tspan><tspan class="cls-43" x="252.82" y="0">ou</tspan><tspan class="cls-37" x="265.03" y="0">t </tspan><tspan class="cls-21" x="271.41" y="0">of</tspan><tspan class="cls-37" x="281.21" y="0" xml:space="preserve"> p</tspan><tspan class="cls-21" x="290.2" y="0">o</tspan><tspan class="cls-24" x="296.33" y="0">wer be</tspan><tspan class="cls-33" x="329.04" y="0">f</tspan><tspan class="cls-21" x="332.46" y="0">o</tspan><tspan class="cls-33" x="338.58" y="0">r</tspan><tspan class="cls-24" x="342.1" y="0">e</tspan><tspan x="348.02" y="0"> </tspan></text><text class="cls-35" transform="translate(79.15 161.55)"><tspan class="cls-24">the</tspan><tspan class="cls-21" x="15.82" y="0">y</tspan><tspan class="cls-24" x="21.47" y="0"> </tspan><tspan class="cls-20" x="24.15" y="0">d</tspan><tspan class="cls-24" x="30.52" y="0">e</tspan><tspan class="cls-33" x="36.44" y="0">f</tspan><tspan class="cls-24" x="39.85" y="0">e</tspan><tspan class="cls-21" x="45.77" y="0">a</tspan><tspan class="cls-24" x="51.59" y="0">t the m</tspan><tspan class="cls-21" x="85.46" y="0">on</tspan><tspan class="cls-24" x="97.67" y="0">s</tspan><tspan class="cls-41" x="103.09" y="0">t</tspan><tspan class="cls-24" x="106.64" y="0">e</tspan><tspan class="cls-87" x="112.56" y="0">r,</tspan><tspan class="cls-37" x="118.51" y="0" xml:space="preserve"> pl</tspan><tspan class="cls-20" x="130.17" y="0">a</tspan><tspan class="cls-41" x="135.99" y="0">y</tspan><tspan class="cls-81" x="141.48" y="0">er will be </tspan><tspan class="cls-20" x="187.56" y="0">con</tspan><tspan class="cls-24" x="205.59" y="0">si</tspan><tspan class="cls-20" x="213.68" y="0">d</tspan><tspan class="cls-24" x="220.05" y="0">e</tspan><tspan class="cls-33" x="225.97" y="0">r</tspan><tspan class="cls-24" x="229.48" y="0">e</tspan><tspan class="cls-21" x="235.4" y="0">d</tspan><tspan class="cls-24" x="241.77" y="0"> </tspan><tspan class="cls-20" x="244.45" y="0">a</tspan><tspan class="cls-81" x="250.27" y="0">s l</tspan><tspan class="cls-21" x="261.05" y="0">o</tspan><tspan class="cls-24" x="267.17" y="0">st the b</tspan><tspan class="cls-21" x="303.83" y="0">a</tspan><tspan class="cls-37" x="309.66" y="0">ttle</tspan><tspan class="cls-86" x="325.64" y="0">.</tspan><tspan class="cls-24" x="328.32" y="0" xml:space="preserve"> The m</tspan><tspan class="cls-43" x="361.44" y="0">on</tspan><tspan class="cls-24" x="373.65" y="0">s</tspan><tspan class="cls-41" x="379.08" y="0">t</tspan><tspan class="cls-24" x="382.63" y="0">er</tspan><tspan class="cls-88" x="392.31" y="0">’</tspan><tspan class="cls-24" x="394.84" y="0">s</tspan><tspan x="400.27" y="0"> </tspan></text><text class="cls-35" transform="translate(79.15 176.32)"><tspan class="cls-24">he</tspan><tspan class="cls-21" x="12.12" y="0">a</tspan><tspan class="cls-37" x="17.94" y="0">lth will be s</tspan><tspan class="cls-20" x="72.33" y="0">a</tspan><tspan class="cls-41" x="78.15" y="0">v</tspan><tspan class="cls-24" x="83.62" y="0">e</tspan><tspan class="cls-21" x="89.54" y="0">d</tspan><tspan class="cls-37" x="95.9" y="0"> </tspan><tspan class="cls-21" x="98.58" y="0">and</tspan><tspan class="cls-37" x="116.86" y="0"> </tspan><tspan class="cls-65" x="119.54" y="0">w</tspan><tspan class="cls-21" x="127.51" y="0">a</tspan><tspan class="cls-37" x="133.33" y="0">it </tspan><tspan class="cls-33" x="142.37" y="0">f</tspan><tspan class="cls-21" x="145.79" y="0">o</tspan><tspan class="cls-24" x="151.91" y="0">r the </tspan><tspan class="cls-21" x="176.86" y="0">n</tspan><tspan class="cls-65" x="182.94" y="0">e</tspan><tspan class="cls-24" x="188.77" y="0">xt </tspan><tspan class="cls-21" x="200.61" y="0">c</tspan><tspan class="cls-24" x="206.42" y="0">h</tspan><tspan class="cls-20" x="212.62" y="0">a</tspan><tspan class="cls-24" x="218.45" y="0">lle</tspan><tspan class="cls-21" x="229.71" y="0">n</tspan><tspan class="cls-37" x="235.79" y="0">ge </tspan><tspan class="cls-21" x="250.7" y="0">f</tspan><tspan class="cls-33" x="254.38" y="0">r</tspan><tspan class="cls-21" x="257.89" y="0">o</tspan><tspan class="cls-24" x="264.02" y="0">m pl</tspan><tspan class="cls-21" x="284.67" y="0">a</tspan><tspan class="cls-41" x="290.49" y="0">y</tspan><tspan class="cls-24" x="295.99" y="0">er </tspan><tspan class="cls-21" x="308.35" y="0">un</tspan><tspan class="cls-24" x="320.52" y="0">til the</tspan><tspan class="cls-21" x="348.05" y="0">y</tspan><tspan class="cls-24" x="353.71" y="0"> </tspan><tspan class="cls-21" x="356.39" y="0">a</tspan><tspan class="cls-33" x="362.21" y="0">r</tspan><tspan class="cls-24" x="365.72" y="0">e </tspan><tspan class="cls-21" x="374.32" y="0">d</tspan><tspan class="cls-24" x="380.69" y="0">e</tspan><tspan class="cls-33" x="386.61" y="0">f</tspan><tspan class="cls-24" x="390.02" y="0">e</tspan><tspan class="cls-21" x="395.94" y="0">a</tspan><tspan class="cls-34" x="401.77" y="0">t</tspan><tspan class="cls-24" x="405.31" y="0">e</tspan><tspan class="cls-21" x="411.23" y="0">d</tspan><tspan x="417.6" y="0">.</tspan></text><text class="cls-83" transform="translate(79.15 205.86)"><tspan class="cls-24">M</tspan><tspan class="cls-41" x="9.28" y="0">ov</tspan><tspan class="cls-24" x="20.71" y="0">eme</tspan><tspan class="cls-21" x="41.54" y="0">n</tspan><tspan class="cls-37" x="47.63" y="0">t</tspan><tspan x="51.32" y="0">:</tspan></text><text class="cls-35" transform="translate(133.73 205.86)"><tspan class="cls-24" xml:space="preserve"> Pl</tspan><tspan class="cls-21" x="11.96" y="0">a</tspan><tspan class="cls-41" x="17.78" y="0">y</tspan><tspan class="cls-24" x="23.28" y="0">ers h</tspan><tspan class="cls-21" x="47.27" y="0">a</tspan><tspan class="cls-41" x="53.09" y="0">v</tspan><tspan class="cls-24" x="58.56" y="0">e tw</tspan><tspan class="cls-21" x="78.91" y="0">o</tspan><tspan class="cls-37" x="85.04" y="0"> </tspan><tspan class="cls-21" x="87.72" y="0">d</tspan><tspan class="cls-24" x="94.09" y="0">i</tspan><tspan class="cls-21" x="96.76" y="0">f</tspan><tspan class="cls-33" x="100.44" y="0">f</tspan><tspan class="cls-24" x="103.85" y="0">e</tspan><tspan class="cls-33" x="109.77" y="0">r</tspan><tspan class="cls-24" x="113.28" y="0">e</tspan><tspan class="cls-21" x="119.2" y="0">n</tspan><tspan class="cls-37" x="125.29" y="0">t m</tspan><tspan class="cls-41" x="140.65" y="0">ov</tspan><tspan class="cls-24" x="152.08" y="0">eme</tspan><tspan class="cls-21" x="172.91" y="0">n</tspan><tspan class="cls-24" x="179" y="0">ts </tspan><tspan class="cls-41" x="190.8" y="0">t</tspan><tspan class="cls-21" x="194.34" y="0">o</tspan><tspan class="cls-37" x="200.47" y="0"> </tspan><tspan class="cls-21" x="203.15" y="0">a</tspan><tspan class="cls-24" x="208.97" y="0">t</tspan><tspan class="cls-85" x="212.67" y="0">t</tspan><tspan class="cls-21" x="216.32" y="0">ac</tspan><tspan class="cls-24" x="227.95" y="0">k the m</tspan><tspan class="cls-21" x="263.76" y="0">on</tspan><tspan class="cls-81" x="275.97" y="0">s</tspan><tspan class="cls-34" x="281.39" y="0">t</tspan><tspan class="cls-24" x="284.94" y="0">ers</tspan><tspan class="cls-86" x="300.05" y="0">.</tspan><tspan class="cls-24" x="302.74" y="0" xml:space="preserve"> N</tspan><tspan class="cls-21" x="313.31" y="0">o</tspan><tspan class="cls-24" x="319.44" y="0">rm</tspan><tspan class="cls-21" x="332.19" y="0">a</tspan><tspan class="cls-24" x="338.02" y="0">l </tspan><tspan class="cls-21" x="343.37" y="0">a</tspan><tspan class="cls-24" x="349.19" y="0">t</tspan><tspan class="cls-85" x="352.88" y="0">t</tspan><tspan class="cls-21" x="356.53" y="0">ac</tspan><tspan class="cls-24" x="368.17" y="0">k</tspan><tspan x="373.81" y="0"> </tspan></text><text class="cls-32" transform="translate(79.15 220.62)">and<tspan class="cls-24" x="18.27" y="0" xml:space="preserve"> m</tspan><tspan class="cls-20" x="29.94" y="0">a</tspan><tspan class="cls-24" x="35.77" y="0">gi</tspan><tspan x="44.75" y="0">c</tspan><tspan class="cls-37" x="50.56" y="0"> </tspan><tspan x="53.24" y="0">a</tspan><tspan class="cls-24" x="59.06" y="0">t</tspan><tspan class="cls-85" x="62.76" y="0">t</tspan><tspan x="66.41" y="0">ac</tspan><tspan class="cls-24" x="78.04" y="0">k</tspan><tspan class="cls-87" x="83.68" y="0">.</tspan><tspan class="cls-24" x="86.37" y="0" xml:space="preserve"> E</tspan><tspan x="95.39" y="0">ac</tspan><tspan class="cls-37" x="107.02" y="0">h m</tspan><tspan class="cls-89" x="124.9" y="0">ov</tspan><tspan class="cls-24" x="136.33" y="0">eme</tspan><tspan x="157.15" y="0">n</tspan><tspan class="cls-24" x="163.24" y="0">t h</tspan><tspan x="175.82" y="0">a</tspan><tspan class="cls-34" x="181.64" y="0">v</tspan><tspan class="cls-24" x="187.1" y="0">e </tspan><tspan class="cls-20" x="195.7" y="0">d</tspan><tspan class="cls-24" x="202.07" y="0">i</tspan><tspan x="204.74" y="0">f</tspan><tspan class="cls-33" x="208.42" y="0">f</tspan><tspan class="cls-24" x="211.83" y="0">e</tspan><tspan class="cls-33" x="217.75" y="0">r</tspan><tspan class="cls-24" x="221.27" y="0">e</tspan><tspan x="227.19" y="0">n</tspan><tspan class="cls-24" x="233.27" y="0">t e</tspan><tspan x="245.57" y="0">f</tspan><tspan class="cls-33" x="249.25" y="0">f</tspan><tspan class="cls-24" x="252.66" y="0">e</tspan><tspan x="258.58" y="0">c</tspan><tspan class="cls-24" x="264.39" y="0">t b</tspan><tspan x="277.13" y="0">a</tspan><tspan class="cls-24" x="282.95" y="0">se </tspan><tspan x="296.98" y="0">on</tspan><tspan class="cls-37" x="309.19" y="0"> </tspan><tspan x="311.87" y="0">d</tspan><tspan class="cls-24" x="318.24" y="0">i</tspan><tspan x="320.91" y="0">f</tspan><tspan class="cls-90" x="324.59" y="0">f</tspan><tspan class="cls-81" x="328" y="0">e</tspan><tspan class="cls-33" x="333.92" y="0">r</tspan><tspan class="cls-24" x="337.44" y="0">e</tspan><tspan x="343.35" y="0">n</tspan><tspan class="cls-37" x="349.44" y="0">t t</tspan><tspan x="359.51" y="0">y</tspan><tspan class="cls-24" x="365.16" y="0">pe m</tspan><tspan x="389.06" y="0">on</tspan><tspan class="cls-24" x="401.27" y="0">s</tspan><tspan class="cls-41" x="406.7" y="0">t</tspan><tspan class="cls-24" x="410.24" y="0">e</tspan><tspan class="cls-87" x="416.16" y="0">r.</tspan><tspan class="cls-39" x="422.11" y="0"> </tspan></text><text class="cls-35" transform="translate(79.15 235.39)"><tspan class="cls-24">If</tspan><tspan class="cls-91" x="6.55" y="0" xml:space="preserve"> the pl</tspan><tspan class="cls-24" x="36.64" y="0">a</tspan><tspan class="cls-92" x="42.45" y="0">y</tspan><tspan class="cls-93" x="47.93" y="0">ers </tspan><tspan class="cls-24" x="65.68" y="0">u</tspan><tspan class="cls-93" x="71.76" y="0">se the right m</tspan><tspan class="cls-94" x="138.45" y="0">ov</tspan><tspan class="cls-93" x="149.86" y="0">eme</tspan><tspan class="cls-24" x="170.65" y="0">n</tspan><tspan class="cls-91" x="176.73" y="0">t th</tspan><tspan class="cls-24" x="192.96" y="0">a</tspan><tspan class="cls-91" x="198.77" y="0">t m</tspan><tspan class="cls-24" x="214.1" y="0">a</tspan><tspan class="cls-95" x="219.91" y="0">t</tspan><tspan class="cls-24" x="223.45" y="0">c</tspan><tspan class="cls-91" x="229.25" y="0">h with the we</tspan><tspan class="cls-24" x="293.79" y="0">a</tspan><tspan class="cls-91" x="299.6" y="0">k</tspan><tspan class="cls-24" x="305.22" y="0">n</tspan><tspan class="cls-91" x="311.3" y="0">ess </tspan><tspan class="cls-24" x="330.71" y="0">of</tspan><tspan class="cls-91" x="340.49" y="0" xml:space="preserve"> the m</tspan><tspan class="cls-24" x="370.59" y="0">on</tspan><tspan class="cls-93" x="382.78" y="0">s</tspan><tspan class="cls-95" x="388.2" y="0">t</tspan><tspan class="cls-91" x="391.73" y="0">e</tspan><tspan class="cls-22" x="397.64" y="0">r,</tspan><tspan class="cls-96" x="403.57" y="0" xml:space="preserve"> the</tspan><tspan class="cls-24" x="422.03" y="0">n</tspan><tspan x="428.1" y="0"> </tspan></text><text class="cls-35" transform="translate(79.15 250.16)"><tspan class="cls-24">pl</tspan><tspan class="cls-21" x="8.98" y="0">a</tspan><tspan class="cls-41" x="14.8" y="0">y</tspan><tspan class="cls-24" x="20.3" y="0">er will </tspan><tspan class="cls-21" x="51.41" y="0">d</tspan><tspan class="cls-24" x="57.78" y="0">e</tspan><tspan class="cls-33" x="63.7" y="0">f</tspan><tspan class="cls-24" x="67.12" y="0">e</tspan><tspan class="cls-20" x="73.04" y="0">a</tspan><tspan class="cls-24" x="78.86" y="0">t the m</tspan><tspan class="cls-21" x="112.72" y="0">on</tspan><tspan class="cls-24" x="124.93" y="0">s</tspan><tspan class="cls-41" x="130.36" y="0">t</tspan><tspan class="cls-24" x="133.9" y="0">er with less p</tspan><tspan class="cls-21" x="198.01" y="0">o</tspan><tspan class="cls-24" x="204.14" y="0">we</tspan><tspan class="cls-87" x="218.12" y="0">r</tspan><tspan x="221.38" y="0">.</tspan></text><text class="cls-35" transform="translate(78.51 423.17)"><tspan class="cls-21">S</tspan><tspan class="cls-24" x="6.79" y="0">i</tspan><tspan class="cls-20" x="9.46" y="0">nc</tspan><tspan class="cls-24" x="21.36" y="0">e pl</tspan><tspan class="cls-21" x="38.94" y="0">a</tspan><tspan class="cls-41" x="44.76" y="0">y</tspan><tspan class="cls-24" x="50.25" y="0">ers </tspan><tspan class="cls-21" x="68.04" y="0">n</tspan><tspan class="cls-24" x="74.13" y="0">ee</tspan><tspan class="cls-21" x="85.97" y="0">d</tspan><tspan class="cls-24" x="92.34" y="0"> </tspan><tspan class="cls-34" x="95.02" y="0">t</tspan><tspan class="cls-21" x="98.56" y="0">o</tspan><tspan class="cls-24" x="104.69" y="0" xml:space="preserve"> r</tspan><tspan class="cls-21" x="111.14" y="0">un</tspan><tspan class="cls-37" x="123.31" y="0"> </tspan><tspan class="cls-41" x="125.99" y="0">t</tspan><tspan class="cls-21" x="129.53" y="0">o</tspan><tspan class="cls-24" x="135.66" y="0" xml:space="preserve"> g</tspan><tspan class="cls-21" x="144.65" y="0">o</tspan><tspan class="cls-24" x="150.78" y="0">t p</tspan><tspan class="cls-21" x="163.46" y="0">o</tspan><tspan class="cls-24" x="169.59" y="0">wer </tspan><tspan class="cls-21" x="190.02" y="0">f</tspan><tspan class="cls-24" x="193.7" y="0">ight with the m</tspan><tspan class="cls-21" x="266.05" y="0">on</tspan><tspan class="cls-81" x="278.26" y="0">s</tspan><tspan class="cls-34" x="283.69" y="0">t</tspan><tspan class="cls-24" x="287.23" y="0">e</tspan><tspan class="cls-87" x="293.15" y="0">r.</tspan><tspan class="cls-37" x="299.1" y="0" xml:space="preserve"> The </tspan><tspan class="cls-21" x="323.23" y="0">d</tspan><tspan class="cls-24" x="329.6" y="0">epl</tspan><tspan class="cls-89" x="344.5" y="0">o</tspan><tspan class="cls-20" x="350.47" y="0">y</tspan><tspan class="cls-24" x="356.12" y="0">me</tspan><tspan class="cls-21" x="371.03" y="0">n</tspan><tspan class="cls-37" x="377.11" y="0">t </tspan><tspan class="cls-21" x="383.49" y="0">of</tspan><tspan x="393.29" y="0"> </tspan></text><text class="cls-35" transform="translate(78.51 437.94)"><tspan class="cls-24">m</tspan><tspan class="cls-21" x="8.99" y="0">on</tspan><tspan class="cls-24" x="21.2" y="0">s</tspan><tspan class="cls-34" x="26.63" y="0">t</tspan><tspan class="cls-24" x="30.17" y="0">er </tspan><tspan class="cls-33" x="42.54" y="0">r</tspan><tspan class="cls-24" x="46.05" y="0">el</tspan><tspan class="cls-21" x="54.64" y="0">a</tspan><tspan class="cls-34" x="60.46" y="0">t</tspan><tspan class="cls-24" x="64.01" y="0">e</tspan><tspan class="cls-21" x="69.93" y="0">d</tspan><tspan class="cls-24" x="76.3" y="0"> </tspan><tspan class="cls-34" x="78.98" y="0">t</tspan><tspan class="cls-21" x="82.53" y="0">o</tspan><tspan class="cls-24" x="88.65" y="0" xml:space="preserve"> pl</tspan><tspan class="cls-21" x="100.31" y="0">a</tspan><tspan class="cls-41" x="106.13" y="0">y</tspan><tspan class="cls-24" x="111.63" y="0">er</tspan><tspan class="cls-97" x="121.31" y="0">s</tspan><tspan class="cls-21" x="126.33" y="0">’</tspan><tspan class="cls-37" x="129.63" y="0" xml:space="preserve"> r</tspan><tspan class="cls-20" x="136.07" y="0">unn</tspan><tspan class="cls-24" x="154.33" y="0">i</tspan><tspan class="cls-21" x="157" y="0">n</tspan><tspan class="cls-24" x="163.08" y="0">g </tspan><tspan class="cls-21" x="172.07" y="0">d</tspan><tspan class="cls-24" x="178.44" y="0">is</tspan><tspan class="cls-85" x="186.54" y="0">t</tspan><tspan class="cls-21" x="190.19" y="0">anc</tspan><tspan class="cls-24" x="207.91" y="0">e </tspan><tspan class="cls-20" x="216.51" y="0">d</tspan><tspan class="cls-24" x="222.88" y="0">i</tspan><tspan class="cls-33" x="225.55" y="0">r</tspan><tspan class="cls-24" x="229.06" y="0">e</tspan><tspan class="cls-21" x="234.98" y="0">c</tspan><tspan class="cls-24" x="240.79" y="0">tl</tspan><tspan class="cls-88" x="247.15" y="0">y</tspan><tspan class="cls-87" x="252.04" y="0">.</tspan><tspan class="cls-24" x="254.73" y="0"> </tspan><tspan class="cls-20" x="257.41" y="0">In</tspan><tspan class="cls-24" x="266.39" y="0" xml:space="preserve"> this </tspan><tspan class="cls-98" x="289.74" y="0">w</tspan><tspan class="cls-21" x="297.71" y="0">a</tspan><tspan class="cls-88" x="303.53" y="0">y</tspan><tspan class="cls-87" x="308.41" y="0">,</tspan><tspan class="cls-24" x="311.1" y="0" xml:space="preserve"> the </tspan><tspan class="cls-21" x="332.28" y="0">d</tspan><tspan class="cls-24" x="338.65" y="0">epl</tspan><tspan class="cls-89" x="353.55" y="0">o</tspan><tspan class="cls-21" x="359.51" y="0">y</tspan><tspan class="cls-37" x="365.17" y="0">me</tspan><tspan class="cls-21" x="380.07" y="0">n</tspan><tspan class="cls-24" x="386.16" y="0">t </tspan><tspan class="cls-21" x="392.53" y="0">of</tspan><tspan x="402.34" y="0"> </tspan></text><text class="cls-38" transform="translate(78.51 452.7)">m<tspan class="cls-21" x="8.99" y="0">on</tspan><tspan x="21.2" y="0">s</tspan><tspan class="cls-34" x="26.63" y="0">t</tspan><tspan x="30.17" y="0">ers is the t</tspan><tspan class="cls-65" x="80.93" y="0">r</tspan><tspan class="cls-20" x="84.6" y="0">a</tspan><tspan x="90.43" y="0">i</tspan><tspan class="cls-21" x="93.09" y="0">n</tspan><tspan x="99.18" y="0">i</tspan><tspan class="cls-21" x="101.85" y="0">n</tspan><tspan x="107.93" y="0">g pl</tspan><tspan class="cls-20" x="125.91" y="0">an</tspan><tspan x="137.81" y="0"> </tspan><tspan class="cls-33" x="140.49" y="0">f</tspan><tspan class="cls-21" x="143.91" y="0">o</tspan><tspan x="150.03" y="0">r the pl</tspan><tspan class="cls-21" x="183.96" y="0">a</tspan><tspan class="cls-41" x="189.78" y="0">y</tspan><tspan x="195.28" y="0">ers</tspan><tspan class="cls-87" x="210.39" y="0">.</tspan><tspan x="213.08" y="0" xml:space="preserve"> it will </tspan><tspan class="cls-20" x="243.55" y="0">a</tspan><tspan class="cls-81" x="249.37" y="0">r</tspan><tspan class="cls-65" x="253.14" y="0">r</tspan><tspan class="cls-20" x="256.81" y="0">an</tspan><tspan class="cls-37" x="268.72" y="0">ge </tspan><tspan class="cls-34" x="283.63" y="0">b</tspan><tspan class="cls-21" x="289.85" y="0">y</tspan><tspan x="295.5" y="0" xml:space="preserve"> the </tspan><tspan class="cls-21" x="316.67" y="0">u</tspan><tspan x="322.76" y="0">ser i</tspan><tspan class="cls-20" x="343.22" y="0">n</tspan><tspan class="cls-99" x="349.31" y="0">f</tspan><tspan class="cls-21" x="352.72" y="0">o</tspan><tspan x="358.85" y="0">rm</tspan><tspan class="cls-21" x="371.6" y="0">a</tspan><tspan x="377.43" y="0">ti</tspan><tspan class="cls-21" x="383.79" y="0">on</tspan><tspan class="cls-39" x="396" y="0"> </tspan></text><text class="cls-35" transform="translate(78.51 467.47)"><tspan class="cls-24">p</tspan><tspan class="cls-33" x="6.31" y="0">r</tspan><tspan class="cls-41" x="9.82" y="0">o</tspan><tspan class="cls-21" x="15.79" y="0">v</tspan><tspan class="cls-37" x="21.41" y="0">i</tspan><tspan class="cls-21" x="24.08" y="0">d</tspan><tspan class="cls-24" x="30.45" y="0">e m</tspan><tspan class="cls-21" x="48.04" y="0">y</tspan><tspan class="cls-24" x="53.69" y="0" xml:space="preserve"> pl</tspan><tspan class="cls-21" x="65.35" y="0">a</tspan><tspan class="cls-41" x="71.18" y="0">y</tspan><tspan class="cls-24" x="76.67" y="0">ers whe</tspan><tspan class="cls-21" x="114.65" y="0">n</tspan><tspan class="cls-37" x="120.73" y="0" xml:space="preserve"> the </tspan><tspan class="cls-33" x="141.91" y="0">r</tspan><tspan class="cls-24" x="145.42" y="0">egis</tspan><tspan class="cls-41" x="165.75" y="0">t</tspan><tspan class="cls-24" x="169.29" y="0">e</tspan><tspan class="cls-87" x="175.21" y="0">r.</tspan><tspan class="cls-37" x="181.16" y="0" xml:space="preserve"> O</tspan><tspan class="cls-21" x="192.08" y="0">nc</tspan><tspan class="cls-24" x="203.97" y="0">e s</tspan><tspan class="cls-21" x="218" y="0">y</tspan><tspan class="cls-24" x="223.65" y="0">s</tspan><tspan class="cls-34" x="229.07" y="0">t</tspan><tspan class="cls-24" x="232.62" y="0">em will ge</tspan><tspan class="cls-21" x="281.19" y="0">n</tspan><tspan class="cls-24" x="287.28" y="0">e</tspan><tspan class="cls-65" x="293.2" y="0">r</tspan><tspan class="cls-21" x="296.87" y="0">a</tspan><tspan class="cls-34" x="302.69" y="0">t</tspan><tspan class="cls-81" x="306.24" y="0">e </tspan><tspan class="cls-21" x="314.84" y="0">d</tspan><tspan class="cls-37" x="321.21" y="0">i</tspan><tspan class="cls-21" x="323.88" y="0">f</tspan><tspan class="cls-33" x="327.56" y="0">f</tspan><tspan class="cls-24" x="330.97" y="0">e</tspan><tspan class="cls-33" x="336.89" y="0">r</tspan><tspan class="cls-24" x="340.4" y="0">e</tspan><tspan class="cls-21" x="346.32" y="0">n</tspan><tspan class="cls-24" x="352.41" y="0">t s</tspan><tspan class="cls-20" x="364.21" y="0">c</tspan><tspan class="cls-24" x="370.02" y="0">heme </tspan><tspan class="cls-21" x="399.73" y="0">of</tspan><tspan x="409.54" y="0"> </tspan></text><text class="cls-35" transform="translate(78.51 482.24)"><tspan class="cls-24">m</tspan><tspan class="cls-21" x="8.99" y="0">on</tspan><tspan class="cls-24" x="21.2" y="0">s</tspan><tspan class="cls-34" x="26.63" y="0">t</tspan><tspan class="cls-24" x="30.17" y="0">ers i</tspan><tspan class="cls-21" x="50.63" y="0">n</tspan><tspan class="cls-24" x="56.72" y="0" xml:space="preserve"> the g</tspan><tspan class="cls-21" x="84.21" y="0">a</tspan><tspan class="cls-24" x="90.03" y="0">me </tspan><tspan class="cls-41" x="107.62" y="0">t</tspan><tspan class="cls-21" x="111.17" y="0">o</tspan><tspan class="cls-37" x="117.29" y="0" xml:space="preserve"> m</tspan><tspan class="cls-21" x="128.96" y="0">o</tspan><tspan class="cls-24" x="135.09" y="0">ti</tspan><tspan class="cls-98" x="141.45" y="0">v</tspan><tspan class="cls-21" x="146.97" y="0">a</tspan><tspan class="cls-34" x="152.79" y="0">t</tspan><tspan class="cls-24" x="156.34" y="0">e pl</tspan><tspan class="cls-20" x="173.92" y="0">a</tspan><tspan class="cls-41" x="179.74" y="0">y</tspan><tspan class="cls-24" x="185.23" y="0">ers </tspan><tspan class="cls-99" x="203.02" y="0">r</tspan><tspan class="cls-24" x="206.54" y="0">e</tspan><tspan class="cls-20" x="212.46" y="0">ac</tspan><tspan class="cls-24" x="224.09" y="0">h the g</tspan><tspan class="cls-21" x="257.78" y="0">oa</tspan><tspan class="cls-24" x="269.73" y="0">l </tspan><tspan class="cls-21" x="275.08" y="0">of</tspan><tspan class="cls-24" x="284.89" y="0" xml:space="preserve"> r</tspan><tspan class="cls-21" x="291.33" y="0">unn</tspan><tspan class="cls-24" x="309.59" y="0">i</tspan><tspan class="cls-21" x="312.26" y="0">n</tspan><tspan class="cls-24" x="318.34" y="0">g t</tspan><tspan class="cls-65" x="331.03" y="0">r</tspan><tspan class="cls-21" x="334.7" y="0">a</tspan><tspan class="cls-37" x="340.52" y="0">i</tspan><tspan class="cls-21" x="343.19" y="0">n</tspan><tspan class="cls-24" x="349.28" y="0">i</tspan><tspan class="cls-21" x="351.95" y="0">n</tspan><tspan class="cls-24" x="358.03" y="0">g</tspan><tspan x="364.34" y="0">.</tspan></text><g class="cls-10"><path d="M430.68,95.44a1.93,1.93,0,0,1,1.9,2,2.52,2.52,0,0,1-.09.56l20.23,21L451.55,120,431.39,99.16a1.84,1.84,0,0,1-.78.14,1.93,1.93,0,1,1,.07-3.86m-10.39-4.19A20.52,20.52,0,0,0,438.66,124c-11.43-.12-21.25-11.56-17.6-23.2l-.42-.43.59-.56.29-.28a19.87,19.87,0,0,1,2.73-4.75C423,93.61,421.64,92.42,420.29,91.25Zm.25-7.82-3.27,3.15c3.25,2.65,6.86,5.85,9.85,8.6l.63.58-.62.6-4.19,4,1.68,1.74,3.05-2.94,22.9,23.71,6.69,1.8-1.78-6.53-2.31-2.39h0l-10.06-10.41h0L432.58,94.46l3.28-3.17-1.68-1.74-4.11,4-.61.59-.56-.64c-2.66-3-5.8-6.72-8.36-10m16.52-.38a20.42,20.42,0,0,0-11.9,3.55c1.11,1.33,2.24,2.66,3.34,3.92a11,11,0,0,1,4.26-1.86l.88-.84.58-.57.57.59.66.68c6.83.61,12.07,8.48,8.54,15.41l10.12,10.48a20.53,20.53,0,0,0-17.05-31.36Z"/><path class="cls-11" d="M342.4,108.68l1.85-2.28.33,2.95,1.57-4.71.33,8.6,2.23-9.35,1.52,8.21,2.09-10.35,3.56,5.46L356,90.26l-1.23,7.07-12.25,8.5Zm0,0Zm-16,2.63,16-18.07,5.42-2.08-2.08,5.42-18.06,16c-.43-.39-.85-.81-1.25-1.23m-2.27-24.47,10.16,2.28-6.55,2,5.74,1.48-4,2.18,4.7.05,7.45-10.45,7.07-1.23-15.19.09,3.23,2.81Zm0,0Zm-7.07,32.58a2.28,2.28,0,0,0,2.47,2.47l2.5-1.61a3.79,3.79,0,0,0-.6-1.16l4.87-3.45a24.72,24.72,0,0,0,5.76,3.47l2.16-2.16a26.3,26.3,0,0,1-5.19-3.24L353.25,96.6,356,83l-13.56,2.7-17.14,24.19a28.1,28.1,0,0,1-3.38-5.34l-2.16,2.16a24.32,24.32,0,0,0,3.6,5.91l-3.44,4.86a4,4,0,0,0-1.16-.6Z"/><path d="M969.65,126.87a5.13,5.13,0,0,1,2.66.75,9.21,9.21,0,0,0-1.1.94,7,7,0,0,0-2.12,5,7.62,7.62,0,0,0,3.37,6,8.43,8.43,0,0,0,.38,6.71,10.76,10.76,0,0,0,5.13,4.89,7.35,7.35,0,0,0-.64,2.75,9.74,9.74,0,0,0,2.2,6,12.5,12.5,0,0,0,7.46,4.76,7,7,0,0,0,0,1.71,7.57,7.57,0,0,0,2.22,4.11,14.15,14.15,0,0,0,2.88,2.13,9.83,9.83,0,0,1-5,2.07,12.62,12.62,0,0,1-2.5-8.37c-3.13,1.65-6.44,1.91-9.08.39-3.9-2.25-5.15-7.73-3.5-13.39-3,.74-5.89.24-7.77-1.63-2.36-2.36-2.53-6.29-.82-10.1a4.54,4.54,0,0,1-2.53-1.25c-2.35-2.35-1.54-6.95,1.8-10.28a9.94,9.94,0,0,1,6.88-3.14Zm-12.88-17.65c7.43,0,11.94,3.09,11.2,11.82-9.54.9-13.82-4.44-16.78-11.34A36.8,36.8,0,0,1,956.77,109.22ZM915.21,91.86c-10.48,1.79-19.88,8.47-23.36,19.73v85.75h56.59c-35.55-12.87-46-75.67-12.47-69.39a37.09,37.09,0,0,0,2.93-11l5,.4c-.45,5.48-2.35,10.77-4.8,16-.19.54-.39,1.09-.58,1.61,8.74,22.68,30.27,42.75,45.09,44.75a5.42,5.42,0,0,0,.79,0,16.75,16.75,0,0,0,13.88-5.93l2.13-2.35-2.79-1.51a24.13,24.13,0,0,1-4.83-2.9,2.47,2.47,0,0,1-.82-1.38,3.57,3.57,0,0,1,.6-2.29l2.83-5.22-5.71,1.65c-1.68.49-4.6-.81-6.18-2.85a5.07,5.07,0,0,1-1.17-2.88,2.37,2.37,0,0,1,1.27-2.14l5.17-3.76-6.35-.73a6.29,6.29,0,0,1-5.1-3.27c-.75-1.49-.62-2.68.36-3.54l3.25-2.84-4.09-1.38a3.82,3.82,0,0,1-2.75-2.83,1.56,1.56,0,0,1,.49-1.19c2.91-.64,5.66-.12,7.47,1.7a7.58,7.58,0,0,1,1.86,6.6,8.37,8.37,0,0,1,6.41.66c2.49,1.44,3.9,4.18,4.17,7.44,4-2.69,8.55-3.38,12-1.37,4.12,2.37,5.68,7.85,4.47,13.77,6.39-8.88,9.2-20.15,1.5-32-12.43-1.18-21.74-8.16-24.82-18-1.34-4.26-5.66-7.63-11.17-10.09l0,.06c-7.91-2.88-14.78-4.61-22-5l0,0c-.61,0-1.21,0-1.8,0-2.53,6.09-7.62,10.62-15.28,12.25l-1.57.34-1-1.29C931.12,102.16,923.93,96.54,915.21,91.86Zm.06-14h-.58a34.75,34.75,0,0,0-12.47,3c14.94,5,28.46,13.43,35.62,22.24,4.89-1.37,7.83-3.92,9.7-7.67-9.25-7.82-16.62-13.67-23.93-16.12a26,26,0,0,0-8.34-1.42Zm24.38-6.11a49.34,49.34,0,0,0-6.08.5,75.35,75.35,0,0,1,18,18.76l1.31,0A65.46,65.46,0,0,1,967,92.9c-4.17-7.57-8-13.35-12.62-16.82-3.68-2.73-8-4.3-14-4.37h-.79"/><path d="M946,227.7a2.87,2.87,0,0,0-2.86,1.18,2.62,2.62,0,0,0-2.2-1.26,2.48,2.48,0,0,0-.61.07,2.69,2.69,0,0,0-2,2.59,3,3,0,0,0,.57,1.86,7.18,7.18,0,0,0,1.36,1.4,8.26,8.26,0,0,1,2.7,3l.18.45.17-.45a8.35,8.35,0,0,1,2.63-3.09c1-.88,2-1.8,2-3.18a2.41,2.41,0,0,0-2-2.59"/><path d="M958,227.7a2.86,2.86,0,0,0-2.86,1.18,2.63,2.63,0,0,0-2.21-1.26,2.54,2.54,0,0,0-.61.07,2.68,2.68,0,0,0-2,2.59,3,3,0,0,0,.56,1.86,7.8,7.8,0,0,0,1.36,1.4,8.17,8.17,0,0,1,2.7,3l.19.45.17-.45a8.23,8.23,0,0,1,2.62-3.09c1-.88,2-1.8,2-3.18a2.43,2.43,0,0,0-2-2.59"/><path d="M969.52,227.7a2.86,2.86,0,0,0-2.86,1.18,2.63,2.63,0,0,0-2.21-1.26,2.48,2.48,0,0,0-.61.07,2.68,2.68,0,0,0-2,2.59,3,3,0,0,0,.56,1.86,7.8,7.8,0,0,0,1.36,1.4,8.26,8.26,0,0,1,2.7,3l.19.45.17-.45a8.23,8.23,0,0,1,2.62-3.09c1-.88,2-1.8,2-3.18a2.43,2.43,0,0,0-2-2.59"/><path d="M982,227.7a2.88,2.88,0,0,0-2.87,1.18,2.62,2.62,0,0,0-2.2-1.26,2.48,2.48,0,0,0-.61.07,2.69,2.69,0,0,0-2,2.59,3,3,0,0,0,.57,1.86,7.48,7.48,0,0,0,1.36,1.4,8.26,8.26,0,0,1,2.7,3l.18.45.18-.45a8.23,8.23,0,0,1,2.62-3.09c1-.88,2-1.8,2-3.18A2.41,2.41,0,0,0,982,227.7"/><path d="M994,227.7a2.86,2.86,0,0,0-2.86,1.18,2.62,2.62,0,0,0-2.21-1.26,2.54,2.54,0,0,0-.61.07,2.68,2.68,0,0,0-2,2.59,3,3,0,0,0,.56,1.86,7.8,7.8,0,0,0,1.36,1.4,8.28,8.28,0,0,1,2.71,3l.18.45.17-.45a8.23,8.23,0,0,1,2.62-3.09c1-.88,2-1.8,2-3.18a2.43,2.43,0,0,0-2-2.59"/><path d="M1005.5,227.7a2.86,2.86,0,0,0-2.86,1.18,2.62,2.62,0,0,0-2.21-1.26,2.54,2.54,0,0,0-.61.07,2.68,2.68,0,0,0-2,2.59,3,3,0,0,0,.56,1.86,7.8,7.8,0,0,0,1.36,1.4,8.17,8.17,0,0,1,2.7,3l.19.45.17-.45a8.23,8.23,0,0,1,2.62-3.09c1-.88,2-1.8,2-3.18a2.43,2.43,0,0,0-2-2.59"/><path class="cls-11" d="M930.12,226.91a6.5,6.5,0,0,0,3.38,1.62v2.16c0,2.16-1.69,5.41-3.38,7-1.69-1.62-3.38-4.87-3.38-7v-2.16a6.5,6.5,0,0,0,3.38-1.62"/><path class="cls-11" d="M920.81,226.91a6.51,6.51,0,0,0,3.37,1.62v2.16c0,2.16-1.69,5.41-3.37,7-1.69-1.62-3.38-4.87-3.38-7v-2.16a6.58,6.58,0,0,0,3.38-1.62"/><path class="cls-11" d="M911.66,226.91a6.58,6.58,0,0,0,3.38,1.62v2.16c0,2.16-1.69,5.41-3.38,7-1.68-1.62-3.37-4.87-3.37-7v-2.16a6.51,6.51,0,0,0,3.37-1.62"/><path class="cls-100" d="M1130.51,239.93a9.6,9.6,0,1,1-9.59-9.62A9.6,9.6,0,0,1,1130.51,239.93Zm0-33.8a9.6,9.6,0,1,1-9.59-9.61A9.6,9.6,0,0,1,1130.51,206.13ZM1256.2,102.58h-19.79l9.76-17.11Zm0,33.75h-19.79l9.76-17.11Zm-127.72-16-19.9,20m0-20,19.9,20m0-37.68h-19.79l9.76-17.11Z"/><path class="cls-11" d="M600.23,67.6a20.66,20.66,0,0,0-2.86,1.22,23.34,23.34,0,0,0,2.21,8.56,21.83,21.83,0,0,1,.65-6.27Zm13.8-.16V71.2a22.28,22.28,0,0,1,.62,6.18,23.28,23.28,0,0,0,2.22-8.78A18.58,18.58,0,0,0,614,67.44m-9.83-.78a21,21,0,0,0-2.1.4v3.82h2.1Zm5.95-.06v4.28h2V66.94c-.66-.14-1.33-.26-2-.34m-2.81-.17c-.42,0-.85,0-1.27,0v4.41h2.21V66.45Zm.22-13.77a35.84,35.84,0,0,1,3.72,9.19c-1.46-.47-3.3-1.52-3.7-3.15a5.81,5.81,0,0,1-3.76,3.15,36.89,36.89,0,0,1,3.74-9.19m7.89-5.24a15.89,15.89,0,0,1,6.41,8.3c-2.43-1.26-6.82-1.58-9.72-1.07l-.59-5,3.9-2.21Zm-15.51,0,3.9,2.21-.59,5c-2.91-.51-7.29-.19-9.72,1.07a15.84,15.84,0,0,1,6.41-8.3Zm7.24-16.67c-7.76,0-14.59,6.8-17.52,16.77a26.71,26.71,0,0,0,10.79-8.79l1.48,1.14a28.67,28.67,0,0,1-15.09,10.67A48.56,48.56,0,0,1,593.59,61a12.7,12.7,0,0,1,7.3-3.18l.21,1.86a10.82,10.82,0,0,0-5.65,2.19,35.78,35.78,0,0,1,2,4.83,23.82,23.82,0,0,1,19.69-.07,41.45,41.45,0,0,1,2.14-4.87,10.92,10.92,0,0,0-5.51-2.08l.21-1.86a12.65,12.65,0,0,1,7.3,3.19A48.34,48.34,0,0,1,628,50.54a28.67,28.67,0,0,1-15.09-10.67l1.48-1.14a26.84,26.84,0,0,0,10.36,8.6c-3-9.87-9.82-16.58-17.59-16.58"/><path class="cls-11" d="M667.91,62.79c-.74,0-1.7,0-1.72,1.67,0,4.56-4.21,9.55-4,9.67.7.33,4.89-3.16,6.1-5.85.41-.92,1.13-5.48-.43-5.49m-5.54,4.1c.42.21.76-4,5.14-6a7.25,7.25,0,0,1-1.4-3.5c-3.22.41-5.42,8.36-3.74,9.53M687.25,55.6a8.93,8.93,0,0,1,5.53,2.49A18,18,0,0,0,687,57a12.79,12.79,0,0,0-5.24,1.09,8.94,8.94,0,0,1,5.54-2.49m-9.12-8.12c-1.75,0-3.4.29-3.41.87,1.89.68,1.64,2.25,3.71,2.28s3.77-.94,3.78-2.17c0-.65-2.1-1-4.08-1m17-.28c-2,0-4.1.32-4.09,1,0,1.23,1.71,2.2,3.78,2.17s1.83-1.6,3.72-2.28C698.54,47.49,696.89,47.21,695.14,47.2Zm-8.26-3.93c10.35,0,18.74,2.73,18.74,6.1,0,2.17-.44,3.3-5.69,4.38-2.9.6-9.37-3.07-13-3.07-3.44,0-8.59,4.07-11.35,3.55-5.58-1.06-7.4-2.61-7.4-4.86,0-3.37,8.39-6.1,18.75-6.1m0-14.94a20.46,20.46,0,0,0-15.73,7.28c2.7,0,8.66.3,9.47,2.53a29.51,29.51,0,0,0-10.69-.91,20.22,20.22,0,0,0-1.35,2.29c3.1-.82,14.58-.33,15.25,2.1a39.24,39.24,0,0,0-16-.48,19.38,19.38,0,0,0-1.34,7.12c0,11,9.48,26.59,20.72,26.59,5.69,0,10.74-4,14.34-9.38-3.09,2.34-9.65,5.64-13.69,3.41a32,32,0,0,0,15.39-6.24,31.94,31.94,0,0,0,3.93-14.38,20.14,20.14,0,0,0-20.34-19.93"/><path class="cls-11" d="M776.64,48.52a6.35,6.35,0,0,0-1.67.24c-1.88.5-3.21,1.62-3,2.51s1.94,1.19,3.82.69,3.21-1.63,3-2.51C778.63,48.84,777.77,48.51,776.64,48.52Zm-16.31,0c-1.13,0-2,.32-2.15.93-.24.88,1.09,2,3,2.51s3.59.19,3.83-.69-1.1-2-3-2.51a6.35,6.35,0,0,0-1.67-.24M768,27a35.81,35.81,0,0,0-17.9,13.45c2.16,5.83,3.32,9.57,3.32,13.33s-1.17,7.48-3.26,13.16c5,3.72,10.16,6,15.25,6.58-.51-6.12-1-12.25.16-18.37A24,24,0,0,1,756.2,52V44.81c8.18,4.28,16.12,4.21,24.56,0V52a32.65,32.65,0,0,1-9.16,3,78.12,78.12,0,0,1,.21,18.4,31.28,31.28,0,0,0,14.1-6.52c-3.45-11.46-3.45-14.81.06-26.43-4.24-6.64-11.67-11.2-18-13.45"/><path class="cls-11" d="M843.9,52.69c-.33.84-.65,1.68-.95,2.52a2.1,2.1,0,0,0,.42,1.9,7.61,7.61,0,0,0,2.47,2,28.76,28.76,0,0,0,9.08,2.93,29.85,29.85,0,0,0,9.39.24,7.34,7.34,0,0,0,2.79-1,1.32,1.32,0,0,0,.71-1.27c-.06-.75-.12-1.52-.18-2.3a8.38,8.38,0,0,1-2.89.84,29.16,29.16,0,0,1-8.75-.38,29.35,29.35,0,0,1-8.77-2.86A11,11,0,0,1,844.15,53l-.25-.32m-.72-5h-1.44a32.34,32.34,0,0,0-6.68.78c-2.54.61-4.37,1.61-5.27,2.81s-1.09,2.66-.1,4.92c3.54,8.13,12.65,14.07,22.44,16s20.1,0,26.17-7.21c1.47-1.75,1.65-3.17,1.07-4.67s-2.11-3.12-4.4-4.62a35.12,35.12,0,0,0-5.7-2.92c.16,2.44.38,4.85.55,7.13v0a3.54,3.54,0,0,1-1.54,3,8.85,8.85,0,0,1-3.62,1.34,31.43,31.43,0,0,1-10.08-.24,30.63,30.63,0,0,1-9.75-3.16,9.56,9.56,0,0,1-3.12-2.65,4.33,4.33,0,0,1-.71-3.6v0l0,0c.82-2.29,1.76-4.62,2.81-6.92Zm28.18-21.23c-6.22,0-11.33,2.78-15.64,7-4.53,4.44-8.1,10.55-10.8,16.8a3,3,0,0,0,.77,1.47,8.91,8.91,0,0,0,2.5,1.9,27.78,27.78,0,0,0,8.15,2.64,27.56,27.56,0,0,0,8.12.38,6.69,6.69,0,0,0,2.36-.71c.46-.29.53-.43.52-.72h.07a67.21,67.21,0,0,1,0-14.25,25.46,25.46,0,0,1,1.65-6.22,138.54,138.54,0,0,0-9.38,10.23c3.82-7.59,9.31-13.11,15.24-18.25A22.12,22.12,0,0,0,871.36,26.42Z"/><path class="cls-100" d="M617.72,139.74H595.23l11.1-19.28Zm248.73,41-22.62,22.48m0-22.48,22.62,22.48m-87.12-84.37-22.61,22.48m0-22.48,22.61,22.48m-81,50.65a10.91,10.91,0,1,1-10.91-10.84A10.88,10.88,0,0,1,698.36,192Zm-1-61.89a10.9,10.9,0,1,1-10.9-10.84A10.87,10.87,0,0,1,697.36,130.1ZM618.48,192a10.91,10.91,0,1,1-10.9-10.84A10.87,10.87,0,0,1,618.48,192ZM866,130.1a10.91,10.91,0,1,1-10.9-10.84A10.87,10.87,0,0,1,866,130.1ZM778.93,192A10.91,10.91,0,1,1,768,181.15,10.88,10.88,0,0,1,778.93,192Z"/><path d="M589.13,96.6a3.22,3.22,0,0,0-3.22,1.33,3,3,0,0,0-2.49-1.42,3.1,3.1,0,0,0-.69.08,3,3,0,0,0-2.25,2.93,3.39,3.39,0,0,0,.63,2.09,8.51,8.51,0,0,0,1.54,1.58,9.43,9.43,0,0,1,3.05,3.41l.2.51.2-.51a9.31,9.31,0,0,1,3-3.48c1.15-1,2.22-2,2.27-3.59a2.73,2.73,0,0,0-2.2-2.93"/><path d="M602.92,96.6a3.23,3.23,0,0,0-3.23,1.33,3,3,0,0,0-2.49-1.42,3.1,3.1,0,0,0-.69.08,3,3,0,0,0-2.25,2.93,3.39,3.39,0,0,0,.63,2.09,8.51,8.51,0,0,0,1.54,1.58,9.34,9.34,0,0,1,3.05,3.41l.2.51.2-.51a9.31,9.31,0,0,1,3-3.48c1.15-1,2.22-2,2.27-3.59a2.73,2.73,0,0,0-2.19-2.93"/><path d="M616.47,96.6a3.22,3.22,0,0,0-3.22,1.33,3,3,0,0,0-2.49-1.42,3.1,3.1,0,0,0-.69.08,3,3,0,0,0-2.25,2.93,3.39,3.39,0,0,0,.63,2.09,8.51,8.51,0,0,0,1.54,1.58,9.43,9.43,0,0,1,3,3.41l.2.51.2-.51a9.31,9.31,0,0,1,3-3.48c1.15-1,2.22-2,2.27-3.59a2.73,2.73,0,0,0-2.2-2.93"/><path d="M629.46,96.6a3.25,3.25,0,0,0-3.23,1.33,3,3,0,0,0-2.48-1.42,3.1,3.1,0,0,0-.69.08,3,3,0,0,0-2.25,2.93,3.33,3.33,0,0,0,.63,2.09,8.51,8.51,0,0,0,1.54,1.58,9.43,9.43,0,0,1,3,3.41l.2.51.2-.51a9.31,9.31,0,0,1,3-3.48c1.15-1,2.22-2,2.27-3.59a2.73,2.73,0,0,0-2.2-2.93"/><path d="M751.08,96.6a3.24,3.24,0,0,0-3.23,1.33,3,3,0,0,0-2.49-1.42,3.08,3.08,0,0,0-.68.08,3,3,0,0,0-2.26,2.93,3.39,3.39,0,0,0,.64,2.09,7.92,7.92,0,0,0,1.54,1.58,9.32,9.32,0,0,1,3,3.41l.21.51.2-.51a9.22,9.22,0,0,1,3-3.48c1.15-1,2.22-2,2.27-3.59a2.74,2.74,0,0,0-2.2-2.93"/><path d="M764.86,96.6a3.24,3.24,0,0,0-3.23,1.33,3,3,0,0,0-2.49-1.42,3.08,3.08,0,0,0-.68.08,3,3,0,0,0-2.25,2.93,3.33,3.33,0,0,0,.63,2.09,7.92,7.92,0,0,0,1.54,1.58,9.43,9.43,0,0,1,3,3.41l.2.51.2-.51a9.22,9.22,0,0,1,3-3.48c1.15-1,2.22-2,2.27-3.59a2.73,2.73,0,0,0-2.2-2.93"/><path d="M778.42,96.6a3.24,3.24,0,0,0-3.23,1.33,3,3,0,0,0-2.49-1.42,3.08,3.08,0,0,0-.68.08,3,3,0,0,0-2.26,2.93,3.39,3.39,0,0,0,.64,2.09,7.92,7.92,0,0,0,1.54,1.58,9.32,9.32,0,0,1,3,3.41l.21.51.2-.51a9.22,9.22,0,0,1,3-3.48c1.15-1,2.22-2,2.27-3.59a2.74,2.74,0,0,0-2.2-2.93"/><path d="M791.41,96.6a3.24,3.24,0,0,0-3.23,1.33,3,3,0,0,0-2.49-1.42,3.25,3.25,0,0,0-.69.08,3,3,0,0,0-2.25,2.93,3.39,3.39,0,0,0,.64,2.09,7.92,7.92,0,0,0,1.54,1.58,9.32,9.32,0,0,1,3,3.41l.21.51.19-.51a9.24,9.24,0,0,1,3-3.48c1.14-1,2.22-2,2.27-3.59a2.74,2.74,0,0,0-2.2-2.93"/><path d="M676.21,96.6A3.23,3.23,0,0,0,673,97.93a3,3,0,0,0-2.49-1.42,3.17,3.17,0,0,0-.69.08,3,3,0,0,0-2.25,2.93,3.39,3.39,0,0,0,.63,2.09,8.51,8.51,0,0,0,1.54,1.58,9.34,9.34,0,0,1,3,3.41l.21.51.19-.51a9.31,9.31,0,0,1,3-3.48c1.15-1,2.23-2,2.28-3.59a2.74,2.74,0,0,0-2.2-2.93"/><path d="M689.77,96.6a3.23,3.23,0,0,0-3.23,1.33,3,3,0,0,0-2.49-1.42,3.17,3.17,0,0,0-.69.08,3,3,0,0,0-2.25,2.93,3.39,3.39,0,0,0,.63,2.09,8.51,8.51,0,0,0,1.54,1.58,9.34,9.34,0,0,1,3.05,3.41l.21.51.19-.51a9.31,9.31,0,0,1,3-3.48c1.15-1,2.23-2,2.28-3.59a2.74,2.74,0,0,0-2.2-2.93"/><path d="M702.75,96.6a3.22,3.22,0,0,0-3.22,1.33A3,3,0,0,0,697,96.51a3.1,3.1,0,0,0-.69.08,3,3,0,0,0-2.25,2.93,3.39,3.39,0,0,0,.63,2.09,8.51,8.51,0,0,0,1.54,1.58,9.34,9.34,0,0,1,3.05,3.41l.2.51.2-.51a9.31,9.31,0,0,1,3-3.48c1.15-1,2.22-2,2.27-3.59a2.73,2.73,0,0,0-2.2-2.93"/><path d="M844.31,96.6a3.23,3.23,0,0,0-3.23,1.33,3,3,0,0,0-2.49-1.42,3.25,3.25,0,0,0-.69.08,3,3,0,0,0-2.25,2.93,3.39,3.39,0,0,0,.63,2.09,8.51,8.51,0,0,0,1.54,1.58,9.34,9.34,0,0,1,3,3.41l.21.51.19-.51a9.31,9.31,0,0,1,3-3.48c1.15-1,2.23-2,2.28-3.59a2.74,2.74,0,0,0-2.2-2.93"/><path d="M857.87,96.6a3.23,3.23,0,0,0-3.23,1.33,3,3,0,0,0-2.49-1.42,3.17,3.17,0,0,0-.69.08,3,3,0,0,0-2.25,2.93,3.39,3.39,0,0,0,.63,2.09,8.51,8.51,0,0,0,1.54,1.58,9.34,9.34,0,0,1,3,3.41l.21.51.19-.51a9.31,9.31,0,0,1,3-3.48c1.15-1,2.23-2,2.28-3.59a2.74,2.74,0,0,0-2.2-2.93"/><path d="M870.86,96.6a3.23,3.23,0,0,0-3.23,1.33,3,3,0,0,0-2.49-1.42,3.17,3.17,0,0,0-.69.08,3,3,0,0,0-2.25,2.93,3.39,3.39,0,0,0,.63,2.09,8.51,8.51,0,0,0,1.54,1.58,9.34,9.34,0,0,1,3,3.41l.2.51.2-.51a9.31,9.31,0,0,1,3-3.48c1.15-1,2.23-2,2.27-3.59a2.73,2.73,0,0,0-2.19-2.93"/><path class="cls-101" d="M809.23,258.43H792.57l8.22-13.37ZM739.66,244l-16.75,15.59m0-15.59,16.75,15.59M670,251.75a8.1,8.1,0,1,1-8.07-7.52A7.8,7.8,0,0,1,670,251.75Z"/><path d="M340.25,578.73c.89.66,1.88,1.45,1.92,1.41a16.33,16.33,0,0,1,5.92-3.81c.28-.13.34-.69.52-1.05a27.66,27.66,0,0,1,1.92-3.61c.73-1,.39-1.56-.45-2.07a1.72,1.72,0,0,0-2.66.78c-1,2.22-2.73,3.58-4.62,5-1,.7-1.52,2-2.55,3.39m59.21,21.73.25-.41a36.36,36.36,0,0,0,4.05-.66c.59-.17,1-.89,1.53-1.36a8.21,8.21,0,0,0-1.7-1c-2.17-.64-4.06-1.55-4.74-4-.31-1.11-.84-1.13-1.9-.78a16.14,16.14,0,0,1-4.58.75c-.82,0-1.88-.61-2,.62-.13,1.06,0,2.84.6,3.16,2.72,1.41,5.65,2.43,8.51,3.59m-23-83.73c-3.54-.54-5.92,1.13-7.77,3.41-3.41,4.17-6.64,8.49-9.78,12.87-1,1.42-1.5,3.23-2.43,5.31,1.68-1.42,2.76-3,4.14-3.34,1.91-.43,2-1.66,2.46-3a9.33,9.33,0,0,1,1.72-3.4,93.91,93.91,0,0,1,7.07-6.29,33.59,33.59,0,0,1,3.77-2.35l.37.39c.14-1.15.29-2.3.45-3.65m28.72,17c1.25,2.43,2.37,4.85,3.76,7.1.37.61,1.85,1.2,2.32.92a3.61,3.61,0,0,0,1.56-2.44c.35-3.26.49-6.55.63-9.83.13-2.95.19-5.9.24-8.86,0-2.22,0-4.45,0-6.68-.6.16-.75.32-.76.48-.15,2.32-.3,4.58-2.34,6.24a2.22,2.22,0,0,0-.16,2c1.45,3.08.39,6.23.46,9.34a8,8,0,0,1-.66,2c-.55-1-.85-1.56-1.13-2l-3.93,1.77m-19.79,28.41-1.41-.78c-2.22-1.24-4.41-2.57-6.7-3.67a2.34,2.34,0,0,0-2.11.61c-1.26,1.58-2.28,3.35-3.41,5-.82,1.23-1.32,2.42,0,3.67,1.52,1.44,3.53,3.14,5.31,2.09,2.9-1.72,5.28-4.35,8.31-7m-35.1,12.95a6.07,6.07,0,0,0,.93.17c5.78.21,11.56.43,17.34.61a2.83,2.83,0,0,0,1.84-.39c1.62-1.5,3.11-3.14,4.66-4.74L369.57,567c-1.52,2.56-4.1,2.45-6.73,2.41a15.14,15.14,0,0,0-3.67.65c-1.85.43-3.65,1-5.51,1.38-2.07.39-3.11,1.39-3.37,3.73M399,504.64c-3.27,0-4.7,1.31-4.94,4.58-.11,1.44,0,2.89,0,4.33a6.91,6.91,0,0,1-.27,2.14c-1,2.74.54,4.89,3.6,5a2,2,0,0,0,2.25-1.44c.25-.66,1.09-1.1,1.69-1.62s1.27-.75,1.52-1.31a24.11,24.11,0,0,0,1.76-4.76c1-4.35-1.16-6.92-5.58-6.89m-2.38,86.78c-.44-2.95-1.23-5.24-1-7.43.69-7.11.17-14.38,2.81-21.24.85-2.22-1.31-5.78-3.63-6.51-1.59-.5-3.79,1-4.77,3.35-.13.3-.36.66-.29.93.21.93.26,2.11.86,2.68a1.91,1.91,0,0,1,.59,2.57c-1.82,3.74-1.58,7.49-.81,11.51.82,4.33,2.39,8.68,1.31,13.25-.09.37.6,1.31.91,1.31a37.28,37.28,0,0,0,4-.42m-4.91-41.19c-.05.24-.09.48-.13.72a25.45,25.45,0,0,1,1.12-2.82c.76-1.43.38-2.39-1-3a56.53,56.53,0,0,0-6.87-2.94c-1.93-.57-4-1.47-6.09-.16-3.57,2.18-5.12,9.46-2.52,12.76,3,3.84,7.49,5.26,11.94,7a9.77,9.77,0,0,1,4.9-7l-8.14-9.27c.9.19,1.27.17,1.47.33,1.8,1.43,3.56,2.89,5.34,4.34M403,528.31a12.67,12.67,0,0,1,1.09,2.17c.27,1,.43,2,1.9,1.55,1.74-.48,3.24-1.89,2.73-3a46.12,46.12,0,0,0-3.77-7.08,3.71,3.71,0,0,0-4.78-1,5.62,5.62,0,0,1-8.06-2.65,2.31,2.31,0,0,0-2.38-1.56,12.55,12.55,0,0,1-3.77-.83c-2.64-1-5,.25-7.51.66-.41.07-.84.84-1,1.36-.71,2.19,0,3.27,2.29,3.64,3.55.59,3.65.6,3.27,4.1-.45,4.17-1.07,8.34-1.68,12.5-.19,1.28-.06,1.89,1.46,2.34a83.84,83.84,0,0,1,9.52,3.67c1.25.55,1.89.73,2.6-.71,2.23-4.47,4.6-8.87,6.93-13.29.26-.51.6-1,1.17-1.87m-43.81,9.09a9.15,9.15,0,0,1-1.23,1.91,10,10,0,0,1-2,1.22c-.25-.79-.89-1.72-.67-2.35a23.89,23.89,0,0,1,2.77-6.07c3.3-4.58,6.83-9,10.39-13.4,2-2.5,4.91-3.37,8.06-3.58,2.15-.15,4.28-.6,6.43-.74a12.15,12.15,0,0,1,3.25.46,16.32,16.32,0,0,0,2.41.82c3.41.23,4.64.2,4.4-3.71a15.77,15.77,0,0,1,.41-5.09c.7-2.53,3.51-3.86,6.57-3.47,3.4.43,5.51,2.35,5.83,5.19.45,3.9-1.16,7.16-3.29,10.52,3.74,1.22,5.18,4.44,7.12,7.51a22.44,22.44,0,0,0,0-2.32c-.17-1.74-.48-3.47-.57-5.21,0-.56.45-1.6.78-1.63,2-.22,1.62-1.68,1.7-2.92,0-.27-.07-.6.06-.78.47-.69,1-1.32,1.53-2,.46.64,1.27,1.24,1.33,1.91.21,2.42.21,4.85.21,7.28,0,3.22,0,6.45-.19,9.67s-.4,6.17-.69,9.24c-.13,1.43-.59,2.86-2.22,3.13a3.66,3.66,0,0,1-4.12-2c-1.42-2.82-2.71-5.7-4.05-8.56-.13-.28-.24-.57-.42-1-.41.37-.8.56-1,.86-2.85,5.63-5.76,11.24-8.46,16.93-1.34,2.83-1.11,3.16,1.21,5.26.93.83,1.81,1.73,2.76,2.54a5.45,5.45,0,0,1,1.8,6.57c-2,5-1.76,10.35-2.26,15.57a51.55,51.55,0,0,0-.08,7.86,8.48,8.48,0,0,0,1.26,3,13.68,13.68,0,0,0,2,3.55,9.69,9.69,0,0,0,3.65,2.27c1.17.39,2.63.52,2.51,1.92a3.61,3.61,0,0,1-1.92,2.57c-3.43,1.21-6.93,1.58-10.26-.55a10.19,10.19,0,0,0-2-.88c-3.21-1.18-4.47-2.81-3-5.76,2.22-4.35,1.18-8.45.44-12.7-.36-2.08-.78-4.14-1.23-6.2a12.28,12.28,0,0,1,1-7.32c.48-1.23,1-2.4-.59-3.21-1.39-.73-2.5-1.51-4.1.18-2.76,2.9-5.95,5.37-8.94,8.06-1.46,1.31-2.76,2.83-4.32,4a5.45,5.45,0,0,1-3.14,1c-5.19-.08-10.38-.45-15.57-.46-1.36,0-2.69,1.18-4.1,1.38-2.48.36-4.16,1.75-5.89,3.4-1.11,1-2.77.16-3.09-1.49a4.83,4.83,0,0,1,2.05-5.2,13.08,13.08,0,0,0,4.76-5.11,2.56,2.56,0,0,1,4.2-.68c2.11,2.54,4.42,1.57,6.62.69a15.46,15.46,0,0,1,7.3-1.27,3.93,3.93,0,0,0,3.85-1.91c2.12-3.16,4.28-6.29,6.31-9.51a2.7,2.7,0,0,0-.14-2c-2.18-5.45-.68-10.71,4-14.1a2.71,2.71,0,0,0,1.06-1.53c.76-4.87,1.48-9.75,2.07-14.64.05-.44-.75-1.29-1.3-1.44a42.36,42.36,0,0,0-5.61-1.06,2.76,2.76,0,0,0-1.72.59c-1,.73-1.91,1.63-2.9,2.39-3.62,2.77-6.45,6-7.54,10.66-.58,2.52-1.33,2.62-3.68,1.8"/><path d="M403,528.31c-.57.9-.91,1.36-1.17,1.87-2.33,4.42-4.7,8.82-6.93,13.29-.71,1.44-1.35,1.26-2.6.71a83.84,83.84,0,0,0-9.52-3.67c-1.52-.45-1.65-1.06-1.46-2.34.61-4.16,1.23-8.33,1.68-12.5.38-3.5.28-3.51-3.27-4.1-2.29-.37-3-1.45-2.29-3.64.17-.52.6-1.29,1-1.36,2.47-.41,4.87-1.66,7.51-.66a12.55,12.55,0,0,0,3.77.83,2.31,2.31,0,0,1,2.38,1.56,5.62,5.62,0,0,0,8.06,2.65,3.71,3.71,0,0,1,4.78,1,46.12,46.12,0,0,1,3.77,7.08c.51,1.13-1,2.54-2.73,3-1.47.41-1.63-.52-1.9-1.55a12.67,12.67,0,0,0-1.09-2.17"/><path d="M391.75,550.23c-1.78-1.45-3.54-2.91-5.34-4.34-.21-.16-.57-.14-1.47-.33l8.14,9.27a9.77,9.77,0,0,0-4.9,7c-4.45-1.77-8.91-3.19-11.94-7-2.6-3.3-1.05-10.58,2.52-12.76,2.14-1.31,4.16-.41,6.09.16a56.53,56.53,0,0,1,6.87,2.94c1.4.63,1.78,1.59,1,3a23.63,23.63,0,0,0-1.12,2.82c0-.24.08-.48.13-.72"/><path d="M396.66,591.42a37.28,37.28,0,0,1-4,.42c-.32,0-1-.94-.91-1.31,1.08-4.57-.49-8.92-1.31-13.25-.77-4-1-7.77.81-11.51a1.91,1.91,0,0,0-.59-2.57c-.6-.57-.65-1.75-.86-2.68-.07-.28.16-.63.29-.93,1-2.31,3.18-3.85,4.77-3.35,2.32.73,4.48,4.29,3.63,6.5-2.64,6.87-2.12,14.14-2.81,21.25-.21,2.19.59,4.48,1,7.43"/><path d="M399,504.64c4.42,0,6.57,2.54,5.58,6.89a24.11,24.11,0,0,1-1.76,4.76c-.25.56-1,.87-1.52,1.31s-1.44,1-1.69,1.62a2,2,0,0,1-2.25,1.44c-3.06-.08-4.59-2.23-3.6-5a6.91,6.91,0,0,0,.27-2.14c0-1.44-.08-2.9,0-4.33.24-3.27,1.67-4.55,4.94-4.58"/><path d="M350.29,575.14c.26-2.34,1.3-3.35,3.37-3.73,1.86-.35,3.66-.95,5.51-1.38a15.14,15.14,0,0,1,3.67-.65c2.63,0,5.21.15,6.73-2.42l5.49,3.83c-1.55,1.6-3,3.24-4.66,4.74a2.83,2.83,0,0,1-1.84.39c-5.78-.18-11.56-.4-17.34-.61a7.58,7.58,0,0,1-.93-.17"/><path d="M385.39,562.19c-3,2.61-5.4,5.24-8.31,7-1.78,1.05-3.79-.65-5.31-2.09-1.33-1.25-.83-2.44,0-3.67,1.13-1.69,2.15-3.46,3.41-5a2.33,2.33,0,0,1,2.1-.61c2.3,1.1,4.49,2.43,6.71,3.68l1.41.77"/><path d="M405.18,533.78l3.93-1.77c.28.49.58,1,1.13,2a8.15,8.15,0,0,0,.66-2c-.07-3.11,1-6.26-.46-9.33a2.24,2.24,0,0,1,.16-2c2-1.66,2.19-3.92,2.34-6.24,0-.16.16-.32.76-.48,0,2.23,0,4.46,0,6.69-.05,3-.11,5.9-.24,8.85-.14,3.28-.28,6.57-.63,9.83a3.61,3.61,0,0,1-1.56,2.44c-.47.28-1.95-.31-2.32-.92-1.39-2.25-2.51-4.67-3.76-7.1"/><path d="M376.46,516.73c-.16,1.35-.31,2.5-.45,3.65l-.37-.39a33.59,33.59,0,0,0-3.77,2.35,93.91,93.91,0,0,0-7.07,6.29,9.33,9.33,0,0,0-1.72,3.4c-.49,1.29-.55,2.52-2.46,3-1.38.32-2.46,1.92-4.14,3.34.93-2.08,1.41-3.89,2.43-5.31,3.14-4.38,6.38-8.7,9.78-12.87,1.85-2.28,4.23-3.95,7.77-3.41"/><path d="M399.46,600.46c-2.86-1.16-5.79-2.18-8.51-3.59-.61-.32-.73-2.11-.6-3.16.14-1.23,1.2-.6,2-.62a16.14,16.14,0,0,0,4.58-.75c1.06-.35,1.59-.33,1.9.78.68,2.4,2.57,3.31,4.74,4a8.21,8.21,0,0,1,1.7,1c-.5.47-.94,1.19-1.53,1.36a36.36,36.36,0,0,1-4.05.66l-.25.41"/><path d="M340.25,578.73c1-1.42,1.58-2.69,2.55-3.39,1.89-1.38,3.63-2.74,4.62-5a1.72,1.72,0,0,1,2.66-.78c.84.51,1.18,1.06.45,2.07a27.66,27.66,0,0,0-1.92,3.61c-.18.36-.24.92-.52,1.05a16.33,16.33,0,0,0-5.92,3.81s-1-.75-1.92-1.41"/><path class="cls-11" d="M507.75,560.55c2.74,3.72-1.29,24.84-6.76,10.73-3.42,13.45-8.65,14.14-8.79,8-5.41,6.26,3.75,17,7.16,18.73l4-.09c-3.62-3-6.07-5.9-6.58-10.38,3.68.65,5.59,1.5,6.18-4.93,4.85,6.59,7.73-4,10.44-8.52-.06,3.12-.1,7.24,2,10,.7.93,2.6,1.19,4.26,1.13-.74,1.27-3.35,5.45-1.16,6.93s2.55-.08,2,1.21c-1,1.64-1.71,3.09-4.48,4.28l4.34-.09c4.57-1.55,8.5-7.28,7.1-10.64-1.68,1.48-3.34,2.46-4.7,2.38,3.68-5.65,2.69-11.35.78-17.14-1.45,5.63-2.46,6.43-4.06,7.79,2.14-5.37-7-16.46-11.76-19.35"/></g><rect class="cls-102" x="975.74" y="575.15" width="39.99" height="17.45"/><rect class="cls-100" x="975.74" y="575.15" width="39.99" height="17.45"/><rect class="cls-102" x="1072.86" y="574.56" width="39.9" height="17.41"/><rect class="cls-100" x="1072.86" y="574.56" width="39.9" height="17.41"/><rect class="cls-102" x="1172.67" y="574.56" width="39.9" height="17.41"/><rect class="cls-100" x="1172.67" y="574.56" width="39.9" height="17.41"/><rect class="cls-102" x="1172.67" y="488.34" width="39.9" height="17.41"/><rect class="cls-100" x="1172.67" y="488.34" width="39.9" height="17.41"/><rect class="cls-102" x="1172.67" y="420.48" width="39.9" height="17.41"/><rect class="cls-100" x="1172.67" y="420.48" width="39.9" height="17.41"/><rect class="cls-102" x="1118.97" y="466.62" width="39.9" height="17.41"/><rect class="cls-100" x="1118.97" y="466.62" width="39.9" height="17.41"/><rect class="cls-102" x="1074.2" y="466.62" width="39.9" height="17.41"/><rect class="cls-100" x="1074.2" y="466.62" width="39.9" height="17.41"/><rect class="cls-102" x="1071.44" y="402.26" width="45.49" height="22.49"/><rect class="cls-100" x="1071.44" y="402.26" width="45.49" height="22.49"/><rect class="cls-102" x="1029.48" y="466.62" width="39.9" height="17.41"/><rect class="cls-100" x="1029.48" y="466.62" width="39.9" height="17.41"/><line class="cls-100" x1="1016.23" y1="583.42" x2="1072.37" y2="583.42"/><line class="cls-100" x1="1113.26" y1="583.42" x2="1171.62" y2="583.42"/><line class="cls-100" x1="1192.35" y1="574.06" x2="1192.35" y2="506.24"/><line class="cls-100" x1="1192.35" y1="487.84" x2="1192.35" y2="438.38"/><path class="cls-100" d="M1049.93,465.72V442.51h44.54V425.25m-20.37,49.58h-3.8m48.39,0h-3.85m57.33-45.69h-33.11v36.58"/><g class="cls-10"><path d="M1102.16,386.9a.93.93,0,0,1,.52.15,1.92,1.92,0,0,0-.22.18,1.45,1.45,0,0,0-.42,1,1.5,1.5,0,0,0,.67,1.19,1.69,1.69,0,0,0,.08,1.34,2.19,2.19,0,0,0,1,1,1.34,1.34,0,0,0-.13.54,2,2,0,0,0,.44,1.19,2.48,2.48,0,0,0,1.48.94,1.28,1.28,0,0,0,0,.34,1.49,1.49,0,0,0,.44.82,2.69,2.69,0,0,0,.57.42,1.87,1.87,0,0,1-1,.41,2.42,2.42,0,0,1-.5-1.66,1.84,1.84,0,0,1-1.8.08,2.24,2.24,0,0,1-.7-2.66,1.58,1.58,0,0,1-1.54-.32,1.78,1.78,0,0,1-.17-2,.89.89,0,0,1-.5-.25,1.52,1.52,0,0,1,.36-2,2,2,0,0,1,1.37-.62m-2.56-3.51c1.47,0,2.37.62,2.22,2.35-1.89.18-2.74-.88-3.33-2.25a7.61,7.61,0,0,1,1.11-.1m-8.25-3.45a5.71,5.71,0,0,0-4.64,3.92v17h11.23c-7.06-2.55-9.12-15-2.47-13.78a7.43,7.43,0,0,0,.58-2.19l1,.08a9,9,0,0,1-1,3.17c0,.11-.08.22-.11.32,1.73,4.5,6,8.49,9,8.88h.16a3.33,3.33,0,0,0,2.75-1.18l.43-.47-.56-.29a5.52,5.52,0,0,1-1-.58.51.51,0,0,1-.16-.28.69.69,0,0,1,.12-.45l.56-1-1.13.33a1.38,1.38,0,0,1-1.23-.56,1,1,0,0,1-.23-.58.46.46,0,0,1,.25-.42l1-.75-1.26-.14a1.26,1.26,0,0,1-1-.65.54.54,0,0,1,.08-.71l.64-.56-.81-.27a.76.76,0,0,1-.55-.57.29.29,0,0,1,.1-.23,1.55,1.55,0,0,1,1.48.33,1.52,1.52,0,0,1,.37,1.32,1.66,1.66,0,0,1,1.28.13,1.79,1.79,0,0,1,.82,1.47,2.28,2.28,0,0,1,2.39-.27,2.47,2.47,0,0,1,.89,2.74,5.32,5.32,0,0,0,.3-6.37,5.42,5.42,0,0,1-4.93-3.57,3.74,3.74,0,0,0-2.22-2h0a14.71,14.71,0,0,0-4.37-1h-.35a4,4,0,0,1-3,2.43l-.32.07-.19-.26A12.26,12.26,0,0,0,1091.35,379.94Zm0-2.78h-.12a6.84,6.84,0,0,0-2.48.58,16.11,16.11,0,0,1,7.08,4.42,2.87,2.87,0,0,0,1.93-1.52,16.25,16.25,0,0,0-4.76-3.2,5.1,5.1,0,0,0-1.65-.28m4.84-1.22a11.14,11.14,0,0,0-1.21.1,14.76,14.76,0,0,1,3.57,3.73h.26a12.84,12.84,0,0,1,2.82.38,10.41,10.41,0,0,0-2.51-3.34,4.56,4.56,0,0,0-2.78-.87h-.15"/><path class="cls-11" d="M992.73,567.59a8.36,8.36,0,0,0-1.19.51,9.88,9.88,0,0,0,.92,3.57,9.62,9.62,0,0,1,.27-2.61Zm5.76-.07v1.57a9.06,9.06,0,0,1,.26,2.58,9.8,9.8,0,0,0,.93-3.66,9.59,9.59,0,0,0-1.19-.49m-4.1-.32c-.29,0-.59.1-.88.17V569h.88Zm2.48,0V569h.84v-1.64a7.36,7.36,0,0,0-.84-.14m-1.17-.08-.53,0V569h.92v-1.85Zm.09-5.74a14.92,14.92,0,0,1,1.56,3.83,2.19,2.19,0,0,1-1.55-1.31,2.43,2.43,0,0,1-1.57,1.31,15.65,15.65,0,0,1,1.56-3.83m3.29-2.19a6.59,6.59,0,0,1,2.68,3.46,7.44,7.44,0,0,0-4-.44l-.25-2.1Zm-6.47,0,1.63.92-.25,2.1a7.44,7.44,0,0,0-4,.44,6.62,6.62,0,0,1,2.67-3.46m3-7c-3.23,0-6.08,2.84-7.31,7a11.18,11.18,0,0,0,4.51-3.67l.62.48a12,12,0,0,1-6.3,4.45,20.44,20.44,0,0,1,2.81,4.37,5.25,5.25,0,0,1,3-1.32l.09.77a4.54,4.54,0,0,0-2.36.91,14.28,14.28,0,0,1,.83,2,10,10,0,0,1,8.22,0,15.65,15.65,0,0,1,.89-2,4.49,4.49,0,0,0-2.3-.87l.09-.77a5.26,5.26,0,0,1,3,1.33,19.85,19.85,0,0,1,2.81-4.38A11.93,11.93,0,0,1,998,556l.62-.48a11.12,11.12,0,0,0,4.33,3.59c-1.25-4.12-4.1-6.92-7.35-6.92"/><path class="cls-11" d="M1079.29,567.59a8.36,8.36,0,0,0-1.19.51,9.88,9.88,0,0,0,.92,3.57,9.62,9.62,0,0,1,.27-2.61Zm5.76-.07v1.57a9.06,9.06,0,0,1,.26,2.58,9.8,9.8,0,0,0,.93-3.66,9.59,9.59,0,0,0-1.19-.49m-4.1-.32a8.55,8.55,0,0,0-.88.17V569h.88Zm2.48,0V569h.84v-1.64a7.74,7.74,0,0,0-.84-.14m-1.17-.08-.53,0V569h.92v-1.85Zm.09-5.74a14.92,14.92,0,0,1,1.56,3.83,2.19,2.19,0,0,1-1.55-1.31,2.43,2.43,0,0,1-1.57,1.31,15.65,15.65,0,0,1,1.56-3.83m3.29-2.19a6.64,6.64,0,0,1,2.68,3.46,7.48,7.48,0,0,0-4.06-.44l-.24-2.1Zm-6.47,0,1.63.92-.25,2.1a7.44,7.44,0,0,0-4,.44,6.62,6.62,0,0,1,2.67-3.46m3-7c-3.24,0-6.08,2.84-7.31,7a11.25,11.25,0,0,0,4.51-3.67l.61.48a11.94,11.94,0,0,1-6.29,4.45,20.84,20.84,0,0,1,2.81,4.37,5.25,5.25,0,0,1,3-1.32l.08.77a4.5,4.5,0,0,0-2.35.91,15.57,15.57,0,0,1,.83,2,9.93,9.93,0,0,1,8.21,0,17.23,17.23,0,0,1,.9-2,4.49,4.49,0,0,0-2.3-.87l.09-.77a5.2,5.2,0,0,1,3,1.33,20.33,20.33,0,0,1,2.82-4.38,11.93,11.93,0,0,1-6.3-4.45l.62-.48a11.16,11.16,0,0,0,4.32,3.59c-1.24-4.12-4.1-6.92-7.34-6.92"/><path class="cls-11" d="M1225.43,589.53a8.36,8.36,0,0,0-1.19.51,9.93,9.93,0,0,0,.92,3.57,9.69,9.69,0,0,1,.27-2.62Zm5.76-.07V591a9,9,0,0,1,.26,2.58,9.85,9.85,0,0,0,.93-3.67,8.22,8.22,0,0,0-1.19-.48m-4.1-.33a8.55,8.55,0,0,0-.88.17v1.59h.88Zm2.48,0v1.78h.84v-1.64a7.36,7.36,0,0,0-.84-.14m-1.17-.07a4.7,4.7,0,0,0-.53,0v1.83h.92v-1.84h-.39m.09-5.75a15,15,0,0,1,1.56,3.84,2.23,2.23,0,0,1-1.55-1.32,2.44,2.44,0,0,1-1.57,1.32,15.72,15.72,0,0,1,1.56-3.84m3.29-2.19a6.66,6.66,0,0,1,2.68,3.47,7.48,7.48,0,0,0-4.06-.45l-.24-2.09Zm-6.47,0,1.63.93-.25,2.09a7.45,7.45,0,0,0-4,.45,6.65,6.65,0,0,1,2.67-3.47m3-7c-3.23,0-6.08,2.83-7.31,7a11.18,11.18,0,0,0,4.51-3.67l.61.47a12,12,0,0,1-6.29,4.46,20.59,20.59,0,0,1,2.81,4.37,5.2,5.2,0,0,1,3-1.33l.08.78a4.42,4.42,0,0,0-2.35.91,15.57,15.57,0,0,1,.83,2,9.89,9.89,0,0,1,8.21,0,17.36,17.36,0,0,1,.9-2,4.48,4.48,0,0,0-2.3-.86l.09-.78a5.27,5.27,0,0,1,3,1.33,20.3,20.3,0,0,1,2.82-4.37,12,12,0,0,1-6.3-4.46l.62-.47a11.25,11.25,0,0,0,4.32,3.59c-1.24-4.12-4.1-6.92-7.34-6.92"/><path class="cls-11" d="M1099.16,562.58c-.13.34-.26.68-.38,1a.84.84,0,0,0,.17.76,3,3,0,0,0,1,.83,11.9,11.9,0,0,0,3.67,1.19,12,12,0,0,0,3.8.09,2.87,2.87,0,0,0,1.13-.4.52.52,0,0,0,.29-.51c0-.31,0-.62-.08-.93a3.5,3.5,0,0,1-1.17.34,13.29,13.29,0,0,1-7.08-1.31,4.2,4.2,0,0,1-1.24-.95Zm-.29-2h-.58a13.15,13.15,0,0,0-2.7.32,3.71,3.71,0,0,0-2.13,1.14,1.81,1.81,0,0,0,0,2c1.44,3.29,5.12,5.69,9.08,6.5s8.13,0,10.59-2.92a1.72,1.72,0,0,0,.43-1.89,4.39,4.39,0,0,0-1.78-1.87,14.89,14.89,0,0,0-2.3-1.18c.06,1,.15,2,.22,2.88h0a1.4,1.4,0,0,1-.63,1.22,3.43,3.43,0,0,1-1.46.55,12.53,12.53,0,0,1-4.07-.1,12.15,12.15,0,0,1-4-1.28,3.73,3.73,0,0,1-1.26-1.07,1.76,1.76,0,0,1-.29-1.46h0v0c.34-.92.71-1.87,1.14-2.8h-.27m11.4-8.59a9,9,0,0,0-6.33,2.83,21.57,21.57,0,0,0-4.36,6.8,1.17,1.17,0,0,0,.31.59,3.42,3.42,0,0,0,1,.77,12.64,12.64,0,0,0,6.58,1.22,2.7,2.7,0,0,0,1-.28c.19-.12.22-.18.21-.29h0a26.41,26.41,0,0,1,0-5.76,10.75,10.75,0,0,1,.66-2.52c-1.38,1.38-2.74,2.86-3.79,4.14a24.2,24.2,0,0,1,6.17-7.38,10.45,10.45,0,0,0-1.45-.11"/><path class="cls-11" d="M1016.59,503.25a8.36,8.36,0,0,0-1.19.51,9.49,9.49,0,0,0,.92,3.57,8.89,8.89,0,0,1,.27-2.61Zm5.76-.07v1.57a9.43,9.43,0,0,1,.26,2.58,9.8,9.8,0,0,0,.93-3.66,9.59,9.59,0,0,0-1.19-.49m-4.1-.32a8.55,8.55,0,0,0-.88.17v1.59h.88Zm2.48,0v1.78h.84V503a8.17,8.17,0,0,0-.84-.14m-1.17-.08-.53,0v1.84h.92v-1.85h-.39m.09-5.74a14.89,14.89,0,0,1,1.55,3.83,2.17,2.17,0,0,1-1.54-1.31,2.43,2.43,0,0,1-1.57,1.31,14.9,14.9,0,0,1,1.56-3.83m3.29-2.19a6.69,6.69,0,0,1,2.68,3.46,7.49,7.49,0,0,0-4.06-.44l-.24-2.1Zm-6.47,0,1.63.92-.25,2.1a7.49,7.49,0,0,0-4.06.44,6.69,6.69,0,0,1,2.68-3.46m3-7c-3.24,0-6.09,2.84-7.31,7a11.15,11.15,0,0,0,4.5-3.67l.62.48a11.93,11.93,0,0,1-6.3,4.45,20.55,20.55,0,0,1,2.82,4.37,5.25,5.25,0,0,1,3-1.32l.08.77a4.5,4.5,0,0,0-2.35.91,16.17,16.17,0,0,1,.83,2,9.93,9.93,0,0,1,8.21,0,17.23,17.23,0,0,1,.9-2,4.52,4.52,0,0,0-2.3-.87l.08-.77a5.2,5.2,0,0,1,3,1.33,20.33,20.33,0,0,1,2.82-4.38,11.93,11.93,0,0,1-6.3-4.45l.62-.48a11.16,11.16,0,0,0,4.32,3.59c-1.24-4.12-4.1-6.92-7.34-6.92"/><path class="cls-11" d="M1035.74,498.24q-.21.51-.39,1a.84.84,0,0,0,.17.76,3,3,0,0,0,1,.83,11.9,11.9,0,0,0,3.67,1.19,12.08,12.08,0,0,0,3.81.09,2.81,2.81,0,0,0,1.12-.4.52.52,0,0,0,.29-.51c0-.31-.05-.62-.07-.93a3.35,3.35,0,0,1-1.17.34,13.35,13.35,0,0,1-7.09-1.31,4.34,4.34,0,0,1-1.24-.95l-.1-.13m-.29-2h-.59a13.15,13.15,0,0,0-2.7.32,3.71,3.71,0,0,0-2.13,1.14,1.81,1.81,0,0,0,0,2c1.43,3.29,5.12,5.69,9.08,6.5s8.13,0,10.58-2.92a1.73,1.73,0,0,0,.44-1.89,4.52,4.52,0,0,0-1.78-1.87,15,15,0,0,0-2.31-1.18c.07,1,.16,2,.22,2.88h0a1.42,1.42,0,0,1-.62,1.22,3.53,3.53,0,0,1-1.46.55,12.59,12.59,0,0,1-4.08-.1,12.15,12.15,0,0,1-4-1.28,3.93,3.93,0,0,1-1.26-1.07,1.75,1.75,0,0,1-.28-1.46h0v0c.34-.92.72-1.87,1.14-2.8h-.26m11.4-8.59a9,9,0,0,0-6.33,2.83,21.59,21.59,0,0,0-4.37,6.8,1.17,1.17,0,0,0,.31.59,3.71,3.71,0,0,0,1,.77,11.23,11.23,0,0,0,3.3,1.07,11.1,11.1,0,0,0,3.28.15,2.84,2.84,0,0,0,1-.28c.18-.12.21-.18.21-.29h0a27.14,27.14,0,0,1,0-5.77,10.77,10.77,0,0,1,.67-2.52c-1.38,1.38-2.75,2.86-3.8,4.14a24.2,24.2,0,0,1,6.17-7.38,10.42,10.42,0,0,0-1.44-.11"/><path class="cls-11" d="M1222,426.46l-.38,1a.86.86,0,0,0,.17.77,3,3,0,0,0,1,.83,13.49,13.49,0,0,0,7.47,1.28,3,3,0,0,0,1.13-.4c.23-.17.3-.29.29-.51s-.05-.62-.08-.93a3.75,3.75,0,0,1-1.17.34,13.55,13.55,0,0,1-7.08-1.31,4.4,4.4,0,0,1-1.24-1l-.11-.13m-.29-2h-.58a13.15,13.15,0,0,0-2.7.32,3.76,3.76,0,0,0-2.13,1.13,1.83,1.83,0,0,0,0,2c1.44,3.29,5.12,5.69,9.08,6.49s8.13,0,10.59-2.91a1.72,1.72,0,0,0,.43-1.89,4.39,4.39,0,0,0-1.78-1.87,14.06,14.06,0,0,0-2.3-1.18c.06,1,.15,2,.22,2.88h0a1.4,1.4,0,0,1-.63,1.22,3.42,3.42,0,0,1-1.46.54,12.57,12.57,0,0,1-4.08-.09,12.42,12.42,0,0,1-3.94-1.28,3.73,3.73,0,0,1-1.26-1.07,1.76,1.76,0,0,1-.29-1.46h0v0c.34-.93.71-1.87,1.14-2.8Zm11.4-8.59a9,9,0,0,0-6.33,2.83,21.57,21.57,0,0,0-4.36,6.8,1.17,1.17,0,0,0,.31.59,3.42,3.42,0,0,0,1,.77,11.43,11.43,0,0,0,3.3,1.07,11.09,11.09,0,0,0,3.28.15,2.48,2.48,0,0,0,1-.29c.19-.11.22-.17.21-.29h0a26.41,26.41,0,0,1,0-5.76,10.28,10.28,0,0,1,.66-2.52c-1.37,1.37-2.74,2.86-3.79,4.14a24.2,24.2,0,0,1,6.17-7.38,9.11,9.11,0,0,0-1.45-.11"/><path class="cls-11" d="M1242.73,588.82c-.3,0-.69,0-.7.67,0,1.85-1.7,3.86-1.6,3.92.29.13,2-1.28,2.47-2.37.17-.37.46-2.22-.17-2.22m-2.25,1.66c.18.08.31-1.61,2.09-2.44a2.85,2.85,0,0,1-.57-1.42c-1.31.17-2.19,3.38-1.52,3.86m10.07-4.57a3.6,3.6,0,0,1,2.24,1,7.22,7.22,0,0,0-2.36-.45,5.08,5.08,0,0,0-2.12.45,3.6,3.6,0,0,1,2.24-1m-3.69-3.28c-.71,0-1.38.11-1.38.35.76.27.67.9,1.5.92s1.52-.38,1.53-.88c0-.26-.85-.4-1.65-.39m6.88-.12c-.8,0-1.66.13-1.65.4,0,.49.69.88,1.53.87s.74-.64,1.5-.92c0-.23-.67-.34-1.38-.35m-3.34-1.59c4.19,0,7.58,1.11,7.58,2.47,0,.88-.18,1.33-2.3,1.77-1.17.24-3.79-1.24-5.28-1.24s-3.47,1.65-4.59,1.43c-2.26-.42-3-1.05-3-2,0-1.36,3.39-2.47,7.58-2.47m0-6a8.27,8.27,0,0,0-6.36,2.94c1.09,0,3.5.12,3.83,1a12,12,0,0,0-4.33-.37,7.77,7.77,0,0,0-.54.93c1.25-.34,5.9-.14,6.17.84a15.94,15.94,0,0,0-6.46-.19,7.84,7.84,0,0,0-.54,2.88c0,4.45,3.83,10.76,8.38,10.76,2.3,0,4.35-1.62,5.8-3.8-1.25,1-3.91,2.28-5.54,1.38a7.19,7.19,0,0,0,7.82-8.34,8.15,8.15,0,0,0-8.23-8.06"/><path class="cls-11" d="M1243.06,431c-.3,0-.69,0-.7.67,0,1.85-1.7,3.86-1.59,3.91.28.14,2-1.27,2.46-2.36.17-.37.46-2.22-.17-2.22m-2.24,1.66c.17.08.31-1.61,2.08-2.44a2.89,2.89,0,0,1-.57-1.42c-1.3.17-2.19,3.38-1.51,3.86m10.06-4.57a3.6,3.6,0,0,1,2.24,1,7.14,7.14,0,0,0-2.36-.45,5.08,5.08,0,0,0-2.12.45,3.6,3.6,0,0,1,2.24-1m-3.69-3.29c-.71,0-1.37.12-1.38.36.77.27.67.9,1.5.92s1.53-.38,1.53-.88c0-.26-.85-.4-1.65-.4m6.88-.11c-.8,0-1.65.13-1.65.39,0,.5.69.89,1.53.88s.74-.65,1.5-.92c0-.23-.67-.35-1.38-.35m-3.34-1.59c4.19,0,7.58,1.11,7.58,2.47,0,.88-.18,1.33-2.3,1.77-1.17.24-3.79-1.24-5.28-1.24s-3.47,1.64-4.59,1.43c-2.26-.43-3-1-3-2,0-1.36,3.39-2.47,7.58-2.47m0-6a8.27,8.27,0,0,0-6.36,2.94c1.09,0,3.5.12,3.83,1a11.79,11.79,0,0,0-4.33-.37,7.64,7.64,0,0,0-.54.92c1.26-.33,5.9-.13,6.17.85a15.94,15.94,0,0,0-6.46-.19,7.84,7.84,0,0,0-.54,2.88c0,4.45,3.83,10.75,8.38,10.75,2.3,0,4.35-1.61,5.8-3.79-1.25.95-3.9,2.28-5.54,1.38a7.2,7.2,0,0,0,7.82-8.34,8.14,8.14,0,0,0-8.23-8.06"/><path class="cls-11" d="M1054.08,503.47c-.3,0-.68,0-.69.67,0,1.85-1.71,3.87-1.6,3.92.28.13,2-1.28,2.47-2.37.16-.37.46-2.22-.18-2.22m-2.24,1.66c.17.08.31-1.61,2.08-2.44a3.05,3.05,0,0,1-.57-1.42c-1.3.17-2.19,3.39-1.51,3.86m10.06-4.57a3.6,3.6,0,0,1,2.24,1,7.28,7.28,0,0,0-2.36-.44,5.15,5.15,0,0,0-2.11.44,3.59,3.59,0,0,1,2.23-1m-3.68-3.28c-.71,0-1.38.11-1.38.35.76.27.66.91,1.5.92s1.52-.38,1.53-.88c0-.26-.85-.4-1.65-.39m6.88-.12c-.81,0-1.66.13-1.66.4,0,.49.7.88,1.53.87s.74-.64,1.51-.92c0-.23-.68-.34-1.38-.35m-3.35-1.59c4.19,0,7.59,1.11,7.59,2.47,0,.88-.18,1.33-2.31,1.77-1.17.24-3.79-1.24-5.28-1.24s-3.47,1.65-4.59,1.43c-2.25-.42-3-1.05-3-2,0-1.36,3.4-2.47,7.58-2.47m0-6a8.31,8.31,0,0,0-6.36,2.94c1.09,0,3.51.12,3.83,1a12,12,0,0,0-4.32-.37,8.73,8.73,0,0,0-.55.93c1.26-.33,5.9-.14,6.17.84a15.94,15.94,0,0,0-6.46-.19,8.06,8.06,0,0,0-.54,2.88c0,4.45,3.84,10.76,8.38,10.76,2.31,0,4.35-1.62,5.81-3.8-1.25.95-3.91,2.28-5.54,1.38a7.2,7.2,0,0,0,7.82-8.34,8.15,8.15,0,0,0-8.24-8.06"/><path class="cls-11" d="M1122.4,502.83c-.3,0-.69,0-.69.67,0,1.85-1.71,3.87-1.6,3.92.28.13,2-1.28,2.46-2.37.17-.37.46-2.22-.17-2.22m-2.24,1.66c.17.08.31-1.61,2.08-2.44a3,3,0,0,1-.57-1.42c-1.3.17-2.19,3.39-1.51,3.86m10.06-4.57a3.6,3.6,0,0,1,2.24,1,7.28,7.28,0,0,0-2.36-.44,5.17,5.17,0,0,0-2.12.44,3.63,3.63,0,0,1,2.24-1m-3.69-3.28c-.71,0-1.37.12-1.38.35.77.27.67.91,1.51.92s1.52-.38,1.53-.88c0-.26-.85-.4-1.66-.39m6.88-.12c-.8,0-1.65.13-1.65.4,0,.5.69.89,1.53.87s.74-.64,1.5-.92c0-.23-.67-.34-1.38-.35m-3.34-1.59c4.19,0,7.58,1.11,7.58,2.47,0,.88-.18,1.34-2.3,1.77-1.17.24-3.79-1.24-5.28-1.24s-3.47,1.65-4.59,1.44c-2.26-.43-3-1.06-3-2,0-1.36,3.39-2.47,7.58-2.47m0-6a8.28,8.28,0,0,0-6.36,2.95c1.09,0,3.5.12,3.83,1a12,12,0,0,0-4.32-.37,7.32,7.32,0,0,0-.55.93c1.26-.33,5.9-.14,6.17.85a15.82,15.82,0,0,0-6.46-.2,7.92,7.92,0,0,0-.54,2.88c0,4.45,3.84,10.76,8.38,10.76,2.31,0,4.35-1.62,5.8-3.8-1.25.95-3.9,2.29-5.53,1.38a7.19,7.19,0,0,0,7.81-8.34,8.14,8.14,0,0,0-8.23-8.06"/><path class="cls-11" d="M1223.6,503.26a8.36,8.36,0,0,0-1.19.51,9.93,9.93,0,0,0,.92,3.57,9,9,0,0,1,.27-2.62Zm5.76-.07v1.57a9.39,9.39,0,0,1,.26,2.58,9.85,9.85,0,0,0,.93-3.67,8.22,8.22,0,0,0-1.19-.48m-4.1-.33c-.3.05-.59.1-.88.17v1.6h.88Zm2.48,0v1.79h.84V503c-.28-.06-.56-.1-.84-.14m-1.17-.07-.53,0v1.84h.92v-1.85h-.39m.09-5.75a15,15,0,0,1,1.56,3.84,2.23,2.23,0,0,1-1.55-1.32,2.44,2.44,0,0,1-1.57,1.32,15.33,15.33,0,0,1,1.56-3.84m3.29-2.19a6.66,6.66,0,0,1,2.68,3.47,7.47,7.47,0,0,0-4.06-.45l-.24-2.09Zm-6.47,0,1.63.93-.25,2.09a7.49,7.49,0,0,0-4.06.45,6.71,6.71,0,0,1,2.68-3.47m3-6.95c-3.24,0-6.08,2.84-7.31,7a11.15,11.15,0,0,0,4.5-3.67l.62.48a12,12,0,0,1-6.3,4.45,20.3,20.3,0,0,1,2.82,4.37,5.27,5.27,0,0,1,3.05-1.33l.08.78a4.42,4.42,0,0,0-2.35.91,15.57,15.57,0,0,1,.83,2,9.93,9.93,0,0,1,8.21,0,17.23,17.23,0,0,1,.9-2,4.49,4.49,0,0,0-2.3-.87l.09-.78a5.27,5.27,0,0,1,3,1.33,20.3,20.3,0,0,1,2.82-4.37,12,12,0,0,1-6.3-4.45l.62-.48a11.25,11.25,0,0,0,4.32,3.59c-1.24-4.12-4.1-6.92-7.34-6.92"/><path class="cls-11" d="M1252.53,496.78a3.51,3.51,0,0,0-.67.1c-.76.21-1.3.66-1.2,1s.79.48,1.55.27,1.29-.65,1.2-1-.42-.38-.88-.38m-6.59,0c-.46,0-.81.14-.87.38s.44.81,1.2,1,1.45.08,1.55-.27-.44-.81-1.2-1a3.49,3.49,0,0,0-.68-.1m3.08-8.7a14.43,14.43,0,0,0-7.23,5.45,11.45,11.45,0,0,1,0,10.71,13,13,0,0,0,6.17,2.66,27.6,27.6,0,0,1,.06-7.43,9.67,9.67,0,0,1-3.77-1.26v-2.93a10.17,10.17,0,0,0,9.93,0v2.93a13.32,13.32,0,0,1-3.7,1.2,31.93,31.93,0,0,1,.08,7.44,12.77,12.77,0,0,0,5.71-2.63c-1.4-4.64-1.4-6,0-10.69a14.62,14.62,0,0,0-7.29-5.45"/><path class="cls-11" d="M1154.87,498a2.86,2.86,0,0,0-.67.1c-.76.2-1.3.66-1.2,1s.78.49,1.54.28,1.3-.66,1.21-1-.42-.38-.88-.38m-6.59,0c-.46,0-.81.13-.87.38s.44.81,1.2,1,1.45.08,1.55-.28-.45-.81-1.2-1a2.43,2.43,0,0,0-.68-.1m3.08-8.7a14.53,14.53,0,0,0-7.24,5.44,15.67,15.67,0,0,1,1.35,5.39,16,16,0,0,1-1.32,5.33,13.2,13.2,0,0,0,6.17,2.66,27.19,27.19,0,0,1,.06-7.43,9.83,9.83,0,0,1-3.77-1.26v-2.93a10.23,10.23,0,0,0,9.93,0v2.93a13.32,13.32,0,0,1-3.7,1.2,31.93,31.93,0,0,1,.08,7.44,12.61,12.61,0,0,0,5.7-2.64c-1.39-4.63-1.39-6,0-10.69A14.6,14.6,0,0,0,1151.36,489.25Z"/><path class="cls-11" d="M1087.5,497.59a2.43,2.43,0,0,0-.68.1c-.76.2-1.3.65-1.2,1s.79.48,1.55.28,1.3-.66,1.2-1-.42-.38-.87-.37m-6.6,0c-.46,0-.8.13-.87.37s.44.82,1.2,1,1.46.08,1.55-.28-.44-.81-1.2-1a2.43,2.43,0,0,0-.68-.1m3.09-8.7a14.39,14.39,0,0,0-7.24,5.44,15.84,15.84,0,0,1,1.34,5.39,15.62,15.62,0,0,1-1.32,5.32,13.12,13.12,0,0,0,6.17,2.67,27.27,27.27,0,0,1,.07-7.44,9.55,9.55,0,0,1-3.78-1.26v-2.92a10.23,10.23,0,0,0,9.93,0V499a13.35,13.35,0,0,1-3.7,1.21,30.87,30.87,0,0,1,.08,7.44,12.64,12.64,0,0,0,5.71-2.64c-1.4-4.64-1.4-6,0-10.69a14.58,14.58,0,0,0-7.28-5.44"/><path class="cls-11" d="M1109.38,497.51a2.37,2.37,0,0,0-.67.1c-.76.2-1.3.65-1.2,1s.78.48,1.54.28,1.3-.66,1.21-1S1109.84,497.5,1109.38,497.51Zm-6.59,0c-.46,0-.81.13-.87.37s.44.81,1.2,1,1.45.08,1.55-.28-.45-.81-1.21-1a2.32,2.32,0,0,0-.67-.1m3.08-8.7a14.47,14.47,0,0,0-7.24,5.44,11.41,11.41,0,0,1,0,10.71,13.12,13.12,0,0,0,6.17,2.67,27.26,27.26,0,0,1,.06-7.44,9.55,9.55,0,0,1-3.78-1.26V496a10.24,10.24,0,0,0,9.94,0v2.92a13,13,0,0,1-3.7,1.2,32,32,0,0,1,.08,7.45,12.61,12.61,0,0,0,5.7-2.64c-1.39-4.64-1.39-6,0-10.69a14.6,14.6,0,0,0-7.29-5.44"/></g><polyline class="cls-101" points="999.16 500.21 941.72 500.21 941.72 589.11 929.54 589.11"/><polygon class="cls-11" points="1002.19 499.97 997.92 497.64 998.94 499.97 997.92 502.29 1002.19 499.97"/><text class="cls-103" transform="translate(882.82 594.42)">8<tspan class="cls-104" x="17.59" y="0">6</tspan></text><text class="cls-105" transform="translate(749.46 597.06)"><tspan class="cls-106">5</tspan><tspan x="17.13" y="0">2</tspan></text><text class="cls-105" transform="translate(532.99 598.01)"><tspan class="cls-106">X 5</tspan><tspan x="42.33" y="0">2</tspan></text><text class="cls-107" transform="translate(476.89 525.57)"><tspan class="cls-108">12</tspan><tspan class="cls-30" x="17.94" y="0" xml:space="preserve"> Mile</tspan><tspan class="cls-108" x="53.66" y="0">s</tspan><tspan class="cls-21" x="62.08" y="0"> </tspan><tspan class="cls-109" x="66.08" y="0">P</tspan><tspan class="cls-21" x="75.87" y="0">e</tspan><tspan class="cls-108" x="85.01" y="0">r</tspan><tspan class="cls-21" x="90.98" y="0"> </tspan><tspan class="cls-110" x="94.98" y="0">W</tspan><tspan class="cls-21" x="109.76" y="0">ee</tspan><tspan x="128.04" y="0">k</tspan></text><text class="cls-111" transform="translate(78.26 533.04)">No<tspan class="cls-108" x="21.37" y="0">r</tspan><tspan x="27.33" y="0">m</tspan><tspan class="cls-112" x="41.17" y="0">a</tspan><tspan class="cls-30" x="50.15" y="0">ll</tspan><tspan class="cls-108" x="58.62" y="0">y</tspan><tspan class="cls-30" x="67.41" y="0"> </tspan><tspan class="cls-112" x="71.4" y="0">runn</tspan><tspan x="105.54" y="0">e</tspan><tspan class="cls-108" x="114.68" y="0">r</tspan><tspan x="120.65" y="0"> </tspan><tspan class="cls-37" x="124.65" y="0">n</tspan><tspan class="cls-113" x="134.04" y="0">eed</tspan><tspan class="cls-108" x="162.11" y="0">s</tspan><tspan class="cls-30" x="170.54" y="0"> </tspan><tspan class="cls-112" x="174.53" y="0">ru</tspan><tspan class="cls-31" x="189.89" y="0">n</tspan></text><text class="cls-103" transform="translate(870.51 434.19)">x<tspan class="cls-106" x="14.22" y="0" xml:space="preserve"> 5</tspan><tspan class="cls-114" x="38.01" y="0">2</tspan><tspan class="cls-106" x="54.58" y="0">-</tspan><tspan x="67.33" y="0">9</tspan><tspan class="cls-104" x="84.84" y="0">6</tspan></text><polyline class="cls-101" points="765.64 540.16 765.64 526.9 826.68 526.9 826.68 447.56"/><polygon class="cls-11" points="765.42 544.89 767.9 538.23 765.42 539.81 762.94 538.23 765.42 544.89"/><polyline class="cls-101" points="895.92 540.07 895.92 526.99 826.9 527.09"/><polygon class="cls-11" points="896.15 544.79 898.63 538.13 896.15 539.72 893.66 538.13 896.15 544.79"/><g class="cls-10"><path class="cls-11" d="M845.72,405.62c2.74,3.72-1.29,24.84-6.76,10.72-3.42,13.46-8.65,14.14-8.79,8-5.41,6.25,3.75,17,7.16,18.73l4-.09c-3.62-3-6.07-5.91-6.58-10.39,3.68.65,5.6,1.51,6.18-4.93,4.85,6.6,7.73-4,10.44-8.51-.06,3.12-.1,7.23,2,10,.7.92,2.6,1.19,4.26,1.13-.74,1.26-3.35,5.44-1.16,6.93s2.55-.08,2,1.21a8.45,8.45,0,0,1-4.48,4.28l4.34-.09c4.57-1.55,8.5-7.28,7.1-10.65-1.68,1.48-3.34,2.47-4.7,2.39,3.68-5.66,2.69-11.35.78-17.15-1.45,5.63-2.46,6.44-4.06,7.79,2.14-5.36-7-16.45-11.76-19.34"/></g><polyline class="cls-101" points="737.89 391.57 715.64 391.57 715.64 589.11 596.1 589.11"/><polygon class="cls-11" points="742.86 391.42 735.86 388.36 737.52 391.42 735.86 394.49 742.86 391.42"/><line class="cls-101" x1="543.25" y1="561.95" x2="543.25" y2="536.96"/><polygon class="cls-11" points="543.25 567.28 547.54 559.77 543.25 561.55 538.96 559.77 543.25 567.28"/></g></svg>