<svg xmlns="http://www.w3.org/2000/svg" xmlns:xlink="http://www.w3.org/1999/xlink" viewBox="0 0 1150.15 801.69"><defs><style>.cls-1,.cls-20{fill:none;}.cls-2{clip-path:url(#clip-path);}.cls-3{fill:#efe369;}.cls-4{clip-path:url(#clip-path-2);}.cls-5,.cls-6{fill:#4f97d1;}.cls-6{font-size:39.73px;}.cls-21,.cls-26,.cls-6{font-family:SFUIDisplay-Semibold, SF UI Display;font-weight:600;}.cls-7{letter-spacing:0.05em;}.cls-8{letter-spacing:0.05em;}.cls-9{letter-spacing:0.05em;}.cls-10{letter-spacing:0.05em;}.cls-11{letter-spacing:0.05em;}.cls-12{letter-spacing:0.05em;}.cls-13{letter-spacing:0.03em;}.cls-14{letter-spacing:0.05em;}.cls-15{fill:#fff;}.cls-16{fill:#84afdd;}.cls-17{fill:#c1d4ee;}.cls-18{fill:#378fce;}.cls-19{fill:#78a9db;}.cls-20{stroke:#efe369;stroke-miterlimit:10;stroke-width:3px;}.cls-21,.cls-26,.cls-35{font-size:18.34px;}.cls-21,.cls-26,.cls-35,.cls-38,.cls-46,.cls-49,.cls-50,.cls-51,.cls-53,.cls-56,.cls-58,.cls-62,.cls-63,.cls-65{fill:#231f20;}.cls-22{letter-spacing:0.05em;}.cls-23,.cls-26{letter-spacing:0.05em;}.cls-24{letter-spacing:0.05em;}.cls-25{letter-spacing:0.03em;}.cls-27,.cls-63{letter-spacing:0.05em;}.cls-28{letter-spacing:0em;}.cls-29{letter-spacing:0.04em;}.cls-30{letter-spacing:0.05em;}.cls-31{letter-spacing:-0.05em;}.cls-32{letter-spacing:-0.06em;}.cls-33{letter-spacing:-0.01em;}.cls-34{letter-spacing:0.02em;}.cls-35,.cls-38,.cls-46,.cls-49,.cls-56{font-family:SFUIDisplay-Medium, SF UI Display;font-weight:500;}.cls-36{letter-spacing:0.05em;}.cls-37{letter-spacing:0.05em;}.cls-38,.cls-46,.cls-49,.cls-50,.cls-51,.cls-53,.cls-56{font-size:12.22px;}.cls-38,.cls-47,.cls-50{letter-spacing:0.05em;}.cls-39,.cls-51,.cls-53,.cls-56{letter-spacing:0.05em;}.cls-40{letter-spacing:0.05em;}.cls-41{letter-spacing:0.05em;}.cls-42{letter-spacing:0.04em;}.cls-43{letter-spacing:0.04em;}.cls-44{letter-spacing:0.03em;}.cls-45{letter-spacing:0em;}.cls-48{letter-spacing:0.05em;}.cls-49{letter-spacing:0.05em;}.cls-50,.cls-51,.cls-62,.cls-63{font-family:SFUIDisplay-Regular, SF UI Display;}.cls-52{letter-spacing:0.04em;}.cls-53,.cls-58,.cls-65{font-family:Helvetica;}.cls-54{letter-spacing:0em;}.cls-55{letter-spacing:-0.02em;}.cls-57{letter-spacing:0.03em;}.cls-58,.cls-62,.cls-63{font-size:9.17px;}.cls-59{letter-spacing:0.05em;}.cls-60{clip-path:url(#clip-path-7);}.cls-61{clip-path:url(#clip-path-8);}.cls-64{letter-spacing:0em;}.cls-65{font-size:10.7px;}.cls-66{letter-spacing:0.05em;}.cls-67{letter-spacing:0.05em;}</style><clipPath id="clip-path"><rect class="cls-1" width="1137.82" height="800.34"/></clipPath><clipPath id="clip-path-2"><path class="cls-1" d="M45.15,110.37c.17.82.35,1.64.52,2.46l-.45,0-.3,5.72a1.75,1.75,0,0,1-1.3-.94c-.3-.54-.36-1.34-.79-1.65-2.16-1.55-4.37-3.06-6.65-4.41-.53-.31-1.89-.21-2.09.13a7.91,7.91,0,0,0-1,3.32c-.21,4.71-.29,9.43-.43,14.14,0,.12-.23.21-.29.34-1.17,2.43-2.37,4.86-3.51,7.31q-2.23,4.8-4.4,9.62c-.52,1.16-.68,2.66-1.52,3.46-2.8,2.68-3.3,6-3.58,9.61-.36,4.44-.31,9.1-4.24,12.47-.59.51-.37,2.1-.33,3.18.09,1.9.69,3.84.42,5.67-.49,3.3-1.27,6.51.81,9.56a2.79,2.79,0,0,1,.56,1.73c-.34,2.42.31,4.1,3.41,4.42-1,.6-1.8.8-2.08,1.3-.94,1.69-.2,5.17,1,6.69.43.54.64,1.92.29,2.27-1.39,1.43-1.26,2.85-.52,4.43a47.25,47.25,0,0,1,2.28,5c.81,2.5,2.27,4.92,1.12,7.76-.5,1.24-.06,2.23,1.1,3.18,2.7,2.18,6.53,3,8.15,6.52.14.3.77.38,1.15.6s1,.41,1.26.79c1.43,2.1,2.88,4.21,4.13,6.42a7.69,7.69,0,0,1,1.28,3.77c-.14,3.63-.28,3.63,3.34,4.44a12.69,12.69,0,0,1,1.37.25c3.76,1.29,7.93.61,11.48,3.41,4,3.16,8.78,5.36,13.07,8.21,2.54,1.69,4.73,3.91,7.21,5.71a9.53,9.53,0,0,0,3.72,1.58c3.86.73,7.77,1.16,11.62,1.89s3.83.81,5.48-2.91c3,.4,6.18.76,9.28,1.26a3.15,3.15,0,0,1,1.69,1.13c2,2.34,4,4.68,5.77,7.14,1.2,1.63,2.81,3.39,3,5.23.5,4.31,2.6,7.43,5.59,10.28,3.62,3.43,5.13,3.28,7.25-1.11.86-1.8,2-2.53,4-2.08,1.56.35,3.19.36,4.79.57a2,2,0,0,1,1.19.45c1.93,2.63,4.28,4.92,5.29,8.26a24.65,24.65,0,0,0,4,8.29,16,16,0,0,1,3.13,6.75c.73,3.13,2.08,5.79,5.49,6.83,1.67.51,3.31,1.11,4.93,1.76,1.4.57,2.73,1.35,4.15,1.87a2.09,2.09,0,0,0,1.66-.35c.23-.17.17-1,0-1.42a10.11,10.11,0,0,1-.93-7.56c.5-1.87.87-3.78,1.3-5.66.55-.46,1.75-1.05,1.69-1.48-.23-1.64,1.16-1.88,1.88-2.7s2.65-.74,2.29-2.59c.81.05,1.64,0,2.45.16.41.08.83.69,1.15.62,3.78-.78,5.83-3.1,6.36-7a7.73,7.73,0,0,1,.34-1.31c1.15.12,2.13.51,2.88.25a19.48,19.48,0,0,1,12.66-.31c1.7.54,3.58,1.07,4.45-1.59,1.73,1.14,3.44,1.85,4.56,3.09,2.37,2.62,7.41,3,9.85.29a21.41,21.41,0,0,1,2.44,1.61c1,.9,2.26,1.61,3.17.33s-.45-1.93-1.5-2.42c-1.38-.65-2-1.47-.67-2.8a3.26,3.26,0,0,0,.81-1.37,2.22,2.22,0,0,0-.1-1.68c-.23-.27-.83-.27-1.36-.26h-.27a5.43,5.43,0,0,0-1.24.24c-.05-.29-.11-.58-.16-.87,2.39-.3,4.77-.65,7.17-.89,1.71-.17,3.64.32,4.5-1.89.27,2.74.61,2.94,3.16,1.84.9-.39,1.8-1.17,2.69-1.16.57,0,1.16,0,1.74-.05,2.35-.1,4.71-.21,6.72,1.77.93.91,2.58,1.1,3.5,2a2.8,2.8,0,0,0,3.89.54c1.06-.62,2.22-1.08,3.26-1.72,2.35-1.47,4-1.12,5.76,1.07a13.78,13.78,0,0,0,3.58,3.71c2,1.14,2.12,2.79,2.58,4.68.57,2.38-1.3,5.53,2,7.13.11.06-.05.59,0,.89.44,2.48.73,5,3.55,6.19.38.16.51.88.81,1.3,1.54,2.13,3.1,4.26,4.67,6.36a40.82,40.82,0,0,0,2.71,3.43l.16.17h6.46c.51-.63.67-1.7.69-3.74,0-1.08.17-2.17.1-3.24-.17-2.6,0-5.33-.76-7.77-1.3-4.18-4.08-7.8-5-12.18a2.49,2.49,0,0,0-.64-1.21c-3.43-3.28-4.88-7.61-6.15-12a14.48,14.48,0,0,1-.42-6.07,52.41,52.41,0,0,1,2.15-7.54,7.58,7.58,0,0,1,.82-1.57c.53-.85,1.1-1.68,1.94-3,2.49-.21,2.54-.16,6-4a26,26,0,0,0,2.16-3.75c1.39-2.25,2.39-4.81,5.42-5.6a4.46,4.46,0,0,0,2.45-2.16c1.23-2.5,2.81-4.32,5.72-4.82a2.69,2.69,0,0,0,2.44-3.13c-.21-1.25-1.11-2.38-2-4.15,2.85,2.29,4.09.29,4.93-1.32,2-3.8-2.17-2.91-4.13-4.23l2.86-1.1c-1.15-2.34.31-6-3.81-6.16.51-4.17-2.4-7.29-2.6-11.07-.15-2.84-3.28-5.85.71-8.54a6.66,6.66,0,0,0-.33,2.12c.42,2.3.34,5.09,1.66,6.72a6.4,6.4,0,0,1,1.59,6c-.23,1.11.53,2.41.84,3.63l1.2-.2c1.53-6.28,4.48-12.63-1.87-18.55a10,10,0,0,1,3.7,1.28c1.41,1.08,2.05.6,2.53-.78a51.66,51.66,0,0,0,2.12-6.56c.22-1.09-.46-2.37-.68-3.57-.18-.95-.73-2.27-.32-2.82,2.22-2.91,4.58-5.66,8.67-6.17,2.61-.32,4.95-1.48,6-4.14.6.09,1.33.4,1.6.18a4,4,0,0,1,3.16-1,2.41,2.41,0,0,0,2.22-3.74c-1.57,1.44-2.57.57-4-.58-2.58-2.07-1.63-5-2.49-7.48-.08-.23.16-.57.27-.86.62-1.61,1.2-3.24,1.89-4.83a2.91,2.91,0,0,1,1.1-1c.52-.34,1.22-.46,1.63-.88,1.61-1.67,3.14-3.41,4.86-5.3.46,0,1.69.38,2.39-.07A55.21,55.21,0,0,0,345,153.7a2.43,2.43,0,0,0,.61-1.63c-1.31-.92-1.2-3.65-3.75-3-.25.06-.75-.29-.9-.58a49.8,49.8,0,0,1-2.53-5.13c-.7-1.78-.88-3.79-1.74-5.46a11.34,11.34,0,0,0-3.38-3.78c-.47-.33-1.84.77-2.85,1a12.3,12.3,0,0,1-2.32-.14c-.9,0-2.43-.18-2.6.2-.9,2-2,4.19-2,6.29.09,3.93.64,7.82-1,11.57-2.19.49-4.52.77-4.5,3.4-5.95,1.33-11.66,2.57-17.34,3.9a3.65,3.65,0,0,0-2,1.18c-1.73,2.29-3.35,4.68-5,7.05a1.41,1.41,0,0,0,0,.89c.27,1.33.56,2.65.77,3.65-2.35,3.19-5.49,3.4-8.81,3.37a17.42,17.42,0,0,0-5,.91c-1.45.42-2.47,1.18-1.42,3.06a2.8,2.8,0,0,1-.28,2.64,52.74,52.74,0,0,1-7.35,6.44,88.17,88.17,0,0,1-9.31,5c-2.12,1.09-4.12.72-6.2-1.22,1.2-2.84,2.35-5.81,3.71-8.68,1.27-2.64-.94-4.65-1.12-7-.09-1.12-1.71-3-2.59-3-1.13,0-2.22,1.63-3.34,2.53a9.58,9.58,0,0,1-1.26.69,6.48,6.48,0,0,1,.13-1.19,3.25,3.25,0,0,1,.59-1.24c3.44-3.09.5-6.67.73-10,0-.43-.86-1.14-1.45-1.36a41.88,41.88,0,0,0-6.13-1.93c-2.86-.58-3.06-.26-2.58,2.2l-2,3.42a2.45,2.45,0,0,0-2.29.29c-2.35,2.39-2.16,5.65-2.64,8.65a5.6,5.6,0,0,0,.29,3.36c2.12,3.86.7,7.63-.12,11.37-.26,1.18-1.36,2.2-2.16,3.22s-1.58,1-2.26-.06a15.8,15.8,0,0,1-2.43-12.38c1.09-4.48.44-9.49,3.45-13.49a1.26,1.26,0,0,0-.24-1.2,1.61,1.61,0,0,0-1.41.12,22.6,22.6,0,0,0-2.08,2.28l-.45-.31L233,163c1.2.34,2.05.89,2.5.66,1.66-.86,3.13-2.08,4.78-2.95a3.29,3.29,0,0,1,2.61-.33c2.63,1.49,4.55-.32,7.17-.86-1.94-2-2.32-5-5.65-4.53-.34,0-.72-.59-1.14-.72a4.87,4.87,0,0,0-2.34-.43c-2.33.61-4.6,1.48-6.91,2.18a2.49,2.49,0,0,1-1.5-.08c-2.39-.92-4.76-1.91-7.39-3a23.6,23.6,0,0,0,2.21-2.47,5,5,0,0,0,.4-1.83c-.58-.06-1.31-.36-1.71-.12a51.86,51.86,0,0,0-4.55,3.08c-2.83,2.1-5.82,3.78-9.38,4.06C211,153,211,153,205.4,155.6a14.26,14.26,0,0,1,1.75-2.06c2.69-2,5.45-4,8.12-6a10.42,10.42,0,0,0,1.57-2,14.91,14.91,0,0,0-1.92-1.4,3.84,3.84,0,0,0-1.78-.44c-4.08.14-7.57-1.5-11.08-3.29a9.07,9.07,0,0,0-4.22-1c-4.32.11-5.85-.72-7.61-4.49a7.17,7.17,0,0,0-1.26-1.52c-.44.45-1.09.83-1.29,1.38-.52,1.44-1.3,1.56-2.8,1.45-7.37-.53-14.75-.79-22.12-1.21-2.75-.16-5.5-.43-8.24-.75s-5.74-.78-8.61-1.17c-4.25-.58-8.51-1.06-12.74-1.75-4.69-.77-9.35-1.77-14-2.6-3.08-.54-6.2-.87-9.27-1.46-2.64-.51-5.21-1.32-7.84-1.9-4-.88-8.16-1.49-12.17-2.54-6.07-1.6-12.08-3.43-18.09-5.24-7.95-2.4-15.87-4.9-23.83-7.27a2.94,2.94,0,0,0-.84-.11c-.63,0-1.31.14-2,.15"/></clipPath><clipPath id="clip-path-7"><path class="cls-1" d="M701.23,695.05c1,.36,2,.7,3,1l8.37-35.41a43.65,43.65,0,0,1-11.38-6.52Zm0-150v40.89a43.27,43.27,0,0,1,22.24-9.15V540.46A79.55,79.55,0,0,0,701.23,545"/></clipPath><clipPath id="clip-path-8"><rect class="cls-1" x="700.86" y="540.15" width="23.1" height="156.22"/></clipPath></defs><title>Display</title><g id="Layer_1" data-name="Layer 1"><g class="cls-2"><path class="cls-3" d="M205.4,155.6a14.26,14.26,0,0,1,1.75-2.06c2.68-2,5.45-4,8.12-6a10,10,0,0,0,1.57-2,15.93,15.93,0,0,0-1.92-1.4,3.6,3.6,0,0,0-1.78-.43c-4.08.13-7.57-1.51-11.08-3.3a9.07,9.07,0,0,0-4.22-1c-4.32.11-5.85-.72-7.6-4.49a7.54,7.54,0,0,0-1.27-1.52c-.45.45-1.09.83-1.29,1.38-.52,1.44-1.3,1.56-2.8,1.45-7.36-.53-14.75-.79-22.12-1.21-2.75-.15-5.5-.43-8.24-.75s-5.74-.78-8.61-1.17c-4.25-.58-8.51-1.06-12.74-1.75-4.69-.77-9.35-1.77-14-2.6-3.08-.54-6.2-.87-9.27-1.46-2.64-.51-5.21-1.32-7.84-1.89-4-.89-8.16-1.5-12.17-2.55-6.07-1.6-12.08-3.43-18.09-5.24-7.95-2.4-15.87-4.9-23.83-7.27a9.36,9.36,0,0,0-2.79,0c.17.82.35,1.64.52,2.46l-.45,0-.3,5.72a1.75,1.75,0,0,1-1.3-.94c-.3-.54-.36-1.34-.79-1.65-2.16-1.55-4.37-3.06-6.65-4.41-.53-.31-1.9-.21-2.09.14a7.82,7.82,0,0,0-1,3.31c-.21,4.71-.29,9.43-.43,14.14,0,.12-.23.21-.29.34-1.17,2.43-2.37,4.86-3.51,7.31q-2.23,4.8-4.4,9.62c-.52,1.16-.68,2.66-1.52,3.46-2.8,2.68-3.3,6-3.58,9.61-.36,4.44-.31,9.11-4.24,12.47-.59.51-.37,2.1-.33,3.18.09,1.9.69,3.84.42,5.67-.49,3.3-1.27,6.51.81,9.56a2.79,2.79,0,0,1,.56,1.73c-.34,2.42.31,4.1,3.41,4.42-1,.6-1.8.8-2.08,1.3-.94,1.69-.2,5.17,1,6.69.43.54.64,1.92.29,2.27-1.39,1.43-1.26,2.85-.52,4.43a46.37,46.37,0,0,1,2.28,5c.81,2.5,2.27,4.92,1.12,7.76-.5,1.24-.06,2.23,1.1,3.18,2.7,2.18,6.53,3,8.15,6.52.14.3.77.38,1.15.6s1,.41,1.26.79c1.43,2.1,2.88,4.21,4.13,6.42a7.69,7.69,0,0,1,1.28,3.77c-.14,3.63-.28,3.63,3.34,4.44a12.69,12.69,0,0,1,1.37.25c3.76,1.29,7.93.61,11.48,3.41,4,3.16,8.78,5.37,13.07,8.21,2.54,1.69,4.73,3.91,7.21,5.71a9.53,9.53,0,0,0,3.72,1.58c3.86.73,7.77,1.16,11.62,1.89s3.83.81,5.48-2.91c3,.4,6.18.76,9.28,1.26a3.15,3.15,0,0,1,1.69,1.13c2,2.34,4,4.68,5.77,7.14,1.2,1.63,2.81,3.39,3,5.23.49,4.31,2.6,7.43,5.59,10.28,3.62,3.43,5.13,3.28,7.25-1.11.86-1.8,2-2.53,4-2.08,1.56.35,3.19.36,4.79.57a2,2,0,0,1,1.19.45c1.93,2.63,4.28,4.92,5.29,8.26a24.65,24.65,0,0,0,4,8.29,16,16,0,0,1,3.13,6.75c.72,3.13,2.09,5.79,5.49,6.83,1.67.51,3.31,1.11,4.92,1.76,1.41.57,2.74,1.35,4.16,1.87a2.09,2.09,0,0,0,1.66-.35c.23-.17.17-1,0-1.42a10.12,10.12,0,0,1-.93-7.56c.49-1.88.87-3.78,1.3-5.66.55-.46,1.75-1.05,1.69-1.48-.23-1.64,1.16-1.88,1.88-2.7s2.65-.74,2.29-2.59c.81.05,1.64,0,2.45.16.41.08.83.69,1.15.63,3.78-.79,5.83-3.11,6.36-7a7.73,7.73,0,0,1,.34-1.31c1.15.12,2.13.51,2.88.25a19.48,19.48,0,0,1,12.66-.31c1.71.54,3.58,1.07,4.45-1.59,1.73,1.14,3.44,1.85,4.56,3.09,2.37,2.62,7.41,3,9.85.29a22.84,22.84,0,0,1,2.44,1.61c1,.9,2.26,1.61,3.17.33s-.45-1.93-1.5-2.42c-1.38-.65-2-1.47-.67-2.8a3.26,3.26,0,0,0,.81-1.37,2.22,2.22,0,0,0-.1-1.68c-.27-.32-1.06-.26-1.63-.26a5.43,5.43,0,0,0-1.24.24c-.06-.29-.11-.58-.16-.87,2.39-.3,4.77-.66,7.17-.89,1.71-.17,3.64.32,4.5-1.89.27,2.74.6,2.94,3.16,1.84.9-.39,1.8-1.17,2.69-1.16,2.89,0,6-.75,8.46,1.72.93.91,2.58,1.11,3.5,2a2.79,2.79,0,0,0,3.89.54c1.06-.62,2.22-1.08,3.26-1.72,2.35-1.47,4-1.12,5.76,1.07a13.78,13.78,0,0,0,3.58,3.71c2,1.14,2.12,2.79,2.58,4.68.57,2.38-1.3,5.53,2,7.13.11.06-.05.59,0,.89.44,2.48.73,5,3.55,6.2.38.15.51.88.81,1.29,1.54,2.13,3.1,4.26,4.67,6.36a39.12,39.12,0,0,0,2.71,3.42c.63.69,1.63,1.77,2.24,1.64,4.27-.95,5-.5,5.07-5.2,0-1.08.17-2.17.1-3.24-.17-2.6,0-5.33-.76-7.77-1.3-4.18-4.08-7.8-5-12.18a2.49,2.49,0,0,0-.64-1.21c-3.43-3.28-4.88-7.62-6.15-12a14.48,14.48,0,0,1-.42-6.07,52,52,0,0,1,2.15-7.54,7.58,7.58,0,0,1,.82-1.57c.53-.85,1.1-1.68,1.94-3,2.49-.21,2.54-.16,6-4a26,26,0,0,0,2.16-3.75c1.39-2.25,2.39-4.81,5.42-5.6a4.46,4.46,0,0,0,2.45-2.16c1.23-2.5,2.81-4.32,5.72-4.82a2.69,2.69,0,0,0,2.44-3.13c-.21-1.25-1.11-2.38-2-4.15,2.85,2.29,4.09.29,4.93-1.32,2-3.8-2.17-2.91-4.13-4.23l2.86-1.1c-1.15-2.34.3-6-3.81-6.16.51-4.17-2.4-7.29-2.6-11.07-.15-2.84-3.28-5.85.71-8.54a6.66,6.66,0,0,0-.33,2.12c.42,2.3.34,5.09,1.66,6.72a6.4,6.4,0,0,1,1.59,6c-.23,1.11.53,2.41.84,3.63l1.2-.2c1.53-6.28,4.48-12.63-1.87-18.55a10,10,0,0,1,3.7,1.28c1.41,1.08,2.05.6,2.53-.78a51.66,51.66,0,0,0,2.12-6.56c.22-1.09-.46-2.37-.68-3.57-.17-.95-.73-2.27-.32-2.82,2.22-2.91,4.58-5.66,8.67-6.17,2.61-.32,5-1.48,6-4.13.6.08,1.33.4,1.6.17a4,4,0,0,1,3.16-1,2.41,2.41,0,0,0,2.22-3.74c-1.57,1.44-2.57.56-4-.58-2.58-2.07-1.63-5-2.49-7.48-.08-.23.16-.58.27-.86.62-1.61,1.2-3.24,1.9-4.83a2.81,2.81,0,0,1,1.09-1c.52-.34,1.22-.46,1.63-.88,1.61-1.67,3.14-3.41,4.86-5.3.46,0,1.69.38,2.39-.08A52.81,52.81,0,0,0,345,153.7a2.43,2.43,0,0,0,.61-1.63c-1.31-.92-1.2-3.65-3.75-3-.25.06-.75-.29-.9-.58a49.8,49.8,0,0,1-2.53-5.13c-.7-1.78-.87-3.79-1.74-5.46a11.24,11.24,0,0,0-3.38-3.78c-.47-.33-1.84.77-2.85,1a12.3,12.3,0,0,1-2.32-.14c-.9,0-2.43-.18-2.6.2-.9,2-2,4.19-2,6.29.09,3.93.64,7.82-1,11.57-2.19.49-4.52.77-4.5,3.39-5.95,1.34-11.66,2.59-17.34,3.91a3.65,3.65,0,0,0-2,1.18c-1.73,2.29-3.35,4.68-5,7.05a1.35,1.35,0,0,0,0,.89c.27,1.33.56,2.65.77,3.65-2.35,3.19-5.48,3.4-8.81,3.37a17.78,17.78,0,0,0-5,.91c-1.45.42-2.47,1.17-1.42,3.06a2.83,2.83,0,0,1-.28,2.64,53.24,53.24,0,0,1-7.34,6.44,89.32,89.32,0,0,1-9.32,5c-2.12,1.09-4.12.72-6.2-1.22,1.2-2.84,2.35-5.81,3.71-8.68,1.27-2.64-.94-4.65-1.12-7-.09-1.12-1.71-3-2.59-3-1.13,0-2.22,1.64-3.34,2.53a9.58,9.58,0,0,1-1.26.69,6.48,6.48,0,0,1,.13-1.19,3.11,3.11,0,0,1,.59-1.24c3.44-3.09.5-6.67.73-10,0-.43-.86-1.14-1.45-1.36a41.88,41.88,0,0,0-6.13-1.93c-2.86-.58-3.06-.26-2.58,2.2l-2,3.42a2.46,2.46,0,0,0-2.29.29c-2.34,2.39-2.16,5.65-2.64,8.64a5.62,5.62,0,0,0,.29,3.37c2.12,3.86.7,7.63-.12,11.37-.26,1.18-1.36,2.2-2.16,3.22s-1.58,1-2.26-.06a15.8,15.8,0,0,1-2.43-12.38c1.09-4.48.44-9.49,3.45-13.49a1.26,1.26,0,0,0-.24-1.2,1.61,1.61,0,0,0-1.41.12,22.6,22.6,0,0,0-2.08,2.28l-.45-.31L233,163c1.2.33,2.05.88,2.5.65,1.66-.86,3.13-2.08,4.79-2.95a3.26,3.26,0,0,1,2.6-.33c2.63,1.49,4.55-.32,7.17-.86-1.94-2-2.32-5-5.65-4.53-.34,0-.72-.59-1.14-.72a4.87,4.87,0,0,0-2.34-.43c-2.33.61-4.6,1.48-6.91,2.18a2.49,2.49,0,0,1-1.5-.08c-2.39-.92-4.76-1.91-7.39-3a23.6,23.6,0,0,0,2.21-2.47,4.82,4.82,0,0,0,.39-1.83c-.57-.06-1.3-.36-1.7-.12-1.57.93-3.07,2-4.55,3.08-2.83,2.1-5.82,3.77-9.38,4.06C211,153,211,153,205.4,155.6"/></g><g class="cls-4"><rect class="cls-5" x="14.69" y="97.44" width="185.07" height="229.13"/></g><text class="cls-6" transform="translate(148.13 428.65)"><tspan class="cls-7">App pl</tspan><tspan class="cls-8" x="124.05" y="0">ay</tspan><tspan class="cls-9" x="169.68" y="0">s </tspan><tspan class="cls-10" x="201.28" y="0">a</tspan><tspan class="cls-11" x="224.35" y="0">n </tspan><tspan class="cls-10" x="258.37" y="0">i</tspan><tspan class="cls-11" x="269.35" y="0">mp</tspan><tspan class="cls-10" x="329.6" y="0">or</tspan><tspan class="cls-12" x="369.38" y="0">t</tspan><tspan class="cls-10" x="384.53" y="0">a</tspan><tspan class="cls-11" x="407.6" y="0">nt </tspan><tspan class="cls-13" x="456.89" y="0">r</tspan><tspan class="cls-14" x="471.74" y="0">o</tspan><tspan class="cls-7" x="495.88" y="0">l</tspan><tspan class="cls-10" x="506.9" y="0">e</tspan><tspan class="cls-7" x="530.32" y="0" xml:space="preserve"> in </tspan><tspan class="cls-10" x="585.19" y="0">f</tspan><tspan class="cls-7" x="600.38" y="0">itnes</tspan><tspan x="695.79" y="0">s</tspan></text><polygon class="cls-15" points="541.78 126.36 549.6 126.36 549.6 124.21 549.6 115.36 549.6 109.37 541.78 109.37 541.78 115.36 541.78 124.21 541.78 126.36"/><g class="cls-2"><path class="cls-5" d="M639.59,220.17a93.49,93.49,0,0,1-10.68,43.53l14.71,8.49a110.89,110.89,0,0,0-94-162.82v17a93.89,93.89,0,0,1,90,93.81"/><path class="cls-3" d="M545.69,314.08a93.9,93.9,0,0,1-3.91-187.72v-17A110.87,110.87,0,1,0,639.71,279L625,270.47a93.84,93.84,0,0,1-79.31,43.61"/><path class="cls-3" d="M618.17,234.26a73.84,73.84,0,1,1-76.39-87.83V133.07a87.19,87.19,0,1,0,89.55,103.51l-12-2.12Z"/><path class="cls-16" d="M619.53,220.17c0,2.14-.11,4.24-.29,6.33l1.44.26,11.77,2.07c.28-2.85.43-5.73.43-8.66a87.19,87.19,0,0,0-83.28-87.1v13.36a73.85,73.85,0,0,1,69.93,73.74"/></g><polygon class="cls-15" points="541.78 144.75 541.78 146.44 549.6 146.44 549.6 144.75 549.6 143.52 549.6 138.05 549.6 137.78 549.6 133.07 541.78 133.07 541.78 137.78 541.78 138.05 541.78 143.52 541.78 144.75"/><g class="cls-2"><path class="cls-17" d="M549.6,154.68v9a56.58,56.58,0,0,1,43,24.78l2.77-1.6.23-.13,4.74-2.74,1.06-.61.08,0a66.8,66.8,0,0,0-51.91-29.93v1.27Z"/><path class="cls-3" d="M605.43,190.1l-.09.05-1.06.61-4.74,2.74-.23.14-2.76,1.59a56.65,56.65,0,1,1-54.77-31.55V153.41a66.87,66.87,0,1,0,63.65,36.69"/></g><polygon class="cls-15" points="600.37 183.99 595.63 186.73 595.4 186.86 592.63 188.46 592.64 188.46 596.55 195.23 599.31 193.63 599.54 193.5 604.28 190.76 605.34 190.15 605.43 190.1 601.52 183.33 601.51 183.34 601.43 183.38 600.37 183.99"/><polygon class="cls-15" points="541.78 155.65 541.78 159.85 541.78 160.06 541.78 162.56 541.78 163.68 549.6 163.68 549.6 162.56 549.6 160.06 549.6 159.85 549.6 155.65 549.6 154.71 549.6 154.67 549.6 153.41 541.78 153.41 541.78 154.67 541.78 154.71 541.78 155.65"/><polyline class="cls-15" points="632.45 228.83 620.68 226.76 619.24 226.5 618.17 234.25 619.32 234.46 631.33 236.58"/><rect class="cls-15" x="630.4" y="262.84" width="7.82" height="16.99" transform="translate(81.98 684.74) rotate(-59.97)"/><rect class="cls-18" x="516.99" y="209.09" width="9.24" height="9.24"/><rect class="cls-19" x="516.99" y="223.93" width="9.24" height="9.24"/><rect class="cls-17" x="516.99" y="238.77" width="9.24" height="9.24"/><line class="cls-20" x1="745.09" y1="123.87" x2="745.09" y2="315.71"/><polygon class="cls-3" points="745.03 110.22 737.06 129.46 745.03 124.89 752.99 129.46 745.03 110.22"/><rect class="cls-5" x="802.89" y="168.18" width="44.11" height="129.14"/><rect class="cls-5" x="898.9" y="205.82" width="44.11" height="91.5"/><rect class="cls-5" x="994.36" y="251.57" width="44.11" height="45.75"/><line class="cls-20" x1="1122.09" y1="297.24" x2="721.01" y2="297.24"/><polygon class="cls-3" points="1120.92 297.32 1115.66 306.25 1137.82 297.32 1115.66 288.39 1120.92 297.32"/><text class="cls-21" transform="translate(13.75 26.32)"><tspan class="cls-22">F</tspan><tspan class="cls-23" x="10.81" y="0">i</tspan><tspan class="cls-24" x="15.88" y="0">tn</tspan><tspan class="cls-23" x="34.06" y="0">e</tspan><tspan class="cls-22" x="44.87" y="0">ss </tspan><tspan class="cls-23" x="69.46" y="0">i</tspan><tspan class="cls-22" x="74.53" y="0">s </tspan><tspan class="cls-23" x="89.12" y="0">a</tspan><tspan class="cls-24" x="99.76" y="0" xml:space="preserve"> t</tspan><tspan class="cls-25" x="111.38" y="0">r</tspan><tspan class="cls-23" x="118.23" y="0">e</tspan><tspan class="cls-22" x="129.04" y="0">nd in </tspan><tspan class="cls-23" x="177.03" y="0">U</tspan><tspan x="190.85" y="0">S</tspan></text><text class="cls-26" transform="translate(102.27 769.39)">US<tspan class="cls-24" x="26.06" y="0"> </tspan><tspan class="cls-27" x="30.63" y="0">S</tspan><tspan class="cls-24" x="42.87" y="0">m</tspan><tspan x="59.19" y="0">ar</tspan><tspan class="cls-24" x="77.06" y="0">tp</tspan><tspan class="cls-27" x="95.59" y="0">ho</tspan><tspan class="cls-22" x="118.06" y="0">n</tspan><tspan x="129.19" y="0">e</tspan><tspan class="cls-24" x="140" y="0"> </tspan><tspan class="cls-27" x="144.57" y="0">Ow</tspan><tspan class="cls-22" x="174.04" y="0">ne</tspan><tspan x="195.96" y="0">r</tspan><tspan class="cls-28" x="203.18" y="0">s</tspan></text><text class="cls-21" transform="translate(629.12 769.39)"><tspan class="cls-24">He</tspan><tspan class="cls-23" x="24.86" y="0">a</tspan><tspan class="cls-24" x="35.51" y="0">lt</tspan><tspan class="cls-23" x="47.64" y="0">h</tspan><tspan class="cls-22" x="58.97" y="0" xml:space="preserve"> App use</tspan><tspan class="cls-27" x="136.16" y="0">r</tspan><tspan class="cls-24" x="143.38" y="0">s </tspan><tspan class="cls-29" x="157.96" y="0">b</tspan><tspan class="cls-23" x="169.29" y="0">y</tspan><tspan class="cls-24" x="179.77" y="0" xml:space="preserve"> g</tspan><tspan class="cls-23" x="195.82" y="0">e</tspan><tspan class="cls-22" x="206.63" y="0">nd</tspan><tspan class="cls-23" x="229.3" y="0">e</tspan><tspan x="240.11" y="0">r</tspan></text><text class="cls-21" transform="translate(386.23 26.32)"><tspan class="cls-22">F</tspan><tspan class="cls-23" x="10.81" y="0">i</tspan><tspan class="cls-24" x="15.88" y="0">tn</tspan><tspan class="cls-23" x="34.06" y="0">e</tspan><tspan class="cls-22" x="44.87" y="0">ss </tspan><tspan class="cls-23" x="69.46" y="0">i</tspan><tspan class="cls-22" x="74.53" y="0">s </tspan><tspan class="cls-23" x="89.12" y="0">e</tspan><tspan class="cls-24" x="99.92" y="0">spe</tspan><tspan class="cls-23" x="132.21" y="0">cia</tspan><tspan class="cls-30" x="158.54" y="0">ll</tspan><tspan class="cls-23" x="168.72" y="0">y</tspan><tspan class="cls-24" x="179.2" y="0" xml:space="preserve"> p</tspan><tspan class="cls-23" x="195.25" y="0">o</tspan><tspan class="cls-24" x="206.39" y="0">pu</tspan><tspan class="cls-23" x="229.01" y="0">lar</tspan><tspan x="251.98" y="0"> </tspan></text><text class="cls-21" transform="translate(386.23 48.32)"><tspan class="cls-23">a</tspan><tspan class="cls-24" x="10.65" y="0">m</tspan><tspan class="cls-23" x="26.97" y="0">o</tspan><tspan class="cls-22" x="38.11" y="0">ng </tspan><tspan class="cls-31" x="65.29" y="0">Y</tspan><tspan class="cls-23" x="76.2" y="0">o</tspan><tspan class="cls-24" x="87.34" y="0">ung pe</tspan><tspan class="cls-23" x="147.93" y="0">o</tspan><tspan class="cls-24" x="159.07" y="0">pl</tspan><tspan x="175.64" y="0">e</tspan></text><text class="cls-21" transform="translate(744.1 26.32)"><tspan class="cls-32">T</tspan><tspan class="cls-23" x="9.72" y="0">o</tspan><tspan class="cls-24" x="20.86" y="0">p </tspan><tspan class="cls-23" x="36.91" y="0">3</tspan><tspan class="cls-24" x="49.12" y="0"> </tspan><tspan class="cls-27" x="53.69" y="0">F</tspan><tspan class="cls-24" x="64.51" y="0">itness </tspan><tspan class="cls-33" x="123.13" y="0">W</tspan><tspan class="cls-23" x="140.44" y="0">or</tspan><tspan class="cls-34" x="158.8" y="0">k</tspan><tspan class="cls-23" x="168.77" y="0">o</tspan><tspan class="cls-24" x="179.91" y="0">u</tspan><tspan x="191.04" y="0">t</tspan></text><text class="cls-35" transform="translate(50.4 179.49)"><tspan class="cls-23">5</tspan><tspan class="cls-36" x="11.91" y="0">5</tspan><tspan class="cls-37" x="23.79" y="0">.</tspan><tspan class="cls-27" x="29.59" y="0">5</tspan><tspan x="41.5" y="0">%</tspan></text><text class="cls-38" transform="translate(50.39 196.29)">of <tspan class="cls-39" x="14.87" y="0">A</tspan><tspan x="23.44" y="0">me</tspan><tspan class="cls-39" x="41.2" y="0">r</tspan><tspan class="cls-40" x="45.81" y="0">ic</tspan><tspan class="cls-41" x="55.99" y="0">ans</tspan><tspan x="76.69" y="0"> </tspan><tspan class="cls-42" x="79.77" y="0">e</tspan><tspan class="cls-43" x="86.73" y="0">x</tspan><tspan class="cls-40" x="93.18" y="0">e</tspan><tspan class="cls-44" x="100.25" y="0">r</tspan><tspan x="104.59" y="0">ci</tspan><tspan class="cls-41" x="114.78" y="0">s</tspan><tspan class="cls-40" x="121.28" y="0">ed</tspan><tspan class="cls-45" x="135.91" y="0"> </tspan></text><text class="cls-46" transform="translate(50.39 210.96)"><tspan class="cls-47">t</tspan><tspan class="cls-39" x="4.53" y="0">h</tspan><tspan class="cls-44" x="11.92" y="0">r</tspan><tspan class="cls-40" x="16.26" y="0">ee o</tspan><tspan class="cls-41" x="40.76" y="0">r</tspan><tspan class="cls-47" x="45.37" y="0" xml:space="preserve"> mo</tspan><tspan class="cls-44" x="66.43" y="0">r</tspan><tspan class="cls-40" x="70.77" y="0">e d</tspan><tspan class="cls-41" x="88.49" y="0">ays</tspan><tspan class="cls-48" x="108.71" y="0" xml:space="preserve"> i</tspan><tspan class="cls-41" x="115.06" y="0">n</tspan><tspan class="cls-47" x="122.32" y="0" xml:space="preserve"> l</tspan><tspan class="cls-41" x="128.68" y="0">as</tspan><tspan class="cls-48" x="142.12" y="0">t</tspan><tspan x="146.65" y="0"> </tspan></text><text class="cls-49" transform="translate(50.39 225.63)">w<tspan class="cls-47" x="9.65" y="0">ee</tspan><tspan class="cls-45" x="23.77" y="0">k</tspan></text><text class="cls-50" transform="translate(323.43 555.62)">46<tspan class="cls-41" x="15.93" y="0" xml:space="preserve"> Milli</tspan><tspan x="42.17" y="0">on</tspan><tspan class="cls-39" x="56.32" y="0" xml:space="preserve"> pe</tspan><tspan x="73.6" y="0">o</tspan><tspan class="cls-41" x="80.7" y="0">pl</tspan><tspan class="cls-45" x="91.11" y="0">e</tspan></text><text class="cls-51" transform="translate(323.43 573.96)">1/<tspan class="cls-47" x="10.14" y="0">3</tspan><tspan class="cls-41" x="17.98" y="0"> </tspan><tspan class="cls-48" x="21.09" y="0">of</tspan><tspan class="cls-41" x="32.45" y="0" xml:space="preserve"> U</tspan><tspan class="cls-40" x="44.67" y="0">S</tspan><tspan x="52.54" y="0"> </tspan><tspan class="cls-40" x="55.64" y="0">S</tspan><tspan class="cls-41" x="63.51" y="0">m</tspan><tspan class="cls-47" x="73.93" y="0">a</tspan><tspan x="80.67" y="0">rtph</tspan><tspan class="cls-47" x="103.82" y="0">on</tspan><tspan class="cls-45" x="117.97" y="0">e</tspan></text><text class="cls-46" transform="translate(504.8 200.27)"><tspan class="cls-39">F</tspan><tspan class="cls-40" x="7.14" y="0">it</tspan><tspan class="cls-41" x="14.93" y="0">n</tspan><tspan class="cls-47" x="22.19" y="0">e</tspan><tspan class="cls-41" x="29.25" y="0">ss</tspan><tspan class="cls-47" x="42.27" y="0"> </tspan><tspan class="cls-41" x="45.35" y="0">By</tspan><tspan class="cls-47" x="60.29" y="0"> </tspan><tspan class="cls-52" x="63.37" y="0">A</tspan><tspan class="cls-47" x="71.79" y="0">g</tspan><tspan x="79.3" y="0">e</tspan></text><text class="cls-53" transform="translate(744.09 53.24)">Running<tspan class="cls-47" x="49.73" y="0"> </tspan><tspan class="cls-41" x="53.73" y="0">i</tspan><tspan class="cls-47" x="57.05" y="0">s t</tspan><tspan x="71.79" y="0">he</tspan><tspan class="cls-47" x="86.58" y="0" xml:space="preserve"> s</tspan><tspan class="cls-41" x="97.31" y="0">e</tspan><tspan class="cls-48" x="104.71" y="0">c</tspan><tspan class="cls-41" x="111.43" y="0">ond</tspan><tspan class="cls-47" x="133.62" y="0"> </tspan><tspan class="cls-41" x="137.63" y="0">popular</tspan><tspan class="cls-47" x="182.6" y="0" xml:space="preserve"> f</tspan><tspan class="cls-41" x="190.61" y="0">i</tspan><tspan class="cls-40" x="193.93" y="0">t</tspan><tspan x="197.93" y="0">ne</tspan><tspan class="cls-47" x="212.73" y="0">s</tspan><tspan x="219.45" y="0">s</tspan><tspan class="cls-40" x="226.16" y="0"> </tspan><tspan class="cls-41" x="230.17" y="0">wor</tspan><tspan class="cls-47" x="251.66" y="0">k</tspan><tspan class="cls-41" x="258.38" y="0">ou</tspan><tspan class="cls-54" x="273.18" y="0">t</tspan></text><text class="cls-46" transform="translate(795.08 328.03)"><tspan class="cls-55">W</tspan><tspan class="cls-41" x="11.27" y="0">a</tspan><tspan class="cls-47" x="18.2" y="0">l</tspan><tspan class="cls-41" x="21.47" y="0">k</tspan><tspan class="cls-47" x="28.24" y="0">i</tspan><tspan class="cls-41" x="31.5" y="0">n</tspan><tspan x="38.75" y="0">g</tspan></text><text class="cls-46" transform="translate(894.91 328.03)"><tspan class="cls-47">R</tspan><tspan class="cls-41" x="8.11" y="0">unn</tspan><tspan class="cls-40" x="29.88" y="0">i</tspan><tspan class="cls-41" x="33.14" y="0">n</tspan><tspan x="40.39" y="0">g</tspan></text><text class="cls-56" transform="translate(991.5 328.03)">B<tspan class="cls-40" x="8.14" y="0">ic</tspan><tspan class="cls-57" x="18.33" y="0">y</tspan><tspan class="cls-47" x="24.95" y="0">cl</tspan><tspan class="cls-54" x="35.15" y="0">e</tspan></text><text class="cls-58" transform="translate(531.32 217.18)"><tspan class="cls-24">18-2</tspan><tspan x="20.15" y="0">9</tspan></text><text class="cls-58" transform="translate(531.32 232.46)"><tspan class="cls-24">30-4</tspan><tspan x="20.15" y="0">5</tspan></text><text class="cls-58" transform="translate(531.32 247.74)"><tspan class="cls-27">Ov</tspan><tspan class="cls-59" x="12.63" y="0">er</tspan><tspan class="cls-27" x="21.68" y="0"> </tspan><tspan class="cls-24" x="24.69" y="0">4</tspan><tspan x="30.23" y="0">5</tspan></text><g class="cls-2"><path class="cls-18" d="M212.25,670.54a42.93,42.93,0,0,1-7.61-85.19V548.06A79.91,79.91,0,1,0,278.89,671.7l-32.13-18.55a42.87,42.87,0,0,1-34.51,17.39"/><path class="cls-3" d="M255.12,630.91a48.84,48.84,0,0,1-2.1,14.18l36.92,21.32a90.89,90.89,0,0,0-75.68-126v42.33a48.82,48.82,0,0,1,40.86,48.16"/></g><polygon class="cls-3" points="296.28 631.72 320.52 592.79 382.69 592.79 382.69 589.73 318.82 589.73 293.68 630.11 296.28 631.72"/><g class="cls-2"><path class="cls-18" d="M684.74,620a43.53,43.53,0,0,1,38.73-43.26V540.46a79.73,79.73,0,0,0-19.23,155.61l8.37-35.41A43.56,43.56,0,0,1,684.74,620"/></g><g class="cls-60"><g class="cls-61"><image width="63" height="426" transform="translate(700.86 540.15) scale(0.37 0.37)" xlink:href="Display1.png"/></g></g><g class="cls-2"><path class="cls-3" d="M733.09,540.46v36.31a43.53,43.53,0,0,1-4.81,86.8,44.5,44.5,0,0,1-6.36-.46l-8.34,35.28a79.72,79.72,0,1,0,19.51-157.93"/><path class="cls-18" d="M795.09,619.32a4.45,4.45,0,0,0,.51,2.38c.95,1.89,1.13,3.39-1.84,3.12-1.56-.14-1.44,1.14-1.45,2.18,0,2.8.07,5.6,0,8.4-.08,2.15-1,2.89-3,1.46V625.33h-1v11.51c-1.86,1.37-2.91.78-3-1.4-.11-2.88,0-5.76,0-8.64,0-.92.08-2.11-1.27-2-3.58.37-2.47-1.75-2-3.56,1.64-3.61,2.3-7.47,3.19-11.28-2.09,2.91-2,6.6-3.83,9.59-1.57-.13-1.85-1-1.45-2.38.89-3,1.69-6,2.62-8.94,1-3.21,3.69-3.12,6.36-3.15s5.31.15,6.31,3.27c.94,3,1.76,6,2.61,8.94.53,1.86-.42,2.23-2,1.93L793,610.07l-.78.26c.93,3,1.36,6.15,2.88,9"/><path class="cls-18" d="M788.94,604.38c-2.08-.09-3.38-1.17-3.43-3.2a3.25,3.25,0,0,1,6.49-.27c.12,2.08-1,3.23-3.06,3.47"/><path class="cls-3" d="M669.41,636.39a1.87,1.87,0,0,1-2.55,1.14c-1.25-.43-1.21-1.59-1.21-2.63,0-6.88,0-13.77-.09-20.66a6.1,6.1,0,0,0-.69-3.79c0,3.26,0,5.78,0,8.3,0,1.08,0,2.29-1.51,2.22-1.23-.05-1.29-1.17-1.29-2.13,0-3.23-.07-6.47,0-9.7a3.58,3.58,0,0,1,3.78-3.77c2.6-.09,5.21-.09,7.82,0a3.79,3.79,0,0,1,4,3.93c.18,3.23.06,6.47.09,9.71,0,1.07-.37,2-1.49,2s-1.45-1-1.46-2a29.79,29.79,0,0,0-.75-8V632.9a20.82,20.82,0,0,1,0,2.5c-.3,2.68-1.71,2.78-3.65,1.5q-.13-7.47-.26-14.94c-.1-.14-.18-.38-.31-.41l-.46.22c0,3.56,0,7.11,0,10.67,0,1.32,0,2.64,0,3.95"/><path class="cls-3" d="M670,604.38c-2.1-.18-3.29-1.19-3.33-3.17a3,3,0,0,1,3.27-3.36c2.1,0,3.22,1.38,3.19,3.48s-1.42,2.84-3.13,3"/></g><text class="cls-62" transform="translate(252.89 596.02)"><tspan class="cls-27">F</tspan><tspan class="cls-24" x="5.3" y="0">it</tspan><tspan class="cls-27" x="10.83" y="0">n</tspan><tspan class="cls-24" x="16.12" y="0">es</tspan><tspan x="25.98" y="0">s</tspan></text><text class="cls-63" transform="translate(252.89 611.3)">&amp;<tspan class="cls-24" x="6.59" y="0" xml:space="preserve"> He</tspan><tspan x="20.92" y="0">a</tspan><tspan class="cls-24" x="25.98" y="0">lt</tspan><tspan class="cls-64" x="31.52" y="0">h</tspan></text><text class="cls-65" transform="translate(658.41 655.14)"><tspan class="cls-66">48</tspan><tspan class="cls-67" x="12.94" y="0">.</tspan><tspan class="cls-66" x="16.45" y="0">3</tspan><tspan x="22.92" y="0">%</tspan></text><text class="cls-65" transform="translate(765.08 655.14)"><tspan class="cls-66">51</tspan><tspan class="cls-67" x="12.94" y="0">.</tspan><tspan class="cls-66" x="16.45" y="0">7</tspan><tspan x="22.92" y="0">%</tspan></text></g></svg>