<svg xmlns="http://www.w3.org/2000/svg" xmlns:xlink="http://www.w3.org/1999/xlink" viewBox="0 0 990 300.25"><defs><style>.cls-1,.cls-12{fill:none;}.cls-2{font-size:36.09px;fill:#fff;font-family:Helvetica;letter-spacing:0.05em;}.cls-3{letter-spacing:0.05em;}.cls-4{letter-spacing:0.05em;}.cls-5{letter-spacing:0em;}.cls-6{font-size:23.8px;fill:#231f20;font-family:SFUIDisplay-Medium, SF UI Display;font-weight:500;}.cls-7{letter-spacing:0em;}.cls-8{letter-spacing:-0.07em;}.cls-9{letter-spacing:-0.01em;}.cls-10{letter-spacing:-0.01em;}.cls-11{letter-spacing:0em;}.cls-12{stroke:#231f20;stroke-miterlimit:10;}.cls-13{clip-path:url(#clip-path);}.cls-14{fill:#efe369;}.cls-15{fill:#348fce;opacity:0.5;}</style><clipPath id="clip-path"><rect class="cls-1" y="28.34" width="460.76" height="243.57"/></clipPath></defs><title>Display</title><g id="Layer_1" data-name="Layer 1"><text class="cls-2" transform="translate(437.01 83.04)">S<tspan class="cls-3" x="25.88" y="0">o</tspan><tspan x="47.72" y="0">c</tspan><tspan class="cls-4" x="67.57" y="0">ia</tspan><tspan class="cls-5" x="99.2" y="0">l</tspan></text><text class="cls-6" transform="translate(747.24 16.76)">Da<tspan class="cls-7" x="28.65" y="0">t</tspan><tspan x="36.19" y="0">a</tspan><tspan x="-40.85" y="28.56">Visualization</tspan></text><text class="cls-6" transform="translate(562.33 134.46)"><tspan class="cls-8">V</tspan><tspan x="13.72" y="0">ariety of</tspan><tspan x="24.06" y="28.56">Da</tspan><tspan class="cls-7" x="52.71" y="28.56">t</tspan><tspan x="60.25" y="28.56">a</tspan></text><text class="cls-6" transform="translate(898.48 141.26)">Social</text><text class="cls-6" transform="translate(591.21 295.38)">Plan <tspan class="cls-9" x="49.37" y="0">M</tspan><tspan x="69.11" y="0">aking</tspan></text><text class="cls-6" transform="translate(857.41 293.71)">En<tspan class="cls-10" x="26.27" y="0">t</tspan><tspan x="33.62" y="0">er</tspan><tspan class="cls-11" x="53.98" y="0">t</tspan><tspan x="61.52" y="0">aiment</tspan></text><polygon class="cls-12" points="702.06 275.11 658.43 140.82 772.66 57.83 886.89 140.82 843.25 275.11 702.06 275.11"/><polygon class="cls-12" points="719.02 252.57 685.87 150.54 772.66 87.48 859.45 150.54 826.3 252.57 719.02 252.57"/><polygon class="cls-12" points="736.04 228.62 713.41 158.97 772.66 115.93 831.9 158.97 809.27 228.62 736.04 228.62"/><polygon class="cls-12" points="749.45 210.37 735.1 166.22 772.66 138.93 810.22 166.22 795.87 210.37 749.45 210.37"/><polygon class="cls-12" points="761.05 194.47 753.87 172.39 772.66 158.74 791.45 172.39 784.27 194.47 761.05 194.47"/><g class="cls-13"><path class="cls-14" d="M92,100.31l-3.2,24.1,22-4.86q7.08-1.56,10.44-5.6a17.77,17.77,0,0,0,4-9.22q.7-5.31-1.69-8.09t-9-1.32Zm22,67.72L117,144.75q.87-6.54-1.54-8.72t-10-.5l-18.71,4.13-4.69,35.39L65,178.82l12-90.4L119.56,79a24.78,24.78,0,0,1,10.3-.36,15.35,15.35,0,0,1,7.44,3.65,14.57,14.57,0,0,1,4.14,7.15,25.46,25.46,0,0,1,.46,10,34,34,0,0,1-5,13.71,29.2,29.2,0,0,1-10.35,10q5.31.67,7.13,4.11t.77,11.33l-3.39,25.59Z"/><path class="cls-14" d="M199.1,61.47l18-4-8,60.32q-2.19,16.47-12.27,26.83t-26.66,14Q154.85,162,147,156.11t-5.71-22.27l8.14-61.41,17.83-3.93-7.9,59.64q-1.12,8.43,2.15,12.47T172,143.06q16.82-3.7,19.14-21.27Z"/></g><polygon class="cls-14" points="263.12 135.11 235.25 82.31 227.21 143.04 210.9 146.63 222.87 56.23 241.46 52.13 267.14 102.9 274.84 44.76 291.28 41.14 279.3 131.54 263.12 135.11"/><g class="cls-13"><path class="cls-14" d="M327.51,96.59q-.37-15.78.27-29.4T330,42c.23-1.81.48-3.54.74-5.19a24.88,24.88,0,0,1,1.17-4.61l17.45-3.85c0,1.51-.13,3.09-.26,4.75s-.33,3.4-.57,5.21Q347,49.61,344,63.69t-7.72,31Zm-7.62,26,2.36-17.84L339.33,101,337,118.82Z"/></g><polygon class="cls-14" points="76.95 88.42 1.41 109.65 0 110.84 84.83 93.64 88.97 85.77 76.95 88.42"/><polygon class="cls-14" points="210.02 248.47 215.03 207.51 181.89 214.82 176.88 255.78 159.1 259.7 170.25 168.44 188.04 164.52 183.84 198.88 216.98 191.57 221.17 157.21 239.09 153.26 227.94 244.52 210.02 248.47"/><polygon class="cls-14" points="233.56 243.28 244.71 152.02 307.15 138.25 305.2 154.19 260.04 164.15 257.65 183.67 299.23 174.5 297.27 190.57 255.69 199.75 252.82 223.25 300.03 212.84 298.05 229.06 233.56 243.28"/><g class="cls-13"><path class="cls-14" d="M327.48,149.14l-3,24.33,22.26-4.91c4.78-1.06,8.28-2.94,10.53-5.67a17.77,17.77,0,0,0,4-9.31q.65-5.36-1.8-8.16t-9.12-1.33Zm23,68.34,2.87-23.5q.81-6.6-1.66-8.79c-1.65-1.46-5-1.64-10.15-.51l-18.94,4.18-4.36,35.74L301,228.4l11.15-91.25,43.12-9.52a25.27,25.27,0,0,1,10.44-.36,15.74,15.74,0,0,1,7.58,3.68,14.91,14.91,0,0,1,4.28,7.21,25.66,25.66,0,0,1,.57,10.11,33.86,33.86,0,0,1-4.86,13.84,29.1,29.1,0,0,1-10.39,10.12c3.6.45,6,1.83,7.28,4.14s1.55,6.12.9,11.44l-3.16,25.84Z"/><path class="cls-14" d="M415.7,190.26a28.72,28.72,0,0,0,9.18-3.83,32.3,32.3,0,0,0,8.05-7.26A41.77,41.77,0,0,0,439,168.4a58.07,58.07,0,0,0,3.5-14.41q2-16.22-2.87-23.31t-16.12-4.6a30,30,0,0,0-18.3,12.19q-7,9.72-9,25.93t3.18,22.37q5.16,6.15,16.29,3.69m-2,16.36Q394,211,385,200.92t-6.2-33.27A88.21,88.21,0,0,1,384,146.31,65.76,65.76,0,0,1,393.81,129a56.46,56.46,0,0,1,14-12.58,55,55,0,0,1,17.81-7.2q9.72-2.15,16.92-.47a20.39,20.39,0,0,1,11.53,7q4.33,5.33,5.89,14a69.45,69.45,0,0,1,.12,20.37q-2.88,23.64-14.78,37.9t-31.59,18.6"/></g><polygon class="cls-14" points="164.31 251.88 99.39 270.77 98.21 271.91 161.46 259.18 171.57 256.58 174.66 249.6 164.31 251.88"/><polygon class="cls-15" points="843.25 275.11 886.89 140.82 772.66 87.48 685.87 150.54 719.02 252.57 843.25 275.11"/></g></svg>