<svg xmlns="http://www.w3.org/2000/svg" viewBox="0 0 344.77 158.78"><defs><style>.cls-1{fill:#348fce;}.cls-2{fill:#efe36b;}.cls-3{font-size:12.6px;}.cls-10,.cls-28,.cls-3,.cls-6,.cls-8{fill:#231f20;}.cls-17,.cls-3,.cls-8{font-family:SFUIDisplay-Semibold, SF UI Display;font-weight:600;}.cls-4{letter-spacing:-0.04em;}.cls-5{letter-spacing:-0.02em;}.cls-6,.cls-8{font-size:6.3px;}.cls-10,.cls-6{font-family:SFUIDisplay-Regular, SF UI Display;}.cls-7{letter-spacing:-0.01em;}.cls-9{letter-spacing:-0.01em;}.cls-10{font-size:5.04px;}.cls-11{letter-spacing:-0.02em;}.cls-12{letter-spacing:-0.02em;}.cls-13{letter-spacing:-0.05em;}.cls-14{letter-spacing:-0.01em;}.cls-15{letter-spacing:-0.01em;}.cls-16{letter-spacing:-0.03em;}.cls-17{font-size:5.88px;fill:#7e7f82;}.cls-18{letter-spacing:0em;}.cls-19{letter-spacing:-0.01em;}.cls-20{letter-spacing:0em;}.cls-21{letter-spacing:-0.01em;}.cls-22{letter-spacing:0em;}.cls-23{letter-spacing:-0.15em;}.cls-24{letter-spacing:-0.02em;}.cls-25{letter-spacing:-0.07em;}.cls-26{letter-spacing:-0.05em;}.cls-27{letter-spacing:-0.07em;}</style></defs><title>Display</title><g id="Layer_1" data-name="Layer 1"><rect class="cls-1" x="14.18" y="38.92" width="76.99" height="76.99" rx="4.48"/><path class="cls-2" d="M36.87,79.84l.41-3.16c.08-.59,0-1-.21-1.18s-.66-.22-1.35-.07L33.2,76l-.64,4.8-2.3.51,1.62-12.25,5.75-1.27a3.16,3.16,0,0,1,1.39,0,2,2,0,0,1,1,.49,1.92,1.92,0,0,1,.56,1,3.37,3.37,0,0,1,.06,1.36A4.57,4.57,0,0,1,40,72.4a4,4,0,0,1-1.4,1.36,1.15,1.15,0,0,1,1,.56,2.69,2.69,0,0,1,.11,1.53l-.46,3.47Zm-3-9.18-.43,3.27,3-.66a2.46,2.46,0,0,0,1.41-.76,2.53,2.53,0,0,0,.55-1.25,1.39,1.39,0,0,0-.23-1.1c-.22-.25-.62-.31-1.21-.18Z"/><path class="cls-2" d="M48.37,65.4l2.42-.54L49.71,73a6.25,6.25,0,0,1-1.65,3.64,7,7,0,0,1-3.6,1.9,3.75,3.75,0,0,1-3.13-.35c-.71-.54-1-1.54-.77-3l1.1-8.32,2.41-.53L43,74.43a2.21,2.21,0,0,0,.29,1.69,1.29,1.29,0,0,0,1.41.33,3.09,3.09,0,0,0,2.59-2.88Z"/><path class="cls-2" d="M57,75.38l-3.76-7.16-1.09,8.23-2.2.49,1.62-12.25,2.51-.56L57.55,71l1-7.88,2.22-.49L59.2,74.89Z"/><path class="cls-2" d="M64.68,73.68,65,71.26l2.3-.51L67,73.17Zm1-3.52c0-1.43,0-2.76,0-4s.16-2.37.29-3.41c0-.25.07-.48.11-.7a2.91,2.91,0,0,1,.15-.63l2.36-.52c0,.2,0,.42,0,.64s0,.46-.07.71c-.14,1-.34,2.17-.61,3.44s-.63,2.67-1.05,4.2Z"/><polygon class="cls-2" points="21.68 71.92 21.49 72.09 32.94 69.76 33.5 68.69 31.88 69.05 21.68 71.92"/><path class="cls-2" d="M49.84,90.73l.68-5.54-4.48,1-.67,5.55-2.4.53,1.5-12.37,2.4-.53L46.31,84l4.47-1,.57-4.66,2.42-.54L52.26,90.2Z"/><path class="cls-2" d="M53,90l1.51-12.36L63,75.8,62.69,78,56.6,79.31,56.27,82l5.62-1.24-.27,2.18L56,84.13l-.39,3.19L62,85.91l-.26,2.19Z"/><path class="cls-2" d="M68.81,86.54l.39-3.19A1.38,1.38,0,0,0,69,82.16c-.22-.2-.68-.22-1.37-.07L65,82.66l-.58,4.84L62.12,88l1.51-12.37,5.82-1.29a3.59,3.59,0,0,1,1.41,0,2.13,2.13,0,0,1,1,.5,2,2,0,0,1,.58,1,3.4,3.4,0,0,1,.08,1.37A4.51,4.51,0,0,1,71.88,79a3.83,3.83,0,0,1-1.4,1.37,1.21,1.21,0,0,1,1,.57,2.73,2.73,0,0,1,.12,1.55L71.16,86ZM65.7,77.28l-.4,3.29,3-.66a2.53,2.53,0,0,0,1.43-.77,2.46,2.46,0,0,0,.54-1.26A1.38,1.38,0,0,0,70,76.77q-.33-.37-1.23-.18Z"/><path class="cls-2" d="M77.34,85.06c-1.77.4-3.07.14-3.88-.77s-1.09-2.41-.84-4.51a11.88,11.88,0,0,1,.71-2.89,8.69,8.69,0,0,1,1.33-2.35,7.58,7.58,0,0,1,1.88-1.7,7.46,7.46,0,0,1,2.41-1,5.23,5.23,0,0,1,2.28-.06,2.74,2.74,0,0,1,1.56,1,4.08,4.08,0,0,1,.79,1.9,9.33,9.33,0,0,1,0,2.76,9.65,9.65,0,0,1-2,5.13A7.45,7.45,0,0,1,77.34,85.06Zm.27-2.21a4,4,0,0,0,1.24-.52,4.55,4.55,0,0,0,1.09-1,5.84,5.84,0,0,0,.82-1.46,7.71,7.71,0,0,0,.48-2,4.81,4.81,0,0,0-.39-3.15,1.91,1.91,0,0,0-2.18-.63A4.1,4.1,0,0,0,76.2,75.8,7.55,7.55,0,0,0,75,79.32a4.1,4.1,0,0,0,.43,3A2.09,2.09,0,0,0,77.61,82.85Z"/><polygon class="cls-2" points="34.91 93.76 34.75 93.91 43.29 92.19 44.65 91.83 45.07 90.89 43.67 91.2 34.91 93.76"/><text class="cls-3" transform="translate(115.2 28.38)"><tspan class="cls-4">P</tspan><tspan x="7.12" y="0">assion</tspan></text><text class="cls-3" transform="translate(115.2 89.44)">He<tspan class="cls-5" x="15.84" y="0">r</tspan><tspan x="19.93" y="0">oic</tspan></text><text class="cls-6" transform="translate(115.2 102.78)">San F<tspan class="cls-7" x="14.84" y="0">r</tspan><tspan x="16.71" y="0">ancisco UI </tspan><tspan class="cls-7" x="45.45" y="0">F</tspan><tspan x="48.71" y="0">ont Regular </tspan></text><text class="cls-8" transform="translate(115.2 109.94)">San F<tspan class="cls-9" x="15.41" y="0">r</tspan><tspan x="17.51" y="0">ancisco UI </tspan><tspan class="cls-7" x="47.63" y="0">F</tspan><tspan x="50.97" y="0">ont Semibold</tspan></text><text class="cls-10" transform="translate(115.2 119.94)">This <tspan class="cls-11" x="10.05" y="0">f</tspan><tspan x="11.43" y="0">ont loo</tspan><tspan class="cls-12" x="25.69" y="0">k</tspan><tspan x="28.04" y="0">s clear and powerful</tspan><tspan class="cls-13" x="70.04" y="0">.</tspan><tspan x="71.07" y="0" xml:space="preserve"> It is the good </tspan><tspan x="0" y="6.05">choice </tspan><tspan class="cls-14" x="15.08" y="6.05">t</tspan><tspan x="16.53" y="6.05">o con</tspan><tspan class="cls-15" x="28.09" y="6.05">v</tspan><tspan x="30.45" y="6.05">ey the message of he</tspan><tspan class="cls-11" x="75.1" y="6.05">r</tspan><tspan class="cls-16" x="76.53" y="6.05">o</tspan><tspan class="cls-13" x="79.05" y="6.05">.</tspan></text><text class="cls-3" transform="translate(230.01 89.44)">Ene<tspan class="cls-5" x="20.95" y="0">r</tspan><tspan x="25.03" y="0">getic</tspan></text><rect class="cls-1" x="230.01" y="93.96" width="10.47" height="10.47" rx="5.24"/><rect class="cls-2" x="118.34" y="37.43" width="10.47" height="10.47" rx="5.24"/><text class="cls-17" transform="translate(133.17 44.37)">F3E85E</text><text class="cls-17" transform="translate(246.93 101.24)">32<tspan class="cls-18" x="7.08" y="0">8</tspan><tspan x="10.79" y="0">CC</tspan></text><text class="cls-10" transform="translate(115.64 55.22)">Sports is al<tspan class="cls-19" x="22.85" y="0">w</tspan><tspan x="26.4" y="0">ays </tspan><tspan class="cls-11" x="34.76" y="0">r</tspan><tspan x="36.19" y="0">ela</tspan><tspan class="cls-14" x="42.33" y="0">t</tspan><tspan x="43.77" y="0">ed </tspan><tspan class="cls-14" x="50.17" y="0">t</tspan><tspan class="cls-20" x="51.62" y="0">o the passion</tspan><tspan class="cls-13" x="79.52" y="0">.</tspan><tspan x="80.55" y="0" xml:space="preserve"> I </tspan><tspan class="cls-21" x="83.75" y="0">w</tspan><tspan x="87.3" y="0">ant </tspan><tspan x="0" y="6.05">the logo design con</tspan><tspan class="cls-14" x="41.08" y="6.05">v</tspan><tspan x="43.44" y="6.05">ey the sense of passion</tspan><tspan class="cls-13" x="92.45" y="6.05">.</tspan><tspan x="93.48" y="6.05"> </tspan><tspan x="0" y="12.09">So I choose </tspan><tspan class="cls-14" x="25.41" y="12.09">y</tspan><tspan x="27.79" y="12.09">ello colo </tspan><tspan class="cls-15" x="46.07" y="12.09">t</tspan><tspan x="47.51" y="12.09">o </tspan><tspan class="cls-11" x="51.22" y="12.09">r</tspan><tspan x="52.65" y="12.09">ep</tspan><tspan class="cls-11" x="58" y="12.09">r</tspan><tspan x="59.43" y="12.09">esent passion </tspan></text><text class="cls-10" transform="translate(229.22 46.88)">Run! He<tspan class="cls-11" x="16.81" y="0">r</tspan><tspan x="18.24" y="0">o is a run t</tspan><tspan class="cls-19" x="39.33" y="0">r</tspan><tspan x="40.83" y="0">acking ap</tspan><tspan class="cls-16" x="61.11" y="0">p</tspan><tspan class="cls-13" x="63.73" y="0">.</tspan><tspan x="64.76" y="0" xml:space="preserve"> Run al</tspan><tspan class="cls-21" x="78.71" y="0">w</tspan><tspan x="82.27" y="0">asy </tspan><tspan class="cls-11" x="0" y="6.05">r</tspan><tspan x="1.43" y="6.05">ela</tspan><tspan class="cls-14" x="7.57" y="6.05">t</tspan><tspan x="9.01" y="6.05">ed </tspan><tspan class="cls-15" x="15.42" y="6.05">t</tspan><tspan x="16.86" y="6.05">o the speed</tspan><tspan class="cls-13" x="41.48" y="6.05">.</tspan><tspan x="42.51" y="6.05" xml:space="preserve"> I use i</tspan><tspan class="cls-22" x="55.35" y="6.05">t</tspan><tspan x="56.85" y="6.05">alic style </tspan><tspan class="cls-14" x="75.94" y="6.05">t</tspan><tspan class="cls-19" x="77.39" y="6.05">e</tspan><tspan x="79.92" y="6.05">x</tspan><tspan class="cls-13" x="82.28" y="6.05">,</tspan><tspan x="83.32" y="6.05" xml:space="preserve"> in </tspan><tspan x="0" y="12.09">o</tspan><tspan class="cls-11" x="2.67" y="12.09">r</tspan><tspan x="4.1" y="12.09">der </tspan><tspan class="cls-14" x="12.06" y="12.09">t</tspan><tspan x="13.5" y="12.09">o gi</tspan><tspan class="cls-15" x="21.01" y="12.09">v</tspan><tspan x="23.37" y="12.09">e the users a sense of speed</tspan><tspan class="cls-13" x="82.72" y="12.09">.</tspan><tspan x="83.75" y="12.09" xml:space="preserve"> I also </tspan><tspan x="0" y="18.14">add “</tspan><tspan class="cls-22" x="11.42" y="18.14">t</tspan><tspan x="12.91" y="18.14">ail” af</tspan><tspan class="cls-14" x="24.85" y="18.14">t</tspan><tspan x="26.29" y="18.14">er “R” and “H</tspan><tspan class="cls-23" x="54.87" y="18.14">”</tspan><tspan class="cls-13" x="56.41" y="18.14">.</tspan><tspan x="57.45" y="18.14" xml:space="preserve"> The idea is inspi</tspan><tspan class="cls-24" x="91.93" y="18.14">r</tspan><tspan x="93.36" y="18.14">ed </tspan><tspan class="cls-14" x="0" y="24.19">b</tspan><tspan x="2.72" y="24.19">y the t</tspan><tspan class="cls-19" x="15.57" y="24.19">r</tspan><tspan x="17.07" y="24.19">ack of me</tspan><tspan class="cls-14" x="37.44" y="24.19">t</tspan><tspan x="38.89" y="24.19">eor </tspan></text><text class="cls-10" transform="translate(230.41 111.86)">I use blue color <tspan class="cls-14" x="32.36" y="0">t</tspan><tspan x="33.8" y="0">o </tspan><tspan class="cls-11" x="37.51" y="0">r</tspan><tspan x="38.94" y="0">ep</tspan><tspan class="cls-11" x="44.29" y="0">r</tspan><tspan x="45.72" y="0">esent the ene</tspan><tspan class="cls-24" x="74.09" y="0">r</tspan><tspan x="75.52" y="0">g</tspan><tspan class="cls-25" x="78.29" y="0">y</tspan><tspan class="cls-13" x="80.37" y="0">.</tspan><tspan x="81.4" y="0" xml:space="preserve"> It is the </tspan><tspan x="0" y="6.05">flame color of burnning H</tspan><tspan class="cls-14" x="52.74" y="6.05">y</tspan><tspan x="55.12" y="6.05">d</tspan><tspan class="cls-11" x="57.91" y="6.05">r</tspan><tspan x="59.34" y="6.05">ogen</tspan><tspan class="cls-26" x="70.01" y="6.05">.</tspan><tspan x="71.05" y="6.05" xml:space="preserve"> I also </tspan><tspan x="0" y="12.09">insipi</tspan><tspan class="cls-11" x="10.85" y="12.09">r</tspan><tspan x="12.28" y="12.09">ed </tspan><tspan class="cls-14" x="18.69" y="12.09">b</tspan><tspan x="21.4" y="12.09">y my </tspan><tspan class="cls-16" x="32.41" y="12.09">f</tspan><tspan x="33.77" y="12.09">a</tspan><tspan class="cls-15" x="36.3" y="12.09">v</tspan><tspan x="38.66" y="12.09">ori</tspan><tspan class="cls-14" x="43.92" y="12.09">t</tspan><tspan x="45.36" y="12.09">e NBA bas</tspan><tspan class="cls-11" x="67.42" y="12.09">k</tspan><tspan x="69.75" y="12.09">etball </tspan><tspan class="cls-15" x="82.26" y="12.09">t</tspan><tspan x="83.7" y="12.09">eam </tspan><tspan x="0" y="18.14">Golden S</tspan><tspan class="cls-22" x="19.31" y="18.14">t</tspan><tspan x="20.81" y="18.14">a</tspan><tspan class="cls-14" x="23.34" y="18.14">t</tspan><tspan x="24.78" y="18.14">e </tspan><tspan class="cls-27" x="28.39" y="18.14">W</tspan><tspan x="32.71" y="18.14">arriors</tspan><tspan class="cls-13" x="45.94" y="18.14">.</tspan></text><path class="cls-28" d="M229.56,38.63l.86-4.46h.7l-.87,4.46Z"/><path class="cls-28" d="M232.64,34.61l-.15.77h.62l-.11.53h-.61L232,37.7c-.06.28,0,.41.31.41h.23l-.11.52a1.7,1.7,0,0,1-.37,0c-.66,0-.87-.24-.75-.87l.37-1.87h-.48l.11-.53h.47l.15-.77Z"/><path class="cls-28" d="M233,37.7c.11-.56.61-.9,1.43-1l.87,0,0-.24c.07-.37-.13-.57-.56-.57a.75.75,0,0,0-.74.46h-.63a1.47,1.47,0,0,1,1.5-1c.8,0,1.23.42,1.11,1.07l-.44,2.22H235l.11-.53h0a1.44,1.44,0,0,1-1.14.58C233.3,38.68,232.92,38.28,233,37.7Zm2.16-.28.05-.25-.79,0c-.43,0-.69.19-.75.47s.15.46.52.46A1,1,0,0,0,235.2,37.42Z"/><path class="cls-28" d="M237.17,34.17h.67L237,38.63h-.67Z"/><path class="cls-28" d="M238.42,34.53a.5.5,0,0,1,.47-.39.31.31,0,0,1,.31.39.49.49,0,0,1-.46.38A.31.31,0,0,1,238.42,34.53Zm-.11.85H239l-.63,3.25h-.67Z"/><path class="cls-28" d="M241.6,36.5a.57.57,0,0,0-.65-.6c-.51,0-.94.43-1.07,1.11s.13,1.11.64,1.11a.89.89,0,0,0,.88-.59H242a1.64,1.64,0,0,1-1.63,1.14c-.93,0-1.41-.63-1.21-1.66a1.91,1.91,0,0,1,1.85-1.67,1.05,1.05,0,0,1,1.19,1.16Z"/><path class="cls-28" d="M244.39,37.39c0,.44.34.73.92.73a1.06,1.06,0,0,0,1.11-.68c.06-.35-.14-.56-.69-.7l-.55-.14c-.78-.2-1.09-.58-1-1.2a1.8,1.8,0,0,1,1.88-1.3c.94,0,1.48.53,1.36,1.3h-.68c0-.45-.27-.72-.81-.72a1,1,0,0,0-1,.67c-.06.32.14.5.68.64l.47.13c.87.21,1.18.58,1.06,1.23a1.84,1.84,0,0,1-2,1.36c-1,0-1.56-.51-1.44-1.32Z"/><path class="cls-28" d="M249.08,34.61l-.15.77h.61l-.1.53h-.62l-.35,1.79c-.05.28.05.41.32.41H249l-.1.52a1.87,1.87,0,0,1-.38,0c-.65,0-.86-.24-.74-.87l.36-1.87h-.47l.1-.53h.48l.14-.77Z"/><path class="cls-28" d="M249.28,39.83l.1-.54h.2a.69.69,0,0,0,.68-.46l.1-.2-.54-3.26h.72l.31,2.65h0l1.34-2.65h.71L251,38.8c-.43.79-.8,1.05-1.47,1.05Z"/><path class="cls-28" d="M253.56,34.17h.66l-.86,4.46h-.67Z"/><path class="cls-28" d="M257,37.68a1.65,1.65,0,0,1-1.6,1c-.94,0-1.41-.63-1.21-1.65A1.9,1.9,0,0,1,256,35.34c.9,0,1.35.62,1.16,1.61l-.05.23h-2.29v0a.68.68,0,0,0,.69.92.92.92,0,0,0,.84-.46Zm-2.07-1h1.63a.64.64,0,0,0-.64-.83A1.06,1.06,0,0,0,255,36.71Z"/><path class="cls-28" d="M259.86,38.63l.75-3.86h-1.37l.12-.6h3.42l-.12.6H261.3l-.75,3.86Z"/><path class="cls-28" d="M264.62,37.68a1.64,1.64,0,0,1-1.59,1c-.95,0-1.41-.63-1.21-1.65a1.88,1.88,0,0,1,1.83-1.68c.9,0,1.34.62,1.15,1.61l0,.23h-2.3v0a.69.69,0,0,0,.7.92.93.93,0,0,0,.84-.46Zm-2.07-1h1.63c.08-.5-.17-.83-.64-.83A1.06,1.06,0,0,0,262.55,36.71Z"/><path class="cls-28" d="M266.37,37.44l-.95,1.19h-.73L266.08,37l-.74-1.63h.75l.48,1.18h0l.93-1.18h.74L266.87,37l.74,1.64h-.74l-.49-1.19Z"/><path class="cls-28" d="M269.69,34.61l-.15.77h.61l-.1.53h-.62l-.35,1.79c-.05.28.05.41.32.41h.22l-.1.52a1.87,1.87,0,0,1-.38,0c-.65,0-.86-.24-.74-.87l.36-1.87h-.47l.1-.53h.48l.14-.77Z"/><text class="cls-3" transform="translate(228.79 28.38)">Speed</text></g></svg>