<svg xmlns="http://www.w3.org/2000/svg" xmlns:xlink="http://www.w3.org/1999/xlink" viewBox="0 0 1500 1391"><defs><style>.cls-1,.cls-41,.cls-42,.cls-58,.cls-59,.cls-78,.cls-79{fill:none;}.cls-2{font-size:49.54px;fill:#4f97d1;font-family:Usual-Medium, Usual;font-weight:500;letter-spacing:0.05em;}.cls-3{font-size:23px;letter-spacing:0.06em;}.cls-3,.cls-43,.cls-50,.cls-53{font-family:Usual-Regular, Usual;}.cls-4{letter-spacing:0.05em;}.cls-5{letter-spacing:0.06em;}.cls-6{letter-spacing:0.05em;}.cls-7{letter-spacing:0.05em;}.cls-8{letter-spacing:0.04em;}.cls-9{letter-spacing:0.05em;}.cls-10{letter-spacing:0.03em;}.cls-11{letter-spacing:0.03em;}.cls-12{letter-spacing:0.05em;}.cls-13{letter-spacing:0.04em;}.cls-14{letter-spacing:0.06em;}.cls-15{letter-spacing:-0.02em;}.cls-16{letter-spacing:0.01em;}.cls-17{letter-spacing:-0.07em;}.cls-18{letter-spacing:0.05em;}.cls-19{clip-path:url(#clip-path);}.cls-20{fill:url(#linear-gradient);}.cls-21{clip-path:url(#clip-path-2);}.cls-22{clip-path:url(#clip-path-3);}.cls-23{clip-path:url(#clip-path-4);}.cls-24{clip-path:url(#clip-path-5);}.cls-25{clip-path:url(#clip-path-6);}.cls-26{clip-path:url(#clip-path-7);}.cls-27{clip-path:url(#clip-path-8);}.cls-28{clip-path:url(#clip-path-9);}.cls-29{clip-path:url(#clip-path-10);}.cls-30{clip-path:url(#clip-path-11);}.cls-31{clip-path:url(#clip-path-12);}.cls-32{clip-path:url(#clip-path-13);}.cls-33{clip-path:url(#clip-path-14);}.cls-34{clip-path:url(#clip-path-15);}.cls-35{clip-path:url(#clip-path-16);}.cls-36{clip-path:url(#clip-path-17);}.cls-37{clip-path:url(#clip-path-18);}.cls-38{clip-path:url(#clip-path-19);}.cls-39{clip-path:url(#clip-path-20);}.cls-40{fill:#e5da6c;}.cls-41,.cls-42,.cls-58,.cls-59,.cls-78,.cls-79{stroke:#e5da6c;stroke-miterlimit:10;}.cls-42{stroke-dasharray:8.56 8.56;}.cls-43,.cls-50{font-size:30.49px;}.cls-43,.cls-50,.cls-53,.cls-65,.cls-67{fill:#231f20;}.cls-44{letter-spacing:0.03em;}.cls-45,.cls-50{letter-spacing:0.03em;}.cls-46{letter-spacing:0.03em;}.cls-47{letter-spacing:0.03em;}.cls-48{letter-spacing:0.03em;}.cls-49{letter-spacing:0.03em;}.cls-51{letter-spacing:-0.02em;}.cls-52{letter-spacing:0em;}.cls-53{font-size:25.41px;}.cls-54{letter-spacing:0.03em;}.cls-55{letter-spacing:0.03em;}.cls-56{letter-spacing:0.03em;}.cls-57{letter-spacing:0.03em;}.cls-58{stroke-dasharray:7.72 7.72;}.cls-59{stroke-dasharray:7.53 7.53;}.cls-60{fill:#efe369;}.cls-61{clip-path:url(#clip-path-23);}.cls-62{fill:url(#linear-gradient-2);}.cls-63{clip-path:url(#clip-path-24);}.cls-64{fill:url(#linear-gradient-3);}.cls-65{font-size:16.28px;font-family:Helvetica;}.cls-66{fill:#a6a4a7;}.cls-68{clip-path:url(#clip-path-27);}.cls-69{fill:url(#linear-gradient-4);}.cls-70{clip-path:url(#clip-path-29);}.cls-71{clip-path:url(#clip-path-30);}.cls-72{clip-path:url(#clip-path-31);}.cls-73{clip-path:url(#clip-path-32);}.cls-74{fill:#9759a4;}.cls-75{fill:#e5da6e;}.cls-76{fill:#3254a5;}.cls-77{fill:#ee3439;}.cls-78{stroke-dasharray:7.96 7.96;}.cls-79{stroke-dasharray:7.48 7.48;}</style><clipPath id="clip-path"><path class="cls-1" d="M22.23,74C18.82,95.11,10.86,96.88,9.79,87.39a10.38,10.38,0,0,0-2,6.2v0c0,9.09,10.41,19.12,15.11,21.37h2.27l4.38-.49c-6-4.14-10.14-8.25-11.55-15.06,5.74.49,8.81,1.54,8.84-8.44,8.34,9.49,11.33-7.18,14.87-14.52.34,4.81.84,11.14,4.42,15.12,1.2,1.33,4.16,1.48,6.71,1.16-1,2-4.41,8.83-.84,10.81,1.76,1,2.75.89,3.2.77s.4-.22.08.81c-1.3,2.66-2.21,5-6.3,7.2l6.66-.73a18.76,18.76,0,0,0,8.46-8.32v-8c-2.05,2-4.09,3.26-5.9,3.32,4.88-9.2,2.57-17.82-1.16-26.47C55.61,81,54.17,82.36,51.88,84.66c2.55-8.54-13-24.34-20.73-28.13C35.87,61.87,32.58,94.9,22.23,74"/></clipPath><linearGradient id="linear-gradient" x1="4408.99" y1="332.34" x2="4413.71" y2="332.34" gradientTransform="matrix(0, -12.32, -12.32, 0, 4131.02, 54446.8)" gradientUnits="userSpaceOnUse"><stop offset="0" stop-color="#f7931e"/><stop offset="1" stop-color="#bf1e2d"/></linearGradient><clipPath id="clip-path-2"><rect class="cls-1" x="1151.21" y="191.83" width="230.55" height="269.39"/></clipPath><clipPath id="clip-path-3"><rect class="cls-1" x="1150.66" y="191.28" width="231.1" height="269.95"/></clipPath><clipPath id="clip-path-4"><rect class="cls-1" x="1381.21" y="191.84" width="76.85" height="538.5"/></clipPath><clipPath id="clip-path-5"><rect class="cls-1" x="1381.21" y="191.28" width="77.4" height="539.61"/></clipPath><clipPath id="clip-path-6"><rect class="cls-1" x="1151.21" y="460.67" width="230.55" height="269.67"/></clipPath><clipPath id="clip-path-7"><rect class="cls-1" x="1150.66" y="460.67" width="231.1" height="270.22"/></clipPath><clipPath id="clip-path-8"><rect class="cls-1" x="608.54" y="191.83" width="231.91" height="270.97"/></clipPath><clipPath id="clip-path-9"><rect class="cls-1" x="607.99" y="191.28" width="232.46" height="271.53"/></clipPath><clipPath id="clip-path-10"><rect class="cls-1" x="839.89" y="191.84" width="77.3" height="542.22"/></clipPath><clipPath id="clip-path-11"><rect class="cls-1" x="839.89" y="191.28" width="77.86" height="542.78"/></clipPath><clipPath id="clip-path-12"><rect class="cls-1" x="608.54" y="462.25" width="231.91" height="271.81"/></clipPath><clipPath id="clip-path-13"><rect class="cls-1" x="607.99" y="462.25" width="232.46" height="271.81"/></clipPath><clipPath id="clip-path-14"><rect class="cls-1" x="41" y="193.47" width="233.28" height="272.85"/></clipPath><clipPath id="clip-path-15"><rect class="cls-1" x="40.21" y="192.91" width="234.07" height="273.41"/></clipPath><clipPath id="clip-path-16"><rect class="cls-1" x="273.71" y="193.47" width="77.84" height="543.24"/></clipPath><clipPath id="clip-path-17"><rect class="cls-1" x="273.71" y="192.91" width="78.4" height="546.53"/></clipPath><clipPath id="clip-path-18"><rect class="cls-1" x="41" y="465.76" width="233.28" height="270.95"/></clipPath><clipPath id="clip-path-19"><rect class="cls-1" x="40.21" y="465.75" width="234.07" height="273.69"/></clipPath><clipPath id="clip-path-20"><rect class="cls-1" x="41" y="191.83" width="1417.06" height="1136.17"/></clipPath><clipPath id="clip-path-23"><path class="cls-1" d="M345.88,648.44c-1.84,11.39-6.12,12.34-6.7,7.23-4,5.58,4.37,13.8,7.32,15l3.33-.37c-3.22-2.23-5.46-4.44-6.22-8.11,3.09.27,4.74.84,4.76-4.53,4.49,5.1,6.1-3.88,8-7.83.18,2.6.45,6,2.38,8.15.64.71,2.23.79,3.61.62-.52,1.1-2.38,4.75-.46,5.82a2.35,2.35,0,0,0,1.73.41c.25-.06.21-.12,0,.44a7,7,0,0,1-3.39,3.87l3.58-.39c3.67-1.62,6.5-6.65,5.09-9.34-1.27,1.35-2.58,2.29-3.71,2.33,2.63-5,1.39-9.6-.62-14.25-.78,4.76-1.56,5.51-2.79,6.74,1.37-4.59-7-13.1-11.16-15.14,2.54,2.88.77,20.65-4.8,9.38"/></clipPath><linearGradient id="linear-gradient-2" x1="4341.74" y1="323.47" x2="4344.28" y2="323.47" gradientTransform="matrix(0, -12.32, -12.32, 0, 4338.53, 54171.33)" xlink:href="#linear-gradient"/><clipPath id="clip-path-24"><path class="cls-1" d="M563,658.28c-1.84,11.39-6.12,12.34-6.7,7.23-4,5.58,4.37,13.8,7.32,15l3.33-.37c-3.22-2.23-5.46-4.44-6.22-8.11,3.09.27,4.75.84,4.76-4.53,4.5,5.1,6.1-3.88,8-7.82.18,2.58.45,6,2.38,8.14.64.71,2.24.79,3.61.62-.52,1.1-2.38,4.75-.46,5.82a2.44,2.44,0,0,0,1.73.42c.25-.07.21-.13,0,.43a7.06,7.06,0,0,1-3.39,3.88l3.58-.4c3.67-1.62,6.5-6.65,5.09-9.33-1.27,1.35-2.58,2.28-3.71,2.32,2.63-5,1.39-9.6-.62-14.25-.78,4.77-1.56,5.51-2.79,6.74,1.37-4.59-7-13.1-11.16-15.14,2.54,2.88.77,20.65-4.8,9.38"/></clipPath><linearGradient id="linear-gradient-3" x1="4340.1" y1="312.9" x2="4342.64" y2="312.9" gradientTransform="matrix(0, -12.32, -12.32, 0, 4425.4, 54161.02)" xlink:href="#linear-gradient"/><clipPath id="clip-path-27"><path class="cls-1" d="M563.12,684a15.11,15.11,0,0,0-3.85,29.72H614a15.23,15.23,0,0,0,9.74-9v-11a15.17,15.17,0,0,0-14-9.59l-46.6-.13h0"/></clipPath><linearGradient id="linear-gradient-4" x1="4248.7" y1="-51.57" x2="4251.24" y2="-51.57" gradientTransform="matrix(0, 30.24, 30.24, 0, 2145.15, -127810.37)" xlink:href="#linear-gradient"/><clipPath id="clip-path-29"><rect class="cls-1" x="538.68" y="863.66" width="273.99" height="268.4"/></clipPath><clipPath id="clip-path-30"><rect class="cls-1" x="538.68" y="863.04" width="274.61" height="269.64"/></clipPath><clipPath id="clip-path-31"><rect class="cls-1" x="266.14" y="863.66" width="273.16" height="268.4"/></clipPath><clipPath id="clip-path-32"><rect class="cls-1" x="265.01" y="863.04" width="274.3" height="269.64"/></clipPath></defs><title>projectsDesign</title><g id="Layer_3" data-name="Layer 3"><text class="cls-2" transform="translate(0.31 40.1)">Charge up and Fight!</text><text class="cls-3" transform="translate(80.31 86.72)">I<tspan class="cls-4" x="7.62" y="0">s </tspan><tspan x="27.35" y="0">th</tspan><tspan class="cls-4" x="52.53" y="0">e </tspan><tspan class="cls-5" x="73.58" y="0">p</tspan><tspan class="cls-6" x="89.64" y="0">ow</tspan><tspan x="125.17" y="0">e</tspan><tspan class="cls-4" x="139.62" y="0">r </tspan><tspan class="cls-7" x="156.25" y="0">o</tspan><tspan class="cls-4" x="171.57" y="0">f </tspan><tspan x="187.9" y="0">th</tspan><tspan class="cls-4" x="213.08" y="0">e </tspan><tspan x="234.13" y="0">he</tspan><tspan class="cls-6" x="264.02" y="0">r</tspan><tspan class="cls-8" x="273.87" y="0">o</tspan><tspan class="cls-9" x="288.9" y="0">. </tspan><tspan class="cls-5" x="303.41" y="0">Ca</tspan><tspan class="cls-4" x="335.4" y="0">n </tspan><tspan x="357.43" y="0">b</tspan><tspan class="cls-4" x="373.49" y="0">e </tspan><tspan x="394.54" y="0">cha</tspan><tspan class="cls-6" x="437.75" y="0">r</tspan><tspan class="cls-5" x="447.6" y="0">ge</tspan><tspan class="cls-4" x="477.8" y="0">d </tspan><tspan class="cls-6" x="500.45" y="0">b</tspan><tspan class="cls-10" x="516.33" y="0">y</tspan><tspan class="cls-4" x="529.6" y="0"> </tspan><tspan x="536.36" y="0">running</tspan><tspan class="cls-4" x="631.02" y="0">. </tspan><tspan x="0" y="27.6">Onc</tspan><tspan class="cls-4" x="49.36" y="27.6">e</tspan><tspan class="cls-11" x="63.64" y="27.6"> </tspan><tspan class="cls-12" x="69.9" y="27.6">y</tspan><tspan class="cls-5" x="83.66" y="27.6">ou</tspan><tspan class="cls-4" x="114.54" y="27.6">r </tspan><tspan x="131.17" y="27.6">he</tspan><tspan class="cls-12" x="161.06" y="27.6">r</tspan><tspan class="cls-4" x="170.91" y="27.6">o </tspan><tspan class="cls-5" x="192.95" y="27.6">h</tspan><tspan class="cls-13" x="208.39" y="27.6">a</tspan><tspan class="cls-12" x="222.22" y="27.6">v</tspan><tspan class="cls-9" x="235.98" y="27.6">e </tspan><tspan class="cls-14" x="257.03" y="27.6">p</tspan><tspan class="cls-6" x="273.09" y="27.6">ow</tspan><tspan class="cls-5" x="308.62" y="27.6">e</tspan><tspan class="cls-15" x="323.07" y="27.6">r</tspan><tspan class="cls-4" x="331.31" y="27.6">.</tspan><tspan class="cls-16" x="339.06" y="27.6"> </tspan><tspan class="cls-17" x="345.02" y="27.6">Y</tspan><tspan class="cls-5" x="359.08" y="27.6">o</tspan><tspan class="cls-9" x="374.52" y="27.6">u </tspan><tspan class="cls-5" x="396.55" y="27.6">a</tspan><tspan class="cls-6" x="410.68" y="27.6">r</tspan><tspan class="cls-4" x="420.54" y="27.6">e </tspan><tspan class="cls-12" x="441.58" y="27.6">r</tspan><tspan x="451.43" y="27.6">ead</tspan><tspan class="cls-11" x="496.08" y="27.6">y</tspan><tspan class="cls-4" x="509.35" y="27.6"> </tspan><tspan class="cls-6" x="516.11" y="27.6">t</tspan><tspan class="cls-4" x="525.66" y="27.6">o </tspan><tspan x="547.69" y="27.6">fig</tspan><tspan class="cls-18" x="578.69" y="27.6">h</tspan><tspan class="cls-4" x="594.02" y="27.6">t </tspan><tspan x="0" y="55.2">wit</tspan><tspan class="cls-4" x="37.31" y="55.2">h </tspan><tspan x="59.34" y="55.2">th</tspan><tspan class="cls-9" x="84.52" y="55.2">e </tspan><tspan class="cls-5" x="105.56" y="55.2">mos</tspan><tspan class="cls-12" x="156.71" y="55.2">t</tspan><tspan x="166.27" y="55.2">er</tspan><tspan class="cls-9" x="190.76" y="55.2">!</tspan></text><g class="cls-19"><rect class="cls-20" x="4.82" y="53.66" width="62.3" height="64.21" transform="translate(-9.05 4.39) rotate(-6.2)"/></g><g class="cls-21"><g class="cls-22"><image width="417" height="486" transform="translate(1150.66 191.28) scale(0.55 0.56)" xlink:href="projectsDesign1.png"/></g></g><g class="cls-23"><g class="cls-24"><image width="140" height="970" transform="translate(1381.21 191.28) scale(0.55 0.56)" xlink:href="projectsDesign2.png"/></g></g><g class="cls-25"><g class="cls-26"><image width="417" height="487" transform="translate(1150.66 460.67) scale(0.55 0.55)" xlink:href="projectsDesign3.png"/></g></g><g class="cls-27"><g class="cls-28"><image width="417" height="486" transform="translate(607.99 191.28) scale(0.56 0.56)" xlink:href="projectsDesign4.png"/></g></g><g class="cls-29"><g class="cls-30"><image width="140" height="970" transform="translate(839.89 191.28) scale(0.56 0.56)" xlink:href="projectsDesign5.png"/></g></g><g class="cls-31"><g class="cls-32"><image width="417" height="487" transform="translate(607.99 462.25) scale(0.56 0.56)" xlink:href="projectsDesign6.png"/></g></g><g class="cls-33"><g class="cls-34"><image width="417" height="486" transform="translate(40.21 192.91) scale(0.56 0.56)" xlink:href="projectsDesign7.png"/></g></g><g class="cls-35"><g class="cls-36"><image width="140" height="970" transform="translate(273.71 192.91) scale(0.56 0.56)" xlink:href="projectsDesign8.png"/></g></g><g class="cls-37"><g class="cls-38"><image width="417" height="487" transform="translate(40.21 465.75) scale(0.56 0.56)" xlink:href="projectsDesign9.png"/></g></g><g class="cls-39"><path class="cls-40" d="M349.94,585.42a12.23,12.23,0,1,0-21.63,7.86L337.72,607l9.56-13.88a14.28,14.28,0,0,0,.94-1.36l.09-.14h0a12.35,12.35,0,0,0,1.64-6.16m-6.34,0a6.12,6.12,0,1,1-6.11-6.15,6.13,6.13,0,0,1,6.11,6.15"/><path class="cls-40" d="M626.53,583a25.34,25.34,0,1,0-44.82,16.29l19.51,28.34L621,598.91a25.46,25.46,0,0,0,2-2.84l.19-.29h0a25.46,25.46,0,0,0,3.4-12.75m-13.14,0a12.67,12.67,0,1,1-12.67-12.75A12.71,12.71,0,0,1,613.39,583"/></g><line class="cls-41" x1="337.71" y1="606.81" x2="342.65" y2="606.94"/><line class="cls-42" x1="352.84" y1="608.78" x2="591.53" y2="626.23"/><line class="cls-41" x1="596.64" y1="626.89" x2="601.59" y2="627.01"/><g class="cls-39"><path class="cls-40" d="M437.07,575.71c.41.25.81.52,1.24.74,1.53.8,3.1.31,4.63-1.5a2.81,2.81,0,0,0,0-3.6,3.64,3.64,0,0,0-1.45-1.17c-.84-.42-1-.86-.91-1.87a34.06,34.06,0,0,0,.12-5.89c-.06-.91.09-1.41.91-1.74s1.35-.62,2-.94c3.2-1.52,3.78-2.78,2.75-6.22a5.69,5.69,0,0,1,3.81,5.56A90.77,90.77,0,0,1,449,569.44a42.5,42.5,0,0,1-1.24,4.14,3.08,3.08,0,0,0,0,1.73c1.8,4.9,3.69,9.77,5.47,14.68a5.53,5.53,0,0,1,.24,2.46,78,78,0,0,0,0,17.61c.08.71.93,1.45,1.58,2,1.22.91,2.61,1.61,3.84,2.51.41.31.58,1,.86,1.47a5.49,5.49,0,0,1-1.49.75c-3,.47-5.81-.29-8.57-1.2-1.48-.49-1.57-1.09-.86-2.48a11.53,11.53,0,0,0,.7-9.13,21.4,21.4,0,0,1-1.08-10.16,3.5,3.5,0,0,0-.74-2.38c-3.19-4.07-6.5-8-9.68-12.11a16.39,16.39,0,0,1-1.54-3.21l.53-.36"/><path class="cls-40" d="M436.23,579.75c1.55,1.83,2.94,3.38,4.21,5a1.45,1.45,0,0,1-.06,1.4c-2,2.32-4.06,4.62-6.2,6.83-1.05,1.09-2.48,1-3.9.74-2.82-.5-5.63-1-8.47-1.34a32.59,32.59,0,0,0-5.76,0,7.16,7.16,0,0,0-4.68,2.3c-.86.89-1.76,1.75-2.69,2.57-.26.23-.86.47-1,.34a1.71,1.71,0,0,1-.47-1.12,3.2,3.2,0,0,1,.22-1.47c1.13-2.48,2.27-5,3.49-7.4.5-1,1.19-1.21,2.23-.38a8.79,8.79,0,0,0,7.95,1.59c2.93-.72,5.89-1.2,8.89-.18a1.69,1.69,0,0,0,1.48-.56c1.22-1.86,2.32-3.79,3.42-5.72.49-.84.9-1.72,1.35-2.61"/><path class="cls-40" d="M445.45,556.54a10,10,0,0,1-2,1.72q-4.1,2.07-8.32,3.86c-1.14.49-1.27,1.07-.72,2,.42.73.79,1.49,1.21,2.22,1.26,2.18,2.7,4.13,5.21,5a1.8,1.8,0,0,1,1.19,2.47c-.79,1.32-2.33,1.87-3.32,1.07a7.63,7.63,0,0,1-1.46-1.81c-.82-1.27-1.52-2.63-2.39-3.86-1.29-1.83-2.77-3.51-4-5.37-1-1.55-.78-2.42.74-3.37,3.31-2.06,6.66-4.06,10-6a4.7,4.7,0,0,1,1.65-.61c1.28-.22,2.39.85,2.21,2.66"/><path class="cls-40" d="M448.29,541.54a5,5,0,0,1,4.38,5.57,5.12,5.12,0,0,1-5.47,4.36,5.2,5.2,0,0,1-4.39-5.48,5,5,0,0,1,5.48-4.45"/><path class="cls-40" d="M450.69,569.71c-.14-1.59.35-2.36,1.73-2.4h.45c1.71,0,3-.55,3.45-2.43a7.82,7.82,0,0,1,.88-1.68l.62,1.09c.9-.66,1.58-.55,2.14.49s-.06,1.6-.78,2.2c-2.46,2.06-5.54,1.89-8.49,2.74"/></g><text class="cls-43" transform="translate(842.89 1037.28)"><tspan class="cls-44">S</tspan><tspan class="cls-45" x="20.49" y="0">everal</tspan><tspan class="cls-44" x="113.76" y="0"> </tspan><tspan class="cls-45" x="122.14" y="0">challenges</tspan><tspan class="cls-46" x="287.03" y="0" xml:space="preserve"> t</tspan><tspan class="cls-45" x="307.52" y="0">ha</tspan><tspan class="cls-44" x="345.05" y="0">t</tspan><tspan x="357.15" y="0"> </tspan></text><text class="cls-43" transform="translate(871.03 1077.92)"><tspan class="cls-45">require</tspan><tspan class="cls-47" x="110.28" y="0" xml:space="preserve"> t</tspan><tspan class="cls-48" x="130.77" y="0">he</tspan><tspan class="cls-47" x="168.73" y="0"> </tspan><tspan class="cls-48" x="177.11" y="0">u</tspan><tspan class="cls-46" x="196.75" y="0">s</tspan><tspan class="cls-49" x="213.36" y="0">ers</tspan><tspan class="cls-46" x="260.74" y="0" xml:space="preserve"> t</tspan><tspan class="cls-45" x="281.23" y="0">o</tspan><tspan x="300.87" y="0"> </tspan></text><text class="cls-50" transform="translate(957.91 1118.56)">conque<tspan class="cls-51" x="114.95" y="0">r</tspan><tspan class="cls-52" x="125.8" y="0">.</tspan></text><text class="cls-53" transform="translate(263.38 1174.32)"><tspan class="cls-54">De</tspan><tspan class="cls-55" x="35.75" y="0">f</tspan><tspan class="cls-54" x="45.84" y="0">ea</tspan><tspan class="cls-55" x="76.02" y="0">t </tspan><tspan class="cls-54" x="93.09" y="0">mons</tspan><tspan class="cls-56" x="163.88" y="0">t</tspan><tspan class="cls-54" x="173.97" y="0">er</tspan><tspan class="cls-56" x="199.63" y="0">s t</tspan><tspan class="cls-57" x="230.55" y="0">o</tspan><tspan class="cls-56" x="246.91" y="0"> </tspan><tspan class="cls-54" x="253.9" y="0">ge</tspan><tspan class="cls-56" x="285.86" y="0">t</tspan><tspan x="295.95" y="0"> </tspan></text><text class="cls-53" transform="translate(269.56 1204.81)"><tspan class="cls-54">badge</tspan><tspan class="cls-56" x="80.98" y="0"> </tspan><tspan class="cls-54" x="87.96" y="0">and</tspan><tspan class="cls-55" x="136.29" y="0"> </tspan><tspan class="cls-54" x="143.28" y="0">decora</tspan><tspan class="cls-56" x="231.64" y="0">t</tspan><tspan class="cls-57" x="241.73" y="0">ion</tspan><tspan x="281.62" y="0">!</tspan></text><line class="cls-58" x1="600.11" y1="710.38" x2="903.97" y2="710.38"/><line class="cls-59" x1="945.6" y1="691.99" x2="1055.73" y2="600.08"/><path class="cls-41" d="M1063.07,594l7.34-6.12M913.77,710.38h9.81l7.34-6.13M570.7,710.38h9.8"/><g class="cls-39"><path class="cls-60" d="M1135.68,573.81c1,0,1.93,1,1.93,2.9v7.73h-3.87v-7.73c0-1.93,1-2.9,1.94-2.9m-96.64,0c1,0,1.93,1,1.93,2.9v7.73h-3.86v-7.73c0-1.93,1-2.9,1.93-2.9m85-15.46c1,0,1.93,1,1.93,2.9V569h-3.86v-7.73c0-1.93,1-2.9,1.93-2.9m-17.4,0c1.94,0,3.87,1,3.87,2.9V569h-7.73v-7.73c0-1.93,1.93-2.9,3.86-2.9m-19.32,0c1.93,0,3.86,1,3.86,2.9V569h-7.73v-7.73c0-1.93,1.94-2.9,3.87-2.9m-19.33,0c1.93,0,3.87,1,3.87,2.9V569h-7.73v-7.73c0-1.93,1.93-2.9,3.86-2.9m-17.4,0c1,0,1.94,1,1.94,2.9V569h-3.87v-7.73c0-1.93,1-2.9,1.93-2.9M1062.47,548v5.56h-3.86v44.21h21V584.44c0-5.8,3.86-8.69,7.73-8.69s7.73,2.89,7.73,8.69v13.29h21V553.52h-3.87V548h-3.38v5.56h-4.35V548h-3.38v5.56h-4.35V548h-3.38v5.56h-4.35V548h-3.38v5.56h-4.35V548h-3.38v5.56h-4.35V548h-3.39v5.56h-4.34V548Zm73.21-8.94c1,0,1.93,1,1.93,2.9v7.73h-3.87v-7.73c0-1.93,1-2.9,1.94-2.9M1039,539c1,0,1.93,1,1.93,2.9v7.73h-3.86v-7.73c0-1.93,1-2.9,1.93-2.9m81.42,58.71h18.84V534.19h-18.84Zm-85,0h18.85V534.19h-18.85Zm51.95-81.9c1.93,0,3.87,1,3.87,2.89v7.74h-7.74v-7.73c0-1.93,1.94-2.9,3.87-2.9ZM1074.07,511v32.65h26.57V511.17l-26.57-.2Zm42.53-3.83v16.43l4.71,6.29h17.17l4.68-6.29V507.13h-3.38V511h-4.34v-3.87h-3.39V511h-4.35v-3.87h-3.38V511H1120v-3.87h-3.37Zm-85,0v16.43l4.69,6.28h17.17l4.71-6.28V507.13h-3.38V511h-4.34v-3.87H1047V511h-4.35v-3.87h-3.38V511h-4.35v-3.87Zm55.8-20-18.21,19.45,36.41.28Z"/></g><g class="cls-61"><rect class="cls-62" x="333.57" y="637.25" width="38.41" height="35.2" transform="translate(-68.66 41.93) rotate(-6.2)"/></g><g class="cls-63"><rect class="cls-64" x="550.67" y="647.09" width="38.41" height="35.2" transform="translate(-68.46 65.44) rotate(-6.2)"/></g><text class="cls-65" transform="translate(366.68 666.55)">X0</text><text class="cls-65" transform="translate(581.16 673.88)">X4</text><g class="cls-39"><path class="cls-66" d="M395,709.71l-52.56-.17a17,17,0,1,1,.11-34.08l52.56.16a17,17,0,0,1-.11,34.09"/></g><polygon class="cls-67" points="346.17 698.78 346.2 686.74 354.09 686.77 354.08 688.85 348.72 688.83 348.71 692.06 353.61 692.07 353.6 694.07 348.7 694.05 348.69 698.79 346.17 698.78"/><rect class="cls-67" x="350.8" y="691.54" width="12.04" height="2.52" transform="translate(-337.11 1047.42) rotate(-89.82)"/><g class="cls-39"><path class="cls-67" d="M365.48,699.05c-3.59,0-5.79-2.37-5.78-6.28s2.23-6.19,5.76-6.17c2.82,0,4.93,1.67,5.28,4.11h-2.53a2.7,2.7,0,0,0-2.74-2c-2,0-3.19,1.5-3.2,4.06s1.26,4.21,3.26,4.22a2.59,2.59,0,0,0,2.84-2.5l0-.19h-2.62v-1.83h5.07v1.36c0,3.28-2,5.26-5.36,5.25"/></g><polygon class="cls-67" points="380.43 698.89 380.44 693.82 375.02 693.8 375 698.87 372.49 698.87 372.52 686.83 375.04 686.83 375.03 691.72 380.45 691.74 380.47 686.85 382.99 686.86 382.95 698.9 380.43 698.89"/><polygon class="cls-67" points="387.83 698.91 387.86 688.95 384.38 688.94 384.39 686.86 393.88 686.89 393.87 688.97 390.38 688.96 390.35 698.92 387.83 698.91"/><g class="cls-68"><rect class="cls-69" x="570.91" y="660.93" width="29.94" height="75.88" transform="translate(-114.65 1282.76) rotate(-89.84)"/></g><polygon class="cls-60" points="566.34 704.69 566.37 694.01 573.36 694.03 573.35 695.88 568.6 695.86 568.59 698.72 572.93 698.74 572.93 700.5 568.58 700.5 568.57 704.7 566.34 704.69"/><rect class="cls-60" x="570.44" y="698.26" width="10.68" height="2.23" transform="translate(-125.57 1272.76) rotate(-89.8)"/><g class="cls-39"><path class="cls-60" d="M583.46,704.92c-3.18,0-5.13-2.1-5.12-5.57s2-5.48,5.1-5.47a4.41,4.41,0,0,1,4.68,3.64h-2.24a2.4,2.4,0,0,0-2.43-1.79c-1.76,0-2.83,1.33-2.83,3.6s1.11,3.73,2.89,3.74a2.31,2.31,0,0,0,2.52-2.22v-.16h-2.33v-1.63h4.5v1.21c0,2.91-1.77,4.66-4.75,4.65"/></g><polygon class="cls-60" points="596.72 704.78 596.73 700.28 591.92 700.26 591.91 704.76 589.67 704.76 589.7 694.08 591.94 694.09 591.92 698.42 596.73 698.43 596.75 694.1 598.98 694.11 598.95 704.78 596.72 704.78"/><polygon class="cls-60" points="603.28 704.79 603.3 695.96 600.22 695.95 600.22 694.11 608.64 694.13 608.63 695.98 605.54 695.97 605.51 704.8 603.28 704.79"/><g class="cls-70"><g class="cls-71"><image width="443" height="451" transform="translate(813.29 863.04) rotate(90) scale(0.61 0.61)" xlink:href="projectsDesign10.png"/></g></g><g class="cls-72"><g class="cls-73"><image width="443" height="450" transform="translate(539.3 863.04) rotate(90) scale(0.61 0.61)" xlink:href="projectsDesign11.png"/></g></g><g class="cls-39"><path d="M759.86,1115.44c0,3.31.16,6.6.3,9.84.36,2.52,1.57,4.22,4.07,5.82s6.41,2.86,11.17,3.48c9.52,1.23,22.38.06,34.73-2.76s24.28-7.34,32-12.27c3.89-2.47,6.67-5.07,8-7.23s1.49-3.48.63-5.28q-1.85-3.68-3.81-7.5a31.33,31.33,0,0,1-8.56,6.87c-7.8,4.58-18.63,8.39-30.07,10.89S785,1121,774.8,1119.85a39.51,39.51,0,0,1-13.63-3.69c-.44-.23-.88-.46-1.3-.72Zm-9.43-16-2.2.91-2.64,1.14a118,118,0,0,0-21.47,11.92c-7.73,5.62-12.52,11.51-13.87,16.83s0,10.5,6.49,16.74c23.29,22.5,62.29,29.87,98.1,22.93s67.87-27.92,78.29-60.75c2.52-7.94,1.17-13-2.87-17.25s-11.48-7.58-21.29-9.46a127.54,127.54,0,0,0-23.3-1.92c3.94,8,8,15.83,11.78,23.28l0,.08a12.9,12.9,0,0,1-1,12.34c-2.28,3.65-5.88,6.72-10.33,9.55-8.9,5.65-21.37,10.26-34.36,13.23s-26.41,4.29-37.31,2.88c-5.45-.7-10.31-2.08-14.21-4.58a15.73,15.73,0,0,1-7.41-11.17l0-.15v-.16c-.4-8.88-.48-18-.12-27.28l-2.25.89ZM816,988.55c-20.92,8.82-34.35,25.17-43,45.42-9.13,21.28-12.67,46.85-13.08,71.72a11.29,11.29,0,0,0,4.64,3.91,33.17,33.17,0,0,0,11.09,2.93c8.95,1,20.36-.06,31.21-2.43s21.16-6.08,27.91-10a24,24,0,0,0,7-5.68c1.16-1.6,1.19-2.18.75-3.14l.26-.12c-7.68-15.1-15.53-31.46-19.79-48.11a92.85,92.85,0,0,1-3.12-23.29c-6.78,16.2-13.1,33.31-17.42,47.58,2.36-30.91,13.18-57.21,26-82.81A84.18,84.18,0,0,0,816,988.55"/><path class="cls-74" d="M745.06,1164.65c-4.95,21.52,13.87,65.62,13.87,65.62,10.61-23.34,34,18,34,18,1.05-9.71,7.15-25.5,7.15-25.5,17.22,12.51,37.54,13,37.54,13-8.18-12.44-5.07-26.37-5.07-26.37,22,18.12,42,14.32,42,14.32-4.33-9-5.1-29.37-5.1-29.37,13.45,19.8,43.67,10.68,43.67,10.68-5.54-54-28.25-78.26-28.25-78.26-10.32,16.46-29.8,28.09-29.8,28.09-43.75,22.8-77.4,17.09-77.4,17.09-29.91-4.57-32.57-7.31-32.57-7.31"/><path d="M745.06,1164.65l-3.72-.85a41.48,41.48,0,0,0-.92,9.16,94.62,94.62,0,0,0,2.38,19.4c4.24,19.81,12.58,39.29,12.62,39.41l3.4,8,3.58-7.88a10.87,10.87,0,0,1,2.83-4.1,3.33,3.33,0,0,1,2.17-.81,6.78,6.78,0,0,1,2.73.72,25.33,25.33,0,0,1,6.56,5,82,82,0,0,1,9.09,11.39c1.19,1.76,2.15,3.3,2.82,4.4.33.54.59,1,.76,1.27l.19.33.06.1,5.82,10.3,1.29-11.77a89.17,89.17,0,0,1,3.81-15.64c.81-2.53,1.59-4.77,2.16-6.36l.69-1.88.25-.66-3.55-1.37-2.24,3.08a73.88,73.88,0,0,0,26.6,11.81,71.18,71.18,0,0,0,13.09,1.9l7.27.17-4-6.07a32.34,32.34,0,0,1-5-17.73,34,34,0,0,1,.26-4.28c.06-.5.12-.88.17-1.13l0-.27v0l-.81-.17.81.18h0l-.81-.17.81.18-3.72-.83-2.42,2.94c16.28,13.42,31.78,15.54,39.62,15.52a33,33,0,0,0,5.47-.39l4.88-.93-2.16-4.47a35.3,35.3,0,0,1-2.33-7.52,117,117,0,0,1-1.93-13.61c-.18-2-.3-3.68-.37-4.87,0-.6-.06-1.07-.07-1.39s0-.47,0-.47l-3.81.14-3.15,2.15a31.08,31.08,0,0,0,14.86,11.66,45.46,45.46,0,0,0,16.3,2.78,63.62,63.62,0,0,0,16.76-2.26l3-.91-.32-3.13c-5.63-54.93-28.84-80-29.26-80.47l-3.38-3.62-2.63,4.2c-4.8,7.66-12,14.47-17.93,19.27-3,2.4-5.66,4.31-7.57,5.61-1,.65-1.73,1.15-2.25,1.48l-.59.37-.15.09,0,0,1.95,3.27-1.76-3.38c-28.52,14.86-52.54,17.29-65.27,17.29-3.19,0-5.67-.15-7.32-.3-.83-.07-1.46-.15-1.86-.2l-.44-.06-.1,0h0l-.25,1.51.25-1.51h0l-.25,1.51.25-1.51h-.06c-14.86-2.27-22.88-4.08-27-5.26a27.13,27.13,0,0,1-3.64-1.25l-.23-.11,0,0-1.42,2.33,1.94-1.89a3.82,3.82,0,0,0-.52-.44l-1.42,2.33,1.94-1.89-4.88-5-1.57,6.83,3.72.85-2.74,2.65a6.41,6.41,0,0,0,2,1.31,50.53,50.53,0,0,0,8.95,2.74c5,1.18,12.47,2.65,23.76,4.38l.57-3.77-.63,3.76a71.74,71.74,0,0,0,11,.69c13.7,0,39-2.64,68.79-18.16l.11-.06.08,0a109.2,109.2,0,0,0,11.47-8.17c6.35-5.14,14.08-12.37,19.61-21.17l-3.23-2-2.79,2.6.41-.38-.41.38h0l.41-.38-.41.38c.27.31,21.88,23.87,27.25,76l3.79-.39-1.1-3.65a56.41,56.41,0,0,1-14.56,1.94,38.11,38.11,0,0,1-13.56-2.27,23.46,23.46,0,0,1-11.3-8.84l-7.46-11,.5,13.26c0,.06.2,5.24.95,11.62.38,3.2.89,6.69,1.61,10a42.5,42.5,0,0,0,2.91,9.23l3.44-1.66-.71-3.74h0a26.53,26.53,0,0,1-4,.26c-6.55,0-20-1.66-34.78-13.78l-4.78-3.94-1.36,6a37,37,0,0,0-.67,7.39,39.87,39.87,0,0,0,6.28,21.92l3.18-2.1.09-3.81h0a64.67,64.67,0,0,1-12.17-1.86,66.09,66.09,0,0,1-23.2-10.4l-4-2.91-1.78,4.62s-1.56,4-3.25,9.32a95.32,95.32,0,0,0-4.13,17.15l3.79.41,3.32-1.87a115,115,0,0,0-8.86-13.07,58.7,58.7,0,0,0-8.84-9.26,25.74,25.74,0,0,0-5.19-3.34,14,14,0,0,0-6-1.44,11,11,0,0,0-6.94,2.48,18.48,18.48,0,0,0-5,6.9l3.47,1.57,3.5-1.49-.15-.37c-.78-1.86-4.37-10.64-7.75-21.53S748,1182.94,748,1173a34,34,0,0,1,.73-7.46l-3.71-.85-2.74,2.65Z"/><path class="cls-75" d="M799.13,1169.07c-5.2-12.61-13.47-21.16-18.47-19.1s-4.85,14,.35,26.57,13.47,21.17,18.48,19.1,4.84-14-.36-26.57"/><path class="cls-75" d="M851.09,1150.44c-5.2-12.61-13.48-21.16-18.48-19.1s-4.85,14,.35,26.57,13.48,21.17,18.48,19.11,4.85-14-.35-26.58"/><path class="cls-60" d="M138.59,1217.43l5.29,5h84.56l5.29-5Zm109.93-6.77-12.47,11.76h12.47Zm-124.72,0v11.76h12.47Zm119.12-44.28v42.39l5.6-5.28v-37.11Zm-108.29,0v45.83H237.7v-45.83H199.6V1197H172.72v-30.63Zm-10.83,0v37.11l5.6,5.28v-42.39Zm62.36-1.74c3,0,5.41,2.09,5.41,4.67a4.61,4.61,0,0,1-2.8,4.09v10.79h-5.22V1173.4a4.61,4.61,0,0,1-2.8-4.09c0-2.58,2.42-4.67,5.41-4.67m-8.22,27.15h16.44v-30.51H177.94Zm59.56-66.25v35.62h10.66l-4.73-35.62Zm-16.24,35.62h11v-35.62h-11Zm-65-35.62v35.62h16.44v-5.1H199.6v5.1H216v-35.62ZM140,1161.16h11v-35.62H140Zm-11.15-35.62-4.72,35.62h10.65v-35.62Z"/><path class="cls-60" d="M584.43,1300.29a25,25,0,1,1-25-25,25,25,0,0,1,25,25"/></g><polygon class="cls-76" points="534.49 1233.9 533.43 1236.54 533.96 1254.3 547.43 1261.13 548.29 1251.4 548.29 1235.17 534.49 1233.9"/><polygon class="cls-77" points="551.12 1232.44 550 1235.17 550 1262.5 558.02 1267.45 568.27 1262.5 568.27 1232.44 551.12 1232.44"/><polygon class="cls-76" points="571.86 1232.44 569.86 1234.51 569.86 1261.13 583.94 1252.42 583.94 1232.44 571.86 1232.44"/><g class="cls-39"><path class="cls-67" d="M546,1258.6c.4-.48.49-.54.49-.6,0-7.16,0-14.31-.15-21.47,0-.47-1.12-1.29-1.74-1.32a79.7,79.7,0,0,0-8.18.15c-.54,0-1.48.81-1.48,1.26q-.1,7.11.09,14.23a3,3,0,0,0,1.05,2.2c3.24,1.94,6.6,3.71,9.92,5.55m25.31-.31c3.59-2,6.87-3.81,10-5.76a3,3,0,0,0,.91-2.24c0-4.45-.1-8.91-.09-13.36,0-1.69-.66-2.41-2.39-2.33-2.34.11-4.68.16-7,.1-1.91-.06-2.47.81-2.3,2.57.18,1.94.32,3.89.33,5.84,0,4.21,0,8.43,0,12.64a13.24,13.24,0,0,0,.57,2.54m-5.09-9.91c-.06-3.91-.14-7.81-.16-11.72,0-1.41-.44-2.2-2-2.15-3.67.11-7.35.15-11,.17-1.42,0-1.91.69-1.88,2,.15,7.81.23,15.62.44,23.43a3.42,3.42,0,0,0,1.15,2.35c3.55,2.63,7.24,4.43,11.21.66l.2-.12a3.51,3.51,0,0,0,2.28-3.88c-.18-3.59-.14-7.19-.2-10.78m-6.59,76.29a24.38,24.38,0,1,0-24.51-24,24.13,24.13,0,0,0,24.51,24m-1-93.78,23.68-.35c3.67,0,4.1.57,4,4.2-.07,5.55,0,11.1.2,16.64a4.42,4.42,0,0,1-2.6,4.48c-7,4-14,8.21-21,12.35-.41.24-1,.41-1.15.77a5.2,5.2,0,0,0-.85,2.61c0,.51,1.13,1.2,1.82,1.3,10.33,1.56,17.66,7.13,22,16.54,6.43,13.93-1.07,31.29-15.41,36.75-15.88,6-32.43-3.7-36.68-18.79-3.85-13.68,4.72-29.27,18.38-33.32,1.34-.39,2.77-.54,4.07-1,.81-.31,2-1,2-1.62a3.25,3.25,0,0,0-1.32-2.54q-11.08-6.31-22.32-12.36a4.28,4.28,0,0,1-2.55-4.27c0-5.7-.15-11.4-.22-17.11-.05-3.45.29-3.81,3.67-3.86l24.15-.36Z"/><path class="cls-67" d="M569.86,1298.76l-.53-.51c-2.12-.41-4.66-.25-6.27-1.39s-2.35-3.6-3.48-5.48l-.67-.31c-.92,5.48-4.45,7.51-9.83,7.72,5.07,2.82,5.76,6.86,4.17,11.81a20.13,20.13,0,0,0,4.28-2,3.61,3.61,0,0,1,4.72.1,22.54,22.54,0,0,0,3.35,1.84l1-.09c-2.76-5.08-1.27-8.84,3.23-11.67m-21.17,15.69c.44-2.3.8-4.62,1.35-6.89a3.64,3.64,0,0,0-1.32-4.13,50.7,50.7,0,0,1-4.81-4.46c-.57-.61-1.21-1.72-1-2.35s1.35-1.22,2.16-1.38a52.21,52.21,0,0,1,5.59-.62,4.42,4.42,0,0,0,4.35-3.24,37.22,37.22,0,0,1,2.49-5.55c.35-.65,1.17-1.45,1.79-1.47a2.71,2.71,0,0,1,1.86,1.37,43.19,43.19,0,0,1,2.73,5.7,4.22,4.22,0,0,0,4.09,2.9,62.69,62.69,0,0,1,6.3.51c2.26.39,2.66,1.77,1.07,3.45s-3.29,3.33-5,4.91a3.47,3.47,0,0,0-1.15,3.77c.55,2.12,1.07,4.24,1.45,6.39.13.75.06,2-.39,2.29a3.12,3.12,0,0,1-2.56.08,47.26,47.26,0,0,1-5.57-3,4,4,0,0,0-4.59,0c-1.84,1.17-3.73,2.29-5.67,3.28s-3.14.15-3.12-1.62"/></g><line class="cls-78" x1="871.86" y1="978.6" x2="1185.21" y2="978.6"/><line class="cls-79" x1="1219.62" y1="953.88" x2="1347.38" y2="731.47"/><path class="cls-41" d="M1352.11,723.23l4.73-8.23M1195.32,978.6h10.11l4.73-8.24M841.54,978.6h10.11"/></g></svg>