<svg xmlns="http://www.w3.org/2000/svg" xmlns:xlink="http://www.w3.org/1999/xlink" viewBox="0 0 1500 561"><defs><style>.cls-1,.cls-6,.cls-7{fill:none;}.cls-2{font-size:49.54px;fill:#4f97d1;letter-spacing:0.05em;}.cls-12,.cls-2,.cls-8{font-family:Usual-Medium, Usual;font-weight:500;}.cls-3{clip-path:url(#clip-path);}.cls-4{fill:#231f20;}.cls-5{fill:#fff;}.cls-6,.cls-7{stroke:#231f20;stroke-miterlimit:10;}.cls-6{stroke-width:3px;}.cls-10,.cls-8{font-size:49.2px;}.cls-10,.cls-12,.cls-8{fill:#efe369;}.cls-9{letter-spacing:0.05em;}.cls-10{font-family:Helvetica;}.cls-11{letter-spacing:0.05em;}.cls-12{font-size:29.52px;letter-spacing:0.05em;}.cls-13{letter-spacing:0.05em;}.cls-14{letter-spacing:0.05em;}.cls-15{letter-spacing:0.05em;}.cls-16{letter-spacing:0.03em;}.cls-17{letter-spacing:0em;}.cls-18{font-size:15px;}.cls-18,.cls-20{font-family:Usual-Regular, Usual;}.cls-19{letter-spacing:-0.01em;}.cls-20{font-size:22px;}.cls-21{letter-spacing:0.01em;}</style><clipPath id="clip-path"><rect class="cls-1" x="5" y="102.75" width="1491" height="447.18"/></clipPath></defs><title>projectsDesign</title><g id="Layer_1" data-name="Layer 1"><text class="cls-2" transform="translate(-1.69 44.1)">Deployment of monsters</text></g><g id="Layer_3" data-name="Layer 3"><g class="cls-3"><path class="cls-4" d="M94.59,448.35c5.1,6.94-2.41,46.34-12.61,20-6.39,25.1-16.15,26.38-16.42,14.83-10.09,11.67,7,31.73,13.37,34.94l7.52-.16c-6.75-5.63-11.32-11-12.28-19.38,6.86,1.22,10.44,2.81,11.54-9.19,9,12.3,14.41-7.44,19.47-15.89-.12,5.83-.2,13.5,3.7,18.68,1.29,1.72,4.84,2.22,8,2.11-1.39,2.35-6.26,10.15-2.18,12.93s4.77-.16,3.78,2.25c-1.85,3.06-3.2,5.76-8.36,8l8.09-.18c8.52-2.88,15.86-13.57,13.24-19.85-3.12,2.76-6.22,4.59-8.76,4.45,6.87-10.55,5-21.17,1.45-32-2.7,10.51-4.58,12-7.57,14.53,4-10-13-30.69-21.93-36.09"/></g><rect class="cls-5" x="967.65" y="475.59" width="74.61" height="32.55"/><rect class="cls-6" x="967.65" y="475.59" width="74.61" height="32.55"/><rect class="cls-5" x="1148.82" y="474.49" width="74.44" height="32.48"/><rect class="cls-6" x="1148.82" y="474.49" width="74.44" height="32.48"/><rect class="cls-5" x="1335.01" y="474.49" width="74.44" height="32.48"/><rect class="cls-6" x="1335.01" y="474.49" width="74.44" height="32.48"/><rect class="cls-5" x="1335.01" y="313.63" width="74.44" height="32.48"/><rect class="cls-6" x="1335.01" y="313.63" width="74.44" height="32.48"/><rect class="cls-5" x="1335.01" y="187.04" width="74.44" height="32.48"/><rect class="cls-6" x="1335.01" y="187.04" width="74.44" height="32.48"/><rect class="cls-5" x="1234.84" y="273.13" width="74.44" height="32.48"/><rect class="cls-6" x="1234.84" y="273.13" width="74.44" height="32.48"/><rect class="cls-5" x="1151.32" y="273.13" width="74.44" height="32.48"/><rect class="cls-6" x="1151.32" y="273.13" width="74.44" height="32.48"/><rect class="cls-5" x="1146.16" y="153.05" width="84.86" height="41.96"/><rect class="cls-6" x="1146.16" y="153.05" width="84.86" height="41.96"/><rect class="cls-5" x="1067.9" y="273.13" width="74.44" height="32.48"/><rect class="cls-6" x="1067.9" y="273.13" width="74.44" height="32.48"/><line class="cls-6" x1="1043.18" y1="491.02" x2="1147.9" y2="491.02"/><line class="cls-6" x1="1224.19" y1="491.02" x2="1333.06" y2="491.02"/><line class="cls-6" x1="1371.74" y1="473.56" x2="1371.74" y2="347.04"/><line class="cls-6" x1="1371.74" y1="312.71" x2="1371.74" y2="220.44"/><path class="cls-6" d="M1106,271.44v-43.3h83.09v-32.2m-38,92.5H1144m90.28,0h-7.19m107-85.24h-61.78v68.24"/><g class="cls-3"><path d="M1203.47,124.39a1.91,1.91,0,0,1,1,.28,3.58,3.58,0,0,0-.41.35,2.6,2.6,0,0,0-.79,1.85,2.82,2.82,0,0,0,1.25,2.22,3.17,3.17,0,0,0,.14,2.49,4.06,4.06,0,0,0,1.91,1.81,2.49,2.49,0,0,0-.24,1,3.54,3.54,0,0,0,.82,2.21,4.61,4.61,0,0,0,2.76,1.76,2.65,2.65,0,0,0,0,.63,2.78,2.78,0,0,0,.82,1.53,5,5,0,0,0,1.07.78,3.6,3.6,0,0,1-1.83.77,4.62,4.62,0,0,1-.93-3.1,3.43,3.43,0,0,1-3.36.14c-1.45-.83-1.92-2.86-1.31-5a2.93,2.93,0,0,1-2.87-.6,3.3,3.3,0,0,1-.31-3.74,1.69,1.69,0,0,1-.94-.47c-.86-.86-.56-2.57.67-3.8a3.69,3.69,0,0,1,2.55-1.17m-4.77-6.54c2.75,0,4.42,1.15,4.15,4.38-3.53.34-5.12-1.64-6.22-4.2a16,16,0,0,1,2.07-.18m-15.39-6.43a10.65,10.65,0,0,0-8.66,7.31V150.5h21c-13.17-4.77-17-28-4.62-25.71a14,14,0,0,0,1.08-4.08l1.84.15a17.17,17.17,0,0,1-1.78,5.9c-.07.21-.14.41-.22.6,3.24,8.4,11.22,15.84,16.71,16.58h.29a6.25,6.25,0,0,0,5.15-2.2l.78-.87-1-.56a9.09,9.09,0,0,1-1.79-1.07.92.92,0,0,1-.3-.51,1.25,1.25,0,0,1,.22-.85l1-1.94-2.12.62a2.59,2.59,0,0,1-2.29-1.06,1.9,1.9,0,0,1-.43-1.07.86.86,0,0,1,.47-.79l1.92-1.39-2.36-.27a2.36,2.36,0,0,1-1.89-1.21,1,1,0,0,1,.14-1.32l1.2-1.05-1.51-.51a1.38,1.38,0,0,1-1-1,.56.56,0,0,1,.18-.44,2.94,2.94,0,0,1,2.77.63,2.81,2.81,0,0,1,.68,2.45,3.09,3.09,0,0,1,2.38.24,3.4,3.4,0,0,1,1.55,2.76,4.2,4.2,0,0,1,4.45-.51c1.53.88,2.11,2.91,1.66,5.1,2.37-3.29,3.41-7.46.55-11.87-4.6-.44-8-3-9.19-6.67-.5-1.57-2.1-2.82-4.14-3.73v0a27.46,27.46,0,0,0-8.14-1.85v0l-.67,0a7.54,7.54,0,0,1-5.66,4.54l-.58.13-.35-.48A22.64,22.64,0,0,0,1183.31,111.42Zm0-5.2h-.22a13,13,0,0,0-4.62,1.1c5.54,1.85,10.55,5,13.2,8.24a5.29,5.29,0,0,0,3.59-2.84c-3.42-2.9-6.16-5.07-8.86-6a9.82,9.82,0,0,0-3.09-.52m9-2.26a18.83,18.83,0,0,0-2.25.18,28.13,28.13,0,0,1,6.66,7h.49a24.56,24.56,0,0,1,5.24.71c-1.55-2.8-3-5-4.67-6.23a8.46,8.46,0,0,0-5.18-1.62h-.29"/><path class="cls-4" d="M999.34,461.49a15.61,15.61,0,0,0-2.22.95,18.23,18.23,0,0,0,1.71,6.66,17.18,17.18,0,0,1,.51-4.88Zm10.74-.13v2.93a17.41,17.41,0,0,1,.49,4.81,18.32,18.32,0,0,0,1.73-6.84,16.62,16.62,0,0,0-2.22-.9m-7.65-.61c-.55.08-1.1.19-1.64.32v3h1.64Zm4.64,0V464h1.56V461a14.14,14.14,0,0,0-1.56-.27m-2.19-.13q-.5,0-1,0V464h1.72v-3.45Zm.16-10.72A27.66,27.66,0,0,1,1008,457c-1.15-.36-2.57-1.18-2.88-2.45a4.55,4.55,0,0,1-2.93,2.45,28.4,28.4,0,0,1,2.9-7.15m6.15-4.08a12.31,12.31,0,0,1,5,6.46,13.94,13.94,0,0,0-7.57-.83l-.45-3.91Zm-12.08,0,3,1.72-.46,3.91a14,14,0,0,0-7.57.83,12.41,12.41,0,0,1,5-6.46m5.64-13c-6,0-11.35,5.29-13.64,13.05a20.68,20.68,0,0,0,8.4-6.84l1.16.89a22.33,22.33,0,0,1-11.75,8.31,37.79,37.79,0,0,1,5.25,8.15,9.87,9.87,0,0,1,5.69-2.48l.16,1.45a8.48,8.48,0,0,0-4.4,1.7,28.17,28.17,0,0,1,1.55,3.77,18.51,18.51,0,0,1,15.33-.05,31.59,31.59,0,0,1,1.67-3.8,8.54,8.54,0,0,0-4.29-1.62l.16-1.45a9.84,9.84,0,0,1,5.68,2.48,37.51,37.51,0,0,1,5.26-8.15,22.29,22.29,0,0,1-11.75-8.31l1.15-.89a20.85,20.85,0,0,0,8.07,6.7c-2.32-7.69-7.65-12.91-13.7-12.91"/><path class="cls-4" d="M1160.82,461.49a15.61,15.61,0,0,0-2.22.95,18.23,18.23,0,0,0,1.71,6.66,17.18,17.18,0,0,1,.51-4.88Zm10.74-.13v2.93a17.41,17.41,0,0,1,.49,4.81,18.32,18.32,0,0,0,1.73-6.84,16.62,16.62,0,0,0-2.22-.9m-7.65-.61c-.55.08-1.1.19-1.64.32v3h1.64Zm4.64,0V464h1.56V461a14.14,14.14,0,0,0-1.56-.27m-2.19-.13q-.49,0-1,0V464h1.72v-3.45Zm.16-10.72a27.66,27.66,0,0,1,2.91,7.15c-1.15-.36-2.58-1.18-2.88-2.45a4.55,4.55,0,0,1-2.93,2.45,28.4,28.4,0,0,1,2.9-7.15m6.15-4.08a12.31,12.31,0,0,1,5,6.46,14,14,0,0,0-7.57-.83l-.45-3.91Zm-12.08,0,3,1.72-.46,3.91a14,14,0,0,0-7.57.83,12.41,12.41,0,0,1,5-6.46m5.64-13c-6,0-11.36,5.29-13.64,13.05A20.75,20.75,0,0,0,1161,439l1.16.89a22.37,22.37,0,0,1-11.75,8.31,37.79,37.79,0,0,1,5.25,8.15,9.87,9.87,0,0,1,5.69-2.48l.15,1.45a8.48,8.48,0,0,0-4.39,1.7,29.55,29.55,0,0,1,1.55,3.77,18.49,18.49,0,0,1,15.32-.05,33.34,33.34,0,0,1,1.68-3.8,8.54,8.54,0,0,0-4.29-1.62l.16-1.45a9.84,9.84,0,0,1,5.68,2.48,37.51,37.51,0,0,1,5.26-8.15,22.35,22.35,0,0,1-11.76-8.31l1.16-.89a20.85,20.85,0,0,0,8.07,6.7c-2.33-7.69-7.65-12.91-13.7-12.91"/><path class="cls-4" d="M1433.45,502.41a15.61,15.61,0,0,0-2.22.95A18.05,18.05,0,0,0,1433,510a17.17,17.17,0,0,1,.5-4.88Zm10.74-.13v2.93a17.41,17.41,0,0,1,.49,4.81,18.37,18.37,0,0,0,1.73-6.84,15.39,15.39,0,0,0-2.22-.9m-7.65-.61a14.67,14.67,0,0,0-1.63.32v3h1.63Zm4.64,0V505h1.56V501.9a14.14,14.14,0,0,0-1.56-.27m-2.19-.13-1,0V505h1.72v-3.45H1439m.16-10.72a27.66,27.66,0,0,1,2.91,7.15c-1.14-.36-2.57-1.18-2.88-2.45a4.55,4.55,0,0,1-2.93,2.45,28.62,28.62,0,0,1,2.9-7.15m6.15-4.09a12.39,12.39,0,0,1,5,6.47,13.83,13.83,0,0,0-7.56-.83l-.46-3.91Zm-12.08,0,3,1.73-.46,3.91a13.85,13.85,0,0,0-7.57.83,12.44,12.44,0,0,1,5-6.47m5.64-13c-6,0-11.35,5.29-13.64,13a20.75,20.75,0,0,0,8.4-6.84l1.16.89a22.42,22.42,0,0,1-11.75,8.31,37.79,37.79,0,0,1,5.25,8.15,9.87,9.87,0,0,1,5.69-2.48l.16,1.45a8.48,8.48,0,0,0-4.4,1.7,28.17,28.17,0,0,1,1.55,3.77,18.52,18.52,0,0,1,15.33-.06,31.46,31.46,0,0,1,1.67-3.79,8.54,8.54,0,0,0-4.29-1.62l.16-1.45a9.84,9.84,0,0,1,5.68,2.48,37.51,37.51,0,0,1,5.26-8.15,22.34,22.34,0,0,1-11.75-8.31l1.15-.89a20.81,20.81,0,0,0,8.07,6.69c-2.33-7.68-7.65-12.9-13.7-12.9"/><path class="cls-4" d="M1197.89,452.13c-.25.64-.49,1.27-.72,1.9a1.63,1.63,0,0,0,.32,1.44,5.8,5.8,0,0,0,1.86,1.54,21.7,21.7,0,0,0,6.86,2.21,22.61,22.61,0,0,0,7.09.18,5.31,5.31,0,0,0,2.1-.75,1,1,0,0,0,.53-1c0-.56-.08-1.14-.13-1.73a6.56,6.56,0,0,1-2.18.64,25.08,25.08,0,0,1-13.23-2.45,8.44,8.44,0,0,1-2.31-1.78Zm-.54-3.8h-1.09a24.56,24.56,0,0,0-5,.59,7,7,0,0,0-4,2.12c-.67.9-.82,2-.07,3.71,2.67,6.13,9.55,10.61,16.93,12.11s15.17,0,19.75-5.44a3.23,3.23,0,0,0,.81-3.52,8.28,8.28,0,0,0-3.33-3.49,27.15,27.15,0,0,0-4.29-2.2c.12,1.84.29,3.66.41,5.37v0a2.65,2.65,0,0,1-1.17,2.28,6.57,6.57,0,0,1-2.72,1,23.45,23.45,0,0,1-7.61-.18,23,23,0,0,1-7.36-2.39,7.16,7.16,0,0,1-2.35-2,3.28,3.28,0,0,1-.54-2.72v-.06c.63-1.73,1.33-3.49,2.13-5.23h-.5m21.26-16c-4.69,0-8.54,2.1-11.8,5.29a40,40,0,0,0-8.15,12.67,2.3,2.3,0,0,0,.58,1.11,6.66,6.66,0,0,0,1.89,1.43,23.52,23.52,0,0,0,12.28,2.28,4.68,4.68,0,0,0,1.77-.54c.35-.21.4-.32.4-.53h.06a50.17,50.17,0,0,1,0-10.75,19.61,19.61,0,0,1,1.24-4.7c-2.57,2.57-5.12,5.33-7.07,7.72,2.88-5.72,7-9.89,11.5-13.77a16.85,16.85,0,0,0-2.7-.2"/><path class="cls-4" d="M1043.84,341.46a16.11,16.11,0,0,0-2.22,1,18,18,0,0,0,1.72,6.66,17.21,17.21,0,0,1,.5-4.88Zm10.75-.13v2.93a17.07,17.07,0,0,1,.48,4.81,18.13,18.13,0,0,0,1.73-6.84,16.49,16.49,0,0,0-2.21-.9m-7.65-.6a15.28,15.28,0,0,0-1.64.31v3h1.64Zm4.63-.05V344h1.56V341q-.77-.17-1.56-.27m-2.19-.13-1,0V344h1.72v-3.44l-.73,0m.17-10.72a27.63,27.63,0,0,1,2.9,7.15c-1.14-.36-2.57-1.18-2.88-2.45a4.53,4.53,0,0,1-2.93,2.45,28.8,28.8,0,0,1,2.91-7.15m6.14-4.08a12.41,12.41,0,0,1,5,6.46,14,14,0,0,0-7.57-.83l-.46-3.91Zm-12.07,0,3,1.72-.46,3.91a13.92,13.92,0,0,0-7.56.83,12.35,12.35,0,0,1,5-6.46m5.64-13c-6,0-11.36,5.29-13.65,13.05A20.78,20.78,0,0,0,1044,319l1.15.89a22.29,22.29,0,0,1-11.75,8.31,37.79,37.79,0,0,1,5.25,8.15,9.87,9.87,0,0,1,5.69-2.48l.16,1.45a8.48,8.48,0,0,0-4.4,1.7,26.91,26.91,0,0,1,1.55,3.77,18.51,18.51,0,0,1,15.33,0,31.59,31.59,0,0,1,1.67-3.8,8.48,8.48,0,0,0-4.29-1.62l.16-1.45a9.82,9.82,0,0,1,5.69,2.49,37.58,37.58,0,0,1,5.25-8.16,22.29,22.29,0,0,1-11.75-8.31l1.15-.89a21,21,0,0,0,8.07,6.7c-2.32-7.68-7.65-12.91-13.69-12.91"/><path class="cls-4" d="M1079.56,332.1c-.25.64-.49,1.27-.71,1.91a1.58,1.58,0,0,0,.32,1.43A5.59,5.59,0,0,0,1081,337a21.72,21.72,0,0,0,6.85,2.21,22.61,22.61,0,0,0,7.09.18,5.25,5.25,0,0,0,2.1-.75,1,1,0,0,0,.54-1c0-.56-.09-1.14-.14-1.73a6.49,6.49,0,0,1-2.18.64,25.07,25.07,0,0,1-13.22-2.45,8.15,8.15,0,0,1-2.31-1.78l-.2-.24m-.54-3.8h-1.08a24.58,24.58,0,0,0-5,.59,7,7,0,0,0-4,2.12c-.68.91-.82,2-.08,3.71,2.68,6.13,9.55,10.61,16.94,12.11s15.16,0,19.74-5.44a3.21,3.21,0,0,0,.81-3.52,8.18,8.18,0,0,0-3.32-3.49,26.85,26.85,0,0,0-4.3-2.2c.12,1.84.29,3.66.42,5.38h0a2.67,2.67,0,0,1-1.17,2.28,6.56,6.56,0,0,1-2.73,1,23.39,23.39,0,0,1-7.6-.18,23.08,23.08,0,0,1-7.36-2.38,7,7,0,0,1-2.35-2,3.25,3.25,0,0,1-.54-2.72v-.06c.62-1.73,1.33-3.49,2.12-5.22h-.5m21.27-16c-4.7,0-8.55,2.1-11.81,5.29a39.81,39.81,0,0,0-8.14,12.67,2.32,2.32,0,0,0,.57,1.11,7,7,0,0,0,1.89,1.44,21.33,21.33,0,0,0,6.16,2,20.83,20.83,0,0,0,6.12.28,5,5,0,0,0,1.78-.53c.35-.22.4-.33.39-.54h.06a49.53,49.53,0,0,1,0-10.75,19.16,19.16,0,0,1,1.24-4.7c-2.57,2.57-5.13,5.34-7.08,7.72,2.89-5.72,7-9.89,11.5-13.77a16.73,16.73,0,0,0-2.69-.2"/><path class="cls-4" d="M1427,198.21c-.26.63-.49,1.27-.72,1.9a1.58,1.58,0,0,0,.32,1.43,5.7,5.7,0,0,0,1.86,1.55,22.24,22.24,0,0,0,6.85,2.21,22.61,22.61,0,0,0,7.09.18,5.41,5.41,0,0,0,2.1-.75,1,1,0,0,0,.54-1c0-.57-.09-1.14-.14-1.73a6.27,6.27,0,0,1-2.18.63,21.85,21.85,0,0,1-6.6-.28,22.69,22.69,0,0,1-6.62-2.16,8.29,8.29,0,0,1-2.31-1.78l-.19-.24m-.55-3.8h-1.08a23.77,23.77,0,0,0-5,.58,7.08,7.08,0,0,0-4,2.12c-.68.91-.82,2-.08,3.72,2.68,6.13,9.55,10.61,16.94,12.11s15.17,0,19.75-5.45a3.24,3.24,0,0,0,.81-3.52,8.32,8.32,0,0,0-3.33-3.48,25.3,25.3,0,0,0-4.3-2.2c.12,1.84.29,3.65.42,5.37v0a2.67,2.67,0,0,1-1.17,2.28,6.57,6.57,0,0,1-2.72,1,23.73,23.73,0,0,1-7.61-.18,23.08,23.08,0,0,1-7.36-2.39,7.06,7.06,0,0,1-2.35-2,3.25,3.25,0,0,1-.54-2.72v-.06c.62-1.73,1.33-3.49,2.12-5.23Zm21.27-16c-4.69,0-8.55,2.11-11.8,5.29a40,40,0,0,0-8.15,12.68,2.34,2.34,0,0,0,.58,1.11,6.78,6.78,0,0,0,1.88,1.43,23.56,23.56,0,0,0,12.28,2.28,5,5,0,0,0,1.78-.54c.35-.22.4-.32.39-.54h.06a49.53,49.53,0,0,1,0-10.75,19,19,0,0,1,1.24-4.7c-2.57,2.56-5.13,5.33-7.08,7.72,2.89-5.72,7-9.89,11.5-13.77a17.91,17.91,0,0,0-2.69-.21"/><path class="cls-4" d="M1465.72,501.08c-.56,0-1.29,0-1.3,1.26,0,3.45-3.18,7.21-3,7.3.53.25,3.68-2.38,4.6-4.41.31-.69.85-4.14-.32-4.15m-4.19,3.1c.32.16.58-3,3.88-4.55a5.55,5.55,0,0,1-1.06-2.64c-2.43.31-4.09,6.31-2.82,7.19m18.78-8.52a6.73,6.73,0,0,1,4.17,1.88,13.46,13.46,0,0,0-4.4-.83,9.54,9.54,0,0,0-3.95.83,6.74,6.74,0,0,1,4.18-1.88m-6.89-6.12c-1.32,0-2.56.21-2.57.65,1.42.51,1.24,1.69,2.8,1.72s2.84-.71,2.86-1.64c0-.49-1.59-.74-3.09-.73m12.84-.22c-1.5,0-3.09.24-3.08.74,0,.92,1.29,1.66,2.85,1.63s1.38-1.2,2.81-1.72c0-.43-1.26-.64-2.58-.65m-6.23-3c7.81,0,14.14,2.06,14.14,4.6,0,1.64-.33,2.49-4.3,3.3-2.18.45-7.07-2.31-9.84-2.31-2.6,0-6.48,3.07-8.57,2.67-4.21-.79-5.58-2-5.58-3.66,0-2.54,6.33-4.6,14.15-4.6m0-11.28a15.44,15.44,0,0,0-11.87,5.49c2,0,6.53.23,7.14,1.92a22.25,22.25,0,0,0-8.07-.69,15.63,15.63,0,0,0-1,1.73c2.34-.62,11-.25,11.51,1.58a29.58,29.58,0,0,0-12-.36,14.69,14.69,0,0,0-1,5.37c0,8.3,7.16,20.07,15.63,20.07,4.3,0,8.12-3,10.83-7.08-2.33,1.77-7.29,4.26-10.33,2.57a24.14,24.14,0,0,0,11.61-4.71,24.07,24.07,0,0,0,3-10.85,15.2,15.2,0,0,0-15.35-15"/><path class="cls-4" d="M1466.33,206.66c-.55,0-1.28,0-1.29,1.26,0,3.44-3.18,7.21-3,7.3.54.25,3.69-2.38,4.61-4.42.31-.68.85-4.13-.33-4.14m-4.18,3.1c.32.15.58-3,3.88-4.55a5.55,5.55,0,0,1-1.06-2.64c-2.43.31-4.09,6.31-2.82,7.19m18.78-8.52a6.73,6.73,0,0,1,4.17,1.88,13.46,13.46,0,0,0-4.4-.83,9.54,9.54,0,0,0-4,.83,6.74,6.74,0,0,1,4.18-1.88m-6.89-6.13c-1.32,0-2.56.22-2.57.66,1.42.51,1.24,1.69,2.8,1.71s2.84-.71,2.86-1.63c0-.49-1.59-.75-3.09-.74m12.84-.21c-1.5,0-3.09.24-3.08.73,0,.93,1.29,1.66,2.85,1.64s1.38-1.21,2.8-1.72c0-.43-1.25-.64-2.57-.65m-6.24-3c7.82,0,14.15,2.06,14.15,4.61,0,1.63-.34,2.48-4.3,3.3-2.18.45-7.07-2.32-9.85-2.32-2.59,0-6.47,3.08-8.56,2.68-4.21-.8-5.58-2-5.58-3.66,0-2.55,6.33-4.61,14.14-4.61m0-11.27a15.44,15.44,0,0,0-11.86,5.49c2,0,6.53.23,7.14,1.91a22.7,22.7,0,0,0-8.07-.69,16.75,16.75,0,0,0-1,1.74c2.34-.62,11-.25,11.51,1.58a29.64,29.64,0,0,0-12-.37,14.79,14.79,0,0,0-1,5.38c0,8.3,7.15,20.06,15.64,20.06,4.29,0,8.1-3,10.82-7.08-2.33,1.77-7.29,4.26-10.33,2.58a24.14,24.14,0,0,0,11.61-4.71,24.13,24.13,0,0,0,3-10.85,15.2,15.2,0,0,0-15.36-15"/><path class="cls-4" d="M1113.79,341.86c-.56,0-1.28,0-1.3,1.26,0,3.44-3.18,7.21-3,7.3.53.25,3.69-2.38,4.6-4.42.31-.68.86-4.13-.32-4.14m-4.18,3.1c.32.15.57-3,3.88-4.55a5.49,5.49,0,0,1-1.06-2.64c-2.43.31-4.09,6.31-2.82,7.19m18.77-8.52a6.74,6.74,0,0,1,4.18,1.88,13.54,13.54,0,0,0-4.4-.83,9.54,9.54,0,0,0-4,.83,6.69,6.69,0,0,1,4.17-1.88m-6.88-6.13c-1.32,0-2.57.22-2.57.66,1.42.51,1.24,1.69,2.8,1.71s2.84-.71,2.85-1.63c0-.49-1.58-.75-3.08-.74m12.84-.21c-1.5,0-3.09.24-3.09.73,0,.93,1.29,1.66,2.86,1.64s1.38-1.21,2.8-1.72c0-.43-1.25-.65-2.57-.65m-6.24-3c7.81,0,14.15,2.06,14.15,4.61,0,1.63-.34,2.48-4.3,3.3-2.19.45-7.07-2.32-9.85-2.32-2.59,0-6.47,3.08-8.56,2.68-4.21-.8-5.58-2-5.58-3.66,0-2.55,6.33-4.61,14.14-4.61m0-11.27a15.48,15.48,0,0,0-11.87,5.49c2,0,6.54.23,7.15,1.91a22.49,22.49,0,0,0-8.07-.69,13.13,13.13,0,0,0-1,1.74c2.34-.62,11-.25,11.5,1.58a29.59,29.59,0,0,0-12-.37,14.58,14.58,0,0,0-1,5.38c0,8.3,7.15,20.06,15.63,20.06,4.3,0,8.11-3,10.83-7.08-2.34,1.77-7.29,4.26-10.34,2.58a24,24,0,0,0,11.61-4.71,24,24,0,0,0,3-10.85,15.2,15.2,0,0,0-15.36-15"/><path class="cls-4" d="M1241.24,340.67c-.56,0-1.28,0-1.3,1.26,0,3.44-3.18,7.21-3,7.3.53.25,3.69-2.38,4.6-4.42.31-.69.86-4.13-.32-4.14m-4.18,3.1c.32.15.57-3,3.88-4.56a5.42,5.42,0,0,1-1.06-2.63c-2.43.3-4.09,6.31-2.82,7.19m18.77-8.52a6.74,6.74,0,0,1,4.18,1.88,13.54,13.54,0,0,0-4.4-.83,9.62,9.62,0,0,0-4,.83,6.74,6.74,0,0,1,4.18-1.88m-6.88-6.13c-1.32,0-2.57.22-2.58.66,1.43.51,1.25,1.69,2.81,1.71s2.84-.71,2.85-1.63c0-.49-1.58-.75-3.08-.74m12.84-.21c-1.5,0-3.1.24-3.09.73,0,.93,1.29,1.66,2.86,1.64s1.38-1.21,2.8-1.72c0-.43-1.25-.64-2.57-.65m-6.24-3c7.81,0,14.15,2.06,14.15,4.6,0,1.64-.34,2.49-4.3,3.31-2.19.45-7.07-2.32-9.85-2.32-2.59,0-6.48,3.08-8.57,2.68-4.2-.8-5.57-2-5.57-3.67,0-2.54,6.33-4.6,14.14-4.6m0-11.28a15.48,15.48,0,0,0-11.87,5.5c2,0,6.54.23,7.15,1.91a22.49,22.49,0,0,0-8.07-.69,16,16,0,0,0-1,1.73c2.35-.61,11-.25,11.51,1.59a29.59,29.59,0,0,0-12-.37,14.57,14.57,0,0,0-1,5.37c0,8.31,7.15,20.07,15.63,20.07,4.3,0,8.11-3,10.83-7.08-2.34,1.77-7.29,4.26-10.34,2.58a24,24,0,0,0,11.61-4.71,24,24,0,0,0,3-10.86,15.21,15.21,0,0,0-15.36-15"/><path class="cls-4" d="M1430,341.47a16.11,16.11,0,0,0-2.22.95,18.05,18.05,0,0,0,1.72,6.66,17.17,17.17,0,0,1,.5-4.88Zm10.75-.13v2.93a17,17,0,0,1,.48,4.81,18,18,0,0,0,1.73-6.84,16,16,0,0,0-2.21-.9m-7.65-.61c-.55.08-1.1.19-1.64.32v3h1.64Zm4.63,0V344h1.56V341c-.51-.12-1-.2-1.56-.27m-2.19-.13-1,0V344h1.72v-3.45h-.73m.17-10.72a27.63,27.63,0,0,1,2.9,7.15c-1.14-.36-2.57-1.18-2.88-2.45a4.53,4.53,0,0,1-2.93,2.45,28.8,28.8,0,0,1,2.91-7.15m6.14-4.08a12.37,12.37,0,0,1,5,6.46,14,14,0,0,0-7.57-.83l-.46-3.91Zm-12.07,0,3,1.72-.45,3.91a14,14,0,0,0-7.57.83,12.31,12.31,0,0,1,5-6.46m5.64-13c-6,0-11.36,5.29-13.65,13.05a20.78,20.78,0,0,0,8.41-6.84l1.15.89a22.29,22.29,0,0,1-11.75,8.31,37.41,37.41,0,0,1,5.25,8.15,9.87,9.87,0,0,1,5.69-2.48l.16,1.45a8.48,8.48,0,0,0-4.4,1.7,26.91,26.91,0,0,1,1.55,3.77,18.51,18.51,0,0,1,15.33,0,31.59,31.59,0,0,1,1.67-3.8,8.48,8.48,0,0,0-4.29-1.62l.16-1.45a9.87,9.87,0,0,1,5.69,2.48,37.79,37.79,0,0,1,5.25-8.15,22.29,22.29,0,0,1-11.75-8.31l1.15-.89a21,21,0,0,0,8.07,6.7c-2.32-7.69-7.65-12.91-13.69-12.91"/><path class="cls-4" d="M1484,329.39a5.35,5.35,0,0,0-1.26.19c-1.42.38-2.42,1.22-2.24,1.89s1.47.9,2.89.52,2.42-1.23,2.24-1.9c-.12-.45-.77-.71-1.63-.7m-12.3,0c-.86,0-1.5.25-1.63.7-.18.67.83,1.52,2.24,1.9s2.71.14,2.89-.52-.82-1.51-2.24-1.89a5.35,5.35,0,0,0-1.26-.19m5.75-16.23a27,27,0,0,0-13.5,10.15c1.62,4.4,2.5,7.22,2.5,10.06s-.88,5.65-2.46,9.93a24.49,24.49,0,0,0,11.51,5c-.39-4.62-.75-9.24.12-13.87a17.93,17.93,0,0,1-7-2.35v-5.46c6.17,3.24,12.16,3.18,18.53,0v5.46a24.77,24.77,0,0,1-6.91,2.24,58.68,58.68,0,0,1,.15,13.89,23.65,23.65,0,0,0,10.65-4.92c-2.6-8.65-2.61-11.18,0-19.95-3.2-5-8.8-8.45-13.59-10.15"/><path class="cls-4" d="M1301.82,331.57a5.88,5.88,0,0,0-1.26.18c-1.42.38-2.42,1.23-2.24,1.89s1.47.9,2.88.52,2.42-1.22,2.25-1.89c-.13-.46-.78-.71-1.63-.7m-12.3,0c-.86,0-1.51.24-1.63.7-.18.67.83,1.52,2.24,1.89s2.71.15,2.89-.52-.82-1.51-2.24-1.89a5.31,5.31,0,0,0-1.26-.18m5.75-16.23a27,27,0,0,0-13.51,10.15c1.63,4.4,2.51,7.22,2.51,10.06s-.88,5.64-2.46,9.93a24.45,24.45,0,0,0,11.51,5c-.39-4.62-.75-9.25.12-13.87a18.19,18.19,0,0,1-7-2.35v-5.46c6.18,3.24,12.17,3.18,18.54,0v5.46a24.77,24.77,0,0,1-6.91,2.24,58.68,58.68,0,0,1,.15,13.89,23.57,23.57,0,0,0,10.65-4.93c-2.6-8.65-2.61-11.17,0-19.94C1305.66,320.48,1300.06,317,1295.27,315.34Z"/><path class="cls-4" d="M1176.13,330.89a5.51,5.51,0,0,0-1.27.19c-1.41.38-2.42,1.22-2.24,1.89s1.47.9,2.89.52,2.42-1.23,2.24-1.89c-.12-.46-.77-.71-1.62-.71m-12.31,0c-.85,0-1.5.25-1.62.71-.18.66.82,1.51,2.24,1.89s2.71.15,2.89-.52-.83-1.51-2.25-1.89a5.35,5.35,0,0,0-1.26-.19m5.75-16.23a27,27,0,0,0-13.5,10.16c1.63,4.39,2.51,7.22,2.51,10.05s-.88,5.65-2.46,9.93a24.42,24.42,0,0,0,11.5,5c-.38-4.62-.75-9.24.13-13.87a17.81,17.81,0,0,1-7-2.35v-5.46c6.18,3.24,12.17,3.18,18.53,0v5.46a24.35,24.35,0,0,1-6.91,2.24,58.16,58.16,0,0,1,.16,13.89,23.56,23.56,0,0,0,10.64-4.92c-2.6-8.65-2.6-11.18.05-19.94-3.2-5-8.81-8.46-13.6-10.16"/><path class="cls-4" d="M1217,330.74a5.51,5.51,0,0,0-1.26.19c-1.41.37-2.42,1.22-2.24,1.89s1.47.9,2.89.52,2.42-1.23,2.24-1.9C1218.46,331,1217.81,330.73,1217,330.74Zm-12.3,0c-.85,0-1.5.25-1.63.7-.17.67.83,1.52,2.25,1.9s2.71.15,2.88-.52-.82-1.52-2.24-1.89a5.35,5.35,0,0,0-1.26-.19m5.75-16.23a27,27,0,0,0-13.5,10.16c1.63,4.39,2.51,7.22,2.51,10.05s-.89,5.65-2.46,9.93a24.42,24.42,0,0,0,11.5,5c-.38-4.62-.75-9.24.13-13.87a18,18,0,0,1-7-2.35v-5.46c6.18,3.24,12.17,3.18,18.53,0v5.46a24.45,24.45,0,0,1-6.91,2.24,58.16,58.16,0,0,1,.16,13.89,23.67,23.67,0,0,0,10.64-4.92c-2.6-8.65-2.6-11.18,0-19.94-3.2-5-8.81-8.46-13.6-10.16"/></g><polyline class="cls-7" points="1011.34 335.78 904.17 335.78 904.17 501.63 881.44 501.63"/><polygon class="cls-4" points="1016.99 335.33 1009.03 331 1010.91 335.33 1009.03 339.66 1016.99 335.33"/><text class="cls-8" transform="translate(789.28 516.91)"><tspan class="cls-9">8</tspan><tspan x="33.99" y="0">6</tspan></text><text class="cls-8" transform="translate(545.51 516.83)"><tspan class="cls-9">5</tspan><tspan x="33.99" y="0">2</tspan></text><text class="cls-10" transform="translate(141.66 518.55)">X</text><text class="cls-8" transform="translate(176.94 518.6)"><tspan class="cls-11"> </tspan><tspan class="cls-9" x="15.59" y="0">5</tspan><tspan x="49.59" y="0">2</tspan></text><text class="cls-12" transform="translate(37 383.31)">12<tspan class="cls-13" x="40.79" y="0"> </tspan><tspan x="50.15" y="0">M</tspan><tspan class="cls-14" x="79.55" y="0">il</tspan><tspan x="98.73" y="0">es</tspan><tspan class="cls-13" x="134.48" y="0" xml:space="preserve"> P</tspan><tspan class="cls-15" x="166.18" y="0">er</tspan><tspan class="cls-13" x="198.44" y="0"> </tspan><tspan class="cls-16" x="207.8" y="0">W</tspan><tspan x="240.83" y="0">ee</tspan><tspan class="cls-17" x="278.25" y="0">k</tspan></text><text class="cls-8" transform="translate(632.32 215)"><tspan class="cls-9">x</tspan><tspan class="cls-11" x="29.47" y="0"> </tspan><tspan class="cls-9" x="45.06" y="0">52-9</tspan><tspan x="166.43" y="0">6</tspan></text><polyline class="cls-7" points="575.69 410.32 575.69 385.57 689.56 385.57 689.56 237.57"/><polygon class="cls-4" points="575.27 419.14 579.9 406.71 575.27 409.66 570.64 406.71 575.27 419.14"/><polyline class="cls-7" points="818.74 410.14 818.74 385.75 689.98 385.93"/><polygon class="cls-4" points="819.15 418.96 823.78 406.53 819.15 409.48 814.52 406.53 819.15 418.96"/><g class="cls-3"><path class="cls-4" d="M578.09,160.32c5.1,6.94-2.41,46.33-12.61,20-6.39,25.1-16.15,26.38-16.42,14.84-10.09,11.66,7,31.72,13.37,34.93l7.52-.16c-6.75-5.63-11.32-11-12.28-19.37,6.86,1.21,10.44,2.8,11.54-9.2,9,12.31,14.41-7.44,19.47-15.89-.12,5.83-.2,13.5,3.69,18.68,1.3,1.72,4.85,2.22,8,2.11-1.38,2.35-6.25,10.15-2.17,12.93s4.77-.16,3.78,2.25c-1.85,3.06-3.2,5.76-8.36,8l8.09-.18c8.52-2.88,15.86-13.57,13.24-19.85-3.12,2.76-6.22,4.6-8.76,4.45,6.87-10.55,5-21.17,1.45-32-2.7,10.51-4.58,12-7.57,14.53,4-10-13-30.69-21.93-36.08"/></g><polyline class="cls-7" points="523.92 133.12 482.41 133.12 482.41 501.63 259.39 501.63"/><polygon class="cls-4" points="533.19 132.84 520.13 127.12 523.23 132.84 520.13 138.56 533.19 132.84"/><line class="cls-7" x1="160.81" y1="450.96" x2="160.81" y2="404.35"/><polygon class="cls-4" points="160.81 460.9 168.81 446.89 160.81 450.21 152.81 446.89 160.81 460.9"/><text class="cls-18" transform="translate(301.69 469.3) scale(1.01 1)">Plan for 3-4 weeks <tspan x="0" y="18">training</tspan></text><text class="cls-18" transform="translate(545.69 126.3)"><tspan class="cls-19">T</tspan><tspan x="9.8" y="0">o </tspan><tspan class="cls-19" x="22.7" y="0">defea</tspan><tspan x="62.63" y="0">t </tspan><tspan class="cls-19" x="71.81" y="0">al</tspan><tspan x="83.68" y="0">l </tspan><tspan class="cls-19" x="91.15" y="0">th</tspan><tspan x="105.58" y="0">e </tspan><tspan class="cls-19" x="117.84" y="0">monster</tspan><tspan x="176.64" y="0">, </tspan><tspan class="cls-19" x="184.64" y="0">th</tspan><tspan x="199.07" y="0">e </tspan><tspan class="cls-19" x="211.33" y="0">player</tspan><tspan x="254.77" y="0">s </tspan><tspan class="cls-19" x="266.17" y="0">ar</tspan><tspan x="279.95" y="0">e </tspan><tspan class="cls-19" x="0" y="18">suppose</tspan><tspan x="60.71" y="18">d </tspan><tspan class="cls-19" x="74.02" y="18">t</tspan><tspan x="79.37" y="18">o </tspan><tspan class="cls-19" x="92.27" y="18">ge</tspan><tspan x="109.98" y="18">t</tspan></text><text class="cls-20" transform="translate(525.98 437.68)">Minimum<tspan x="25.48" y="26.4">Cost</tspan></text><text class="cls-20" transform="translate(766.58 437.68)">Maximum <tspan x="27.87" y="26.4">Cost</tspan></text><text class="cls-18" transform="translate(902.69 310.3)">Deploy<tspan x="0" y="18">Monsters</tspan></text><path d="M703.54,342.78c2.35,0,4.14,1.34,4.14,3.71s-1.83,3.75-4.19,3.75h-3v4.06H699V342.78Zm.06,6.14a2.41,2.41,0,1,0,0-4.82h-3.09v4.82Z"/><path d="M709.49,354.3V342.78h1.42V354.3Z"/><path d="M718.06,354.3l0-1.17h0a2.65,2.65,0,0,1-2.43,1.34A2.39,2.39,0,0,1,713,352a2.05,2.05,0,0,1,1.56-2.09,14.94,14.94,0,0,1,3.51-.39v-.72a1.58,1.58,0,0,0-1.79-1.56,1.78,1.78,0,0,0-1.86,1.22l-1.18-.57a3,3,0,0,1,3.09-1.85c1.92,0,3.15,1,3.15,2.76v5.46Zm0-3.18v-.46a20.6,20.6,0,0,0-2.06.16c-.91.12-1.59.38-1.59,1.2s.57,1.25,1.5,1.25A2.09,2.09,0,0,0,718.05,351.12Z"/><path d="M728.82,346.25l-3.42,8.67c-.69,1.75-1.4,2.29-2.6,2.29a2.71,2.71,0,0,1-1-.16v-1.16a2,2,0,0,0,.67.11c.8,0,1.28-.32,1.65-1.49l0-.09L721,346.25h1.56l2.37,6.42h0l2.4-6.42Z"/><path d="M736.84,353.16a3.87,3.87,0,0,1-3.05,1.31c-2.53,0-4-1.67-4-4.2s1.44-4.19,3.76-4.19,3.56,1.73,3.56,3.93a7.26,7.26,0,0,1,0,.83h-5.82a2.57,2.57,0,0,0,4.58,1.44Zm-1.11-3.51c-.09-1.32-.75-2.37-2.18-2.37a2.3,2.3,0,0,0-2.29,2.37Z"/><path d="M739.07,346.25h1.38l0,1.21h0a2.3,2.3,0,0,1,2.07-1.38,1.94,1.94,0,0,1,.67.11v1.39a2.8,2.8,0,0,0-.75-.1,1.88,1.88,0,0,0-2,1.93v4.89h-1.43Z"/><path d="M744.17,353.25l.87-1a3.61,3.61,0,0,0,2.55,1c1.27,0,1.89-.47,1.89-1.16s-.81-.94-2.16-1.23c-1.52-.33-2.87-.79-2.87-2.35,0-1.38,1.08-2.45,3.18-2.45a4.41,4.41,0,0,1,3.14,1.16l-.86,1a3.32,3.32,0,0,0-2.32-.93c-1.13,0-1.7.48-1.7,1.1s.72.91,2.12,1.21,2.91.75,2.91,2.36-1.17,2.52-3.38,2.52A4.67,4.67,0,0,1,744.17,353.25Z"/><path d="M756.32,342.78h1.42v4.62h0a3,3,0,0,1,2.6-1.32,2.65,2.65,0,0,1,2.83,2.82v5.4h-1.42v-5.11a1.73,1.73,0,0,0-1.83-1.88,2.09,2.09,0,0,0-2.21,2.19v4.8h-1.42Z"/><path d="M765.63,342.78h1.54v1.55h-1.54Zm.06,11.52v-8.05h1.42v8.05Z"/><path d="M768.6,346.25h1.6V343.7h1.42v2.55h1.94v1.18h-1.94v4.41c0,1,.26,1.4,1.31,1.4a3.27,3.27,0,0,0,.63-.06v1.15a4.38,4.38,0,0,1-1.12.14,2,2,0,0,1-2.24-2.27v-4.77h-1.6Z"/><path d="M777.77,346.25h1.61V343.7h1.42v2.55h1.94v1.18H780.8v4.41c0,1,.26,1.4,1.31,1.4a3.36,3.36,0,0,0,.63-.06v1.15a4.52,4.52,0,0,1-1.13.14,2,2,0,0,1-2.23-2.27v-4.77h-1.61Z"/><path d="M784.46,342.78h1.43v4.62h0a3,3,0,0,1,2.59-1.32,2.66,2.66,0,0,1,2.84,2.82v5.4h-1.43v-5.11a1.73,1.73,0,0,0-1.83-1.88,2.09,2.09,0,0,0-2.2,2.19v4.8h-1.43Z"/><path d="M800.33,353.16a3.87,3.87,0,0,1-3.05,1.31c-2.53,0-4-1.67-4-4.2s1.44-4.19,3.76-4.19,3.56,1.73,3.56,3.93a7.26,7.26,0,0,1,0,.83h-5.82a2.57,2.57,0,0,0,4.58,1.44Zm-1.11-3.51c-.09-1.32-.75-2.37-2.18-2.37a2.3,2.3,0,0,0-2.29,2.37Z"/><path d="M817.16,346.25l-2.6,8.05h-1.45l-1.94-6.09h0l-1.93,6.09h-1.46l-2.61-8.05h1.5l1.88,6.21h0l1.86-6.21h1.53l1.87,6.24h0l1.88-6.24Z"/><path d="M825.23,353.16a3.87,3.87,0,0,1-3.05,1.31c-2.53,0-4-1.67-4-4.2s1.44-4.19,3.76-4.19,3.56,1.73,3.56,3.93a7.26,7.26,0,0,1,0,.83h-5.82a2.57,2.57,0,0,0,4.58,1.44Zm-1.11-3.51c-.09-1.32-.75-2.37-2.18-2.37a2.3,2.3,0,0,0-2.29,2.37Z"/><path d="M832.09,354.3l0-1.17h0a2.65,2.65,0,0,1-2.43,1.34A2.39,2.39,0,0,1,827,352a2.05,2.05,0,0,1,1.56-2.09,14.94,14.94,0,0,1,3.51-.39v-.72a1.58,1.58,0,0,0-1.79-1.56,1.78,1.78,0,0,0-1.86,1.22l-1.18-.57a3,3,0,0,1,3.09-1.85c1.92,0,3.15,1,3.15,2.76v5.46Zm0-3.18v-.46a20.6,20.6,0,0,0-2.06.16c-.91.12-1.59.38-1.59,1.2s.57,1.25,1.5,1.25A2.09,2.09,0,0,0,832.08,351.12Z"/><path d="M838.55,350.7H837.4v3.6H836V342.78h1.42v6.74h1.23l2.22-3.27h1.69l-2.74,3.87,2.88,4.18H841Z"/><path d="M843.79,349.17h3.57v1.32h-3.57Z"/><path d="M698.87,364.25h1.38l0,1.18h0a3,3,0,0,1,2.61-1.35,2.66,2.66,0,0,1,2.84,2.82v5.4h-1.43v-5.11a1.73,1.73,0,0,0-1.83-1.88,2.09,2.09,0,0,0-2.2,2.19v4.8h-1.43Z"/><path d="M714.74,371.16a3.87,3.87,0,0,1-3,1.31c-2.53,0-4-1.67-4-4.2s1.44-4.19,3.76-4.19S715,365.81,715,368a7.26,7.26,0,0,1,0,.83h-5.82a2.57,2.57,0,0,0,4.58,1.44Zm-1.11-3.51c-.09-1.32-.75-2.37-2.18-2.37a2.3,2.3,0,0,0-2.29,2.37Z"/><path d="M716.22,371.25l.87-1a3.61,3.61,0,0,0,2.55,1c1.27,0,1.89-.47,1.89-1.16s-.81-.94-2.16-1.23c-1.52-.33-2.87-.79-2.87-2.35,0-1.38,1.08-2.45,3.18-2.45a4.41,4.41,0,0,1,3.14,1.16l-.86,1a3.32,3.32,0,0,0-2.32-.93c-1.13,0-1.7.48-1.7,1.1s.72.91,2.12,1.21,2.91.75,2.91,2.36-1.17,2.52-3.38,2.52A4.67,4.67,0,0,1,716.22,371.25Z"/><path d="M724.09,371.25l.87-1a3.62,3.62,0,0,0,2.55,1c1.28,0,1.89-.47,1.89-1.16s-.81-.94-2.16-1.23c-1.51-.33-2.86-.79-2.86-2.35,0-1.38,1.08-2.45,3.18-2.45a4.39,4.39,0,0,1,3.13,1.16l-.85,1a3.34,3.34,0,0,0-2.33-.93c-1.12,0-1.69.48-1.69,1.1s.72.91,2.11,1.21,2.91.75,2.91,2.36-1.17,2.52-3.37,2.52A4.68,4.68,0,0,1,724.09,371.25Z"/><path d="M740.88,372.3l0-1.17h0a2.66,2.66,0,0,1-2.43,1.34,2.39,2.39,0,0,1-2.6-2.43,2.05,2.05,0,0,1,1.56-2.09,15,15,0,0,1,3.51-.39v-.72a1.57,1.57,0,0,0-1.78-1.56,1.77,1.77,0,0,0-1.86,1.22l-1.19-.57a3.06,3.06,0,0,1,3.09-1.85c1.92,0,3.15,1,3.15,2.76v5.46Zm0-3.18v-.46a20.2,20.2,0,0,0-2.05.16c-.92.12-1.59.38-1.59,1.2s.57,1.25,1.5,1.25A2.09,2.09,0,0,0,740.86,369.12Z"/><path d="M744.76,372.3V360.78h1.42V372.3Z"/><path d="M748.7,372.3V360.78h1.42V372.3Z"/><path d="M755.13,364.25h1.61V361.7h1.42v2.55h1.94v1.18h-1.94v4.41c0,1,.26,1.4,1.31,1.4a3.36,3.36,0,0,0,.63-.06v1.15a4.52,4.52,0,0,1-1.13.14,2,2,0,0,1-2.23-2.27v-4.77h-1.61Z"/><path d="M761.82,360.78h1.43v4.62h0a3,3,0,0,1,2.59-1.32,2.66,2.66,0,0,1,2.84,2.82v5.4h-1.43v-5.11a1.73,1.73,0,0,0-1.83-1.88,2.09,2.09,0,0,0-2.2,2.19v4.8h-1.43Z"/><path d="M777.69,371.16a3.87,3.87,0,0,1-3.05,1.31c-2.53,0-4-1.67-4-4.2s1.44-4.19,3.76-4.19S778,365.81,778,368a7.26,7.26,0,0,1,0,.83h-5.82a2.57,2.57,0,0,0,4.58,1.44Zm-1.11-3.51c-.09-1.32-.75-2.37-2.18-2.37a2.3,2.3,0,0,0-2.29,2.37Z"/><path d="M782.41,364.25H784V361.7h1.42v2.55h1.94v1.18h-1.94v4.41c0,1,.26,1.4,1.31,1.4a3.36,3.36,0,0,0,.63-.06v1.15a4.52,4.52,0,0,1-1.13.14A2,2,0,0,1,784,370.2v-4.77h-1.61Z"/><path d="M789,360.78h1.54v1.55H789Zm.06,11.52v-8.05h1.42v8.05Z"/><path d="M794.48,365.33a2.65,2.65,0,0,1,2.37-1.25,2.54,2.54,0,0,1,2.43,1.38,2.93,2.93,0,0,1,2.61-1.38,2.47,2.47,0,0,1,2.69,2.55v5.67h-1.43V367a1.53,1.53,0,0,0-1.66-1.65,1.85,1.85,0,0,0-2,1.92v5.07H798.1V367a1.54,1.54,0,0,0-1.65-1.65,1.86,1.86,0,0,0-2,1.92v5.07H793v-8.05h1.38l0,1.08Z"/><path d="M813.56,371.16a3.87,3.87,0,0,1-3,1.31c-2.53,0-4-1.67-4-4.2s1.44-4.19,3.76-4.19,3.56,1.73,3.56,3.93a7.26,7.26,0,0,1-.05.83H808a2.57,2.57,0,0,0,4.58,1.44Zm-1.11-3.51c-.09-1.32-.75-2.37-2.18-2.37a2.3,2.3,0,0,0-2.29,2.37Z"/><text class="cls-18" transform="translate(519.69 354.3)"><tspan class="cls-21">Player</tspan><tspan x="46.05" y="0">s </tspan><tspan class="cls-21" x="57.45" y="0">neve</tspan><tspan x="92.67" y="0">r </tspan><tspan class="cls-21" x="102.04" y="0">hi</tspan><tspan x="115.36" y="0">t </tspan><tspan class="cls-21" x="124.54" y="0">th</tspan><tspan x="139.56" y="0">e </tspan><tspan class="cls-21" x="0" y="18">weeknes</tspan><tspan x="64.27" y="18">s</tspan></text></g></svg>