<svg xmlns="http://www.w3.org/2000/svg" viewBox="0 0 1333 382"><defs><style>.cls-1,.cls-12,.cls-7{fill:#4f96d0;}.cls-2,.cls-9{fill:#ced0d1;}.cls-3,.cls-8{fill:#eee269;}.cls-4,.cls-5,.cls-6{fill:none;stroke-miterlimit:10;}.cls-4{stroke:#4f96d0;}.cls-5{stroke:#eee269;}.cls-6{stroke:#ced0d1;}.cls-7{font-size:76.69px;letter-spacing:0.05em;}.cls-12,.cls-7,.cls-8,.cls-9{font-family:Usual-Medium, Usual;font-weight:500;}.cls-8{font-size:42.8px;letter-spacing:0.05em;}.cls-9{font-size:34.24px;letter-spacing:0.05em;}.cls-10{font-size:25.56px;letter-spacing:0.05em;}.cls-10,.cls-11{font-family:Usual-Regular, Usual;}.cls-11{font-size:21.15px;letter-spacing:0.05em;}.cls-12{font-size:115.04px;}</style></defs><title>runHero</title><g id="Layer_1" data-name="Layer 1"><rect class="cls-1" x="817.38" y="25.21" width="351.93" height="55.38"/><rect class="cls-2" x="1122.14" y="25.21" width="47.18" height="55.38"/><rect class="cls-3" x="985.42" y="25.21" width="136.72" height="55.38"/><line class="cls-4" x1="816.82" y1="103.65" x2="985.87" y2="103.65"/><line class="cls-5" x1="985.87" y1="95.09" x2="1122.82" y2="95.09"/><line class="cls-6" x1="1122.82" y1="103.65" x2="1169.89" y2="103.65"/><line class="cls-4" x1="901.35" y1="103.65" x2="901.35" y2="203.15"/><line class="cls-5" x1="1054.34" y1="95.09" x2="1054.34" y2="153.94"/><line class="cls-6" x1="1146.35" y1="103.08" x2="1146.35" y2="210.64"/><circle class="cls-1" cx="901.35" cy="203.15" r="4.28"/><circle class="cls-3" cx="1054.34" cy="152.87" r="4.28"/><circle class="cls-2" cx="1146.35" cy="210.64" r="4.28"/><text class="cls-7" transform="translate(781.88 274.89)">18-29</text><text class="cls-8" transform="translate(987.14 194.89)">30-45</text><text class="cls-9" transform="translate(1064.8 252.51)">OVER 45</text><text class="cls-10" transform="translate(787.22 317.41)">Fitness is especially popular <tspan x="0" y="30.68">among young people</tspan></text><rect class="cls-3" x="129.15" y="27.67" width="49.11" height="194.21"/><rect class="cls-1" x="220.44" y="100.33" width="49.1" height="121.73"/><rect class="cls-3" x="304.18" y="161.19" width="49.11" height="60.87"/><text class="cls-11" transform="translate(126.79 273.43)">Walk</text><text class="cls-11" transform="translate(223.61 273.43)">Run</text><text class="cls-11" transform="translate(290.57 273.43)">Bicycle</text><line class="cls-4" x1="107.24" y1="235.24" x2="373.72" y2="235.24"/><circle class="cls-1" cx="107.24" cy="235.24" r="4.23"/><circle class="cls-1" cx="376.9" cy="236.3" r="4.23"/><text class="cls-10" transform="translate(99.89 322.12)">Running is the second<tspan x="0" y="30.68">popular fitness workout</tspan></text><text class="cls-12" transform="translate(318.19 115.33)">#2</text></g></svg>