<svg xmlns="http://www.w3.org/2000/svg" viewBox="0 0 1333 382"><defs><style>.cls-1{fill:#e4d96c;}.cls-11,.cls-12,.cls-2,.cls-3{fill:#4f96d0;}.cls-3{font-size:81.65px;}.cls-11,.cls-12,.cls-3{font-family:Usual-Medium, Usual;font-weight:500;}.cls-4{letter-spacing:0.05em;}.cls-5{letter-spacing:0.05em;}.cls-10,.cls-6{fill:none;stroke-miterlimit:10;}.cls-6{stroke:#4f96d0;}.cls-7{font-size:25.56px;font-family:Usual-Regular, Usual;letter-spacing:0.05em;}.cls-8{fill:#e8e056;}.cls-9{fill:#378ac9;}.cls-10{stroke:#378ac9;}.cls-11{font-size:87.4px;letter-spacing:0.05em;}.cls-12{font-size:28.71px;}.cls-13{letter-spacing:0.05em;}.cls-14{letter-spacing:0.05em;}</style></defs><title>runHero</title><g id="Layer_1" data-name="Layer 1"><path class="cls-1" d="M96.91,178.47c1.33.8,2.62,1.66,4,2.39,4.94,2.59,10,1,15-4.83,3.25-3.8,2.37-7.87,0-11.59a11.69,11.69,0,0,0-4.69-3.8c-2.71-1.33-3.33-2.76-2.94-6a106.45,106.45,0,0,0,.38-19c-.18-2.95.29-4.56,3-5.62,2.22-.88,4.34-2,6.5-3,10.35-4.9,12.21-9,8.9-20.06,8.06,3.54,12.56,9.8,12.27,17.92-.4,11.17-2.15,22.31-3.82,33.38-.69,4.55-2.85,8.85-4,13.35a10,10,0,0,0,.09,5.58c5.81,15.79,11.9,31.48,17.67,47.29a17.69,17.69,0,0,1,.74,7.93c-2.29,18.93-1.91,37.86.07,56.75.23,2.27,3,4.67,5.09,6.26,3.93,3,8.4,5.19,12.37,8.1,1.35,1,1.88,3.12,2.78,4.73-1.6.84-3.13,2.16-4.82,2.42-9.57,1.52-18.71-.93-27.65-3.88-4.77-1.57-5.05-3.5-2.77-8a37.15,37.15,0,0,0,2.26-29.43c-3.52-10.68-5.24-21.44-3.48-32.73.37-2.41-.82-5.68-2.39-7.68-10.27-13.11-21-25.88-31.23-39-2.3-2.95-3.36-6.87-5-10.34l1.73-1.16"/><path class="cls-1" d="M94.2,191.51c5,5.88,9.47,10.88,13.58,16.17a4.79,4.79,0,0,1-.2,4.54c-6.5,7.47-13.08,14.89-20,22-3.41,3.51-8,3.19-12.6,2.39-9.09-1.6-18.18-3.31-27.34-4.3a104.7,104.7,0,0,0-18.57-.08A23,23,0,0,0,14,239.63c-2.77,2.87-5.67,5.65-8.66,8.28-.85.74-2.77,1.5-3.27,1.1A5.51,5.51,0,0,1,.53,245.4a10.08,10.08,0,0,1,.7-4.73c3.63-8,7.32-16,11.25-23.84,1.64-3.27,3.85-3.92,7.22-1.24,7.57,6,16.21,7.44,25.65,5.12s19-3.88,28.69-.58c1.3.44,4-.62,4.77-1.81,3.92-6,7.47-12.21,11-18.41,1.56-2.71,2.88-5.55,4.35-8.4"/><path class="cls-2" d="M98.29,186.89c-1.15-2.33-2-4.9-3.11-7.26l1.73-1.16c1.32.8,2.62,1.66,4,2.39,4.93,2.59,10,1,15-4.83,3.25-3.8,2.37-7.87,0-11.59a11.78,11.78,0,0,0-4.69-3.8c-2.71-1.33-3.33-2.75-2.94-6a106.54,106.54,0,0,0,.38-19c-.18-2.94.3-4.55,3-5.61,2.22-.88,4.34-2,6.5-3,10.35-4.9,12.21-9,8.89-20.06,8.07,3.54,12.56,9.81,12.28,17.93-.39,11.16-2.15,22.3-3.82,33.37-.69,4.55-2.84,8.85-4,13.35a9.89,9.89,0,0,0,.09,5.58c2.14,5.83,4.33,11.64,6.52,17.45"/><path class="cls-2" d="M123.94,116.72c-1.5,1.3-3.69,4.09-6.56,5.54-8.79,4.45-17.77,8.56-26.84,12.43-3.65,1.56-4.1,3.44-2.3,6.59,1.34,2.36,2.54,4.81,3.9,7.16,4.06,7,8.71,13.3,16.81,16.2,3.88,1.38,5.39,5.35,3.83,7.94-2.55,4.24-7.51,6-10.7,3.45a24.63,24.63,0,0,1-4.72-5.82c-2.67-4.1-4.91-8.48-7.72-12.47-4.14-5.87-8.92-11.29-12.85-17.29-3.26-5-2.5-7.8,2.39-10.85,10.69-6.65,21.5-13.08,32.32-19.5a16.06,16.06,0,0,1,5.33-2c4.1-.7,7.69,2.76,7.11,8.6"/><path class="cls-2" d="M133.13,68.36a16.24,16.24,0,0,1,14.11,18c-1,8.41-9.35,15.05-17.63,14.05s-15-9.3-14.18-17.65a16.16,16.16,0,0,1,17.7-14.36"/><path class="cls-2" d="M140.85,159.13c-.43-5.12,1.14-7.58,5.6-7.73.48,0,1,0,1.43,0,5.54,0,9.71-1.75,11.14-7.84.42-1.77,1.73-3.33,2.86-5.41l2,3.52c2.89-2.13,5.11-1.76,6.91,1.57,1.93,3.58-.21,5.17-2.53,7.11-7.93,6.64-17.89,6.08-27.4,8.81"/><text class="cls-3" transform="translate(200.01 147.81)"><tspan class="cls-4">55</tspan><tspan class="cls-5" x="112.83" y="0">.</tspan><tspan class="cls-4" x="142.23" y="0">5</tspan><tspan x="198.64" y="0">%</tspan></text><line class="cls-6" x1="482.03" y1="169.43" x2="147" y2="169.43"/><path class="cls-2" d="M482,173.64a4.21,4.21,0,1,0-4.2-4.21,4.22,4.22,0,0,0,4.2,4.21"/><text class="cls-7" transform="translate(177.91 214.83)">of Americans exercised <tspan x="0" y="30.68">three or more days in a </tspan><tspan x="0" y="61.35">week</tspan></text><path class="cls-8" d="M766,127.86a8.2,8.2,0,0,0,1,4.47c1.78,3.56,2.12,6.38-3.46,5.87-2.93-.26-2.71,2.14-2.72,4.09,0,5.26.13,10.53-.06,15.78-.14,4.05-2,5.43-5.61,2.74V139.16h-1.85v21.62c-3.49,2.58-5.47,1.46-5.63-2.63-.21-5.4,0-10.82-.08-16.23,0-1.73.15-4-2.39-3.71-6.71.7-4.63-3.27-3.77-6.69,3.08-6.77,4.31-14,6-21.19-3.92,5.48-3.77,12.42-7.19,18-3-.24-3.48-1.9-2.72-4.47,1.66-5.59,3.16-11.24,4.91-16.8,1.9-6,6.93-5.86,12-5.91s10,.28,11.85,6.15c1.77,5.55,3.31,11.19,4.91,16.8,1,3.48-.79,4.17-3.75,3.62l-5.29-17.26-1.47.49c1.75,5.65,2.57,11.57,5.43,16.89"/><path class="cls-8" d="M754.48,99.8c-3.92-.18-6.35-2.2-6.46-6-.08-3.48,2-6,5.59-6.19,3.74-.23,6.38,1.68,6.61,5.68s-1.87,6.09-5.74,6.53"/><path class="cls-8" d="M766,215.37a8.23,8.23,0,0,0,1,4.48c1.78,3.56,2.12,6.37-3.46,5.87-2.93-.27-2.71,2.13-2.72,4.08,0,5.26.13,10.53-.06,15.79-.14,4-2,5.42-5.61,2.74V226.67h-1.85v21.61c-3.49,2.58-5.47,1.47-5.63-2.63-.21-5.4,0-10.82-.08-16.23,0-1.73.15-4-2.39-3.7-6.71.7-4.63-3.28-3.77-6.69,3.08-6.78,4.31-14,6-21.19-3.92,5.47-3.77,12.41-7.19,18-3-.24-3.48-1.9-2.72-4.47,1.66-5.59,3.16-11.24,4.91-16.8,1.9-6,6.93-5.85,12-5.9s10,.27,11.85,6.14c1.77,5.55,3.31,11.19,4.91,16.8,1,3.48-.79,4.18-3.75,3.62q-2.64-8.62-5.29-17.26l-1.47.49c1.75,5.65,2.57,11.57,5.43,16.89"/><path class="cls-8" d="M754.48,187.31c-3.92-.18-6.35-2.2-6.46-6-.08-3.48,2-6,5.59-6.19,3.74-.23,6.38,1.68,6.61,5.69s-1.87,6.08-5.74,6.52"/><path class="cls-8" d="M706.73,158.78a3.54,3.54,0,0,1-4.8,2.14c-2.34-.81-2.26-3-2.27-4.94-.07-12.94-.07-25.88-.16-38.82,0-1.91.51-3.91-1.3-7.12,0,6.12,0,10.86,0,15.6,0,2-.05,4.3-2.82,4.17-2.33-.11-2.42-2.2-2.43-4,0-6.07-.14-12.16.1-18.23.17-4.31,2.64-6.92,7.09-7.08,4.89-.16,9.8-.17,14.7-.06,4.71.1,7.3,2.91,7.54,7.38.32,6.06.1,12.15.16,18.23,0,2-.7,3.7-2.8,3.8-2.35.12-2.72-1.87-2.74-3.71,0-5,0-10-1.41-14.94v41a40.91,40.91,0,0,1,0,4.7c-.56,5-3.21,5.21-6.87,2.81q-.23-14-.47-28.06c-.2-.28-.35-.72-.59-.77l-.87.41c0,6.68,0,13.36,0,20,0,2.47,0,5,0,7.43"/><path class="cls-8" d="M707.8,98.64c-3.94-.35-6.18-2.24-6.26-6-.09-4,2.25-6.35,6.15-6.31s6,2.59,6,6.53-2.66,5.34-5.87,5.74"/><path class="cls-9" d="M799.86,159.86a3.52,3.52,0,0,1-4.8,2.14c-2.34-.8-2.26-3-2.27-4.94-.07-12.94-.07-25.88-.16-38.82,0-1.9.51-3.9-1.3-7.11,0,6.12,0,10.86,0,15.6,0,2-.05,4.3-2.82,4.17-2.32-.11-2.42-2.2-2.42-4,0-6.08-.15-12.16.09-18.23.17-4.31,2.65-6.93,7.09-7.08,4.89-.16,9.8-.17,14.7-.07,4.71.1,7.3,2.92,7.54,7.38.32,6.06.11,12.16.16,18.24,0,2-.69,3.69-2.8,3.8-2.35.12-2.72-1.87-2.74-3.72,0-5,0-10-1.41-14.94v41a41.08,41.08,0,0,1,0,4.71c-.56,5-3.21,5.2-6.86,2.81l-.48-28.07c-.2-.27-.35-.71-.59-.77l-.87.41c0,6.68,0,13.36,0,20q0,3.72,0,7.43"/><path class="cls-9" d="M800.93,99.72c-3.94-.34-6.17-2.24-6.26-6-.08-4,2.25-6.36,6.15-6.31s6,2.58,6,6.52-2.66,5.34-5.87,5.74"/><path class="cls-8" d="M706.73,246.29a3.53,3.53,0,0,1-4.8,2.14c-2.34-.81-2.26-3-2.27-4.94-.07-12.94-.07-25.88-.16-38.82,0-1.91.51-3.9-1.3-7.12,0,6.13,0,10.87,0,15.6,0,2-.05,4.3-2.82,4.17-2.33-.11-2.42-2.2-2.43-4,0-6.08-.14-12.17.1-18.23.17-4.31,2.64-6.93,7.09-7.08,4.89-.17,9.8-.18,14.7-.07,4.71.1,7.3,2.91,7.54,7.38.32,6.06.1,12.15.16,18.23,0,2-.7,3.7-2.8,3.81-2.35.11-2.72-1.88-2.74-3.72,0-5,0-10-1.41-14.94v41a40.91,40.91,0,0,1,0,4.7c-.56,5-3.21,5.21-6.87,2.81q-.23-14-.47-28.06c-.2-.27-.35-.72-.59-.77l-.87.41c0,6.68,0,13.36,0,20,0,2.48,0,5,0,7.43"/><path class="cls-8" d="M707.8,186.15c-3.94-.35-6.18-2.24-6.26-6-.09-4,2.25-6.36,6.15-6.31s6,2.58,6,6.52-2.66,5.34-5.87,5.74"/><path class="cls-9" d="M799.86,247.38a3.52,3.52,0,0,1-4.8,2.13c-2.34-.8-2.26-3-2.27-4.93-.07-12.94-.07-25.88-.16-38.82,0-1.91.51-3.91-1.3-7.12,0,6.12,0,10.86,0,15.6,0,2-.05,4.3-2.82,4.17-2.32-.11-2.42-2.2-2.42-4,0-6.07-.15-12.16.09-18.23.17-4.31,2.65-6.92,7.09-7.08,4.89-.16,9.8-.17,14.7-.07,4.71.1,7.3,2.92,7.54,7.39.32,6.06.11,12.15.16,18.23,0,2-.69,3.7-2.8,3.8-2.35.12-2.72-1.87-2.74-3.72,0-5,0-10-1.41-14.93v41a41.08,41.08,0,0,1,0,4.71c-.56,5-3.21,5.21-6.86,2.81l-.48-28.07c-.2-.27-.35-.71-.59-.77l-.87.42c0,6.67,0,13.35,0,20q0,3.72,0,7.44"/><path class="cls-9" d="M800.93,187.24c-3.94-.35-6.17-2.25-6.26-6-.08-4,2.25-6.35,6.15-6.31s6,2.59,6,6.52-2.66,5.34-5.87,5.75"/><line class="cls-10" x1="1109.05" y1="128.24" x2="848.89" y2="128.24"/><text class="cls-11" transform="translate(943.55 112.14)">1/3</text><circle class="cls-9" cx="1108.67" cy="128.9" r="4.23"/><text class="cls-12" transform="translate(1186.94 207.97)"><tspan class="cls-13">51</tspan><tspan class="cls-14" x="39.67" y="0">.</tspan><tspan class="cls-13" x="50" y="0">7</tspan><tspan x="69.84" y="0">%</tspan></text><line class="cls-10" x1="1328.21" y1="221.91" x2="1195.08" y2="221.91"/><text class="cls-12" transform="translate(1186.94 102.65)"><tspan class="cls-13">48</tspan><tspan class="cls-14" x="39.67" y="0">.</tspan><tspan class="cls-13" x="50" y="0">3</tspan><tspan x="69.84" y="0">%</tspan></text><line class="cls-10" x1="1328.21" y1="116.6" x2="1195.08" y2="116.6"/><circle class="cls-9" cx="1328.63" cy="116.21" r="4.23"/><circle class="cls-9" cx="1328.63" cy="221.96" r="4.23"/><path class="cls-9" d="M1156.92,151.4a3.52,3.52,0,0,1-4.8,2.14c-2.34-.8-2.26-3-2.27-4.94-.07-12.94-.07-25.88-.16-38.82,0-1.9.51-3.9-1.3-7.11,0,6.12,0,10.86,0,15.6,0,2-.05,4.3-2.82,4.17-2.32-.11-2.42-2.2-2.42-4,0-6.08-.15-12.16.09-18.23.17-4.31,2.65-6.93,7.09-7.08,4.89-.16,9.8-.17,14.7-.07,4.71.1,7.3,2.92,7.54,7.38.32,6.06.11,12.16.16,18.24,0,2-.69,3.69-2.8,3.8-2.35.12-2.72-1.87-2.74-3.72,0-5,0-10-1.4-14.94v41a43.48,43.48,0,0,1,0,4.71c-.56,5-3.21,5.2-6.86,2.81l-.48-28.07c-.2-.27-.35-.71-.59-.77l-.87.41c0,6.68,0,13.36,0,20q0,3.72,0,7.43"/><path class="cls-9" d="M1158,91.26c-3.94-.34-6.17-2.24-6.26-6-.08-4,2.25-6.36,6.15-6.31s6,2.58,6,6.52-2.66,5.34-5.87,5.74"/><path class="cls-9" d="M1170,226a8.22,8.22,0,0,0,1,4.47c1.78,3.56,2.12,6.38-3.46,5.87-2.93-.27-2.71,2.14-2.71,4.09,0,5.26.13,10.53-.07,15.78-.14,4-2,5.43-5.6,2.74V237.25h-1.86v21.62c-3.49,2.57-5.47,1.46-5.63-2.63-.21-5.4,0-10.82-.07-16.23,0-1.73.14-4-2.4-3.71-6.71.7-4.63-3.28-3.76-6.69,3.07-6.78,4.3-14,6-21.19-3.92,5.48-3.77,12.41-7.18,18-3-.25-3.49-1.91-2.73-4.47,1.67-5.59,3.16-11.24,4.92-16.8,1.89-6,6.92-5.86,11.94-5.91s10,.27,11.85,6.14c1.77,5.56,3.31,11.19,4.91,16.81,1,3.48-.79,4.17-3.75,3.62q-2.64-8.64-5.29-17.26l-1.47.49c1.75,5.65,2.57,11.57,5.43,16.89"/><path class="cls-9" d="M1158.44,197.89c-3.92-.18-6.35-2.2-6.45-6-.09-3.49,2-6,5.58-6.2,3.74-.22,6.39,1.68,6.61,5.69s-1.87,6.08-5.74,6.53"/><text class="cls-7" transform="translate(701.6 322.88)">App plays an important role in fitness</text><text class="cls-7" transform="translate(849.12 160.63)">of Americans using <tspan x="0" y="30.68">fitness &amp; health </tspan><tspan x="0" y="61.35">mobile application</tspan></text></g></svg>