<svg id="Layer_1" data-name="Layer 1" xmlns="http://www.w3.org/2000/svg" viewBox="0 0 746.9 139.66"><defs><style>.cls-1{font-size:16.82px;fill:#231916;font-family:SFUIDisplay-Bold, SF UI Display;font-weight:700;}.cls-2{letter-spacing:-0.01em;}.cls-3{letter-spacing:-0.02em;}.cls-4{letter-spacing:0em;}.cls-5{letter-spacing:-0.01em;}</style></defs><title>Hangman Game Intro</title><text class="cls-1" transform="translate(232 108.48)"><tspan class="cls-2">L</tspan><tspan x="9.01" y="0">ogin</tspan></text><text class="cls-1" transform="translate(3.99 102.18)">Sign up <tspan class="cls-2" x="60.63" y="0">t</tspan><tspan x="66.48" y="0">o c</tspan><tspan class="cls-3" x="88.6" y="0">r</tspan><tspan x="94.43" y="0">ea</tspan><tspan class="cls-2" x="112.97" y="0">t</tspan><tspan x="118.82" y="0">e an </tspan><tspan x="43.93" y="20.18">account</tspan></text><text class="cls-1" transform="translate(393.75 107.81)">Pl<tspan class="cls-4" x="14.46" y="0">a</tspan><tspan x="23.62" y="0">y the game</tspan></text><text class="cls-1" transform="translate(636.5 107.81)">Get <tspan class="cls-5" x="30.86" y="0">r</tspan><tspan x="36.78" y="0">ank</tspan></text><path d="M280.88,51.15V73.33a3.5,3.5,0,0,1-3.72,3.78c-13.67,0-27.34,0-41,0a3.84,3.84,0,0,1-3.79-3.7c.09-3.06,0-6.13,0-9.2,0-.73.2-1,1-1,2.51,0,2.51-.06,2.51,2.48,0,1.91,0,3.82,0,5.73,0,1.55.63,2.19,2.14,2.19q18.62,0,37.22,0c1.53,0,2.18-.64,2.18-2.15q0-20.34,0-40.69c0-1.54-.62-2.16-2.15-2.16H238c-1.53,0-2.15.62-2.15,2.17,0,2.41,0,4.83,0,7.25,0,.76-.26,1-1,1-2.49,0-2.49.05-2.49-2.41s0-5.12,0-7.68a3.51,3.51,0,0,1,3.76-3.8c13.67,0,27.34,0,41,0a3.88,3.88,0,0,1,3.76,3.73C280.82,36.29,280.88,43.72,280.88,51.15Z"/><path d="M267.66,52.88h-1.37q-19.16,0-38.3,0a4.05,4.05,0,0,1-1.66-.31,1.33,1.33,0,0,1-.8-1.77A3.82,3.82,0,0,1,227,49.45c.29-.18.78-.05,1.17-.05H268c-.55-.59-.87-.95-1.2-1.29q-4.69-4.71-9.39-9.41c-1.05-1.06-1-2.12,0-2.83s1.68-.24,2.38.46c2.7,2.71,5.4,5.4,8.09,8.11,1.76,1.76,3.52,3.51,5.26,5.29,1.08,1.1,1.1,1.78,0,2.86Q266.51,59.28,259.8,66c-1,1-1.88,1-2.64.26s-.7-1.68.25-2.64q4.68-4.71,9.4-9.39a7.27,7.27,0,0,1,1.17-.79Z"/><path d="M493.27,60.61a18.54,18.54,0,0,1-2.07,9.45c-2.8,5.57-6.7,6.48-12.18,5.25a21.64,21.64,0,0,1-12.67-8.4,16.9,16.9,0,0,0-7.69-5.43c-9.32-3.77-18.26-2.62-26.84,2.25a7.3,7.3,0,0,0-2,2c-3.43,4.42-7.55,7.88-13,9.43-7.89,2.24-12.26-1.34-14.19-8.51-1.89-7-.17-13.63,2.41-20.11a48.38,48.38,0,0,1,7.65-13.38c3.66-4.37,8.5-6.38,14-7.5,11-2.26,22.14-1.68,33.22-1.2A59,59,0,0,1,474.1,27.2c5.51,1.67,9,6.05,11.82,10.83a56.44,56.44,0,0,1,7.15,18.66A28.36,28.36,0,0,1,493.27,60.61ZM421.21,40.23c-.95.43-2.4.61-2.74,1.33-1.31,2.78.06,4.69,3.1,4.7,2.42,0,2.42,0,2.43,2.42a8.69,8.69,0,0,0,.05,1.77c.09.42.39,1.09.67,1.12a10.6,10.6,0,0,0,4,.09c.52-.14.91-1.63.95-2.53.13-3.15-.28-2.87,2.89-2.89h.18c2.37,0,2.67-.31,2.68-2.67,0-2.85-.11-3-2.65-3-3.26,0-3,.44-3.05-3.07a4.25,4.25,0,0,0-.05-1.24c-.13-.42-.42-1.1-.69-1.12a12.2,12.2,0,0,0-4.18,0c-.45.12-.69,1.7-.72,2.63C424,40.58,424,40.58,421.21,40.23Zm52.06.36a2.76,2.76,0,0,0-2.85,2.73,2.82,2.82,0,1,0,5.63.06A2.75,2.75,0,0,0,473.27,40.59Zm-6.53,6.47A2.73,2.73,0,0,0,464,49.85a2.86,2.86,0,0,0,2.8,2.83,3,3,0,0,0,2.83-2.85A2.83,2.83,0,0,0,466.74,47.06Zm2.85-10.25a2.81,2.81,0,0,0-2.93-2.7A2.65,2.65,0,0,0,464,37a2.8,2.8,0,0,0,2.77,2.68A3,3,0,0,0,469.59,36.81Zm-6.48,6.46a2.84,2.84,0,0,0-3-2.68,2.62,2.62,0,0,0-2.64,2.93,2.84,2.84,0,0,0,2.8,2.68A3.14,3.14,0,0,0,463.11,43.27Z"/><path d="M661,43.3q0-13.71,0-27.42c0-2.62.84-3.48,3.45-3.48h19c2.47,0,3.36.92,3.36,3.42q0,27.59,0,55.15c0,2.48-.93,3.41-3.38,3.42q-9.59,0-19.19,0c-2.32,0-3.26-1-3.26-3.36Q661,57.17,661,43.3Zm11.48-21.55c0,.56.13,1.12.13,1.68q0,5,0,10c0,1.25.53,2.14,1.84,2.16a1.88,1.88,0,0,0,2-2.09q.06-6.85,0-13.7a2,2,0,0,0-2.53-2.16,16,16,0,0,0-3,.74c-1.06.36-2.39.75-2,2.24s1.59,1.57,2.88,1.11A2.75,2.75,0,0,1,672.47,21.75Z"/><path d="M657.14,51.09V70.93c0,2.54-.93,3.46-3.51,3.46q-8.79,0-17.58,0c-2.58,0-3.45-.89-3.45-3.45V31.1c0-2.25.93-3.2,3.21-3.2q9,0,18.06,0c2.33,0,3.26,1,3.27,3.36Zm-12.53-3.27-.17-.47c.5-.45,1-.92,1.52-1.36,1.1-.94,2.28-1.79,3.31-2.81A5.85,5.85,0,0,0,651,36.87a5.32,5.32,0,0,0-4.79-3.74c-2.73-.34-5.18.35-6.84,2.66a2.36,2.36,0,0,0,.16,2.26c.4.4,1.5.22,2.27.12.36-.05.65-.53,1-.79a3,3,0,0,1,3.85-.14c.94.95.88,2.47-.24,3.81a14.83,14.83,0,0,1-1.84,1.79c-1.76,1.5-3.64,2.87-5.28,4.49a3.33,3.33,0,0,0-.8,2.64c.1.51,1.39,1.07,2.16,1.11,2.9.12,5.81,0,8.71.05,1.17,0,2.08-.33,2.11-1.65s-.92-1.66-2.07-1.66Z"/><path d="M715.23,58.89q0,6.21,0,12.41a2.79,2.79,0,0,1-3.07,3.08q-9.18,0-18.37,0a2.79,2.79,0,0,1-3.08-3.1q0-12.33,0-24.66c0-2.2,1.07-3.24,3.28-3.24q9,0,18,0c2.18,0,3.2,1,3.2,3.25Q715.24,52.77,715.23,58.89Zm-10.36-3.46A39.48,39.48,0,0,0,708.51,52a2.66,2.66,0,0,0,.54-2.27A2.75,2.75,0,0,0,707,48.62c-2.58-.13-5.16,0-7.75,0-1.15,0-2.08.29-2.1,1.63s1,1.64,2.08,1.63h4.25l.11.46c-.48.55-1,1.11-1.45,1.65s-1.17,1.13-1.67,1.75c-1,1.32-.56,2.64,1.09,3,.74.14,1.63-.07,2.22.28a4,4,0,0,1,1.73,2C705.8,62,705,62.69,703.9,63a4.85,4.85,0,0,1-4.21-1.06,1.82,1.82,0,0,0-2.82.31c-.76,1.06-.24,1.91.64,2.64a8.7,8.7,0,0,0,9,1,5.41,5.41,0,0,0,2.91-5.34,4.44,4.44,0,0,0-3.15-4.23A10.53,10.53,0,0,1,704.87,55.43Z"/><path d="M107.3,50.9c0,5.75,0,11.49,0,17.24A11,11,0,0,1,99.45,78.6a7,7,0,0,1-1.87.24q-3.87,0-7.73,0c-1.46,0-2.24-.67-2.24-1.86s.83-1.94,2.21-1.95c2.46,0,4.91,0,7.37,0a6.08,6.08,0,0,0,6.24-6c.11-2.89,0-5.78,0-8.67,0-9,0-17.92,0-26.87,0-3.51-1.69-5.7-5-6.74a6,6,0,0,0-1.75-.23c-11.61,0-23.22,0-34.83,0A6.58,6.58,0,0,0,55,33.34q0,17.47,0,35a6.48,6.48,0,0,0,4.28,6.47,6.29,6.29,0,0,0,2,.26c2.53,0,5.07,0,7.6,0,1.64,0,2.6,1.46,1.8,2.74a2.44,2.44,0,0,1-1.69,1,74.07,74.07,0,0,1-8.56,0c-4.06-.34-6.7-2.87-8.26-6.45a12.24,12.24,0,0,1-1-4.71c-.08-11.26-.05-22.51,0-33.77A11.11,11.11,0,0,1,62.3,22.7c11.26,0,22.51.08,33.77,0,6-.06,11.44,5.37,11.26,11.24C107.17,39.56,107.3,45.23,107.3,50.9Z"/><path d="M81.09,56.19V76.58c0,.39,0,.79,0,1.18a2,2,0,0,1-1.93,2,1.94,1.94,0,0,1-1.88-2c0-3.13,0-6.26,0-9.39,0-3.64,0-7.29,0-10.93,0-.42,0-.83-.07-1.52-.47.43-.76.67-1,.94-1.37,1.36-2.73,2.74-4.12,4.1-1,1-2.09,1.08-2.93.26a2,2,0,0,1,.23-2.94c1.39-1.42,2.8-2.81,4.19-4.22s2.66-2.71,4-4.08a2.26,2.26,0,0,1,3.37,0l7.71,7.9.41.43a2,2,0,0,1,.21,2.94c-.84.81-1.87.73-2.92-.29-1.31-1.27-2.58-2.57-3.87-3.85-.33-.33-.68-.65-1-1Z"/><path d="M79.12,46H71.4c-1.53,0-2.3-.67-2.29-1.93s.8-1.88,2.24-1.89q7.83,0,15.66,0c1.44,0,2.23.69,2.24,1.88S88.49,46,87,46Z"/></svg>