<svg id="Layer_1" data-name="Layer 1" xmlns="http://www.w3.org/2000/svg" viewBox="0 0 746.9 242.36"><defs><style>.cls-1{font-size:17.83px;}.cls-1,.cls-13,.cls-17,.cls-28,.cls-5{fill:#231916;}.cls-1,.cls-23,.cls-25,.cls-28,.cls-5{font-family:SFUIDisplay-Medium, SF UI Display;font-weight:500;}.cls-2{letter-spacing:0em;}.cls-3{letter-spacing:-0.01em;}.cls-4{letter-spacing:-0.01em;}.cls-5{font-size:10.7px;}.cls-6{letter-spacing:0.01em;}.cls-7{letter-spacing:-0.07em;}.cls-8{letter-spacing:-0.06em;}.cls-9{letter-spacing:-0.02em;}.cls-10{letter-spacing:-0.01em;}.cls-11{letter-spacing:-0.01em;}.cls-12{letter-spacing:0em;}.cls-14{font-size:14.42px;}.cls-14,.cls-23,.cls-24,.cls-25,.cls-27{fill:#fff;}.cls-14,.cls-17{font-family:SFUIDisplay-Regular, SF UI Display;}.cls-15{letter-spacing:0.01em;}.cls-16{fill:none;}.cls-16,.cls-27{stroke:#231916;stroke-miterlimit:10;}.cls-17,.cls-23{font-size:21.4px;}.cls-18{letter-spacing:-0.01em;}.cls-19{letter-spacing:-0.03em;}.cls-20{letter-spacing:-0.01em;}.cls-21{letter-spacing:0em;}.cls-22{letter-spacing:-0.01em;}.cls-25{font-size:14.27px;}.cls-26{letter-spacing:0em;}.cls-28{font-size:12.54px;}</style></defs><title>Hangman Game Intro</title><text class="cls-1" transform="translate(337.16 15.56)">.<tspan class="cls-2" x="4.68" y="0">A</tspan><tspan class="cls-3" x="16.27" y="0">J</tspan><tspan class="cls-4" x="25.41" y="0">A</tspan><tspan x="36.82" y="0">X </tspan></text><text class="cls-1" transform="translate(337.16 141.48)">.<tspan class="cls-2" x="4.68" y="0">A</tspan><tspan class="cls-3" x="16.27" y="0">J</tspan><tspan class="cls-4" x="25.41" y="0">A</tspan><tspan x="36.82" y="0">X </tspan></text><text class="cls-5" transform="translate(324.83 37.42)">Use<tspan class="cls-6" x="18.31" y="0">r</tspan><tspan class="cls-7" x="21.89" y="0">’</tspan><tspan x="24.05" y="0">s selection</tspan></text><text class="cls-5" transform="translate(328.4 75.44)"><tspan class="cls-8">W</tspan><tspan x="9.45" y="0">o</tspan><tspan class="cls-9" x="15.29" y="0">r</tspan><tspan x="18.57" y="0">d </tspan><tspan class="cls-10" x="26.82" y="0">t</tspan><tspan x="30.12" y="0">o guess</tspan></text><text class="cls-5" transform="translate(551.94 75.44)"><tspan class="cls-8">W</tspan><tspan x="9.45" y="0">o</tspan><tspan class="cls-9" x="15.29" y="0">r</tspan><tspan x="18.57" y="0">d </tspan><tspan class="cls-11" x="26.82" y="0">v</tspan><tspan x="32.04" y="0">alue</tspan></text><text class="cls-5" transform="translate(545.07 37.42)"><tspan class="cls-8">W</tspan><tspan x="9.45" y="0">o</tspan><tspan class="cls-9" x="15.29" y="0">r</tspan><tspan x="18.57" y="0">d </tspan><tspan class="cls-12" x="26.82" y="0">R</tspan><tspan x="33.37" y="0">equest</tspan></text><rect class="cls-13" y="11.05" width="67.75" height="67.75"/><text class="cls-14" transform="translate(14.66 34.02)"><tspan class="cls-15">Selec</tspan><tspan x="34.08" y="0">t </tspan><tspan class="cls-15" x="-8.01" y="17.3">Difficult</tspan><tspan x="39.43" y="17.3">y</tspan></text><line class="cls-16" x1="159.48" y1="44.92" x2="82.14" y2="44.92"/><polygon class="cls-13" points="163.01 44.92 158.04 42.89 159.22 44.92 158.04 46.96 163.01 44.92"/><line class="cls-16" x1="159.48" y1="168.78" x2="82.14" y2="168.78"/><polygon class="cls-13" points="163.01 168.78 158.04 166.75 159.22 168.78 158.04 170.81 163.01 168.78"/><line class="cls-16" x1="85.67" y1="183.05" x2="163.01" y2="183.05"/><polygon class="cls-13" points="82.14 183.05 87.11 185.08 85.93 183.05 87.11 181.02 82.14 183.05"/><line class="cls-16" x1="408.98" y1="44.92" x2="310.28" y2="44.92"/><polygon class="cls-13" points="412.51 44.92 407.53 42.89 408.71 44.92 407.53 46.96 412.51 44.92"/><line class="cls-16" x1="628.63" y1="44.92" x2="529.93" y2="44.92"/><polygon class="cls-13" points="632.16 44.92 627.19 42.89 628.37 44.92 627.19 46.96 632.16 44.92"/><line class="cls-16" x1="533.46" y1="59.47" x2="632.16" y2="59.47"/><polygon class="cls-13" points="529.93 59.47 534.91 61.51 533.73 59.47 534.91 57.44 529.93 59.47"/><rect class="cls-16" x="179.97" y="21.95" width="117.03" height="45.95"/><text class="cls-17" transform="translate(192.47 50.57)">Ja<tspan class="cls-18" x="21.34" y="0">v</tspan><tspan x="31.46" y="0">ascript</tspan></text><rect class="cls-16" x="179.97" y="152.94" width="117.03" height="45.95"/><text class="cls-17" transform="translate(192.47 181.56)">Ja<tspan class="cls-18" x="21.34" y="0">v</tspan><tspan x="31.46" y="0">ascript</tspan></text><line class="cls-16" x1="313.81" y1="59.47" x2="412.51" y2="59.47"/><polygon class="cls-13" points="310.28 59.47 315.25 61.51 314.07 59.47 315.25 57.44 310.28 59.47"/><text class="cls-5" transform="translate(326.19 161.13)">User<tspan class="cls-19" x="21.82" y="0">s</tspan><tspan x="26.65" y="0">’ guesses</tspan></text><text class="cls-5" transform="translate(92.84 157.19)">Input guesses</text><text class="cls-5" transform="translate(92.8 199.54)">Upda<tspan class="cls-20" x="25.16" y="0">t</tspan><tspan x="28.47" y="0">e page</tspan></text><text class="cls-5" transform="translate(333.71 199.16)"><tspan class="cls-8">W</tspan><tspan x="9.45" y="0">o</tspan><tspan class="cls-9" x="15.29" y="0">r</tspan><tspan x="18.57" y="0">d s</tspan><tspan class="cls-21" x="31.99" y="0">t</tspan><tspan x="35.38" y="0">atus</tspan></text><text class="cls-5" transform="translate(334.94 219.14)">Chance left</text><text class="cls-5" transform="translate(326.43 239.12)">D<tspan class="cls-22" x="7.34" y="0">r</tspan><tspan x="10.74" y="0">aw hangman</tspan></text><line class="cls-16" x1="408.98" y1="168.64" x2="310.28" y2="168.64"/><polygon class="cls-13" points="412.51 168.64 407.53 166.61 408.71 168.64 407.53 170.67 412.51 168.64"/><line class="cls-16" x1="313.81" y1="183.19" x2="412.51" y2="183.19"/><polygon class="cls-13" points="310.28 183.19 315.25 185.22 314.07 183.19 315.25 181.16 310.28 183.19"/><rect class="cls-13" x="423.1" y="21.95" width="98.18" height="45.95"/><rect class="cls-13" x="648.72" y="11.14" width="98.18" height="65.85"/><text class="cls-23" transform="translate(451.93 51.84)">PHP</text><rect class="cls-13" x="423.1" y="151.7" width="98.18" height="45.95"/><text class="cls-23" transform="translate(451.93 181.6)">PHP</text><rect class="cls-24" x="659.61" y="34.29" width="18.46" height="9.66"/><rect class="cls-24" x="681.5" y="34.29" width="54.99" height="9.66"/><rect class="cls-24" x="659.61" y="47.31" width="18.46" height="9.66"/><rect class="cls-24" x="681.5" y="47.31" width="54.99" height="9.66"/><rect class="cls-24" x="659.61" y="60.17" width="18.46" height="9.66"/><rect class="cls-24" x="681.5" y="60.17" width="54.99" height="9.66"/><text class="cls-25" transform="translate(668.29 28.26)">Da<tspan class="cls-26" x="17.18" y="0">t</tspan><tspan x="21.7" y="0">abase</tspan></text><rect class="cls-27" x="4.85" y="149.01" width="25.67" height="25.67" rx="7.84"/><rect class="cls-27" x="37.22" y="149.01" width="25.67" height="25.67" rx="7.84"/><rect class="cls-27" x="37.22" y="180.76" width="25.67" height="25.67" rx="7.84"/><text class="cls-28" transform="translate(14.44 165.38)">a</text><text class="cls-28" transform="translate(46.48 165.38)">b</text><text class="cls-28" transform="translate(46.82 197.13)">c</text></svg>