<svg id="Layer_1" data-name="Layer 1" xmlns="http://www.w3.org/2000/svg" viewBox="0 0 746.9 312.14"><defs><style>.cls-1,.cls-17{fill:none;}.cls-1,.cls-10,.cls-17{stroke:#231916;stroke-miterlimit:10;}.cls-12,.cls-2,.cls-4{fill:#231916;}.cls-10,.cls-11,.cls-16,.cls-18,.cls-3{fill:#fff;}.cls-16,.cls-4{font-size:20px;}.cls-11,.cls-12,.cls-16,.cls-4{font-family:SFUIDisplay-Bold, SF UI Display;font-weight:700;}.cls-5{letter-spacing:-0.02em;}.cls-6{letter-spacing:-0.01em;}.cls-7{letter-spacing:0em;}.cls-8{letter-spacing:-0.01em;}.cls-9{letter-spacing:-0.01em;}.cls-11,.cls-12{font-size:12px;}.cls-13{letter-spacing:-0.03em;}.cls-14{letter-spacing:-0.01em;}.cls-15{letter-spacing:-0.02em;}.cls-17{stroke-width:2px;}.cls-18{font-size:3px;font-family:SFUIDisplay-Semibold, SF UI Display;font-weight:600;}.cls-19{letter-spacing:-0.06em;}.cls-20{letter-spacing:-0.05em;}.cls-21{letter-spacing:-0.02em;}.cls-22{letter-spacing:0em;}</style></defs><title>Hangman Game Intro</title><rect class="cls-1" x="251.55" y="47.15" width="69.51" height="46.2"/><rect class="cls-2" x="16.64" y="11.85" width="150.88" height="98.62"/><rect class="cls-3" x="24.85" y="33.75" width="134.81" height="70.02"/><rect class="cls-3" x="65.78" y="18.8" width="93.7" height="7.09"/><circle class="cls-3" cx="31.09" cy="22.35" r="3.12"/><circle class="cls-3" cx="40.54" cy="22.35" r="3.12"/><circle class="cls-3" cx="49.99" cy="22.35" r="3.12"/><text class="cls-4" transform="translate(43.83 72.34)">F<tspan class="cls-5" x="10.97" y="0">r</tspan><tspan x="17.9" y="0">on</tspan><tspan class="cls-6" x="40.88" y="0">t</tspan><tspan x="47.84" y="0">-End</tspan></text><text class="cls-4" transform="translate(260.95 21.49)">HTML</text><text class="cls-4" transform="translate(422.6 21.49)">J<tspan class="cls-7" x="11.16" y="0">a</tspan><tspan class="cls-8" x="22.06" y="0">v</tspan><tspan x="32.37" y="0">aScript</tspan></text><text class="cls-4" transform="translate(268.67 185.39)">PHP</text><text class="cls-4" transform="translate(442.82 185.39)">.<tspan class="cls-6" x="5.56" y="0">A</tspan><tspan class="cls-9" x="19.21" y="0">J</tspan><tspan class="cls-6" x="30.08" y="0">A</tspan><tspan x="43.73" y="0">X</tspan></text><rect class="cls-10" x="236.73" y="39.63" width="62.56" height="34.68"/><text class="cls-4" transform="translate(241.57 63.33)"><tspan class="cls-9">&lt;</tspan><tspan x="12.66" y="0">div&gt;</tspan></text><rect class="cls-2" x="268.01" y="64.7" width="62.56" height="34.68" rx="3"/><text class="cls-11" transform="translate(273.36 85.76)">&lt;but<tspan class="cls-6" x="26.12" y="0">t</tspan><tspan x="30.29" y="0">on&gt;</tspan></text><text class="cls-12" transform="translate(257.56 123.03)">Basic l<tspan class="cls-7" x="35.12" y="0">a</tspan><tspan class="cls-9" x="41.66" y="0">y</tspan><tspan x="48" y="0">out</tspan></text><text class="cls-12" transform="translate(213.06 293.08)">Implement function &amp; build <tspan x="2.82" y="14.4">connection with da</tspan><tspan class="cls-7" x="106.29" y="14.4">t</tspan><tspan x="110.53" y="14.4">abase</tspan></text><text class="cls-12" transform="translate(411.77 293.08)">Communica<tspan class="cls-6" x="65.95" y="0">t</tspan><tspan x="70.13" y="0">e bet</tspan><tspan class="cls-6" x="97.26" y="0">w</tspan><tspan x="106.65" y="0">een </tspan><tspan x="-1.65" y="14.4">bac</tspan><tspan class="cls-13" x="18.62" y="14.4">k</tspan><tspan x="24.76" y="14.4">-end and f</tspan><tspan class="cls-5" x="80.39" y="14.4">r</tspan><tspan x="84.55" y="14.4">on</tspan><tspan class="cls-6" x="98.33" y="14.4">t</tspan><tspan x="102.51" y="14.4">-end</tspan></text><text class="cls-12" transform="translate(420.79 123.15)">Upda<tspan class="cls-6" x="29.33" y="0">t</tspan><tspan x="33.5" y="0">e the changes</tspan></text><path class="cls-2" d="M494,73.55a2.22,2.22,0,0,0-2.79,1.38,4.49,4.49,0,0,0-.16.48,15.24,15.24,0,0,1-27.21,2.31l4.21-2.56-11.73-6.31.21,13.31,4-2.42a19.13,19.13,0,0,0,34.23-3,4.67,4.67,0,0,0,.33-1.34A2,2,0,0,0,494,73.55Z"/><path class="cls-2" d="M458.22,64A2.21,2.21,0,0,0,461,62.59a4.49,4.49,0,0,0,.16-.48,15.24,15.24,0,0,1,27.22-2.3l-4.22,2.56,11.74,6.3-.21-13.3-4,2.41a19.13,19.13,0,0,0-34.23,3,4.38,4.38,0,0,0-.34,1.35A1.93,1.93,0,0,0,458.22,64Z"/><text class="cls-4" transform="translate(646.77 21.49)">CSS</text><text class="cls-12" transform="translate(617.63 124.78)"><tspan class="cls-14">M</tspan><tspan x="10.22" y="0">a</tspan><tspan class="cls-15" x="16.79" y="0">k</tspan><tspan x="22.96" y="0">e page stylish</tspan></text><rect class="cls-2" x="631.51" y="51.48" width="75.32" height="31.29"/><text class="cls-16" transform="translate(638.71 72.55)">-Style:</text><rect class="cls-2" x="15.85" y="202.88" width="151.67" height="88.48"/><rect class="cls-10" x="31.55" y="236.29" width="120.27" height="13.72"/><rect class="cls-10" x="31.55" y="253.04" width="120.27" height="13.72"/><rect class="cls-10" x="31.55" y="269.49" width="120.27" height="13.72"/><text class="cls-16" transform="translate(46.59 229.22)">Bac<tspan class="cls-13" x="34.64" y="0">k</tspan><tspan x="44.86" y="0">-End</tspan></text><line class="cls-17" x1="75.61" y1="188.69" x2="75.61" y2="116.32"/><polygon class="cls-2" points="75.61 195.75 79.67 185.8 75.61 188.16 71.55 185.8 75.61 195.75"/><line class="cls-17" x1="102.86" y1="123.38" x2="102.86" y2="195.75"/><polygon class="cls-2" points="102.86 116.32 98.8 126.27 102.86 123.91 106.92 126.27 102.86 116.32"/><rect class="cls-2" x="236.73" y="214.63" width="24.43" height="24.43"/><rect class="cls-2" x="268.01" y="253.35" width="20.32" height="20.32"/><rect class="cls-2" x="308.3" y="205.53" width="31.28" height="18.22"/><rect class="cls-10" x="273.92" y="219.37" width="25.41" height="22.37"/><rect class="cls-10" x="276.1" y="221.74" width="21.05" height="4.55"/><rect class="cls-10" x="276.1" y="228.29" width="21.05" height="4.55"/><rect class="cls-10" x="276.1" y="234.84" width="21.05" height="4.55"/><line class="cls-10" x1="261.16" y1="224.11" x2="273.27" y2="231.26"/><line class="cls-10" x1="280.39" y1="253.35" x2="286.63" y2="241.75"/><line class="cls-10" x1="308.3" y1="214.63" x2="299.8" y2="228.42"/><text class="cls-18" transform="translate(241.22 223.32)">Function() {<tspan x="6.55" y="3.6">..</tspan><tspan class="cls-19" x="8.17" y="3.6">.</tspan><tspan x="7.1" y="7.2">}</tspan></text><text class="cls-18" transform="translate(269.64 265.97)">ech<tspan class="cls-20" x="4.91" y="0">o</tspan><tspan x="6.44" y="0">”</tspan><tspan class="cls-21" x="7.9" y="0">&lt;</tspan><tspan x="9.74" y="0">div&gt;”</tspan></text><text class="cls-18" transform="translate(314.24 214.56)">Session().s<tspan class="cls-22" x="14.78" y="0">t</tspan><tspan x="15.78" y="0">art</tspan></text><rect class="cls-2" x="445.28" y="206.78" width="19.12" height="59.03"/><rect class="cls-10" x="486.03" y="206.78" width="20.13" height="59.03"/><line class="cls-3" x1="467.67" y1="232.3" x2="482.76" y2="232.3"/><line class="cls-1" x1="470.49" y1="232.3" x2="482.76" y2="232.3"/><polygon class="cls-2" points="467.67 232.3 471.65 233.93 470.7 232.3 471.65 230.67 467.67 232.3"/><line class="cls-3" x1="482.76" y1="237.48" x2="467.67" y2="237.48"/><line class="cls-1" x1="479.94" y1="237.48" x2="467.67" y2="237.48"/><polygon class="cls-2" points="482.76 237.48 478.78 235.85 479.73 237.48 478.78 239.1 482.76 237.48"/></svg>