<svg id="Layer_1" data-name="Layer 1" xmlns="http://www.w3.org/2000/svg" viewBox="0 0 1500 840">
    <defs>
        <style>.cls-1{fill:#231916;}.cls-10,.cls-11,.cls-12,.cls-13,.cls-14,.cls-15,.cls-16,.cls-17,.cls-2,.cls-3,.cls-4,.cls-5,.cls-6,.cls-7,.cls-8,.cls-9{fill:none;stroke:#231916;stroke-miterlimit:10;}.cls-2{stroke-width:12px;}.cls-10,.cls-11,.cls-12,.cls-13,.cls-14,.cls-15,.cls-16,.cls-17,.cls-3,.cls-4,.cls-5,.cls-6,.cls-7,.cls-8,.cls-9{stroke-width:2px;}.cls-3{stroke-dasharray:8;}.cls-5{stroke-dasharray:7.46 7.46;}.cls-6{stroke-dasharray:7.13 7.13;}.cls-7{stroke-dasharray:7.23 7.23;}.cls-8{stroke-dasharray:7.16 7.16;}.cls-9{stroke-dasharray:7.28 7.28;}.cls-10{stroke-dasharray:7.88 7.88;}.cls-11{stroke-dasharray:4.96 4.96;}.cls-12{stroke-dasharray:7.94 7.94;}.cls-13{stroke-dasharray:4.72 4.72;}.cls-14{stroke-dasharray:7.94 7.94;}.cls-15{stroke-dasharray:4.01 4.01;}.cls-16{stroke-dasharray:5.17 5.17;}.cls-17{stroke-dasharray:10.21 10.21;}
        </style>
    </defs>
    <title>iWatchWireframe</title>
    <rect class="cls-1" y="794.3" width="587.08" height="45.7"/>
    <rect class="cls-1" width="34.23" height="817.15"/>
    <rect class="cls-1" x="614.14" y="-614.14" width="34.23" height="1262.51" transform="translate(648.37 -614.14) rotate(90)"/>
    <rect class="cls-1" x="1195.91" width="12.05" height="205.43" transform="translate(2403.87 205.43) rotate(180)"/>
    <rect class="cls-1" x="1195.91" y="275.19" width="12.05" height="205.43" transform="translate(2403.87 755.81) rotate(180)"/>
    <rect class="cls-1" x="1166.4" y="293.68" width="12.05" height="137.2" transform="translate(2145.63 1109.74) rotate(-159.65)"/>
    <rect class="cls-1" x="1225.42" y="293.68" width="12.05" height="137.2" transform="translate(-49.12 450.96) rotate(-20.35)"/>
    <rect class="cls-1" x="1162.61" y="463.43" width="11.36" height="197.45" transform="translate(2068.09 1495.59) rotate(-159.65)"/>
    <rect class="cls-1" x="1230.25" y="462.33" width="12.2" height="199.66" transform="matrix(0.94, -0.35, 0.35, 0.94, -118.34, 465.15)"/>
    <circle class="cls-1" cx="1201.93" cy="254.38" r="48.94"/>
    <line class="cls-2" x1="97.5" y1="457.56" x2="206.56" y2="457.56"/>
    <line class="cls-2" x1="228.6" y1="457.56" x2="337.67" y2="457.56"/>
    <line class="cls-2" x1="356.79" y1="457.56" x2="465.86" y2="457.56"/>
    <line class="cls-2" x1="484.17" y1="457.56" x2="593.24" y2="457.56"/>
    <line class="cls-2" x1="615.28" y1="457.56" x2="724.34" y2="457.56"/>
    <line class="cls-2" x1="743.47" y1="457.56" x2="852.53" y2="457.56"/>
    <line class="cls-2" x1="872.15" y1="457.56" x2="981.21" y2="457.56"/>
    <path class="cls-3" d="M172,439.37V401.44H131.45v37.93H112.61v-90h18.84V385.9H172V349.35h18.84v90Z"/>
    <path class="cls-1" d="M298.61,416.57H267l-6.86,21.84H240.78l31.25-90h22.15l31.31,90h-20ZM271,402.48h23.52L283,365.61h-.44Z"/>
    <polyline class="cls-4" points="377.18 438.41 373.18 438.41 373.18 434.41"/>
    <line class="cls-5" x1="373.18" y1="426.95" x2="373.18" y2="356.12"/>
    <polyline class="cls-4" points="373.18 352.39 373.18 348.39 377.18 348.39"/>
    <polyline class="cls-4" points="384.9 348.39 388.9 348.39 391.23 351.64"/>
    <line class="cls-6" x1="395.38" y1="357.43" x2="426.54" y2="400.88"/>
    <polyline class="cls-4" points="428.61 403.78 430.94 407.03 431.44 407.03 431.44 403.03"/>
    <line class="cls-7" x1="431.44" y1="395.79" x2="431.44" y2="356.01"/>
    <polyline class="cls-4" points="431.44 352.39 431.44 348.39 435.44 348.39"/>
    <polyline class="cls-4" points="445.47 348.39 449.47 348.39 449.47 352.39"/>
    <line class="cls-5" x1="449.47" y1="359.85" x2="449.47" y2="430.68"/>
    <polyline class="cls-4" points="449.47 434.41 449.47 438.41 445.47 438.41"/>
    <polyline class="cls-4" points="437.88 438.41 433.88 438.41 431.55 435.15"/>
    <line class="cls-8" x1="427.39" y1="429.33" x2="396.17" y2="385.62"/>
    <polyline class="cls-4" points="394.09 382.71 391.77 379.46 391.21 379.46 391.21 383.46"/>
    <line class="cls-9" x1="391.21" y1="390.73" x2="391.21" y2="430.77"/>
    <polyline class="cls-4" points="391.21 434.41 391.21 438.41 387.21 438.41"/>
    <path class="cls-1" d="M540.36,438.19c-26,0-41.9-17-41.9-45.28,0-27.86,15.92-44.74,41.48-44.74,20.32,0,35.63,12,38.23,29.6H559.9c-2.65-9.1-10.07-14.53-19.9-14.53-14.35,0-23,10.92-23,29.43,0,18.87,9.16,30.38,23.63,30.38,11.88,0,20.14-7.29,20.5-18.08l.06-1.39H542.29V390.31H579v9.83C579,423.84,564.6,438.19,540.36,438.19Z"/>
    <path class="cls-1" d="M699.23,438.41V377.65h-.5l-24.45,59.88H662.43L638,377.65h-.5v60.76H620.69v-90h21.84l25.57,63.82h.5l25.58-63.82H716v90Z"/>
    <polyline class="cls-4" points="814.67 421.7 813.47 417.89 809.47 417.89"/>
    <line class="cls-10" x1="801.59" y1="417.89" x2="789.78" y2="417.89"/>
    <polyline class="cls-4" points="785.84 417.89 781.84 417.89 780.64 421.7"/>
    <line class="cls-11" x1="779.16" y1="426.44" x2="776.92" y2="433.54"/>
    <polyline class="cls-4" points="776.18 435.9 774.98 439.72 770.98 439.72"/>
    <polyline class="cls-4" points="759.64 439.72 755.64 439.72 756.95 435.94"/>
    <line class="cls-12" x1="759.56" y1="428.45" x2="784.28" y2="357.23"/>
    <polyline class="cls-4" points="785.58 353.48 786.89 349.7 790.89 349.7"/>
    <line class="cls-13" x1="795.61" y1="349.7" x2="802.68" y2="349.7"/>
    <polyline class="cls-4" points="805.04 349.7 809.04 349.7 810.36 353.48"/>
    <line class="cls-14" x1="812.96" y1="360.98" x2="837.74" y2="432.19"/>
    <polyline class="cls-4" points="839.04 435.94 840.36 439.72 836.36 439.72"/>
    <line class="cls-15" x1="832.35" y1="439.72" x2="826.34" y2="439.72"/>
    <polyline class="cls-4" points="824.33 439.72 820.33 439.72 819.13 435.9"/>
    <line class="cls-11" x1="817.65" y1="431.17" x2="815.41" y2="424.07"/>
    <polyline class="cls-4" points="787.09 399.97 785.9 403.79 789.9 403.79"/>
    <line class="cls-16" x1="795.07" y1="403.79" x2="802.83" y2="403.79"/>
    <polyline class="cls-4" points="805.41 403.79 809.41 403.79 808.22 399.97"/>
    <line class="cls-17" x1="805.17" y1="390.23" x2="800.59" y2="375.61"/>
    <polyline class="cls-4" points="799.07 370.74 797.88 366.92 797.44 366.92 796.24 370.74"/>
    <line class="cls-17" x1="793.19" y1="380.48" x2="788.62" y2="395.1"/>
    <path class="cls-1" d="M888.53,439.72v-90h15.73l42,58.64h.5V349.7h18v90h-15.6l-42.11-59h-.56v59Z"/>
</svg>