<svg xmlns="http://www.w3.org/2000/svg" viewBox="0 0 1058 731"><defs><style>.cls-1{fill:#231916;}.cls-10,.cls-11,.cls-12,.cls-13,.cls-2,.cls-3,.cls-4,.cls-5,.cls-6,.cls-7,.cls-8,.cls-9{fill:none;stroke:#231916;stroke-miterlimit:10;}.cls-2{stroke-width:12px;}.cls-10,.cls-11,.cls-12,.cls-13,.cls-3,.cls-4,.cls-5,.cls-6,.cls-7,.cls-8,.cls-9{stroke-width:2px;}.cls-3{stroke-dasharray:8;}.cls-5{stroke-dasharray:7.09 7.09;}.cls-6{stroke-dasharray:7.08 7.08;}.cls-7{stroke-dasharray:7.76 7.76;}.cls-8{stroke-dasharray:7.12 7.12;}.cls-9{stroke-dasharray:7.81 7.81;}.cls-10{stroke-dasharray:5.75 5.75;}.cls-11{stroke-dasharray:7.56 7.56;}.cls-12{stroke-dasharray:7.56 7.56;}.cls-13{stroke-dasharray:7.61 7.61;}</style></defs><title>Index</title><g id="BLUR_FOR_P4" data-name="BLUR FOR P4"><rect class="cls-1" x="-0.08" y="1" width="36.48" height="694"/><rect class="cls-1" x="1" y="694.92" width="468.54" height="36.48"/><rect class="cls-1" x="485.56" y="-486.14" width="36.48" height="1007.59" transform="translate(521.45 -486.14) rotate(90)"/><rect class="cls-1" x="957.44" y="1" width="9.61" height="163.95" transform="translate(1924.5 165.95) rotate(180)"/><rect class="cls-1" x="957.44" y="220.63" width="9.61" height="163.95" transform="translate(1924.5 605.2) rotate(180)"/><rect class="cls-1" x="933.89" y="235.38" width="9.61" height="109.49" transform="translate(1717.87 888.65) rotate(-159.65)"/><rect class="cls-1" x="980.99" y="235.38" width="9.61" height="109.49" transform="translate(-39.36 361.01) rotate(-20.35)"/><rect class="cls-1" x="930.87" y="370.86" width="9.07" height="157.59" transform="translate(1655.98 1196.59) rotate(-159.65)"/><rect class="cls-1" x="984.85" y="369.98" width="9.74" height="159.35" transform="translate(-94.6 372.34) rotate(-20.35)"/><circle class="cls-1" cx="962.25" cy="204.01" r="39.06"/><line class="cls-2" x1="78.81" y1="401.17" x2="165.86" y2="401.17"/><line class="cls-2" x1="183.44" y1="401.17" x2="270.49" y2="401.17"/><line class="cls-2" x1="285.75" y1="401.17" x2="372.8" y2="401.17"/><line class="cls-2" x1="387.41" y1="401.17" x2="474.46" y2="401.17"/><line class="cls-2" x1="492.05" y1="401.17" x2="579.09" y2="401.17"/><line class="cls-2" x1="594.35" y1="401.17" x2="681.4" y2="401.17"/><line class="cls-2" x1="697.05" y1="401.17" x2="784.1" y2="401.17"/><path class="cls-3" d="M138.27,386.65V356.38H105.91v30.27h-15V314.81h15V344h32.36V314.81h15v71.84Z"/><path class="cls-1" d="M239.31,368.46H214.07l-5.47,17.43H193.16l24.94-71.84h17.68l25,71.84h-16Zm-22-11.25h18.77l-9.21-29.42h-.35Z"/><polyline class="cls-4" points="302.83 385.89 298.83 385.89 298.83 381.89"/><line class="cls-5" x1="298.83" y1="374.79" x2="298.83" y2="321.59"/><polyline class="cls-4" points="298.83 318.05 298.83 314.05 302.83 314.05"/><polyline class="cls-4" points="307.38 314.05 311.38 314.05 313.71 317.3"/><line class="cls-6" x1="317.83" y1="323.05" x2="340.54" y2="354.72"/><polyline class="cls-4" points="342.6 357.6 344.93 360.85 345.33 360.85 345.33 356.85"/><line class="cls-7" x1="345.33" y1="349.09" x2="345.33" y2="321.93"/><polyline class="cls-4" points="345.33 318.05 345.33 314.05 349.33 314.05"/><polyline class="cls-4" points="355.72 314.05 359.72 314.05 359.72 318.05"/><line class="cls-5" x1="359.72" y1="325.14" x2="359.72" y2="378.34"/><polyline class="cls-4" points="359.72 381.89 359.72 385.89 355.72 385.89"/><polyline class="cls-4" points="351.27 385.89 347.27 385.89 344.95 382.63"/><line class="cls-8" x1="340.81" y1="376.84" x2="318.06" y2="344.99"/><polyline class="cls-4" points="315.99 342.09 313.67 338.84 313.22 338.84 313.22 342.84"/><line class="cls-9" x1="313.22" y1="350.65" x2="313.22" y2="377.98"/><polyline class="cls-4" points="313.22 381.89 313.22 385.89 309.22 385.89"/><path class="cls-1" d="M432.26,385.71c-20.74,0-33.45-13.57-33.45-36.14,0-22.23,12.71-35.7,33.11-35.7,16.22,0,28.44,9.58,30.51,23.63H447.85c-2.12-7.27-8-11.6-15.88-11.6-11.45,0-18.33,8.71-18.33,23.48,0,15.06,7.31,24.25,18.86,24.25,9.48,0,16.07-5.82,16.36-14.43l.05-1.11H433.8V347.51h29.25v7.84C463.05,374.26,451.6,385.71,432.26,385.71Z"/><path class="cls-1" d="M559.05,385.89V337.4h-.4l-19.52,47.79h-9.46L510.16,337.4h-.4v48.49H496.37V314.05h17.42L534.21,365h.39L555,314.05h17.42v71.84Z"/><polyline class="cls-4" points="651.42 373.33 650.22 369.51 646.22 369.51"/><line class="cls-10" x1="640.47" y1="369.51" x2="631.85" y2="369.51"/><polyline class="cls-4" points="628.98 369.51 624.98 369.51 623.78 373.33"/><polyline class="cls-4" points="620.7 383.12 619.5 386.94 615.5 386.94"/><polyline class="cls-4" points="608.07 386.94 604.07 386.94 605.38 383.16"/><line class="cls-11" x1="607.86" y1="376.02" x2="626.46" y2="322.44"/><polyline class="cls-4" points="627.7 318.87 629.01 315.09 633.01 315.09"/><polyline class="cls-4" points="642.69 315.09 646.69 315.09 648 318.87"/><line class="cls-12" x1="650.49" y1="326.02" x2="669.12" y2="379.59"/><polyline class="cls-4" points="670.37 383.16 671.68 386.94 667.68 386.94"/><polyline class="cls-4" points="659.7 386.94 655.7 386.94 654.5 383.12"/><polyline class="cls-4" points="629.41 354.44 628.22 358.26 632.22 358.26"/><polyline class="cls-4" points="642.99 358.26 646.99 358.26 645.79 354.44"/><line class="cls-13" x1="643.52" y1="347.18" x2="640.11" y2="336.28"/><polyline class="cls-4" points="638.97 332.65 637.77 328.84 637.43 328.84 636.23 332.65"/><line class="cls-13" x1="633.96" y1="339.92" x2="630.55" y2="350.81"/><path class="cls-1" d="M710.13,386.94V315.09h12.55l33.55,46.8h.4v-46.8H771v71.85H758.57L725,339.89h-.45v47.05Z"/></g></svg>