<svg id="Layer_1" data-name="Layer 1" xmlns="http://www.w3.org/2000/svg" viewBox="0 0 1058 731"><defs><style>.cls-1{fill:#e3da60;}.cls-2,.cls-4,.cls-5,.cls-6,.cls-7,.cls-8{fill:none;stroke-miterlimit:10;}.cls-2{stroke:#2e2f1d;stroke-width:15px;}.cls-3{fill:#231916;}.cls-4,.cls-5,.cls-6,.cls-7,.cls-8{stroke:#2c2e1c;}.cls-4,.cls-5,.cls-6,.cls-7{stroke-width:5px;}.cls-5{stroke-dasharray:17.29 17.29;}.cls-6{stroke-dasharray:22.52 22.52;}.cls-7{stroke-dasharray:20.63 20.63;}.cls-8{stroke-width:10px;}</style></defs><title>Index</title><rect class="cls-1" width="1058" height="731"/><circle class="cls-2" cx="526.92" cy="370.39" r="179.41"/><path class="cls-3" d="M386.65,380.66c.79,6.55,7.34,10.83,16,10.83s14.52-4.23,14.52-10.14c0-5.12-3.64-8.07-12.6-10.19L395.36,369c-13.09-3-19.29-9.3-19.29-19.44,0-12.6,11-21.12,26.43-21.12,15.66,0,26,8.47,26.29,21H416.68c-.59-6.65-6.15-10.63-14.28-10.63S389,342.71,389,348.61c0,4.73,3.59,7.49,12.3,9.55l8.17,1.87c14.43,3.3,20.53,9.26,20.53,19.84,0,13.49-10.83,22-28,22-16.34,0-27.07-8.08-27.62-21.17Z"/><path class="cls-3" d="M484.32,385c-1.53,9.75-10.88,16.39-23.09,16.39-15.55,0-25.1-10.19-25.1-26.68s9.64-27.07,24.61-27.07c14.72,0,24.07,10,24.07,25.84v4H448.33v.74c0,8.22,5.27,13.68,13.15,13.68,5.56,0,10-2.65,11.37-6.89Zm-35.89-15.6H472.8c-.25-7.39-5.07-12.26-12-12.26S448.92,362.15,448.43,369.44Z"/><path class="cls-3" d="M490.42,385.68c0-9.3,7.19-14.67,20.33-15.46l13.49-.83V365.7c0-5.47-3.69-8.47-10-8.47-5.32,0-9.11,2.75-9.89,6.89H493c.35-9.6,9.21-16.44,21.66-16.44,13.1,0,21.66,6.79,21.66,17.18v35.79H524.54v-8.32h-.25c-2.9,5.56-9.35,9.06-16.24,9.06C497.81,401.39,490.42,395,490.42,385.68Zm33.82-4.38v-3.94l-11.76.74c-6.4.44-9.75,2.9-9.75,7.09s3.55,6.94,9,6.94C518.78,392.13,524.24,387.5,524.24,381.3Z"/><path class="cls-3" d="M546.2,348.47H558v9.1h.25c1.67-6.15,6.35-9.7,12.5-9.7a15.22,15.22,0,0,1,3.84.45v11.07a15.62,15.62,0,0,0-5-.69c-6.94,0-11.12,4.48-11.12,11.87v30.08H546.2Z"/><path class="cls-3" d="M613.3,367.07c-.84-5.51-4.88-9.5-11.42-9.5-7.73,0-12.71,6.5-12.71,17s5,16.93,12.75,16.93c6.26,0,10.34-3.25,11.43-9.16h11.56c-1,11.57-9.94,19.1-23.08,19.1-15.26,0-25.11-10.23-25.11-26.87,0-16.4,9.85-26.88,25-26.88,13.68,0,22.35,8.46,23.13,19.39Z"/><path class="cls-3" d="M632.54,329.61h12.11v28h.25c3.05-6.45,8.52-9.79,16.49-9.79,11.52,0,18.27,7.58,18.27,19.49v33.38H667.4V369.78c0-7.28-3.65-11.67-10.73-11.67-7.39,0-11.87,5.12-11.87,12.8v29.74H632.54Z"/><line class="cls-4" x1="668.27" y1="256.26" x2="676.59" y2="250.71"/><line class="cls-5" x1="690.98" y1="241.13" x2="770.15" y2="188.44"/><line class="cls-4" x1="777.34" y1="183.65" x2="785.67" y2="178.1"/><line class="cls-4" x1="202.2" y1="393.2" x2="212.13" y2="392"/><line class="cls-6" x1="234.49" y1="389.31" x2="312.76" y2="379.9"/><line class="cls-4" x1="323.94" y1="378.56" x2="333.87" y2="377.36"/><line class="cls-4" x1="708.41" y1="415.55" x2="716.11" y2="421.92"/><line class="cls-7" x1="732.01" y1="435.08" x2="819.47" y2="507.41"/><line class="cls-4" x1="827.42" y1="513.98" x2="835.12" y2="520.36"/><rect class="cls-3" x="45.86" y="43.96" width="26.21" height="4.01" transform="translate(133.17 36.78) rotate(135)"/><rect class="cls-3" x="45.58" y="43.68" width="26.21" height="4.01" transform="translate(49.49 -28.12) rotate(45)"/><rect class="cls-3" x="223.94" y="44.46" width="15.25" height="2.33" transform="translate(427.56 -85.86) rotate(135)"/><rect class="cls-3" x="223.77" y="44.29" width="15.25" height="2.33" transform="translate(99.92 -150.31) rotate(45)"/><rect class="cls-3" x="392.87" y="45.59" width="5.38" height="0.82" transform="translate(707.79 -201.18) rotate(135)"/><rect class="cls-3" x="392.81" y="45.53" width="5.38" height="0.82" transform="translate(148.32 -266.21) rotate(45)"/><circle class="cls-8" cx="811.46" cy="157.01" r="32.07"/><circle class="cls-8" cx="853.58" cy="533.59" r="18.46"/><circle class="cls-8" cx="155.35" cy="403.78" r="43.13"/><rect class="cls-3" x="985.93" y="683.03" width="26.21" height="4.01" transform="translate(-191.78 907.06) rotate(-45)"/><rect class="cls-3" x="986.21" y="683.31" width="26.21" height="4.01" transform="translate(1221.35 1876.53) rotate(-135)"/><rect class="cls-3" x="818.81" y="684.21" width="15.25" height="2.33" transform="translate(-242.58 785.12) rotate(-45)"/><rect class="cls-3" x="818.98" y="684.38" width="15.25" height="2.33" transform="translate(926.35 1754.79) rotate(-135)"/><rect class="cls-3" x="659.75" y="684.59" width="5.38" height="0.82" transform="translate(-290.35 669.05) rotate(-45)"/><rect class="cls-3" x="659.81" y="684.65" width="5.38" height="0.82" transform="translate(646.55 1637.93) rotate(-135)"/></svg>